<svg xmlns="http://www.w3.org/2000/svg" width="260" height="260" viewBox="0 0 260 260"><style> path { fill: #4A8040; } @media (prefers-color-scheme: dark) { path { fill: #FFFFFF; } }</style><path d="M102 131.8c.6.5 18.5 16.5 22.8 20.8 22.5 22.4 39.6 53 39.7 73.2 0 21-15 34.2-34.2 34.2A32.8 32.8 0 0196 225.8c0-10.4 2.1-18.1 6.6-26.4l1-1.5c1.3-2.6 2.6-4.5 6.5-10.4a6.8 6.8 0 0111.3 7.6l-2.8 4.2a90 90 0 00-3.8 6.1 38.2 38.2 0 00-5.2 20.5c0 13 8.6 20.5 20.6 20.5 12 0 20.6-7.6 20.6-20.5 0-15.8-15.2-43-35-63.1l-.7-.6c-4.2-4.2-23.4-21.3-22.4-20.4a152.4 152.4 0 01-25.5-28.4A68 68 0 0155 75.2 75.5 75.5 0 01130.3 0a75.5 75.5 0 0175.3 75.2 70 70 0 01-11.3 37.7l-.7 1.1c-5.4 8.5-12 16.1-22.1 26.4l-3.7 3.7-4.7 4.6-5.4 5.6a6.8 6.8 0 01-9.8-9.4l.7-.7 5.4-5.5 6.8-6.8 1.6-1.6c9.6-9.8 15.6-16.8 20.4-24.6a56.6 56.6 0 009.2-30.5 61.9 61.9 0 00-61.7-61.6c-34 0-61.7 27.7-61.7 61.6 0 19.7 10.6 35.7 33.4 56.6z"/></svg>