<svg xmlns="http://www.w3.org/2000/svg" width="24" height="24" viewBox="0 0 24 24"><path fill="#FFF" d="M7.3 5.1c1.2 0 2.3 1 2.3 2.3 0 .9-.5 1.6-1.2 2v6.3A2.3 2.3 0 0 1 7.3 20C6 20 5 19 5 17.7c0-.8.5-1.6 1.1-2V9.4a2.3 2.3 0 0 1 1.2-4.3zM14 4v2.3h1.2c1.9 0 3.4 1.5 3.4 3.4v6a2.3 2.3 0 0 1-1.6 4.2c-.9-.1-1.5-.8-1.7-1.6-.3-1 .2-2 1-2.6v-6c0-.6-.5-1.1-1.1-1.1H14v2.3l-3.4-3.5L14.1 4zM7.3 16.6a1.1 1.1 0 1 0 0 2.3 1.1 1.1 0 0 0 0-2.3zm10.3 0a1.1 1.1 0 1 0 0 2.3 1.1 1.1 0 0 0 0-2.3zM7.3 6.3a1.1 1.1 0 1 0 0 2.3 1.1 1.1 0 0 0 0-2.3z"/></svg>