<svg xmlns="http://www.w3.org/2000/svg" width="600px" height="600px" viewBox="0 0 600 600"><g fill="#000" opacity="0.03" transform="translate(115 96)"><path d="M91.7 262.3a7.2 7.2 0 0 1 1.2 5.6c-.3 1.6-1.3 3-2.6 4a1.8 1.8 0 0 1-2-3c.8-.6 2-2.3.4-4.5-1.5-2.3-3.5-1.9-4.4-1.3-1.3 1-1.2 2-.3 5 .5 1.3 1 2.7.9 4a5 5 0 0 1-2.4 4.5 6.2 6.2 0 0 1-4.4 1 7 7 0 0 1-4.4-3 6.7 6.7 0 0 1-1.2-5.3 6 6 0 0 1 2.5-3.8c.8-.5 2-.3 2.5.6.6.8.4 1.9-.5 2.4-.7.6-1.7 2-.3 4 1.3 2 3 1.7 3.8 1.1 1-.6 1.1-1.3.1-4.4a13 13 0 0 1-.9-4.4c0-2 1-3.5 2.6-4.7 1.4-.9 3-1.3 4.7-1 1.3.2 3.2 1 4.7 3.2zm-15.5-24.6c.3 1-.1 2-1 2.3L58 246.3c-1 .4-2-.1-2.3-1-.4-1 .1-2 1-2.4l17-6.3c1-.3 2 .2 2.4 1zm-10.3-37.4a2 2 0 0 1-1.7 2l-12.1 1 7.6 4.2c.6.3 1 .9 1 1.4 0 .7-.2 1.2-.7 1.6l-6.8 5.6 12.2-1.2c1 0 2 .6 2 1.6.1 1-.6 1.9-1.6 2l-18.1 1.7a1.8 1.8 0 0 1-1.3-3.2l9.2-7.6-10.5-5.7a2 2 0 0 1-.9-2 2 2 0 0 1 1.6-1.4l18.1-1.7c1 0 2 .7 2 1.7zM44.4 166l-1.4 5.7c-.2 1 .4 2 1.4 2.2l17.7 4c1 .2 2-.5 2.2-1.4.2-1-.4-2-1.4-2.2l-4-.9.9-4.1a7.9 7.9 0 0 0-15.4-3.5zm11.8 2.6l-1 4.1L47 171l.9-4.2a4.3 4.3 0 1 1 8.3 1.9zm21.3-35.8l-5 9.1c-.5.9-1.6 1.2-2.5.7l-15.9-8.8a1.8 1.8 0 0 1 1.8-3.1l14.3 7.9 4.1-7.5c.5-.9 1.6-1.2 2.5-.7.9.5 1.2 1.6.7 2.4zm17-30.8l-7.1 7.1-4.2-4.2 5-4.9c.7-.7.7-1.8 0-2.5-.8-.8-1.9-.8-2.6 0l-5 4.9-3.5-3.6 7.1-7c.7-.8.7-2 0-2.6-.7-.7-1.8-.7-2.5 0l-8.4 8.3c-.7.7-.7 1.9 0 2.6L86 112.9c.7.8 1.8.8 2.5 0l8.4-8.3c.7-.7.7-1.8 0-2.5-.7-.8-1.8-.8-2.5 0zm50.7-51.9l-13 3.4a1.8 1.8 0 0 0 .8 3.5l4.8-1.2 4.1 15.8c.3 1 1.2 1.5 2.2 1.3 1-.3 1.6-1.3 1.3-2.2l-4.1-15.9 4.8-1.2a1.8 1.8 0 0 0-1-3.5zm37.2 15.6a10.9 10.9 0 1 1 1.5-21.7 10.9 10.9 0 0 1-1.5 21.7zm1.3-18a7.3 7.3 0 1 0-1 14.5 7.3 7.3 0 0 0 1-14.6zm70 40c-.8-.6-1-1.8-.4-2.6l7.3-9.8-8.2 3c-.6.1-1.2 0-1.7-.3a2 2 0 0 1-.8-1.6l.4-8.7-7.2 9.9c-.6.8-1.8 1-2.6.4s-1-1.7-.3-2.6l10.7-14.6c.5-.6 1.3-.9 2-.6.8.2 1.3 1 1.3 1.8l-.5 12 11.2-4.1c.8-.3 1.6 0 2 .6.5.6.5 1.5 0 2.1l-10.7 14.6c-.6.9-1.7 1-2.5.5zm31 27.2l10.4-17c.4-.6.3-1.4 0-2-.5-.5-1.2-.8-2-.7l-19.4 3.9c-1 .2-1.6 1.1-1.4 2.1.2 1 1.2 1.6 2.2 1.4l4.5-.9 5.1 7.3-2.4 4a1.8 1.8 0 0 0 .6 2.4c.8.5 2 .3 2.4-.5zm-1.8-14l7-1.3-3.7 6-3.3-4.7zm25.1 37.3l8.8 3.7c.9.3 2 0 2.3-1 .4-.9 0-2-1-2.3l-12.1-5.2 8.6-2.6c1-.3 1.5-1.3 1.2-2.3-.3-1-1.3-1.5-2.2-1.2l-17.4 5.3c-1 .3-1.5 1.3-1.2 2.2.3 1 1.3 1.6 2.2 1.3l3.4-1 4 1.6-6 7.7c-.5.8-.4 2 .4 2.5.8.6 2 .5 2.6-.3l6.4-8.4zm.7 42v-10h5.9v7c0 1 .8 1.7 1.8 1.7s1.8-.8 1.8-1.8v-7h5v10c0 1 .9 1.8 1.9 1.8 1 0 1.8-.8 1.8-1.8v-11.8c0-1-1-1.8-2-1.8h-18c-1 .1-1.9 1-1.9 1.9l.1 11.8c0 1 .8 1.8 1.8 1.8s1.8-.8 1.8-1.8zm-11.5 50.4c.4-1 1.5-1.3 2.4-.8l16.2 8c1 .5 1.3 1.6.8 2.5-.4.9-1.5 1.3-2.4.8L298 233a1.8 1.8 0 0 1-.8-2.4zm-1.7 44.7l8.9-10.1a1.8 1.8 0 0 0-2.8-2.4l-3.2 3.7-12.4-10.7c-.7-.6-1.8-.6-2.5.2s-.6 1.9.2 2.5l12.3 10.8-3.2 3.7a1.8 1.8 0 0 0 2.7 2.3zM185.5 97a88.7 88.7 0 0 1 88.5 88.3 82 82 0 0 1-13.3 44.1l-.4.7-.2.3-.4.6-.2.4-.4.6-.2.3-.4.7-.5.6-.4.7-.2.3-.5.6-.2.3-.4.7-.3.3-.4.6-.3.3-.4.7-.5.6-.5.6-.5.7-.2.3-.5.6-.5.7-.5.6-.3.3-.5.7-.5.6-.5.7-.6.6-.5.7-.6.6-.6.7-.5.6-.6.7-.6.7-.6.7-.6.6-.6.7-.7.7-.6.7-.6.7-.7.7-.7.7-.6.8-.7.7-.7.7-.7.8-1.1 1-.8.8-1 1.2-1.2 1.2-1.2 1.2-2.2 2.2-7.3 7.2-1.6 1.6-1.4 1.5-1.1 1.1-.9.9-1 1-1 1a4.4 4.4 0 0 1-6.3-6l1-1 1-1.1 1.1-1.1 1-1 2-2 3-3 3.9-3.9 2.4-2.4 1.2-1.2 1-1.1 1.2-1.2 1-1.1 1.2-1 1-1.2 1-1 1-1 .3-.4 1-1 .6-.7.6-.7.6-.7.6-.6.6-.7.6-.6.6-.7.3-.3.5-.6.6-.7.5-.6.3-.3.5-.7.5-.6.3-.3.5-.6.5-.6.5-.6.2-.3.5-.6.5-.6.5-.7.4-.6.3-.3.4-.6.5-.6.4-.6.4-.6.3-.3.4-.6.4-.6.4-.6.4-.6.2-.3.4-.6.4-.6.2-.3.4-.6.4-.6.4-.6.4-.6a73.3 73.3 0 0 0 12-39.5 79.9 79.9 0 0 0-79.8-79.5 79.9 79.9 0 0 0-79.7 79.5 70.9 70.9 0 0 0 14.8 42.6l.5.7.5.7.5.7 1.6 2 .5.8 1.4 1.7.6.7 2.6 3.1.6.7.7.7.6.7.6.7.7.7.7.7.6.8.4.3.6.7.7.8.7.7.8.7.3.4.8.7.3.4.8.7.7.8c.2 0 .3.2.4.3l.8.8.8.8.8.7.8.8.8.8.8.7.9.8.8.8.9.8.9.8 1.5 1.4 1.2 1.1 2 1.7 2 1.9 7.9 7 2.1 1.9 1.7 1.5 1.6 1.4 1 1 1.2 1 .7.7.9.8.6.6.7.6.6.6.8.8.6.6.8.8c26.9 26.8 47.5 63.5 47.5 87 0 12-4.2 21.9-12 28.7-6.9 6-16.2 9.3-26 9.3s-19.1-3.2-26-9.3a36.7 36.7 0 0 1-12-28.7c0-12.2 2.4-21.1 7.8-30.9l.4-.6.2-.4.4-.7.4-.7.4-.6.5-.9.6-.9.4-.7.6-.9 1-1.5 1.3-2 2.6-4a4.4 4.4 0 0 1 7.3 4.9l-2 3.1-1.8 2.6-.9 1.4-.7 1.2-.4.6-.4.7-.5.8-.2.3-.3.4-.4.7-.3.7-.3.5a50.7 50.7 0 0 0-7 27 28 28 0 0 0 9 22 30.7 30.7 0 0 0 20.3 7.1 31 31 0 0 0 20.3-7.1 28 28 0 0 0 9-22c0-20.8-19.6-55.5-45-81l-.8-.7-.5-.5-.8-.8-.8-.8-.8-.7-.9-.8-1.1-1-1.2-1.2-1.2-1.1-1-1-1.2-1-.8-.7-1.5-1.3-8.2-7.3-2-1.7-1.6-1.5-1.1-1-1.6-1.4-1-1-.9-.8-.4-.4-1-.8-.8-.8-.9-.8-.8-.8-.9-.8-.8-.8-.8-.8-.4-.4-.8-.8-.8-.8-.8-.7-.7-.8-.8-.8-.8-.7-.7-.8-2.8-3-.7-.7-1-1.2-.7-.7-2.2-2.6-.7-.7a145 145 0 0 1-2-2.6l-.7-.7-.5-.7-.9-1.1-.5-.8c-1.6-2-3.1-4.1-4.5-6.3A79.5 79.5 0 0 1 97 185.3 88.7 88.7 0 0 1 185.5 97z"/><path d="M188.7 0a185.4 185.4 0 0 1 59.5 359.7 4.4 4.4 0 0 1-3-8.2A176.6 176.6 0 1 0 8.9 182.2a176.6 176.6 0 0 0 113.7 168 4.4 4.4 0 1 1-3.2 8.3A185.4 185.4 0 0 1 185.7 0h3z"/></g></svg>