<svg xmlns="http://www.w3.org/2000/svg" width="600px" height="600px" viewBox="0 0 600 600"><g fill="#000" opacity="0.03" transform="translate(115 96)"><path d="M92 262.4c2.5 3.7 1.2 7.3-1.3 9a1 1 0 0 1-1.4-.2 1 1 0 0 1 .3-1.4c1.6-1.1 2.6-3.5.8-6.3-1.9-2.7-4.5-2.7-6.2-1.6-2.2 1.5-1.7 3.4-.7 6.5.9 2.7 2 6-1.3 8.2-2.3 1.6-5.9 1.4-8.2-2-2.3-3.4-1.1-6.8 1.2-8.4a1 1 0 0 1 1.4.3c.3.4.2 1-.3 1.3-1.5 1-2.3 3.2-.7 5.7 1.7 2.5 4 2.5 5.5 1.5 2-1.3 1.5-3.1.5-6-.8-2.8-2-6.4 1.5-8.8 2.6-1.7 6.4-1.4 8.9 2.2zM76.6 238a1 1 0 0 1-.6 1.3l-18.5 7.2c-.6.2-1.1 0-1.3-.6a1 1 0 0 1 .6-1.3l18.6-7.2c.5-.2 1 0 1.2.6zm-10.3-38.7c0 .6-.4 1-1 1L48.7 202l11.4 6c.3.2.5.5.5.8 0 .4-.1.7-.4.9l-10 8 16.8-1.5a1 1 0 1 1 .1 2l-20 1.8a1 1 0 0 1-1-.7 1 1 0 0 1 .4-1l11.3-9.2-13-7.1a1 1 0 0 1-.5-1 1 1 0 0 1 1-.8l19.9-1.9c.5 0 1 .4 1 1zm-21.8-33.4l-1.5 6.4c-.1.6.2 1 .8 1.2l19.4 4.3c.6.2 1-.2 1.2-.7a1 1 0 0 0-.7-1.2l-5.5-1.2 1.2-5.5c1-4.1-1.7-8.2-5.8-9a7.6 7.6 0 0 0-9.1 5.7zm13 2.9l-1.2 5.5-11.1-2.5 1.2-5.5c.7-3 3.7-5 6.8-4.3 3 .7 5 3.8 4.3 6.8zm20.4-36.1l-5.3 9.7a1 1 0 0 1-1.3.4L54 133a1 1 0 0 1-.4-1.4 1 1 0 0 1 1.4-.4l16.4 9.3 4.8-8.8a1 1 0 0 1 1.3-.4c.5.3.6.9.4 1.4zm18.5-30l-8.4 8.5-6-6 6-6.2c.4-.4.4-1 0-1.4a1 1 0 0 0-1.3 0l-6.2 6.1-5.4-5.3 8.6-8.5c.4-.4.4-1 0-1.4a1 1 0 0 0-1.4 0l-9.2 9.2a1 1 0 0 0 0 1.4l14 14.2c.5.4 1 .4 1.5 0l9.2-9.2c.4-.4.4-1 0-1.4a1 1 0 0 0-1.4 0zM146 50.2l-14.4 3.7a1 1 0 0 0-.7 1.2c.1.5.6.9 1.2.7l6.2-1.6 4.7 18.4c.1.5.7.8 1.2.7.5-.1.8-.7.7-1.2l-4.7-18.4 6.2-1.6c.5-.2.8-.7.7-1.2a1 1 0 0 0-1.2-.7zm37.1 15.7a11 11 0 1 1 1.6-21.9 11 11 0 0 1-1.6 21.8zm1.4-19.9a9 9 0 1 0-1.2 17.9 9 9 0 0 0 1.2-17.9zm70.4 42.4a1 1 0 0 1-.2-1.3l10-13.6-12.2 4.4a1 1 0 0 1-1-.2 1 1 0 0 1-.4-.8l.6-13-10 13.6a1 1 0 0 1-1.4.2 1 1 0 0 1-.2-1.3l12-16.2a1 1 0 0 1 1-.4c.5.2.7.6.7 1l-.6 14.7 13.8-5c.4-.1 1 0 1.2.4.2.3.2.8 0 1.2l-12 16.1a1 1 0 0 1-1.3.2zm29.1 27.3l11.3-18.5a1 1 0 0 0 0-1.1 1 1 0 0 0-1-.4l-21.2 4.2a1 1 0 0 0-.8 1.2c.1.5.6.9 1.2.8l5.6-1.2 6.3 9-3 5a1 1 0 0 0 0 1c0 .2.2.3.3.4.5.2 1 0 1.4-.4zm-2.8-15.4l11.3-2.3-6 10-5.3-7.7zm19.5 46.4l6.5-12 11 5.8c.4.3 1 0 1.3-.4.2-.5 0-1-.5-1.3l-13-7 9.3-2.7c.6-.2.8-.7.7-1.3a1 1 0 0 0-1.3-.6l-19 5.7a1 1 0 0 0-.6 1.2c.2.6.7.9 1.2.7l7-2.1 2.1 1.1-6.4 12a1 1 0 0 0 0 .8c0 .2.1.4.4.5.5.3 1 .1 1.3-.4zm6.5 34.1L307 169h8.4v8.5c0 .5.5 1 1 1 .6 0 1-.5 1-1v-8.6h7.5v11.8c0 .5.5 1 1 1 .6 0 1-.5 1-1V168c0-.5-.5-1-1-1l-19.9.1a1 1 0 0 0-1 1v12.8c.1.6.5 1 1 1 .6 0 1-.5 1-1zm-9.8 49.2a1 1 0 0 1 1.3-.4l17.7 9c.5.2.7.8.4 1.3a1 1 0 0 1-1.3.4l-17.7-9a1 1 0 0 1-.4-1.3zm-2.2 46l9.7-11.2a1 1 0 1 0-1.5-1.3l-4.2 4.8-14.3-12.3a1 1 0 0 0-1.4 0 1 1 0 0 0 0 1.4l14.4 12.4-4.2 4.9a1 1 0 0 0 0 1.3c.5.4 1.1.4 1.5 0zM185.5 97a88.7 88.7 0 0 1 88.5 88.3 82 82 0 0 1-13.3 44.1l-.4.7-.2.3-.4.6-.2.4-.4.6-.2.3-.4.7-.5.6-.4.7-.2.3-.5.6-.2.3-.4.7-.3.3-.4.6-.3.3-.4.7-.5.6-.5.6-.5.7-.2.3-.5.6-.5.7-.5.6-.3.3-.5.7-.5.6-.5.7-.6.6-.5.7-.6.6-.6.7-.5.6-.6.7-.6.7-.6.7-.6.6-.6.7-.7.7-.6.7-.6.7-.7.7-.7.7-.6.8-.7.7-.7.7-.7.8-1.1 1-.8.8-1 1.2-1.2 1.2-1.2 1.2-2.2 2.2-7.3 7.2-1.6 1.6-1.4 1.5-1.1 1.1-.9.9-1 1-1 1a4.4 4.4 0 0 1-6.3-6l1-1 1-1.1 1.1-1.1 1-1 2-2 3-3 3.9-3.9 2.4-2.4 1.2-1.2 1-1.1 1.2-1.2 1-1.1 1.2-1 1-1.2 1-1 1-1 .3-.4 1-1 .6-.7.6-.7.6-.7.6-.6.6-.7.6-.6.6-.7.3-.3.5-.6.6-.7.5-.6.3-.3.5-.7.5-.6.3-.3.5-.6.5-.6.5-.6.2-.3.5-.6.5-.6.5-.7.4-.6.3-.3.4-.6.5-.6.4-.6.4-.6.3-.3.4-.6.4-.6.4-.6.4-.6.2-.3.4-.6.4-.6.2-.3.4-.6.4-.6.4-.6.4-.6a73.3 73.3 0 0 0 12-39.5 79.9 79.9 0 0 0-79.8-79.5 79.9 79.9 0 0 0-79.7 79.5 70.9 70.9 0 0 0 14.8 42.6l.5.7.5.7.5.7 1.6 2 .5.8 1.4 1.7.6.7 2.6 3.1.6.7.7.7.6.7.6.7.7.7.7.7.6.8.4.3.6.7.7.8.7.7.8.7.3.4.8.7.3.4.8.7.7.8c.2 0 .3.2.4.3l.8.8.8.8.8.7.8.8.8.8.8.7.9.8.8.8.9.8.9.8 1.5 1.4 1.2 1.1 2 1.7 2 1.9 7.9 7 2.1 1.9 1.7 1.5 1.6 1.4 1 1 1.2 1 .7.7.9.8.6.6.7.6.6.6.8.8.6.6.8.8c26.9 26.8 47.5 63.5 47.5 87 0 12-4.2 21.9-12 28.7-6.9 6-16.2 9.3-26 9.3s-19.1-3.2-26-9.3a36.7 36.7 0 0 1-12-28.7c0-12.2 2.4-21.1 7.8-30.9l.4-.6.2-.4.4-.7.4-.7.4-.6.5-.9.6-.9.4-.7.6-.9 1-1.5 1.3-2 2.6-4a4.4 4.4 0 0 1 7.3 4.9l-2 3.1-1.8 2.6-.9 1.4-.7 1.2-.4.6-.4.7-.5.8-.2.3-.3.4-.4.7-.3.7-.3.5a50.7 50.7 0 0 0-7 27 28 28 0 0 0 9 22 30.7 30.7 0 0 0 20.3 7.1 31 31 0 0 0 20.3-7.1 28 28 0 0 0 9-22c0-20.8-19.6-55.5-45-81l-.8-.7-.5-.5-.8-.8-.8-.8-.8-.7-.9-.8-1.1-1-1.2-1.2-1.2-1.1-1-1-1.2-1-.8-.7-1.5-1.3-8.2-7.3-2-1.7-1.6-1.5-1.1-1-1.6-1.4-1-1-.9-.8-.4-.4-1-.8-.8-.8-.9-.8-.8-.8-.9-.8-.8-.8-.8-.8-.4-.4-.8-.8-.8-.8-.8-.7-.7-.8-.8-.8-.8-.7-.7-.8-2.8-3-.7-.7-1-1.2-.7-.7-2.2-2.6-.7-.7a145 145 0 0 1-2-2.6l-.7-.7-.5-.7-.9-1.1-.5-.8c-1.6-2-3.1-4.1-4.5-6.3A79.5 79.5 0 0 1 97 185.3 88.7 88.7 0 0 1 185.5 97z"/><path d="M188.7 0a185.4 185.4 0 0 1 59.5 359.7 4.4 4.4 0 0 1-3-8.2A176.6 176.6 0 1 0 8.9 182.2a176.6 176.6 0 0 0 113.7 168 4.4 4.4 0 1 1-3.2 8.3A185.4 185.4 0 0 1 185.7 0h3z"/></g></svg>