<svg xmlns="http://www.w3.org/2000/svg" width="600" height="600" viewBox="0 0 600 600"><g fill="#FFF" opacity=".1"><path d="M299.9 75c70.9 0 128.9 58 128.9 128.8 0 22.9-6.7 43.9-19.4 64.3a269.5 269.5 0 01-40.1 48.3l-3.3 3.3-9.2 9.2-11.2 11.4a8.5 8.5 0 01-12.3-11.7l1-1.1 9.5-9.6 10.5-10.5 2.2-2.2 2-2c17.1-17.5 27.9-30.1 36.5-44 11-18 16.7-35.9 16.7-55.4C411.7 142.3 361.4 92 300 92A112.2 112.2 0 00188 203.8c0 19.4 6.2 37.6 18.2 55.7 9.5 14.5 22 28.1 40 44.7l1.6 1.5 7.4 6.6 13.5 12 2.2 2c7.2 6.4 12.3 11.1 17 15.8 38.8 38.8 68.5 92 68.6 126.3 0 17.8-6.3 32.5-17.9 42.7A58.6 58.6 0 01300 525a58.6 58.6 0 01-38.8-14 54.8 54.8 0 01-17.9-42.6c0-17.9 3.6-31 11.5-45.2l.9-1.6a291 291 0 0111.8-18.6 8.5 8.5 0 0114.2 9.4l-4.7 7c-3.6 5.6-5 8-7 11.5a70.5 70.5 0 00-9.7 37.5c0 13 4.4 23 12.2 30 7 6.2 17 9.6 27.5 9.6s20.4-3.4 27.5-9.7a37.9 37.9 0 0012.1-29.9c0-29-27.7-78.3-63.7-114.3l-1.3-1.2c-4.4-4.4-9.4-9-16.6-15.4l-12.5-11.1-8.2-7.3-.9-.9a266.9 266.9 0 01-43.9-48.6l-.4-.7a116.2 116.2 0 01-21-65.1C171 132.9 229 75 299.9 75z"/><path d="M207.4 217.6a63.3 63.3 0 0013-1.6 27 27 0 006.5-2.6c2-1.1 3.2-2.5 4-4.3.9-2.3 1-4.3.4-6.1-.6-1.8-1.8-3.5-3.5-5s-3.8-3-6.2-4.4a531 531 0 01-7.2-4.2c-1.3-.9-2.4-1.8-3.1-2.7-.7-1-1-1.9-.8-2.8 0-.6.5-1.2 1.2-1.9a13 13 0 016-3c1.3-.3 2.5-.3 3.6 0 .5.3.8.7 1 1.3 0 .7.2 1.4.3 2 .1.7.4 1.1 1 1.5.5.4 1.3.5 2.2.3a2 2 0 001.5-1 5 5 0 00.4-2.3 8.7 8.7 0 00-3.2-6.2 12 12 0 00-7-2.3 12 12 0 00-4.8 1 15.1 15.1 0 00-7.5 7.1 10 10 0 00-1 5c.2 1.8.8 3.4 1.8 4.7 1 1.2 2.2 2.3 3.5 3.2 1.4 1 3 2 5 3l5.4 3.5c1.6 1.2 3 2.3 4 3.4 1 1 1.3 2 .8 2.8-.5.9-1.4 1.6-2.7 2.2a41.3 41.3 0 01-14.6 2.4 8 8 0 00-3.2.7c-1 .5-1.6 1.3-1.6 2.5 0 .3.2.7.5 1.1a9.1 9.1 0 002.9 2.3c.5.3 1 .4 1.4.4zm28.4-43.3c1 .4 1.8.5 2.6.3a46.6 46.6 0 0112.4-1.8c.8 0 1.2-.4 1.4-1 .1-1-.1-1.8-.8-2.4a5.7 5.7 0 00-2.5-1.5 25.4 25.4 0 00-12.8 1.5 7 7 0 00-1.3.9c-.4.3-.6.7-.6 1.2.2 1.4.7 2.3 1.6 2.8zm10.9 35.8c1 .6 2 .7 3 0 .6-.4 1-1.2 1-2.4a9 9 0 00-.8-3.4c-.4-.8-.7-2-1-3.3a73.7 73.7 0 01-1.1-12.4c0-1.5-.3-2.7-1-3.7s-1.7-1.6-2.8-1.6c-.8.1-1.4.6-1.8 1.3-.5.8-.7 1.7-.8 2.6a217 217 0 00.4 9.3c.2 2 .5 3.9.9 5.9.4 2 1 3.7 1.6 5 .6 1.1 1.3 2 2.4 2.7zm18.7-1.2c.7 0 1.3-.3 1.8-.8l1.5-2a88.9 88.9 0 004.4-8.6 103.8 103.8 0 015.3-8.8 71.3 71.3 0 012.9 7.6 670.4 670.4 0 012.6 7.5 4 4 0 001.7 2c.8.5 1.5.8 2.3.8.7 0 1.4-.5 2-1.3.7-.8 1-2 1-3.7a54.4 54.4 0 015-14.5c.8-1.2 1.5-1.8 2.1-1.8.2 0 .4.3.7.5a9.3 9.3 0 012 2.2l.7 1a34 34 0 012 7.5 148.1 148.1 0 011.4 9.2c0 .3.2.7.4 1.1.2.4.4.8.8 1.1.3.3.7.6 1.2.7.6 0 1.2 0 1.9-.4.5-.2.9-.6 1-1 .3-.4.4-1 .4-2l-.3-3a72.8 72.8 0 00-1.7-11c-.6-2.1-1.3-4-2.2-5.8a14.4 14.4 0 00-6.7-6c-.9-.4-1.6-.5-2.2-.5a8.2 8.2 0 00-4.9 2.6l-2 3a36 36 0 00-3 6.6l-1 3a133 133 0 00-3-9 15 15 0 00-2.2-3.6c-1-1-1.9-1.6-3-1.6-1 0-2 .7-3.2 2-1.2 1.4-2.4 3-3.5 5a95.5 95.5 0 00-6 11.2 1631.7 1631.7 0 01-1.8-14.2l-.3-3.9c-.1-1-.5-1.9-1-2.4-.7-.5-1.5-.7-2.6-.5-1 .3-1.8 1-2.1 2-.4.9-.5 1.9-.5 3l1 9.8c.4 3.4.9 6.5 1.4 9.3a13 13 0 002.3 5.2l1.7 1.8c.6.5 1.1.7 1.7.7zm64.9 16.2c.7.1 1.4-.2 2-.8.5-.6.9-1.3 1-2a147.2 147.2 0 00-.8-19.6c2.1-1.3 4.2-2.8 6.4-4.4 2-1.7 3.9-3.5 5.3-5.6a15.3 15.3 0 002-15.1c-.9-1.8-2-3.2-3.5-4.2s-3.1-1.5-5-1.8a21 21 0 00-5.7-.1 36 36 0 00-11.3 3.1l-4.5 2.2c-1.4 1-2.5 1.9-3.2 3-.7 1-.7 2.2-.1 3.5.2.5.8.8 1.7.9.9.1 1.8-.1 2.7-.6a171.7 171.7 0 018.7-4c1.6-.6 3.1-1 4.7-1.3 1.6-.3 3.3-.5 4.9-.4 1.8 0 3.1.5 4 1.4a5 5 0 011.5 3c.2 1.3 0 2.5-.4 3.8a13 13 0 01-2 3.4c-1 1.1-2 2.2-3.2 3.2-1.2 1-2.5 1.9-3.8 2.7a136.5 136.5 0 00-1.3-9.5 6.3 6.3 0 00-2.2-3.2c-1-.9-2-1.1-2.9-.8-.5.3-.9.5-1 .8a5 5 0 00-.6 1 2 2 0 000 1 319.3 319.3 0 011.8 14 9 9 0 00-2.8 2.5c-.6.8-.7 1.8-.2 2.9.2.7.7 1.1 1.4 1.4.7.3 1.4.4 2.3.3a420.9 420.9 0 01.7 16.1c0 .5.3 1.2.9 2 .5.7 1.4 1.2 2.5 1.2zm32-11c1.7 0 2.5-1.5 2.3-4.4l-2.5-21.8c-.8-7.6-1.4-15-1.7-22 0-1.2-.3-2.2-.8-3-.5-.8-1.3-1.3-2.4-1.3-1-.1-1.7.4-2 1.5-.4 1-.6 2.4-.8 4a195.7 195.7 0 001.5 20.8 420 420 0 002.7 21.8c0 .4.2.8.5 1.4l1 1.4c.2.5.6.8 1 1.1.4.3.8.5 1.2.5zm18.5-7.3c2.3.6 4.4.7 6.5.3a15 15 0 0011-8.1c.3-1.6 0-2.6-1-3l-1.4.1c-.6.2-1.3.5-1.9 1a18.7 18.7 0 01-4.6 3 10.4 10.4 0 01-6.2 1 7 7 0 01-4.4-2.3 8.7 8.7 0 01-2-5.5 35.3 35.3 0 0017.7-4.7c1.1-.7 1.8-1.5 2-2.4.3-1 .1-2-.4-3.2-1-2.2-2.5-4-4.8-5.2a13.7 13.7 0 00-7.6-1.6 14.2 14.2 0 00-10.6 5 14.8 14.8 0 00-3.1 10.6 23 23 0 001.4 6.3c.8 2 2 3.8 3.5 5.3 1.7 1.7 3.7 2.9 6 3.4zm-4.2-19.1c.1-.8.4-1.5.9-2.1a10 10 0 015.8-3.6 11 11 0 014.2 0c1.4.3 2.4 1.1 3 2.3a30.2 30.2 0 01-10.1 3c-1.4.3-2.7.4-3.8.4zm-140.3 68.9c.7.8 1.6 1 2.8 1a30.3 30.3 0 0010.8-5.1 3.8 3.8 0 001.1-3c0-.3-.2-.5-.5-.6-.3 0-.7 0-1 .2a349.7 349.7 0 00-5.3 2.6 44.8 44.8 0 01-5.4 1.8v-1a51 51 0 01.2-4.6c0-1 0-2.1.2-3.3a64.6 64.6 0 016.3-.5c.6-.2 1-.6 1-1.2 0-.7-.3-1.3-1-1.7a4 4 0 00-2-.5 61 61 0 01-4.1.3 328 328 0 01.7-9c0-.5-.2-.8-.8-1.2a3 3 0 00-1.8-.4c-.2 0-.5.1-.7.4l-.4 1.2a586 586 0 01-.7 9.3l-5 .6c-.6.2-1 .5-1.2.9-.2.3-.2.6-.2.8 0 .7.2 1 .8 1.3.6.2 1 .3 1.6.3a47.3 47.3 0 013.8-.4 711.8 711.8 0 00-.2 9 5 5 0 001 2.8zm22.8-1.6a8 8 0 003.4-.7c1-.5 2-1 2.7-1.8a18 18 0 003.6-5.6c.4-1 .5-2 .4-3 0-1-.3-2-.6-3-.4-1-1-2-1.8-2.8a7 7 0 00-2.7-1.8c-.7-.3-1.3-.2-1.8.3a9.1 9.1 0 00-4-1.2c-.9 0-1.7.3-2.4.7-.7.5-1.3 1.1-1.9 1.8a15.1 15.1 0 00-1 13.4 6.5 6.5 0 006.2 3.7zm1-4c-.7.2-1.3.2-1.8 0-.8-.2-1.4-.6-1.9-1.2-.4-.6-.7-1.3-.8-2-.2-.7-.2-1.5-.2-2.3l.2-2 .5-1.2.8-1.6c.3-.6.6-1 1-1.4.5-.4 1-.6 1.3-.6.4 0 .9.2 1.4.6l1.4 1a1.4 1.4 0 001.4-.1c1 .5 1.7 1.3 2 2.4.4 1.2.4 2.3 0 3.3a8.5 8.5 0 01-3.3 4.2c-.6.5-1.3.8-2 1zm29.6 2.8c.4 0 .7-.1 1-.4l.9-1.1a49.5 49.5 0 002.4-4.9 57.8 57.8 0 013-4.8 39.7 39.7 0 011.5 4.2 373 373 0 011.5 4.2c.2.4.5.7 1 1 .4.4.8.5 1.2.5.4 0 .8-.2 1.2-.7a30.3 30.3 0 013.4-10.1c.3-.7.7-1 1-1 .2 0 .3.1.5.3a5.2 5.2 0 011 1.2c.2.2.4.4.4.6a19 19 0 011.2 4.1 82.4 82.4 0 011 5.7c0 .3.2.5.4.7.2.2.4.3.7.3.3 0 .6 0 1-.2.3-.1.5-.3.6-.5l.2-1.1a45.5 45.5 0 01-.4-4.5 27.7 27.7 0 00-2-6.6c-.2-.4-.5-.9-1-1.3a8 8 0 00-2.7-2 3 3 0 00-1.1-.3c-.3 0-.7.1-1.2.4-.6.2-1 .6-1.6 1l-1 1.7a20 20 0 00-1.8 3.7l-.5 1.6a74 74 0 00-1.7-5c-.3-.7-.8-1.4-1.3-2-.4-.5-1-.8-1.6-.8-.5 0-1.1.4-1.8 1.1a53.1 53.1 0 00-5.3 9 908.3 908.3 0 01-1.7-11.4c-.4-.3-.8-.4-1.4-.3-.6.2-1 .6-1.2 1l-.3 1.8a1170 1170 0 001.3 10.6 7.2 7.2 0 001.4 2.9c.2.4.5.7.9 1 .3.3.6.4.9.4zm30 2c.9.5 2 .8 3 .6l2.1-.6a23.3 23.3 0 006-3.4c.7.4 1.4.6 2 .6.5 0 .9-.4 1-1 .3-.5.2-1 0-1.7-.2-.6-1-1.3-2-2a71.3 71.3 0 00-.7-13.1c-.1-1-.5-1.7-1.2-2.3-.7-.6-1.7-.9-3-.9-.8 0-1.7.3-2.6.6l-2.5 1.4a21.4 21.4 0 00-4.5 4c-.3.4-.5.8-.4 1.1 0 .4.2.8.4 1 .3.3.7.5 1.1.5.4 0 .8 0 1.1-.4 1-1 2.2-1.8 3.3-2.7a12 12 0 013-1.7c.6-.1 1-.2 1.4 0 .3.1.5.4.6 1a24.6 24.6 0 01.3 3.8 97.5 97.5 0 01.1 4.3c-.4-.4-.9-.7-1.4-.9a5 5 0 00-1.5-.3 7.2 7.2 0 00-2.5.4 8 8 0 00-4.4 3.7 7.3 7.3 0 00-.6 5.1c.3 1.3 1 2.2 1.9 2.8zm2.5-3h-.8a.8.8 0 01-.5-.6v-1.7l1-1.7c.4-.5.9-.9 1.4-1.2.5-.4 1-.6 1.5-.7.3 0 .6 0 1 .3l1 1 .7 1 .3.8a13.5 13.5 0 01-5.6 2.8zm18 4.3c.6 0 1-.1 1.2-.6a270.2 270.2 0 00-.7-9.3 222.4 222.4 0 0011 6.7c.4.2.8.2 1.3.1.5 0 .9-.3 1-.5.6-.5.4-1-.3-1.7a66.7 66.7 0 00-10.2-7 83.7 83.7 0 018.1-4.5c.5-.2.9-.5 1-.9.3-.3.4-.7.3-1.2l-.4-.4a2 2 0 00-.7-.3h-.8a4 4 0 00-.7 0l-2 .9a120.5 120.5 0 00-8.1 4.3 432.3 432.3 0 00-1.7-11.7 4 4 0 00-1.4-2c-.5-.5-1.1-.6-1.6-.4-.4.2-.6.6-.6 1.2l.1 1.6a1195 1195 0 013.2 23.5c.1.6.3 1.1.6 1.5.3.4.8.6 1.4.7zm21.1-4.4a8 8 0 003.6.1 8.3 8.3 0 006.2-4.5c.1-.9 0-1.4-.6-1.6h-.8c-.4.1-.7.3-1 .6a10.4 10.4 0 01-2.6 1.6 5.8 5.8 0 01-3.5.6 4 4 0 01-2.4-1.3c-.7-.8-1-1.8-1.1-3a19.7 19.7 0 009.8-2.7c.6-.4 1-.8 1.1-1.3.2-.5 0-1.1-.2-1.8a5.7 5.7 0 00-2.7-2.9c-1.2-.7-2.7-1-4.2-.9-1.3.1-2.5.4-3.4.9a7.6 7.6 0 00-3.9 4.6c-.3 1-.4 2.1-.3 3.2 0 1.2.3 2.4.8 3.5.4 1.2 1 2.1 1.9 3 1 1 2 1.5 3.3 1.9zM359 242c0-.4.2-.8.4-1.2a5.6 5.6 0 013.3-2h2.3a2 2 0 011.6 1.4l-1.5.7a16.8 16.8 0 01-4 1l-2.1.1z"/></g></svg>