<svg xmlns="http://www.w3.org/2000/svg" width="600px" height="600px" viewBox="0 0 600 600"><path fill="#FFF" d="M300 197.5c48 0 87.3 38.9 87.3 86.4 0 15.5-4.5 29.5-13.1 43.2a181.3 181.3 0 0 1-27.2 32.4l-2.3 2.3-6.2 6.1-7.6 7.7a5.8 5.8 0 0 1-6.4 1.7 5.8 5.8 0 0 1-3.8-5.5 5.7 5.7 0 0 1 1.9-4.1l.7-.7 6.4-6.5 7-7 1.6-1.5 1.3-1.3c9.4-8.9 17.7-18.8 24.8-29.6 7.3-11 11.2-24 11.4-37.2 0-41.3-34.2-75-75.9-75-20 0-39.3 8-53.5 22a75 75 0 0 0-22.3 53 66.4 66.4 0 0 0 12.3 37.4c6.5 9.7 15 18.9 27.2 30l1 1 5 4.5 9.3 8 1.4 1.4c5 4.3 8.4 7.4 11.6 10.6 26.2 26 46.4 61.6 46.4 84.7a36.8 36.8 0 0 1-12.1 28.7 40 40 0 0 1-26.3 9.3 40 40 0 0 1-26.3-9.3 36.8 36.8 0 0 1-12.1-28.7c0-12 2.4-20.8 7.7-30.3l.6-1.1a195 195 0 0 1 9.6-14.2 5.8 5.8 0 0 1 9.3 3.6 5.7 5.7 0 0 1-1.2 4.4l-3.2 4.8a106 106 0 0 0-4.8 7.6 47 47 0 0 0-6.5 25.3c0 8.7 2.9 15.4 8.2 20a28.4 28.4 0 0 0 18.7 6.5c7.1 0 13.8-2.3 18.7-6.5a25.4 25.4 0 0 0 8.1-20c0-19.5-18.7-52.6-43.1-76.8l-.9-.8c-3-2.9-6.3-6-11.2-10.3l-8.5-7.4-5.6-5-.5-.6a179.4 179.4 0 0 1-29.8-32.6l-.4-.5c-9-12.8-14-28-14.1-43.7a87.1 87.1 0 0 1 87.3-86.4zM178.5 383.8c3.3 4.8 1.6 9.6-1.7 11.8-.6.4-1.4.3-1.8-.3-.4-.6-.2-1.4.4-1.8 2.1-1.5 3.4-4.7 1-8.3-2.4-3.5-5.9-3.6-8-2.1-3 2-2.3 4.5-1 8.5 0 .3.2.5.3.8v.4l.2.4c1 3.2 1.4 6.7-2.2 9.2-3 2-7.7 1.8-10.7-2.7-3-4.5-1.6-9 1.5-11 .6-.4 1.4-.2 1.8.4.4.6.2 1.3-.4 1.7-1.9 1.4-3 4.3-.8 7.5 2.1 3.2 5.2 3.2 7.2 2 2.5-1.8 1.9-4.1.7-8-1.2-3.6-2.7-8.2 2-11.3 3.2-2.3 8.3-2 11.5 2.8zm249-8c.5-.6 1.3-.7 1.9-.2l18.6 16.1 5.4-6.3c.5-.5 1.3-.6 1.8-.1.6.4.6 1.2.1 1.8l-12.5 14.5c-.5.5-1.3.6-1.9.1-.5-.4-.5-1.2 0-1.8l5.4-6.3-18.6-16c-.5-.6-.6-1.4-.1-1.9zm-269-23.4c.3.7 0 1.4-.7 1.6l-24.2 9c-.7.3-1.4 0-1.7-.7-.2-.7 0-1.4.8-1.7l24.2-9c.7-.2 1.4.1 1.7.8zm289-11l23.1 11.5c.7.3 1 1.1.6 1.8-.3.6-1 .9-1.7.5l-23.2-11.5c-.6-.4-.9-1.1-.5-1.8.3-.6 1-.9 1.7-.5zm-302.6-39.7c0 .8-.5 1.4-1.2 1.5l-21.6 2 14.6 8c.4.2.7.5.7 1 0 .4-.1.8-.5 1L124 325.9l21.6-2c.7-.1 1.4.4 1.4 1.1 0 .7-.4 1.4-1.1 1.4l-25.8 2.4c-.5 0-1.1-.2-1.3-.8-.2-.5 0-1.1.4-1.4l14.6-12-16.6-9c-.5-.4-.8-1-.6-1.5 0-.5.6-1 1.1-1l25.8-2.4c.7 0 1.3.5 1.4 1.1zm338-42c.6 0 1.2.5 1.2 1.2l.1 17c0 .6-.5 1.2-1.3 1.2-.7 0-1.2-.6-1.2-1.3l-.1-15.6-9.8.1v11.2c0 .7-.5 1.3-1.2 1.3s-1.3-.6-1.3-1.3v-11.2h-11V278c0 .6-.5 1.3-1.2 1.3-.8 0-1.3-.6-1.3-1.3l-.1-16.9c0-.7.5-1.3 1.3-1.3zm-366-1.3a10 10 0 0 1 19.4 4.3l-1.6 7.2 7.1 1.6c.7.1 1.1.8 1 1.5-.2.7-.9 1.1-1.6 1l-25.2-5.7c-.7-.1-1.1-.8-1-1.5zm11.3-5c-4-1-8 1.6-8.8 5.5l-1.6 7.2 14.4 3.2 1.6-7.1c.9-4-1.6-8-5.6-8.8zm339.8-45c.7-.2 1.4.2 1.6.9.2.7-.2 1.4-.9 1.6l-12 3.7 16.9 9c.6.4.8 1.1.5 1.8-.3.6-1 .8-1.7.5l-14.3-7.6-8.4 15.8c-.3.6-1 .8-1.7.5-.3-.2-.5-.5-.6-.8v-1l8.5-15.7-2.8-1.5-9 2.8c-.8.2-1.5-.2-1.7-.9-.2-.7.2-1.4.9-1.6zm-338 5.2l21.6 12 6.2-11.3c.3-.7 1.1-.9 1.7-.5.7.3.9 1 .5 1.7l-6.8 12.4c-.3.6-1.1.9-1.7.5l-22.7-12.5c-.6-.4-.8-1.2-.5-1.8.4-.6 1.1-.8 1.8-.5zm311.7-46.3c.5 0 1 .1 1.3.6.3.4.3 1 0 1.4l-14.7 24c-.3.6-1.1.8-1.7.5l-.4-.4c-.3-.4-.3-1 0-1.4l3.8-6.4-8.2-11.7-7.3 1.5c-.7.1-1.3-.3-1.5-1-.1-.7.3-1.4 1-1.6zM166 158.1c.5-.5 1.3-.5 1.8 0s.4 1.3 0 1.8l-11 11 6.8 7 8-8c.5-.5 1.3-.5 1.8 0s.5 1.3 0 1.8l-8 8 7.8 7.7 11-11c.5-.4 1.3-.4 1.8 0 .5.6.5 1.4 0 1.9l-12 11.9c-.4.5-1.2.5-1.8 0L154 171.8c-.5-.5-.5-1.3 0-1.8zm273.4 12.3l-14.8 3 6.9 9.8 7.9-12.8zm-51.5-49.6c.5.2.9.7.8 1.3l-.8 18.9 17.8-6.4c.6-.2 1.2 0 1.5.4.3.5.4 1.1 0 1.6L392 157.4c-.4.6-1.2.7-1.8.3-.6-.4-.7-1.2-.3-1.8l12.9-17.5L387 144c-.4.2-.9.1-1.2-.1-.3-.3-.6-.7-.5-1.1l.7-16.6-12.8 17.4c-.5.6-1.3.7-1.8.3-.6-.4-.8-1.2-.3-1.8l15.3-20.8c.3-.5 1-.7 1.5-.5zm-139-13.1c.7-.2 1.4.2 1.6.9.2.6-.2 1.3-1 1.5l-8 2.1 6.2 23.8c.2.7-.2 1.4-.9 1.6-.7.2-1.4-.2-1.5-1L239 113l-8.1 2c-.7.2-1.4-.2-1.6-.8-.2-.7.2-1.4 1-1.6zm50-7.7a14.2 14.2 0 1 1-2 28.4 14.2 14.2 0 0 1 2-28.4zm-12.7 13.4a11.6 11.6 0 1 0 23.2 1.6 11.6 11.6 0 0 0-23.2-1.6z" opacity="0.07"/></svg>