<svg display="none" version="1.1" xmlns="http://www.w3.org/2000/svg" xmlns:xlink="http://www.w3.org/1999/xlink">
  <defs>

    <symbol id="icon-list" viewBox="0 0 24 24"><path fill="none" stroke-linecap="round" stroke-linejoin="round" stroke-width="1.5" d="M5 12h14M5 7h14M5 17h14"/></symbol>
    <symbol id="icon-about" viewBox="0 0 24 24"><path fill="none" stroke-linecap="round" stroke-linejoin="round" stroke-width="1.5" d="M8 8c0-1.7 1.6-3 3.5-3h1c2 0 3.5 1.3 3.5 3a3 3 0 0 1-2 3c-1.3.6-2 2.2-2 4m0 4h0"/></symbol>
    <symbol id="icon-plus" viewBox="0 0 24 24"><path fill="none" stroke-linecap="round" stroke-linejoin="round" stroke-width="1.5" d="M12 6v12m-6-6h12"/></symbol>
    <symbol id="icon-ingredients" viewBox="0 0 24 24"><g fill="none" fill-rule="evenodd" stroke-linecap="round" stroke-linejoin="round" stroke-width="1.5" transform="translate(4 4)"><polyline points="5 7 8 10 16 2"/><path d="M16 8v6a2 2 0 0 1-2 2H2a2 2 0 0 1-2-2V2C0 .9.9 0 2 0h9"/></g></symbol>
    <symbol id="icon-minus" viewBox="0 0 24 24"><line x1="22" x2="34" y1="308" y2="308" fill="none" stroke-linecap="round" stroke-linejoin="round" stroke-width="1.5" transform="translate(-16 -296)"/></symbol>
    <symbol id="icon-back" width="12px" height="24px" viewBox="0 0 12 24"><path fill="none" stroke-linecap="round" stroke-linejoin="round" stroke-width="1.5" d="M9 6l-6 6m6 6l-6-6"/></symbol>
    <symbol id="icon-arrow-up" viewBox="0 0 24 24"><path fill="none" stroke-linecap="round" stroke-linejoin="round" stroke-width="1.5" d="M12 19V5M8 9l4-4m4 4l-4-4"/></symbol>
    <symbol id="icon-arrow-down" viewBox="0 0 24 24"><path fill="none" stroke-linecap="round" stroke-linejoin="round" stroke-width="1.5" d="M12 5v14m-4-4l4 4m4-4l-4 4"/></symbol>
    <symbol id="icon-close" viewBox="0 0 24 24"><path fill="none" stroke-linecap="round" stroke-linejoin="round" stroke-width="1.5" d="M17.2 6.8L6.8 17.2m0-10.4l10.4 10.4"/></symbol>
    <symbol id="icon-mail" viewBox="0 0 24 24"><path fill="none" stroke-linecap="round" stroke-linejoin="round" stroke-width="1.5" d="M5 6h14c.6 0 1 .4 1 1v10.4c0 .6-.4 1-1 1H5a1 1 0 0 1-1-1V7c0-.6.4-1 1-1zM4 7.8l8 5.3 8-5.3"/></symbol>
    <symbol id="icon-report" viewBox="0 0 24 24"><path fill="none" stroke-linecap="round" stroke-linejoin="round" stroke-width="1.5" d="M4 21V8a3 3 0 0 1 3-3h10a3 3 0 0 1 3 3v6a3 3 0 0 1-3 3H8l-4 4m8-13v3m0 3h0"/></symbol>
    <symbol id="icon-pr" viewBox="0 0 24 24"><g fill="none" fill-rule="evenodd" stroke-linecap="round" stroke-linejoin="round" stroke-width="1.5" transform="translate(5 5)"><circle cx="2" cy="13" r="2"/><circle cx="2" cy="2" r="2"/><circle cx="12" cy="13" r="2"/><line x1="2" x2="2" y1="4" y2="11"/><path d="M7 2h3a2 2 0 0 1 2 2v7"/><polyline points="9 4 7 2 9 0"/></g></symbol>
    <symbol id="icon-star" viewBox="0 0 24 24"><polygon fill="none" stroke-linecap="round" stroke-linejoin="round" stroke-width="1.5" points="28 433.8 21.8 437 23 430.1 18 425.3 24.9 424.3 28 418 31.1 424.3 38 425.3 33 430.1 34.2 437" transform="translate(-16 -416)"/></symbol>
    <symbol id="icon-article" viewBox="0 0 24 24"><path fill="none" stroke-linecap="round" stroke-linejoin="round" stroke-width="1.5" d="M16 6h3c.6 0 1 .4 1 1v11a2 2 0 0 1-4 0V5c0-.6-.4-1-1-1H5a1 1 0 0 0-1 1v12a3 3 0 0 0 3 3h11M8 8h4m-4 4h4m-4 4h4"/></symbol>
    <symbol id="icon-book" viewBox="0 0 24 24"><g fill="none" fill-rule="evenodd" stroke-linecap="round" stroke-linejoin="round" stroke-width="1.5" transform="translate(2.5 4.8)"><path d="M.5 14.2a9 9 0 0 1 9 0 9 9 0 0 1 9 0m-18-13a9 9 0 0 1 9 0 9 9 0 0 1 9 0"/><line x1="0.5" x2="0.5" y1="1.21" y2="14.21"/><line x1="9.5" x2="9.5" y1="1.21" y2="14.21"/><line x1="18.5" x2="18.5" y1="1.21" y2="14.21"/></g></symbol>
    <symbol id="icon-clock" viewBox="0 0 24 24"><path fill="none" stroke-linecap="round" stroke-linejoin="round" stroke-width="1.5" d="M12 21a9 9 0 1 0 0-18 9 9 0 0 0 0 18zm0-14v5l3 3"/></symbol>

  </defs>
</svg>