<svg xmlns="http://www.w3.org/2000/svg" width="860px" height="950px" viewBox="0 0 860 950"><g fill="none" fill-rule="evenodd" transform="translate(-170 -170)"><g stroke="#FFF" stroke-linecap="round" stroke-width="20" transform="translate(186.8 187)"><path d="M372.7 739.6c-21.5 32.5-36.2 53.3-36.3 96.7-.1 52.2 38.4 76.7 76.8 76.7s77-24.5 76.8-76.7c-.1-52-48-134.1-105.6-191.6-57.6-57.5-163.2-124.6-163.2-230a192.4 192.4 0 0 1 192-191.7c105.6 0 192 86.3 192 191.7 0 92.5-74.6 151.6-128.9 208.2"/><path stroke-linejoin="round" d="M552.6 801.8A413.2 413.2 0 0 0 420.2.1 413 413 0 0 0 265.7 799"/></g><path fill="#FFF" fill-rule="nonzero" d="M387.8 776.7a16 16 0 0 1 2.8 12.6c-.8 3.7-3 7-6.1 9a4 4 0 0 1-4.6-6.7c2-1.4 4.6-5.2 1.1-10.4-3.5-5.2-8-4.2-10-2.8-3.1 2-2.9 4.4-.7 11.2 1 3.1 2 6.3 2 9.4 0 4.3-1.9 7.7-5.5 10.1a14 14 0 0 1-10 2.2 15 15 0 0 1-10-7 15.1 15.1 0 0 1-2.7-11.8c.7-3.5 2.8-6.6 5.7-8.6a4.1 4.1 0 0 1 5.7 1.2 4 4 0 0 1-1 5.7c-1.8 1.2-4 4.4-1 9 3.1 4.5 7 3.7 8.7 2.5 2.3-1.5 2.6-3 .3-10.1-1-3.2-2.1-6.6-2-10 0-4.4 2-8 6-10.6 3-2 6.9-3 10.6-2.3a16 16 0 0 1 10.7 7.4zm-35.3-56.1a4 4 0 0 1-2.4 5.2l-38.8 14.4a4 4 0 0 1-5.2-2.4 4 4 0 0 1 2.4-5.3l38.7-14.5c2.1-.8 4.5.4 5.3 2.5zM329 635.5a4.1 4.1 0 0 1-3.7 4.4l-27.7 2.6 17.5 9.5c1.2.7 2 1.9 2.1 3.2.1 1.4-.5 2.7-1.5 3.6l-15.4 12.6 27.7-2.6a4.1 4.1 0 0 1 4.6 3.6 4.1 4.1 0 0 1-3.8 4.5l-41.1 3.9a4 4 0 0 1-3-7.3l21-17.2-23.8-13a4 4 0 0 1-2-4.4 4 4 0 0 1 3.5-3.3l41.2-3.8a4.1 4.1 0 0 1 4.5 3.7zm-48.9-78.2l-3 13.4a4 4 0 0 0 3.1 5l40.3 9c2.3.4 4.5-1 5-3.1.5-2.2-1-4.4-3.2-5l-9.3-2 2.1-9.4a18 18 0 0 0-35-7.9zm27 6l-2.1 9.5-19-4.2 2.1-9.5a9.7 9.7 0 1 1 19 4.3zm48.3-81.2L344 502.7a4 4 0 0 1-5.5 1.6l-36.2-20a4 4 0 0 1 4-7.1l32.5 18 9.5-17a4 4 0 0 1 5.6-1.7c2 1 2.6 3.6 1.5 5.6zM394 412l-16 16.1-9.5-9.5 11.3-11.2a4 4 0 0 0 0-5.8 4.1 4.1 0 0 0-5.8 0l-11.3 11.2-8-8.1 16.1-16.1a4 4 0 0 0 0-5.8 4.2 4.2 0 0 0-5.8 0l-19 19a4.2 4.2 0 0 0 0 5.8l29 29.2a4 4 0 0 0 5.8 0l19-19a4 4 0 0 0 .1-5.7 4.1 4.1 0 0 0-5.8-.1zm115.4-118l-29.7 7.6a4.1 4.1 0 0 0 2 8l11-2.9 9.3 36a4 4 0 0 0 5 3 4.1 4.1 0 0 0 3-5l-9.4-36 10.8-2.9a4 4 0 0 0-2-7.9zm84.6 35.4a24.7 24.7 0 1 1 3.6-49.3 24.7 24.7 0 0 1-3.4 49.3zm3-41.2a16.6 16.6 0 1 0-2.3 33.1 16.6 16.6 0 0 0 2.3-33zm159.2 91.1a4.1 4.1 0 0 1-.8-5.8l16.6-22.4-18.7 6.7a4 4 0 0 1-3.8-.5 4.2 4.2 0 0 1-1.7-3.5l.9-19.9-16.7 22.5a4.1 4.1 0 0 1-5.8.9 4.1 4.1 0 0 1-.8-5.8l24.6-33.3c1-1.4 3-2 4.6-1.4a4 4 0 0 1 2.7 4l-1 27.2 25.5-9.2a4 4 0 0 1 4.7 1.4 4 4 0 0 1 0 4.9L762 378.4a4.1 4.1 0 0 1-5.8.9zm70.7 61.9l23.5-38.6a4 4 0 0 0-.2-4.4 4 4 0 0 0-4.1-1.7l-44.3 8.8a4.1 4.1 0 0 0-3.2 4.8 4 4 0 0 0 4.9 3.3l10.4-2.1 11.5 16.5-5.5 9a4.1 4.1 0 0 0 1.4 5.7 4 4 0 0 0 5.6-1.3zm-4.2-31.7l15.8-3.1-8.4 13.8-7.4-10.7zm57.2 84.7l19.8 8.4a4 4 0 0 0 5.4-2.2 4 4 0 0 0-2.1-5.3l-27.8-11.7 19.6-6c2.2-.7 3.4-3 2.7-5.2a4 4 0 0 0-5-2.7l-39.6 12c-2.2.7-3.4 3-2.8 5.1.7 2.3 3 3.5 5.2 2.8l7.6-2.3 9.2 3.8-13.5 17.5c-1.4 1.7-1 4.4.7 5.7 1.8 1.4 4.4 1 5.8-.7l14.8-19.2zm1.6 95.6l-.2-22.8h13.4l.1 15.9a4 4 0 0 0 4.1 4c2.3 0 4.2-1.8 4.2-4l-.1-16h11.4l.1 22.8a4 4 0 0 0 4.1 4c2.3 0 4.2-1.8 4.2-4l-.2-27a4 4 0 0 0-4.2-4l-41.3.1a4 4 0 0 0-4 4.2l.1 26.9a4 4 0 0 0 4.1 4c2.3 0 4.2-1.8 4.2-4zm-26.3 114.6a4 4 0 0 1 5.5-1.9l37 18.5a4 4 0 0 1 1.7 5.5c-1 2-3.5 2.9-5.5 1.9l-37-18.5a4 4 0 0 1-1.7-5.5zm-3.8 101.8l20.1-23.1a4.1 4.1 0 0 0-6.2-5.4l-7.3 8.5-28.1-24.4a4 4 0 0 0-5.8.4 4.1 4.1 0 0 0 .3 5.8l28.2 24.4-7.4 8.5a4 4 0 0 0 6.2 5.3z"/></g></svg>