<svg xmlns="http://www.w3.org/2000/svg" width="860px" height="950px" viewBox="0 0 860 950"><g fill="none" fill-rule="evenodd" transform="translate(-170 -170)"><path stroke="#FFF" stroke-linecap="round" stroke-width="20" d="M559.5 926.6c-21.5 32.4-36.2 53.3-36.3 96.7-.1 52.1 38.4 76.7 76.8 76.7s77-24.6 76.8-76.7c-.1-52-48-134.1-105.6-191.6C513.6 774.2 408 707 408 601.7A192.4 192.4 0 0 1 600 410c105.6 0 192 86.3 192 191.7 0 92.5-74.7 151.6-128.9 208.2"/><path fill="#FFF" fill-rule="nonzero" d="M388 777.4c5.6 8.4 2.7 16.7-3 20.6-1 .7-2.4.5-3.1-.6-.7-1-.5-2.4.6-3.1 3.7-2.6 6-8.1 1.7-14.4-4.2-6.2-10.2-6.3-14-3.7-5 3.4-3.9 7.9-1.6 14.8 2 6.2 4.4 13.9-3 18.9-5.3 3.6-13.4 3.2-18.7-4.6-5.3-8-2.7-15.7 2.7-19.3 1-.7 2.4-.5 3.1.6.7 1 .4 2.4-.6 3.1-3.4 2.3-5.4 7.4-1.5 13 3.7 5.7 9.2 5.7 12.5 3.4 4.4-3 3.3-7 1.2-13.7-2-6.4-4.7-14.5 3.4-20 5.8-3.9 14.6-3.4 20.2 5zm-35.1-55.8c.4 1.2-.2 2.5-1.4 3L309 740.9c-1.1.5-2.4-.1-2.9-1.4-.4-1.2.2-2.5 1.4-3l42.5-16.3c1.1-.4 2.4.2 2.9 1.4zm-23.7-88.5c0 1.3-.8 2.3-2.1 2.4l-38.2 3.5 25.9 14c.7.3 1 1 1.2 1.6 0 .8-.3 1.5-.9 2L292.3 675l38.2-3.5a2.3 2.3 0 1 1 .4 4.5l-45.5 4c-1 0-2-.5-2.4-1.5a2 2 0 0 1 .7-2.5l26-20.9-29.5-15.7a2.3 2.3 0 0 1-1.2-2.4c.2-1 1.1-1.7 2-1.8l45.7-4.2c1.2-.1 2.3.8 2.5 2zm-49.8-76.4l-3.4 14.7c-.3 1.3.4 2.4 1.7 2.7l44.4 9.9c1.3.3 2.5-.5 2.7-1.7.3-1.3-.4-2.4-1.7-2.7l-12.5-2.8 2.8-12.6a17.5 17.5 0 1 0-34.1-7.6zm29.7 6.6l-2.8 12.5-25.3-5.6 2.8-12.6a13 13 0 0 1 25.4 5.7zm46.6-82.6l-12 22.2c-.5 1-1.9 1.5-3 .9l-39.5-22.4c-1.2-.6-1.5-2-1-3.1.7-1.2 2-1.6 3.1-1l37.7 21.4 10.9-20c.6-1.2 2-1.6 3-1 1.1.6 1.5 2 1 3.1zm42.4-68.6l-19.5 19.4-13.7-13.7 14-14c.9-.9 1-2.4 0-3.3-.8-.8-2.3-.8-3.1 0l-14.1 14.1-12.2-12.3L369 383c.9-.9 1-2.3 0-3.2-.8-.9-2.3-.8-3.2 0l-21.1 21c-1 1-1 2.4 0 3.3l32.3 32.4c.9.9 2.3.9 3.2 0l21.1-21c.9-1 1-2.4 0-3.3-.8-.8-2.3-.8-3.2 0zm113.1-120l-32.5 8.6c-1.2.3-2 1.5-1.6 2.8a2.2 2.2 0 0 0 2.7 1.5l14.1-3.7 10.8 42c.4 1.3 1.6 2 2.8 1.7a2.2 2.2 0 0 0 1.5-2.8l-10.8-42 14.1-3.7c1.2-.3 2-1.6 1.6-2.7-.3-1.3-1.5-2-2.7-1.7zm85 35.9a25 25 0 1 1 3.6-49.9 25 25 0 0 1-3.6 49.9zm3.2-45.4a20.5 20.5 0 1 0-2.8 40.9 20.5 20.5 0 0 0 2.8-41zm160.8 97c-1-.7-1.2-2.1-.5-3.2l22.8-31-27.8 10a2 2 0 0 1-2.1-.3c-.6-.4-1-1.1-1-2l1.3-29.4-22.8 31c-.7 1-2.1 1.2-3.2.5-1-.8-1.2-2.2-.4-3.2l27.1-37c.6-.8 1.7-1.2 2.7-.8a2 2 0 0 1 1.4 2.2l-1.3 33.6 31.5-11.3c1-.4 2 0 2.7.7.5.8.6 2 0 2.8l-27.2 37c-.8 1-2.2 1.1-3.2.4zm66.7 62.4l25.8-42.5c.5-.8.4-1.7-.1-2.4a2.3 2.3 0 0 0-2.3-1l-48.5 9.7c-1.2.3-2 1.5-1.8 2.7.3 1.2 1.5 2 2.7 1.8l12.8-2.6 14.3 20.7-6.8 11.2c-.5.8-.4 1.8.1 2.5l.7.6c1 .7 2.4.3 3-.7zm-6.6-35.3l25.9-5.1-13.8 22.5-12-17.4zM865 512.9l14.7-27.5 25 13.3c1 .5 2.5.1 3-1 .6-1 .2-2.4-.9-3L877 478.9l21.3-6.4a2.2 2.2 0 0 0 1.5-2.8 2.2 2.2 0 0 0-2.8-1.5l-43.4 13a2.2 2.2 0 0 0-1.5 2.9 2.2 2.2 0 0 0 2.8 1.5l16-4.8 4.8 2.5-14.8 27.5a2 2 0 0 0 0 1.7c0 .5.4 1 1 1.3 1.1.6 2.5.2 3-1zm14.7 77.9l-.2-27 19.3-.1.1 19.5c0 1.1 1 2.2 2.3 2.2 1.2 0 2.2-1 2.2-2.3l-.2-19.5h17.2l.2 27c0 1.2 1 2.2 2.2 2.2 1.2 0 2.2-1 2.2-2.2l-.2-29.3c0-1.3-1-2.2-2.2-2.2l-45.4.2c-1.2 0-2.2 1-2.2 2.3l.2 29.2c0 1.2 1 2.3 2.2 2.3 1.2 0 2.3-1.1 2.3-2.3zm-22.5 112.5a2.2 2.2 0 0 1 3-1l40.5 20.4c1.2.6 1.6 2 1 3.1a2.2 2.2 0 0 1-3 1l-40.4-20.4c-1.2-.6-1.6-2-1-3zm-4.9 105l22.1-25.5a2.2 2.2 0 1 0-3.3-3l-9.7 11.1-32.7-28.3c-1-.8-2.3-.7-3.2.3a2 2 0 0 0 .3 3l32.7 28.4-9.6 11c-.8 1-.7 2.4.2 3.2 1 .8 2.3.7 3.2-.2z"/><path stroke="#FFF" stroke-linecap="round" stroke-linejoin="round" stroke-width="20" d="M739.4 988.8A413.2 413.2 0 0 0 607 187.1 413 413 0 0 0 452.5 986"/></g></svg>