<svg xmlns="http://www.w3.org/2000/svg" width="303" height="529" viewBox="0 0 303 529"><g fill="#FFF"><path d="M151.5 0C234.85 0 303 68.1 303 151.39c0 26.93-7.85 51.6-22.7 75.63-11.34 18.33-25.13 34.44-47.25 56.8l-3.82 3.86-10.85 10.84a847.98 847.98 0 00-13.15 13.4 10 10 0 11-14.46-13.83l1.2-1.26c3.24-3.36 6.7-6.86 11.13-11.31l12.35-12.34 2.58-2.6 2.29-2.32c20.25-20.59 32.85-35.4 42.97-51.76 13-21.03 19.71-42.13 19.71-65.11C283 79.15 223.8 20 151.5 20S20 79.15 20 151.39c0 22.84 7.3 44.24 21.34 65.52 11.24 17.05 25.93 33.07 47.12 52.58l1.86 1.7c2.68 2.46 5.44 4.94 8.61 7.78l15.93 14.13 2.56 2.28a483.47 483.47 0 0119.92 18.6c45.7 45.66 80.65 108.07 80.76 148.44.05 21-7.47 38.3-21.05 50.23-12.17 10.7-28.51 16.35-45.55 16.35-17.04 0-33.38-5.66-45.55-16.35-13.58-11.93-21.1-29.23-21.05-50.23.05-20.94 4.24-36.44 13.45-53.1l1.06-1.9c3.11-5.47 5.52-9.19 13.92-21.84a10 10 0 1116.66 11.06l-5.47 8.27c-4.28 6.52-6 9.32-8.3 13.43-7.88 14.05-11.27 26.37-11.32 44.13-.04 15.33 5.08 27.1 14.25 35.16 8.37 7.35 20 11.37 32.35 11.37 12.36 0 23.98-4.02 32.35-11.37 9.17-8.06 14.29-19.83 14.25-35.16-.09-34.06-32.58-92.06-74.9-134.34l-1.5-1.49a530.65 530.65 0 00-19.5-18.04l-14.74-13.07c-3.6-3.2-6.66-5.95-9.6-8.63l-1.04-.95c-22.97-21-39.05-38.33-51.63-57.2l-.55-.82C8.57 203.56 0 178.43 0 151.39 0 68.1 68.15 0 151.5 0z"/><path d="M42.77 167.64c1.92 0 4.26-.13 7.02-.4s5.52-.77 8.28-1.5a31.75 31.75 0 007.59-3.05c2.3-1.3 3.87-2.98 4.71-5.06 1.08-2.68 1.25-5.07.52-7.18a13.82 13.82 0 00-4.08-5.81c-2-1.76-4.45-3.49-7.36-5.17a624.24 624.24 0 01-8.4-4.95 15.76 15.76 0 01-3.68-3.22 3.97 3.97 0 01-.92-3.34c.08-.6.54-1.32 1.38-2.12a15.2 15.2 0 017.13-3.62 8.36 8.36 0 014.14.11c.62.23 1 .73 1.15 1.5.16.76.3 1.57.46 2.41.08.69.44 1.25 1.1 1.67a3.7 3.7 0 002.58.4 2.33 2.33 0 001.79-1.27 5.9 5.9 0 00.51-2.64c-.38-3.22-1.65-5.65-3.8-7.3-2.14-1.65-4.86-2.55-8.16-2.7-1.91 0-3.83.42-5.75 1.26a17.78 17.78 0 00-8.74 8.28 11.67 11.67 0 00-1.26 5.75c.3 2.22 1.03 4.08 2.18 5.58a17.25 17.25 0 004.14 3.85c1.61 1.07 3.55 2.26 5.81 3.56a81.7 81.7 0 016.33 4.03 31.08 31.08 0 014.71 3.97c1.19 1.26 1.51 2.35.98 3.28a6.7 6.7 0 01-3.22 2.64 26.45 26.45 0 01-5.18 1.67c-1.91.42-3.93.73-6.03.92-2.11.19-4.09.28-5.93.28-1.3 0-2.57.27-3.8.81a2.89 2.89 0 00-1.83 2.88c0 .38.2.82.63 1.32a11.7 11.7 0 003.34 2.65c.65.34 1.2.51 1.66.51zm33.45-50.94c1.07.53 2.07.65 2.99.34a54.83 54.83 0 0112.3-1.95c.62 0 1.38-.04 2.3-.12.92-.08 1.46-.5 1.61-1.26.16-1.08-.13-2-.86-2.77a6.7 6.7 0 00-2.93-1.72 14.1 14.1 0 00-3.22-.4 31.04 31.04 0 00-8.28.92c-1.38.34-2.57.75-3.57 1.2a8.3 8.3 0 00-1.6 1.04c-.47.38-.7.88-.7 1.5.23 1.6.88 2.68 1.96 3.21zm12.76 42.08c1.23.77 2.38.81 3.45.12.85-.54 1.25-1.51 1.2-2.93a10.51 10.51 0 00-.85-3.97c-.46-1-.85-2.28-1.15-3.85a86.7 86.7 0 01-.8-4.89 56.38 56.38 0 01-.47-5.06c-.07-1.69-.11-3.22-.11-4.6a6.92 6.92 0 00-1.15-4.43 4.21 4.21 0 00-3.34-1.9c-.84.16-1.53.7-2.07 1.61a6.82 6.82 0 00-.92 3c0 1 .02 2.49.06 4.48a80.53 80.53 0 001.44 13.4 21.9 21.9 0 001.95 5.92 7.21 7.21 0 002.76 3.1zm21.95-1.38a2.9 2.9 0 002.18-.97c.61-.65 1.19-1.4 1.73-2.25.76-1.38 1.59-2.97 2.47-4.77.88-1.8 1.8-3.62 2.76-5.46.96-1.84 1.95-3.64 2.99-5.4a55.52 55.52 0 013.16-4.84c.54 1.23 1.1 2.61 1.67 4.14a318.94 318.94 0 013.4 9.44c.53 1.53 1.03 2.9 1.49 4.14.3.84.94 1.59 1.9 2.24.95.65 1.85.98 2.7.98.84 0 1.64-.48 2.41-1.44.77-.96 1.15-2.44 1.15-4.43a85.65 85.65 0 013.56-11.84c.77-2 1.58-3.7 2.42-5.12.84-1.42 1.65-2.13 2.42-2.13a10.93 10.93 0 012.01 1.72 13.5 13.5 0 011.9 2.65c.46 1.15.9 2.47 1.32 3.97.42 1.5.78 3.1 1.1 4.83.3 1.72.59 3.5.85 5.34.27 1.84.52 3.65.75 5.41.08.38.23.82.46 1.32.23.5.54.94.92 1.32.38.39.88.64 1.5.75.6.12 1.34-.02 2.18-.4a2.6 2.6 0 001.27-1.2c.23-.5.34-1.25.34-2.25a96.2 96.2 0 01-.29-3.62c-.11-1.73-.32-3.7-.63-5.93-.3-2.22-.78-4.56-1.44-7.01a33.21 33.21 0 00-2.58-6.78 16.92 16.92 0 00-4.94-5.4c-1-.7-1.98-1.26-2.94-1.68a6.34 6.34 0 00-2.47-.63c-.54 0-1.38.25-2.53.75a9.66 9.66 0 00-3.22 2.36c-.85 1-1.63 2.14-2.36 3.45a42.24 42.24 0 00-1.96 3.96c-.57 1.34-1.1 2.65-1.6 3.91-.5 1.27-.9 2.4-1.21 3.4-.39-1.46-.87-3.15-1.44-5.06a42.7 42.7 0 00-2.01-5.41 17.61 17.61 0 00-2.7-4.31c-1.04-1.2-2.17-1.78-3.4-1.78-1.15 0-2.43.78-3.85 2.35a35.94 35.94 0 00-4.14 5.75 112.24 112.24 0 00-3.85 7.07c-1.23 2.46-2.27 4.53-3.1 6.22a1918 1918 0 01-.76-5.3 510.39 510.39 0 01-1.38-11.44c-.19-1.8-.32-3.31-.4-4.54-.15-1.3-.57-2.26-1.26-2.88-.7-.6-1.7-.8-3-.57a3.64 3.64 0 00-2.47 2.24 8.67 8.67 0 00-.51 3.63l1.2 11.55c.43 3.95.94 7.57 1.56 10.87a17.16 17.16 0 002.76 6.1c.6.84 1.26 1.55 1.95 2.12.7.58 1.34.87 1.96.87zm76.33 19.1c.85.07 1.62-.25 2.3-.98a3.92 3.92 0 001.15-2.36c.08-3.07.04-6.63-.11-10.7a225.8 225.8 0 00-.8-12.3 76.2 76.2 0 007.53-5.23 31.9 31.9 0 006.32-6.56 20.4 20.4 0 003.45-8.05c.58-2.95.21-6.19-1.09-9.72a12.04 12.04 0 00-4.2-4.88 14.98 14.98 0 00-5.8-2.19 24.58 24.58 0 00-6.73-.11 42.3 42.3 0 00-6.9 1.38 53.07 53.07 0 00-11.68 4.89 12.2 12.2 0 00-3.73 3.44c-.8 1.23-.86 2.61-.17 4.15.3.6.97.97 2 1.09a5.15 5.15 0 003.17-.75 201.8 201.8 0 015-2.53 45.2 45.2 0 0110.81-3.68c1.88-.38 3.78-.54 5.7-.46 2.14.08 3.71.63 4.71 1.67 1 1.03 1.57 2.2 1.73 3.5.22 1.54.07 3.01-.47 4.43a15.23 15.23 0 01-2.35 4.08 23.85 23.85 0 01-3.68 3.69 43.84 43.84 0 01-4.54 3.22c-.24-2.23-.48-4.28-.75-6.16s-.52-3.54-.75-5a7.45 7.45 0 00-2.59-3.8c-1.26-1-2.4-1.3-3.39-.92-.61.31-1.03.64-1.27.98-.23.35-.42.71-.57 1.1-.15.38-.2.8-.12 1.26.39 2.6.75 5.29 1.1 8.05.34 2.76.7 5.56 1.09 8.4a10.63 10.63 0 00-3.33 2.87c-.7 1-.77 2.15-.24 3.45.31.77.87 1.32 1.67 1.67.8.34 1.7.44 2.7.28.24 3.38.43 6.66.58 9.84.15 3.18.23 6.23.23 9.14 0 .61.34 1.38 1.03 2.3a3.81 3.81 0 003 1.5zm37.59-13c2.07-.08 2.99-1.8 2.76-5.18a899.84 899.84 0 01-3-25.58 458.23 458.23 0 01-1.95-25.94 7.54 7.54 0 00-.97-3.5c-.58-.96-1.52-1.48-2.82-1.55-1.23-.08-2.03.51-2.42 1.78a22.84 22.84 0 00-.8 4.66c.08 3.52.27 7.4.57 11.61a570.61 570.61 0 002.53 26.1c.54 4.38 1.12 8.51 1.73 12.42.08.47.29 1 .63 1.62.35.6.71 1.18 1.1 1.72.38.54.8.98 1.26 1.32.46.35.92.52 1.38.52zm21.83-8.51c2.6.69 5.13.8 7.59.34 2.83-.46 5.4-1.55 7.7-3.27a17.62 17.62 0 005.3-6.27c.3-1.92-.08-3.07-1.16-3.45-.38-.15-.96-.13-1.72.06-.77.19-1.5.6-2.19 1.2a22.02 22.02 0 01-5.46 3.51c-1.11.5-2.3.86-3.56 1.1-1.27.22-2.52.26-3.74.11a8.3 8.3 0 01-5.18-2.82c-1.38-1.57-2.14-3.7-2.3-6.38a40 40 0 0020.81-5.52c1.31-.84 2.1-1.8 2.37-2.88.26-1.07.1-2.33-.52-3.79a12.06 12.06 0 00-5.64-6.1 16.07 16.07 0 00-8.97-1.83c-2.76.15-5.17.76-7.24 1.84a16 16 0 00-8.22 9.78c-.66 2.14-.87 4.4-.64 6.78.23 2.53.8 4.98 1.73 7.35a17.73 17.73 0 004.02 6.22c2.07 1.99 4.41 3.33 7.02 4.02zm-4.95-22.54c.08-.92.4-1.74.98-2.47a10.87 10.87 0 014.37-3.4c.88-.38 1.7-.65 2.47-.8 1.69-.3 3.36-.29 5 .06a4.42 4.42 0 013.4 2.7 16.3 16.3 0 01-3.16 1.5c-1.27.46-2.65.86-4.14 1.2-1.5.35-3.03.63-4.6.86-1.58.24-3.01.35-4.32.35zM76.8 213.47c.73.9 1.8 1.28 3.2 1.15.94-.08 2.02-.35 3.24-.8a38.4 38.4 0 009.5-5.22 4.51 4.51 0 001.34-3.58c-.08-.3-.3-.49-.67-.57a1.73 1.73 0 00-1.18.19l-2.98 1.5a73.78 73.78 0 01-3.2 1.54c-1.09.5-2.17.94-3.26 1.34a18 18 0 01-3.04.87 3.19 3.19 0 01-.07-.96v-.23a459.9 459.9 0 01.45-9.37 75.97 75.97 0 015.76-.26c.43 0 1-.1 1.7-.29.7-.19 1.1-.65 1.18-1.37 0-.9-.4-1.56-1.21-1.99a4.64 4.64 0 00-2.44-.57l-2.27.1c-.79.02-1.6.07-2.46.15.13-1.92.26-3.8.41-5.63.15-1.83.31-3.48.48-4.93 0-.5-.33-.97-.99-1.37a3.51 3.51 0 00-2.08-.55c-.3 0-.57.2-.83.58-.26.38-.4.83-.45 1.34l-.45 5.12c-.17 1.88-.32 3.82-.44 5.83-2.14.21-4.08.47-5.83.77-.72.2-1.2.53-1.4.96-.22.42-.33.76-.33 1.02 0 .73.33 1.22 1 1.47a5.1 5.1 0 001.82.39c.68-.09 1.4-.16 2.14-.23.75-.06 1.53-.14 2.34-.22-.09 2-.16 3.9-.22 5.7-.07 1.79-.06 3.36.03 4.73.08 1.37.49 2.5 1.21 3.4zm26.8-1.85a9.3 9.3 0 003.97-.84 11.8 11.8 0 003.2-2.17c.94-.9 1.77-1.92 2.5-3.07a21.05 21.05 0 001.79-3.52c.34-1.07.48-2.22.42-3.46a11.24 11.24 0 00-.8-3.62 10.13 10.13 0 00-2.02-3.16 8.2 8.2 0 00-3.23-2.12c-.81-.34-1.5-.25-2.05.26a10.7 10.7 0 00-2.5-1 9.17 9.17 0 00-2.24-.34c-1.06 0-2.01.27-2.84.83a8.75 8.75 0 00-2.21 2.14 11.8 11.8 0 00-1.57 3.01c-.4 1.13-.7 2.3-.86 3.49a17.7 17.7 0 00-.1 4.86c.2 1.62.63 3.07 1.31 4.35a8.66 8.66 0 002.82 3.14 7.68 7.68 0 004.41 1.22zm1.16-4.64a4 4 0 01-4.32-1.47c-.5-.71-.83-1.5-1-2.37-.17-.88-.23-1.76-.19-2.66.04-.9.13-1.66.26-2.3a14.05 14.05 0 011.44-3.42c.36-.63.79-1.17 1.28-1.64s.99-.7 1.5-.7c.47 0 1.02.24 1.63.73.62.5 1.17.89 1.64 1.19a1.6 1.6 0 001.6-.2 4.55 4.55 0 012.46 2.92c.4 1.34.4 2.63-.03 3.87a9.96 9.96 0 01-3.87 5c-.8.5-1.6.85-2.4 1.05zm34.78 3.23c.47 0 .87-.18 1.22-.55.34-.36.66-.77.96-1.24.42-.77.88-1.66 1.37-2.66.5-1 1-2.02 1.54-3.04a67.94 67.94 0 011.66-3 30.9 30.9 0 011.76-2.7c.3.69.61 1.45.93 2.3a177.5 177.5 0 011.89 5.26c.3.85.57 1.62.83 2.3.17.47.52.89 1.06 1.25.53.36 1.03.54 1.5.54s.92-.26 1.34-.8c.43-.53.64-1.35.64-2.46a47.67 47.67 0 011.98-6.6c.43-1.1.88-2.05 1.35-2.84.47-.8.92-1.19 1.35-1.19a6.08 6.08 0 011.12.96 7.5 7.5 0 011.05 1.48c.26.64.5 1.37.74 2.2.23.84.44 1.73.6 2.7.18.95.34 1.94.49 2.97.15 1.02.28 2.02.41 3 .04.22.13.46.26.74.13.28.3.52.51.74.21.21.5.35.83.41.34.07.75 0 1.22-.22.34-.17.57-.4.7-.67.13-.28.2-.7.2-1.25-.05-.38-.1-1.06-.17-2.02-.06-.96-.18-2.05-.35-3.3a32.6 32.6 0 00-.8-3.9 18.48 18.48 0 00-1.44-3.77 9.42 9.42 0 00-4.38-3.94c-.54-.23-1-.35-1.38-.35a5.38 5.38 0 00-3.2 1.73c-.47.55-.9 1.2-1.31 1.92-.4.72-.77 1.46-1.09 2.2l-.9 2.18c-.27.7-.5 1.34-.67 1.89-.2-.81-.48-1.75-.8-2.82-.32-1.06-.69-2.07-1.12-3a9.8 9.8 0 00-1.5-2.4c-.58-.67-1.2-1-1.89-1-.64 0-1.35.44-2.14 1.32a20 20 0 00-2.3 3.2 62.46 62.46 0 00-2.15 3.93l-1.73 3.46-.41-2.95a148.22 148.22 0 01-.77-6.36c-.1-1-.18-1.85-.23-2.53-.08-.73-.32-1.26-.7-1.6-.38-.34-.94-.45-1.66-.32-.69.21-1.15.63-1.38 1.25-.23.61-.33 1.29-.29 2.01l.67 6.43c.24 2.2.53 4.22.87 6.05a9.55 9.55 0 001.54 3.4c.34.46.7.86 1.08 1.18.39.32.75.48 1.09.48zm35.22 2.24c1.08.72 2.31.98 3.68.77a12.1 12.1 0 002.36-.7 33.05 33.05 0 005-2.6c.76-.5 1.45-.95 2.04-1.38.86.47 1.61.7 2.28.68.66-.03 1.12-.42 1.37-1.19.22-.55.18-1.2-.1-1.92-.27-.72-1.1-1.56-2.46-2.5a83.77 83.77 0 00-.03-7.42c-.06-1.36-.15-2.72-.26-4.06-.1-1.35-.24-2.62-.41-3.81a4.36 4.36 0 00-1.47-2.72c-.81-.7-1.97-1.03-3.46-1a8.91 8.91 0 00-3.07.71c-1.03.43-2.03.97-3.01 1.63-.98.67-1.92 1.4-2.82 2.21-.9.81-1.7 1.6-2.43 2.37-.38.51-.55 1-.51 1.44.04.45.23.84.58 1.18.34.35.75.54 1.24.58.5.04.93-.13 1.32-.51a46.48 46.48 0 013.9-3.14 14.07 14.07 0 013.58-1.98c.6-.22 1.1-.25 1.5-.1.41.15.66.55.74 1.19.09.55.16 1.22.23 2.01a76.24 76.24 0 01.25 5.19c.03.87.04 1.67.04 2.4a4.5 4.5 0 00-1.67-1.1 5.86 5.86 0 00-1.76-.34 8.52 8.52 0 00-1.66.1c-.54.08-.95.18-1.25.31a9.48 9.48 0 00-5.18 4.39 8.56 8.56 0 00-.77 6.04 5.4 5.4 0 002.2 3.27zm2.97-3.46c-.34.09-.65.07-.93-.06a.96.96 0 01-.54-.58 3.3 3.3 0 01.03-2.08c.24-.7.6-1.34 1.09-1.92a7.78 7.78 0 011.66-1.47c.62-.4 1.2-.67 1.76-.8.35-.04.72.09 1.12.38.4.3.78.65 1.12 1.06.35.4.64.81.9 1.22.26.4.38.73.38.99-.76.72-1.8 1.4-3.1 2.01-1.3.62-2.46 1.04-3.49 1.25zm21.17 5.12c.68.04 1.17-.19 1.47-.7.3-.51.32-1.18.07-1.99a317.67 317.67 0 00-.9-8.96 261.5 261.5 0 006.34 4.07l3.39 2.05c1.1.66 2.13 1.22 3.07 1.7.51.25 1.06.31 1.63.18.58-.12 1-.34 1.25-.64.55-.6.4-1.25-.45-1.98a78.38 78.38 0 00-6.2-4.58c-1.07-.7-2.1-1.37-3.11-2.01l-2.66-1.73a98.4 98.4 0 019.54-5.18c.6-.3 1.01-.65 1.25-1.06a2 2 0 00.22-1.38c-.04-.2-.18-.4-.41-.54a2.42 2.42 0 00-.84-.32 4.6 4.6 0 00-1.76.03c-.6.17-1.38.5-2.36.96a141.68 141.68 0 00-9.54 5.06c-.34-2.56-.68-5-1.02-7.3-.35-2.3-.69-4.44-1.03-6.4a4.8 4.8 0 00-1.53-2.4c-.69-.53-1.35-.67-1.99-.41-.47.2-.7.67-.67 1.37.02.7.07 1.36.16 1.95.26 1.88.54 4.04.86 6.47a4383.5 4383.5 0 002.85 21.12c.17.72.43 1.31.77 1.76.34.45.87.73 1.6.86zm24.82-5.25a9.5 9.5 0 004.22.2 9.6 9.6 0 004.29-1.83 9.8 9.8 0 002.94-3.49c.17-1.06-.04-1.7-.64-1.92-.21-.08-.53-.07-.96.04-.42.1-.83.33-1.21.67a12.26 12.26 0 01-3.04 1.95c-.62.28-1.28.48-1.99.6-.7.14-1.4.16-2.08.07a4.62 4.62 0 01-2.88-1.57 5.71 5.71 0 01-1.28-3.55 22.26 22.26 0 0011.58-3.07c.73-.47 1.17-1 1.32-1.6.15-.6.05-1.3-.29-2.11a6.71 6.71 0 00-3.14-3.4 8.94 8.94 0 00-4.99-1.02 9.86 9.86 0 00-4.03 1.03 8.9 8.9 0 00-4.58 5.44 9.67 9.67 0 00-.35 3.77c.13 1.41.45 2.78.96 4.1a9.86 9.86 0 002.24 3.45 8.83 8.83 0 003.9 2.24zm-2.76-12.54c.05-.51.23-.97.55-1.38a6.56 6.56 0 013.8-2.33 7.19 7.19 0 012.79.03c.92.2 1.55.7 1.89 1.5-.47.3-1.06.58-1.76.84-.7.25-1.47.48-2.3.67-.84.19-1.7.35-2.57.48-.87.13-1.67.19-2.4.19z"/></g></svg>