<svg xmlns="http://www.w3.org/2000/svg" width="680" height="740" viewBox="0 0 680 740"><path fill="#FFF" d="M339.8 179.1c88.3 0 160.5 71.5 160.5 158.9a146 146 0 0 1-24 79.3 333.2 333.2 0 0 1-50 59.6l-4.2 4-11.4 11.4-14 14a10.6 10.6 0 0 1-11.8 3.2 10.6 10.6 0 0 1-7-10 10.4 10.4 0 0 1 3.6-7.6l1.2-1.4 11.8-11.8 13-13 2.8-2.7 2.4-2.4a308.4 308.4 0 0 0 45.6-54.3A126 126 0 0 0 479 338a139 139 0 0 0-139.2-138c-36.9.1-72.2 14.7-98.3 40.5a137.7 137.7 0 0 0-41 97.4 122 122 0 0 0 22.6 68.7c12 17.8 27.5 34.6 50 55.2l1.9 1.8 9.2 8.2 17 14.7 2.6 2.5c9 8 15.4 13.7 21.2 19.5 48.2 47.8 85.3 113.3 85.3 155.7A67.6 67.6 0 0 1 388 717a73.4 73.4 0 0 1-48.3 17.1c-18 0-35.4-6-48.2-17a67.6 67.6 0 0 1-22.3-52.8c0-22 4.4-38.2 14.2-55.6l1.1-2.1c4.7-7.8 9.6-15.5 14.9-23a10.5 10.5 0 0 1 11-5.3 10.6 10.6 0 0 1 8.8 8.7 10.4 10.4 0 0 1-2.3 8.2l-5.8 8.7c-4.5 6.9-6.3 9.8-8.8 14.1a86.2 86.2 0 0 0-12 46.4c0 16 5.3 28.3 15 36.8 9.7 8 21.9 12.2 34.4 12a52 52 0 0 0 34.3-12c9.7-8.4 15-20.8 15-36.8 0-35.7-34.5-96.6-79.3-141l-1.6-1.6c-5.5-5.3-11.6-11-20.6-18.9l-15.6-13.6-10.2-9.2-1-1a329.7 329.7 0 0 1-54.8-60l-.6-.9a142.4 142.4 0 0 1-26-80.2 160 160 0 0 1 160.5-159zM116.7 521.5c6 8.8 3 17.6-3.1 21.7a2.4 2.4 0 1 1-2.7-4c4-2.7 6.3-8.5 1.9-15-4.5-6.6-10.8-6.7-14.8-4-5.3 3.6-4 8.3-1.7 15.6 2 6.5 4.7 14.5-3 19.8-5.7 3.8-14.3 3.4-19.9-4.9-5.6-8.2-2.8-16.4 2.9-20.2 1-.7 2.5-.5 3.2.6.8 1.2.5 2.6-.6 3.3-3.5 2.4-5.6 7.8-1.6 13.7 4 6 9.7 6 13.3 3.6 4.6-3.1 3.4-7.5 1.2-14.5-2.2-6.7-5-15.2 3.6-21 6-4 15.3-3.5 21.3 5.3zM80 463.7c.5 1.3 0 2.6-1.3 3L34 483.4c-1.2.5-2.6-.1-3-1.4-.5-1.2.1-2.6 1.4-3l44.5-16.5c1.3-.5 2.6.1 3 1.3zm-25.1-93c0 1.3-.8 2.5-2.2 2.6L13.1 377 40 391.7c.7.3 1 1 1.2 1.8 0 .8-.3 1.6-.9 2L16.6 415l39.7-3.7c1.3-.2 2.4.8 2.5 2.1.2 1.3-.8 2.5-2 2.6l-47.4 4.4c-1 .1-2-.5-2.4-1.5-.4-1-.2-2 .7-2.6l26.9-22.1-30.5-16.6c-1-.5-1.4-1.6-1.2-2.6.2-1 1-1.8 2-1.9l47.4-4.4c1.3-.1 2.4.9 2.6 2.1zM3.5 291L.1 306.5c-.3 1.3.5 2.5 1.8 2.8l46.3 10.4c1.3.3 2.6-.5 2.8-1.8.3-1.3-.4-2.6-1.7-2.8l-13.1-3 3-13.1c2.1-9.8-4-19.5-13.9-21.7-9.9-2.3-19.6 4-21.8 13.7zm31 7l-2.9 13.1-26.5-5.9 3-13.1a13.6 13.6 0 0 1 26.5 5.9zm48.3-85.7L70.2 235c-.6 1.1-2 1.6-3.2 1l-41.6-23a2.4 2.4 0 0 1-1-3.3 2.5 2.5 0 0 1 3.3-.9l39.5 21.8L78.6 210a2.4 2.4 0 0 1 3.2-1c1.2.7 1.6 2.1 1 3.3zm44.4-71.8l-20.3 20.2-14.3-14.4 14.7-14.5c.8-1 .9-2.4 0-3.4-1-.9-2.4-.8-3.3 0L89.3 143l-12.7-12.7 20.3-20.2c1-.9 1-2.4.1-3.3-1-1-2.5-.9-3.3 0l-22 21.9c-1 .9-1 2.4 0 3.3l33.5 33.7c1 1 2.4 1 3.3 0l22-21.9c.9-.9 1-2.4 0-3.3-.9-1-2.4-1-3.3 0zM246.1 14L212 23c-1.3.3-2 1.6-1.7 2.9.3 1.2 1.5 2 2.8 1.6l14.9-3.9 11.3 43.8a2.4 2.4 0 1 0 4.6-1.2l-11.4-43.8 14.8-3.8c1.3-.4 2-1.6 1.7-2.8-.3-1.3-1.6-2-2.9-1.7zM334 52.2A26.1 26.1 0 1 1 337.8.1a26.1 26.1 0 0 1-3.7 52zm3.4-47.5a21.4 21.4 0 1 0-3 42.7 21.4 21.4 0 0 0 3-42.7zM505.5 106c-1-.8-1.3-2.2-.5-3.3l23.6-32.1-28.8 10.3c-.8.3-1.6.2-2.2-.3-.6-.5-1-1.2-1-2l1.3-30.5-23.5 32a2.5 2.5 0 0 1-3.4.6c-1-.8-1.2-2.3-.5-3.4l28.2-38.2c.6-.9 1.7-1.2 2.7-.9 1 .4 1.6 1.3 1.5 2.3l-1.4 34.8 32.7-11.8c1-.3 2.1 0 2.7.9.6.8.7 2 0 2.8l-28 38.3c-.9 1-2.4 1.2-3.4.5zm70.3 65.5l27-44.2c.5-.9.4-1.9 0-2.6a2.4 2.4 0 0 0-2.5-1l-50.8 10.1a2.6 2.6 0 0 0-1.9 2.9 2.4 2.4 0 0 0 2.8 1.8l13.4-2.7 15 21.5-7 11.8c-.6.8-.5 1.8 0 2.6l.7.6c1.1.7 2.6.3 3.3-.8zm-6.9-36.7l27.1-5.4-14.4 23.5-12.7-18.1zM615 246.3l15.5-29 26.2 14c1.1.7 2.6.2 3.2-.9.6-1.2.2-2.6-1-3.3l-31.2-16.6 22.3-6.8c1.3-.4 2-1.7 1.6-3a2.4 2.4 0 0 0-3-1.5L603.2 213c-1.3.4-2 1.7-1.6 3 .4 1.3 1.7 2 3 1.6l16.7-5.1 5 2.7L611 244a2.3 2.3 0 0 0 1 3.2c1.1.6 2.6.2 3.1-1zm16 80.7l-.3-28.6 20.2-.1.2 20.6c0 1.3 1 2.4 2.3 2.4 1.3 0 2.3-1.2 2.3-2.4v-20.7h17.9l.2 28.6c0 1.2 1 2.3 2.3 2.3 1.3 0 2.3-1.1 2.3-2.4l-.2-31c0-1.3-1-2.3-2.3-2.3l-47.5.2a2.4 2.4 0 0 0-2.4 2.4l.2 31c0 1.3 1 2.4 2.4 2.4 1.2 0 2.3-1.1 2.3-2.4zm-23.2 117.5c.6-1.1 2-1.6 3.2-1l42.4 21.2c1.2.6 1.7 2 1.1 3.2-.6 1.2-2 1.7-3.2 1l-42.5-21.2c-1.2-.6-1.6-2-1-3.2zm-5.5 109.7l23-26.7c1-1 .8-2.5-.2-3.3-1-.9-2.4-.8-3.2.3l-10 11.5-34.2-29.6c-1-.9-2.5-.8-3.4.2-.8 1-.7 2.5.3 3.3l34.2 29.6-10 11.6c-1 1-.8 2.5.1 3.3 1 .9 2.5.8 3.4-.2z"/></svg>