<svg xmlns="http://www.w3.org/2000/svg" width="600" height="600" viewBox="0 0 600 600"><path fill="#FFF" fill-opacity=".1" d="M299.53 75c70.7 0 128.52 57.77 128.52 128.43 0 22.83-6.65 43.75-19.26 64.14l-.67 1.07c-9.3 14.8-20.61 28.05-38.3 46.02l-3.13 3.16-3.62 3.63-5.12 5.12-3.27 3.26c-3.98 4-7 7.08-9.88 10.08a7.72 7.72 0 01-11.15-10.67l1.66-1.73a673.6 673.6 0 016.27-6.4l14.16-14.17 2.4-2.43c17.76-18 28.73-30.84 37.52-45.06 11.18-18.07 16.95-36.24 16.95-56.02 0-62.13-50.9-113-113.08-113-62.19 0-113.1 50.87-113.1 113 0 19.67 6.29 38.1 18.36 56.4 9.8 14.84 22.61 28.76 41.2 45.81l1.99 1.81c2.64 2.4 5.43 4.9 8.8 7.9l10.92 9.68a445.37 445.37 0 0119.16 17.8c38.88 38.84 68.62 91.94 68.7 126.15.05 17.7-6.27 32.24-17.69 42.27-10.23 8.99-24 13.75-38.34 13.75-14.36 0-28.12-4.76-38.35-13.75-11.41-10.03-17.74-24.57-17.7-42.27.05-17.76 3.6-30.87 11.41-45l.73-1.3c2.72-4.8 4.71-7.88 12-18.86a7.72 7.72 0 0112.86 8.54l-3.58 5.4c-4.49 6.81-6.05 9.32-8.21 13.19-6.8 12.1-9.73 22.76-9.77 38.07-.03 13.32 4.44 23.6 12.45 30.63 7.3 6.41 17.41 9.91 28.16 9.91 10.74 0 20.86-3.5 28.16-9.91 8-7.04 12.47-17.31 12.44-30.63-.08-29.04-27.36-78.05-63.1-114.18l-1.08-1.1c-4.37-4.36-9.2-8.86-16.08-15.01l-15.43-13.7c-3.01-2.69-5.6-5.01-8.12-7.32-19.85-18.15-33.65-33.07-44.42-49.39-13.64-20.68-20.9-41.98-20.9-64.89C171 132.77 228.82 75 299.53 75z"/></svg>