<?xml version="1.0" standalone="no"?>
<!DOCTYPE svg PUBLIC "-//W3C//DTD SVG 20010904//EN"
 "http://www.w3.org/TR/2001/REC-SVG-20010904/DTD/svg10.dtd">
<svg version="1.0" xmlns="http://www.w3.org/2000/svg"
 width="520.000000pt" height="520.000000pt" viewBox="0 0 520.000000 520.000000"
 preserveAspectRatio="xMidYMid meet">
<metadata>
Created by potrace 1.11, written by Peter Selinger 2001-2013
</metadata>
<g transform="translate(0.000000,520.000000) scale(0.100000,-0.100000)"
fill="#000000" stroke="none">
<path d="M0 2600 l0 -2600 2600 0 2600 0 0 2600 0 2600 -2600 0 -2600 0 0
-2600z m2816 1976 c437 -95 777 -427 886 -863 32 -127 32 -371 1 -494 -32
-127 -91 -254 -176 -381 -94 -141 -142 -196 -375 -430 -203 -205 -217 -214
-267 -163 -49 48 -41 61 168 273 212 217 306 329 384 458 174 287 188 611 39
914 -132 269 -381 466 -676 534 -520 122 -1062 -223 -1184 -755 -62 -268 -1
-528 182 -771 99 -132 195 -231 444 -455 239 -216 357 -337 471 -486 140 -184
268 -418 326 -592 66 -199 65 -357 -4 -500 -140 -292 -573 -356 -811 -120
-105 104 -151 240 -140 409 11 164 50 276 152 437 82 130 117 152 170 106 41
-36 35 -70 -31 -171 -105 -162 -139 -263 -139 -416 1 -105 19 -169 68 -233 62
-81 197 -134 312 -124 225 21 352 192 315 422 -26 159 -117 364 -250 562 -150
222 -256 339 -549 601 -394 354 -566 574 -645 827 -120 384 4 828 314 1120
157 149 373 260 574 294 33 6 71 13 85 15 51 9 287 -3 356 -18z"/>
</g>
</svg>
