<svg xmlns="http://www.w3.org/2000/svg" viewBox="0 0 400 400"><g fill="none" fill-rule="evenodd"><path fill="#FFF" fill-rule="nonzero" d="M301.1 141.3c0 1 .2 1.9.6 2.7h.8c.7.3 1.2 1 1.3 4v.2l-1.4.5c-.6 0-1.1 0-1.6-.3-.6-.4-.9-1-1-1.7v-.3c0-.7.3-1.4.8-1.9l1-.5c-.3-.8-.5-1.7-.5-2.7zm36 11.5c-4.1 1.8-8.3 3.6-12.6 5.2h-.2l-.3-6.2v-.4c3.9-1.2 7.7-2.6 11.6-4v.4c.5 1.7 1 3.3 1.8 4.9h-.3zm-28.5 39.9c-3 .9-8 1.2-9 1.2a17 17 0 01-6.8-1c-.4 0-.8-.3-1-.6l-.1-.9v-.8l.3-.7.2-.7c2 .7 4 1.5 6 2 3.4 1 6.9 1.3 10.4 1.3h1.9v.2h-1.9zm76.8 58.9c-1 .4-2.1.8-2.6 1.7-.7-1.2-1-2.7-1.1-4.1 0-1 .1-2 .5-2.8a8.5 8.5 0 014.9-5.2c1.5-.5 3.5-.5 4.7.7.6.6.9 1.5.9 2.4 0 .6-.2 1.2-.4 1.8a8.6 8.6 0 01-3 3.4c-1.3.9-2.5 1.6-3.9 2.1zm-9.6-21.2c1.3-.3 2.6.2 3.4 1.1a4 4 0 011 2.7c0 .8-.1 1.6-.4 2.3-.8 1.7-2 3-3.3 4.2l-2 1.7c-.9-1.6-1.7-3.2-2.2-4.9l-.2-2c0-1 .2-2 .7-3a5 5 0 013-2.1z"/><path fill="#C99E62" fill-rule="nonzero" d="M335.6 147.4v-.4c0-.3 0-.5.2-.7.2-.3.5-.4.8-.5 2.9-1 6-.8 9-1.2.4 0 .8 0 1-.2.5-.2.7-.6 1-1 1.3-1.5 2.9-3 4.6-4 .9-.6 1.8-1.2 2.9-1.4.2 0 .5 0 .6.2l-.1.2c-1 1.2-3 1.5-3.9 2.8v.6c0 .2.2.1.4 0l3.5-1c1-.4 2.6-1 2.9-.2-.3.5-1.8 1.2-2.7 1.5l-2.9 1c-.3.1-.8.4-.8.8v.3c2.1 0 4.2-1.5 6.2-1 .1 0 .3 0 .4.2l-.4.3c-1.6.8-3.5.9-5 1.8h.4c-.2 0-.3.2-.4.3a17463 17463 0 016 0v.1c0 .2-.3.5-.6.6-1.9.8-4 .5-6 .6-.1 0-.3 0-.4.2l-.1.4c-.1.2 0 .5.3.8l1.4 1.8.1.3c0 .3-.3.5-.7.4-.6-.2-1.3-.9-1.9-1.3l-2-1.6c-1.2-1-2.9-.8-4 .2a92 92 0 01-5 4.4c-.8.5-1.5 1-2.3 1.3a26 26 0 01-2.4-6.3l-.1-.3z"/><path fill="#C4505D" fill-rule="nonzero" d="M284.3 164.9v-.7c.1-.5.6-1 1.1-1.3a157 157 0 0115.3-9c-.2.3-.3.6-.2 1v.2c0 1 1.1 1.5 2 1.7 2 .5 4.1.4 6-.2a4 4 0 001.7-.9c.4-.4.7-1 .6-1.5v-.4h.3a76.4 76.4 0 0112.7-2.5l.1.2v.3l.4 6.3v.6l-.6.5c-3 2-6 3.7-9.3 5.2l.1-1.2v-.2l-.2-.3v2c.1 8 1.7 15.9 1.8 23.8v1.4l-.1 2.3c-1.9.2-3.7.3-5.6.3h-1.9c-3.5 0-7-.2-10.4-1.1l-6-2a33 33 0 00-2-.6c2.3-5.7 4-11.6 5.2-17.6l-8.1 3c-.2.1-.3.2-.4.1-.2 0-.2-.2-.3-.4l-.1-.6v-.3l-2-7.8v-.3z"/><path fill="#4D866D" fill-rule="nonzero" d="M284.3 217.1l-1.1-.6c-.4-.3-.9-.7-1-1.2v-.2l.1-.8c.6-2.2 1.5-4.2 2.3-6.3l5.6-13.6v-.2l-.1-.1a2 2 0 01-.6-1l.2-.6a9 9 0 012.2-2.6l-.2.7c0 .3-.1.6 0 .8v.9l1 .7c2.1 1 4.5 1 6.8 1 1 0 6-.4 9-1.3h2l2.8-.2c1.5 6.4 2 14.2 3.5 20.6a22 22 0 011 5.7c0 .9-.2 1.7-.4 2.5l-.2.5c-.2.2-.6.2-.9.3h-.2a150.2 150.2 0 01-13-.2c-.3-.3-.3-.7-.3-1.2-.3-3.7-.3-7.5-1.8-11-1.6 4.3-2.6 10.8-3 11-.4.1-1.4-.2-1.9-.3a73 73 0 01-10.2-2.7l-1.6-.6z"/><path fill="#FFF" fill-rule="nonzero" d="M310 234.6v-.6c-.1-1.3-.6-2.5-1.1-3.6-1.2-2.7-2.6-5.4-4-8l11.2-.1c.6 2.8 1 5.7 1.2 8.6v2.2c0 6.4-1.9 12.7-2.6 19l1.1.7 2 1 3.4 1.5v-.2a1.9 1.9 0 012-1.1h.3v.2l.9-.2c.2 0 .5 0 .7.2l.1.2h.3a1.9 1.9 0 012 1.7 2 2 0 01-1 1.7l-1 .4c-.6.1-1 .5-1.5.7a9.3 9.3 0 01-5.5 1.3c-1.1-.1-2.3-.5-3.4-.2-.7.2-1.3.6-2 1-.6.2-1.4.4-2 0-.7-.4-1-1.1-1-1.8s.2-1.4.4-2c.4-1.6.5-3.2.5-4.8 0-2.2-.3-4.4-1-6.4-.5-1.9-1.4-3.7-1.5-5.6v-.4c.3-1.8 1.3-3.5 1.4-5.4z"/><path fill="#C99E62" fill-rule="nonzero" d="M301.3 153.5c.4-.3.9-.5 1.4-.6h.2l-.1.5c0 .6.3 1.1.8 1.4.7.4 1.5.5 2.2.4a9 9 0 002.8-.8c.3-.1.6-.3.8-.6l.2-.7v-.2c.6-.1 1.2.4 1.3 1v.2a2 2 0 01-.7 1.5c-.4.5-1 .7-1.6 1-2 .5-4 .6-6 .2-1-.3-2-.8-2-1.7v-.3c0-.4.2-.8.4-1l.3-.3z"/><path fill="#FFF" fill-rule="nonzero" d="M302.5 144h-.8a6.4 6.4 0 011.1-7.1 6 6 0 017.3-1c.3.3.7.5 1 .3l.2-.3c1.3 1.1 2.4 2.5 3.2 4 .2.3.4.6.4 1-.1.4-.5.7-.8.9v.2l.2 2.5v.3h-.2l-.3.2c.2.2.3.5.3.8 0 .4-.1.8-.5 1l-.3.3-.2.5c0 .9-.3 1.8-.6 2.6l-.4.6c-.3.3-.7.3-1 .3h-1.6v2.4l-.1.1c-.2.3-.5.4-.8.6a9 9 0 01-2.8.8c-.7 0-1.5 0-2.2-.4-.4-.3-.8-.7-.8-1.2l.1-.5v-.3l-.2-.1a49 49 0 00-.2-3.8c.5 0 1-.3 1.4-.5v-.3c-.2-3-.7-3.6-1.4-3.8z"/><path fill="#323230" fill-rule="nonzero" d="M299.4 134.5l.3-.1a1 1 0 00-.3 0zm0-.3h.3-.2zm-2.6 4.5l-2.4 2.2-.1-.5c0-.9.4-1.7 1-2.5 1-1.5 2.4-2.7 4-3.4l-.9.3 1-.5a7 7 0 01-2 .3 8 8 0 014.8-3.4h-.6l.6-.2-2-.3c.7-1.1 2.1-1.4 3.4-1.4 1.5 0 3 .4 4.6 1v-.2l-.2-1.7v-.6a6 6 0 013.3 7.8v.1l-.2.1-.1.2c-.3.2-.7 0-1-.2a6 6 0 00-7.2 1 6.6 6.6 0 00-1.8 4.5c0 1 .2 1.9.6 2.7a2 2 0 00-1 .5c-.5.5-.8 1.3-.7 2v.2c0 .7.3 1.3.8 1.7.5.3 1 .4 1.6.3.2 1.3.3 2.5.3 3.8l-4.2-5.5c-.4-.4-.7-1-.8-1.4v-.4c-.1.8-.4 1.6-.7 2.3 0 .2-.1.3-.2.3-.4.2-.6-.3-.6-.6v-.9c0-1.1.1-2.2.6-3.3l-.3.5.3-.7-1.8 3c-.3-.1-.4-.4-.4-.8v-.1c.2-2.2 1-4.3 2.3-6-.2 0-.3.2-.4.3l.4-.5z"/><path fill="#FFF" fill-rule="nonzero" d="M294.4 220.6l-3.2 7.3h-.1l3.3-7.3zm-3.2 7.4l-.2.2.1-.2zm-4.4 10.4a274 274 0 014.1-10.1h.1l-.2.4-4 10v-.3zm.3 9.6c-1.5 4.7-3.4 9.3-5.3 14v-.2c2-4.6 3.8-9.2 5.3-14 .6-1.8 1-3.7 1.1-5.6v.1c0 2-.5 3.8-1 5.6zm-12.3-69h-.1c-.3-1.7-.8-3.3-1.6-4.7a199 199 0 0111.2-9.4l.1.5 2 7.5v.2l-11.6 5.9zm-7.6 98.6c-.5-.1-.9-.6-1-1.1v-.1c.1.5.5 1 1 1.1.6.3 1.3 0 1.9-.4l1-1c1.2-.9 2.8-.9 4-1.8.5-.4 1-1.2 1.5-1.7 1.4-1.5 3.5-2 5.4-2.5.7-.1 1.4-.3 1.8-.9.3-.4.5-1 .5-1.5v-.4.5c0 .5-.2 1-.5 1.5-.5.5-1.1.7-1.8.9-2 .5-4 1-5.4 2.5l-1.6 1.7c-1.2.9-2.7.9-3.9 1.8l-1 1a2 2 0 01-1.9.4zm-1.4-2.6v-.1.1zm-1.1-2l.1-.3-.2.4v-.2zm-.2.7l.4.5c.2.2.5.3.7.3h.2v.3h-.1c-.3 0-.6 0-.8-.2a1 1 0 01-.3-.7v-.2zm.8-2.5h-.7a1 1 0 00-.5.2c.5-.5 1.5-.2 1.5-.2l-.2.3-.1-.3z"/><path fill="#FFF" fill-rule="nonzero" d="M263.9 271.4c-.2-.2-.3-.3-.3-.5.1-.5.5-1 1-1.2.7-.2 1.5 0 2.4.2 2.2.2 4.2-1.3 5.7-3 1-1 1.8-2 2.4-3.3.7-1.5 1.1-3 1.5-4.7 1.1-4.7 2-9.5 2.8-14.2v-.6l1-6.6-.1-.5a5 5 0 01-.1-1l.3-1.8a560 560 0 013.8-16.6l1.5.6c2.8 1 5.7 1.7 8.6 2.4l-3.3 7.3-.2.3c-1.4 3.3-2.8 6.7-4 10.1l-.1.2v.4c.5 0 .8.4 1 .8v.1l.1.2.2.7.1 1.4c0 2-.5 3.8-1.1 5.6a168 168 0 01-5.3 14v.5c0 .4.3.7.5 1 0 .3.2.5.3.8.4 1 .8 2.1.8 3.2v.4c0 .5-.2 1-.5 1.5a4 4 0 01-1.8 1c-2 .4-4 1-5.4 2.4-.6.6-1 1.3-1.6 1.7-1.2 1-2.7 1-3.9 1.8l-1 1c-.6.4-1.3.7-2 .4-.4-.1-.8-.6-.9-1.1v-.1l.1-.2v-.2c.2-.6.8-.9 1.4-1.1l1-.5-.5-.9a2 2 0 00-2 .5c-.3.3-.5.7-.5 1.1v-.4h-.2a1 1 0 01-.7-.3c-.2-.1-.3-.3-.4-.6l.1-.2v-.3c.3-.5.7-.9 1-1v-.1l-.2-.6.2-.3s-1-.3-1.5.3h-.2z"/><path fill="#FFF" fill-rule="nonzero" d="M263.8 272.7v-.8c0-.2.1-.4.3-.5l.5-.2h.7l.1.3-.6 1.3-.1.2v.1c-.6 0-.8-.3-.9-.4z"/><path fill="#C99E62" fill-rule="nonzero" d="M253.2 193.8l4.3-4.8h-.3l.3-.3c-2 .4-3.2 2.4-5 3.3-.3.2-.6.3-1 .2-.1 0-.4-.2-.4-.4l.2-.4c1.5-1.6 3.5-2.5 5-3.9.2-.1.3-.4.2-.5v-.3l-5.6 3.3c-.3.2-.9.4-1.1 0v-.1l.3-.6c1.6-1.6 3.8-2.2 5.6-3.5l.6-.5v-.2c0-.3-.3-.2-.5-.2l-1 .3-2.7.8-.6.1c-.2 0-.4 0-.5-.2-.1-.2 0-.6.1-.8l.7-.4.2-.2a24.4 24.4 0 012.4-.8l.9-.3 1.2-.3 2.6-.7 1.4-.2.6-.1h.4l.1-.1a58.6 58.6 0 019.5-9.5c.3 0 .5.2.7.4 2.2 2.2 3 5.6 3 8.8a57.9 57.9 0 00-10.7 4.3c.2.3-1.1 1.5-2.1 2.7-.8 1.1-1.5 2.4-1.8 3.7l-.4 1c-.3.2-.8.3-1 0v-.3c0-1.6.5-3 1.3-4.3l-.3.2.3-.4c-2.2 1.8-3.7 4.6-6.3 5.5-.3.1-.8.1-.9-.1.2 0 .2-.2.3-.2z"/><path fill="#DFE3E5" fill-rule="nonzero" d="M181.1 310l.7-.5c1-.5 1.8-1.2 2.5-2l.1-.1.2-.2c.6-.7 1.1-1.7.9-2.6-.2-.8-1-1.4-1.8-1.5a4 4 0 00-2.7.6c-.8.5-1.4 1.2-2 2l-.4.2a23 23 0 00-2.5-3.1l.2-.1c5-4.2 12.2-7.7 18.3-6.3 3 .7 5 2.7 8 2.7a18 18 0 007.9-2.6l13-6.5a650.2 650.2 0 0140.2-18l.1.7c.2.2.5.4.8.4v.8c0 .3.1.5.3.7.2.2.5.3.8.3v.2l.2.4.4.4v.5c0 .5.4 1 1 1.2a2 2 0 001.8-.4l1.1-1c1.2-1 2.7-1 3.9-1.8l1.6-1.7c1.4-1.5 3.5-2 5.4-2.5.7-.2 1.3-.4 1.8-1 .3-.3.4-.9.5-1.4v-.7c0-1.2-.3-2.3-.7-3.4 9.4-4.2 18.6-6.9 28.2-10.5h.2a25 25 0 01-.6 3.8c-.1.7-.4 1.4-.3 2.1v.3c0 .7.3 1.5 1 1.9.5.3 1.3.2 2-.1l2-1c1-.2 2.2 0 3.4.2a9 9 0 005.5-1.2l1.4-.8 1-.3a2 2 0 001-1.9v-.6a1.9 1.9 0 00-2-1.4h-.2c-.2-.2-.5-.3-.9-.3-.2 0-.5 0-.7.2l-.5-.3h-.6l-.2.1.2.2-.5.2c-.3.2-.6.5-.8.9v.2c-1.2-.4-2.3-1-3.4-1.5l-2-1-1.1-.7.1-.8.4.1 16.5-5.5 3.6-1c3.9-1 15.4-2.2 15.3 5.6 0 1-.2 2.1-.6 3.4 0 0-3.6 6.2-17.5 11-4.4 1.5-16.6 5.3-31.3 9.9L224 298.5a24.7 24.7 0 00-24.9 23.8l.3 3c-2.4 2.1-5 4-7.7 5.5-1-1.6-2-3.2-2.8-4.8a34 34 0 005-4c.6-.6 1.2-1.6 1-2.5-.3-.8-1-1.3-1.9-1.5a4 4 0 00-2.6.6c-.8.5-3.2 2-3.8 2.8h-.1c-.8-1.4-1.5-2.8-2.1-4.3 2-1 4-2.1 5.5-3.9.3-.3.6-.7.6-1.2 0-.6-.4-1-.8-1.3-.5-.2-1-.3-1.6-.2a7.3 7.3 0 00-5.3 3.2l-1.8-3.6.1-.2z"/><path fill="#BDD1DB" fill-rule="nonzero" d="M106.5 385.8a16 16 0 01-12.3 13.5c-8.6 2-17.2-3-19.1-11.2a15.4 15.4 0 016.7-16.3 17 17 0 015.3-2.4 15.7 15.7 0 0119.4 16.3zM87 387.3a6.8 6.8 0 008.5-4.8 7 7 0 00-4.9-8.6 6.9 6.9 0 00-8.5 4.8 7.1 7.1 0 004.9 8.6zm33.4-42.7c.8-6.2 6.7-10.7 13.3-9.9 6.5.8 11.2 6.6 10.4 12.8a11.7 11.7 0 01-13.2 10 11.7 11.7 0 01-10.5-12.9zm6.3 1.2c.8.6 1.7.9 2.7 1 2 .3 4-.5 5.3-2.2a5.4 5.4 0 00-1.3-7.7 5.8 5.8 0 00-8 1.2 5.4 5.4 0 001.3 7.7zm-37.9-47.6c3.7 0 6.7 3.1 6.7 7 0 3.8-3 6.9-6.7 6.9s-6.6-3-6.6-7c0-3.7 3-6.9 6.6-6.9zm1.5 10.6c.3-.4.3-.9.3-1.4 0-1-.5-2.1-1.4-2.7a2.8 2.8 0 00-4 1.2 3 3 0 001.2 4c1.4 1 3.1.4 3.9-1zm-9.4 4.5c7.7 3 11.3 11.6 8 19a15 15 0 01-12.3 9c-2.5.3-5 0-7.5-1a14.3 14.3 0 01-8.3-18.6c-.8 3.4 1 7 4.4 8.3 1.3.5 2.5.7 3.8.5 2.6-.3 5-1.9 6.1-4.4a7 7 0 00-4-9.5c-3-1.2-6.2-.4-8.3 1.7 4-5.4 11.4-7.6 18-5z"/><path fill="#87AEC6" fill-rule="nonzero" d="M68 340c0 .2.2.2.3.3l-1-.5A7 7 0 0165 338a13 13 0 002.8 2z"/><path fill="#BDD1DB" fill-rule="nonzero" d="M270 57.5a6 6 0 00.6-2.8c0-2-1-4-2.8-5-2.7-1.5-6-.5-7.5 2.3a5.8 5.8 0 002.2 7.7c2.6 1.6 6 .6 7.4-2.2zM375 60c-2.8 0-5.1-2.4-5.1-5.3s2.2-5.2 5-5.2 5 2.3 5 5.2c0 3-2.2 5.3-5 5.3zm1.5-2.1l.3-1.2c0-1-.5-1.8-1.2-2.2a2.4 2.4 0 00-3.3 1 2.6 2.6 0 001 3.4c1 .6 2.6.2 3.2-1z"/><path fill="#FFF" fill-rule="nonzero" d="M380.2 234.3c0 .7-.1 1.5-.4 2.2-.8 1.7-2 3-3.3 4.3-.6.5-1.3 1.2-2 1.6-.9-1.6-1.7-3.1-2.2-4.9l-.2-1.9c0-1 .2-2.1.7-3 .7-1.1 1.8-2 3-2.2 1.2-.2 2.6.2 3.4 1.1.7.8 1 1.8 1 2.8zm12.5 10c0 .7-.2 1.3-.4 1.8a8.6 8.6 0 01-3 3.4c-1.2.9-2.5 1.6-3.8 2.1-1 .5-2.2.9-2.7 1.8-.7-1.3-1-2.7-1-4.2 0-1 0-1.9.4-2.8a8.5 8.5 0 015-5.1c1.5-.6 3.4-.6 4.6.6.6.7.9 1.5.9 2.4zm-82.7-9.9v-.4c-.1-1.3-.6-2.5-1-3.6l-4-8 11.1-.1c.7 3.2 1.2 6.5 1.3 9.8v.4c0 6.6-1.9 13-2.6 19.6l1 .7 2.1 1 3.4 1.5v-.2l.8-.9.5-.1h.9l.2.2.7-.2c.3 0 .6 0 .7.2l.2.2h.2a1.9 1.9 0 012 1.7 2 2 0 01-1 1.7l-1 .3-1.4.8a9.3 9.3 0 01-5.5 1.2c-1.1 0-2.3-.4-3.4-.1-.7.2-1.3.6-2 .9-.6.3-1.4.4-2 0-.7-.3-1-1-1-1.8 0-.7.2-1.3.3-2a19.3 19.3 0 00-.4-11.2c-.6-1.8-1.5-3.6-1.5-5.6v-.4c.2-1.8 1.2-3.5 1.3-5.3v-.3zm-45.5 36.8a1 1 0 00-.6.3v-.1l-.2-.5c0-.5.4-1 1-1.1.7-.3 1.5 0 2.3 0 2.2.3 4.3-1.2 5.8-2.9.9-1 1.7-2 2.3-3.3.7-1.4 1.1-3 1.5-4.7 1.1-4.7 2-9.4 2.9-14.2v-.2l1-7-.2-.5a5 5 0 01-.1-1l.3-1.7a726 726 0 013.8-16.7l1.5.6a69 69 0 008.6 2.4l-3.5 7.8v.3c-1.5 3.3-2.9 6.6-4.2 10h.1v.2c.5 0 .8.5 1 1l.1.2.2.6.1 1.6a18 18 0 01-1.1 5.6c-1.5 4.8-3.4 9.5-5.4 14v.4l.5 1.1.3.7c.5 1.1.9 2.2.9 3.4v.4c-.1.5-.3 1-.6 1.4-.4.6-1.1.8-1.8 1-2 .5-4 1-5.4 2.4-.5.6-1 1.3-1.6 1.8-1.1.9-2.7.9-3.8 1.7l-1.1 1c-.6.5-1.3.7-2 .5-.4-.2-.8-.7-.9-1.2v-.2l.1-.2c.1-.7.8-1 1.4-1.3l1-.5-.5-.9c-.7-.2-1.4 0-2 .5-.3.3-.5.7-.5 1.2v-.2h-.1a1 1 0 01-.7-.3 1 1 0 01-.4-.7v-.7h.1c.2-.5.6-.9 1-1l-.3-1h-.8z"/><path fill="#4F91C3" fill-rule="nonzero" d="M330.7 292.8a6 6 0 013.3.7c1 .5 2 1.2 2.7 2.1a10.3 10.3 0 012 6.5 13.5 13.5 0 01-2.3 6.6 21 21 0 01-4.5 4.9c1.5-1.7 2.8-3.5 3.9-5.3l1.2-3c.3-1 .5-2 .6-3.2.1-2-.3-4.3-1.6-6a8.2 8.2 0 00-3.7-3l-1.6-.3z"/><path fill="#4F91C3" fill-rule="nonzero" d="M337.6 304.5h.1l1-.3h.9a5.2 5.2 0 012.6 1.4l.7.8c.3.6.6 1.2.7 1.9l.2 2a9.9 9.9 0 01-2.2 5.3c.4-1.2.8-2.4 1-3.6a8 8 0 00.2-1.8v-.8l-.1-.9a5.3 5.3 0 00-1.7-3c-.9-.7-2-1.1-3.3-1zm-8-23.3a9.6 9.6 0 013.6-4.3 34 34 0 015-2.8l2.5-1.2 1.3-.7 1.2-.7 1.2-.8 1-.8 1.2-.8 1.1-1a33.3 33.3 0 009.4-13.5l.3-.7.1-.7.4-1.3.4-2.8a31 31 0 011-4.3l.8-1.3c.7-.8 1.6-1.4 2.6-1.6l1.6-.2 1.5.2c.5.2 1 .3 1.4.6l1.3.8a15 15 0 012 2.3c1 1.6 1.6 3.5 2 5.4a23.7 23.7 0 01-6 21.1 22 22 0 005.2-9.9 22.9 22.9 0 00-.8-13.7c-.3-.8-.7-1.7-1.2-2.4a7 7 0 00-4.2-3.2l-1.3-.2c-.4 0-.8 0-1.2.2-.9.2-1.6.6-2.1 1.3a5.3 5.3 0 00-1.2 2.4l-.4 2.7-.5 2.8c0 .5-.2 1-.3 1.4l-.2.7-.2.7a28.1 28.1 0 01-5.8 10 34.3 34.3 0 01-4.1 4l-1.1.8-1.2.8-1.2.8-1.2.8-1.3.7-1.2.6-2.6 1.2c-1.7.8-3.5 1.5-5 2.5s-3 2.4-3.8 4z"/><path fill="#4F91C3" fill-rule="nonzero" d="M372.2 261.3c.8 0 1.6 0 2.3.4a8 8 0 012 1 9.5 9.5 0 013.5 5.9v.6l.1.6v1.1c0 1.6-.3 3-1 4.5a17.7 17.7 0 01-5.4 7.2 44 44 0 01-7.6 4.9c2.4-1.8 5-3.5 7-5.4 2.2-2 4-4.3 5.1-7 .6-1.4 1-2.8 1-4.2v-1.6l-.1-.5-.1-.5-.1-.5-.2-.5-.2-.5a9.4 9.4 0 00-2.4-3.6 7 7 0 00-1.8-1.2l-2.1-.6v-.1z"/><path fill="#4F91C3" fill-rule="nonzero" d="M378.4 274.5h.3l.3.1c.8.1 1.5.5 2.2 1 .6.4 1.2 1 1.7 1.6 1 1.3 1.6 3 1.7 4.5v2.5a15 15 0 01-.6 2.4c-.6 1.5-1.5 3-2.4 4.2a25.9 25.9 0 01-7.2 6.3 30 30 0 01-8.7 3.8 41.3 41.3 0 0015-10.7 15.5 15.5 0 003-6.2l.1-.5v-.6l.1-.5v-.6a10 10 0 00-1.4-4.3c-.8-1.3-2-2.3-3.5-2.8h-.2l-.4-.2zm-29.1-9.3c.2.2.3.6.3.8a2.1 2.1 0 01-.7 1.6l-.8.5v-.9l.4-.7.3-.6.5-.7zm-6-5c.7-.2 1.5-.2 2.3 0 .7.1 1.4.5 2 1a5.3 5.3 0 011.7 2.8v1.1a7.8 7.8 0 00-4-4.2l-2-.7zm-66.2 39.4a14 14 0 0113-1.6l1.1.5c1.5.7 2.8 1.6 4.2 2.4a18.6 18.6 0 004.3 2c1.5.3 3 .4 4.5 0a7.2 7.2 0 003.9-2.3c1-1.2 1.7-2.7 1.6-4.3v-.1a6.2 6.2 0 01-1.2 4.7 7.3 7.3 0 01-4 2.8c-.9.3-1.7.4-2.6.4-.8 0-1.7-.1-2.5-.3-1.6-.4-3.2-1.1-4.6-2l-4-2.4a14.5 14.5 0 00-13.6.3zm103.1-65.3a6 6 0 01-.5 2.6c-.3.8-.8 1.5-1.3 2.2l-1.7 2a9 9 0 01-2 1.8l-.3.2-.2-.3c-1-1.5-1.9-3-2.3-4.9a8 8 0 01-.2-2.7c0-1 .3-1.9.8-2.7.5-.8 1.2-1.5 2-1.9a4 4 0 012.8-.2c.9.2 1.7.7 2.2 1.5.5.6.7 1.5.7 2.4zm0 0c0-.9-.2-1.8-.8-2.5a3.3 3.3 0 00-2.2-1.3c-.8 0-1.7.1-2.4.5s-1.3 1.1-1.6 1.8c-.4.7-.6 1.5-.6 2.4 0 .8 0 1.7.2 2.5.4 1.6 1.2 3.2 2 4.8l-.5-.2 2-1.5 1.9-1.8 1.5-2.1a6 6 0 00.5-2.6zm12.5 10c0 .6 0 1.2-.3 1.8a6 6 0 01-.8 1.6c-.7 1-1.7 1.7-2.6 2.4-1 .7-2 1.4-3.1 1.9l-1.6.8c-.5.3-.9.6-1.1 1l-.4.7-.4-.7-.6-1.4-.4-1.4c-.2-1-.2-2-.1-3a8.5 8.5 0 015-6.7c1-.3 1.9-.6 2.8-.5.5 0 1 0 1.4.2.5.2.9.4 1.2.8.7.7 1 1.6 1 2.5zm0 0a4 4 0 00-1-2.5 4 4 0 00-2.6-.8c-1 0-1.8.3-2.6.8a8.6 8.6 0 00-4.3 7.8l.1 1.3c.2.9.5 1.7.9 2.5h-.8c.4-.6 1-1 1.6-1.3l1.7-.7a19 19 0 003.1-1.5c1-.6 2-1.4 2.7-2.3a5 5 0 001.2-3.3zM112.6 312l.7-2 1-2 1-1.8 1.2-1.7a31.6 31.6 0 0113.1-10.5 38.6 38.6 0 0125-3.3 43 43 0 0122.1 12c2 2.2 3.5 4.6 4.7 7.2l1.8 3.8 1 2 .4.9.4.9 1.9 3.8 2 3.7 1 1.8 1 1.8 1 1.9 1.2 1.7c1.5 2.4 3.2 4.6 5.2 6.6 1 1 2.1 1.8 3.3 2.5a12.7 12.7 0 006 1.9 9 9 0 002-.2 7 7 0 002-.8c.6-.3 1.1-.7 1.6-1.3-.5.6-1 1-1.6 1.4-.6.4-1.3.6-2 .8a9.2 9.2 0 01-4.2 0c-1.4-.2-2.7-.8-4-1.4-1.2-.7-2.3-1.6-3.4-2.6a37 37 0 01-5.4-6.5l-1.2-1.8-1-1.8-1.1-1.8-1.1-1.9-2-3.7-2-3.7-.4-1-.5-1-.9-1.8-1.8-3.8a32.9 32.9 0 00-4.6-7 42.4 42.4 0 00-21.6-11.8 41.7 41.7 0 00-31.7 7.2 31 31 0 00-10.1 13.2zm-23 14.8l2 1 2 .7a6.4 6.4 0 004.3-.5c-.5.6-1.2 1.1-2 1.4-.7.2-1.6.3-2.4.1a6 6 0 01-2.2-1c-.7-.5-1.3-1-1.7-1.7z"/><path fill="#4F91C3" fill-rule="nonzero" d="M204.2 345.5l2.6 1.5 1.4.5 1.4.5a21.6 21.6 0 005.8 1c4 0 7.7-1.3 11-3.4 3.3-2.1 6-5 8-8.4a22.2 22.2 0 003-14 22.2 22.2 0 00-1.8-5.5l-.7-1.3-.4-.6c0-.2-.2-.4-.4-.6l-.4-.6-.4-.6-1-1.1c0-.2-.2-.4-.4-.5l-.5-.6-.5-.4-.6-.5-.3-.2-.2-.2-.6-.4-1.3-.7a14.3 14.3 0 00-17.8 5c-1 1.6-1.8 3.4-2 5.3v.1l-.6 3c0 1 0 2 .3 3.1a9 9 0 003.3 5 7 7 0 002.8 1.3c1 .2 2.1 0 3-.4 1-.5 1.6-1.4 2-2.3.5-1 .7-2 .8-3 0 1-.2 2-.6 3l-.2.4-.2.3a4.7 4.7 0 01-.7 1l-.3.3-.3.2-.3.2a5 5 0 01-3.2.5c-1-.1-2-.5-3-1.2a9.3 9.3 0 01-3.6-5.2 12 12 0 010-6.4 15.5 15.5 0 014-8 15.3 15.3 0 0117-3l1.4.7.6.4.4.3.3.2.6.5.6.5.5.5.5.6 1 1.2.4.6.4.6.4.7.4.6.7 1.3a17.6 17.6 0 011.8 5.8l.2 3c0 4.1-1.3 8.1-3.3 11.6-2 3.4-5 6.4-8.4 8.5a21 21 0 01-14.4 2.9c-1-.2-2-.4-2.9-.8-1.9-.7-3.6-1.7-5.3-2.8z"/><path fill="#4F91C3" fill-rule="nonzero" d="M215.8 341.7a14 14 0 01-7.4-2.3l-.4-.3-.4-.2-.8-.6-1.5-1.3-1.4-1.4-.6-.7-.6-.8-.5-.8-.5-.9-.3-.4-.2-.4-.5-.9-.7-1.8-.4-1-.2-.9-.2-1-.2-1-.2-2v-1.9c0-.6 0-1.3.2-2 .3-2.5 1.2-5.1 2.4-7.4a25.6 25.6 0 0118.6-13.4 30.4 30.4 0 0115.6 1.5 36.4 36.4 0 0113.2 8.3 23.9 23.9 0 015.8 10.2 17.6 17.6 0 01-3.1 14.9c-.9 1-1.9 1.8-3 2.5a13.6 13.6 0 004.8-6c.5-1.1.9-2.4 1-3.6.3-1.3.4-2.6.3-3.9 0-2.5-.8-5-1.9-7.3a24 24 0 00-4.4-6.2 34 34 0 00-28.1-9.4 24.9 24.9 0 00-18 12.8l-.9 1.8-.7 1.7-.3 1-.2.9-.3 1v.4l-.1.5-.2 1.8-.1 1v1c0 .6 0 1.2.2 1.8l.1 1 .2 1 .2.8.3 1 .7 1.7.4.9.2.4.3.4.4.9.6.8.5.8.6.7 1.3 1.5 1.4 1.3.8.6.4.2.4.3c1.1.7 2.3 1.3 3.5 1.7 1.4.3 2.6.6 4 .7z"/><path fill="#4F91C3" fill-rule="nonzero" d="M251.5 312a8.1 8.1 0 017.7-2c1 .3 1.8.7 2.6 1.2a19 19 0 018 19.6 16 16 0 01-5.5 9.4c2.6-2.6 4.2-6 4.8-9.5a19 19 0 00-3.9-15.1c-1-1.4-2.3-2.7-3.8-3.7a7.9 7.9 0 00-5-1.6c-1.7 0-3.5.7-5 1.7z"/><path fill="#4F91C3" fill-rule="nonzero" d="M268.9 322a10.5 10.5 0 0112.5 5.8 27.9 27.9 0 011.6 9.8 16 16 0 01-2.9 9.3c-1 1.3-2.2 2.5-3.7 3.2a10 10 0 003.3-3.5 17.8 17.8 0 002.4-9.1 29.6 29.6 0 00-1.6-9.4 9.4 9.4 0 00-2.7-3.7 11 11 0 00-9-2.4zm-32.1-21c1.5-3.5 4.2-6.4 7.6-8.4 3.3-2 7.2-3 11-3l1.5.1 1.4.1 1.5.3a30.3 30.3 0 017 2.1 42 42 0 019.7 6 76.2 76.2 0 0111.8 12.5 46.6 46.6 0 006 6l.6.3.6.3 1.3.6c1.7.6 3.6.8 5.5.7 3.7-.2 7.4-2 9.8-5a12.9 12.9 0 01-4.3 3.8l-.3.2-.3.1-.7.3-1.4.5c-.9.3-1.8.5-2.8.6l-.7.1h-2.2l-.7-.2-.7-.1-.7-.2-.7-.2c-.5-.2-1-.3-1.4-.6l-.6-.3-.6-.4c-.8-.5-1.6-1-2.3-1.7-1.5-1.3-2.7-2.7-4-4.2L284 307a77.4 77.4 0 00-8.1-8c-3-2.3-6-4.4-9.5-6a28 28 0 00-10.9-2.5 21 21 0 00-18.7 10.5zM97.9 328a12.6 12.6 0 012.6-13 11.4 11.4 0 018.4-3.7 11.5 11.5 0 018.6 3.8 12.9 12.9 0 012.2 13.5 12.5 12.5 0 01-6.7 6.5 11.3 11.3 0 01-9-.4 12 12 0 01-6.1-6.7zm0 0a12 12 0 006 6.6 11.1 11.1 0 0015-6.4 11.7 11.7 0 00-2.2-12.5 11.3 11.3 0 00-7.8-3.8 11.4 11.4 0 00-10.8 7 12.3 12.3 0 00-.2 9zm-13.1 21c0-3 1.2-6.1 3.2-8.4a11.5 11.5 0 0112.9-2.9 12 12 0 016.4 6.7c.6 1.4 1 3 1 4.6a12.6 12.6 0 01-3.5 8.6 12 12 0 01-4 2.7 11.2 11.2 0 01-9-.2c-1.4-.6-2.7-1.6-3.8-2.7-2-2.2-3.2-5.3-3.2-8.4zm0 0c0 1.5.3 3 .9 4.5a11 11 0 002.4 3.8 11 11 0 0016-.3 12 12 0 000-16.1 11 11 0 00-12.3-2.8 11.7 11.7 0 00-6.1 6.4c-.6 1.4-.8 3-.9 4.5zm-22.6-29.5A15 15 0 0171 312a14.1 14.1 0 0111.4 1.3 16.1 16.1 0 014.4 4l1.6 2.5c.4.9.8 1.8 1 2.8.6 1.9.8 4 .6 6a16.3 16.3 0 01-5.6 10.3 14.2 14.2 0 01-16.8 1.1 15 15 0 01-6.7-9.3c-1-3.8-.5-7.9 1.3-11.3zm0 0a15.2 15.2 0 00-1.2 11.3c1 3.8 3.5 7 6.8 9a14 14 0 0019.5-5.9 15.5 15.5 0 00-2.9-18.3 14.3 14.3 0 00-13.4-3.4 14 14 0 00-8.8 7.3z"/><ellipse cx="88.8" cy="305.2" fill="#BDD1DB" fill-rule="nonzero" rx="6.6" ry="6.9"/><path fill="#4F91C3" fill-rule="nonzero" d="M44.9 361.3a11.5 11.5 0 016.3-10.1 10.5 10.5 0 018.3-.2 10.6 10.6 0 015.9 6 11.8 11.8 0 010 8.6 10.8 10.8 0 01-10.1 6.8 10.1 10.1 0 01-7.5-3.4c-1.9-2-3-4.9-3-7.7zm0 0a10.9 10.9 0 003 7.6 10 10 0 0011.3 2.1c1.2-.5 2.3-1.4 3.2-2.3a11 11 0 000-14.6 9.5 9.5 0 00-7.1-3.3 10 10 0 00-7.4 3 11.2 11.2 0 00-3 7.5zm285.8-68.7a6 6 0 013.3.6c1 .5 2 1.3 2.7 2.2a10.3 10.3 0 011.7 8.3l-.2.8-.3.9-1.5 3c-1.2 2-2.8 3.6-4.5 5 1.4-1.7 2.8-3.4 3.8-5.3 1-2 1.7-4 1.8-6.2.2-2-.3-4.3-1.5-6a8.2 8.2 0 00-3.8-2.9 5 5 0 00-1.5-.4z"/><path fill="#4F91C3" fill-rule="nonzero" d="M337.6 304.3h.2c.3-.2.6-.2 1-.3h.9c.6.1 1.3.4 1.9.8a5.3 5.3 0 012 3.3 8 8 0 01-.1 3.9c-.4 1.2-1 2.3-1.9 3.4.5-1.2.9-2.4 1-3.6.3-1.1.3-2.3 0-3.4a5.6 5.6 0 00-1.6-3 4 4 0 00-3.2-1h-.2zm-8-23.3a9.6 9.6 0 013.6-4.3 34 34 0 015-2.8l2.5-1.2a29.5 29.5 0 007-4.7 33.3 33.3 0 009.4-13.6l.4-1.4.4-1.3.4-2.8a31 31 0 011-4.3l.8-1.3c.7-.8 1.6-1.4 2.6-1.6.5-.2 1-.2 1.6-.2.5 0 1 0 1.5.2.5.1 1 .3 1.4.6l1.3.8 2 2.2c1 1.7 1.6 3.6 2 5.4a23.7 23.7 0 01-6 21.2 22 22 0 005.2-9.9c.9-3.6 1-7.5 0-11-.4-1.9-1-3.6-2-5.2a7 7 0 00-4.2-3.2l-1.3-.1-1.2.1c-.9.2-1.6.7-2.1 1.3a5.3 5.3 0 00-1.2 2.4l-.4 2.8-.5 2.8-.3 1.4-.4 1.4a30.4 30.4 0 01-14.6 17.1c-.8.5-1.7 1-2.5 1.3l-2.6 1.2c-1.8.8-3.5 1.5-5 2.6-1.5 1-3 2.4-3.8 4z"/><path fill="#4F91C3" fill-rule="nonzero" d="M372.2 261h.1c.8 0 1.5.2 2.2.4a8 8 0 012 1.1 9.9 9.9 0 013.5 5.9v.5l.1.6v1.2c0 1.6-.4 3-1 4.5a17.7 17.7 0 01-5.4 7.2c-2.3 2-5 3.4-7.5 4.8 2.4-1.7 4.8-3.4 7-5.4 2.2-2 4-4.3 5-7 .6-1.3 1-2.7 1-4.1v-2.1l-.2-.6v-.5l-.2-.5-.2-.5a9.4 9.4 0 00-2.4-3.5c-.5-.5-1.2-1-1.8-1.3l-2.1-.6z"/><path fill="#4F91C3" fill-rule="nonzero" d="M365.6 300.7a40 40 0 0015.1-10.7 15.8 15.8 0 003-6c.1-.8.2-1.6.1-2.3a8.5 8.5 0 00-1.3-4.3c-.8-1.3-2-2.4-3.5-3h-.6.6c.8.1 1.6.5 2.2 1 .7.4 1.3 1 1.7 1.6a9.5 9.5 0 011.6 7 13.6 13.6 0 01-1.7 4.6 21.4 21.4 0 01-4.7 5.4 30 30 0 01-3.8 2.8 28.4 28.4 0 01-8.7 3.9zM343.3 260a5.4 5.4 0 015.4 2.2l.8 1.4c.2.5.3 1.1.2 1.7 0 .5-.3 1-.6 1.4l-1 1.2c.4-1 .8-1.9.8-2.7 0-.4 0-.8-.3-1.2l-.6-1.2a7 7 0 00-2-1.8 8 8 0 00-2.7-1zm-55.5-20.4a8 8 0 018.8-.2 8 8 0 013.2 3.4 9 9 0 011 4.6 12 12 0 01-1.1 4.6 14 14 0 01-2.7 3.7 24.7 24.7 0 01-7.7 5c2.6-1.6 5.1-3.3 7.1-5.5a16.3 16.3 0 002.4-3.6 11 11 0 001-4.2c0-1.4-.2-2.8-.9-4.1a8.2 8.2 0 00-11.1-3.6zm3-11.5h.2c1.5-1.2 3.4-2 5.3-2.2a12.5 12.5 0 0113.7 8.5l.2.5-.3-.5a16 16 0 00-5.6-5.9l-2.5-1.1a14.3 14.3 0 00-10.7.7h-.3zm26.6 2.6c.6-.5 1.4-.7 2.2-.7.8 0 1.6.2 2.3.7.7.4 1.3 1 1.8 1.7.4.7.7 1.5.8 2.2l.2 1.2v1.2c-.1.8-.3 1.6-.6 2.3a8.1 8.1 0 01-2.8 3.7c1-1.2 1.6-2.5 2-3.9.3-.7.4-1.4.4-2.1v-2.1c-.2-.7-.4-1.4-.8-2-.3-.6-.7-1.1-1.3-1.5a4 4 0 00-4.2-.7z"/><path fill="#4F91C3" fill-rule="nonzero" d="M324.2 236c.6-.5 1.3-.8 2-1a7 7 0 012.2 0 5 5 0 012.5 1.1l.3.2.2.3.6.9a8.3 8.3 0 011.2 4.2c0 1.4-.5 3-1.4 4a8 8 0 00.6-4 9.4 9.4 0 00-1.8-4.6l-.1-.1-.2-.2-.4-.3c-.5-.4-1-.6-1.7-.8a7.2 7.2 0 00-4 .2zm-43.4-4.1c-1 .9-2 1.8-2.8 2.8a9 9 0 00-1.7 3.5c-.3 1.2-.3 2.6.2 3.7.3.6.6 1 1.1 1.4.6.4 1.2.6 1.9.8a4 4 0 01-3-1l-.7-.8a6 6 0 01-.5-4.3 8 8 0 012-3.8c1-1 2.3-1.8 3.5-2.3zm20.5 42.8a13 13 0 00-4.1 10.5 12 12 0 005.8 9.2c3.3 1.9 7.6 1.7 10.8-.5a9 9 0 003.4-4.4 7 7 0 00-.2-5.7 6 6 0 011 2.8v1.5l-.4 1.5a9.8 9.8 0 01-9.1 7c-2.1.2-4.2-.3-6-1.3-3.6-2-6-6-6.2-10-.2-4 1.7-8.1 4.9-10.5z"/><path fill="#4F91C3" fill-rule="nonzero" d="M277.1 299.4a14 14 0 0111.8-2l1.2.3 1.1.5 4.2 2.5a18.6 18.6 0 004.3 2c1.5.3 3 .4 4.5 0a7.2 7.2 0 003.9-2.3c1-1.2 1.7-2.8 1.6-4.4v-.1.1c.3 1.6-.2 3.3-1.2 4.7a7.3 7.3 0 01-4 2.8c-.9.2-1.7.4-2.6.3-.8 0-1.7 0-2.5-.3-1.6-.3-3.2-1-4.6-2l-4-2.4a15.2 15.2 0 00-13.6.3zm103.1-65.1c0 .8-.2 1.7-.5 2.5a24.3 24.3 0 01-5 6l-.3.1-.2-.3c-1-1.5-1.9-3.1-2.3-5a8 8 0 01-.2-2.8 5.2 5.2 0 013-4.5 4 4 0 012.8-.2c.9.3 1.6.9 2.1 1.6.5.8.7 1.7.6 2.6zm0 0c0-.9-.2-1.8-.7-2.6a3.3 3.3 0 00-2.1-1.4c-.9-.2-1.7 0-2.5.4a4.7 4.7 0 00-2.3 4.2 7 7 0 00.2 2.5c.4 1.6 1.2 3.2 2 4.8l-.5-.1 2-1.5 1.8-1.8c.6-.6 1.1-1.3 1.5-2a6 6 0 00.6-2.5zm12.5 10a5.2 5.2 0 01-1.2 3.3 10 10 0 01-2.6 2.4l-3 1.8-1.5.7c-.5.3-1 .7-1.2 1l-.3.7-.4-.7c-.5-.8-.9-1.7-1-2.7a9 9 0 01-.1-3 8.4 8.4 0 015.1-6.7 6 6 0 012.8-.5c.5 0 1 .1 1.4.3.5.2.9.5 1.2.8.6.7.8 1.7.8 2.6zm0 0c0-1-.3-1.9-1-2.6-.6-.6-1.5-1-2.4-1a5 5 0 00-2.7.8 8.5 8.5 0 00-4.4 6.4v1.4l.1 1.3c.2.9.5 1.7.9 2.5h-.8c.4-.6 1-1 1.5-1.2l1.7-.7c1-.4 2.1-.9 3.1-1.5s2-1.3 2.7-2.2l1-1.4.3-1.8zm-61.9 46.2v3.3a23.4 23.4 0 01-1.5 6.6c-.3 1-.8 2-1.3 3-1 2-2.3 4-3.8 5.6a15 15 0 01-2.6 2.2c-1 .6-2 1.1-3 1.4a17 17 0 005-4.1 24.4 24.4 0 003.5-5.5 34.7 34.7 0 003.3-9.2l.1-.8.1-.9.2-1.6z"/><path fill="#4F91C3" fill-rule="nonzero" d="M314.9 270.6c2.2 0 4.5.7 6.5 1.8 2 1 3.9 2.6 5.3 4.4l.6.6.5.7 1 1.5 1.4 3.1c.7 2.3 1.1 4.6 1.1 6.9a28.1 28.1 0 01-7.1 19 13.7 13.7 0 01-5.6 3.7 10.8 10.8 0 002.8-1.7c1-.7 1.7-1.6 2.4-2.4a33.1 33.1 0 006.4-16.1v-.9l.1-.8v-.9a22.4 22.4 0 00-2.4-9.6l-.8-1.4-.5-.7-.4-.7a20 20 0 00-5-4.4c-2-1.1-4-1.8-6.3-2z"/><path fill="#4F91C3" fill-rule="nonzero" d="M314.9 270.9h1.7l.9.1.8.2.9.2.8.3.8.4.8.4.8.4.7.5 1.4 1 .7.7.6.6 1.1 1.3.6.7.4.8a14.3 14.3 0 011.3 2.3l.4.8.5 1.7c.7 2.2 1 4.6.7 6.9a22.9 22.9 0 00-4.7-12.6l-1-1.2-.6-.6-.7-.6c-.4-.4-.8-.8-1.3-1l-.6-.6-.8-.4-.7-.4-.7-.4-1.6-.7-.8-.3-.8-.2-.4-.1h-.5l-.7-.2zm-24.1-42.5l.2-.1c1.5-1.2 3.4-1.9 5.3-2.2a12.5 12.5 0 0113.7 8.5l.2.5-.3-.4a16.6 16.6 0 00-5.6-6c-.8-.4-1.6-.8-2.5-1a14.3 14.3 0 00-10.8.6h-.2zm26.6 2.5c.6-.5 1.4-.7 2.2-.7.8 0 1.6.2 2.3.7.7.4 1.3 1 1.7 1.7a7 7 0 011 4.6 9 9 0 01-.6 2.3 8.1 8.1 0 01-2.7 3.7 10 10 0 002-4l.3-1V235a5.9 5.9 0 00-2.1-3.5 4.4 4.4 0 00-4.1-.6z"/><path fill="#4F91C3" fill-rule="nonzero" d="M324.2 236.1c.6-.4 1.3-.6 2-.8a7 7 0 012.2 0 5 5 0 012.5 1l.3.3.2.2.6.9a8.3 8.3 0 011.2 4.2 6 6 0 01-1.4 4c.6-1.3.7-2.6.6-4a9.4 9.4 0 00-1.8-4.5l-.1-.2-.2-.2-.4-.2c-.5-.4-1-.7-1.7-.8a7.2 7.2 0 00-4 .1zm-43.4-4c-1 1-2 1.8-2.8 2.9-.9 1-1.4 2.1-1.7 3.4-.2.6-.3 1.3-.2 1.9 0 .6.1 1.3.4 1.8.2.6.6 1.1 1.1 1.5a5 5 0 001.8.8 4 4 0 01-2-.4l-1-.6-.7-1a6 6 0 01-.4-4.2 8 8 0 012-3.7c1-1 2.3-1.8 3.5-2.4zm20.5 42.9a12 12 0 00-3.8 6.5c-.6 2.4-.4 5 .5 7.3s2.5 4.3 4.6 5.6a10 10 0 003.4 1.3c1.2.3 2.4.3 3.7 0l-.3.2.3-.1a11 11 0 003.6-1.3 9.7 9.7 0 002.9-2.8 9 9 0 001.4-3.7 7 7 0 00-.5-4 7 7 0 01.9 4 9.4 9.4 0 01-4.2 7.1 11 11 0 01-4 1.6l.2-.2-.3.2a11 11 0 01-7.7-1.5c-2.3-1.4-4-3.6-5-6.1l-.5-2a13.2 13.2 0 01.4-5.8c.7-2.5 2.2-4.8 4.3-6.3z"/><path fill="#000" fill-rule="nonzero" d="M310.2 135l.6.4.5.5a13.6 13.6 0 012.6 2.8l.5.8.5 1v1l-.8.6h-.1l-.8.4-.7.2.7-.3.7-.4c.3-.2.6-.4.7-.7a1 1 0 000-.8c0-.3-.3-.5-.5-.8l-.5-.8-2.4-3-.5-.4-.5-.5z"/><path fill="#000" fill-rule="nonzero" d="M314 141.8l.5 2.7v.5l-.3.1-.6.2-1 .1h-1a2 2 0 01-1-.6c.3.2.7.3 1 .3h1c.3 0 .6 0 1-.2h.4l.1-.2v-2.1c0-.3-.1-.5 0-.8z"/><path fill="#000" fill-rule="nonzero" d="M313.7 145.1c.4.3.5.9.3 1.4 0 .2-.3.4-.5.5l-.2.2v.3c-.1 1-.3 1.9-.7 2.8a2 2 0 01-.4.7c-.2.2-.5.2-.7.3h-1.4l-2.9-.1h2.2l.7-.1 1.4-.1.5-.2.4-.6c.3-.9.5-1.7.6-2.7l.2-.4.3-.2.5-.5c0-.4 0-1-.3-1.3zm-4.3 6.2c.2 0 .2.1.2.2l-.2.2-.1-.2.1-.2zm-2-10c0-.4 0-.8.2-1.1.2-.4.5-.7.9-.9.4-.2.8-.1 1.2 0 .3.2.6.5.7 1a1.4 1.4 0 00-1.8-.7l-.7.7-.5 1zm0 .3l-.1-.1.1-.2c.2 0 .2 0 .2.2l-.2.1zm-1.8-1.8a2.4 2.4 0 011.4-3 2 2 0 011.3 0 2.6 2.6 0 00-2.5 2c-.2.2-.2.6-.2 1zm22 116.3a2 2 0 00-.7-1.1c-.3-.3-.8-.5-1.2-.5a2 2 0 00-1.2.5c-.3.3-.5.7-.6 1.2 0-.5.1-1 .4-1.4l.6-.4.8-.2c.5 0 1 .2 1.3.6.2.1.4.3.4.6l.1.3v.4zM266.1 272a2 2 0 00-1.4 1.3v.3l.1.4.8.5c-.3 0-.7 0-1-.3a1 1 0 01-.2-.6v-.6a1.7 1.7 0 011.7-1z"/><path fill="#000" fill-rule="nonzero" d="M305 222.4l2.8 5.7 1.4 3c.4.9.8 2 .8 3 .1 2-1 3.8-1.2 5.7 0 1 0 1.9.3 2.8.2 1 .6 1.8.9 2.7 1.3 3.7 1.6 7.8.7 11.6-.2 1-.5 1.9-.4 2.8 0 .4.2.9.6 1.2.3.3.7.4 1.2.4 1-.1 1.7-.8 2.6-1 .5-.3 1-.3 1.5-.3s1 0 1.5.2a9.3 9.3 0 006.9-1.4l.6-.3.7-.3c.2 0 .5 0 .7-.2l.5-.5c.3-.4.5-.8.5-1.3 0 .5-.2 1-.5 1.4a2 2 0 01-1.2.7c-1 .2-1.7 1-2.6 1.3a9.5 9.5 0 01-5.7.8c-1-.1-1.9-.3-2.8 0l-1.2.7c-.5.3-1 .5-1.5.5s-1-.1-1.4-.5c-.4-.4-.6-.9-.7-1.4 0-1 .2-2 .4-2.9a21 21 0 00-.7-11.4l-1-2.7c-.2-1-.3-2-.2-3 .1-.9.5-1.8.8-2.8a10.8 10.8 0 00.5-2v-.7c0-1-.4-2.1-.8-3.1l-1.3-3-2.8-5.7z"/><path fill="#000" fill-rule="nonzero" d="M322.6 255.3c0-.3.2-.6.4-.8l.7-.5h1c.3 0 .6.2.6.5a1 1 0 00-.7-.3 2.8 2.8 0 00-2 1z"/><path fill="#000" fill-rule="nonzero" d="M321.3 255l.3-.6.7-.5h1.1l.3.3v.2-.1c-.2-.2-.5-.2-.7-.2h-.3l-.3.1a2 2 0 00-.6.4 4 4 0 00-.5.5zm-6.7-2.9l.2.2.9.5 1 .5 2 1 2 .8 2 .8-2.1-.5a16 16 0 01-2-.9l-2-1-1-.5c-.3-.2-.7-.4-.9-.7v-.2z"/><path fill="#000" fill-rule="nonzero" d="M317.4 232.5v2.9c0 1-.2 1.9-.3 2.9l-.8 5.6-1 5.6a84.9 84.9 0 00-.8 5.7l.2-2.9.3-2.8 1-5.7a106.8 106.8 0 001.4-11.3zm-1.3-10.3l.3 1.2.3 1.2a32.1 32.1 0 01.7 5v2.4l-.1-1.2-.1-1.3a62.7 62.7 0 00-1.1-7.3zm-31.7-5.3l-.6 3-.7 3-1.3 6-1.4 6v1.5c0 .5.2 1 .4 1.4a7 7 0 002.2 2 8.1 8.1 0 01-2.3-2l-.4-.7-.1-.4-.1-.4v-1.5l.3-1.6.4-1.5.6-3 1.4-6 1.6-5.8z"/><path fill="#000" fill-rule="nonzero" d="M280.5 237.4l-1.5 10.4-2 10.2c-.5 1.7-.9 3.5-1.6 5a14.3 14.3 0 01-5.3 6c-.8.3-1.6.6-2.5.7-1 0-1.8-.4-2.6-.3a2 2 0 00-.6.2c-.2 0-.4.2-.5.4l-.3.6c0 .2 0 .4.2.6a.8.8 0 01-.2-.6 1.4 1.4 0 01.7-1.1l.7-.2c.9-.1 1.7.3 2.6.2.8 0 1.7-.4 2.4-.8.8-.4 1.4-1 2-1.6 1.3-1.2 2.4-2.6 3-4.2.8-1.5 1.2-3.3 1.6-5a178.9 178.9 0 003-15.4l.9-5.1zM268.3 273c-.4 0-.8 0-1.2.2a2 2 0 00-.9.7c-.2.3-.3.6-.3 1v.6l.4.4h.2-.2a.8.8 0 01-.5-.3 2 2 0 01-.2-.7c0-.4.1-.8.4-1.2.2-.4.6-.6 1-.7.4-.2.9 0 1.3 0z"/><path fill="#000" fill-rule="nonzero" d="M269.3 273.6c-.1.3-.4.5-.7.7l-.8.4-.9.5-.5.7v.2c-.1.5.3 1 .8 1.2.5.2 1 .1 1.5-.2.5-.2.9-.7 1.3-1a5 5 0 011.6-1l1.7-.5.7-.4.6-.6c.4-.4.7-1 1.1-1.3.5-.5 1-.8 1.5-1 1-.6 2.2-1 3.3-1.2l1.6-.5.7-.5.4-.7c.3-1.1.1-2.3-.2-3.4l-.6-1.7c-.2-.5-.5-1-.6-1.6l-.1-.6.1.6.7 1.6.7 1.6a6 6 0 01.2 3.5c0 .3-.2.6-.4.8l-.7.6c-.6.3-1.2.4-1.7.5-1.1.3-2.3.6-3.2 1.2a6 6 0 00-1.4 1l-1.1 1.3-.7.6-.8.5-1.6.6c-.6.1-1.1.4-1.5.7-.4.4-.8.9-1.4 1.2a2 2 0 01-1.7.2c-.6-.3-1-.9-1-1.5l.1-.2c.1-.4.3-.6.6-.8l.9-.5c.3 0 .6-.2.9-.4.2 0 .5-.3.6-.6z"/><path fill="#000" fill-rule="nonzero" d="M294.5 220.4l-2 4.5-2 4.6-3.6 9.1v-.2l.7.4.4.8c.3.5.3 1 .4 1.5.1 1.1 0 2.2-.2 3.3a33 33 0 01-1.8 6c-1.4 4-3 8-4.8 11.9 1.6-4 3.2-7.9 4.6-12a54.4 54.4 0 001.7-6c.2-1 .3-2 .2-3.1l-.3-1.5c-.2-.5-.6-.9-1-1l-.2-.1 3.8-9.2 2-4.5 2.1-4.5zm-12 43.3h.1c2.3-1.2 4.6-2.3 7-3.3l3.4-1.4 3.6-1.3 3.6-1.2 3.5-1.1 7.3-2.2a92.4 92.4 0 01-10.5 4.2l-3.6 1.3-14.2 5h-.2zm32.8-12.1l10.3-3.6 5.1-1.7 5.2-1.6a25 25 0 015.5-.6c1.8 0 3.6.1 5.4.8.9.3 1.7.7 2.4 1.4a5.3 5.3 0 011.8 3v.7a10 10 0 01-.5 4.2L349 256a22.2 22.2 0 01-4.9 4 46.6 46.6 0 01-11.4 5.5l-4 1.3-8 2.6a1000 1000 0 01-15.9 5l-16 4.9-16 4.8-16 4.9-16 4.7-16.1 4.7 31.9-10 16-5 16-5 16-5 15.9-5 8-2.5 4-1.3a44.8 44.8 0 0014.5-7.8 15.2 15.2 0 002.7-3v.1a11.8 11.8 0 00.5-3.9v-.6l-.2-.6a5 5 0 00-1.3-2.2 8 8 0 00-2.2-1.3c-1.7-.5-3.5-.7-5.2-.7-1.8 0-3.6.2-5.4.5l-5.2 1.5-5.2 1.6-10.3 3.4z"/><path fill="#4F91C3" fill-rule="nonzero" d="M287.8 239.8h.1a8 8 0 016.7-1c.7.1 1.5.4 2.1.9a9 9 0 013.2 3.4c.7 1.4 1 3 1 4.6a12 12 0 01-1.2 4.4c-.7 1.4-1.6 2.7-2.7 3.8a24.2 24.2 0 01-7.6 4.9c2.6-1.6 5-3.2 7-5.4a14 14 0 002.5-3.6c.5-1.3 1-2.8 1-4.2 0-1.4-.2-2.9-.8-4.1a8.3 8.3 0 00-11.1-3.7h-.2z"/><path fill="#000" fill-rule="nonzero" d="M176.3 302.7a32.1 32.1 0 0110.3-6l.7-.2.8-.2 1.5-.3h.7l.8-.1h2.2l.8.1 1.5.3c1 .3 1.9.8 2.8 1.2.9.4 1.8.8 2.7 1 .9.2 1.8.2 2.8 0a18 18 0 005.4-2l10.7-5.4a435 435 0 0143.6-19.2h.2-.2l-10.9 5c-3.6 1.5-7.2 3.2-10.8 4.9l-10.8 5a651 651 0 00-10.7 5.3l-10.7 5.3c-1.8.9-3.6 1.8-5.7 2a8 8 0 01-3.1 0c-1-.3-2-.7-2.8-1.2l-2.7-1.2-1.4-.3-.7-.2h-3.6l-1.4.3-.8.2-.7.2a28.9 28.9 0 00-10.4 5.5z"/><path stroke="#000" stroke-linecap="round" stroke-linejoin="round" d="M184.4 307.4c-.7.8-1.6 1.5-2.6 2.1h-.2"/><path fill="#000" fill-rule="nonzero" d="M179 305.6l1.2-1.5a3.9 3.9 0 013.8-1.4 3 3 0 011.8 1.3c.2.4.2.8.2 1.2 0 .4 0 .8-.2 1.1-.4.7-.8 1.2-1.4 1.6-.4.5-1 .8-1.5 1.2l-.9.5c-.3 0-.6.2-.9.4a23.4 23.4 0 003.3-3.3l.5-.8c.2-.5.2-1 0-1.4-.2-.4-.7-.7-1.2-.9-.5-.1-1 0-1.6 0a8.1 8.1 0 00-3.1 2zm7.6 15.7l.8-1 1-.7c.6-.6 1.3-1 2-1.5s1.6-.8 2.6-.7c.5 0 1 .3 1.3.5.4.3.8.7 1 1.2v1.5a5 5 0 01-1.6 2.2l-1 .8-2 1.4-2.2 1.1 1.9-1.6 1.9-1.6.8-.8.8-.8c.4-.6.7-1.3.5-1.9-.2-.5-.8-1-1.5-1-.7-.2-1.4 0-2.1.3l-1 .6-1.1.6-1 .7-1.1.7zm-4-7.6a6.7 6.7 0 015.7-3.8l1.3.1a2 2 0 011.3 1.7l-.1.8a10.1 10.1 0 01-2.6 2.6c-1.3.9-2.7 1.5-4.1 2l3.7-2.6 1.6-1.6.5-.7v-.7l-.6-.5-1-.2a8 8 0 00-5.7 2.8zm9.1 17a37.5 37.5 0 013.7-3l2-1.3c.6-.4 1.3-.9 2-1.2a21 21 0 01-5.4 4.6c-.8.3-1.5.7-2.3.9zM309.4 151c.2.5.2 1 .2 1.5v.7l-.2.8-.1-.8v-1.5l.1-.7zm14.2.6l1.5-.6 1.6-.6a117.3 117.3 0 016.2-2.2l1.6-.5 1.6-.4-3.1 1.2a117.3 117.3 0 01-6.2 2.1l-3.2 1zm.9 6.4l1.6-.7 1.6-.6 3-1.4 3.2-1.3 1.6-.6c.6-.2 1-.5 1.6-.6l-1.5.7-1.5.7-3.2 1.4-3.1 1.3-1.6.5c-.6.3-1.1.5-1.7.6zM273 174.4a99.5 99.5 0 0111.3-9.5l.3-.2-.3.2-2.8 2.4-2.8 2.3-2.8 2.4-2.9 2.4zm1.8 4.6l2.9-1.6 2.9-1.5 3-1.4 1.5-.7 1.4-.7-1.4.9-1.4.8-3 1.5c-1 .4-1.9 1-3 1.4l-3 1.3z"/><path d="M354 150.6c0 .3-.3.6-.7.5-.6-.3-1.3-.9-1.9-1.4l-2-1.5c-1.2-1-2.9-.8-4 .2a92 92 0 01-5 4.3 9 9 0 01-2.3 1.3 27 27 0 01-2.4-6.6v-.2l-.1-.2c0-.4 0-.7.3-1l.8-.4c2.9-1 6-.8 9-1.2.4 0 .7 0 1-.2l1-1a19 19 0 014.5-4c1-.7 1.9-1.2 3-1.4.2 0 .6 0 .6.3v.1s0 .2-.2.2c-1 1.2-2.9 1.5-3.8 2.8 0 .1-.1.3 0 .4 0 .1.2 0 .4 0l3.5-1.1c1-.3 2.7-1 2.8 0v.1c-.2.5-1.8 1.2-2.7 1.5l-2.8 1c-.4.1-.9.4-.8.8 2 .1 4.1-1.4 6.2-1l.4.3v.2l-.3.3c-1.7.8-3.6.9-5.1 1.8h6v.4c0 .2-.3.5-.5.6-2 .8-4 .5-6 .6-.2 0-.4 0-.5.2l-.1.4c0 .2.2.4.3.5l1.5 2v.4z"/><path fill="#FFF" fill-rule="nonzero" d="M265.6 271.2s-2.1-.6-1.8 1.4c0 0 .2.4.8.5"/><path fill="#000" fill-rule="nonzero" d="M265.6 271.2h-.7c-.3 0-.5 0-.6.2-.2.1-.3.3-.3.5v.8l.2.2.4.2a1 1 0 01-.5 0l-.2-.2-.2-.2v-.8c0-.3.2-.5.4-.7.3-.1.5-.2.8-.1h.7z"/><path fill="#367297" fill-rule="nonzero" d="M213.2 191.8c13.6 8 23.7 16 22.7 18v.1c-1.6 1.5-13.2-3.4-26.5-11.3-13.6-8-23.8-16-22.7-18 1-1.9 12.9 3.1 26.5 11.2z"/><path fill="#FFF" fill-rule="nonzero" d="M186.7 180.6c-1 2 9.1 10 22.7 18 13.3 7.9 24.9 12.8 26.4 11.3l-41.7 53.5-4.4 5.6c-6.8 0-12.6-1.4-17.4-3.4l.3-.8a11 11 0 003.6-2.8 8.2 8.2 0 002-7c-.4-1.6-1.3-3-2.2-4.3l-9.2-14c7.2-10.5 10.3-21.1 8.3-30h.4l11-26.2.2.1z"/><path fill="#C6D3D8" fill-rule="nonzero" d="M172.3 265.6a44 44 0 0017.5 3.4l4.3-5.6a39 39 0 0016.3 1c1.8-.2 3.7-.7 5.4-1.4l7.4 4.3h-.5l-4 .7-12.4 2-19.5 3-24.5 3.8-27.6 4.3-29.1 4.5-28.7 4.4-26.4 4.1-22.3 3.5L12 300c-3.2.5-7.4 1.6-10.2-.5-.7-.6-1-1.1-.4-2 .8-1 1.6-1.4 2-2.6l1.3-3a26 26 0 0114.2-12.7c3.7-1.3 7.8-1.8 10.9-4.1 6.6-5 5.3-15.1 8.2-22.8a21.2 21.2 0 0113-12.5c2-.7 4-.7 6-1-5.8 10.6-7.3 21-3.1 29.2 9.4 18.5 43.7 18.6 76.8.4 8.5-4.7 16.1-10.2 22.6-16a66 66 0 005.7 10 8 8 0 002.5 2.5c2.5 1.8 5.8 1.8 8.7.9l2.6-1-.4.7z"/><path fill="#FFF" fill-rule="nonzero" d="M56.8 238.7a101 101 0 0139.7-37.2 121 121 0 0129.1-11.4 89 89 0 019.7-1.6c17.8-2.1 32.4 2.4 38 13.4.8 1.6 1.4 3.2 1.8 4.9 2 8.8-1.1 19.4-8.3 30a88.2 88.2 0 01-13.7 15.5c-6.4 5.8-14 11.3-22.6 16-33 18.3-67.4 18.2-76.8-.3-4.2-8.2-2.7-18.6 3.1-29.3zm62.5 10.3c24.2-13.4 39-33.7 33-45.5-6-11.7-30.5-10.4-54.7 3-24.2 13.4-39 33.7-33 45.5 6 11.7 30.5 10.4 54.7-3z"/><path fill="#FFF" fill-rule="nonzero" d="M152.3 203.5c6 11.8-8.8 32.1-33 45.5-24.2 13.4-48.7 14.7-54.7 3-6-11.8 8.8-32.1 33-45.5 24.3-13.4 48.7-14.7 54.7-3zm-12-112.3v.2a4.8 4.8 0 00-1.2 5.2l-1 3.4-2.2-1c-2.8-1.6-5.8-3.6-6.6-6.9-.1-.4-.2-.9 0-1.4 0-.4.2-.7.4-1 .8-.9 2.4-1.2 3.7-1 2.5.2 4.9 1 7 2.5z"/><path fill="#FFF" fill-rule="nonzero" d="M126.5 99.2c-.4-3.3 1.1-7.1 3.2-9.5a2 2 0 00-.5 1v1.4c.8 3.3 3.8 5.3 6.7 6.8l2.2 1.1-2.2 8.4c-5.4-3.5-9.3-8-9.4-9.2z"/><path fill="#FFF" fill-rule="nonzero" d="M151.5 104.5c.2 1.7-.2 4.4-.8 6-.3.7-.8 1.4-1.4 1.8-.7.5-1.6.5-2.3.4a26 26 0 01-11.1-4.4l2.3-8.3c3.6 1.7 7.4 3 11.3 4l2 .5zm119.3 25.6c.6-.1 1.3-.3 1.7-.8h.2c.3 2.3-.7 4.7-2.6 5.8-2.3 1.3-5.1.7-7.7 1.2l2-6c2.1.2 4.3.2 6.4-.2z"/><path fill="#FFF" fill-rule="nonzero" d="M272.2 126.9c.4.6.8 1.3.5 2 0 .1 0 .3-.2.4-.4.5-1 .7-1.7.8a23 23 0 01-6.4.2l2.4-7.4.4.2c2 .7 3.7 2 5 3.8z"/><path fill="#367297" fill-rule="nonzero" d="M205.5 98.8c34.4 9.8 61.7 20.2 61 23.2l-.5.5c-3.8 2-31-3.4-63.4-12.5-32.8-9.3-59-19.2-60.8-22.8l.2-.9c3.5-2 30.9 3.3 63.5 12.5z"/><path fill="#FFF" fill-rule="nonzero" d="M151.5 104.5c-.6 0-1.3-.2-2-.4v-.1c-2-.5-4-1.3-5.7-2.3a10.6 10.6 0 01-4.5-4.6l-.2-.5 1.4-5.1 1.3-4.2c1.8 3.5 28 13.4 60.8 22.7 32.4 9.2 59.6 14.5 63.4 12.5l.9.3-.1.1-2.4 7.4-2 6-38.7 119.8a13.8 13.8 0 01-8 7c-1.7.6-3.5 1-5.3 1.4-5.4.8-11 .4-16.3-1l41.7-53.6.1-.2c1-1.8-9.1-10-22.7-18s-25.5-13-26.5-11l-.2-.2-11 26.1-.4.1a20 20 0 00-1.7-4.8c-5.6-11-20.2-15.6-38-13.5l-13.8-21c.4-1.7.7-3.7 1-6 2.3-11.5 8.4-35 13.3-53 3.3 2 7.1 3.9 11 4.3.8 0 1.7 0 2.4-.4a4 4 0 001.4-1.9c.6-1.5 1-4.2.8-5.9zm45 58.7c0-3.7-2.8-6.6-6.3-6.6s-6.4 3-6.4 6.6c0 3.6 2.9 6.6 6.4 6.6 3.5 0 6.3-3 6.3-6.6zm-16.4 14.3c0-3.8-3-7-6.6-7-3.7 0-6.6 3.1-6.6 7 0 3.8 3 6.8 6.6 6.8 3.6 0 6.6-3 6.6-6.8zm-1.7-38.2c0-3.1-2.4-5.7-5.5-5.7-3 0-5.5 2.6-5.5 5.7 0 3.2 2.4 5.8 5.5 5.8 3 0 5.5-2.6 5.5-5.8zm-12 26.8c0-2-1.5-3.7-3.5-3.7s-3.5 1.7-3.5 3.7 1.6 3.7 3.5 3.7c2 0 3.6-1.7 3.6-3.7z"/><ellipse cx="190.2" cy="163.2" fill="#87AEC6" fill-rule="nonzero" rx="6.3" ry="6.6"/><ellipse cx="173.5" cy="177.5" fill="#BDD1DB" fill-rule="nonzero" rx="6.6" ry="6.9"/><path fill="#DFE3E5" fill-rule="nonzero" d="M178.2 255c.6 2.5-.3 5.1-2 7a12.3 12.3 0 01-6.1 3.8c-3 .9-6.3 1-8.8-.8a8.4 8.4 0 01-2.5-2.5 66.9 66.9 0 01-5.7-10.1c5.5-5 10.1-10.3 13.7-15.6l9.3 14c.8 1.3 1.7 2.7 2 4.2z"/><ellipse cx="172.9" cy="139.3" fill="#BDD1DB" fill-rule="nonzero" rx="5.5" ry="5.8"/><path fill="#87AEC6" fill-rule="nonzero" d="M162.9 162.4c2 0 3.6 1.6 3.6 3.7 0 2-1.6 3.6-3.6 3.6s-3.5-1.6-3.5-3.6 1.6-3.7 3.5-3.7z"/><path fill="#DFE3E5" fill-rule="nonzero" d="M125.7 190.1l-4.4 1.2-4.3-8-5.5-10.4-.3.2c-3.3 0-8.4-1.5-11.3-3.3a62 62 0 01-27.3-44.7c-.9-6.2-.9-12.7 1.6-18.4 2.5-5.6 8-10.2 14-10 2.2.2 4.4.9 6.4 1.8a39 39 0 0114 12 82 82 0 019.4 16.1 76.3 76.3 0 013.5 40.7v.2l13.8 21c-3 .3-6.3.9-9.6 1.6z"/><path fill="#C4505D" fill-rule="nonzero" d="M57.2 239.2c-3.6-.5-7.2-1.7-10.5-3.3a40.4 40.4 0 01-16.1-14.6 47.3 47.3 0 01-7.2-31.7c.9-7.3 3.3-14.4 7.2-20.7A41 41 0 0142.1 157a35.2 35.2 0 015-2.4 15 15 0 015.5-.7A13 13 0 0162 159a12.8 12.8 0 011.8 10.7 16.6 16.6 0 01-6 9.1l-1.3.8-1.2.7-1.3.4-.7.2-.7.2a23.5 23.5 0 01-10.9-.6 39.6 39.6 0 01-10-5 56.2 56.2 0 01-15.2-15.8c-4-6.2-7-13-9.2-20a86.6 86.6 0 01-3-33l.4-2.7.1-1.3.2-1.4.5-2.7.3-1.4.3-1.3A116.5 116.5 0 0139 39.2a98.8 98.8 0 0117.3-13.7 45.2 45.2 0 0120.9-7.3 36.3 36.3 0 0116.4 2.1l5.2 2c6.8 3 13 7 19.2 11a123 123 0 0019.3 10.5l2.5 1 2.6 1 1.3.4c.5.1 1 .2 1.3.4l2.7.7 1.3.3 1.3.3 2.7.6 2.7.4.7.2h.7l1.3.2c3.7.5 7.3.6 11 .6h2.7l1.4-.2h1.3l2.8-.3 2.7-.4 1.3-.2 1.4-.3 2.7-.5 2.7-.7 2.6-.7 2.6-.9c.2 0 .4 0 .6-.2l.7-.2 1.3-.5 1.2-.5 1.3-.5 2.5-1a41 41 0 009-6.3 29 29 0 006.5-8.6c.8-1.6 1.3-3.3 1.6-5a17.3 17.3 0 00-4.3-15 21.8 21.8 0 00-9.2-5.4A29.9 29.9 0 00194.1 1a36.8 36.8 0 00-15.5 4.4L176.3 7l-.5.4-.6.4-1 .9-.3.2-.2.2-.5.5-.5.5-.3.2-.3.3-.8 1-.3.3-.2.2-.3.6a23 23 0 00-2.7 4.7 26.6 26.6 0 00-1.1 16l.6 2.6.4 1.3.5 1.2.5 1.3.5 1.3a33.6 33.6 0 004.2 6.9l.9 1 .9 1 .4.6.5.4 1 1a54 54 0 0023.8 13l2.6 1 2.6.7 5.3 1.4 2.7.6 1.3.2 1.4.3 2.7.4 1.3.2.7.1h.7l5.5.7 5.4.3c14.7.4 29.4-2 43.1-6.9l5.1-2 5-2.2.7-.3.6-.4 1.2-.6 2.5-1.2 1.2-.6 1.2-.7 2.4-1.4c3-2 6-4.2 8.4-6.8a23.8 23.8 0 005.4-9.2c1.1-3.5 1.3-7.2.5-10.7-.7-3.5-2.3-6.9-4.4-9.8a34.2 34.2 0 00-19.7-13.5l-1.4-.4-1.3-.3a43 43 0 00-10.9-.6h-1.3l-1.4.3c-.9 0-1.8.2-2.7.4-7 1.4-13.8 5-18.8 10.2A41.7 41.7 0 00237 43.8a46.2 46.2 0 0022 35.7c3.1 2 6.4 3.6 9.8 5a95 95 0 0021.2 5.4 164.4 164.4 0 0065.4-3.1l2.7-.7 2.7-.8 2.6-.8 2.6-.8 5.2-1.8a51.8 51.8 0 0014.7-7.3A27.4 27.4 0 00397.6 57l.3-1.3.2-1.4v-2.7a18.3 18.3 0 00-3.3-10 14.1 14.1 0 00-4-3.7 16 16 0 00-10.3-2.3c-3.6.4-7 2.1-9.7 4.5a29 29 0 00-6.7 8.5 50.8 50.8 0 00-5 21.1c0 7.3 1.4 14.6 3.5 21.6 2.2 7 5.2 13.8 8.6 20.3 3.5 6.5 7.3 12.7 11 19.1l2.7 4.8 2.6 4.9a139.4 139.4 0 013.7 7.4l.6 1.2.5 1.3 1.1 2.5 1 2.6 1 2.6.4 1.3.4 1.3.8 2.7.7 2.6c0 .5.2 1 .3 1.4l.3 1.3.4 2.8a60.9 60.9 0 01-2.4 27.2l-1 2.6c-.4.9-.7 1.7-1.2 2.5-.3.9-.8 1.6-1.3 2.5-.4.7-.9 1.6-1.5 2.3a31.4 31.4 0 01-7.7 7.8 24.1 24.1 0 01-10.3 3.8c-1.9.3-3.7.4-5.5.5-3.7.2-7.4.1-11 .6-.5 0-1 0-1.4.2l-1.4.2-2.7.6a17.2 17.2 0 00-4.9 2.4c-3 2-5.6 4.8-7.3 8a14.7 14.7 0 00-1.5 5.3 15 15 0 011.4-5.3 21 21 0 0112.4-10.6l2.6-.6 1.4-.2 1.4-.2c3.6-.5 7.3-.4 11-.6a51 51 0 0010.8-1.9 25.6 25.6 0 0014-12.4l1.4-2.5 1-2.5a44 44 0 002.5-7.8 61 61 0 00.5-24.6l-.3-1.3-.3-1.4-.7-2.6-.8-2.7-.4-1.3-.4-1.3-1-2.6-1-2.6-1-2.5-.6-1.3-.6-1.2-1.2-2.5-2.5-4.9-2.7-4.8-2.7-4.8c-3.7-6.3-7.5-12.6-11-19-3.5-6.6-6.5-13.4-8.6-20.4-2.2-7-3.6-14.4-3.6-21.8 0-3.7.4-7.4 1.2-11 .8-3.6 2-7.1 3.8-10.4 1.7-3.3 4-6.3 6.8-8.7 1.4-1.2 3-2.3 4.6-3a17 17 0 0116.1.8c1.7 1 3 2.2 4.2 3.7a18.8 18.8 0 013.5 10.5v2.8l-.2 1.4-.2 1.4a28.1 28.1 0 01-12 18 52.3 52.3 0 01-14.9 7.4l-5.2 1.9-2.6.8-2.7.8-2.6.8-2.7.7a164.1 164.1 0 01-65.8 3.3 97.7 97.7 0 01-21.4-5.5A54.8 54.8 0 01250 73.5 47 47 0 01236 44a40.7 40.7 0 0111.7-30.4 37.7 37.7 0 0122.1-10.9l1.4-.2 1.4-.1a45.4 45.4 0 0111.1.7c.5 0 1 .2 1.4.3.5 0 1 .2 1.4.3a35.3 35.3 0 0120.3 13.9 27 27 0 014.6 10.2 22.4 22.4 0 01-2.8 16.3 32.2 32.2 0 01-12 11.5l-2.4 1.4-1.2.7-1.2.6-2.5 1.3-1.2.6-.6.3-.7.3-5 2.3-5.2 2c-13.9 5-28.7 7.3-43.5 7l-5.5-.4-5.5-.6h-.7l-.7-.1-1.3-.3-2.8-.4-1.3-.2-1.4-.3-2.7-.6-5.4-1.4-2.6-.7-2.7-1a84.7 84.7 0 01-15.2-6.6 54.6 54.6 0 01-9.9-7.6l-.5-.5-.4-.5-1-1-.9-1.1a34 34 0 01-3-4.7c-.5-.8-1-1.6-1.3-2.5l-.6-1.2-.5-1.3-.5-1.4-.3-1.3-.7-2.7c-.3-1.8-.6-3.7-.6-5.6a27 27 0 011.9-11c.7-1.7 1.6-3.4 2.7-4.9l.4-.6.2-.3.2-.2 1-1.1.2-.3.2-.2.5-.5.5-.5.3-.3.2-.2 1.1-.9.6-.4.5-.4 2.4-1.6A37.8 37.8 0 01194 0c3.7-.2 7.4.3 11 1.5 3.6 1.1 7 3 9.6 5.7 2.6 2.8 4.2 6.3 4.7 10a19.2 19.2 0 01-1.9 11 30 30 0 01-6.7 9 42 42 0 01-13 8l-1.3.4-1.3.5-.6.2c-.3 0-.5.2-.7.3l-2.6.8-2.7.7-2.7.7-2.7.6-1.4.2-1.4.2-2.7.4-2.8.3-1.3.1h-1.4l-2.8.2c-3.7 0-7.4-.1-11-.6L157 50l-.7-.1-.7-.1-2.7-.5c-1-.1-1.8-.4-2.7-.6l-1.4-.3-1.3-.4-2.7-.7-1.3-.4-1.3-.4-2.7-1-2.5-1-1.3-.5-1.3-.6-2.5-1.2-4.9-2.6c-3.2-1.8-6.3-3.8-9.4-5.7-6.2-4-12.4-7.9-19-10.9a56.8 56.8 0 00-10.4-3.4 36.7 36.7 0 00-21.5 1.7A57.2 57.2 0 0057 26a85.4 85.4 0 00-17.2 13.6 127.1 127.1 0 00-25.5 35.6A104 104 0 007 95.9l-.3 1.3-.2 1.4-.5 2.7-.3 1.3-.3 1.4-.3 2.8a85.5 85.5 0 003 32.6c2 7 5 13.8 9 20 4 6 9 11.5 15 15.6a46 46 0 009.9 5c3.4 1 7.2 1.5 10.7.6l.7-.1.6-.2 1.3-.5 1.2-.6 1.1-.8a15.8 15.8 0 006-8.8c.4-1.8.6-3.6.3-5.4a11.5 11.5 0 00-6.1-8.5 13.2 13.2 0 00-10.6-.8 17.2 17.2 0 00-4.9 2.4A35.8 35.8 0 0031 169a50.6 50.6 0 00-5 42.3 47 47 0 0011.9 18.2 37.4 37.4 0 0019.4 9.7z"/><path fill="#4F91C3" fill-rule="nonzero" d="M16.5 328.3a63.1 63.1 0 0129-9.5 35.8 35.8 0 0112.2 1.7l1.4.5.4.1.4.2.7.3c1 .4 1.8 1 2.7 1.5a30.4 30.4 0 00-11.7-3.5c-2-.2-4-.3-6-.2a64.7 64.7 0 00-23.6 6.2 56 56 0 00-5.5 2.7z"/><ellipse cx="190.2" cy="163.2" fill="#BDD1DB" fill-rule="nonzero" rx="6.3" ry="6.6"/><path fill="#4F91C3" fill-rule="nonzero" d="M167.4 139.3c0-1.4.5-3 1.5-4a5.6 5.6 0 019.5 1.8 6 6 0 01-1.3 6.5 5.6 5.6 0 01-8.2-.2 6 6 0 01-1.5-4zm0 0c0 .8.1 1.5.4 2.2.2.7.7 1.3 1.2 1.8a5.2 5.2 0 007.6-.1 5.8 5.8 0 000-7.7 5 5 0 00-1.7-1.3 5.2 5.2 0 00-6 1.1 5.7 5.7 0 00-1.5 4zm-.5 38.2a7.3 7.3 0 014-6.5 6.5 6.5 0 017.5 1.4c.6.7 1.1 1.4 1.5 2.3.3.9.5 1.8.5 2.7a7 7 0 01-2 5 6.5 6.5 0 01-9.7-.2 7 7 0 01-1.8-4.7zm0 0c0 .8.1 1.7.5 2.5a6.5 6.5 0 006 4.1c1 0 1.8-.2 2.6-.6a6.9 6.9 0 003.8-6.1 7 7 0 00-1.8-4.6 6.2 6.2 0 00-4.5-2c-1.7-.1-3.5.6-4.7 1.8a6.5 6.5 0 00-2 4.9z"/><path fill="#BDD1DB" fill-rule="nonzero" d="M159.4 166.1c0-2 1.6-3.7 3.5-3.7 2 0 3.6 1.7 3.6 3.7s-1.6 3.7-3.6 3.7-3.5-1.7-3.5-3.7zm112.8-39.2c.4.6.8 1.3.5 2 0 .1 0 .3-.2.4-.4.5-1 .7-1.7.8a23 23 0 01-6.4.2l2.4-7.4.4.2c2 .7 3.7 2 5 3.8z"/><path fill="#4F91C3" fill-rule="nonzero" d="M272.7 129.3c.3 2.3-.7 4.7-2.6 5.8-2.3 1.3-5.1.7-7.7 1.2l2-6c2.1.2 4.2.2 6.4-.2.6-.1 1.3-.3 1.7-.8h.2zm-121.2-24.8c.2 1.7-.2 4.4-.8 6-.3.7-.8 1.4-1.4 1.8-.7.5-1.6.5-2.3.4a26 26 0 01-11.1-4.4c-5.4-3.5-9.3-8-9.4-9.2a13 13 0 013.2-9.4 2 2 0 00-.5 1V92c.8 3.2 3.8 5.3 6.7 6.8l2.2 1c3.7 1.8 7.5 3.2 11.4 4.2l2 .4z"/><path fill="#BDD1DB" fill-rule="nonzero" d="M149.5 104c-4-1-7.7-2.3-11.4-4l-2.2-1.1c-2.9-1.5-5.9-3.5-6.7-6.8v-1.4c0-.4.2-.7.5-1 .8-1 2.3-1.2 3.7-1 2.5.2 4.9 1 7 2.5v.2a4.8 4.8 0 00-1.3 5.1l.2.6c.9 2 2.6 3.4 4.5 4.5 1.8 1 3.7 2 5.7 2.4z"/><path stroke="#367297" d="M153.1 252.3c-6.4 5.8-14 11.3-22.6 16-33 18.3-67.4 18.2-76.8-.3-4.2-8.2-2.7-18.6 3.1-29.3a101 101 0 0139.7-37.2 121 121 0 0129.1-11.4 89 89 0 019.7-1.6c17.8-2.1 32.4 2.4 38 13.4.8 1.6 1.4 3.2 1.8 4.9 2 8.8-1.1 19.4-8.3 30a88.2 88.2 0 01-13.7 15.5z"/><path stroke="#367297" d="M64.6 252c-6-11.8 8.8-32.1 33-45.5 24.2-13.4 48.7-14.7 54.7-3 6 11.8-8.8 32.1-33 45.5-24.2 13.4-48.7 14.7-54.7 3z"/><path fill="#367297" fill-rule="nonzero" d="M73.6 244.4l2.5-4.1 2.7-4 3-3.7L85 229a166 166 0 013.3-3.4l3.6-3.2 2-1.5 1.8-1.5 3.9-2.8 4-2.5 4.3-2.3 4.4-2 4.4-1.8 4.6-1.5 4.6-1.2 4.7-.9 4.7-.6-2.3.5-2.4.4-4.6 1.1-4.5 1.4-4.5 1.6-2.2.9-2.1.9-4.3 2-4.2 2.4-4 2.5-3.9 2.7-3.7 3-3.6 3-3.4 3.4a86 86 0 00-12 14.8z"/><path stroke="#367297" d="M111.2 172.4l.2.5 5.6 10.3 4.3 8 .1.2m-4.4-31.2l4.5 7.1v.2l13.8 21 .3.4m-18.2-14.1c.8 2.4 2 4.5 3.2 6.7l5 8.6.3.4"/><path stroke="#367297" d="M111.2 173c-3.4.1-8.5-1.4-11.4-3.2a62 62 0 01-27.2-44.7 32 32 0 011.6-18.4c2.5-5.6 8-10.2 14-10 2.2.2 4.3.9 6.4 1.8a39 39 0 0114 12 82 82 0 019.4 16.1 76.3 76.3 0 013.5 40.8v.4"/><path stroke="#357196" d="M83.1 101.3c-2.4 3-3.5 7-4 10.8-1.7 10.7.2 22 5.6 31.4a40 40 0 0024.5 18.9m77.4 17.8l-.1.3v.1l-11 26M141.7 87.3v-.5c0-.2.1-.3.3-.4 3.5-2.1 30.9 3.2 63.5 12.5 34.4 9.7 61.7 20.1 61 23.2l-.5.4c-3.8 2-31-3.4-63.4-12.5-32.8-9.3-59-19.2-60.9-22.7zm125.2 35.4l-.1.2-2.4 7.4A20919495.2 20919495.2 0 00223.7 256a13.8 13.8 0 01-8 7 38.5 38.5 0 01-21.7.4h-.2M140.3 91.2a14 14 0 00-7-2.5c-1.2-.2-2.8.1-3.6 1a2 2 0 00-.5 1v1.4c.8 3.3 3.8 5.3 6.7 6.8l2.2 1.1c3.7 1.8 7.5 3.1 11.4 4l2 .6"/><path stroke="#357196" d="M129.9 89.5l-.2.2c-2 2.4-3.6 6.2-3.2 9.5.1 1.2 4 5.7 9.4 9.2 3.3 2.1 7.1 3.9 11 4.3.9 0 1.7 0 2.4-.3a4 4 0 001.4-2c.6-1.5 1-4.1.8-5.8"/><path stroke="#357196" d="M140.3 91.4a4.8 4.8 0 00-1.2 5.2l.2.5a11 11 0 004.5 4.6 21.5 21.5 0 007.7 2.7M267.2 123c2 .8 3.7 2.2 5 4 .4.5.8 1.2.5 2 0 0 0 .2-.2.3-.4.5-1 .7-1.7.8a23.3 23.3 0 01-6.9.2"/><path stroke="#357196" d="M272.7 129.3c.3 2.3-.7 4.7-2.6 5.8-2.3 1.3-5.1.7-7.7 1.2l-.4.1m-126.1-28c-4.9 18-11 41.5-13.4 53.1-.5 2.6-.9 4.6-1 5.8v1.2M142 86.3s0 0 0 0l-.3 1-1.2 4.2h0l-1.4 5m33.1 169.1h.1a44 44 0 0017.5 3.4m-36.7-16.7c1.7 3.6 3.6 7 5.7 10.1a8 8 0 002.5 2.5c2.5 1.8 5.8 1.8 8.8.9l2-.7.5-.3c1.4-.7 2.7-1.6 3.7-2.8a8.2 8.2 0 001.9-7c-.4-1.6-1.3-3-2.1-4.3l-9.3-14s0 0 0 0m19.8-56s0 0 0 0c1.1-2 13 3 26.6 11 13.6 8.1 23.7 16.2 22.7 18v.2c-1.6 1.5-13.2-3.4-26.5-11.3-13.4-7.9-23.5-15.9-22.8-17.9z"/><path stroke="#000" d="M235.9 209.8l-.1.1"/><path stroke="#357196" d="M235.8 209.9l-41.7 53.5M194.1 263.4l-4.4 5.6"/><path fill="#000" fill-rule="nonzero" d="M215.4 262.8l7.7 4.4h.2-.2l-55.1 8.9-55.2 8.6-55.3 8.5-27.6 4.2-27.6 4.1 27.6-4.4 27.6-4.4 55.2-8.6 55.1-8.5 55.3-8.4v.1l-7.7-4.5z"/><path stroke="#357196" d="M156.3 251.2c1 2.6 2.1 5.2 3.7 7.5 1.7 2.2 4 4 6.7 4.5"/><path stroke="#367297" d="M117 183.2l-2.4 10.2"/><path fill="#000" fill-rule="nonzero" d="M292.2 189.2v.3l-.2.4-.2 1.2c0 .4 0 .8.3 1.1.2.3.6.4 1 .6l1.2.3c1.6.4 3.2.5 5 .5 1.5 0 3.2-.2 4.9-.4l2.4-.3 1.3-.2 1.2-.3a27.5 27.5 0 01-7.4 1.4h-2.5c-1.6 0-3.3 0-5-.4l-1.1-.4c-.4-.2-.8-.3-1.1-.7l-.3-.6v-.6c0-.5.2-.9.3-1.2l.1-.4.1-.3z"/><path fill="#000" fill-rule="nonzero" d="M292.1 189.5a12.4 12.4 0 00-2.1 2.6 2 2 0 00-.3 1c.1.6.6 1 1 1.2.5.3 1 .5 1.6.6a19.6 19.6 0 005 .5h1.8a40.8 40.8 0 010 .2h-3.4a14 14 0 01-3.5-.4 5 5 0 01-1.6-.6 3 3 0 01-.7-.6c-.2-.2-.4-.5-.4-.9l.3-1.2.7-.9 1.6-1.5zm-69.5 78l-.2.9-.6.7-1.2 1.4-2.8 2.4c-2 1.5-3.9 3-5.9 4.3l-6 4.2-6.2 4a989.7 989.7 0 00-18.3 12.2 48.3 48.3 0 00-4.2 3.5 4 4 0 00-.9 1.5c0-.3.2-.6.3-.8l.6-.8c.3-.5.8-.9 1.2-1.3l2.8-2.4a131.5 131.5 0 0112-8.4l6.2-4a989.7 989.7 0 0018.2-12.2 38.2 38.2 0 004.7-4.3l.3-.9zm-28.2 4.3l-7.2 6a252 252 0 01-15 11.4c-2.5 1.8-5.2 3.5-7.8 5.2l7.6-5.6c2.5-1.9 5-3.7 7.4-5.7l7.4-5.7c2.5-2 5-3.8 7.6-5.6zm-34.1 5.2a115.3 115.3 0 01-8.4 7.6 74.3 74.3 0 01-9.5 6l4.5-3.3a148.3 148.3 0 009-6.8l4.4-3.5zm-32.7 4.5l-7.9 5.4-7.7 5.7a172.3 172.3 0 01-8 5.4c-2.8 1.7-5.6 3.2-8.5 4.7a426.9 426.9 0 0016-10.7l7.8-5.6c2.7-1.8 5.5-3.4 8.3-5zM79.4 289l-12 8.5-11.5 8.7a390.8 390.8 0 01-12 8.3c-4.2 2.6-8.4 5-12.7 7.3l12-8.1 3-2 3-2.2 6-4.3 5.8-4.3A196 196 0 0179.4 289z"/><path fill="#C4505D" fill-rule="nonzero" d="M113.2 194.3c-1.3-.6-2.5-1.4-3.6-2.4-1-1-1.9-2.3-2-3.9-.2-.7 0-1.5 0-2.2a7 7 0 011-2.1c.3-.6.8-1.2 1.3-1.8.6-.5 1.2-1 1.8-1.3l.5-.3.5-.2.6-.3.5-.1a16.8 16.8 0 016.6-.2c1.5.2 3 .6 4.3 1l4.2.9c1.4.2 2.8.3 4.1 0a7.4 7.4 0 003.6-1.7c1-1 1.7-2.1 1.9-3.4 0-1.4-.4-2.7-1.2-3.8-.9-1-2-1.9-3.3-2.6a17.1 17.1 0 00-12.4-1.2 15.9 15.9 0 018.6-.7c1.4.3 2.8.7 4.1 1.4 1.4.6 2.6 1.5 3.6 2.7a6.3 6.3 0 011.4 4.2c0 1.6-1 3-2 4.1a7.5 7.5 0 01-4.1 2c-1.5.3-3 .2-4.5 0l-4.2-1-4.2-1c-1.4-.2-2.8-.3-4.2-.2-.7 0-1.4.2-2 .3a8 8 0 00-3.6 2l-.4.4-.3.4-.3.4-.3.4-1 1.9c-.1.6-.2 1.3-.1 2a6 6 0 001.8 3.8 17.6 17.6 0 003.4 2.5z"/><ellipse cx="274.9" cy="32.8" fill="#BDD1DB" fill-rule="nonzero" rx="11.5" ry="11.9"/></g></svg>