<svg xmlns="http://www.w3.org/2000/svg" width="400px" height="400px" viewBox="0 0 400 400"><g fill="none" fill-rule="evenodd"><path fill="#CADDE0" fill-rule="nonzero" d="M40.4 308.7c-9 3.4-26.3 8.2-29 15-1.4 3.6 1.4 7.7 4.8 9.7 3.5 1.9 7.5 2.1 11.5 2.2 27.4.8 55-2.5 81.3-10-5.8 4.6-6.1 13.7-2.5 20.1a36.8 36.8 0 0017 13.7c27.5 12.8 59 13 89.3 13-1.8 6.2 1.8 13 7 16.8a42.5 42.5 0 0018.3 6.4c30.1 4.9 61.6 1 89.6-10.9-33 4.2-68.2 7.8-97.7-7.3-6.2-3.1-12-7.2-18.5-9.3-8.3-2.9-17.2-2.8-25.9-3.5-14.4-1.3-33.2-6.2-44.5-15.2-11.4-9-16.3-30-13.4-44-32.3-.8-54.9 4-87.3 3.3"/><path fill="#4F8E99" fill-rule="nonzero" d="M130.9 247a525.8 525.8 0 00-59.5-2.6c-36.7 0-66.4 2.1-66.4 4.7 0 2.5 29.7 4.6 66.4 4.6 26 0 48.5-1 59.3-2.6"/><path fill="#FFF" fill-rule="nonzero" d="M200.8 49s-5.2 6.7-6 8l-2.3 5.1a53.8 53.8 0 00-5.2 14.2c0 3.4-.2 6.4 2.5 4.5a48.8 48.8 0 0010.4-12.3l3.7-9-.4-8.4-1.8-3.5-1.9 3"/><g fill="#FFF" fill-rule="nonzero"><path d="M369 310.3c-.7-4.8-2.3-9.4-3.7-14a28 28 0 01-1.6-9.8c.1-1.8.5-3.6.6-5.5 0-1.6-.1-3.2-.5-4.7l-.2-.5c-2 1.3-3.6 3-5.3 4.7l-9.1 9.5c-1 1-2 2-2.5 3.4l-.7 2c-.8 1.4-2.8 1.7-4 3-1.2 1.2-1.6 3.2-3.2 4-.8.3-1.7.2-2.4.5l-1.3-1-.4-.1c1.4-1.3 2.6-2.7 4.1-3.8.9-.7 2-1.1 2.7-2 .7-.8 1-1.8 1.5-2.7 4.2-8.4 13.3-13.3 18.8-21l-2.5-3.7c-3-4.5-3.9-10-6.7-14.6l-.1-.1a38 38 0 00-12.2-11c-2.8-1.8-5.7-3.5-8.3-5.4-2.5-1.7-4.8-3.7-7.3-5.3a32 32 0 00-20.6-4.8l-.4-.1c1.1-2.3 2.5-4.4 4-6.4-13.3.6-26.4-3.5-39.8-3.7-1.8 0-3.7 0-5.5.4v-.2c1-.2 2.1-.7 3.2-1.3 1-.6 1.9-1.8 1.6-2.9v-11.9l.2-6.2a163.8 163.8 0 01.3-12.2l.1-2.8c.2-1.2.2-2.5.2-3.6 0-2-.4-4-.8-5.6l-1-3.4c-3-7.1-8.4-10.3-8.4-10.3v-10.6l-.8.2-1.3.2a686.4 686.4 0 01-48.8 4c-5.7-.2-17.8-.2-27.6-.4l-11.8-.5c-4.4-.4-11-1-16.8-2-3.8-.5-7.4-1.2-9.7-2-.3 0-.6 0-.8-.2v11s-5 3-8 9.7a23.9 23.9 0 00-2.1 9.4c-.1 1.2 0 2.4.1 3.8l.1 2.6.3 6.2v6.7l.2 4.9V251l-.1 6v6.3l-.1 12.4-.2 12.4v6.2l-.4 18.4v.5a63 63 0 004.7 21.4c2.1 5.1 5.3 10 9.9 13.4a21 21 0 004.4 2.5c18.1 7.5 35 14.3 61.5 11 2.1 2.5 4.4 5 6.8 7a52.8 52.8 0 0041.5 13.7v.1h-.6c-.2.3-.3.6-.1.8.2.5 1 .6 1.5.6l10.6.5c15.8.6 31.7 1.1 47.2-1.9 1.4-.3 2.9-.6 4-1.7 1-.9 1.3-2.1 1.3-3.4 0-1.3-.1-2.6-.4-4l-.2-.6h.2c4.8.1 9.8-.2 13.6-3l.9-.8c2.5-2.3 4.1-5.5 7-7.3l2.9-1.4a14 14 0 006.7-8.4l-.2-.2c2.3-1 4.2-2.9 5.3-5.2.7-1.5 1-3 1.8-4.6 1-2 2.5-3.4 3.6-5.4 2.1-3.9 1.8-8.7 3-13 1.7-4.5 2.6-8.3 2-13zm-41 29.8l.1-.2.3.1c.3.3-.1.7-.6.8l.2-.7zm-6.5-28.7l-.2.1c-5 2-10 4.1-14.9 6.6l-.1.6-5.4 2.7c-.9.5-1.8 1-2.7 1.2-1 .2-2 .2-2.9.2-2.2 0-4.6-.1-6.9.5-1.9.5-3.7 1.4-5.6 1.5a4 4 0 01-2-.3c-.3-.6-.4-1-.1-1.3-.1-.5 0-.7.5-1h.2a31 31 0 018.2-2.6l4.2-.3c1.7-.3 3.3-1 5-1.7l9-3.8 13.3-5.7c0 1.1.2 2.2.5 3.3h-.1zm-18.8-22.1c.3-1.1 1.9-1.9 2.7-1 .3 1.3-1 2.2-2.5 2.6-.2-.5-.3-1-.2-1.6zm-40.8 2.3c.1-.6 1.2-1 1.7-1a5 5 0 012.7 0 55 55 0 0026.4 2.2c1-.1 2-.4 3.1-.4 1.5-.2 3 0 4.4.7 1.5.9 2.5 2.4 3.6 3.6 1 1.3 2.7 2.5 4.3 2.2-2.3 1.1-5 0-7.1-1.3-2.1-1.3-4.4-2.9-7-2.7-1.5.2-2.8 1-4.3 1.4-3 1-6.3.4-9.4-.1l-12.6-2.2c-1.3-.2-2.7-.5-3.9-1-.4-.1-2-.6-1.9-1.4zm44.8-59.9c.3-.6.1-1.4.3-2 0-.7.7-1.4 1.3-1.2.7.3.7 1.2.4 1.8-.3.6-.8 1.2-.7 1.9.1 1 1.2 1.7 1 2.6-.1.7-.9 1-1.5 1.3-.9.6-1.5 1.6-1.7 2.7 0 1 .3 2.2-.2 3.1-.4.7-1 1.1-1.6 1.7-.5.6-.8 1.4-1.3 2.2a11.3 11.3 0 01-2.1 2.3l-.5.5-.8 1.4-1 1.5a11 11 0 01-2.4 2.4c-1 .6-2 1-2.8 1.8l-.3.4c-.7 1-.9 2.5-1.8 3.3-.6.6-1.6.8-2.4 1.4l-.3.2c-.9.7-1.3 1.6-1.8 2.5a9.8 9.8 0 00-.6 2.2c0 .6-.2 1-.5 1.6-.4.8-1 1.5-1.9 2-1.3.8-3 1-4.5.5-.7-.2-1.4-.5-2-.2-.6.4-.6 1.2-1 1.8-.4.6-1.1 1-1.8 1.4-.6.4-1.2 1-1 1.8 0 .4.3.7.5 1 .2.4.3 1 0 1.3-.4.4-1 0-1.5 0-.7 0-1.3.5-1.6 1.1l-.3.6c-.3.9-.3 1.8-.3 2.6-.1.8-.4 1.8-1 2.3-1.8 1.5-4.9-.4-6.7 1-.6.5-.9 1.3-1.4 2l-.7.6c-1.6 1.3-4 1.7-5 3.6-.4.6-.5 1.5-.7 2.2a2 2 0 01-.9 1.2l-.6.3c-.5 0-.5-.6-.6-1-.2-2.4 1-4.8 3-6l.9-.5c.6-.2 1.3-.4 1.8-.8.2 0 .2-.1.4-.3.4-.3.7-.9.6-1.4l-.3-1c0-.7.6-1.2 1.3-1.4h1.9c1.7 0 3.5-.7 4.8-1.9l.3-.3a6 6 0 001.4-2.1l.1-.4c.2-.3.2-.7.3-1v-.7l.6-1c.2-.5.6-1 1-1.5l2.4-2.4a5 5 0 001.6-3c0-.6 0-1.3.4-1.6.5-.4 1.2-.2 1.8-.2 1.3 0 2.4-.6 3.5-1.3 4.3-2.9 7.8-6.7 11.3-10.4l2-2.3c.9-1 1.7-1.9 2.4-3l.5-1c.3-1.1.3-2.4 1.3-3.3.7-.6 1.6-.8 2.3-1.1 1-.5 1.9-1.2 2.5-2 .5-.6 1-1.4 1.3-2.1l.2-.8c0-.4 0-.9-.2-1.3-.2-1-.6-2-.2-2.9 1-1.2 2.6-1.4 3-2.7zm-68.6-.3l1-.8 1.2-.5c-.6.2-1.1.6-1.7 1l-.5.2-.7.6.7-.5zm23.7 147.2l-.1.7c-.1 1-.6 1.8-1.4 2.4-4.7-.4-9-2.7-12.7-5.7a60 60 0 01-9.6-10.5c-4.4-5.6-8.6-11.4-11.8-17.8-3-6.5-4.8-13.7-3.9-20.7l.2-1.4c.3-1.5.8-3.1 2-4.1 1.5-1.2 3.6-1.3 5.5-1.4 1-.1 2.1-.3 3-.7v.7a32 32 0 001.3 14.4c.2.7.7 1.6 1.4 1.6v-1.7l.4-2.8.3-1.9.1-.7.8-3.2v-.5l.2-.6c0-.3 0-.5.2-.7l1.8-4.2c.8-1.5 1.6-3.2 2.8-4.5.8-1 1.9-1.8 2.9-2.6l.9-.8c2-1.8 4-3.6 5.8-5.7l.1-.2c.2 0 .3-.3.6-.3.4 0 .8.3.8.8l-.2.5v.1c0 .5-.3.8-.6 1.2l-5.2 5.1a14.9 14.9 0 00-3.8 6.2v.7c0 .2 0 .4.2.6.1.3.3.4.6.3.3 0 .7 0 1-.2l.4-.3c.8-.5 1.6-1 2.3-1.8l.5-.6 1.8-1.4 3.6-3 7.1-5.7a68.8 68.8 0 0112.4-7.5c0 .2 0 .4-.2.6a4.5 4.5 0 01-1.9 3c-.7.5-1.4.7-2.2 1a17 17 0 00-3.5 2.4 131 131 0 00-11.2 10.1c1.6.2 3.2-1.1 4.9-1.5h.5c.3.2.2.5 0 .8.2.3-.2.9-.6 1a44.3 44.3 0 00-10.6 8.4c-.5.5-1 1-1.3 1.6l-.5.9c-.6.7-1.2 1.5-1.6 2.3a8 8 0 00-.7 1.8c-.1.9 0 1.8.4 2.6.1.4.4.8.7.8.4.2.7 0 1 0 .7-.4 1.3-.6 1.8-1l.8-.2c.7-.1 1.3-.5 2-.8 1-.8 2.2-1.7 3.4-2.4l.7-.4 2.7-1c1.2-.8 2.1-1.9 3.4-2.5 1.5-.7 3.1-.6 4.7-1 2.8-.6 5-2.5 7.3-4.2a13 13 0 016.5-2.9c.3 0 .7 0 .7.4l-.1.4v.2l-.1.4-.2.1c-.3.3-.9.4-1.3.5h-.2l-1.5 1c-.5.1-1 .3-1.3.6-.9.5-1.7 1-2.4 1.7-.4.4-.8.8-1 1.3a2 2 0 001.6 2c.9.3 1.7 0 2.5-.3 2-.5 3.9-1 6-1.1h1.8c.3.1.2.4 0 .7.3.2-.2.7-.6.9-3.7 1.4-7.9 1.6-11.8 2.4a46.2 46.2 0 00-11.7 3.9l-.8.2-.5.2-2.6 1.7a32 32 0 00-6.1 6c-.8 1.3-1.4 2.6-1.8 4v.7c-.2 1-.2 2 .2 2.8.3.7 1 1.3 2 1.3l.4-.1h.3l2-.3c2.5-.6 5.1-1.6 7.6-2.6 12.3-4.8 25.4-7.9 38.6-8.9 1.9-.1 3.8-.3 5.5.4l-.7.5.6.2c-1.5 1.2-3.5 1.6-5.4 2-11.6 2.3-23.6 4.4-33.2 11.2a6.6 6.6 0 00-2.6 3v.6c.2 1.4 1.3 2.3 2.5 2.7 1.3.4 2.6.2 3.9.2l13.6-1c2.2-.1 4.4-.3 6.6.2l-.7.6.6.1a11 11 0 01-5.2 2.4c-1.7.4-3.5.2-5.2.4-1.7.2-3.4.7-5.1 1.3l-9.7 2.9c-1.2.3-2.6.8-3.3 2l-.2.3c0 1 .4 2 1.4 2l.7.6c-1.3.9-2.4 2-2.5 3.6v.2c.4.2.6 1.1.5 2z"/><path d="M140.2 145l.8.3a134.5 134.5 0 0026.8 4c2.6.2 6.9.4 11.7.5l27.6.4a691.8 691.8 0 0050.9-4.5l1.6-.8c.6-.2 1-.6 1-1 .4-.5.2-1-.2-1.8-.4-.6-1.7-.5-3.1.3h-.2c-15.6 3-32.1 4.2-47 4.6-26.2.8-47-1-47-1s-.2 0-.2-.2c-.2 0-.2-.2-.2-.2l-7-.5h1l-.7.5-.2.2-9.2-1.5c-2.4-.5-3.8-1.3-4.5-2.2a4 4 0 01-.9-1.7l-1.2 1c-.6.6-1.1 1.2-1.2 1.8-.3.6.2 1.2 1.5 1.7zm1.9-8.8c0 .2.1.4.3.5 3 2.3 27.6 4 57.7 4 32 0 58-2 58-4.5v-13.8c3.9-9.2-.3-14.6-.5-14.9-4.1 2.2-28.3 3.9-57.3 3.9-32 0-58-2-58-4.6 0 0-4.7 5.7-.2 15.5v14zm-.3-32.6v.3h.7c2-.7 4.4-.4 6.5-.4h1.8c1.6-.3 3.2-.8 4.2-2 .1-.3.3-.6.2-.8-.1-.3-.4-.4-.6-.4l-.1-.2c.4-.2.8-.5 1-.8.3-.4.3-1 0-1.3-.1 0-.2 0-.3-.2.4 0 .5-.6.2-1l-.4-.3-.7-.1a5 5 0 00-3.5 1.3c-.3.1-.5.4-.9.5-.3 0-.6 0-.8-.3l-2.8 3.4c.7-1.2 1.7-2.6 2.7-3.7l.2-.6.2-.1c.2-.4.6-.7 1-1l1.5-2 .2-.2v-.1h-.4l.2-.2h-.3c-.2 0-.2.2-.3.2l-.8.6-1.5.4c-1 .2-2 .2-2.8.5a6.7 6.7 0 00-3.1 2c-.9 1-1.5 2.1-1.9 3.3l-.6.4 1.2 2.8zm-41.2 8.3l.2.4c.2.4.6.7 1 .8.4.2 1 .3 1.4.3.2 0 .4-.2.4-.4 0-.3-.2-.5-.4-.5l-1-.1a.9.9 0 01-.6-.5v-.2l.2-.5.3-.2c0 .2 0 .5.3.6l.7.4h.7a11.8 11.8 0 004.2-.3l.8-.3c.2 0 .3-.2.5-.3.2-.3.3-.6.1-1 0-.2-.3-.4-.6-.5h-.1l.1-.7c-.6-.3-.5-1.3.3-1.3l.4-.2 2-.1a5 5 0 001.8-.3 4 4 0 001.2-.8l.1-.1.2-.7c0 .2 0 .5-.2.7.2-.3.4-.6.4-1l.2-.6.1-.5c0-.3.2-.6.5-.9l.4-.4-.2-1.2-.1-1.4-.1-.5.3-.3c.4-.2.7-.6.7-1-.1-.4-.4-.6-.7-.8-1.7-1.4-3-2.7-4.7-4l.3-.3-.3-.3.4-.3c.2-.2.3-.5.1-.6a.4.4 0 00-.5 0c-.4.2-1 .6-1.4.6.1-.2.3-.6.3-1s0-.8-.2-1c-.2-.3-.4-.4-.5-.4-.2 0-.3 0-.5.2 0 .2-.2.3-.3.5a2 2 0 00-.2.8v.5l.3.6a4 4 0 01-1 1.1c-.3-.5-.6-.9-1.1-1.2a4 4 0 00-1-.3l-.7.1c-.7.4-1 1-.7 1.7.2.5.7 1 1.2 1.2.6 0 1.1 0 1.7-.2 0 .4 0 .7-.2 1 0 .3-.2.6-.4 1l-.5-.4a2 2 0 00-1.1-.3 1 1 0 00-.8.8c0 .3 0 .8.3 1 .6.6 1.2.6 1.8.2 0 .4-.2 1-.4 1.4-.4.5-.9.8-1.4.8h-.2l-.2.1c-.6.1-1.1.4-1.5.8l-.3.5-.1.6c0 .3 0 .6.2.9.2.4.6.7 1.1 1h1.4c.3 0 .6 0 .9-.2l.7.6c.2 0 .2.2.3.4.1.4 0 1-.1 1.6l-.6.8-.3-.2c-.7-.3-1 0-1.1.3v.6c.2.2.3.4.6.4h.3c0 .3 0 .5-.2.7a1 1 0 01-.5.6l-.8.2h-.3c-.4 0-.7-.1-1-.3l.3-.7c0-.4 0-.8-.2-1.1l-.4-.2c-.1-.1-.3 0-.4 0l-.3.4-.1.5.1.8v.3a4 4 0 01-1.6 1h-.6l.1 1.2.8-.4zm14.5-10l.4-.1h-.4l-.2.1h.2zm-4.3-5l.5-.3s.3 0 .4.2l.1.4c0 .2-.3.5-.5.5h-.3l-.1-.3V97zm-5-2.5c-.2 0-.4-.4-.6-.6 0-.2 0-.5.2-.6h.5c.2 0 .3 0 .5.2.4.2.6.5.8.9-.4.2-.9.2-1.3 0zm.3 3.2c-.2.2-.5.2-.8 0v-.2l.1-.1c.3 0 .5 0 .7.2v.1zm13.1 22.1l-1.4 1.1 1.5 18.2v-19.3z"/><path d="M119.6 203.7l-1.2.3c2.8-1 .7-7.2 1-9.8-.5-10.2-1-19.8-1.8-29.8l.7-2 1.5-4 2-5.8v-.2l.5-1.1.5-1.6.6-1.5.2-.8.4-1 10.4-29.6c-.9-2.5-5.4-2.3-6.8-2h-.3l-7.9 24.2-.7 2.2-1.2 3.8v.1c-1-.2-2-.3-3-.1-1 .2-2 .7-3.1 1l-.8.2-.1-.5-.6-.7-1.3-1.3-2.7-3.6-1.4-1.5-.6-.8-.5-.8-.5-.8-.2-.1a8 8 0 00.3-2.4l-.2-3.7-.1-2.4h-.7v8c-.9 0-1.7.7-2.6.7.1-4.3-.8-1.6-4.8-2.9 1.1.7 2.5.6 3.8 1 .4.6-.1 1.5.2 2.3.9 1.2 2.5-.4 3.5-.2.1.1 5.3 7.2 7.7 9.5-.8 1.6-1.7 3.3-3 4.5h.8c.7.4 1.5 1 2.3 1.3 1.5.8 3 1.5 4.7 1.8h.2v.1l-1.8 5.6c-1 .1-2.1 0-3.2 0l-5-.7c-2-.2-4-.6-6-1l-4-1-1.6-.4-3-1v.3c.8.2.3 1 .4 2.5.2 4.2.2 13.8.3 24.2.1 11.2 0 16 1 18.1 1.9.8 4.6 1.5 7 2 2.6.4 4.8.4 5-.5.3.2.4.6.5 1l2-5.3h.2l.5-1.3.9 3.2c.7 1.3.7 3.5 2.3 4-.5.2-1 0-1.4-.2-.1-.1-.1 0-.1 0 0 1.4 0 3 1.5 3 .2 0 .4 0 .5-.2 2.6-.6 5.7-1.3 8.7-2.2zm1.7-56h.3-.3zm-4.4-.5s-.1 0 0 0h-.2.2zm.8.3zm-8.3 15.4c1-.3 1.2.5 1 1-.1.2-.4.3-.7-.2-2.7 1-1.5 7-2 11a6 6 0 01-1 2.8c1.1-4.3-1.5-12.4 2.7-14.6zm11.6 61.8c.5 0 1 0 1.3-.2-1.6-1.6-.8-14-2.3-15.6a30.3 30.3 0 01-9 2c-1.9 1.3-.6 3.7-.4 5.6.5 3 1 6.5 1.7 9.3 2.3-.2 6.1-.6 8.7-1zm-18.9-16.4c-.7.8-3 1-5.7.6-2-.2-4.2-.6-6.3-1.4-3.7 2.6-3.1 11.2-5.4 15.4-1 1.2.7 1.4 1.4 1.7 1 .4 2 .8 3 1l1.8.4c0 .3-.1.5-.3.8l-1 2.7c-1-.1-2-.5-2.8-1-.4-.2-1-.6-1-1l.3-.9c-.3-.2-.6-.1-.9 0l-.4.7-1 1.7c-.1.4-.4 1-.4 1.4 0 .6.3 1 .7 1.5l4 2.4v.3l4.3 1.6 2.2.8c2 .6 4.8 1 5.7.6.4-.2.7-.4.8-.8 0-.5-.5-.8-1-1-1-.6-2-1.2-3-2a50 50 0 01-3.3-.4h-.4l9-25.6-.3.5zm-10.5 26.4v-.3.3zm1.7-5l.1-.3v.2zm36.1-2.3l-3.6-1a23 23 0 01-1.8 2c-.5-.8-.8-1.6-1-2.6-.4 0-.7-.2-1-.3-2 .5-5 .6-7 1-.8 0-2 .4-2.8.2l-.3 3.6c0 .6.1 1.3.7 1.6.2.2.4.2.7.2l1-.3c2.4-1 5.2-.6 7.7-.8a17.6 17.6 0 007.7-2.6c.2 0 .3-.2.4-.3v-.1c0-.4-.4-.6-.7-.6zm-10 70.7l-.3.2.2-31v-30.8l-4.5.5.2 8.2.1 7 .1 3.6 1.3 56.3.2 9s0 2.5 2.7 0v-23zm-34.5-54l-3 9.2-1 3.4-10.2 31.6-6.1 18.5c-.5 1.4-1 2.7-1.3 4l-.9 2.4-3.8 11.7s-.9 2.4 2.4 1l5.3-15 5.1-14.6L85 256.7h.3l1.2-3.4 3.1-9 1.4-3.6-4.3-1.6-1.7 5z"/></g><path fill="#FFF" fill-rule="nonzero" d="M119.4 232l.2 89.5c-2.7 2.4-2.7-.1-2.7-.1l-2.2-89 4.7-.4z"/><path stroke="#C99F62" d="M119.3 139.3v-39.2s-1.4-.6-3.2.2"/><path fill="#FFF" fill-rule="nonzero" d="M119.2 100.1l.1 38.5-2 6-1.2-44.3c1.8-.8 3.1-.2 3.1-.2z"/><path fill="#CADEED" fill-rule="nonzero" d="M85 257l2.2-.1a845.4 845.4 0 0027.9-.8l.5 44.5c-5.3 3-7.8 4.7-9 5.9-1 1-1.1 1.7-1.1 2.7 0 .4 0 1-.2 1.8l-.1.2-.1.1-.7.3c-1.8.6-6.1 1.1-11.9 1.5-5.6.3-12.6.5-20.2.5h-6.6L84.9 257zm-78.7-3c3 .8 9.4 1.4 18.3 1.9 12.3.7 29 1 47.7 1H75c2.4 0 4.9 0 6 .2a22113.9 22113.9 0 01-18.5 56.5c-6.8-.2-12.6-.6-16.9-1a35.7 35.7 0 01-6.3-1.2l-.2-.2v-.2l-.2-1.5c0-1.2-.2-2-2.5-3.8-1.9-1.4-5.6-3.6-12.4-7.5a32 32 0 01-12.3-15.5 100 100 0 01-6.7-29l1.3.4zm112.9 44.6c.2-13.7.2-30.2.3-42.7 1.6 0 3.2-.2 4.6-.3l4.6-.3v3.9a2490.6 2490.6 0 00.8 29.5 33 33 0 01-4 5.2 21 21 0 01-5 4l-1.3.7z"/><g transform="translate(7.5)"><g fill-rule="nonzero" transform="translate(134.2 102.1)"><ellipse cx="58.6" cy="5.1" fill="#9EB7C6" rx="58" ry="4.6"/><path fill="#4F8E99" d="M.5 34.4c0 .2.1.4.3.4.1.2.2.3.4.3l1 .4 2 .5 4 .6 8.1.8 16.3.9a573.3 573.3 0 0065.5-.8c2.7-.2 5.5-.4 8.2-.8 2.7-.3 5.4-.7 8-1.4l1.8-.7v-14h.7c0 .4-.2.5-.3.7l-.4.2-1 .4a32.7 32.7 0 01-5.4 1.1l-7.2.9a690.6 690.6 0 01-87.9-.3l-7.3-.9-3.6-.7-1.8-.5-.8-.3c-.3-.2-.5-.4-.5-.6 0 .3.3.4.6.6.3.1.5.3.8.3l1.8.5 3.6.6a344.9 344.9 0 0021.9 1.7 689.5 689.5 0 0073-1.1l7.3-.8 3.6-.7 1.7-.4.8-.4.4-.3h.7v14.1l-.3.3c-.3.3-.7.4-1 .5l-1 .4c-2.7.7-5.4 1-8 1.4a326 326 0 01-41 1.8 596.5 596.5 0 01-49.1-1.5c-2.7-.3-5.5-.5-8.2-.9a69.3 69.3 0 01-6-1.2l-1-.4-.4-.3c-.2 0-.3-.2-.3-.4z"/><path fill="#4F8E99" d="M.5 20.6a57.6 57.6 0 010 13.8 57.6 57.6 0 010-13.8z"/></g><path fill="#4F8E99" fill-rule="nonzero" d="M250.4 123.4l.6-2 .5-1.9.3-2c.2-.7.2-1.3.2-2 0-1.3-.1-2.6-.4-4-.3-1.2-.7-2.5-1.4-3.6a10 10 0 011.9 3.5 13.5 13.5 0 01-.1 8.2l-.7 2-1 1.8zm-115.5-16.2a14.4 14.4 0 00-1.8 7.7l.1 2c0 .7.2 1.3.4 2 0 .7.3 1.3.4 2l.7 1.9-1-1.8c-.1-.6-.5-1.3-.6-2a13.5 13.5 0 01-.1-8.1c.3-1.4 1-2.7 1.9-3.7z"/><g fill-rule="nonzero"><path fill="#C5505D" d="M149.1 87.5a2 2 0 001-.3l-1.4 1.1-1.1.7-.5.1h-.2v-.2l.5-.5c.3-.3.8-.5 1.2-.7l.4-.2z"/><path fill="#FFF" d="M149.1 87.5l1-.3.3-.2-.2.2-.7.7-.7.7c-.3.2-.5.4-.9.5l-.5.2h-.3s0 .2-.3 0h-.4l.2-.3.5-.6.7-.3 1.3-.6zm0 0l-.6.4c-.2.1-.5.2-.6.4l-.5.5c-.1.1-.3.3-.3.5l-.2-.4c.1 0 .5-.1.7-.3l.9-.4 1.6-.9v.2a3 3 0 00-1 0z"/><path fill="#C5505D" d="M150.3 86.1l-1.4.6h-.4c-.5.1-1 .1-1.6 0l-.5-.1-.2-.1.3-.2c.3-.2.6-.2.8-.2.5-.2 1-.2 1.6-.2l1.4.2z"/><path fill="#FFF" d="M150.3 86.1l-1.4.7c-.6.2-1.3.3-2 .2h-.4l-.2-.1-.3-.2-.3-.2.3-.2.2-.1h-.1l1.1-.3h1.1l1.1.1 1 .2zm0 0h-2l-1.1.2-.8.4v.1-.5.1h.2l.4.2h1.8l1.6-.2v-.3z"/><path fill="#C5505D" d="M151 84.6l-.3-.3-.8-.6-.5-.4-.2-.5V82l.3-.1c.3 0 .6.3.8.5.4.6.7 1.4.8 1.9v.3z"/><path fill="#FFF" d="M151 84.6s-.2 0-.3-.2l-.4-.2-.7-.5-.3-.2-.4-.4v-1.2l.2-.4h.1c.5 0 .8.3 1 .6l.4.7.2.8c.2.3.3.6.2.9zm0 0c-.1-.3-.3-.5-.3-.8l-.4-.7-.5-.6a.6.6 0 00-.4-.3l.2-.2v.2-.1.1l-.1.7.1.2.3.3.6.6.2.2.3.4z"/><path fill="#C5505D" d="M153.8 81.2c.3.1.3.3.2.6-.1.6-.6 1.2-.8 1.6l-.4.5-.5.7-.1.2v-.9l.5-1.5.5-.9.3-.3h.3z"/><path fill="#FFF" d="M153.8 81.2c.1 0 .3.2.3.4l-.1.5c0 .4-.3.7-.4 1-.3.6-.6 1.3-1 1.8l-.8 1 .1-1.2v-.5l.2-.6.4-1 .5-.9.4-.4s.2-.2.4-.1zm0 0c-.2 0-.4 0-.4.2-.2.1-.2.3-.3.4-.1.3-.3.6-.3 1l-.1 1v1l-.7-.2.5-.9.7-.7.6-.9.2-.4-.3-.5z"/><path fill="#C5505D" d="M157.7 82.7v.1l-.2.2-.6.5a11.2 11.2 0 01-3.4 1.5l-.5.2.2-.2c.2-.2.3-.4.6-.5l1.7-1.5 1.3-.4h.9z"/><path fill="#FFF" d="M157.7 82.7l-.2.3-.3.2-.4.4-1.2.7-1.1.7-1.2.5-1.6.5 1-1.2.6-.5c.2 0 .3-.2.6-.4l1-.8c.6-.3 1-.5 1.5-.5l.7-.1c.2 0 .4 0 .7.2zm0 0a2 2 0 00-1.4 0 4 4 0 00-1 .7l-1 1-1 1-.4-.6 1.2-.4 1.4-.3 1.3-.5c.2 0 .3-.2.5-.4l.2-.2.2-.3z"/><path fill="#C5505D" d="M158 86.7l-.4.2-.5.3h-1.2l-1.1-.1-.3-.2-1-.6-.4-.3h1c.2 0 .3 0 .5-.2h1.5a2.7 2.7 0 011.8.6l.2.3z"/><path fill="#FFF" d="M158 86.7l-.4.2-.2.2-.7.2-1.3.1c-.5 0-1-.2-1.3-.5l-1.2-.6-.7-.3.9-.3h2.8c.4 0 1 0 1.3.2.3 0 .5.2.6.4l.2.2v.2zm0 0c0-.1 0-.2-.2-.2l-.2-.2a2 2 0 00-.6-.3c-.4-.2-.8-.2-1.2-.2a4 4 0 00-1.3.3h-.6l-.6.2h.1-.1v-.8l1 .8c.4.3.8.5 1.2.5l1.2.1.7-.1h.3l.3-.2z"/><path fill="#C5505D" d="M151.3 87.6v1.2l-.3 1-.4 1-.4.7-.2.2v-.8c0-.5.2-1 .3-1.4l1-1.8z"/><path fill="#FFF" d="M151.3 87.6v2.2l-.4 1.1a2 2 0 01-.6 1.1l-.4.3v-1.7c0-.3.2-.7.4-1 .2-.7.6-1.3 1-2zm0 0l-.8 2c0 .4 0 .8-.2 1.1v1l-.4-.3h-.1c.2-.1.3-.5.5-.8l.5-1 .5-1v-1z"/><path fill="#C5505D" d="M153 85.1l.5-.1 2-.8a4 4 0 001.3-.7l.6-.4.2-.2v-.4h-1a2 2 0 00-1.2.5c-.7.4-1.2.9-1.7 1.3a4 4 0 00-.6.5v.3z"/><path fill="#FFF" d="M153 85.1l.6-.3.7-.3 1.1-.6 1.1-.6.5-.3.2-.2.2-.2h-.1v.2-.1l.2.1a3 3 0 00-1.2 0c-.4.1-.7.4-1 .6l-1.2.8-1 1zm0 0l1-1a6.4 6.4 0 012-1.8h1.8l.2.3v-.1.3c-.1.2-.3.2-.3.4l-.3.2-.6.4a9.8 9.8 0 01-2.5.9l-1.3.3z"/><path fill="#C5505D" d="M158.5 86c.2.2.3.5.3.8 0 .2-.1.5-.4.7a3 3 0 01-1.1.4 4.5 4.5 0 01-2.8.1l-.5-.3-.9-.6.2.4c.2.5.5 1.2.6 2v1.3c0 .3 0 .7-.3 1l-.5.7c-.4.2-.6 0-.9-.1l-.2-.5-.2-.6-.1-.6-.3.6c-.1.3-.4.9-.7 1.2l-1-.1h-.4c-.2-.5 0-1.2 0-1.4 0-.5.2-1.1.4-1.6v-.1l2-2v-.5a.4.4 0 00-.6 0l-2.4 2.4-.4.5-.4.2-.8.2c-.3 0-.6 0-.8-.2-.3-.2-.3-.6-.2-1 .2-.4.8-.9.9-1l.1-.2h-.3l-1-.4a.8.8 0 01-.4-.6c0-.3.1-.6.4-.8l1.3-.4.5-.1V85c0-.4.3-.9 1-.9h.5l-.6-.7v-1c0-.3.2-.5.3-.7.2-.3.4-.3.6-.3.6 0 1 .3 1.5.9.3.3.4.7.6 1.2 0-.5.2-.8.4-1.2l.6-1c.2-.2.5-.5.8-.5.2-.1.5-.1.8 0 .5.3.7.7.7 1.1 0 .4-.2.7-.3 1l-.1.3.7-.4c.4-.3 1-.6 1.5-.7.4 0 1 0 1.4.2l.5.5-.1.9-1 .9-1.3.7h.3c.5 0 1 .2 1.4.4 0-.2.4 0 .6.3z"/><path fill="#FFF" d="M158.5 86c.2.2.3.6.3.8 0 .4-.2.6-.5.8a5 5 0 01-3.5.5c-.6-.2-1.1-.6-1.6-1 .4.6.6 1.3.8 2 .1.7.3 1.4 0 2.1 0 .4-.2.7-.4 1l-.5.4a1 1 0 01-.6 0c-.5-.2-.6-.7-.7-1l-.2-1 .2.1-.4 1-.6.9h-.3l-1.4-.1h-.1l-.1-.1v-1.7c0-.3 0-.6.2-.8l.3-.7 1.4-1.5c.2-.2.5-.6.4-.7 0-.1 0-.1-.2 0l-1.2 1.4-1.4 1.6v.1h-.1c-.3.2-.8.4-1.2.4-.5 0-1 0-1.4-.5-.2-.2-.2-.5-.2-.8.1-.3.2-.5.4-.6a4 4 0 011-1v.7l-1.1-.3c-.3-.3-.6-.4-.7-.7a1 1 0 01-.1-.9c.2-.5.7-.8 1-1 .5 0 1-.2 1.4-.3l-.2.4c0-.3-.1-.5 0-.8 0-.3.1-.5.4-.7l.8-.3h.7l-.2.6h-.1a2 2 0 01-.6-1v-.8c0-.3 0-.6.2-1 .1-.2.4-.5.8-.5.7-.1 1.2.2 1.7.7.4.4.6 1 .8 1.4h-.4c.3-.5.3-1.2.7-1.7l.5-.6c.2-.2.5-.5.9-.5.3 0 .6 0 .9.2.2.1.4.5.5.7.1.7-.1 1.3-.4 1.8l-.1-.2.9-.6c.2-.2.6-.3 1-.4h1c.3 0 .6 0 1 .3.3.2.4.6.3 1l-.7.8c-.5.4-1.1.8-1.7 1l1.3.3c.4.2.8.5 1 .8zm0 0a4 4 0 00-1.1-.8l-1.3-.2h-.1c.7-.3 1.3-.7 1.8-1.1.3-.2.5-.5.7-.9.1-.3 0-.7-.3-.9-.3-.2-.6-.2-1-.2l-1 .1a3 3 0 00-1 .4l-.7.6-.3.2.2-.3c.2-.5.4-1.1.3-1.6-.2-.5-.8-.9-1.3-.7l-.7.4-.5.7-.5 1.5-.1.5-.3-.5a6 6 0 00-.7-1.2c-.4-.3-.8-.6-1.3-.5-.4 0-.5.5-.5 1 0 .6 0 1 .4 1.3l.7.6h-1.5a1 1 0 00-.4.1c-.2.2-.2.5-.2.8l.2.3h-.5l-1 .4c-.4.1-.7.3-.8.6 0 .3 0 .5.4.6l1 .3h1l-.7.5a4 4 0 00-.8.8c-.2.3-.3.5-.2.7 0 .1.4.3.7.2a4 4 0 001-.4l-.1.1 1.4-1.5 1.4-1.5c0-.2.4-.2.7-.2l.4.3.1.4-.1.4-.2.3-.4.3-1.4 1.4-.2.7-.2.7-.1.8v.7h-.2l1.6.1h-.3c.3-.1.5-.4.6-.7l.4-1 .2-.4v.5c.2.3.2.6.3 1 0 .3.2.6.5.8.3 0 .6 0 .8-.3l.5-1c.2-.5.1-1.3 0-2s-.4-1.3-.6-2V87l1.6 1h1.7a4 4 0 001.8-.5c.2-.1.4-.4.4-.7.1-.3 0-.6-.2-.8z"/><g><path fill="#C5505D" d="M157.9 86.8l-.1-.3-.5-.4c-.4-.2-1-.3-1.4-.3l-1.5.1h-.4l-.9.3.4.2.9.6.3.3 1.1.2 1.3-.3c.1 0 .4 0 .6-.2l.3-.2z"/><path fill="#FFF" d="M157.9 86.8c0-.5-.5-.7-.9-.8-.4-.2-.8 0-1.2 0h-1.3l-.6.2h-.6.1-.1v-.5l1.2.8 1 .6a3.8 3.8 0 001.9 0l.3-.2h.2zm0 0l-.3.1-.2.2-.7.2c-.4.1-.9.2-1.3.1-.5 0-1-.2-1.3-.4l-1-.5-.7-.4.6-.3h1l.6-.2h1.3c.4.1 1 .2 1.3.4.3 0 .5.2.6.3 0 .1.1.2.3.2v.3z"/></g><g><path fill="#C5505D" d="M154 81.8c0-.3 0-.5-.2-.6h-.3c-.2 0-.3.2-.4.3l-.5.9-.4 1.5v.8l.1-.2.5-.7.3-.5c.2-.4.7-1 .8-1.6z"/><path fill="#FFF" d="M154 81.8l-.1-.5c-.2-.2-.4 0-.5 0-.3.4-.4.8-.5 1.1l-.2 1.3-.2 1-.5-.2.5-.6.6-.6c.3-.5.8-1 .9-1.5zm0 0c-.1.6-.5 1-.7 1.6l-.8 1.5-.6.8v-2.2l.6-1.2.8-1 .3-.1h.3c.2.2.2.5 0 .6z"/></g><g><path fill="#C5505D" d="M153.3 90.6l-.1-1.5-.5-1.4-.3-.7v.7a19.4 19.4 0 00.3 3.2l.2.4v.2c.1 0 .3-.2.3-.4l.1-.5z"/><path fill="#FFF" d="M153.3 90.6c0-.6 0-1.3-.4-1.8l-.4-.8-.4-.9.6-.1v.3l.1 1.1v3.1c.3-.2.4-.6.5-1zm0 0l-.1.5-.3.5c-.4-.7-.7-1.5-.8-2.1v-2.4l-.3-2.8.8 2.6.2 1 .2.8.1 1 .1.9z"/></g><g><path fill="#C5505D" d="M151.3 88.9v-1.3l-.9 1.8a5 5 0 00-.3 1.5l-.1.7v.2l.3-.3.4-.8.4-1 .1-.9z"/><path fill="#FFF" d="M151.3 88.9v-1.3l-.7 2.3-.2 1v.5l-.1.5-.4-.2.4-.8.5-.6c0-.3.2-.5.3-.8l.1-.8zm0 0l-.2.7-.2.8-.2.7c0 .3-.2.6-.4.8l-.2.1-.2.1-.1-.4v-1.1l.5-1.1c.3-.7.8-1.4 1.2-2h.1v.2c-.2.4-.3.7-.3 1.1z"/></g><g><path fill="#C5505D" d="M150.6 84.3l.4.3v-.2c-.1-.4-.3-1.3-.8-1.9-.2-.3-.6-.5-.8-.5h-.1v.9l.1.4.5.4.8.6z"/><path fill="#FFF" d="M150.6 84.3l.4.3c0-.3-.2-.5-.3-.8l-.4-.7-.5-.5c0-.2-.2-.3-.4-.3l.3-.2v.2l-.2.6c0 .2 0 .3.2.5l1 .9zm0 0l-1-.8-.4-.1c-.2 0-.3-.2-.3-.4v-1.3l.2-.2h.2c.5 0 .8.3 1 .5l.4.8.2.8.1.8-.3-.1z"/></g><g><path fill="#C5505D" d="M150.6 85.3l-.3-.1c-.3-.1-.6-.3-1-.3a4 4 0 00-.7-.2s-.3 0-.3.2h.2l.3.2h.2a6 6 0 011.6.2z"/><path fill="#FFF" d="M150.6 85.3h-.4l-.2-.2h-1.4l.2-.2v-.2l-.1-.1c.2 0 .4.2.5.4l-.2-.1h.4l.3.2.9.2zm0 0l-.8.1h-1l-.2-.1-.1-.2h-.4v-.4c-.1-.3.2-.3.2-.3h1l.8.4.3.2.2.1c-.1.2 0 .2 0 .2z"/></g><g><path fill="#C5505D" d="M150.2 86.2l-1.3-.1h-1.7l-.8.3-.2.2h-.1l.2.1.6.2h1.9c.5-.4 1-.7 1.4-.8z"/><path fill="#FFF" d="M150.2 86.2c-.6 0-1.3-.2-2 0h-1l-.8.5v-.4l.1.1h.2l.3.2a4 4 0 001.9.1l1.3-.5zm0 0l-1.4.5c-.6.2-1.3.3-2 .2h-.6c-.1 0-.2 0-.3-.2l-.4-.1.4-.3.1-.2 1.1-.1h2.1l1 .2z"/></g><g><path fill="#C5505D" d="M150.1 87.2a2 2 0 01-1 .3l-.5.2-1.2.7-.5.5-.1.2h.2l.5-.1 1.1-.7 1.5-1z"/><path fill="#FFF" d="M150.1 87.2l-1 .4a6.9 6.9 0 00-1.7 1.2l-.3.4-.2-.3c-.2 0 0 0 0 0h.2l.5-.2.8-.3.8-.4 1-.7zm0 0l-.7.7-.7.7-.9.5-.4.3h-.3s0 .1-.4 0h-.5l.3-.5.6-.6.6-.4 1.3-.4 1.1-.3z"/></g></g><path fill="#FFF" fill-rule="nonzero" d="M189.2 95.7l-1.7-.5-4.7-1.4"/><path fill="#4F8E99" fill-rule="nonzero" d="M253.5 114l.3-.3c-.1.2-.3.2-.3.4z"/><path fill="#4F92C4" fill-rule="nonzero" d="M249.7 147c0-.3.2-.5.4-.5s.3.1.4.4c-.3 0-.5 0-.8.2v-.2zm-20.1 211.3c.2 0 .4 0 .4.3.1.2 0 .4-.2.5l-.2-.8z"/><path fill="#4F8E99" fill-rule="nonzero" d="M202.2 102zm-12.8-6.3z"/><path fill="#4F92C4" fill-rule="nonzero" d="M155.7 145.5c1.3.1 21.5 1.8 47 1 14.7-.3 31.1-1.6 46.7-4.4.3 0 .4.1.5.3 0 .2-.2.4-.4.5a318 318 0 01-46.9 4.6c-26.2.7-47-1.1-47-1.1l-.3-.1a.4.4 0 01-.2-.3c.1-.4.3-.6.6-.5z"/><path fill="#4D876D" fill-rule="nonzero" d="M151.9 86.4l-.2.3c0-.2.1-.2.2-.3zm-1.9 2l-.5.4 2.2-2.2-1.8 2 .2-.2zm-.2 5.6l-4-.4.2-.3c1.3-.3 2.7 0 3.8.6zm-4.2-.2h-.6l.2-.3h.5l-.1.3z"/><path fill="#4D876D" fill-rule="nonzero" d="M145.3 93.4l4.2-4.6.5-.4-.1.3-3.6 4.1-1 .6zm.3.4l-1.5 1.6c.2-.3.4-.7.4-1.2l.4-.4h.7zm-.3-.4l1.1-.6-.4.5-.7.1c0 .1 0 0 0 0zm0 .1l.8-.2-.3.3h-.5zm0 0z"/><path fill="#4D876D" fill-rule="nonzero" d="M144.4 93.9l.8-.4-.2.4h-.6zm.9-.5l-3.7-5.4c2 1 3.4 3.2 3.7 5.4zm-.7.9c0 .4-.3.8-.5 1.2a6 6 0 00-1 .7l1.5-2zm-.5 1.2z"/><path fill="#4D876D" fill-rule="nonzero" d="M144.1 95.5l-.7 1-1.1.7.7-1 1.1-.7zm-2.5-7.5l3.7 5.4c-.6-1-1.7-1.6-2.8-2-1.1-.4-2.2-.8-3.2-1.6-1-.6-1.7-1.8-1.4-3 .2-1 1.3-1.8 2.4-2a4 4 0 013 1.3 8 8 0 011.6 3c.4 1.4.6 2.8.5 4.3a8 8 0 00-3.8-5.4z"/><path fill="#4D876D" fill-rule="nonzero" d="M143.4 96.4l-1.5 1.8h-.1v-.4l.5-.7c.4-.1.7-.3 1-.7z"/><path fill="#4D876D" fill-rule="nonzero" d="M141.9 98.2l-2.9 3.4 2.8-3.7v.3z"/><path fill="#4F92C4" fill-rule="nonzero" d="M134.3 137.5c.2-.2.4-.2.6-.1.2.1.2.3.1.5h-.9l.2-.4z"/><path fill="#4F92C4" fill-rule="nonzero" d="M253.5 142a7.7 7.7 0 00-2.8-2.3c-.2 0-.4 0-.5.2-.1.3 0 .4.2.5 1.2.7 2 1.4 2.5 2.1.4.6.6 1.2.3 1.8-.2.4-.6.8-1 1-.9.5-2.1 1-3.8 1.2a691.8 691.8 0 01-48.7 4c-5.7-.1-17.7-.1-27.6-.4-4.8-.1-9-.3-11.7-.5l-9-.9a143.7 143.7 0 01-17.8-3l-.7-.4c-1.4-.5-1.8-1-1.7-1.8a4 4 0 011.2-1.8l1.2-1c0 .6.4 1.2.8 1.7.7 1 2.1 1.8 4.5 2.2 5 1 7.9 1.4 9.2 1.6l.3-.2c.2-.3.4-.4.6-.5l-.8-.1c-1.4-.2-4.3-.6-9.3-1.6-2.1-.4-3.3-1-4-1.8-.4-.6-.7-1.3-.7-1.8.1-.1.1-.2 0-.4.1-1 .6-1.7.7-1.9h-1c-.1.3-.4 1-.5 1.8-.4.3-1.4 1-2.1 1.8-.6.6-1 1.3-1 1.9-.2 1 .2 2 2.1 2.7l.5.1.8.3c2.3.7 5.9 1.4 9.7 2A241.8 241.8 0 00172 151l27.6.4a698.6 698.6 0 0048.8-4l1.3-.2v-.1c0-.2.2-.4.4-.4s.3.1.4.3c.8-.2 1.5-.5 2-.8.7-.4 1.1-.9 1.4-1.4.3-.9.3-1.7-.4-2.7z"/><path fill="#000" fill-rule="nonzero" d="M122.9 229.2s.2 0 .3-.2c0 .2-.2.2-.3.2z"/><path fill="#1D1D1B" fill-rule="nonzero" d="M94 110.2l.3.1.1.2c-.2 0-.3-.2-.3-.3z"/><path fill="#000" fill-rule="nonzero" d="M85.9 229.9v-.2.2z"/><path fill="#C99F62" fill-rule="nonzero" d="M84.3 234.7v.3-.3z"/><g fill="#000" fill-rule="nonzero"><path d="M145.3 93.5l1.2-.5c.4-.2.9-.2 1.3 0 .8 0 1.6.3 2.2 1l-2.5-.5h-2.3zm1.8 7l.9-.8a1 1 0 000-1c0-.2-.3-.3-.7-.3l-1 .2c-.8.2-1.5.6-2.2 1l-1 .8-.1.4c0 .1.2.3.4.3-.2 0-.5 0-.6-.2-.2-.3 0-.6 0-.7.2-.4.5-.7.9-1a5 5 0 012.2-1.2 4 4 0 011.4-.3c.2 0 .4 0 .7.2l.4.2.2.3c.2.6 0 1-.4 1.4a2 2 0 01-1 .7zM133.9 100.8a9 9 0 011.7-3.6c.9-1 2-1.8 3.4-2.2 1.3-.3 2.6-.2 3.7-.7.3 0 .6-.2.8-.3.2 0 .3-.1.4-.3l.2-.1h.6l.3.2v.5c0 .4-.2.7-.5.9.2-.3.3-.6.3-1l-.1-.3-.3-.1-.2.2-.5.3a2 2 0 01-.9.5c-1.2.6-2.6.5-3.8.9-1.1.2-2.2 1-3 1.8-.8 1-1.5 2-2 3.2z"/><path d="M147.7 97c.3-.3.6-.6.7-1 .1-.3 0-.7-.2-.8l-1-.1a6.9 6.9 0 00-3.2 1c-.7.3-1.3.8-1.8 1.4l-.2.3v.4c0 .2.3.3.6.2l.8-.4c-.2.2-.4.5-.8.6h-.5c-.2 0-.4 0-.5-.2v-.2l-.1-.3v-.3c0-.2 0-.3.2-.5a4 4 0 011.8-1.6c.7-.5 1.4-.8 2.2-1h1.3c.4 0 .9 0 1.3.3.2.1.3.3.4.6l-.1.7c-.2.4-.5.6-.9.9z"/><path d="M148 98.2c.3-.2.2-.7 0-.9-.2-.2-.5-.2-.8-.2-.7 0-1.4.1-2 .3-.6.2-1.3.6-1.7 1l-.7.9-.1.4c0 .1 0 .3.3.3a.5.5 0 01-.5-.3v-.6l.5-1a4 4 0 012-1.4c.7-.3 1.4-.4 2.2-.3.2 0 .4 0 .5.2.3.1.4.3.5.5.1.2.2.4.1.6 0 .3-.1.5-.3.5z"/></g><g fill-rule="nonzero"><path fill="#4D876D" d="M253.3 382.1c-4-.3-7.7-1.8-10.9-4a42 42 0 01-8.5-7.8c-2.5-3-5-6-7.3-9a90.2 90.2 0 01-6.4-9.7 53 53 0 01-4.6-10.8 34.8 34.8 0 01-1.2-13c0-.5 0-1 .2-1.5.2-1 .4-2 1-3 .6-.9 1.5-1.6 2.4-2 1-.5 2-.6 3-.7 1 0 2 0 2.9-.2a7 7 0 002.5-.9 3 3 0 001.3-2v-3.3l1.1.4.3-.2c0-.2.2-.2.3-.4v-.3l.1-.3c0-.5.1-1 .6-1.5.2-.2.5-.5.9-.5.3 0 .7 0 1 .2l.5.4c.2 0 .3.2.5.3.4.1.7.3 1.1.3.8 0 1.6-.1 2.3-.5.7-.3 1.3-.9 1.6-1.5.1-.3.1-.5 0-.8l-.8-1-.4-.7c0-.3 0-.7.2-1 .2-.5.7-.8 1.3-.9 1-.2 2 .1 2.7.1 1.6 0 3.3-.6 4.3-2a5 5 0 00.6-4.7l-1.4-2.2c-.5-.6-1-1.5-1.2-2.3a8.8 8.8 0 01-.5-5.2 9 9 0 00.7 5.1c.3.8.8 1.5 1.3 2.2l1.5 2.2c.8 1.7.6 3.8-.5 5.3a5.8 5.8 0 01-4.7 2.4c-1 0-1.8-.3-2.5 0a1 1 0 00-.8.5c-.1.2 0 .5.1.7l.9 1 .2 1v.7c-.5 1-1.3 1.7-2.1 2.2-.9.4-1.9.6-2.8.5l-1.5-.3-.7-.4-.5-.3h-.4c-.1.3-.3.6-.3 1v.4l-.2.4-.4.7c-.3.2-.5.4-.9.5h-.7c-.2 0-.4-.2-.5-.4l1-.4c.2 1 .3 2 0 3a4.1 4.1 0 01-1.7 2.8c-1.9 1.2-4 1.2-5.9 1.3-.9.1-1.9.2-2.6.6a4 4 0 00-1.8 1.6 12 12 0 00-1.1 5.3 36 36 0 001.2 11.2c1 3.6 2.6 7.1 4.4 10.5 1.8 3.3 4 6.4 6.2 9.6a229 229 0 007 9.2l3.9 4.3a25.4 25.4 0 0014.6 7.9zm68.2-53.7l-.8 1.3c-.1.5-.1 1 0 1.6.3.4.9.5 1.3 1 .2 0 .4.5.2.7l-.4.7c-.1.5.2.9.5 1.4.3.4.4 1 .2 1.6-.3 1.1-1.2 1.9-1.4 2.8l.1.2v.5l-.3.7-.2.8-.2.7c-.2 1-.1 2.1-.1 3.1s0 2.2-.6 3.2c-.5 1-1.4 1.7-2 2.5a11.3 11.3 0 00-2.1 5.7l-.6 3-1 3.1c-1 2-2.2 3.7-3.7 5.2-.8.7-1.5 1.4-2 2.3-.6.8-.9 1.8-.5 2.7l-.3-.2 3.4.3c1 0 2.2-.2 3.2-.8 1-.5 1.7-1.4 2.4-2.3l2-2.8a84 84 0 003.5-6c1.1-2 2-4 3-6.2a59.1 59.1 0 01-6.2 12.4c-.6 1-1.2 2-2 3-.6.9-1.4 1.9-2.4 2.4a7 7 0 01-3.5.8l-3.5-.2h-.2l-.2-.2c-.2-.6-.2-1.2-.1-1.8.1-.5.3-1 .7-1.5.6-1 1.3-1.7 2-2.4a16.6 16.6 0 005.2-11c.2-1 .4-2 .8-3a8 8 0 011.6-3c.7-.7 1.5-1.4 1.9-2.3.4-.9.5-1.9.6-3 0-1 0-2 .2-3.1l.1-.8.3-.7.1-.4.2-.4v-.3l-.1-.4c.4-1 1.2-1.8 1.5-2.7.1-.5.1-1-.1-1.4l-.4-.7c-.1-.3-.2-.6-.1-.8 0-.3.3-.5.5-.7.1-.2.1-.4-.1-.6-.3-.4-1-.5-1.2-1a2 2 0 01-.1-1.7l.9-1.3z"/><path fill="#4D876D" d="M308.6 372.9a10.9 10.9 0 006.6-.3c.4 0 .8-.2 1.1-.4.3 0 .7-.3 1.1-.4l2.3-.4a12.9 12.9 0 004.1-1.7l2-1.1a14.2 14.2 0 01-6 3.4l-2.2.4c-.6.1-1.3.6-2 .8-.8.2-1.6.4-2.3.4a9 9 0 01-2.4-.1c-.9 0-1.6-.2-2.3-.6z"/><g fill="#4D876D"><path d="M251.8 382.7a62 62 0 01-17.5-1 42 42 0 01-8.3-2.6l-4-1.7a52 52 0 01-17.2-13.5c-4-4.5-7.3-9.3-10.6-14-1.6-2.5-3.3-5-4.7-7.5a29.2 29.2 0 01-3.2-8.2 179.8 179.8 0 01-2-17.5l-.3-8.8c0-2.9 0-5.8.3-8.8.3-3 1-5.9 2.3-8.6a22.2 22.2 0 013.7-5.5l1-.8.8-.6.2-.1v-.1l.2-.4v-1l.1-1.2.2-1c.2-1.4.4-3 .8-4.4.5-1.4 1.3-2.8 2.3-4l3-3.2 3.2-3c1-1 1.8-2.3 2.5-3.5 1.4-2.5 2.5-5.3 4.6-7.5 2-2.3 4.5-4 6.6-5.9 2-2 3.7-4.3 5.4-6.7 1.6-2.4 3.3-4.8 5.3-7a22.1 22.1 0 017.3-5.2c2.7-1.2 5.5-2.1 8-3.5 2.3-1.4 4.3-3.5 6.7-5.4a14 14 0 018.3-3.7l4.5-.1 4.4.2c6 .5 11.7 1.5 17.5 2.4a91 91 0 0017.3 1.1h1.3l-.7 1c-1.9 2.4-3.4 5-4.7 7.7l-.6-.8a2.5 2.5 0 012.7 3.1c-.2.8-.7 1.4-1.5 1.7-.7.2-1.3.2-1.6.5-.3.2-.5.6-.4 1.1 0 .5.2 1 .4 1.5.2.6.6 1.2.6 1.9.1.7 0 1.4-.4 2-.7 1.3-1.8 2-2.9 2.8-1 .6-2.2 1-3.2 1.7a4 4 0 00-1.8 2.6c-.2 1.1-.2 2.4-.7 3.7a5 5 0 01-1.4 1.5l-1.5 1c-.9.6-1.6 1.6-2.4 2.6a41.6 41.6 0 01-5.2 5.1l-3 2.3c-1 .8-1.9 1.6-3 2-.7.3-1.3.5-2 .4-.8 0-1.4-.5-1.9-1l-.8-1.7c-.3-.6-.5-1-1-1l.3-.1c-.2.1-.2.2-.2.4s.1.5.3.7c.3.6.7 1 1 1.8a5 5 0 01-.3 4.1c-1.2 2.5-3.5 4-4.9 6.2l-.7 1.7c0 .7-.2 1.4-.4 2a4 4 0 01-1 1.8 3 3 0 01-2 .7c-1.4.2-2.7-.1-4-.2-.6 0-1.4-.2-1.8 0-.3.4 0 1.2 0 1.9a5.5 5.5 0 01-2 3.5 18.4 18.4 0 01-7.3 3c-.7.1-1.3.2-2 .1a3 3 0 01-1.9-.8c-.5-.4-.8-1.1-1.2-1.6-.4-.5-1-.7-1.7-.8l-2-.1c-.7 0-1.3-.2-2-.4-2.5-.8-4.8-2.4-6.2-4.6 1.5 2.2 3.8 3.8 6.3 4.5a16.1 16.1 0 004 .4c.6.1 1.3.3 1.7.9.4.4.7 1 1.3 1.5 1 .8 2.4.9 3.6.7 1.4-.2 2.5-.7 3.8-1.2 1.2-.5 2.4-1 3.4-1.9 1-.8 1.6-2 1.8-3.2l-.1-1c0-.3 0-.7.2-1 .3-.4.8-.4 1.1-.5h1c1.4.1 2.7.4 4 .3.5 0 1.2-.3 1.6-.7.5-.4.7-1 .9-1.5l.3-2c.2-.7.4-1.3.8-1.9 1.4-2.3 3.7-4 4.8-6.2a4 4 0 00.2-3.5l-1-1.7-.4-1v-.7l.5-.6h.3c.4 0 .8.2 1 .5.3.3.4.6.5.9l.8 1.5c.3.5.7.7 1.2.8.5 0 1 0 1.6-.3 1-.4 2-1.1 3-2l2.8-2.2c1.8-1.6 3.6-3.2 5-5 .8-1 1.6-2 2.6-2.9l1.5-1c.5-.3.8-.7 1-1.2.5-1 .5-2.2.7-3.4a4.8 4.8 0 012.2-3.3c1-.7 2.3-1.2 3.3-1.7a6 6 0 002.4-2.3c.2-.4.4-1 .3-1.4 0-.5-.3-1-.6-1.6-.2-.5-.5-1.2-.5-2l.1-1c.2-.4.4-.8.8-1 .7-.5 1.4-.4 1.8-.6.5-.2.7-.5.9-1 .1-.3 0-.7-.3-1-.3-.4-.8-.6-1.1-.5l-1 .1.4-1c1.2-2.8 2.8-5.5 4.7-8l.5 1c-5.8.3-11.7-.3-17.5-1.1a259 259 0 00-17.4-2.3l-4.4-.2c-1.4-.1-2.9-.1-4.2.1a13.2 13.2 0 00-7.7 3.3c-2.2 1.8-4.3 4-6.9 5.5-2.6 1.6-5.5 2.4-8 3.6a21 21 0 00-7 4.9c-1.9 2-3.5 4.4-5.2 6.9a44.5 44.5 0 01-5.6 6.9c-2.1 2-4.6 3.7-6.5 5.8-1.9 2-3 4.7-4.5 7.3a31.4 31.4 0 01-5.8 6.7c-2 2-4.2 4.1-5 6.7-.4 1.3-.5 2.8-.7 4.2l-.2 1.1-.1 1v1.2c-.2.2-.2.5-.3.7l-.2.3-.3.3-.9.6-.7.7-1.5 1.6c-.9 1.1-1.6 2.3-2.2 3.6a25.8 25.8 0 00-2.2 8.2c-.4 2.8-.4 5.7-.4 8.7a182.5 182.5 0 002.2 26c.7 2.8 1.6 5.5 3 8a138.5 138.5 0 0015 21.4 57.4 57.4 0 0013.3 11.5l3.7 2.2c1.3.6 2.6 1.3 4 1.8a58.5 58.5 0 0016.9 4.1c2.8.3 5.7.2 8.6 0z"/><path d="M251.3 286.1a14 14 0 005.5 2.6l3 .7 3 .7a92.4 92.4 0 0012.2 1.4 91.6 91.6 0 0018.4-.5l1.5-.3c.5 0 1-.2 1.3-.4.5-.2.8-.4 1-.7.4-.2.4-.5.3-.9l.1.3c-.1-.1-.3-.2-.6-.1-.3 0-.6.3-.8.5l-.2.3v.5c0 .3 0 .7.2 1 .3.7.9 1.5 1.4 2.2a22.1 22.1 0 0010.2 7.5c1.7.5 3.4 1 5 2.1.5.3.8.7 1 1.1.4.4.6 1 .7 1.5.2 1 0 2 0 2.8a8 8 0 002.2 6.8c.6.6 1.3 1 2 1.8.6.7 1.3 1.5 1.4 2.5.2 1 0 2-.2 2.9l-.6 2.4c0 .8.2 1.6.7 2.1a4 4 0 002 1.1l2.5.4c1.8 0 3.6.2 5.3 0 1.7-.2 3.4-.6 4.8-1.6.7-.4 1.3-1 1.8-1.8.6-.6 1.2-1.4 2-1.8.9-.4 1.8-.6 2.4-1.1.7-.5.9-1.4 1.2-2.2a4.7 4.7 0 014.4-2.7 4.5 4.5 0 00-4.1 2.7l-.5 1.3c-.1.4-.4.8-.8 1-.8.7-1.7 1-2.4 1.3-.8.3-1.3 1-1.8 1.8-.5.7-1.2 1.4-1.9 2a11.5 11.5 0 01-5.1 1.8c-1.8.2-3.6.2-5.4 0-1 0-1.8 0-2.7-.3-1-.2-1.9-.5-2.6-1.3-.3-.4-.6-.9-.7-1.4-.2-.4-.2-1-.2-1.5l.5-2.7c.2-.8.4-1.6.2-2.3-.1-.7-.5-1.4-1.1-2-.6-.6-1.4-1-2-1.7a9.5 9.5 0 01-2.7-7.8c.2-1 .3-1.8 0-2.4 0-.4-.1-.7-.3-1a4 4 0 00-.8-.8c-1.2-1-3-1.4-4.7-1.9a22.6 22.6 0 01-12.2-10.4c-.4-.9-.7-2.1.2-3.1.3-.5.8-.8 1.4-1 .6 0 1.4 0 1.8.6v.2l.2.1a2 2 0 01-.5 2 4 4 0 01-1.5 1c-.5.2-1 .5-1.6.5l-1.6.2-6.2.5a107.1 107.1 0 01-24.7-2.1l-3-.7-3-.8c-2-.6-3.9-1.5-5.4-2.9zm62.5 86.9c3.5-.1 7-.3 10.1-1.2 1.6-.5 3.1-1.1 4.4-2.1 1.3-1 2.3-2.3 3.4-3.6 1.1-1.3 2.2-2.7 3.7-3.8l2.3-1.4 2.3-1a15 15 0 006.4-7.6 13.7 13.7 0 01-8.1 9.7c-.8.4-1.5.9-2 1.3-1.3 1-2.4 2.4-3.5 3.7a21.2 21.2 0 01-3.7 3.7 13 13 0 01-5 2.2c-3.4.7-6.9.5-10.3.1z"/><path d="M339.6 353.1c3.5.4 7.1-1 9.6-3.4 1.2-1.3 2-2.8 2.6-4.4l1-2.5c.3-.8.8-1.7 1.3-2.4 1-1.5 2.1-2.8 2.8-4.4.7-1.6 1.1-3.2 1.4-5l.8-5.2c.1-.9.4-1.8.6-2.6l.7-2.6c.9-3.4 1.1-6.8.6-10.3-.6-3.4-1.5-6.8-2.7-10.1-1-3.4-2.2-6.8-2.5-10.4V287c0-.9 0-1.8.2-2.7a14.9 14.9 0 00-1.1-10l-2.8-4.3c-2.1-3-3.3-6.4-4.6-9.7a25.7 25.7 0 00-9-12.6 60.1 60.1 0 00-4.2-3c-2.9-2-5.9-3.8-8.8-6-3-2-5.5-4.3-8.5-6.3-5.9-3.8-13-5.5-20.1-4.8 7-1 14.3.6 20.4 4.3 3 1.8 5.8 4.2 8.7 6.1 2.9 2 6 3.8 8.9 5.7 3 2 6 4 8.3 6.7a25.7 25.7 0 015.4 9.4c1.3 3.3 2.4 6.6 4.4 9.3 1 1.5 2.2 2.9 3 4.5a14.2 14.2 0 011.5 8.1l-.3 2.7a18 18 0 00-.2 5.1c.3 3.4 1.4 6.8 2.5 10.1 1 3.4 2 6.9 2.5 10.4.3 1.8.4 3.6.2 5.4-.1 1.8-.5 3.6-.9 5.3l-.7 2.6c-.2.8-.5 1.6-.6 2.5-.3 1.7-.5 3.5-.9 5.2-.3 1.7-.8 3.5-1.5 5.2-.8 1.6-2 3-3 4.4l-1.3 2.2-1 2.5a12 12 0 01-2.9 4.4c-2.6 2.7-6.3 4-9.8 3.4zm-87.8 29.6a.4.4 0 00-.4 0c-.2.1-.3.2-.3.4-.2.3.2.6.5.7.4.2.7.2 1.1.2h5.8l9.2.1 9.1.2h9.1a180 180 0 0022.8-1.8c1.5-.2 3-.4 4.3-1a4 4 0 001.7-1.2c.4-.6.7-1.4.8-2 .2-1.5 0-3-.2-4.5.4 1.4.7 3 .6 4.5a4.6 4.6 0 01-2.5 4c-1.5.7-3 1-4.5 1.2l-4.6.8a205 205 0 01-36.7 1c-3 0-6-.3-9.1-.5l-4.6-.3-1.2-.1c-.4 0-.7 0-1.1-.2a1 1 0 01-.5-.4c-.2-.2-.2-.4 0-.7 0-.2.1-.3.3-.4 0-.1.3-.1.4 0z"/><path d="M307.2 372.7c-.6.8-1.2 1.7-2.2 2a2 2 0 01-1.6-.1c-.4-.3-.7-.8-.9-1.2a12 12 0 00-3.4-4.7 20.2 20.2 0 00-5-3c-1.8-.8-3.7-1.4-5.5-2l.3-1c2.4 1 4.9 2 7.1 3.2 1.2.6 2.4 1.2 3.4 2.2.4.5 1 1 1.3 1.7.3.6.5 1.3.6 2a3.7 3.7 0 01-2 3.8c-.8.4-1.5.4-2.3.4a7 7 0 01-2-.4c-1.5-.5-2.5-1.3-3.6-2a11 11 0 00-3.3-1.6l.7-.2v.2l.2.5.8 1.3.3 1c0 .5-.2.9-.4 1.2a14.6 14.6 0 01-14.2 1.1c-2-.9-3.8-2-5.7-3-1.8-1-3.7-1.7-5.8-2-2-.1-4.1 0-6 .7-1 .4-1.8.9-2.5 1.7a4 4 0 00-1.1 2.6c0 1 .3 2.2-.1 3.2a4 4 0 01-2.3 2.2c1-.4 1.8-1.2 2-2.2.4-1 .1-2 0-3.2 0-1 .4-2.2 1.2-3 .7-.8 1.6-1.4 2.6-2 1-.4 2-.7 3.1-.8a17 17 0 013.3 0c2 .2 4.2.9 6.1 1.8 2 1 3.7 2.1 5.6 3a13.2 13.2 0 0011.7-.1c.4-.3 1-.6 1.1-.8l.1-.3-.1-.4-.8-1.4c-.2-.2-.3-.5-.4-1-.1-.3 0-.9.2-1.2l.3-.3h.4c1.5.3 2.7 1 3.8 1.8 1 .7 2 1.4 3.1 1.8a4 4 0 003.4.1 2 2 0 001-1c.3-.4.4-1 .3-1.5 0-1.1-.6-2.2-1.5-3a52.5 52.5 0 00-10-5.3l.4-1 5.5 2.3c1.8.9 3.6 1.9 5 3.2 1.6 1.3 2.8 3 3.5 5 .1.5.3.9.7 1.1.5.2 1 .3 1.4.1 1 .1 1.5-.7 2.2-1.5z"/></g><path fill="#4F8E99" d="M256.1 372.7c-.8-.1-1.3-.8-1.4-1.5-.2-.7 0-1.4.5-2 .5-.5 1.1-.9 1.8-1.2a23 23 0 012-.7l8.2-2.4 4-1.2c1.5-.4 3-.4 4.3-.5a14 14 0 004.1-.6c1.4-.4 2.6-1.1 3.7-2v.2a14 14 0 00-4.6-.3c-1.5 0-3 .2-4.6.4l-9.3.7c-1.5 0-3 .3-4.7 0-.7 0-1.6-.3-2.2-.8a3.3 3.3 0 01-1.3-2 3 3 0 01.6-2.4c.4-.6 1-1.2 1.6-1.7a65.7 65.7 0 0121.5-9c3-.8 6-1.4 9.1-2l4.6-.8c1.5-.4 3-.8 4.1-1.7l.1.4c-2-.8-4-.6-6.1-.4l-6.3.7a123.6 123.6 0 00-24.7 5.7l-6 2.2c-1.8.7-3.9 1.6-5.9 2.2-1 .3-2 .6-3 .7l-1.6.3h-.3c-.2.2-.4.2-.5.2l-1-.2a3 3 0 01-1.2-1.3c-.2-.5-.3-1-.3-1.6l.1-1.7.4-1.6c.6-2 1.7-4 3.2-5.6a27.4 27.4 0 017.4-6l.4-.1h.4l.7-.4 1.4-.6a44.4 44.4 0 0112.3-3.4l6.2-1 3-1h.2l.1-.1.2-.2v-.2c0 .1.2.1 0 .1h-1.4c-2.1.2-4.2.6-6.2 1.3-.5.1-1 .3-1.6.3-.6 0-1.3-.1-1.8-.5-.5-.3-.8-.9-1-1.5 0-.6.1-1.3.5-1.7.3-.5.7-.8 1.1-1.2l1.4-1 2.7-1.5.8-.4.7-.2c.3 0 .5-.1.7-.3h.1v-.1l-.4-.2-.8.1c-.4 0-1 .2-1.4.4-2 .7-3.6 2-5.3 3.3a17.9 17.9 0 01-5.6 3.1c-1 .4-2.2.5-3.2.6-1 .1-2 .4-2.9 1l-2.5 2-3 1.2c-1.9 1-3.3 2.6-5.4 3.3-.3 0-.5.2-.8.3l-.6.3-1.4.7-.9.2c-.2.1-.6 0-1-.2-.5-.4-.6-1-.8-1.5a6 6 0 01.2-3.3 14.2 14.2 0 012.4-4.2l.2-.3.2-.3.6-.6 2.2-2.3a38 38 0 014.9-4.1l2.6-1.8 1.4-.8.6-.4.1-.4h-.5a8.7 8.7 0 00-2.1.8c-1 .4-2.1.9-3.3.5l-.4-.1.3-.3c3-3.2 6.3-6.2 9.7-9l2.5-2a18 18 0 012.8-2c1-.5 2-.8 2.9-1.4a4 4 0 001.5-2.6l.4.3a54 54 0 00-11.8 7l-10.7 8.8-1.3 1-.7.6a2 2 0 00-.6.6 7 7 0 01-1.3 1.1l-1.4 1c-.3.2-.6.3-1 .3h-.9l-.4-.4a1 1 0 010-.5c-.2-.3-.2-.6 0-1a7 7 0 011.2-3.2c1.1-2.1 2.7-3.8 4.4-5.3l2.5-2.5 1.1-1.2c.3-.2.4-.4.4-.7 0-.2 0-.5-.2-.6-.2-.2-.4-.2-.6 0l-.5.6-1.4 1.3-2.5 2.4-2.5 2.2-2.7 2.3c-1.6 1.6-2.6 3.7-3.6 5.8l-1.4 3.2c-.2.3-.3.5-.3.8l-.1.8-.5 1.6-.6 3.4c-.3 1.1-.3 2.3-.5 3.5v2.2l-.1.1h-.2c-.3 0-.5-.3-.7-.5-.4-.5-.6-1-.7-1.6l-.5-1.6a32.8 32.8 0 01.5 1.6l.7 1.6c.2.2.4.4.7.4h.3v-2.3l.4-3.5.7-3.3.4-1.7c0-.3 0-.5.2-.8l.2-.8 1.5-3.2c1-2 2-4.2 3.7-5.9l2.6-2.3a41.2 41.2 0 005-4.7l1.1-1.3.7-.6.4-.2c.3 0 .4 0 .5.2.3.2.4.6.3 1 0 .3-.3.6-.4.8l-1.2 1.3-2.5 2.4a22.6 22.6 0 00-4.3 5.3c-.6 1-1 2-1.2 3.2v.8l.1.3.2.3h.7c.3-.1.6-.1.8-.3.9-.7 2-1.3 2.6-2.1l.6-.6.7-.6 1.3-1 10.8-8.9c3.6-2.8 7.6-5.3 11.8-7.1l.4-.2v.4a4.9 4.9 0 01-1.8 3c-.9.7-2 1-3 1.5-1 .4-1.8 1.1-2.7 1.8l-2.5 2c-3.3 2.9-6.6 5.8-9.6 9l-.2-.5c1 .3 2-.1 3-.5l1.4-.7.7-.2.5-.1c.2 0 .4 0 .6.3v.6c0 .2 0 .3-.2.4l-.6.6-1.4.8a34.5 34.5 0 00-7.5 5.8l-2.2 2.3-.5.5-.2.3-.2.3-1 1.3-1.4 2.7c-.3 1-.4 2-.1 3 .1.5.3 1 .6 1.2.3.2.8 0 1.3-.2l1.4-.7.4-.2.4-.1.7-.2c2-.8 3.4-2.4 5.4-3.3 1-.5 2-.7 2.9-1.3.9-.4 1.6-1.2 2.5-1.8.9-.7 2-1 3-1.1 1.1-.2 2.1-.2 3.2-.6 2-.6 3.7-1.8 5.4-3 1.6-1.3 3.4-2.7 5.4-3.5a6 6 0 011.6-.4h1.3c.2 0 .5 0 .6.3v.7l-.2.3-.2.1-.8.3c-.6.2-1 .3-1.4.6-1 .6-2 .9-2.8 1.5l-1.2 1c-.5.3-.8.6-1 1-.4.4-.5.8-.4 1.3 0 .4.3.8.7 1 .7.6 1.7.4 2.7 0 2-.6 4.1-1 6.3-1.1h1.7c.2 0 .5.1.5.5 0 .2 0 .5-.2.6l-.3.3-.2.2h-.2l-3.1 1-6.3 1a46.7 46.7 0 00-12.1 3.4l-1.5.6-.7.3-.5.2-.2.1-2.7 1.7a29.7 29.7 0 00-4.7 4.2 12.9 12.9 0 00-3 5.3l-.4 1.5-.1 1.5c0 .5 0 1 .3 1.5l1 1 .6.1h.3l.4-.2 1.6-.2 3-.8c2-.6 4-1.5 6-2.2a154.2 154.2 0 0118.3-5.5c4.1-1 8.3-1.8 12.5-2.2l6.3-.7c2-.2 4.3-.4 6.3.4l.4.1-.4.3c-1.3 1-2.8 1.4-4.3 1.8l-4.6.9c-3 .6-6 1.2-9.1 2a65 65 0 00-21.2 9c-.7.4-1.2 1-1.6 1.6-.4.6-.6 1.4-.4 2 .1.8.6 1.4 1.1 1.9.7.5 1.3.7 2.1.8 1.5.2 3 0 4.6 0l9.3-.7 4.6-.3c1.6 0 3.2 0 4.7.4h.2l-.2.2c-1 .9-2.3 1.6-3.7 2-1.4.6-2.8.6-4.2.7-1.5 0-2.8.1-4.2.5-1.4.2-2.8.7-4.1 1l-8.2 2.5-2 .6a6 6 0 00-1.8 1.1 2 2 0 00-.5 2c.1.5.7 1.2 1.4 1.3z"/><path fill="#4D876D" d="M228.2 344.7a76.6 76.6 0 005.6 13.8 74 74 0 003.9 6.4l1 1.5 1.2 1.4 1.2 1.5 1.1 1.4-1.3-1.3-1.2-1.4-1.2-1.4-1.2-1.5a50.2 50.2 0 01-9-20.4zm17.5 28.5c.5.4.9 1 1.2 1.4l1 1.6c-.7-.2-1.2-.7-1.6-1.2-.3-.5-.5-1.1-.6-1.8z"/><path fill="#4F8E99" d="M313.7 309.1l-10.2 4.6-10.2 4.4c-1.8.8-3.4 1.6-5.2 2.2-1 .3-1.9.5-2.8.5l-2.8.2c-1.8.2-3.5.7-5.3 1.4l-2.5 1c-.5.2-1 .3-1 .5-.2.2 0 .7.1 1l-.2-.2c1.6.6 3.4 0 5-.5l2.7-.8a12 12 0 012.7-.4h5.4a6 6 0 002.5-.5l2.4-1.2c6.4-3.3 13-6.3 19.7-8.7-6.6 2.7-13.2 5.8-19.5 9.2l-2.4 1.2c-.8.5-1.8.7-2.7.7H284a17.1 17.1 0 00-5.2 1.2c-.8.3-1.7.6-2.6.7a7 7 0 01-2.9-.2l-.2-.2-.2-.7c-.1-.3-.1-.6.1-1l.7-.5.7-.3 2.6-1a21 21 0 015.5-1.3l2.7-.3c1 0 1.8-.2 2.7-.4l5.2-2 10.3-4.3 10.3-4.3zm8.1 21.4l-7 2.1-1.6.7-.7.6-.8.5-3.4 1.3-3.4 1.3-1.7.6c-.5.2-1 .4-1.4.8l-.2.3.3.3.4.2 1.6.5c1.1.3 2.4.4 3.5.4h3.6c1.3 0 2.5 0 3.7.2l3.5.5 1.8.2c.2 0 .4 0 .6-.2l.1-.2-.5-.2-.4-.1-.9-.2-1.7-.4-3.5-.7-7.2-1h-1l1-.4a75 75 0 0115.9-4.2 79.8 79.8 0 00-15.8 4.6v-.5a81.9 81.9 0 0110.7 1.5l1.8.4 1 .2.3.1.5.2c.2 0 .4.3.5.6 0 .3-.2.5-.3.6-.3.2-.7.4-1 .4l-2-.1c-1.2-.1-2.4-.3-3.5-.6l-3.6-.3h-3.6a13.3 13.3 0 01-5.3-1l-.5-.2-.4-.3-.2-.4v-.3l.4-.5c.4-.5 1-.7 1.6-1l1.7-.6 3.4-1.2 3.4-1.3.8-.4.7-.5 1.8-.6 7-1.7z"/><path fill="#4D876D" d="M320.1 307.4c1 .2 2 .3 3.1.3 1 0 2-.3 3-.9a3 3 0 00.9-1l.7-1.5c.4-.4 1-.7 1.5-.9.6 0 1-.2 1.5-.3 1-.3 1.5-1.1 2.1-2a7 7 0 012-2.6c.9-.6 1.9-1 2.6-1.6l.9-1.1.4-1.5a8 8 0 011.8-2.7l2.3-2.3 4.4-4.5 4.4-4.4a21 21 0 015-3.9 22.2 22.2 0 00-4.7 4.1l-4.3 4.6-4.4 4.5-2.1 2.3a7 7 0 00-1.6 2.5l-.5 1.5c-.2.5-.6 1-1 1.4-1 .7-1.9 1-2.7 1.6-.8.6-1.3 1.5-1.9 2.4-.3.5-.5.9-1 1.3-.4.4-.8.7-1.4.8l-1.5.3c-.5.1-1 .3-1.2.7l-.8 1.3c-.2.5-.7.9-1 1.2-1 .5-2.1.7-3.2.7-1.2 0-2.3-.1-3.3-.3z"/><path fill="#4F8E99" d="M320.9 304.9c1 .2 2 .1 2.9-.2.9-.4 1.8-.8 2.5-1.4 1.5-1.2 2.8-2.8 4.4-4 .7-.8 1.6-1.2 2.4-1.8.8-.5 1.3-1.3 1.7-2.2l1.4-2.7c.6-.8 1-1.7 1.7-2.5 2.4-3.1 5.4-5.8 8.3-8.5 1.4-1.3 3-2.6 4.3-4 1.4-1.3 2.8-2.8 4-4.3a40.5 40.5 0 01-8 8.8l-4.2 4a46.6 46.6 0 00-3.9 4.4l-1.6 2.5-1.4 2.6a6.9 6.9 0 01-2 2.4l-2.4 1.6c-1.5 1.2-2.8 2.7-4.5 4-.8.5-1.7 1-2.7 1.3a6 6 0 01-3 0z"/><path fill="#4D876D" d="M240.5 261a14.1 14.1 0 00-6.2-5 13 13 0 00-7.8-.4c-1.3.2-2.5.7-4 1-1.2.4-2.7.6-4 .2-1.4-.4-2.6-1.1-3.9-1.7a5 5 0 00-3.8-.6c.6-.3 1.3-.3 2-.3.7.1 1.3.4 2 .6 1.2.5 2.5 1.2 3.7 1.4 1.2.3 2.6.1 3.9-.2 1.3-.4 2.5-.9 4-1.2 2.6-.6 5.5-.6 8 .6 2.7 1.3 4.8 3.3 6.1 5.6zm45.4 119.5a276.3 276.3 0 0115-1.8l7.4-.6 3.7-.3 3.7-.2-3.7.6-3.7.5-7.5.8-7.5.6-7.4.4zM319.7 276c.3-1.5.7-3 1.5-4.4a9.8 9.8 0 013.5-3c1.4-.7 2.8-1.2 4.1-2a11 11 0 001.9-1.2l1.4-1.6.8-2.1c.3-.8.7-1.5 1.2-2a6 6 0 014-2.3c1.6-.2 3.2.2 4.5-.3l1-.7.6-.8.7-1a2 2 0 011-.6c-.4.1-.8.3-1 .7l-.5 1-.6.9-1 .7c-1.5.7-3.1.4-4.6.6-1.4.2-2.7 1-3.6 2.1a5 5 0 00-1 1.9c-.4.7-.5 1.5-1 2.1-.3.7-.9 1.4-1.4 1.8-.7.5-1.3 1-2 1.3-1.4.7-2.7 1.2-4.1 2a9.6 9.6 0 00-3.5 2.6c-1 1.4-1.4 2.8-2 4.3z"/><path fill="#4F8E99" d="M329 270l2.7-1a5 5 0 001.8-2l1.2-2.6a7.5 7.5 0 014.5-3.7l2.8-.7a9.2 9.2 0 004.5-3.3c-.5.8-1.2 1.5-1.8 2.2-.8.6-1.6 1.1-2.5 1.5l-2.7.9a6 6 0 00-2.4 1.3 7 7 0 00-1.7 2l-1.3 2.6a5 5 0 01-2.2 2c-1 .4-2 .6-2.9.8z"/><path fill="#4D876D" d="M190.5 294.7a138 138 0 00-.7 26c.3 4.4 1 8.7 1.7 13 .2 1 .4 2.1 1.1 2.8l1.2 1.1c.4.4.8.8 1 1.3 1.3 2 1.8 4 2.5 6.2 1.4 4 3.6 7.8 6.7 10.9a20 20 0 005.3 3.7c1.9 1 4 1.9 5.8 3.1 1.8 1.3 3.3 3 4.9 4.4l1.2 1 1.6.4c1 .4 2 1 2.8 1.8 1.6 1.4 3 3.1 4.8 4.4.9.7 1.8 1.1 3 1.3a16.8 16.8 0 000 .1 7 7 0 01-3.1-1.3c-1.9-1.2-3.3-3-5-4.3a8.5 8.5 0 00-2.7-1.6c-.5-.2-1-.2-1.6-.5l-1.4-1c-1.7-1.4-3.1-3-5-4.2-1.7-1.2-3.7-2-5.7-3a28.5 28.5 0 01-12.2-15c-.7-2.2-1.3-4.3-2.4-6.1-.2-.5-.6-1-1-1.3l-1.1-1.2c-.4-.4-.7-1-1-1.5l-.3-1.6a116.7 116.7 0 01-1.8-26.1c.3-4.3.8-8.6 1.5-13z"/></g><g fill-rule="nonzero"><path fill="#FFF" d="M79.2 225.9c.1.7-.7 1.2-.7 2 .1.5.5.8 1 1.1 1 .5 1.9.8 3 1"/><path fill="#000" d="M79.2 225.9c.1.3 0 .6-.1.9l-.3.8c-.1.4.2.7.6 1l1.4.8 1.5.6c-.5 0-1.1 0-1.7-.2l-1.6-.6-.7-.7v-1c.3-.8.8-1 1-1.6z"/><path fill="#000" d="M78.7 227l-.7.1-.3.6-.6 1.3c-.4 1-1 1.7-.7 2.4.2.4.4.8.8 1l1.2.8 2.3 1.6-2.5-1.3-1.3-.7c-.4-.3-.8-.6-1-1.1-.3-.5-.2-1.2 0-1.6l.7-1.3.7-1.2.6-.6c.3-.2.6-.2.8 0zm8.3 4.7a19.8 19.8 0 005.5 4l1 .5.5.5v.9c0 .2-.3.4-.4.5l-.6.3h-1.3l-2.3-.3a20.7 20.7 0 01-4.3-1.4 25.4 25.4 0 006.6 1.2h1c.3-.1.7-.3.8-.5v-.3l-.3-.3-1-.5-2-1.3c-1.3-1-2.4-2-3.2-3.4z"/></g><path fill="#000" fill-rule="nonzero" d="M86.6 233.7l-.2.1c.3-1 .9-1.9 1.6-2.6l1.4-.8.7-.4h1l.3.4v.6l-.5.7c-.4.4-.8.8-1.3 1-.9.6-1.9 1-2.9 1.3l-.2-.6a11 11 0 014-.8l2 .1c.3 0 .7 0 1 .3.2.2.4.3.4.5v.7c-.3.4-.8.5-1.2.5h-1l-2-.3a76 76 0 01-3.8-.7 80.5 80.5 0 005.8.4h1c.3 0 .5 0 .6-.2 0-.2 0-.4-.2-.4-.2-.2-.5-.2-.8-.2a11.2 11.2 0 00-5.5.6l-.3-.6c1-.3 2-.7 2.8-1.2.4-.2.8-.5 1-.9.4-.3.6-.7.4-.8H90c-.2 0-.5 0-.7.2-.5.2-.8.5-1.2.8-.8.6-1.4 1.4-1.8 2.3h.2zm18.2-7.1v4.2c0 .4 0 .7.3 1 .1.2.4.3.6.3a3 3 0 001-.3l1-.3c1.4-.5 2.9-.5 4.3-.5 1.4-.1 2.9-.1 4.2-.4a15.3 15.3 0 006.2-2.4c0-.1 0-.2-.2-.3l-.5-.1-4-1.1-2-.6c-.8-.2-1.4-.4-2-1 .6.6 1.3.7 2 .8l2 .4 4.2 1c.4 0 .8 0 1.1.5.1.1.2.3.1.5l-.2.4-.5.3-2 1a17 17 0 01-4 1.3c-2.8.6-5.7 0-8.4.6l-1 .3c-.4.2-.7.3-1.1.3-.4 0-1-.2-1-.6-.3-.3-.3-.7-.3-1l.2-4.3z"/><path fill="#4F8E99" fill-rule="nonzero" d="M141.5 118.9l-.4-4.5V110h.9l-.1 4.5-.1 2.2c-.1.9-.1 1.6-.3 2.3zm0 0l-.2-2.2v-2.2c-.2-1.5-.2-3-.2-4.5h1l-.1 4.5-.5 4.4zm7.2.8l-.3-4.5-.1-4.5h1c0 1.5 0 3-.2 4.5v2.2c-.3.8-.3 1.6-.4 2.3zm0 0l-.1-2.2-.1-2.3-.1-4.4h1c0 1.5 0 3-.2 4.4l-.5 4.5zm25.8 2l-.3-4.5-.1-4.4h1c0 1.5 0 3-.2 4.4v2.3l-.4 2.2zm0 0l-.1-2.2-.1-2.2-.1-4.5h.9v4.5l-.6 4.4zm8.5 0c-.3-1.5-.4-3-.5-4.5v-4.4h.9l-.1 4.4-.1 2.3-.3 2.2zm0 0c-.2-.7-.3-1.5-.3-2.2v-2.2c-.2-1.5-.2-3-.2-4.5h1l-.1 4.5-.5 4.4zm8.6 0l-.4-4.5-.1-4.4h1c0 1.5 0 3-.2 4.4v2.3l-.3 2.2zm0 0l-.2-2.2-.1-2.2-.1-4.5h1c0 1.5 0 3-.2 4.5l-.4 4.4zm45.8-1.7l-.4-4.5V111h.9l-.1 4.5-.1 2.2c-.1.8-.1 1.5-.3 2.2zm0 0l-.2-2.3v-2.2c-.2-1.5-.2-3-.2-4.5h1l-.1 4.5-.5 4.4zm6.4-1.1l-.3-4.5-.1-4.5h1c0 1.5 0 3-.2 4.5v2.2l-.4 2.3zm0 0l-.1-2.2-.1-2.2-.1-4.5h.9v4.5c-.3 1.4-.4 3-.6 4.4zm5.6-1.1l-.4-4.5v-4.5h.8v4.5l-.1 2.2-.3 2.3zm0 0l-.2-2.2-.1-2.2v-4.5h.8v4.5l-.5 4.4z"/><g opacity=".3"><path stroke="#4F8E99" d="M313.8 308.4l-22.4 9.5c-1.6.7-3.2 1.4-5 1.7-1.3.2-2.8.2-4.1.3a31 31 0 00-8.2 2.5c-1 .4-1 .9-.6 1.8 2.5 1 5-.6 7.7-1.2 2.2-.6 4.5-.5 6.9-.5 1 0 2 0 2.8-.2a176.4 176.4 0 0123.3-10.6"/><path stroke="#4D876D" d="M320.2 306.7c2.5.6 5.6.8 7-1.2.5-.7.7-1.5 1.3-2l.5-.3c.8-.3 1.7-.2 2.4-.6 1.6-.7 2-2.7 3.3-4 1.2-1.1 3.1-1.5 4-3 .3-.6.4-1.3.6-1.9.5-1.3 1.5-2.4 2.5-3.4l9.1-9.5c1.8-1.8 3.5-3.5 5.6-4.8l.2-.1"/></g><path fill="#000" fill-rule="nonzero" d="M136.7 99.6c.6.1 1 0 1.5-.2a4 4 0 001.2-.7l1.2-1c.4-.3 1-.6 1.5-.7-.8.6-1.4 1.5-2.2 2.2a3 3 0 01-1.5.7 2 2 0 01-1.7-.3z"/><path fill="#4D876D" fill-rule="nonzero" d="M229 233.2c1-1 2-2 3.3-2.6.6-.4 1.3-.6 2-.6.9 0 1.5.2 2.2.4h1c.3 0 .6 0 .9-.2.6-.3 1.2-.7 2-.6 1 0 1.9.9 1.3 2a1 1 0 01-.5.3l-.5.2c-.2.1-.2.2-.2.3h-.2c.6-.1 1.1-.6 1.8-1l1.1-.5c.5 0 1 0 1.4.3.6.6 1 1.6.8 2.4-.2.8-.6 1.5-1 2.2l-.3-.5c.6 0 1.2-.2 1.8 0 .3.2.7.4.8.8.1.3.2.7 0 1 0 .2-.1.4-.3.4l-.5.2-.5.3v.6l.6.4c.5.2 1.1.3 1.5.7.5.4.9.9 1 1.4.6 1.1.3 2.4-.3 3.3.6-1 .6-2.2.2-3.2a3 3 0 00-1-1.2c-.5-.3-1-.4-1.6-.6-.6-.2-1.2-.8-.9-1.6.2-.4.6-.5.8-.5.3-.1.4-.3.5-.4.2-.3-.1-.8-.5-1-.5-.1-1 0-1.6 0l-.6.1.3-.5c.3-.7.7-1.4.8-2a2 2 0 00-.7-1.8c-.4-.4-1-.2-1.6.2-.6.3-1.2 1-2.2 1h-.2a.6.6 0 01-.3-.5l.2-.4.5-.5.8-.3v-.6l-.3-.2-.5-.1c-.6 0-1.1.3-1.8.5-.4.2-.7.3-1.1.3-.5 0-.8 0-1.1-.2-.7-.2-1.4-.4-2-.4-.7 0-1.4.1-2 .4-1.2.5-2.2 1.4-3.3 2.3z"/><g fill="#000" fill-rule="nonzero"><path d="M116.7 228.8a5.9 5.9 0 01-1.3-2.8c0-.5-.1-1 0-1.6v-.8l.6-.7h.6l.4.2.4.8c.1.5.2 1 .1 1.5 0 1-.3 2.1-.6 3h-.6c.3-1.4.8-2.7 1.5-3.8a9 9 0 012-2.3h.7c.2 0 .5.2.6.4.2.5 0 .9-.2 1.2l-.6.8-1.3 1.5-2.7 2.8 2.4-3c.5-.5.8-1 1.2-1.6l.5-.8c.1-.3.2-.6.1-.7 0-.1-.2-.1-.4 0-.3 0-.5.3-.7.5-.4.5-.8 1-1 1.5a11 11 0 00-1.6 3.5l-.6-.1c.3-1 .6-2 .6-3V224c0-.5-.4-.9-.6-.7-.1 0-.3.2-.3.4l-.2.7v1.5c0 1 .3 2 .9 3z"/><path d="M116.7 228.5l.3.2h-.7c0-.2 0-.2.4-.2z"/></g><path fill="#CADDE0" fill-rule="nonzero" d="M230 358.4c.2 0 .2-.3.2-.5-.1-.2-.3-.3-.4-.3h-.1l-.7.3.3.7c.2 0 .4 0 .7-.2zm6.5 13.5a73 73 0 01-5.6-6.7 94.5 94.5 0 01-11.7-17.8c-3-6.4-4.9-13.7-4-20.7.2-1.7.7-3.7 2.1-4.8 1.5-1.2 3.7-1.3 5.6-1.4 1 0 2.2-.3 3-.6-.7 5-.4 10.2 1.2 15 .3.8.8 1.7 1.5 1.6l.1-2.3a33.9 33.9 0 011.4-8l.2-1.2.1-.7 2-4.1a18 18 0 012.7-4.6c.8-1 1.8-1.7 2.9-2.6l.9-.7a113.1 113.1 0 006.5-6.3c.4 0 .7.3.7.8 0 .4-.3.8-.6 1.1-1.6 1.8-3.5 3.4-5.2 5.2a14.9 14.9 0 00-3.8 6.2c-.1.4-.2.9-.1 1.3 0 .2 0 .4.2.6.1.3.3.4.6.3.4 0 .8 0 1-.2.2 0 .3-.1.5-.3.7-.5 1.6-1 2.3-1.8l.5-.6 1.8-1.4 3.5-3c2.4-1.9 4.7-3.9 7.2-5.7a68.8 68.8 0 0112.3-7.6 4.5 4.5 0 01-1.9 3c-.7.6-1.4.8-2.2 1.1a17 17 0 00-3.5 2.4 148 148 0 00-11.8 10.7c1.8.4 3.5-1 5.3-1.5h.6c.5.3 0 1-.6 1.3a47.8 47.8 0 00-10.6 8.3c-.4.5-1 1-1.3 1.6l-.6.8c-.5.8-1 1.5-1.4 2.4a5.8 5.8 0 00-.5 5c.1.4.4.8.7.8.4.1.7 0 1-.1a8 8 0 001.8-.8l.8-.3c.7-.1 1.3-.5 1.9-.8l3.5-2.5.7-.3c.9-.4 1.8-.6 2.7-1.1 1.2-.7 2-1.8 3.4-2.4 1.5-.7 3.1-.6 4.7-1 2.8-.6 5-2.5 7.3-4.2a13 13 0 016.5-2.9c.3 0 .7 0 .7.4l-.1.4-.1.1-1.5.6-1.5.8a13.7 13.7 0 00-3.7 2.4c-.4.4-.9.9-1 1.5-.3 1 .5 2.2 1.5 2.4.8.2 1.7 0 2.5-.2a24 24 0 017.5-1.2h.3c.4.3 0 .8-.5 1-3.7 1.5-7.9 1.7-11.8 2.4a46.2 46.2 0 00-11.7 3.9l-.8.2c-.2 0-.4.1-.5.3l-2.6 1.6a32 32 0 00-6.1 6.1 13.8 13.8 0 00-2 5.3c-.2 1-.2 2 .3 2.9.3.6 1 1.3 1.9 1.3l.5-.2h.2l2-.3c2.6-.6 5.2-1.6 7.7-2.6 12.3-4.8 25.3-7.8 38.6-8.9 1.8-.1 3.8-.2 5.5.5-1.5 1.2-3.5 1.6-5.4 2-11.6 2.3-23.6 4.4-33.2 11.2-1.5 1-3 2.5-2.8 4.3.2 1.3 1.3 2.2 2.6 2.6 1.2.3 2.5.3 3.9.2l13.6-1c2.2-.1 4.4-.2 6.6.2a11 11 0 01-5.2 2.5c-1.7.3-3.5.2-5.2.4-1.7.2-3.4.7-5.1 1.2l-9.6 3c-1.3.3-2.7.7-3.4 1.8-.7 1.1-.2 3 1 3.1l.8.7c-1.4.9-2.5 2.1-2.5 3.7-.1.8.2 1.7.1 2.6 0 1-.5 1.9-1.3 2.5-4.7-.5-9-2.8-12.7-5.7-1.3-1.9-2.6-3.1-3.8-4.5zm23.3-91.7a6 6 0 001.4-2.2c.2-.4.4-.9.4-1.3l.1-.7c0-.4.3-.7.5-1l1-1.5c.8-1 1.7-1.6 2.5-2.4.7-.9 1.4-1.8 1.5-3 .1-.6 0-1.2.5-1.7.5-.4 1.2-.2 1.8-.2 1.3.1 2.4-.6 3.5-1.3a64.1 64.1 0 0013.3-12.6 31.6 31.6 0 002.9-4c.3-1.1.3-2.4 1.3-3.3.7-.6 1.6-.8 2.3-1.1 1-.4 1.9-1.1 2.5-2 .5-.6 1-1.3 1.3-2a3 3 0 000-2.2c-.2-1-.6-2-.2-2.9.6-1.1 2.2-1.5 2.8-2.7.3-.6.1-1.3.3-2 .1-.7.7-1.5 1.4-1.2.6.3.6 1.2.3 1.8-.3.6-.8 1.2-.7 2 .1.9 1.3 1.6 1 2.6 0 .6-.9 1-1.5 1.3-.9.5-1.5 1.5-1.6 2.6-.2 1 .2 2.2-.3 3.2-.4.7-1 1-1.5 1.6-.6.6-.9 1.5-1.3 2.2a11.3 11.3 0 01-2.2 2.4l-.5.4-.8 1.4-1 1.5c-.7.9-1.4 1.7-2.4 2.4s-2.3 1.2-3 2.2c-.8 1-1 2.5-1.8 3.3-.7.6-1.7.8-2.5 1.4-.2 0-.3.1-.4.3-.8.6-1.3 1.5-1.7 2.5a9.8 9.8 0 00-.6 2.2c0 .6-.2 1-.5 1.6-.4.8-1.1 1.5-2 2-1.3.8-3 1-4.4.4-.7-.2-1.4-.5-2-.2-.7.4-.7 1.2-1 1.8-.5.6-1.2 1-1.8 1.3-.6.4-1.3 1-1.1 1.8 0 .4.3.8.5 1.1.2.4.3 1 0 1.2-.3.4-1 .1-1.5.1-.9 0-1.6.8-1.9 1.6l-.3 2.6c0 .8-.3 1.8-1 2.3-1.8 1.5-4.8-.4-6.6 1-.6.5-1 1.3-1.5 2-1.4 1.9-4.6 2-5.7 4.1l-.7 2.3a2 2 0 01-.8 1.2l-.6.3c-.6 0-.6-.7-.7-1a6.5 6.5 0 014-6.5l1.8-.7c.5-.4 1-1 1-1.7l-.3-1.1c0-.6.6-1.2 1.2-1.3.6-.2 1.3 0 2 0 1.7 0 3.5-.8 4.8-2 .4 0 .5-.2.5-.2zm25.6 12.8c2.5-.3 5.3-.9 7.5.4 1.5.8 2.5 2.3 3.6 3.6 1.1 1.3 2.7 2.5 4.4 2.2-2.3 1.1-5 0-7.1-1.3-2.1-1.3-4.4-2.9-7-2.7-1.5.2-2.8 1-4.3 1.4-3 1-6.3.4-9.4-.1l-12.6-2.2c-1.3-.3-2.7-.5-4-1-.5-.1-2-.6-2-1.4.2-.6 1.3-1 1.7-1a5 5 0 012.7 0 69.6 69.6 0 0016.8 2.9c3.4 0 6.6-.2 9.7-.7z"/><circle cx="26" cy="268.4" fill="#4F92C4" fill-rule="nonzero" r="5.2"/><circle cx="41.7" cy="280.7" fill="#4F92C4" fill-rule="nonzero" r="5.2"/><path fill="#4F92C4" fill-rule="nonzero" d="M51.2 305.6a5.2 5.2 0 00-4.3-8.1 5.2 5.2 0 00-5 6.6c3 .6 6.2 1.1 9.3 1.5z"/><circle cx="61.8" cy="263.3" fill="#4F92C4" fill-rule="nonzero" r="5.2"/><circle cx="99.2" cy="288.9" fill="#4F92C4" fill-rule="nonzero" r="5.2"/><circle cx="12.9" cy="281.4" fill="#4F92C4" fill-rule="nonzero" r="5.2"/><circle cx="6.1" cy="261.2" fill="#4F92C4" fill-rule="nonzero" r="5.2"/><circle cx="116.9" cy="281.4" fill="#4F92C4" fill-rule="nonzero" r="2.9"/><path fill="#9EB7C6" fill-rule="nonzero" d="M105.4 298.3c-4.5 2.4-9.3 4-14.2 5.3a119.5 119.5 0 01-30.8 3.7l-2.2 6.3 3 .1H65c7.7 0 14.6-.2 20.2-.5 5.8-.4 10-1 11.9-1.6l.6-.2.1-.2.2-.2.1-1.8c0-1 .1-1.6 1.2-2.7 1.2-1.1 3.6-2.7 9-5.8l-.1-4-2.7 1.6zm-53 8.6a118 118 0 01-19.7-3.3 76.5 76.5 0 01-20.7-8.7c1.3 1.3 2.8 2.4 4.3 3.3 6.9 3.9 10.5 6 12.5 7.5 2.3 1.7 2.4 2.6 2.5 3.8l.1 1.5v.2l.2.2.7.2c1.2.4 3.1.7 5.7 1 4.2.5 10 .8 16.8 1l2.2-6.4-4.6-.3z"/><circle cx="81.3" cy="276.9" fill="#4F92C4" fill-rule="nonzero" r="5.2"/><circle cx="99.2" cy="264.9" fill="#4F92C4" fill-rule="nonzero" r="2.9"/><path fill="#4F92C4" fill-rule="nonzero" d="M85 304.3l.2-1.8c0-2.8-2.3-5.1-5.2-5.1a5.2 5.2 0 00-5.2 5.1c0 1.2.4 2.3 1 3.1 3.1-.2 6.2-.7 9.1-1.3z"/><circle cx="115.3" cy="262.1" fill="#4F92C4" fill-rule="nonzero" r="2.9"/><path fill="#000" fill-rule="nonzero" d="M113.3 208.8s-.2 0-.2.2c0-.2.1-.2.2-.2z"/><path fill="#4D876D" fill-rule="nonzero" d="M112.9 194.7c-.8-11.8-1.3-22.7-2.3-34.5l-.7 1.9c1 11 1.4 21.5 2.1 32.6-.3 2.6 1.8 8.7-1 9.8 1-.3 2.4-.4 2.2-1.8-.1-2.7-.1-5.4-.3-8zm-11.9 8.7c0-.1 0-.2.2-.2.4.3 1 .4 1.4.3-1.5-.5-1.6-2.7-2.3-4l-1-3.2-.3 1.2-.1.1c.3 1.4.7 2.6 1.2 3.8 0 1.5.3 3 .4 4.6.5.8 1.8.5 2.5.1-1.8.4-2-1.3-2-2.7zm-18-45.2c-.1-1.4.3-2.2-.6-2.5-1 5.4.5 14 0 26.7 0 5.8-.1 11.6-.4 17.2.3.9 2.2 1 2.9 1.7-1.7-1.7-1.5-6.2-1.6-18.8-.2-10.5-.2-20.1-.4-24.3z"/><path fill="#4F8E99" fill-rule="nonzero" d="M113.3 208.8h-.2.2z"/><path fill="#000" fill-rule="nonzero" d="M113.3 208.8s-.2 0-.2.2v-.1h.2z"/><path fill="#4F8E99" fill-rule="nonzero" d="M113.1 208.8l-.7.4.7-.4z"/><path fill="#000" fill-rule="nonzero" d="M112.2 204l.8-.3-.5.4h-.3zm-10.2 7.3h.2l1.6-.2-.2.1h-1.3l-.4.1z"/><path fill="#4D876D" fill-rule="nonzero" d="M116.4 224.7c-.2-.4-.8-.4-1.2-.6-.5-4.8-.8-10.3-1.5-15.3-.3-.3-.9.4-1.3.4 1.9.7.8 14 2.5 15.7-2.4.6-7.2 1.1-10 1.3-.7-2.8-1.2-6.3-1.7-9.3-.1-2-1.5-4.5.7-5.7-.7.2-2.3-.2-2.4.7.8 4.2 1.5 9.6 2.5 14 0 2 2.4.9 3.8 1 2.9-.8 8.5-.6 8.6-2.2z"/><path fill="#000" fill-rule="nonzero" d="M101.4 206.4l1.2-.1.3-.1a3 3 0 01-1.7.3h.2z"/><path fill="#4D876D" fill-rule="nonzero" d="M99.3 178c1.2-4.2-1.6-12.5 2.6-14.7 1.7-.6 1.3 2 .3.7-3.2 1.3-.6 10.4-2.9 14zm-17.6 48l-3-1c-.7-.4-2.3-.5-1.4-1.8 2.3-4.2 1.7-13.1 5.6-15.5-3.4-1.8-2.3 1.1-3.2 3.3-1.3 5-1.9 8.2-3.2 11.9-.8 1.1-.1 2.3 1.2 2.5h.5-.5c1.8.6 3.6 1.5 5.5 1.6l.3-.8c-.6.1-1.2 0-1.8-.2z"/><path fill="#C99F62" fill-rule="nonzero" d="M134.4 104.3c-.4.4-2 1.6-4.2 3-6 4.4-16.4 11.4-17.4 12.2l-3.5 2.4-.9.7c-.2-.8-3-7.4-2.9-7l.6 1.8 1 3a421.5 421.5 0 012 8.5l2.2 12.8-1.3 3.7c-.7-.2-1.5-.3-2.2-.2-1.6.2-3 .9-4.7 1.4l-.1-.6-.6-.7-1.3-1.3-2.8-3.6L97 139l-.6-.7-.5-.9-.5-.7c0-.1 0-.2-.2-.2a8 8 0 00.3-2.2l-.2-3.8c-.3-2.7-.1-5.7-.5-8.5-.1-1.3-.4-2.5-.8-3.7a6 6 0 00-3.8-3.8h-.5l1.9-1 1.6-1h.1l.1.4c.2.4.6.7 1 .8.4.2 1 .3 1.5.3.2 0 .4-.2.4-.4 0-.3-.2-.5-.4-.5l-1-.1a.9.9 0 01-.7-.5v-.3a40454.2 40454.2 0 01.5-.6l.3.6.7.3.7.2a11.8 11.8 0 004.4-.5l.7-.2.5-.4c.2-.3.3-.6.2-.9 0-.3-.3-.5-.6-.5h-.1l.2-1.4v-.2h.2s7.7-.2 9.3-.5c2.4-.4 4.8-1 7.1-1.5a37.4 37.4 0 007.4-2.2l1.8-.6 4.1-1.6 1.5-.6h.2c.3.6.9 1.9 1 2.7 0-.2 0 0 0 0zm-31.5 8c.4-.3.6-.7.6-1.2s-.2-.9-.7-1.2c-.2-.1-.4 0-.6.2-.1.2 0 .5.2.5.2.2.2.3.2.5s0 .4-.2.6l-1.4.9-1.7.3c-.2 0-.4.2-.3.4 0 .2.2.4.5.4a9 9 0 001.8-.5c.6 0 1.1-.4 1.6-.9zm-4.3 1c0-.1-.3-.3-.5-.3H98c-.2 0-.5.1-.5.3 0 .2.2.4.5.4h.2c.2.1.5-.1.5-.3z"/><path fill="#EABE77" fill-rule="nonzero" d="M102.2 146.4c-1 1.8-2.1 4-4 5a61 61 0 01-13.5-10.9c-3.2-7.1-.1-16.3 1.9-23.5 1.4-3.6 5.6-1.6 6.4 1.4a71.4 71.4 0 011.3 17.5c-.9 0-1.7.8-2.6.7.1-4.2-.8-1.5-4.8-2.8 1.1.7 2.5.6 3.8 1 .5.6-.1 1.5.2 2.3.9 1.2 2.5-.4 3.4-.2.3 0 5.4 7.1 8 9.5z"/><path fill="#C99F62" fill-rule="nonzero" d="M114.5 154l-.2-1-.7.4-.8.3-2 5.6h.1l2.2-.8c.5-.2.9-.4 1.2-.7l.6-.6.3-.7-.2-1-.5-1.5zm-29.7-10.5l.3-.7.2-.5 1 1.1 2.6 2.4 4.2 3.2 2.2 1.6 1.5 1 .9.6.4.2h.8l1-.9.2-.2.4.2 1.4.7.5.2 1.3.7.8.4 1.7.5 1 .2-1.8 5.5c-1 .1-2.1 0-3.2 0l-5-.6a93.4 93.4 0 01-10-2l-1.6-.5c-1-.3-2-.6-2.8-1l-1-.2-1.4-.5-.2-.1v-.2c.2-.4.4-1 .7-1.3l.6-1.8 1.8-4.1 1.5-4z"/><path fill="#C99F62" fill-rule="nonzero" d="M107.1 154l-1.8 5.5c-1 .1-2.1 0-3.2 0l-5-.6a93.4 93.4 0 01-10-2l-1.6-.5-3.7-1.3-1.4-.5H80v-.2l.7-1.3.7-1.8a107 107 0 011.8-4.2l1.6-3.8.2-.6.2-.5 1.2 1c.7.9 1.6 1.7 2.5 2.5l4.2 3.2 2.2 1.5 1.5 1 .8.6.5.2c.3.1.6.1.8 0 .3-.1.7-.5 1-.8l.1-.2.5.2 1.4.6 1.7 1 .9.3 1.7.6.8.1z"/><path fill="#4F8E99" fill-rule="nonzero" d="M100.1 207.2c0-.3 0-.6-.2-.9a42 42 0 0013.7-2.7c.2 1.6.7 3.2.7 4.7-.4.5-1 .6-1.6.9h.1a29 29 0 01-9.3 1.9c-.8 0-1.6.3-2.3.1a27 27 0 01-1-4zm-18.5-8c-.7 3-2.7 7.2-.9 8 5.3 2.2 12.7 3 14 1.5.9-2 3.4-5 1.6-6.8-.4 2.3-13.6-1-14.3-3-.2 0-.4.1-.4.3z"/><path fill="#FFF" fill-rule="nonzero" stroke="#C99F62" d="M107 154L51.2 325.2s-.8 2.5 2.5 1l73.2-209m-7.1-2c3.5 4 7 2.1 7 2.1-1-3-7-2-7-2l-10.5 32.1"/><path stroke="#C99F62" d="M104.4 109.9l.8 24.5"/><path fill="#C5505D" fill-rule="nonzero" d="M258.4 168c-.4-.6-1.2-.8-1.9-.9l-1-.1h-1c-1.5 0-2.9 0-4.3.2-2.9.4-5.7 1-8.6.6-3-.4-5.6-1.7-8.3-2.1-1.4-.2-2.9-.1-4.2.1l-4.2 1c-1.4.5-2.8.8-4.2 1-1.5.2-3 .2-4.4-.1-2.8-.5-5.5-1.6-8.3-2.3a17.3 17.3 0 00-8.3-.2c-2.8.6-5.6 1.5-8.4 2a26 26 0 01-8.6.6c-1.5-.2-3-.6-4.3-1.1-1.3-.6-2.5-1.4-3.8-1.8a12 12 0 00-4.1-.9c-1.4 0-2.8.2-4.2.6-2.7.6-5.4 1.6-8.3 2-1.5 0-3 0-4.4-.3-1.4-.3-2.8-.9-4-1.4l-4-1.7a10 10 0 00-4.2-.7c-2.8.2-5.4 1.7-8.3 2-.7.2-1.4.2-2.1 0-.7 0-1.5 0-2.2.2-.6 0-1.3.3-2 .7a4.6 4.6 0 012-.9l2.2-.1h2.1c2.9-.4 5.4-2 8.3-2.3 1.5-.1 3 .2 4.3.6l4 1.6c1.3.6 2.7 1 4 1.4 1.4.3 2.8.3 4.2.1 2.8-.3 5.5-1.3 8.3-2 1.4-.3 2.8-.5 4.3-.5 1.4 0 3 .3 4.3.8 1.4.6 2.5 1.3 3.8 1.8 1.4.5 2.7.8 4.1 1 2.8.4 5.7 0 8.5-.5l8.3-2a18 18 0 018.7.3c2.7.6 5.4 1.7 8.2 2.2 1.4.3 2.8.4 4.2.2 1.4-.2 2.8-.5 4.2-1l4.2-1a13 13 0 014.4 0c2.9.5 5.4 1.8 8.3 2.2 2.8.4 5.6 0 8.5-.4 1.4-.2 2.8-.3 4.2-.2h1.2l1 .2c.6.3 1.4.5 1.8 1.1zm-134.6.8c-.3.7-.6 1.4-.4 2.2.1.8.6 1.4 1.3 1.8.6.4 1.4.6 2.1.7h2.3c3-.2 6-1.4 9-2 3-.6 6.2-1 9.2-.6 3.1.5 5.9 2 8.6 3.6 2.6 1.5 5.2 3.2 8.2 4a14 14 0 008.8-.3c3-1 5.6-2.4 8.5-3.5 1.5-.5 3-1 4.5-1.1 1.6-.2 3.2-.2 4.7 0 3.1.5 6 1.5 9 2.2a13.2 13.2 0 008.9-.1l4.2-1.9c1.5-.6 3-1 4.7-.9 3.2.2 6 1.4 9 2.2 1.4.5 3 .7 4.5.7s3-.4 4.4-1a17.4 17.4 0 019.1-1.2c3 .4 6.1 1 9.1 1 1.6-.1 3-.5 4.4-1.2a4 4 0 001.7-1.6c.4-.6.7-1.5.2-2.1.5.6.3 1.5-.1 2.1-.4.7-1 1.2-1.7 1.6a11 11 0 01-4.4 1.3c-3.1.2-6.1-.5-9.2-.7-1.5-.1-3-.2-4.5 0-1.6.2-3 .7-4.4 1.3-1.5.5-3 1-4.6 1-1.6.2-3-.2-4.6-.5-3-.8-5.9-2-8.9-2.2-1.5 0-3 .3-4.3.9l-4.2 1.8c-1.5.6-3 .8-4.7.8-1.6 0-3-.3-4.6-.6-3-.7-6-1.8-9-2.2a16.4 16.4 0 00-8.8 1.1c-2.8 1-5.6 2.5-8.5 3.5-1.5.5-3 .8-4.6.9a13 13 0 01-4.6-.7c-3-.8-5.6-2.6-8.3-4.2a22.3 22.3 0 00-8.3-3.5c-3-.5-6.1 0-9.1.5s-6 1.7-9 1.9l-2.3-.1c-.8-.1-1.6-.3-2.2-.8a3 3 0 01-1.3-1.8c-.4-.9-.1-1.7.2-2.3z"/><path fill="#C5505D" fill-rule="nonzero" d="M123.8 175c-.3.6-.6 1.4-.4 2.1.1.8.6 1.4 1.3 1.8.6.5 1.4.7 2.1.7a6 6 0 002.3.1c3-.3 6-1.4 9-2a26 26 0 019.2-.6c3.1.5 5.9 2 8.6 3.5 2.6 1.5 5.2 3.2 8.2 4a14 14 0 008.8-.3c3-1 5.6-2.3 8.5-3.4a17.8 17.8 0 019.2-1.1c3.1.5 6 1.5 9 2.2 1.5.3 3 .6 4.5.6s3-.2 4.4-.8l4.2-1.8c1.5-.6 3-1 4.7-1 3.2.2 6 1.5 9 2.3 1.4.4 3 .7 4.5.7s3-.5 4.4-1a17.4 17.4 0 019.1-1.2c3 .3 6.1 1 9.1.9 1.6-.1 3-.4 4.4-1.2a4 4 0 001.7-1.5c.4-.6.7-1.5.2-2.2.5.7.3 1.6-.1 2.2a5 5 0 01-1.7 1.5 11 11 0 01-4.4 1.3c-3.1.2-6.1-.4-9.2-.6a17 17 0 00-8.9 1.2c-1.5.6-3 1-4.6 1.1-1.6.1-3-.2-4.6-.6-3-.8-5.9-2-8.9-2.1a9 9 0 00-4.3.8c-1.4.5-2.8 1.3-4.2 1.9-1.5.5-3 .8-4.7.7-1.6 0-3-.3-4.6-.6-3-.7-6-1.7-9-2.1a16.4 16.4 0 00-8.8 1c-2.8 1.1-5.6 2.5-8.5 3.5-1.5.5-3 .8-4.6 1a13 13 0 01-4.6-.7c-3-1-5.6-2.6-8.3-4.2a22.3 22.3 0 00-8.3-3.5c-3-.5-6.1-.1-9.1.4s-6 1.7-9 2c-.8 0-1.6 0-2.3-.2-.8-.1-1.6-.3-2.2-.7a3 3 0 01-1.3-1.9c-.4-.8-.1-1.6.2-2.3z"/><path fill="#C5505D" fill-rule="nonzero" d="M123.8 181.1c-.3.7-.6 1.5-.4 2.3.1.7.6 1.3 1.3 1.8a4 4 0 002.1.6 6 6 0 002.3.1c3-.3 6-1.4 9-2 3-.6 6.2-1 9.2-.6 3.1.5 5.9 2 8.6 3.5 2.6 1.5 5.2 3.3 8.2 4a14 14 0 008.8-.3c3-1 5.6-2.3 8.5-3.4a17.8 17.8 0 019.2-1.1c3.1.5 6 1.5 9 2.2 1.5.3 3 .6 4.5.6s3-.2 4.4-.8l4.2-1.8c1.5-.6 3-1 4.7-1 3.2.2 6 1.5 9 2.3 1.4.4 3 .7 4.5.7s3-.5 4.4-1a17.4 17.4 0 019.1-1.2c3 .3 6.1 1 9.1.9 1.6 0 3-.4 4.4-1.2a4 4 0 001.7-1.5c.4-.6.7-1.5.2-2.2.5.7.3 1.6-.1 2.2-.4.6-1 1.2-1.7 1.5a11 11 0 01-4.4 1.3c-3.1.2-6.1-.4-9.2-.6-1.5-.1-3-.2-4.5 0-1.6.2-3 .7-4.4 1.2-1.5.6-3 1-4.6 1.1-1.6.1-3-.2-4.6-.6-3-.7-5.9-2-8.9-2.1-1.5 0-3 .3-4.3.8l-4.2 1.9a18.2 18.2 0 01-9.3.1c-3-.7-6-1.7-9-2.1a16.4 16.4 0 00-8.8 1c-2.8 1.1-5.6 2.6-8.5 3.5-1.5.5-3 .9-4.6 1a13 13 0 01-4.6-.7c-3-.9-5.6-2.6-8.3-4.2a22.3 22.3 0 00-8.3-3.5c-3-.5-6.1-.1-9.1.5-3 .4-6 1.6-9 1.8H127c-.8-.2-1.6-.4-2.2-.8a3 3 0 01-1.3-1.9c-.4-.8-.1-1.6.2-2.3z"/><path fill="#C5505D" fill-rule="nonzero" d="M123.8 187.4c-.3.6-.6 1.4-.4 2.2.1.7.6 1.3 1.3 1.8.6.4 1.4.6 2.1.7h2.3c3-.3 6-1.4 9-2 3-.6 6.2-1 9.2-.6 3.1.5 5.9 2 8.6 3.5 2.6 1.5 5.2 3.3 8.2 4a14 14 0 008.8-.3c3-1 5.6-2.3 8.5-3.4a17.8 17.8 0 019.2-1.1c3.1.5 6 1.5 9 2.2 1.5.3 3 .6 4.5.6s3-.2 4.4-.7l4.2-1.9c1.5-.6 3-1 4.7-.9 3.2.1 6 1.4 9 2.2 1.4.4 3 .7 4.5.7s3-.5 4.4-1a17.4 17.4 0 019.1-1.2c3 .3 6.1 1 9.1.9 1.6 0 3-.4 4.4-1.2a4 4 0 001.7-1.5c.4-.6.7-1.5.2-2.1.5.6.3 1.5-.1 2.1-.4.6-1 1.2-1.7 1.5a11 11 0 01-4.4 1.3c-3.1.2-6.1-.4-9.2-.6-1.5-.1-3-.2-4.5 0-1.6.2-3 .7-4.4 1.2-1.5.6-3 1-4.6 1.2-1.6 0-3-.3-4.6-.7-3-.7-5.9-2-8.9-2.1-1.5 0-3 .3-4.3.8l-4.2 1.9a18.2 18.2 0 01-9.3.1c-3-.7-6-1.7-9-2.1a16.4 16.4 0 00-8.8 1c-2.8 1.1-5.6 2.6-8.5 3.5-1.5.5-3 .9-4.6 1a13 13 0 01-4.6-.7c-3-.9-5.6-2.6-8.3-4.2a22.3 22.3 0 00-8.3-3.5c-3-.5-6.1 0-9.1.5-3 .4-6 1.6-9 1.8H127c-.8-.2-1.6-.4-2.2-.8a3 3 0 01-1.3-1.9c-.4-.8-.1-1.6.2-2.2z"/><path fill="#C5505D" fill-rule="nonzero" d="M123.8 193.6c-.3.7-.6 1.4-.4 2.2.1.7.6 1.4 1.3 1.8.6.4 1.4.6 2.1.7h2.3c3-.2 6-1.4 9-2 3-.6 6.2-1 9.2-.6 3.1.5 5.9 2 8.6 3.5 2.6 1.5 5.2 3.3 8.2 4.1a14 14 0 008.8-.3c3-1 5.6-2.4 8.5-3.5 1.5-.5 3-1 4.5-1.2 1.6-.2 3.2-.1 4.7.1 3.1.5 6 1.5 9 2.2 1.5.4 3 .6 4.5.6s3-.2 4.4-.7l4.2-1.9c1.5-.6 3-1 4.7-.9 3.2.1 6 1.4 9 2.2 1.4.4 3 .7 4.5.7s3-.5 4.4-1a17.4 17.4 0 019.1-1.2c3 .3 6.1 1 9.1.9 1.6 0 3-.4 4.4-1.2a4 4 0 001.7-1.5c.4-.6.7-1.5.2-2.1.5.6.3 1.5-.1 2.1-.4.6-1 1.2-1.7 1.5a11 11 0 01-4.4 1.3c-3.1.2-6.1-.4-9.2-.6-1.5-.1-3-.2-4.5 0-1.6.2-3 .7-4.4 1.3-1.5.5-3 1-4.6 1-1.6.1-3-.2-4.6-.6-3-.7-5.9-2-8.9-2.1-1.5 0-3 .3-4.3.8l-4.2 1.9a14.5 14.5 0 01-9.3.1c-3-.7-6-1.7-9-2.1a16.4 16.4 0 00-8.8 1.1c-2.8 1-5.6 2.5-8.5 3.4-1.5.5-3 .9-4.6 1a13 13 0 01-4.6-.7c-3-.9-5.6-2.6-8.3-4.2a22.3 22.3 0 00-8.3-3.5c-3-.5-6.1 0-9.1.5s-6 1.6-9 1.8H127c-.8-.2-1.6-.4-2.2-.8a3 3 0 01-1.3-1.9c-.4-.8-.1-1.5.2-2.2z"/><path fill="#C5505D" fill-rule="nonzero" d="M123.8 199.8c-.3.7-.6 1.4-.4 2.2.1.7.6 1.4 1.3 1.8.6.4 1.4.6 2.1.7h2.3c3-.2 6-1.4 9-2 3-.6 6.2-1 9.2-.6 3.1.5 5.9 2 8.6 3.5 2.6 1.6 5.2 3.3 8.2 4.1a14 14 0 008.8-.3c3-1 5.6-2.4 8.5-3.5 1.5-.5 3-1 4.5-1.2 1.6-.2 3.2 0 4.7.1 3.1.5 6 1.5 9 2.2 1.5.4 3 .6 4.5.6s3-.2 4.4-.7l4.2-1.9c1.5-.6 3-1 4.7-.9 3.2.2 6 1.4 9 2.2 1.4.4 3 .7 4.5.7s3-.5 4.4-1a17.4 17.4 0 019.1-1.2c3 .4 6.1 1 9.1 1 1.6-.2 3-.5 4.4-1.3a4 4 0 001.7-1.5c.4-.6.7-1.5.2-2.1.5.6.3 1.5-.1 2.1-.4.6-1 1.2-1.7 1.5a11 11 0 01-4.4 1.3c-3.1.3-6.1-.4-9.2-.6-1.5-.1-3-.2-4.5 0-1.6.2-3 .7-4.4 1.3-1.5.5-3 1-4.6 1-1.6.1-3-.2-4.6-.5-3-.8-5.9-2-8.9-2.2-1.5 0-3 .3-4.3.8-1.4.6-2.8 1.4-4.2 1.9-1.5.6-3 .8-4.7.8-1.6 0-3-.3-4.6-.7-3-.6-6-1.7-9-2.1a16.4 16.4 0 00-8.8 1.1c-2.8 1-5.6 2.5-8.5 3.5-1.5.4-3 .8-4.6.9a13 13 0 01-4.6-.7c-3-.9-5.6-2.6-8.3-4.2a22.3 22.3 0 00-8.3-3.5c-3-.5-6.1 0-9.1.5s-6 1.6-9 1.9l-2.3-.1c-.8-.2-1.6-.4-2.2-.8a3 3 0 01-1.3-1.8c-.4-.9-.1-1.7.2-2.3z"/><path fill="#C5505D" fill-rule="nonzero" d="M123.8 206c-.3.6-.6 1.4-.4 2.1.1.8.6 1.4 1.3 1.8.6.4 1.4.6 2.1.7.8.2 1.6.2 2.3 0 3-.2 6-1.4 9-2 3-.5 6.2-1 9.2-.5 3.1.4 5.9 2 8.6 3.5 2.6 1.5 5.2 3.2 8.2 4a14 14 0 008.8-.3c3-1 5.6-2.3 8.5-3.4a17.8 17.8 0 019.2-1.1c3.1.4 6 1.5 9 2.2 1.5.3 3 .6 4.5.6s3-.2 4.4-.8l4.2-1.8c1.5-.7 3-1 4.7-1 3.2.2 6 1.4 9 2.3 1.4.4 3 .7 4.5.7s3-.5 4.4-1a17.4 17.4 0 019.1-1.2c3 .3 6.1 1 9.1.9 1.6-.1 3-.5 4.4-1.2a4 4 0 001.7-1.5c.4-.7.7-1.6.2-2.2.5.6.3 1.5-.1 2.2a5 5 0 01-1.7 1.5 11 11 0 01-4.4 1.3c-3.1.2-6.1-.4-9.2-.6a17 17 0 00-8.9 1.2c-1.5.6-3 1-4.6 1.1-1.6 0-3-.3-4.6-.6-3-.8-5.9-2-8.9-2.1a9 9 0 00-4.3.8l-4.2 1.8c-1.5.6-3 .9-4.7.8-1.6 0-3-.3-4.6-.6-3-.7-6-1.7-9-2.2a16.4 16.4 0 00-8.8 1.1c-2.8 1-5.6 2.5-8.5 3.5-1.5.5-3 .8-4.6.9a13 13 0 01-4.6-.6c-3-1-5.6-2.6-8.3-4.2a22.3 22.3 0 00-8.3-3.6c-3-.4-6.1 0-9.1.5s-6 1.7-9 1.9H127c-.8-.2-1.6-.4-2.2-.8a3 3 0 01-1.3-1.9c-.4-.8-.1-1.6.2-2.3z"/><path fill="#C5505D" fill-rule="nonzero" d="M123.8 212c-.3.6-.6 1.4-.4 2.1.1.8.6 1.4 1.3 1.8a4 4 0 002.1.7c.8.2 1.6.2 2.3 0 3-.2 6-1.4 9-2 3-.5 6.2-1 9.2-.5 3.1.4 5.9 2 8.6 3.5 2.6 1.5 5.2 3.2 8.2 4a14 14 0 008.8-.3c3-1 5.6-2.3 8.5-3.4a17.8 17.8 0 019.2-1.1c3.1.4 6 1.5 9 2.2 1.5.3 3 .6 4.5.6s3-.2 4.4-.8l4.2-1.8c1.5-.7 3-1 4.7-1 3.2.2 6 1.4 9 2.3 1.4.4 3 .7 4.5.7s3-.5 4.4-1a17.4 17.4 0 019.1-1.2c3 .3 6.1 1 9.1.9 1.6-.1 3-.5 4.4-1.2a4 4 0 001.7-1.5c.4-.7.7-1.6.2-2.2.5.6.3 1.5-.1 2.2a5 5 0 01-1.7 1.5 11 11 0 01-4.4 1.3c-3.1.2-6.1-.4-9.2-.6a17 17 0 00-8.9 1.2c-1.5.6-3 1-4.6 1.1-1.6 0-3-.3-4.6-.6-3-.8-5.9-2-8.9-2.1a9 9 0 00-4.3.8l-4.2 1.8c-1.5.6-3 .9-4.7.8-1.6 0-3-.3-4.6-.6-3-.7-6-1.7-9-2.2a16.4 16.4 0 00-8.8 1.2c-2.8 1-5.6 2.4-8.5 3.4-1.5.5-3 .8-4.6.9a13 13 0 01-4.6-.6c-3-1-5.6-2.6-8.3-4.2a22.3 22.3 0 00-8.3-3.6c-3-.4-6.1 0-9.1.5s-6 1.7-9 1.9H127c-.8-.2-1.6-.4-2.2-.8a3 3 0 01-1.3-1.9c-.4-.8-.1-1.6.2-2.3z"/><path fill="#C5505D" fill-rule="nonzero" d="M123.8 218.1c-.3.7-.5 1.3-.4 2 0 .7.4 1.3.9 1.7 1 .9 2.5 1.1 3.8 1.1 2.7 0 5.3-.9 8-1.6a36 36 0 018-1.2 16 16 0 018 1.6c2.5 1.2 4.8 2.6 7.1 4l3.6 1.8c1.3.4 2.6.8 3.9 1a17 17 0 007.8-1.5c2.5-1 5-2.2 7.5-3a16.7 16.7 0 018.2-1c2.8.3 5.3 1.1 8 1.9 2.6.7 5.2 1.2 7.8.9 2.7-.3 5-1.9 7.6-2.8a11 11 0 014-.5c1.4 0 2.8.4 4 .7 2.7.8 5.2 1.8 7.9 2.1 1.3.2 2.7 0 4-.3 1.2-.4 2.5-1 3.8-1.3 2.6-.9 5.4-.7 8-.3-2.6-.3-5.4-.4-8 .5-1.3.4-2.5 1-3.7 1.3-1.4.5-2.7.6-4.1.5-2.8-.2-5.3-1.3-8-2-1.3-.3-2.6-.6-4-.7-1.2 0-2.5.1-3.8.6-1.2.4-2.4 1-3.7 1.6l-1.9.8-1 .3-1 .2c-2.8.3-5.6-.2-8.2-1-2.7-.6-5.2-1.4-8-1.8a15 15 0 00-3.9 0c-1.3.2-2.6.6-3.8 1-2.6.9-5 2-7.6 3-2.5 1-5.3 1.8-8 1.4a13 13 0 01-4-1c-1.4-.5-2.6-1.1-3.7-1.8l-7-4a19 19 0 00-7.9-1.7c-2.7 0-5.3.5-8 1.1-2.7.6-5.3 1.5-8 1.5-.7 0-1.4-.2-2-.3-.7-.2-1.4-.5-1.9-1a3 3 0 01-.9-1.8c.1-.7.3-1.3.6-2z"/><path fill="#C5505D" fill-rule="nonzero" d="M123.8 224.3a3 3 0 00-.4 1.8c0 .6.2 1.1.6 1.6.8 1 2 1.3 3.3 1.4 2.4.2 4.7-.5 7-1 2.4-.7 4.8-1.3 7.2-1.6a18 18 0 0110.8 1.5 74 74 0 013.2 1.7c2.1 1.3 4.2 2.6 6.3 3.6l1.7.6 1.7.5 1.8.3h1.8a23 23 0 006.9-1.9c2.2-.9 4.4-2 6.7-2.7a21 21 0 013.6-1h3.8c4.9.5 9.4 2.8 14.2 3 1.1 0 2.3 0 3.5-.4 1.2-.2 2.3-.8 3.3-1.3l3.4-1.4c1.2-.3 2.4-.4 3.7-.3 2.5.2 4.7 1.1 7 1.8s4.7 1.4 7.1 1c-2.4.4-4.8-.2-7.2-.9-2.3-.7-4.6-1.5-7-1.6a10 10 0 00-3.5.3l-3.4 1.4-3.3 1.4c-1.2.3-2.5.4-3.7.4-2.5 0-4.9-.7-7.2-1.4-2.4-.6-4.6-1.3-7-1.6a15 15 0 00-7 1c-2.3.7-4.5 1.7-6.8 2.7a28 28 0 01-7 2H167l-1.8-.4-1.8-.4-1.8-.7c-2.2-1-4.3-2.4-6.3-3.6a25.3 25.3 0 00-6.5-3 19 19 0 00-7.2-.3c-2.4.2-4.7.8-7 1.3a23 23 0 01-7.3 1c-1.1-.1-2.5-.5-3.2-1.5-.4-.5-.6-1.1-.6-1.7-.2-.4 0-1 .3-1.6z"/><path fill="#C5505D" fill-rule="nonzero" d="M123.8 230.6c-.3.4-.4 1-.4 1.5 0 .6.1 1.2.5 1.6.6 1 1.8 1.4 2.8 1.6 2.2.3 4.4-.3 6.6-.8 2.1-.6 4.3-1.2 6.5-1.5 2.3-.4 4.5-.6 6.8-.4 2.3.2 4.5 1 6.5 2.1 2 1 4 2.3 5.9 3.4 2 1 4 2.1 6 2.5a12.7 12.7 0 006.6-.2c4.3-1 8.2-3.6 12.6-4.6a16 16 0 016.8-.2c2.2.3 4.5 1 6.6 1.7a24 24 0 006.6 1.1c1 .1 2.2-.1 3.2-.3l3.1-1.2c1-.5 2.1-1 3.1-1.3a10 10 0 013.4-.5c2.2 0 4.4.8 6.5 1.5-2.1-.7-4.3-1.3-6.5-1.3-1.1 0-2.3.2-3.3.6l-3 1.4c-1 .5-2.1 1-3.2 1.3-1.1.2-2.3.4-3.4.4-2.3 0-4.5-.6-6.7-1.1-2.2-.6-4.4-1.3-6.5-1.6-2.2-.4-4.4-.4-6.6.2-4.3 1-8.1 3.5-12.6 4.7-1 .3-2.3.4-3.4.5-1.1 0-2.2 0-3.4-.3-2.3-.5-4.3-1.6-6.3-2.7l-5.8-3.4c-2-1-4.1-1.8-6.3-2-2.2-.3-4.4-.1-6.7.2-2.2.4-4.3 1-6.5 1.5s-4.5 1-6.7.6a4.6 4.6 0 01-3-1.7c-.2-.4-.4-1-.4-1.5a8 8 0 01.6-1.8z"/><path fill="#C5505D" fill-rule="nonzero" d="M123.8 236.7a3 3 0 000 3c.6 1 1.6 1.4 2.6 1.6 2.2.4 4.3 0 6.4-.5l3.1-.9a43 43 0 019.7-1.3c2.2.1 4.3.7 6.3 1.6 2 1 3.9 2 5.7 3.1 1.9 1.1 3.8 2.2 5.8 3 2 .7 4.1.9 6.2.7 4.2-.6 8-2.8 12-4.3a18.4 18.4 0 0113-.2l6.2 1.7 3.2.4 1.5-.1h.8l.8-.2c2-.4 4-1.6 6-2.4a10.2 10.2 0 016.4-.4c-1-.2-2.1-.3-3.2-.2-1 0-2 .4-3 .9-2 .8-3.9 2-6 2.4l-1 .2-.8.1H204c-1.1 0-2.2 0-3.3-.3-2.1-.4-4.2-1-6.3-1.6a17.6 17.6 0 00-12.5.3l-6 2.4c-2 .9-4 1.6-6.2 1.9-2.2.3-4.4 0-6.5-.8-2-.7-4-1.8-5.8-3-1.9-1-3.7-2.2-5.6-3-2-1-4-1.5-6.1-1.6a28 28 0 00-6.4.5l-3.2.6-3 .7c-2.1.5-4.4 1-6.5.5-1-.2-2.1-.8-2.7-1.8-.3-.4-.4-1-.3-1.5a2 2 0 01.3-1.5z"/><path fill="#C5505D" fill-rule="nonzero" d="M123.8 243a3 3 0 00-.1 2.9c.4.9 1.4 1.4 2.5 1.6 2 .4 4 .1 6-.4a47 47 0 016-1.4 30.7 30.7 0 019.4-.6c.5 0 1 .2 1.5.4l1.5.4a37 37 0 015.6 2.9c1.8 1 3.5 2.1 5.4 3 1.8.8 3.8 1.5 5.8 1.5s4-.4 6-1l5.7-2.4a26 26 0 016-2c2-.4 4.1-.3 6.2.1 4 .8 8 2.5 12 2.8 2 .2 4.1-.2 6-1 2-.7 3.8-1.9 5.9-2.2-2 .4-3.8 1.5-5.8 2.4-1.8.8-4 1.2-6 1-4.3-.2-8.2-1.9-12.2-2.6-2-.3-4-.4-6 0s-4 1.1-5.9 2l-5.7 2.3c-2 .7-4 1.2-6.2 1.1-2.2 0-4.2-.7-6.1-1.6-2-.9-3.7-2-5.5-3-1.8-1-3.5-2-5.4-2.8a12 12 0 00-3-.9c-1-.2-2-.2-3-.2a30 30 0 00-9.1 1.3l-3 .8c-2 .4-4.2.8-6.3.2-1-.3-2-.8-2.5-1.7-.4-1-.2-2 .3-3z"/><path fill="#C5505D" fill-rule="nonzero" d="M123.8 249.1c-.4.9-.6 1.9-.2 2.7.3 1 1.2 1.5 2 1.7 1.9.6 3.8.4 5.6 0l5.5-1.4c1.9-.4 3.8-.8 5.6-1 2-.3 4-.2 5.8.2 1.8.4 3.6 1.1 5.4 2 3.4 1.8 6.4 4.1 10 5.3 1.7.7 3.5 1 5.4.7 1.9-.1 3.7-.7 5.4-1.3 3.5-1.3 6.9-3.1 10.7-4a16 16 0 015.7 0c2 .4 3.8 1 5.6 1.5l5.5 1.4c1.9.2 3.8.3 5.6-.2-1.8.6-3.8.6-5.7.3-1.8-.3-3.7-.8-5.5-1.3-1.8-.4-3.7-1-5.5-1.2a17 17 0 00-5.6 0c-3.7.8-7 2.7-10.6 4-1.8.8-3.7 1.3-5.6 1.5-2 .2-4-.1-5.7-.8-3.7-1.3-6.8-3.7-10-5.4a18.3 18.3 0 00-10.9-2.3c-1.8.2-3.7.5-5.6 1-1.8.3-3.6.9-5.5 1.2-1.9.4-3.9.5-5.7 0-.9-.4-1.7-1-2.1-2a4 4 0 01.4-2.6z"/><path fill="#C5505D" fill-rule="nonzero" d="M124 255.9c-.3.7-.5 1.7-.2 2.5.3.9 1 1.5 1.9 1.8 1.6.6 3.5.4 5.2.2l5.2-1.3a31.2 31.2 0 0110.7-1.3c1.8.2 3.6.8 5.2 1.5 3.3 1.4 6.2 3.6 9.4 5.1 1.6.8 3.3 1.4 5 1.6 1.7.3 3.5.1 5.2-.3 3.4-.8 6.6-2.6 10-3.8a17.7 17.7 0 0110.7-.8c3.5.7 6.8 2.1 10.4 2.6-3.6-.4-7-1.7-10.5-2.4a16.9 16.9 0 00-10.4 1c-3.3 1.2-6.5 3-10 4-1.7.4-3.6.6-5.5.4-1.8-.3-3.6-1-5.2-1.7-3.2-1.6-6.1-3.8-9.4-5.2a18.4 18.4 0 00-10.3-1.4 31 31 0 00-5.3 1l-5.2 1.1c-1.8.3-3.7.4-5.4-.3-.9-.4-1.6-1-2-1.9a4 4 0 01.6-2.4z"/><path fill="#C5505D" fill-rule="nonzero" d="M124 262.1a4 4 0 00-.3 2.4 3 3 0 001.6 1.8c1.5.7 3.3.6 5 .4a28 28 0 004.8-1.2c1.7-.4 3.3-.8 5-1 3.3-.7 6.9-.8 10.1.4 3.3 1 6.1 3 9 4.6 1.5.9 3 1.6 4.5 2.2 1.5.5 3.2.8 4.8.7 3.4 0 6.5-1.5 9.6-2.7 3.1-1.3 6.3-2.6 9.7-2.7 3.5 0 6.8 1.1 10 2-3.3-.8-6.6-1.9-10-1.7a27 27 0 00-9.5 3 56 56 0 01-4.7 1.9 14.4 14.4 0 01-10.1.2c-1.6-.6-3.1-1.4-4.6-2.2-3-1.7-5.7-3.6-8.9-4.7-3.1-1.1-6.6-1-9.8-.5l-5 1c-1.6.4-3.2.9-4.9 1a9 9 0 01-5-.5c-.8-.4-1.4-1-1.7-2-.1-.8 0-1.7.5-2.4z"/><path fill="#C5505D" fill-rule="nonzero" d="M124 268.3c-.3.7-.5 1.5-.3 2.3a3 3 0 001.4 1.8 5 5 0 002.2.6h2.4c1.5-.1 3-.6 4.5-1 1.6-.4 3-.8 4.7-1 3-.7 6.3-1.1 9.5-.5 3.1.6 6 2.3 8.6 3.9 2.7 1.6 5.4 3.3 8.4 4 1.5.3 3 .4 4.5.2 1.6-.2 3-.7 4.5-1.2 3-1 5.8-2.5 8.8-3.4 1.5-.4 3.1-.7 4.7-.7s3.2.3 4.7.6a16.7 16.7 0 00-9.3.5c-3 1-5.7 2.4-8.7 3.6-1.4.5-3 1-4.6 1.3-1.6.2-3.3.1-4.8-.2-3.2-.7-6-2.4-8.6-4a26.7 26.7 0 00-8.5-3.9c-3-.6-6.2-.3-9.2.3l-4.6 1c-1.5.4-3 .8-4.6 1-.8 0-1.6 0-2.4-.2-.8 0-1.6-.3-2.3-.7a2.9 2.9 0 01-1.4-2c-.1-.8.1-1.7.5-2.3z"/><path fill="#C5505D" fill-rule="nonzero" d="M124 274.4c-.3.7-.5 1.6-.3 2.3a3 3 0 001.4 1.8 5 5 0 002.2.6h2.4c1.5-.1 3-.5 4.5-1 1.6-.3 3-.8 4.7-1 3-.6 6.3-1 9.5-.4 3.1.6 6 2.2 8.6 3.8 2.7 1.6 5.4 3.3 8.4 4 1.5.4 3 .4 4.5.2 1.6-.2 3-.7 4.5-1.1 3-1 5.8-2.5 8.8-3.4 1.5-.4 3.1-.7 4.7-.8 1.6 0 3.2.3 4.7.6-1.5-.2-3.1-.4-4.7-.4s-3.1.4-4.6 1c-3 .9-5.7 2.3-8.7 3.5-1.4.6-3 1-4.6 1.3-1.6.2-3.3.2-4.8-.2-3.2-.7-6-2.4-8.6-4a26.7 26.7 0 00-8.5-3.9c-3-.6-6.2-.2-9.2.3l-4.6 1c-1.5.4-3 .8-4.6 1l-2.4-.1a9 9 0 01-2.3-.8 2.9 2.9 0 01-1.4-1.9 4 4 0 01.5-2.4z"/><path fill="#C5505D" fill-rule="nonzero" d="M124 280.7c-.3.6-.5 1.3-.3 2 .1.7.5 1.3 1 1.8a7.5 7.5 0 004.1.8c3-.2 5.8-1.3 8.7-1.9a20.1 20.1 0 0117.1 2c2.6 1.4 5 3 7.7 4.2 1.3.6 2.7 1 4.1 1.3 1.4.2 2.8.1 4.3-.2 2.8-.5 5.5-1.7 8.2-2.9a26 26 0 018.5-2.2c-2.9.2-5.6 1.3-8.3 2.5-2.7 1.2-5.4 2.5-8.3 3.1l-1.1.2-1.2.2c-.7 0-1.5 0-2.2-.2-1.5-.2-2.9-.6-4.3-1.2-2.7-1.2-5.1-2.8-7.7-4.3a19 19 0 00-8-2.8c-3-.3-5.9.2-8.7.8-2.9.6-5.7 1.6-8.7 1.7l-2.2-.2c-.8-.2-1.4-.5-2-1-.7-.4-1.1-1-1.2-1.8 0-.6.2-1.3.6-2z"/><path fill="#C5505D" fill-rule="nonzero" d="M124 286.9c-.3.6-.5 1.4-.3 2a3 3 0 001 1.8 7.5 7.5 0 004.1.8c3-.1 5.8-1.2 8.7-1.9 2.8-.7 5.8-1.1 8.8-.9 3 .2 5.8 1.5 8.3 2.9 2.6 1.4 5 3 7.7 4.2 1.3.6 2.7 1 4.1 1.3 1.4.2 2.8.1 4.3-.2 2.8-.5 5.5-1.7 8.2-2.9a26 26 0 018.5-2.2c-2.9.2-5.6 1.3-8.3 2.5-2.7 1.2-5.4 2.5-8.3 3.1l-1.1.2-1.2.2c-.7 0-1.5 0-2.2-.2-1.5-.2-2.9-.6-4.3-1.2-2.7-1.2-5.1-2.8-7.7-4.3a19 19 0 00-8-2.8c-3-.3-5.9.2-8.7.8-2.9.6-5.7 1.6-8.7 1.7l-2.2-.2c-.8-.2-1.4-.5-2-1-.7-.4-1.1-1-1.2-1.8 0-.5.2-1.3.6-2z"/><path fill="#C5505D" fill-rule="nonzero" d="M124 293a4 4 0 00-.3 2c0 .8.4 1.4 1 1.8.5.4 1.1.7 1.8.8a7 7 0 002 .2c2.8 0 5.5-1 8.2-1.8a34 34 0 018.4-1.1c2.8 0 5.7.8 8.2 2.1 2.5 1.3 4.8 3 7.2 4.2 2.4 1.3 5.1 2.2 8 2.2 2.7 0 5.4-1 8-2 2.6-1 5.1-2.2 7.8-2.9a52 52 0 00-7.7 3.2 23.6 23.6 0 01-8.2 2.3 16 16 0 01-8.2-2.2c-2.4-1.3-4.8-3-7.3-4.2a16.7 16.7 0 00-7.9-2.1 46 46 0 00-8.2 1c-2.7.6-5.4 1.6-8.3 1.6l-2.1-.3a5 5 0 01-2-1 3 3 0 01-1-1.8 6 6 0 01.7-2z"/><path fill="#C5505D" fill-rule="nonzero" d="M124 299a4 4 0 00-.3 2c0 .6.4 1.2.9 1.7 1 .9 2.4 1 3.7 1 2.7 0 5.3-.9 7.9-1.6a45 45 0 018-1.3 18.9 18.9 0 018 1.7c2.7 1.1 5 2.7 7.3 4 2.3 1.3 4.8 2.5 7.5 2.7 2.6.4 5.3-.3 7.8-1.3 2.6-.9 5-2.1 7.6-2.9-2.5 1-5 2.2-7.4 3.3a17 17 0 01-8 1.5c-1.4 0-2.8-.5-4-1-1.4-.5-2.5-1-3.7-1.8l-7-4a15.3 15.3 0 00-7.7-1.7c-2.7.2-5.4.8-8 1.3-2.6.6-5.3 1.5-8 1.4l-2.1-.3a4 4 0 01-1.8-1 3 3 0 01-.9-1.8c-.3-.6 0-1.3.3-1.9z"/><path fill="#C5505D" fill-rule="nonzero" d="M124 305.2a4 4 0 00-.3 2c0 .6.4 1.2.9 1.7 1 .9 2.4 1 3.7 1 2.7 0 5.3-.9 7.9-1.6a45 45 0 018-1.3 18.9 18.9 0 018 1.7c2.7 1.2 5 2.7 7.3 4 2.3 1.3 4.8 2.5 7.5 2.7 2.6.4 5.3-.3 7.8-1.3 2.6-.9 5-2.1 7.6-2.9-2.5 1-5 2.2-7.4 3.3a17 17 0 01-8 1.5c-1.4 0-2.8-.5-4-1-1.4-.5-2.5-1-3.7-1.8-2.4-1.3-4.7-2.8-7-3.9a15.3 15.3 0 00-7.7-1.7c-2.7.1-5.4.7-8 1.2-2.6.6-5.3 1.5-8 1.4l-2.1-.3a4 4 0 01-1.8-1 3 3 0 01-.9-1.8c-.3-.6 0-1.3.3-1.9z"/><path fill="#C5505D" fill-rule="nonzero" d="M124 311.4a4 4 0 00-.3 2c0 .7.4 1.4 1 1.8.5.4 1.1.7 1.8.8.7.1 1.4.2 2 .1 2.8 0 5.5-1 8.2-1.7a34 34 0 018.4-1.2c2.8 0 5.7.9 8.2 2.2 2.5 1.3 4.8 2.9 7.2 4.2 2.4 1.3 5 2.3 7.8 2.3s5.4-1 8-2c2.6-1 5.2-2.3 8-2.9-2.7.8-5.2 2.1-7.8 3.2a22 22 0 01-8 2.2c-3 0-5.8-1-8.3-2.2-2.4-1.3-4.8-2.9-7.2-4.1a18 18 0 00-7.9-2.2c-2.8 0-5.5.5-8.2 1-2.7.6-5.4 1.6-8.3 1.6-.7 0-1.4 0-2-.3-.7-.1-1.4-.5-2-1a3 3 0 01-1-1.8c0-.7.1-1.3.5-2z"/><path fill="#C5505D" fill-rule="nonzero" d="M124 317.6a4 4 0 00-.3 2c0 .7.4 1.4 1 1.8.5.4 1.1.7 1.8.8a7 7 0 002 .1c2.8 0 5.5-1 8.2-1.7a34 34 0 018.4-1.2c2.8 0 5.7.9 8.2 2.2 2.5 1.3 4.8 2.9 7.2 4.2 2.4 1.3 5 2.3 7.8 2.3s5.4-1 8-2c2.6-1 5.2-2.2 8-2.9-2.7.8-5.2 2-7.8 3.2a22 22 0 01-8 2.2 16 16 0 01-8.3-2.2c-2.4-1.3-4.8-2.9-7.2-4.1a16.7 16.7 0 00-7.9-2.2c-2.8 0-5.5.5-8.2 1-2.7.6-5.4 1.6-8.3 1.6-.7 0-1.5 0-2.2-.3-.7-.1-1.4-.5-2-1-.5-.4-.8-1-.9-1.8 0-.6.2-1.3.6-2z"/><path fill="#C5505D" fill-rule="nonzero" d="M124.8 323.9c-.4.6-.6 1.3-.4 2 0 .7.5 1.3 1 1.8a7.5 7.5 0 004.1.8c3-.2 5.8-1.3 8.7-1.9a20.1 20.1 0 0117.1 2c2.6 1.4 5 3 7.6 4.2a12.9 12.9 0 008.4 1.1c3-.5 5.6-1.7 8.3-2.9a26 26 0 018.5-2.2c-2.9.2-5.7 1.3-8.3 2.5-2.7 1.2-5.4 2.5-8.3 3.1l-1.2.2-1 .2c-.8 0-1.6 0-2.3-.2-1.5-.2-2.9-.6-4.3-1.2-2.7-1.2-5.1-2.8-7.7-4.3a19 19 0 00-8.1-2.8c-2.9-.3-5.8.2-8.6.8-2.9.6-5.7 1.6-8.7 1.7l-2.2-.2c-.8-.2-1.5-.5-2-1-.7-.4-1.1-1-1.2-1.8 0-.6.2-1.3.6-2z"/><path fill="#C5505D" fill-rule="nonzero" d="M129.1 334.9c2.7 0 5-.9 7.6-1.6a47 47 0 017.6-1.4 18.4 18.4 0 017.7 1.2c2.5 1 4.7 2.5 7 3.8 2.1 1.3 4.4 2.6 6.9 3.2 2.4.6 5 .3 7.5-.4s4.8-1.8 7.2-2.7c1.2-.5 2.4-1 3.6-1.3 1.3-.3 2.6-.5 4-.6-1.4.1-2.6.4-3.9.8l-3.6 1.3c-2.3 1-4.7 2.3-7.2 3-2.5.8-5.2 1.1-7.8.5-2.5-.6-4.9-1.9-7.2-3.2-2.2-1.3-4.4-2.7-6.8-3.7-1.1-.5-2.4-.9-3.6-1-1.3-.2-2.6-.3-3.8-.2-2.6 0-5.1.6-7.6 1.1-2.5.5-5 1.3-7.6 1.2z"/><path fill="#C5505D" fill-rule="nonzero" d="M133.1 340.6l7-1.8c2.4-.4 5-.7 7.4-.5 2.4.2 4.8 1 7 2.3 2 1 4.2 2.4 6.2 3.5a20 20 0 003.3 1.6l1.6.5 1.8.4c2.3.3 4.7-.2 7-1 2.2-.7 4.5-1.7 6.7-2.6a21 21 0 017-1.7 22 22 0 00-6.9 2c-2.2 1-4.4 2-6.7 2.8a15.3 15.3 0 01-9 .7l-1.8-.6c-1.2-.4-2.3-1-3.3-1.5-2.2-1.2-4.2-2.6-6.3-3.7-2.2-1-4.4-2-6.7-2.2-2.4-.3-4.8-.1-7.2.3l-7 1.5zm4.7 7.4a31 31 0 017.4-1.2 14.2 14.2 0 017.4 1.6c2.3 1.1 4.4 2.6 6.5 3.9a25 25 0 003.4 1.7c1 .5 2.3.8 3.5 1 2.4.3 4.9-.4 7.2-1.3s4.5-2.1 7-3a16 16 0 017.5-1c2.6.3 5 1.1 7.3 1.9-2.4-.6-4.8-1.4-7.3-1.6-2.5-.3-5 .4-7.3 1.3-2.3 1-4.5 2.1-6.9 3-1.1.5-2.4 1-3.6 1.2a12.1 12.1 0 01-7.6-.8c-1.2-.5-2.3-1.1-3.4-1.8l-6.5-4a16.2 16.2 0 00-7.1-1.9 30 30 0 00-7.5 1z"/><path fill="#4F92C4" fill-rule="nonzero" d="M133 145.9l.1 11.4v.1a23 23 0 00-9.9 17.5v4.1a926.5 926.5 0 01.9 41.8c0 22.2 0 44.4-.3 66.7l-.1 16.7-.1 8.3v2.1l.2 2 .5 4.1c.7 5.5 2.2 10.9 4.4 15.9s5.6 9.6 10.2 12.5c1.2.7 2.3 1.4 3.7 1.9l3.8 1.6 7.8 3c5.2 2 10.5 3.7 15.9 5 5.4 1.2 11 2 16.5 2.1 5.5.2 11.1 0 16.7-.6a104 104 0 01-33.3-1c-5.5-1-10.8-2.8-16-4.6l-7.8-3-4-1.6a24.3 24.3 0 01-10-7.5 33.5 33.5 0 01-4.5-7.2 59.8 59.8 0 01-4.8-16l-.5-4.2-.2-2v-10.8l.3-16.6c.2-22.2.4-44.4.4-66.7v-33.3c0-2.8-.3-5.6-.4-8.4v-2.1l.1-2.1c.2-1.4.4-2.8.8-4.1a23.6 23.6 0 019.5-13.5v.1-11.6zm117.5.2l.2 5.7.2 5.7-.2-.3a22.2 22.2 0 019.2 12l.3.8.2 1 .5 1.8.2 1.9.2 1.9v2l-.1 1.8-.2 3.8-.5 15-.5 15a541 541 0 01-.3-30l.2-3.8v-1.9l.1-.9v-.9l-.1-1.8-.3-1.8c0-.6-.3-1.1-.4-1.8l-.2-.9-.3-.9a23 23 0 00-8.4-11.6l-.2-.2v-.1l.2-5.7.2-5.7z"/><path fill="#000" fill-rule="nonzero" d="M135.1 104.1a12 12 0 013.7-.6h3.7a8 8 0 003.4-.8l1.4-1c.4-.5.4-.7-.2-.8h-.1.1-1.7c-.5 0-1 0-1.6.3h-.2c-.4.2-.6.3-.8.6-.1.3-.2.6 0 .9-.3-.3-.3-.6-.1-1 .1-.3.4-.5.7-.7l.1-.1.1-.1a5 5 0 011.8-.5c.6-.1 1.2-.2 1.8-.1h.2-.2l.6.1c.2.1.4.3.5.6.1.5-.2.9-.4 1.1-.4.5-1 .9-1.6 1.2a9 9 0 01-3.7 1l-3.7-.3c-1.3 0-2.6 0-3.8.2zM103 146.9a5 5 0 013.3-1.8 6 6 0 013.8.4 16.1 16.1 0 00-7.2 1.4zm6 .4a22.2 22.2 0 005.7.6 5 5 0 01-3 .6c-.9-.1-2-.5-2.7-1.2z"/><path fill="#C99F62" fill-rule="nonzero" stroke="#FFF" d="M72.3 237l1.7-4.5 18.2 6.9-1.6 4.4zM99.7 233.4l19.4-2.2.5 4.7-19.4 2.2z"/><g fill-rule="nonzero"><path fill="#000" d="M104.3 97.3v.3c0 .2-.2.5-.4.5s-.4 0-.4-.2l-.2-.2.1-.4c0-.1.2-.3.4-.3s.4 0 .5.3c0-.1 0-.1 0 0zm-2 13.3z"/><path fill="#1D1D1B" d="M98.7 97.9c0 .1 0 .1 0 0-.4.2-.6.3-1 0v-.2l.2-.1c.2 0 .5 0 .7.2v.1z"/><path fill="#000" d="M96.6 102.1c.4-.2.8 0 1.2.3.3.2.5.7.3 1.2l-.8-.7-.7-.8zm6.7-4.5l.1-.3c0-.2.2-.3.4-.4.2 0 .4 0 .4.2h.1v.4c0 .2-.2.5-.4.5l-.4-.1-.2-.3z"/><path fill="#1D1D1B" d="M102.2 91.5l-.1.3v-.3zm-4.5 6.2l.2-.1c.2 0 .4 0 .6.2l.1.1v.1c-.3.2-.6.2-.9 0v-.3z"/><path fill="#0C2A3E" d="M95 102.9v-.8c.2-.5.4-1 .9-1.2.4-.2.8-.2 1.2 0l-.3.1c-.7.2-1.4.7-1.6 1.4-.2.2-.2.4-.2.6z"/><g fill="#0C2A3E"><path d="M97.9 97.6l-.2.1v.2c.3.3.6.2.9.1l-.1-.2c-.2-.1-.4-.3-.6-.2zm4.1-5.5v-.2l.2-.4-.2.5z"/><path d="M109 89.7c-.3-1-.9-2.1-2-2.5-.3-.2-.7-.2-1-.2v.3c.4.7.6 1.8.4 2.6-.2.7-.7 1.1-1.5 1.3-.7.2-1.2 0-1.5-.6-.3-.5-.4-1.5-.3-2.1.2-1 .7-1.6 1.5-2a3.3 3.3 0 00-3.2-.8c-.4 0-.7.2-1 .6l-.3.5h.9c.3.1.5.2.7.5.2.2.3.4.2.6 0 .2 0 .5-.2.6a2 2 0 01-1.3.6h-.2v.1c0 .3-.1.4-.2.5-.1.2-.3.2-.4.2-.3 0-.7-.2-1-.4-.2-.5-.2-1 0-1.6a5 5 0 00-1.8-.6 6.1 6.1 0 00-5.8 2.6c-.2.5-.4 1-.4 1.4.4 0 .9 0 1.3.2.6.2 1 .6 1.2 1.4l-.1.6c0 .2-.2.2-.4.3h-.7l-1-.2a2 2 0 01-1-1.4h-.3A7 7 0 0087 94c-.7.8-1.1 1.7-1 2.7v.6l.7-.8c.3-.4.9-.7 1.4-.8.4 0 .8 0 1.1.4.5.4.7 1 .7 1.5-.1.5-.4 1-1 1.3h-.3c-.5.3-1 .4-1.6.2-.4 0-.7-.2-1-.4l-.1.2c-.3.7-.5 1.5-.5 2.2l.2 1 .1.2.4-.6.5-.5c.2-.2.3-.2.4 0 .2 0 .3.1.3.3v.3l-.3.4-.5.7-.4.2v.2c0 .4.3.7.6 1l.6.3.4-.8a2 2 0 011.2-.8c.6-.2 1.2.1 1.5.6.4.5.4 1.1-.1 1.7l-.8.4h-1l-.6-.1v.1c-.2.8-.2 1.5.1 2 .3.6.8 1 1.5 1.4l.6-.7c.2-.2.5-.4.9-.4s.7.3 1 .6c.2.3 0 .7-.2 1-.3.4-.7.6-1.1.6h-.3v.4c.2.3.4.6.9.8.4.3 1 .2 1.7 0 .6 0 1.2-.4 1.6-.8l.1-.2v-.2a1 1 0 01-.1-.8l.1-.5.3-.3.4-.1.4.2c.2.4.2.8.2 1.2l-.2.6c.2.2.5.3.9.3h.2c.3 0 .5 0 .8-.2l.5-.5.2-.8h-.3c-.3 0-.5-.2-.6-.3a.7.7 0 010-.6c0-.4.5-.7 1-.4.2 0 .3.2.4.3l.6-.9c.2-.6.2-1.2 0-1.7 0-.2 0-.3-.2-.4l-.7-.5-1 .3c-.4 0-.8 0-1.2-.2-.5-.1-.9-.5-1-1-.3-.4-.4-1-.2-1.5.2-.6 1-1.1 1.6-1.3l.4-.2c.6 0 1-.3 1.4-.7.3-.5.5-1 .4-1.5-.5.3-1.2.4-1.8-.1-.2-.3-.3-.7-.2-1 0-.4.3-.8.7-.8.4-.1.9 0 1.2.2l.4.4.5-1 .1-1c-.4.2-1 .3-1.6.2-.5 0-1-.6-1.3-1.2-.2-.6 0-1.3.7-1.6.2-.2.5-.2.8-.2l1 .4c.4.3.8.7 1 1.1a4 4 0 001-1l-.2-.7v-.6c0-.1 0-.5.2-.8 0-.2.2-.4.3-.4.1-.2.3-.2.4-.2.2 0 .4 0 .6.3.2.3.3.7.2 1.1 0 .3-.2.7-.4 1 .5-.1 1-.4 1.4-.7.2-.2.4-.2.6 0 .1.3.1.5-.1.6l-.5.3.7.5.3.2v.2h1c.4 0 .8-.2 1.1-.4l1-.8c.8-.7 1-1.8.8-3z"/><path d="M98.4 93.5H98c-.3.2-.3.4-.2.6 0 .3.3.6.6.7.5 0 1 0 1.3-.2a2 2 0 00-.7-.9l-.6-.2zm5.6-4.9v1.3c0 .2.2.4.3.5h.5c.5-.1.8-.5.9-1a3 3 0 00-.4-1.7l-.2-.5c-.6.2-1 .7-1.1 1.4zm-3.6-.5h.4c0-.2.1-.2.2-.3v-.1a.6.6 0 00-.5-.2h-.6v.4l.5.2zm-1.1.8l-.1-.5.1.4zm-7.5 4h.2a1 1 0 00-.7-.9 4 4 0 00-1-.1c.2.3.4.6.8.7l.6.3zm-2.5 11.9c.1 0 .3 0 .4-.2.2-.2.1-.4 0-.6 0-.2-.3-.3-.6-.3l-.6.5-.2.6h1zm-1-6.7c.4-.2.6-.4.6-.7a1 1 0 00-.4-.8c-.2-.2-.4-.2-.7-.2-.2 0-.5.3-.8.5l-.8.9c.3.2.5.3.8.3.5.2.9.1 1.3 0z"/></g><path fill="#000" d="M98.7 102l-.8-.5-.9-.4h.2-.2l-.1-.2.1.1c-.6 0-1.2 0-1.5.6-.3.5-.3 1.1 0 1.7.2.5.7 1 1.3 1 .6 0 1.3-.1 1.8-.6a2 2 0 01-1.8 1c-.7.1-1.6-.4-2-1.1l-.2-1.2c0-.4.2-.8.4-1.1.2-.4.6-.7 1-.7.4-.1.8 0 1.2.1l.1.1v-.1H97h.1c.4 0 .7.3.9.5l.6.8zm3-5.1a1 1 0 01-.1-.9c0-.3.3-.5.6-.7.2-.3.6-.3.9-.3.3 0 .6.2.8.5l-.8.1c-.2 0-.4.1-.5.3l-.5.4c-.2.1-.3.3-.4.6z"/></g><g fill-rule="nonzero"><path fill="#000" d="M108.5 102.3c.2.1.2.5.2.7-.1.3-.3.4-.6.6h-.7a.5.5 0 01-.5-.3l1-.4.4-.2.2-.4z"/><path fill="#000" d="M108 103.5c-.3.7-.2 1.5-.3 2.4 0 .4-.2.9-.5 1.2-.3.5-.8.7-1.2.7l-2.5.1c-.8 0-1.7 0-2.4-.2l2.4-.4h2.4c.3-.2.7-.2.9-.5l.5-1c0-.7.1-1.7.7-2.3z"/><path fill="#FFF" d="M104.1 93.5l4.7 4.3c.3.2.6.4.6.7.1.5-.2.8-.6 1l-.3.3c-.2 0 0 .4 0 .5.2.4.5.8.3 1.2-.1.3-.5.5-.8.6a6 6 0 01-3 0"/><path fill="#000" d="M104.1 93.5l3 2.3 1.5 1.2.7.5c.3.3.6.5.7 1 0 .5-.3 1-.5 1.1l-.5.4s-.2 0 0 0c0-.1 0-.1 0 0l.2.8.1.5c0 .3 0 .5-.2.7-.3.2-.7.4-1 .4l-1 .1c-.6 0-1.3-.1-1.8-.4.6.1 1.2.2 1.8.1.3 0 .6 0 1-.2l.6-.3v-.6c-.1-.3-.3-.6-.3-1l.1-.5c.1-.2.2-.1.3-.2l.3-.2c.2-.2.3-.3.3-.5 0-.4-.7-.7-1.1-1.2l-1.4-1.3-2.8-2.7z"/><path fill="#000" d="M108 103.5c-.3.7-.2 1.5-.3 2.4 0 .4-.2.9-.5 1.2-.3.5-.8.7-1.2.7l-2.5.1c-.8 0-1.7 0-2.4-.2l2.4-.4h1.2l1.2-.2c.3 0 .7-.1.9-.4l.5-1c0-.6.1-1.6.7-2.2zm-4-10l3 2.3 1.5 1.2.7.5c.2.3.6.5.6 1 .1.5-.2 1-.4 1.1l-.5.4s-.2 0 0 0c0-.1 0-.1 0 0v.2l.2.4.1.6-.3.6c-.2.3-.6.4-1 .5h-.9c-.6 0-1.3 0-1.9-.4.7.2 1.3.2 2 .2l.8-.2c.3-.1.6-.2.7-.4v-.6l-.2-.4-.1-.6v-.5c.2 0 .3 0 .4-.2l.2-.2c.3-.2.3-.3.3-.5 0-.4-.7-.7-1-1.1l-1.6-1.2-2.6-2.7zm-2.5 14.8v1c0 .3 0 .6-.2.9-.1.6-.2 1.1-.6 1.8-.2-.7-.1-1.3 0-2 0-.6.3-1.1.8-1.7z"/></g><path fill="#000" fill-rule="nonzero" d="M109 147.3l.3.1h.1c1.5.4 3 .6 4.4.4l.8-.1h.4c0-.2.1-.2.2-.3.1-.2.1-.5 0-.8l.3.9-.3.4-.2.1h-.2l-.1.2-.7.2h-.1a6 6 0 01-4.5-.7h-.2l-.1-.4zm6.5 3.8c0 .8-.5 1.4-1.1 1.9l-.5.3-.5.2-1 .5c-1.4.5-3 .5-4.4.4a13 13 0 01-4.3-1.3l-3.7-2.3 2 .9 2 .9a14.2 14.2 0 008.4.9c1.2-.3 2.7-1 3.1-2.4z"/><path fill="#000" fill-rule="nonzero" d="M115.4 146.2c.3 0 .7.1 1 .3.2.1.5.4.6.8v.6c0 .2-.2.3-.3.5l-.8.6c-.5.3-1 .6-1.7.7-.6.2-1.3.3-1.9.3l1.7-.7 1.5-.9.7-.4.2-.3v-.2c0-.5-.5-1-1-1.3z"/><path fill="#000" fill-rule="nonzero" d="M116.1 147.8c.3 0 .4.4.5.6l-.1.8a3 3 0 01-1 1.2c-.7.6-1.7 1-2.7.7.9-.3 1.7-.7 2.3-1.3l.9-.9.3-.5c0-.2 0-.4-.2-.6z"/><path fill="#000" fill-rule="nonzero" d="M116.1 149.6l-.1 1.2a3.1 3.1 0 01-1.7 1.6c-.3.1-.7.2-1.2.1.7-.4 1.2-.8 1.7-1.3.5-.4 1-.9 1.3-1.6z"/><path fill="#C5505D" fill-rule="nonzero" d="M309.8 302.3a25 25 0 00-7 7.5 33.7 33.7 0 00-2 29.7l1 2.3a18.5 18.5 0 004.6 6.2 49 49 0 008.2 6.2c3 1.9 5.9 3.7 8.5 5.9a30.5 30.5 0 015.3 5.7 18 18 0 012.5 7.4c.2 1.7.2 3.5-.1 5.2a17.6 17.6 0 01-3.7 7l-2 1.7c-2.8 2-6 3.5-9.1 5-3.2 1.3-6.4 2.6-9.7 3.7-3.3 1-6.7 1.8-10.1 2.2a104 104 0 01-31-.7 226.2 226.2 0 01-39.9-11.5l-9.7-3.7-9.6-3.8c-6.3-2.5-13-4.3-19.9-4.5-6.8-.3-13.7.4-20.5 1.5-6.7 1.2-13.4 2.9-20.2 4.5-6.7 1.5-13.4 3.2-20.2 4.3a115.6 115.6 0 01-88.5-21.2c-1.4-1-2.7-2.2-4-3.4a179.7 179.7 0 01-10.4-11.6 98.4 98.4 0 01-15.1-27 104.6 104.6 0 01-3.6-61 68 68 0 011.5-5l1-2.5 1-2.4a64.5 64.5 0 018-13.3l.9-1 .9-.9a26.7 26.7 0 0110.7-7.2c3.3-1.2 7.1-1.2 10.2.5a8.4 8.4 0 014.8 8.8 6.5 6.5 0 01-2.8 4.4 6.4 6.4 0 01-5 .9c-1-.3-1.7-.7-2.4-1.4a5 5 0 01-1.3-2.2c-.6-1.8-.3-3.6.2-5.2 1.3-3.3 4-5.9 7.2-7.3 3.1-1.5 6.7-1.8 10.2-1.1 3.4.6 6.6 2 9.4 4.2a25.1 25.1 0 019.4 17.8 25.5 25.5 0 00-9.5-17.7 22 22 0 00-9.4-4.1c-3.4-.6-6.9-.4-10 1.1-3 1.5-5.7 4-7 7.2a7.7 7.7 0 00-.1 5c.2.8.7 1.5 1.2 2.1.6.6 1.3 1 2.2 1.2 1.5.4 3.3 0 4.7-.8a5.5 5.5 0 002.5-4 7.8 7.8 0 00-4.5-8.3 12 12 0 00-9.8-.4c-3.2 1-6 3-8.6 5.4l-2 1.8-.8.9-1 .9A63.4 63.4 0 004.3 260a83.7 83.7 0 00-2.8 20.3A103 103 0 0023 347.5 179.6 179.6 0 0033.4 359l4 3.4a120.3 120.3 0 0027 14.8 116.7 116.7 0 0060.7 6c6.8-1 13.5-2.6 20.2-4.3 6.7-1.6 13.4-3.2 20.3-4.4a99.1 99.1 0 0120.7-1.6c7 .2 13.7 2.2 20.1 4.6l9.7 4 9.6 3.6c13 4.7 26 9.2 39.7 11.5a102.6 102.6 0 0040.8-1.3c3.3-1.1 6.5-2.4 9.7-3.7a57 57 0 009-4.9 11.1 11.1 0 003.5-3.6c.9-1.5 1.6-3 2-4.7a19.6 19.6 0 00-2.3-12.2l-1.5-2a30 30 0 00-3.6-3.7c-2.6-2.2-5.5-4-8.5-6a51.9 51.9 0 01-8.2-6.2 26.2 26.2 0 01-4.5-6.3c-.4-.7-.9-1.5-1.2-2.3a33.4 33.4 0 012.3-29.8c1.7-3 4.1-5.6 7-7.6zM156.4 89.6a23.2 23.2 0 002.4-24.4c-1.9-3.9-5-7-8.8-9.1a24 24 0 00-12.4-3 18 18 0 00-6.3 1.2 8.8 8.8 0 00-4.7 4 9.3 9.3 0 003.2 11.2c3.5 2.5 8.2 3.2 12.2 1.8a18.6 18.6 0 005.5-3.1 39 39 0 004.7-4.4 89.5 89.5 0 0017.2-34.4c1-4.1 1.6-8.4 1.3-12.7-.3-4.2-1.7-8.5-4.8-11.5a14.7 14.7 0 00-5.2-3.5c-1.9-.8-4.1-1-6.1-.7-2.1.4-4 1.4-5.4 3a13.8 13.8 0 00-3.2 5.3c-1.3 4-.5 8.5 1.5 12.3 1.9 3.8 4.9 7 8.3 9.6 3.3 2.6 7.2 4.5 11.2 6a66.8 66.8 0 0025.5 2.4c8.6-1 17-3.2 25.2-5.4 8.3-2.4 16.6-4.8 25.1-6.4a140 140 0 0125.8-2.5 115.7 115.7 0 0138.3 6.2A86.2 86.2 0 01347.4 63c1.2 1.8 2.2 3.7 3.2 5.7l1.4 3 1.3 2.9c1.6 4 3 8 4.2 12.3a52.4 52.4 0 01-3.5 38c-2 4-4.5 7.6-7.6 10.7a32 32 0 01-36.2 7.1c-4-2-7.3-5-9.6-8.8a26.6 26.6 0 01-3.5-12.5 32.6 32.6 0 019.2-23.8c3.1-3 7-5.3 11-6.8 4.2-1.5 8.5-2.3 12.9-2.4A47 47 0 01355 95a62 62 0 0118.7 17.8 95 95 0 0111.6 23c1.4 4.2 2 8.5 2.1 12.8a73 73 0 01-.7 12.9c-1 8.5-3.4 17-6.5 25a125 125 0 01-12 22.9 110.2 110.2 0 01-37.5 35c15-8.6 27.7-20.9 37.3-35.2a117.8 117.8 0 0018.2-47.9c.6-4.2.9-8.5.7-12.8a46 46 0 00-2.2-12.6 95.6 95.6 0 00-11.6-23 60 60 0 00-18.5-17.5 45.3 45.3 0 00-37.1-4.1c-4 1.5-7.8 3.7-10.8 6.7-6 6-9.3 14.6-9 23.1a24 24 0 0012.7 20.6c3.8 2 8 2.8 12.3 2.8a31 31 0 0022.9-9.8c3-3 5.4-6.6 7.3-10.4a52.2 52.2 0 003.4-37.4 93.4 93.4 0 00-4.2-12.2l-1.3-3-1.4-2.8-3.1-5.6A85.7 85.7 0 00294 28.7a129.4 129.4 0 00-51.2-.2c-8.3 1.7-16.6 4.1-25 6.5a151 151 0 01-25.3 5.4c-4.3.4-8.7.5-13 .1-4.4-.4-8.7-1.2-12.8-2.6a39 39 0 01-11.4-6 30 30 0 01-8.5-9.9c-1-2-1.8-4-2-6.2a15.1 15.1 0 013.8-12.2 11 11 0 015.8-3.2 12 12 0 016.5.7 16 16 0 019 9.2c.7 2 1.1 4.2 1.3 6.3a41 41 0 01-1.5 13c-.5 2-1 4-1.8 6.1A91.3 91.3 0 01152.4 64a32 32 0 01-4.7 4.5l-2.7 1.8c-1 .4-2 1-3 1.3a14 14 0 01-12.5-1.8 9.3 9.3 0 01-3.2-11.6c1-2 2.9-3.4 4.9-4.2a23.7 23.7 0 0118.8 2c3.8 2.1 7 5.3 8.9 9.2 3.8 7.8 3 17.8-2.5 24.5z"/></g><path fill="#FFF" fill-rule="nonzero" d="M198.7 50.4c-.1 0-.3.1-.3.3 0 .2.2.4.4.4s.3-.2.3-.4c0-.1-.1-.3-.3-.3zm-4.6-3.9l.1-.5v.1l-.1.2v.2zM194 48c-.2 0-.3.1-.3.3 0 .2 0 .4.3.4.2 0 .3-.2.3-.4s-.1-.3-.3-.3zm-2.1 7.1c-.4-2.7 0-5.4 1.3-7.9v.3l.8-1.2v-.1l.1-.1.4-.5.6-.5 1.2-1 .3-.1.6-.5h.3l.9-.3 1.2-.1h.4c-.6.6-.9 1.4-1 2.3 0 1 .4 1.7 1 2.4a4 4 0 011-3.5v1.9l.1.3v.3s.2.1.2.3v.1l.2.2.1.1-.1-.5-.1-.6v-1.1l.1-.2h.1V45h.7l.3.2.1.1v.5c.2.4.2 1 .3 1.4l-.2 2.6c0 .2 0 .4-.2.7h-.3l-.2.4c0-.2-.2-.4-.4-.4h-.1l-.3.2h-.3l-.6 1.4-.5.8c0 .2 0 .3-.2.4l-.1.3c-.6.5-1.2 1-1.9 1.3-1 .5-2 1-2.8 2l-.2.2c-1 0-1.9.1-2.4-.4-.2-.5-.4-1-.4-1.6z"/><g fill-rule="nonzero"><path fill="#FFF" d="M181.9 65.9l-.2-.4c0-.2-.2-.3 0-.4V65h.5l.6.5 2 2.2.7.8-.8 1c-1-1.2-2.1-2.3-2.8-3.6zm-1 1.1c0-.2-.1-.3 0-.4 0-.2.2-.2.4-.2l.4.2 2.9 2.8-1 1.1c-1-1-2-2.1-2.7-3.5z"/><path fill="#FFF" d="M181.1 69.5l-.2-.3c-.1 0 0-.2 0-.4l.6.1 2.2 1.6 1-1.1.9-.9h-.2l-.8-.9c-.5-.6-1-1.4-1.3-2.1l.1-.5c0-.2 0-.4.3-.4l.4.2c.8.7 2.1 2.3 2.7 3-.2-.5-.2-1.3 0-2 .1-.1.2-.3.4-.3l.3.2v.5c-.1.6 0 1.3.2 1.8l1.3 1.9a35 35 0 00-1.3 5.3c-.9-.4-1.6-1-2.1-1.7l-2-2.2c-.8-.6-1.7-1-2.4-1.8zm-26.9 59.7h-.2l-.2-.3v-1c-.2-.5 0-1 .2-1.4a3 3 0 011.2-1c2.5-1.5 5-3.3 6.8-5.6a16 16 0 003.6-7.4c-.3 4.3-.8 9.6-2 13.4a4 4 0 01-1.6 2l-.8.5c-.3 0-.6.2-1 .4l-1.6 1.5c-.8.8-1.8 1.6-3 1.5-.2 0-.5 0-.6-.4a.9.9 0 010-.8l.4-.3 1-.7c.4-.2.1-.6 0-1-.6 0-1.2.5-1.5 1.1l-.2.4a.8.8 0 01-.4-.3v-.6c.1 0 .1 0 0 0z"/><path fill="#FFF" d="M155.4 146.1c0-.5.8-.6 1.3-.8 1-.4 1.5-1.4 2-2.3.9-2.3.9-4.9 1.4-7.3.7-3.2 2.2-6 3.3-9l.2-.9c1.1-3.8 1.6-9 2-13.3l.1-1.6.3.2.1.1c.6.3 1.1.6 1.8.8.7.3 1.5.5 2.3.6l1.8.1h.1c.3 0 .4.1.5.2l-.7 1.8-.2.7-.2.4-.2.5a7 7 0 01-.5 1c-.2.7-.6 1.4-1 2.1l-3.7 8.4c-.7 1.4-1.3 2.9-1 4.4v.1h.2l1.4 1c.5.3 1 .7 1.2 1.2.4.7.3 1.6-.1 2.4l-1.5 2a24 24 0 00-4.6 8.3c-.1.4-.3.8-.8.8-.4 0-.6-.6-.4-.9v-.9c-.5 0-.7.5-1 .8l-.2.7v.2c-.2.2-.5.5-.8.4h-.7c-.3 0-.6-.3-.7-.6l-.1-.4h-1.3c-.2-.3-.5-.7-.4-1.2zm19-56h-.9c.9-1.7 1.6-3.6 2.4-5.4a20.8 20.8 0 012.7-4.5c.3-.5.7-.8 1.2-1h.5l1 .1 1.5.7c.8.4 1.4 1 2.1 1.5a79.4 79.4 0 017.6 6.4l3.5 3.6 1.3 1.2.7.4v.2l-.5 1.5-.1-.9v.1l-.2.2v.5c-.2.3-.2.6-.2 1l-.1-.1v-.7l-1.5-.5-4.8-1.4-3.2-.8-3.7-.7c-.3 0-.5 0-.8-.2l1.5-1.3c.4-.4.6-.9.5-1.2a3 3 0 00-.4-1.1l-1-1.3c0-.2-.3-.2-.5 0-.2 0-.2.3-.1.5l.9 1.1c.1.2.3.5.3.8v.3l-.5.5L182 91l-3.7-.6c-1.4 0-2.6-.4-3.8-.3z"/><path fill="#FFF" d="M172.1 111.8h-1.7l-2.2-.7c-.7-.2-1.3-.4-1.9-.8l.6-3.4c.4-2.6 1-5.1 1.6-7.6.5-1.6.8-3.7 1.6-5.4.5-1.1 1.1-2 2.3-2.6.6-.3 1.3-.4 2-.4a519 519 0 017.4 1l1.5.3 3.7.7c1.1.2 2.2.5 3.2.9l4.7 1.4 1.7.5h.2c0 .2 0 .3.2.5l.7.4 1 .5 1.7.7 1.9.9c1.5.6 3 1.5 4.5 2.2l1.2.6 1.6.5c0 .5-.2 1-.4 1.5a15 15 0 01-1 2.3c-.4 1-.8 2.2-1.4 3.3-.2.4-.5.7-1 1h.2c-.5.4-1 .5-1.6.4-.8.2-1.6.2-2.4.2l-2-.4-.4-.1a30.6 30.6 0 01-9.3-3.2h-.1l-2-.9-3.5-1.5-2.3-1.1c-1.3-.7-2.9-1.3-4.2-1.9l-1.6-.7-.3-3.1c0-.2-.2-.5-.4-.5s-.4.3-.4.5c0 1 .2 2.1.4 3.1v.4h.1v2.3a7 7 0 01-.6 2.4l-.5 1c-.1 0-.2.1-.2.3l-1 2.1-1 2.4h-.5z"/><path fill="#4F8E99" d="M209.6 101.8l.4.2.4.2v.1l-.4-.3-.4-.1z"/><path fill="#0C2A3E" d="M209.1 63c-.2.5-.2 1-.3 1.6v-.2l.3-1.6.7-1.5c1-1.8 2.6-3.4 3.4-5.3l.4-1.4V54v.6l-.4 1.5c-.8 2-2.4 3.4-3.4 5.3a7 7 0 00-.7 1.4zm-.3 1.6l.3 1.6.4.5.1.1h-.2l-.3-.5a4 4 0 01-.3-1.7z"/><path fill="#0C2A3E" d="M208.7 66.6l-.1-.2.3.1.6.2.2.2a4 4 0 01-.8-.3h-.2zm-.3-18.3c.3-.2.5-.3.9-.3.3 0 .7 0 1 .2a4 4 0 012.2 1.5 4 4 0 011 2.4l.1 1.4v-1.1a4.7 4.7 0 00-3.2-4l-1.1-.2c-.3 0-.7.2-1 .4v-.3zm-.2.7c-.2-.2 0-.4.1-.6l-.1.6zm-1.3 13l1.7 4.4-.2-.4c0-.1 0-.2-.2-.3a39.2 39.2 0 00-1.3-3.6zm-.5-1l.4.9-.4-.9zm0 0l-.8-2-.4-1.2 1.2 3.2z"/><path fill="#0C2A3E" d="M205.6 59.2l-.7-2 .3.6.4 1.2.8 2 .4.9v.1l.4 1 1 2.7.1.2.2.4v.2l-.3-.4c0-.2 0-.2-.2-.3-.2-.9-.5-1.7-.9-2.6l-1.5-4z"/><path fill="#0C2A3E" d="M204.9 57.1c0 .3.2.5.3.8 0-.3-.2-.5-.3-.8zm8.6-4.8c0-1-.5-1.7-1-2.4a4.7 4.7 0 00-2.2-1.5l-.9-.4c-.3 0-.8.2-1 .4l-.1.5v.1l.7.6c.6.4.8 1.3.6 2.2l-1 1.4c-.9 1-2 1.7-2.7 2.6a4 4 0 00-.6.7c0 .2-.2.3-.3.4v.1c0 .3.2.6.3.8l1.2 3.3.4.8v.2l1.8 4.2.3.2.6.2-.3-.5c-.3-.6-.3-1.2-.3-1.7v-.2l.3-1.6.7-1.5c1-1.8 2.6-3.4 3.4-5.3l.3-1.4v-1.1l-.1-1.2z"/><path fill="#000" d="M204 55zm0 0zm0 0l.1.3-.1-.3zm-.1 0zm0-.2c0 .1 0 .1 0 0 0 .1 0 .1 0 0z"/><path fill="#0C2A3E" d="M203.2 51.8c0-.2-.1-.3-.3-.5l.2-.2c.2 0 .3-.1.4 0 .2 0 .2.4.2.6v.4h-.3c0-.2-.2-.2-.3-.3zm-.5-6.7v.1zm-.1 5.9l.1-.6c.2 0 .2.3.2.4v.4l-.3-.2zm-.6-6.2h-.2.2zm-.1 0v.2zm-.2.1zm0 .1zm-.2 2.5l-.1-.3.1.3zm0-.4l.2.6c0-.2 0-.5-.2-.6zm0-1.9h.1zm-.1 1.3l.1.6v-.6zm.1-1.2zm-.1 1.7s0 .1 0 0c0 .1 0 .1 0 0zm-.1-.2zm-.1-.3zm-.1-.3zm0-1zM200 43h-.4.4zm-1 2.4a4 4 0 011-2.4c.4.1.8.2 1 .5.1.3.1.6 0 .8v-.1c-.8 1-1.2 2.2-1 3.5a3 3 0 01-1-2.3z"/><path fill="#000" d="M198.8 51.1c-.2 0-.4-.1-.4-.3 0-.2.2-.4.4-.4s.3.2.3.4c0 .1-.1.3-.3.3z"/><path fill="#C99F62" d="M197 94.2l.1-.2.2.9.4-1.5.1-.2.1-.1h.3l.4.2.9.3.7.3h.6l.1.4V97l.2-1.6.3-.7c.1-.2.4-.2.6-.2.3.1.5.3.8.3l1.8.8.5.2h.2l.2.1.1.5v2l.2-1.5c0-.2 0-.4.2-.5.2-.2.6-.3.8 0 .2.1.2.5.1.8 0 .2-.1.5 0 .8.3-.3.1-.9.4-1.2h.7l.5.2.4.1 2 .8.3.1c.2 0 .4-.1.4-.4V97l.1.1h.1l.4.3.1.4v.8l-.1 1.2c0 .6-.2 1.1-.3 1.7 0 .2-.1.5-.3.7l-.4.4-.5-.1c-.1 0-.2 0-.3-.2v-.2.1c-.1-.2-.4-.3-.4-.3l-.4-.2v.2l-1.5-.6-1.2-.5-4.5-2.3-2-.8-1.6-.7-1-.6-.8-.4-.2-.4v-.1c0-.4 0-.7.2-1v-.4z"/><path fill="#0C2A3E" d="M197.2 43.6l.9-.4.5-.2h.5l.4.1-1.2.1-.8.3h-.3z"/><path fill="#C99F62" d="M194.6 67.1a13.9 13.9 0 014.4 3.7c-.6 1-1.4 2-2.1 2.9-1-1.5-4.8-4.5-5-4.9l1-2.6 1.7 1z"/><path fill="#0C2A3E" d="M196.4 44l.7-.3-.6.3zm-1.4 1.1l-.6.6.6-.6zm-.9 1z"/><path fill="#000" d="M193.7 48.4c0-.3 0-.4.3-.4.2 0 .3.1.3.4 0 .2 0 .3-.3.3-.2 0-.3-.1-.3-.3z"/><path fill="#0C2A3E" d="M194 46.3l-.8 1.2v-.3c0-2 1.2-3.7 2.7-5a9 9 0 015.6-1.6c1.8 0 3.6.9 4.8 2.2 1.3 1.2 2 2.9 2 4.6v1.2c-.2.1-.3.3-.1.5v.2s-.2.1-.2.3l-.4 1.1-1.6 2.7c-.6.8-1.2 1.7-1.8 2.3l-.2-.5-.1-.1-.5-.4.1-.3c.2-.4.2-1 .2-1.3v-1.2c0-.2 0-.5-.2-.6h-.3l-.2.3V51l-.1-.5h-.1l.1-.7a10.6 10.6 0 000-4v-.4l-.1-.2-.4-.2h-.7v.5l-.2.1v1l.1.6.1.6v-.2c-.2 0-.2-.1-.2-.2l-.1-.1V47l-.1-.3-.1-.3v-1.7l-.1-.8c-.3-.3-.7-.5-1-.5h-.4l-.4-.1h-.6l-.5.1-.9.4-.7.4-.2.1a6 6 0 00-1.2 1l-.6.5-.4.5h-.2z"/><path fill="#4F8E99" d="M175.5 97.8c0-.2.2-.5.4-.5.3 0 .5.2.5.5l.3 3 1.5.8c1.5.6 3 1.2 4.3 1.9l2.3 1 3.5 1.6 2 1a55.5 55.5 0 009.4 3c.1.2.2.2.4.2a9.4 9.4 0 004.3.2c.6.1 1.1-.1 1.6-.4h.1l.9-1c.6-1 .9-2.4 1.4-3.3l1-2.3.4-1.5.3.1.4.3-.3 1.4c-.3.9-.8 1.8-1.1 2.4l-1.1 2.9-.2.1-.3.5v.2a3 3 0 01-1 1c-.6.5-1.6.7-2.6.7a28.5 28.5 0 01-8.9-1.7l-4.9-2-2-.9-3.5-1.6-2.3-1c-1.4-.8-2.8-1.3-4.3-2-.3 0-.7-.3-1-.5l-.8-.4h-.1v-.2s0-.2-.2-.3c-.2-1.1-.4-2.2-.4-3.2zm-3.1-7.5l2.7-6 1.3-2.5 1.4-2.3a5 5 0 011.5-1.1c.3-.2.7-.2 1-.2l1.1.3 1.7.8a25 25 0 013.8 2.7l.1.1a91.3 91.3 0 016 5.1l3.3 3.6 1.3 1-.3.2c0 .2-.2.3-.3.5l-1.3-1.2-3.4-3.5c-1-1-2-2-3-2.7l-4.6-3.8-2.3-1.3a6 6 0 00-1.5-.7l-1-.2h-.5l-1 .9c-.6.6-1 1.5-1.4 2.1l-1.2 2.5-2.5 5.4-.5.1-.5.1.3.1z"/><path fill="#4F8E99" d="M165.7 110.9c-.2-.2-.3-.4-.1-.6l.3-.2c-.1 0-.3 0-.4.2 0-.7.2-1.3.3-2l.1-.7c0-.3 0-.6.2-.9.4-2.5 1-5 1.6-7.6.5-1.7.8-3.8 1.6-5.5a5.8 5.8 0 012.6-3c.2 0 .4 0 .5-.2h.5c.1-.2.3-.2.6-.2h.9c1.1 0 2.4.2 3.6.4l3.7.6 1.6-1.4.5-.5V89c0-.3-.1-.6-.3-.8l-1-1.1c0-.2 0-.4.2-.6.2-.1.4 0 .6.2l.9 1.2.4 1.1c0 .3-.1.8-.5 1.2l-1.4 1.3.8.2 3.7.7 3.2.8 4.8 1.5 1.5.4v.9h-.1l-1.7-.5-4.7-1.5-3.2-.8-3.7-.8c-.4 0-1 0-1.5-.2l-4-.7c-1-.2-2.3-.4-3.4-.4-.7 0-1.4.2-2 .5a5.1 5.1 0 00-2.3 2.6c-.8 1.7-1.1 3.7-1.6 5.4-.6 2.4-1.2 5-1.6 7.5l-.6 3.5a15.4 15.4 0 004 1.4l1.8.1h.5l1-2.3 1-2.2.2-.2.5-1a7 7 0 00.7-4v-.6.1l.8.4a7.8 7.8 0 01-.4 3.8l-.6 1.2-.4.8c-.4.7-.8 1.3-1 2l-1 2.6v.2l-.2.2-.4.1-.4-.1h-.2c-.6 0-1.2 0-1.8-.2-.7-.1-1.6-.3-2.3-.6l-1.8-.7-.1-.1-.5-.6z"/></g><g fill="#000" fill-rule="nonzero"><path d="M165.8 110.2l-.2 4a75.5 75.5 0 01-1.8 11.7v.2h-.2l.2-.2c-.6 2-1.4 4-2.2 6-.7 1.9-1.4 3.9-1.6 6l-.6 3c-.3 1-.5 2.1-1 3a3 3 0 01-1.2 1.2c-.5.4-1 .4-1.4.7-.3.1-.4.2-.5.5 0 .2.2.5.4.6.4.4 1 .3 1.4.1-.4.2-1 .4-1.5 0-.2 0-.4-.3-.4-.6s.2-.6.4-.8c.5-.2 1-.3 1.4-.7.4-.2.7-.6 1-1 1-1.9 1-4 1.3-6a25.7 25.7 0 011.6-6.4c.8-2 1.7-3.8 2.3-5.8v-.2h.2l-.2.2a61 61 0 001.5-7.7c.5-2.6.7-5.2 1-7.9zm-4.4 35.9c-.3.3-.7.6-.7 1l.1.5c.1.2.3.2.4.1.2 0 .2-.3.3-.4l.2-.6.4-1.3c.6-1.8 1.5-3.4 2.5-4.9l1.7-2.1 1.5-2c.3-.8.2-1.7-.4-2.4-.7-.6-1.4-1-2.1-1.7l1.2.7 1.1.8c.4.2.7.7.8 1.2v1.5c-.3 1-1 1.6-1.6 2.3l-1.6 2.1a23.7 23.7 0 00-3 6c-.2.4-.2 1-.8 1.2-.3.2-.6 0-.7-.2a1 1 0 01-.2-.7c.2-.7.6-.9 1-1z"/><path d="M165.3 135.1c.3-.4.3-1 .2-1.4 0-.5-.3-1-.5-1.5a5 5 0 01.2-2.8 156.1 156.1 0 013.2-7.5l2.2-5a63 63 0 002.3-4.8c-.5 1.7-1.2 3.4-1.9 5.1l-2.1 5-2.2 4.9-1.1 2.4c-.3.8-.4 1.7-.3 2.5 0 .5.3 1 .3 1.6.2.6 0 1.2-.3 1.5zm-9.9-4.6c0 .2-.3.2-.4 0-.3 0-.3-.4-.3-.7l.4-.7c.3-.4.8-.7 1.3-.8h.2v.1l.2.5v.6l-.3.3-.2.1-.4.3a3 3 0 00-.7.5l-.1.4.4.2h.9l1.5-1c.9-.7 1.7-1.8 3-2.2h.2l.2-.1.4-.2.7-.6c.4-.4.8-.9 1-1.4 0 .6-.4 1.1-.8 1.6l-.7.6-.4.3-.3.1-.2.1c-1.1.4-1.8 1.5-2.8 2.3-.5.4-1 .8-1.7 1-.3.2-.6.2-1 .2-.2 0-.3 0-.5-.2-.3 0-.5-.2-.5-.5-.2-.4 0-.8.2-1.2.3-.3.6-.3.9-.5l.4-.3h.2v-.9l.1.2c-.4 0-.9.2-1.1.5l-.4.6c0 .2 0 .5.2.6.2.3.4.4.6.3zm-1.7-2.7c-.2-.4-.2-1 0-1.4l1-1 2.2-1.4c1.3-1 2.7-2.2 3.8-3.4a18.5 18.5 0 005-8.9c0 .9-.2 1.7-.4 2.6a15.8 15.8 0 01-4 6.8 26.7 26.7 0 01-4.2 3.3l-2.2 1.4-1 .7c-.2.4-.3.8-.2 1.3zm4.7 17.9l-.6.7-.3.6v.6c.1.1.3.3.6.3-.2.3-.7.2-1 0a.9.9 0 01-.2-1c0-.4.2-.6.5-.9l1-.3zm2.3.3h-.1a2 2 0 00-.6.8l-.1.5v.7h.5c0 .3-.3.5-.6.4-.1 0-.2 0-.3-.2a.4.4 0 01-.2-.4v-.6c0-.3.1-.5.3-.6 0-.2.2-.3.4-.5.2-.1.5-.2.7-.1-.1 0 0 0 0 0z"/><path d="M155.8 127.8l-.7.6-.5.8v.1c0 .1 0 .3-.2.4 0 .1 0 .3.2.4-.2 0-.4 0-.6-.3a.7.7 0 010-.6v-.1c0-.4.3-.8.6-1 .4-.3.8-.4 1.2-.3z"/><path d="M155.2 126.7a5 5 0 00-.8 1l-.2.7-.1.3v.3l.2.1c0 .2-.2.2-.3.1-.3 0-.3-.3-.3-.4v-.4l.1-.8c.2-.6.8-1 1.4-1zm4.4 19.1l-.5.9-.4.7v.5h.9l-.3.4c-.2 0-.4.2-.6 0a1 1 0 01-.6-1c.1-.5.3-.8.6-1 .2-.3.6-.4 1-.5zm33.6-98.6c-.7 1.9-1 3.9-1 5.8v1.5l.1 1.4c.2.4.5.7 1 .8.5.2 1 .2 1.5.2a4 4 0 01-1.6.1c-.5 0-1-.4-1.3-1-.3-.5-.3-1-.4-1.5v-1.6c0-1 .1-2 .4-3.1.3-.8.7-1.7 1.3-2.6z"/><path d="M196.8 47.5c-.3 1.1-1 2-1.7 2.8l-.6.6-.6.4-.1.1.1.2c.2.2.4.2.7.2-.2.2-.5.3-.8.1a.8.8 0 01-.4-.3l.1-.6.6-.7.6-.5c.7-.6 1.4-1.4 2-2.2zm-.4 26.4a28 28 0 01-5.8 6.5l-.9.7c-.3.2-.7.4-1.2.4-.4 0-.9-.3-1-.7-.3-.3-.3-.7-.4-1-.2-1.6 0-3.1.1-4.6v.1c.4-2.5 1-4.8 2-7.2.9-2.2 2.1-4.4 3.1-6.5l1.5-3.3c.3-.6.5-1.1 1-1.6.4-.5 1-.8 1.4-1.2 1-.6 2.2-1.1 3.1-1.9h.2v-.2l.2-.4.5-.9.4-.8.2-.4v-.2l.2-.3h.4c.2.3.1.6 0 .7v.4l-.4 1-1 1.9c.4-.6.6-1.3.8-2 .2-.3.3-.7.3-1l.2-.5v-.4h-.1l-.8 1.7-.3.8-.3.4c0 .1 0 .2-.2.2l-.2.2c-1 .8-2 1.3-3 2-2.3 1.2-2.6 3.8-3.7 6-1 2.1-2.3 4.2-3 6.5-1 2.2-1.6 4.5-2 6.9v-.1c-.2 1.5-.4 3-.2 4.4 0 .6.3 1.3.9 1.4.5 0 1.1-.6 1.8-1 2.4-1.6 4.5-3.6 6.2-6z"/><path d="M201.6 50.3h.4l.2.3v1l-.3.9a5 5 0 01-.9 1.6l.6-1.7.3-.9c0-.2.2-.5 0-.8 0-.2 0-.4-.3-.4zm1.3.9v.7l-.1.8-.8 1.3.4-1.4.2-.7c.2-.2.2-.4.3-.7z"/><path d="M202.1 50.8v-.2l.3-.2c.1-.2.3-.2.5 0-.2 0-.2.1-.3.2l-.2.1h-.2zm1.4 1.3c0 .4 0 .7-.2 1-.1.4-.3.8-.6 1v.1c0-.4.1-.7.3-1l.4-1.2zM193.2 52.8l.5.5.6.2c.4 0 .9 0 1.4.2-.2.2-.4.4-.7.4-.2.1-.5.2-.9.1-.3 0-.6-.3-.7-.5-.2-.3-.3-.7-.2-.9zm4.8-2.5c0-.2.4-.5.7-.5.3 0 .7 0 .9.3.2.2.4.4.4.8l-.1.9c0-.3 0-.6-.2-.8a1 1 0 00-.4-.7l-.7-.2c-.2-.1-.4 0-.6.2zm-2.8-1.6a5 5 0 00-.5-.6c-.2-.3-.4-.4-.7-.5h.5l.4.2c.2.2.4.5.3.9zm.7-1.6c-.5-.6-1-.8-1.7-.6a1 1 0 011-.3c.5.1.7.5.7.9zm3.2 1.8c.4-.5 1.3-.6 1.8-.2.6.5.7 1.3.4 1.8.1-.7-.1-1.2-.5-1.5-.5-.3-1.1-.4-1.7-.1zm-11.3 26.4h-.2c-.8-.3-1.4-.9-2-1.4l-1.6-1.8c-.5-.5-1-1-1.8-1.4l-1-.7-.4-.4c-.2-.2-.4-.6 0-1h.5c.2 0 .3.2.5.3l.6.5 1.4 1-.3.4c-.6-.6-1.3-1.1-1.8-1.8l-.8-1-.3-.6-.2-.4v-.5c.3-.4.8-.4 1-.2.3.1.4.3.6.5l.9.8 1.8 1.7-.5.5-1.8-2-.8-1.3-.3-.6-.1-.3v-.5l.2-.2h.9l.6.5.9 1 1.7 2-.4.4-.7-1-.7-1-.6-1-.2-.6c0-.2.1-.5.4-.6.4 0 .5.2.7.3l.4.4.7.9 1.4 1.8-1.5-1.7-.8-.9-.4-.4-.4-.2-.1.3.2.5.5 1 .7.8.8.9-.4.3-1.8-2-.9-.9-.4-.4h-.3v-.1l.2.2c0 .3.2.5.3.7l.7 1a24 24 0 001.7 2l-.5.6-1.8-1.8-.9-.8-.4-.3-.1-.1.1.3.3.6.7 1 1.6 1.8.6 1.2-1-.7-1.3-1-.7-.5-.3-.2h-.2v.2l.5.4.9.7c.6.5 1.3 1 1.8 1.6l1.5 1.8c.4.7 1 1.1 1.8 1.5h.6z"/><path d="M186.4 71.1c-.3-.3-.4-.9-.3-1.4 0-.3.3-.5.4-.7.2-.2.2-.3.1-.5l-.3-.6-.1-.8v-.8l.1-.4c0-.2.2-.4.3-.5l.4-.2.4.2c.2.1.3.4.3.5v.8c0 .4 0 .9.2 1.3.4.8 1.1 1.7 1.2 2.7-.4-1-1.2-1.5-1.7-2.4a3 3 0 01-.4-1.5V66h.2l-.1.5v1.4l.2.6v.5c0 .2-.2.3-.3.4a1 1 0 00-.4.5c-.4.2-.4.7-.1 1.2zm-3-.3l.2-.4v.2s-.1 0 0-.1a4.3 4.3 0 011.3-1.7l.5-.4.5-.2-.2.4-.4.6-.4.5-1 .9h-.1v-.2l.1.2-.5.2z"/></g><path fill="#4F92C4" fill-rule="nonzero" d="M212 86a63 63 0 00-3-18.6l-.3-.8-.4-.4c0-.2 0-.2-.2-.3a39.2 39.2 0 00-2.5-6.6l-.7-2-.4-1.2c-.3-.9-.8-1.3-.8-1.3l-.4-.3a1 1 0 00-.6-.2c-.4 0-.8 0-1.2.2l-.3.2a31.6 31.6 0 00-8 11.1l1.7 1.1c1.6 1 3.8 2.3 4.6 3.3.7-1.3 1.2-2.6 1.8-4 .4-1-.5 4.8-4.9 9-.5.4-.8 1.3-.8 2 5.5 9.2 3.2 4.3 3.3 15 4.2 2 8.7 3.3 13 5 .1-3.8.2-7.6.1-11.2z"/><path fill="#CADDE0" fill-rule="nonzero" d="M362 272.6l.3-.2.2.3a12 12 0 011.4 3.4c-2.1 1.2-3.8 3-5.6 4.8l-9.1 9.5c-1 1-2 2-2.5 3.4-.2.7-.3 1.4-.7 2-.8 1.4-2.8 1.8-4 3-1.2 1.2-1.6 3.2-3.2 4-.7.3-1.6.2-2.4.6l-1.6-1.2c1.4-1.3 2.6-2.6 4-3.7 1-.7 2-1.2 2.8-2.1.7-.8 1-1.7 1.5-2.6 4.2-8.7 13.4-13.6 18.9-21.2zm-40.7 35.9c0 1 .2 2.2.5 3.2h-.2c-7 2.8-13.8 6-20.5 9.5-.8.5-1.7 1-2.7 1.1-1 .2-2 .2-2.8.2-2.3 0-4.6 0-7 .5-2.5.7-5 2.2-7.5 1.3-.4-1-.5-1.5.5-1.8a31 31 0 018.2-2.5l4.2-.3c1.7-.3 3.3-1 5-1.7l22.3-9.5z"/><g fill-rule="nonzero"><path fill="#FFF" d="M223.8 105.6l15 2.3s-9.4 1.6-9.2 10l-22-2.6s1.7-8.8 16.2-9.7z"/><path fill="#000" d="M223.8 105.6l7.5 1.1 7.5 1 .7.1-.7.2a16 16 0 00-3.5 1.2c-1 .6-2 1.3-3 2.3a8.7 8.7 0 00-2.5 6.6v.3l-.3-.1-11-1.4-11-1.4h-.2v-.2c.7-1.8 1.6-3.2 2.7-4.5a17 17 0 018.8-4.5l2.5-.5 2.6-.2zm0 0l-2.5.3-2.4.5c-1.6.4-3.3.9-4.8 1.7a14 14 0 00-3.9 3 9.8 9.8 0 00-2.3 4.2l-.3-.2 11 1.2 11 1.4-.3.4a9 9 0 012.8-7c.9-1 2-1.6 3-2.1 1.2-.6 2.4-1 3.7-1.2v.3l-7.5-1.3-7.5-1.2z"/><path fill="#FFF" d="M238.8 107.8s-6.8 2.7-5.3 9.4h-3.8s-2.7-7.7 9-9.4z"/><path fill="#000" d="M238.8 107.8a11 11 0 00-4.3 4c-.5.7-.8 1.5-.8 2.5-.1 1 0 1.9.1 2.8l.1.4h-4.6a7 7 0 010-4 6.5 6.5 0 012.2-3.2 10.8 10.8 0 015.4-2.1l1.8-.4zm0 0l-1.9.5-1.8.5c-1.1.5-2.3 1-3.1 1.8-1 .8-1.6 1.8-2 3-.2.5-.2 1.1-.3 1.8 0 .6.1 1.2.3 1.7l-.3-.2h3.8l-.4.4a9 9 0 010-3c.1-1 .5-2 1-2.9a9 9 0 014.8-3.6z"/><g><path fill="#FFF" d="M223.9 105.7s-.1-3 4-4.3c3.5-1.2 7.7-.4 9 0l11.9 1.5-10 5.1-14.8-2.3z"/><path fill="#000" d="M223.9 105.7a4 4 0 011.5-3 8 8 0 012.9-1.7 17.6 17.6 0 018.6 0l1.7.2 3.3.4 6.8.8 1.1.2-1 .4-9.8 5-.1.1-7.6-1.1-7.4-1.3zm0 0l7.6 1 7.5 1h-.2l9.8-5.2.2.6-6.8-.9-3.4-.5-1.7-.2-1.7-.3c-2.2-.4-4.5-.4-6.7.1-1.2.3-2.2.7-3 1.5-.9.7-1.6 1.7-1.7 2.9z"/></g><g><path fill="#FFF" d="M238.8 107.9l10.8-3.2v-1.9z"/><path fill="#000" d="M238.8 107.9l5.6-1.9 5.2-1.7-.2.4v-2l.4.2a178.5 178.5 0 00-11 4.8zm0 0l5.1-2.7c1.8-1 3.7-1.8 5.5-2.7l.5-.2v2.7h-.3a58 58 0 01-5.6 1.5l-5.2 1.5z"/></g></g><path d="M239.9 107.5l7.6-2.7"/><path fill="#000" fill-rule="nonzero" d="M239.9 107.5a41.6 41.6 0 017.6-2.6l-3.6 1.3-4 1.3zM238.9 108c-1 .3-1.7.8-2.6 1.2-.8.4-1.6 1-2.3 1.5-.7.6-1.4 1.3-1.8 2a5 5 0 00-.5 2.8v1.8h-2l1.8-.1h-.1v-1.7c-.3-1 0-2 .3-2.9.4-.9 1.2-1.6 1.9-2.2l2.4-1.5 2.8-.9z"/><path stroke="#C99F62" d="M115.3 231.7l2 88.9s0 2.5 2.4 0l-.1-89.3"/></g></svg>