<svg xmlns="http://www.w3.org/2000/svg" viewBox="0 0 400 400"><g fill="none" fill-rule="evenodd"><path fill="#C6D3D8" fill-rule="nonzero" d="M235.9 352.4c-25.9 22-60.4 19.2-85.6 16.5-25.2-2.7-40.2-15.4-40-15-.8-2.3-4.8-2.3-6.5-.4-2.2 2.3-1.9 6-.1 8.5 1.7 2.6 4.6 4.3 7.4 5.8a122.9 122.9 0 0082.5 10.5 80.2 80.2 0 0042.5-22c.7-.8 1.5-1.8 1.2-2.8-.2-1-2.1-1.5-1.4-1.1zM31.5 371.3a51.7 51.7 0 0030.2 8c-1.3 2.2-.4 5.3 2 6.4 1.7.8 4 .6 5.9.2a35 35 0 0012-5.1c-.8 2.2-1.6 4.5-1.6 6.8s1 4.8 3 6c2.4 1.5 5.5 1.3 8 .1s4.4-3 6.3-5c-1.7 2.8-4 5.3-6.9 7.3-2.7 1.9-6.1 3.3-9.5 2.8-3.4-.5-6.4-3.7-5.7-6.8.2-.7.5-1.7-.3-2-.4-.2-.9 0-1.3.3a34 34 0 01-21.5 4.5 6.5 6.5 0 01-3.8-1.9c-1.3-1.5-1-3.8 0-5.4a15 15 0 014.5-4 46.4 46.4 0 01-26-10.5c-.2-.7.7-1.5 1.5-1.6.9 0 1.7.3 3.2 0zM257.1 399.8c3.1-4.8 5.3-10.1 6.5-15.7 3.5 3.5 8.3 5.8 13.4 6.3l2-9.9c6.1 3 13.3 4 20.1 3 6.8-.8 13.3-3.4 19-7-8.6 7-20 10.8-31.3 10.7-1.2 0-2.6 0-3.6.6-.8.5-1.3 1.4-1.7 2.1l-2 4.1c-.4.6-.8 1.3-1.4 1.5-.6.2-1.3 0-1.9-.2-3.7-1.2-7.2-3-10.4-5-2.5 3.8-6 7-8.7 9.5z"/><path fill="#C99E62" fill-rule="nonzero" d="M266 355.4c0 2 .1 4.1 1.4 5.5 1 1 2.6 1.5 4 1.9 6.3 1.5 13 1.6 19.5.6l2.8-72.2-17.7 1.3-4.6.5c-.9 0-2 .1-2.6.8-1.3 1.1-1 3.7-1.2 5.3a680.8 680.8 0 00-1.6 36v20.3z"/><path fill="#C4505D" fill-rule="nonzero" d="M162.3 24.8c.4-.7 1-1.3 2-1.4h.4c.3.1.3.4.3.6.1.7 0 1.3-.3 2-.4.4-.7 1-.8 1.5l.8-1.5c.4-.5 1-1 1.7-1.1.3-.1.5-.2.8 0 .1 0 .3.3.3.5.1.6-.3 1.3-.8 1.7l-2 1.9c-.6.7-1.1 1.5-1 2.4 0 .4 0 .9-.3 1.1-.2.2-.6 0-.8-.1l-.5-.8.1-.2a9.7 9.7 0 01-2.8-4.2 2 2 0 01-.2-1c.1-.3.4-.6.7-.6.5 0 .8.4 1 .7l1 1.7c0-1-.1-1.9.2-2.8l.2-.4z"/><path fill="#C99E62" fill-rule="nonzero" d="M163.9 40.7c.4 1.3.7 2.6.6 3.9 0 .3 0 .6-.2.9-.3.4-.7.6-1.1.7-.5 0-1 0-1.3-.3 0-.5 0-1-.2-1.5-.1-1-.4-2-.8-3l3-.7zM162.6 38c-3.2.3-6 .9-8.4 1.5l-.2-.4 1.2-.3c.1 0 .3 0 .3-.2l-.1-.3c-1-1.5-1.7-3.3-2-5.1 1.5.1 3 .2 4.5 0 .8-.2 1.6-.4 2.3-.8h.4c.5 2 1.7 3.6 2 5.6zM158.7 45.9c-.1.2-.2.5-.5.6-.3.2-.9.1-1.2-.2-.4-.2-.6-.7-.7-1l-.8-2.3 2.6-1c.4 1.2.8 2.4.6 3.6v.3z"/><path fill="#C99E62" fill-rule="nonzero" d="M161.7 44.4c.1.5.2 1 .1 1.4 0 .5 0 .9-.3 1.3-.1.2-.3.4-.6.5-.5.3-1.2 0-1.6-.3-.3-.4-.5-.9-.6-1.4v-.3c.2-1.2-.2-2.4-.6-3.6l2.8-.7.8 3z"/><path fill="#FFF" fill-rule="nonzero" d="M354.2 338.8l-1.8-2c-1-.9-2.2-1.6-3.6-2a9 9 0 014.9-4.1c2-.9 4.4-1.1 6.6-1.2 3.1 0 6.3.3 9.1 1.7l.5.4v.5c-.2 2.1-1.4 4.1-2.8 5.9a20 20 0 01-4.8 4.5c-1.8 1.1-4 1.9-6.2 1.9-.1-2-.8-4-2-5.6z"/><path fill="#FFF" fill-rule="nonzero" d="M344.2 336.8l-.6-.3c.9-1.4 2.7-2 4.4-1.8l.9.1c1.3.4 2.6 1.1 3.6 2l1.7 2a11.2 11.2 0 011.9 7.3l-.1.3-.4.2c-1.5.4-3 .4-4.6.1a13.7 13.7 0 01-7.3-3.8c-.9-1-1.7-2-1.7-3.3 0-1.3.8-2.6 2-2.8h.2zM340.4 362.9l-3-.9c0-1.6.7-3.2 1.8-4.4 1.2-1.3 2.7-2.2 4.4-2.9a21.3 21.3 0 017.9-1.5c-.2 1.8-.4 3.6-.9 5.2-.5 1.7-1.2 3.3-2.4 4.7-.5.5-1 1-1.6 1.2l-1-.2-5.2-1.2z"/><path fill="#B4CAD1" fill-rule="nonzero" d="M344.8 225.4l-.6-1.7c-1.4-3-4.6-4.8-7.6-6.3l-13-6.8-10.1-5.2a173 173 0 00-13.8-6.3 39.2 39.2 0 00-5-.9c-1 0-1.7-.1-2.7.1v1.7c0-.2 1.7.3 1.8.4l1.3.2a6 6 0 013.1 1.8c.6.6 1 1.3 1 2-.2.8-.7 1.5-1.4 2-.6.4-1.4.6-2.3.8a28 28 0 01-16.8-1.7c-1-.5-2.2-1.1-2.5-2.2-.2-1 .6-2.1 1.5-2.8l1-.8c-.7.5-1.6.8-2.4 1.2l-2.3 1.4c-1.3.9-2.6 1.6-3.8 2.6-3.2 2.7-5.6 6-8.1 9.4l-2 2.4c-.5.7-1 1.4-1.7 2-.8.4-1.3 1.3-2 2l-2.3 2a18.3 18.3 0 01-14.6 2.8c-.5 0-1-.2-1.5-.4l-.7-.3c-.5 0-.3.2-.3.6V238l.8.2a39.6 39.6 0 0027.5-3.3c2.6-1.3 5-3 7.8-4.1 2-.8 4.4-1.4 6.6-1.1 1.4.2 2.6.8 2.6 2.4a39.2 39.2 0 01-5 16.5c-2.1 3.8-5 7.4-8.1 10.5l.1.2.1 4.5a50 50 0 0113.8-15.2c.6-.4 1.4-1 2.2-1 .8 0 1.6.6 2.2 1.1 1.5 1.4 2.6 3.2 3.4 5 .5 1.2 1 2.4 1.3 3.6.6 2 1 4 1.4 6 2.4-4.7 4.9-9.2 7.5-13.7-2.9-.7-5-3.2-5-6.1 0-2.7 1.7-5 4.2-6-.5-.5-1-1.1-1.4-1.8 0-.2-.2-.4-.1-.6 0-.2.2-.4.4-.4s.3.1.4.3l.8 1c-.4-1.1-.7-2.2-.4-3.2 0-.3.3-.7.7-.7.4 0 .6.4.8.8.2.7.4 1.4.4 2.1 0-.7 0-1.5.3-2.1.2-.4.6-.7 1-.6.3.2.3.5.4.8v1.7c.1-.5.4-1 .8-1.3.2-.2.6-.3.8-.1l.2.4c0 .5 0 1.1-.3 1.6l.3-.3c.2-.2.6-.1.7 0l.2.4c0 .8-.3 1.4-.9 2 .4 0 .7.2 1 .4l2.4-4.3v-.2a5.6 5.6 0 01-3-3c-1.8-.5-3.5-1.3-5-2.3-1.4.7-3.2 1-4.7.7.5.6 1.2 2.2-1 2.3-.8 0-1.5-.4-2-1v-.5c-1-.2-1.8-1-2-1.9h-.1c-.7-1-1.3-2.3-1.2-3.5-.2-1-.3-2-.2-2.9l-1-10.5v-.1c.4-.4 3.4-.7 7-.7 4 0 7.2.3 7.2.8h.1v9.2l5.9 3.6a8 8 0 011.5-.5 4 4 0 01-.7-3.9c0-.1.1-.3.3-.3l.3.1c.6.5 1 1.1 1.3 1.8-.1-1.7 0-3.5 1-4.8.2-.2.4-.4.6-.3.2 0 .3.2.3.3.5 1.1.7 2.3.5 3.5.2-.6.5-1 .9-1.5.2-.2.4-.4.7-.4.5 0 .5.7.4 1.2-.2.8-.5 1.6-1 2.3.5-.6 1.3-1 2.1-1a6.7 6.7 0 01-2 4l-.1.2c1.2 1 2 2.4 2 4.1 0 2.3-1.6 4.3-3.8 5v.1a27.3 27.3 0 0014.8 3.4h.1c2.3 0 4.6-.4 6.8-1l2-.5 2.5-1c.6-.2 1-.2 1.7-.6 1-.7 1.9-1.6 2.5-2.7a7.2 7.2 0 001.2-5.6zm-55.6 5.1l.3 2.4c0-.6.3-1.1.7-1.5.3-.3.8-.4 1-.2.2.1.2.4.2.5 0 .6-.2 1.2-.5 1.7a4 4 0 011.8-1.5c.2 0 .3-.1.4 0l.2.2c.2.6 0 1.3-.3 1.8-.4.6-.9 1-1.4 1.4 1.6.8 2.7 2.4 2.7 4.2 0 2.5-2.2 4.6-5 4.6h-.2c-2.6-.1-4.7-2.1-4.7-4.6 0-1.8 1-3.3 2.6-4.1-.5-.8-.8-1.7-.8-2.6 0-.2 0-.4.2-.5.3-.2.6.1.8.4 0 .3.2.6.5.7-.2-.7-.2-1.5 0-2.3 0-.4.2-.8.6-1 .1-.2.2-.2.4-.2.3 0 .4.4.5.6z"/><path fill="#C6D3D8" fill-rule="nonzero" d="M346.6 364.3c.4.2.7.5.9 1 .3 1-.4 1.8-1 2.5-3.7 3.5-9.6 4.9-14.6 3.4-2-.6-4-1.6-6-1.7-1.8 0-3.6.5-5.5.6-1.8 0-3.9-.5-4.6-2-.3-.6-.3-1.2-.4-1.7l-.3-4.2c3.4-.2 6.8-.6 10.2-1.2h.1l5.4-1.3v.2l6.6 2.1 3 .9 5 1.2 1.2.2z"/><path fill="#FFF" fill-rule="nonzero" d="M331.4 351.9a3 3 0 00-.6-.4l-.3-1.2 1 .1c.3 0 .5-.1.7-.3.2-.4-.2-.8-.5-1-.4-.3-1-.5-1.4-.6v-.1c0-1.5 1-2.8 2.4-3.6 1.4-.7 3-.5 4.6-.4 1.6.1 3 .5 4.6.8 1.6.4 3.1.7 4.7.6-.1 2.5-1.4 4.9-3.4 6.5-.6.6-1.4 1-2 1.5-2 1.2-4.2 2.2-6.5 2.6-.7.1-1.4.2-2 0 .2-.2.4-.4.2-.7-.7-1.4-2-2.5-3.4-3.3l2.3.4h.2c.2 0 .1-.5 0-.6l-.6-.3zM339.6 334.3c-3 1.9-7 2.7-10.5 1.8l-.8-8.5c2-2.2 5.2-3.5 8.3-3.7 3.2-.2 6.4.5 9.4 1.7-1 3.4-3.1 6.5-6.2 8.6h-.2z"/><path fill="#FFF" fill-rule="nonzero" d="M331.4 351.9c.2 0 .4.2.5.3.2.2.3.6 0 .6h-.1c-.8 0-1.6-.2-2.3-.3 1.5.7 2.7 1.9 3.4 3.2.2.3 0 .6-.2.7-.1.1-.4.2-.6 0-.3 0-.6-.3-1-.5-.5-.3-1-.6-1.6-.7-.3 0-.6.1-.8.4-.2.3 0 .6.3 1s.5 1 .5 1.5c0 .4 0 .9-.4 1l-.4-.2c-1.3-.6-2-2-3.5-2.4l.5 2.8c.1.2 0 .5-.2.7h-.2-.1c-.4.1-.8-.1-1-.3l-2.7-2.4a7.2 7.2 0 001-8.6c1.6-1.7 4-3.1 6.5-3 .3 0 .7.1.7.4v.4c-.8 1-2.9.7-3.5 1.8.8.2 1.7 0 2.6 0l1.5.1 1.4.6c.3.3.7.6.5 1-.2.3-.4.4-.7.4l-1-.1-1.2-.2c-.6 0-1.3.2-1.6.7 1 .1 2.1.2 3 .7.3 0 .5.2.7.4z"/><path fill="#C99E62" fill-rule="nonzero" d="M332 358.7l-.1.5c-.2.3-.5.4-.8.5h-.3c-1.7.5-3.5 1-5.3 1.3h-.1l-.2-1h.3c.2-.3.3-.5.2-.8l-.5-2.7c1.5.3 2.2 1.8 3.5 2.4h.4c.4 0 .5-.4.4-.8 0-.6-.2-1-.5-1.6-.2-.3-.5-.6-.3-1 .2-.2.5-.3.8-.3a4 4 0 011.6.7l.8 2.8zM328.3 327.6l.8 8.5v.6l1.2 11.7c-.5 0-1-.2-1.5-.1-.9 0-1.8.2-2.6 0 .6-1 2.7-.7 3.5-1.8v-.3c0-.4-.4-.5-.7-.5a8.7 8.7 0 00-6.5 3 8.3 8.3 0 00-7.2-4c-2 0-4 .7-5.3 1.8-.4-3.5-1-7-1.6-10.5 3.5 2.2 7.4 3.8 11.6 4.3 0-8.5-1-17.4-6-24.6-2.7-4-6.6-7.3-10.5-10.4a31 31 0 008-18.5v-.5c4.4-.5 8.7-2 12.2-4.6a22155 22155 0 004.6 45.9z"/><path fill="#FFF" fill-rule="nonzero" d="M294.7 272.8c0-2.8-.3-5.7-.7-8.5h.1c4.3-5.5 11-8.9 18.1-10.1l5.2-.6c5.2-.2 10.1.6 15.4 1.8a36 36 0 01-19.5 19.9c-3.1 1.3-6.3 2-9.4 3l-9.4 2.4-.4-.1c.3-2.6.5-5.1.6-7.8z"/><path fill="#C99E62" fill-rule="nonzero" d="M315.2 362.2h-2.3c-1-.5-1-1.8-.8-2.8v-.2c1 .4 2 .6 3.2.6 2.4 0 4.7-1 6.2-2.6l2.6 2.4c.3.2.7.5 1 .4l.3 1a62 62 0 01-10.2 1.2z"/><path fill="#B4CAD1" fill-rule="nonzero" d="M323.7 281.7a25.2 25.2 0 01-12.1 4.5c0-.5-.2-1-.5-1.4-.4-.4-1-.6-1.7-.7-3.2-.5-6.5-.4-9.7 0a64 64 0 00-6.4 1l.8-4.4h.5l9.3-2.4c3.2-.9 6.4-1.7 9.4-3a36 36 0 009.2-5.5l2.2 10v1l-.7.6-.3.3z"/><path fill="#FFF" fill-rule="nonzero" d="M307.2 350.9a7.6 7.6 0 012.7-4.4 8.4 8.4 0 015.4-1.9c3.1 0 5.8 1.7 7.2 4a7.3 7.3 0 01-1 8.6 8.4 8.4 0 01-9.4 2.1 7.7 7.7 0 01-4.9-8.4zM298.4 310c1.8-1.4 3.5-3 5-4.8 4 3.1 7.9 6.4 10.6 10.4 5 7.2 6 16 6 24.6-4.2-.5-8.1-2.1-11.7-4.3a49.9 49.9 0 01-7-5.2l-1.6-1.4a35 35 0 01-6-6.7 14.4 14.4 0 01-2.4-8 38.8 38.8 0 007.1-4.6zM309.1 223.5a8 8 0 011.5-.5h1c1.3 0 2.6.4 3.6 1.2 1.3 1 2.1 2.5 2.1 4.1 0 2.4-1.5 4.3-3.8 5-.5.3-1 .4-1.6.4h-.4a6 6 0 01-2.4-.5 5.6 5.6 0 01-3-3 5.3 5.3 0 013-6.7z"/><path fill="#323230" fill-rule="nonzero" d="M272 166c1.1 1.2 1.6 2.6 2 4 1 3.9 1.3 7.9 1 11.7-.2 1.7-.5 3.5-1.4 4.9l-.1.4h-.1c-2.2-.3-4 1.2-4.3 3.2l-.3-.2a19.4 19.4 0 01-4.8-19c1-2.5 2.9-4.8 5.4-6h.3l-.1-.6 1.2-.1c2.5-3.8 7-6.3 11.6-7a23 23 0 0113.7 2.6c2.2 1.1 4.1 2.6 5.6 4.4 1.1 1.5 2 3.2 2.5 5 .8 2.6 1 5.4.7 8.1 0 1.1-.3 2.3 0 3.4.6 1.7 2.4 2.8 4.2 3 1.9 0 3.7-.8 5-2-.4.9-.9 1.6-1.5 2.3-.1 1-.8 1.8-1.5 2.5a7.6 7.6 0 01-4.2 4.3c-2 .8-6.2.5-8-.5a19 19 0 00-6.3-23.4 9 9 0 01-4.5 1.6c-5.4.7-11-.2-16-2.5z"/><path fill="#B4CAD1" fill-rule="nonzero" d="M315.5 244.4l-2-11.2-2.2.5c-.7 0-1.5-.2-2.2-.4v.1l-2.5 4.3c2 1.1 3.5 3.2 3.5 5.5 0 .8-.2 1.6-.4 2.3a6.9 6.9 0 01-6.5 4.1c-.6 0-1.3 0-1.8-.2-2.6 4.5-5.1 9-7.5 13.6l.2 1.3a29.6 29.6 0 0121.4-10.6l2-.1c.1-.2 0-.2-.1-.4a10194359 10194359 0 00-1.7-8.3l-.2-.5z"/><path fill="#FFF" fill-rule="nonzero" d="M266.2 300.9c2-2.6 4.3-5 7-7a49.3 49.3 0 0126.5-9.9c3.2-.3 6.5-.4 9.6.1.7 0 1.3.2 1.7.7.4.4.5.9.5 1.4v.6a31.2 31.2 0 01-8.1 18.4 42.7 42.7 0 01-9.4 8l-2.7 1.5a58.3 58.3 0 01-17.4 5.8 85 85 0 01-12.6 1.2c-.7 0-1.6 0-1.8-.7v-.7-.3c.3-.8.7-1.5 1.2-2.3l-.9-.5c.4-5.9 2.8-11.5 6.4-16.3zM301.3 249.4c-2.9-.8-5-3.2-5-6.2 0-2.6 1.8-4.9 4.2-5.8a7.5 7.5 0 015.2-.1l1 .4c2 1.1 3.4 3.2 3.4 5.5 0 .8-.1 1.5-.4 2.2a6.9 6.9 0 01-6.5 4.2c-.7 0-1.3 0-1.9-.2zM300.5 362.8a29 29 0 0114.7 12.7c-8.7 5-19.3 6.9-29.3 5.2-3.5-.6-7-1.6-9.5-3.9a36.4 36.4 0 00-4.5-15.3 54.1 54.1 0 0115.7-1.5 42 42 0 0112.9 2.8zM291.4 227.5h-.1c-.7-1-1.3-2.3-1.2-3.5-.2-1-.4-1.9-.3-2.8.1-.8.4-1.5 1-2.2l.8-.8a29.7 29.7 0 014.7-2.8c.9 0 1.6.5 2.2 1a73 73 0 0010.6 7 5.3 5.3 0 00-3 6.8c-1.8-.5-3.6-1.3-5.1-2.3l-1.5-1c-.4-.5-.3-.4-.9-.6-.5-.2-1.2-.2-1.6.2-.4.4-.9 1.6-.7 2v.2c.5.6 1.2 2.1-1 2.3-.7 0-1.5-.5-1.9-1.1l-.1-.5c-1-.1-1.7-1-2-1.9z"/><path fill="#DFE3E5" fill-rule="nonzero" d="M303.8 234.6v0zm0 0c.2-.5.5-1 .9-1.3.2-.2.6-.3.8-.1l.1.4a3.5 3.5 0 01-.3 1.6l.4-.3h.7l.1.4c0 .8-.2 1.5-.8 2a7.3 7.3 0 00-5.2 0l-1.4-1.8-.2-.6c0-.3.3-.4.5-.4l.4.2.8 1c-.4-1-.7-2.2-.4-3.2 0-.3.3-.6.7-.6.4 0 .6.4.8.7.2.7.4 1.4.4 2.2 0-.8 0-1.5.3-2.2.2-.3.6-.7 1-.5.3.1.3.4.4.7v1.8z"/><path fill="#FFF" fill-rule="nonzero" d="M303.2 210.6l.1 9.2a87 87 0 01-4.8-3.4c-.6-.5-1.3-1-2.2-1-.4 0-.8.3-1.1.5a32.5 32.5 0 00-4.5 3.2 4 4 0 00-.9 2.1l-.9-10.5c.4.4 3.4.7 7 .7 4 0 7.2-.4 7.2-.8h.1zM298 350.8l-.8-.2.8.2zm-4.3 3.7c.5.5.9 1 1.2 1.7.3.3.5.7.2 1-.2.5-.8.4-1.3.3-1-.4-1.6-1.3-2-2.3l-.7-2.5a7.6 7.6 0 004.4-7.7c.7-.4 1.4-.4 2.2-.4.2 0 .4.2.5.4.2.4-.7.8-.6 1.3.5-.2 1-.4 1.5-.4.6 0 1 .5 1 1-.1.3-.4.5-.6.6-.6.5-1.3.8-2 1l2.7.4c.3 0 .7.2.8.4 0 .2-.1.5-.3.6l-.1.2c-.7.6-1.7.9-2.6.7l2.7.8c.4.2 1 .4 1 .9 0 .3-.2.5-.4.7a4.1 4.1 0 01-5 0l-.5-.4.4.4 1 1 .3.3c.2.4-.1.8-.5 1-.4.2-.8.2-1.2 0a4 4 0 01-2-1zM273.5 187v-.4c1-1.4 1.3-3.1 1.4-4.8.4-4 0-7.9-1-11.7a9.2 9.2 0 00-1.8-4c5 2.3 10.6 3.2 16 2.5 1.6-.2 3.3-.6 4.5-1.6l2 1.7a19 19 0 014.3 21.8l-.9 1.6a12.5 12.5 0 01-3.7 4.1c-.7.5-1.4.8-2.2 1-2.6.8-5.7.6-8.4 0l-1.9-.6c-2-.7-3.7-1.7-5.2-3-2.2 2.7-6.3 1.5-7.5-1.7-.1-.6-.1-1.1 0-1.6.4-2 2.2-3.4 4.3-3.2z"/><path fill="#C4505D" fill-rule="nonzero" d="M298.3 202.4c.5.6.9 1.3.9 2 0 .8-.6 1.5-1.3 2-.7.4-1.5.6-2.3.8-5.6 1.3-11.6.5-16.9-1.7-1-.5-2.2-1-2.4-2.2-.3-1 .6-2 1.4-2.8 1.1-1 2.5-1.6 3.9-2-.4 2-1 3.5-.3 4 4 1.9 8.3 2.7 11 .2.7-1.4.1.3-.1-2.8 2.2.4 4.6.9 6 2.5z"/><path fill="#FFF" fill-rule="nonzero" d="M279.6 343.7l.3-.7a8.2 8.2 0 017.5-4.7 8 8 0 018.2 7.6c0 3-1.9 5.6-4.5 6.8-1.1.5-2.4.8-3.7.8-2.5 0-4.7-1-6.2-2.7a7.3 7.3 0 01-1.6-7.1zM294.7 326.1c.2.3.2.6 0 .7l-.2.1-1.4.1-.6.1c-.1.2 0 .5.2.6l.8.3c.6.2.8.9 1 1.5v.4c-.2.3-.6.3-1 .2-.4-.1-.7-.4-1-.6l-.4-.2c-.3 0-.4.3-.4.6 0 .2.3.4.4.6.2.2.3.5 0 .7-.2.3-.7 0-1-.1l-1.2-.8a5.5 5.5 0 00-.6-6.5c.4-.4.8-.7 1.3-.9.3-.1.7-.3 1-.2.3.1.6.4.4.7 0 .3-.3.4-.6.5-.2.1-.4.4-.2.6l.4.1c1.2.3 2.5.6 3.1 1.5zM269.5 263.6a50 50 0 0113.8-15.1c.6-.5 1.4-1 2.2-1 .8 0 1.6.5 2.2 1 1.5 1.5 2.6 3.2 3.4 5a53.4 53.4 0 012.7 9.5l.2 1.3a55.8 55.8 0 01-.8 20.7 49.7 49.7 0 00-20 9c-2.7 2-5 4.3-7 6.9A29 29 0 01263 285c.4-7.5 2.7-14.8 6.5-21.4zM289 244.1c-2.6-.1-4.6-2.1-4.6-4.6 0-1.8 1-3.3 2.5-4.1a5.5 5.5 0 014.7 0c1.6.7 2.7 2.3 2.7 4 0 2.6-2.2 4.7-5 4.7h-.2z"/><path fill="#DFE3E5" fill-rule="nonzero" d="M293.3 232.1c.2.6 0 1.3-.3 1.8-.4.6-.9 1-1.4 1.5a5.4 5.4 0 00-4.6 0c-.5-.8-.8-1.6-.8-2.5 0-.2 0-.5.2-.6.3-.1.6.1.8.4 0 .3.2.6.5.7-.2-.7-.2-1.5 0-2.3 0-.4.2-.8.6-1 .1-.2.2-.2.4-.2.3 0 .5.3.5.6l.3 2.4v0c0-.6.3-1.1.8-1.5.3-.3.7-.5 1-.2l.1.5c0 .6-.1 1.1-.5 1.6a4 4 0 011.8-1.4h.5l.1.2z"/><path fill="#FFF" fill-rule="nonzero" d="M281.6 198.5l.1-2 2 .6c2.7.7 5.7.9 8.3 0l.1 2.8c.3 3 .9 1.3.2 2.8-2.8 2.5-7.1 1.7-11-.3-.8-.4-.1-2 .3-4zM278.8 329.7c-.3-.7-.5-1.4-.5-2.2 0-3.2 2.8-5.8 6.2-5.8 2 0 3.7.8 4.9 2.1a5.5 5.5 0 01.5 6.5c-1 1.8-3 3-5.4 3a6.3 6.3 0 01-5.7-3.6zM281.8 222.2c1.8 8.8 0 18.2-4.4 26.2-2.2 3.9-5 7.4-8.1 10.6a56.3 56.3 0 01-11.8 8.7c1.2-4.3 1.4-9 .8-13.5-.5-3.4-1.5-6.7-2.8-9.9l.4-.1a40.4 40.4 0 0126-22zM256.1 348.4h.5c1.3 0 2.4.6 3.5 1.2a32.1 32.1 0 0114.4 17.3c1 3.2 1.7 6.5 2 9.9.2 4-.2 8.2-1.2 12.2-5.2-2.5-10-6-13.6-10.4h-.1c0-2.4 0-4.8-.6-7-1-3.6-3.3-6.7-6.1-9.2l.2-.3c-1.5-4.2-1.4-8.8.4-13 0-.2.2-.5.5-.7h.1z"/><path fill="#323230" fill-rule="nonzero" d="M269.6 164.4l.1.5-.3.1a10.7 10.7 0 00-5.4 6c-1 2.7-1 5.5-.5 8.3.6 4 2.3 7.8 5.3 10.7l-.6-.3c-4.9-3.5-7.7-9.5-7-15.2.4-2.7 1.4-5.3 3.4-7.3 1.1-1.1 2.5-2 4.1-2.5l.9-.3z"/><path fill="#FFF" fill-rule="nonzero" d="M267.1 329.9a6.1 6.1 0 012.3 4.4v.3c0 1.2-.4 2.3-1 3.3a7 7 0 01-5.8 3c-3.7 0-6.8-2.8-6.8-6.3 0-.4 0-.8.2-1.2.6-3 3.3-5.1 6.6-5.1 1.8 0 3.3.6 4.5 1.6zM247.9 359.2c2-.2 4 .6 5.8 2.1l1.2 1.1c2.7 2.6 5 5.6 6 9.2.7 2.2.7 4.6.7 7a35.4 35.4 0 01-5.8 20.5l-.5-.2a35.8 35.8 0 01-13.6-17.7c-1.5-4.6-2-9.4-1-14 .4-1.8 1-3.6 2.2-5a7.7 7.7 0 014.8-3h.2zM253.1 276.1h-.1-.2c-10.5-9.3-14-25-8.3-37.4 1.1-2.4 2.6-4.7 5-6 2.4 3.7 4.5 7.6 6 11.6 1.4 3.2 2.3 6.5 2.8 10 .7 4.4.5 9-.8 13.4-.9 3.1-2.3 6-4.3 8.6v-.2z"/><path fill="#E1EEF4" fill-rule="nonzero" d="M141.3 324.1l.2-.2v-.4a20.5 20.5 0 00-8-5 33.8 33.8 0 00-17.2 1.5c-.5.2-1 .4-1 .9l.3.5c1 1.2 2.3 2.1 3.6 3a18 18 0 006.6 2.8c2 .4 4.2.2 6.3-.1 3.3-.5 6.6-1.2 9.2-3zm-31.7 24.3c-1-2-1.1-3.1-1.1-3.1V340c6.7.4 13.4-.7 19.5-3.2 2-.8 4-1.9 5-3.6-.6-1-1.8-1.5-2.9-2-4.2-1.6-9-1.8-13.6-1-2.7.5-5.4 1.4-8 2.6v-1a4.5 4.5 0 002.4-3.9c0-1.6-1-3-2.3-3.8l.6-148.7c0-27.7 9.9-29.4 25-41.6 15-12.2 15-15.9 15.8-21.5.9-5.3.4-53.4.4-59.2l-1-.6a7.2 7.2 0 01-2.4-6.7c.3-.8.8-1 1.6-.9 2.2.6 4.3 1.5 6.6 2a69 69 0 0040.1-2.1l.3-.1c1-.4 2.3-.9 3.2-.2.7.5.9 1.2.4 1.9-.4.8-.5 1.5-.8 2.4-.3 1-.7 2-1.3 2.8l-.5.5-.6.5v60s.3 8.8 9.6 15.7c9.2 7 29.3 19.5 30 30.9l.2 3.4v2.8l.3 5.7.5 17.8.1 7.2v4.8l.2 3.1v6l.1 2.7v2.4l.1 2v3.6a111388.3 111388.3 0 00.5 112.2v.6c-1.6-.9-3.4-1.5-5.2-1.9-4.3-1-8.8-.6-13 .7a8.8 8.8 0 00-4.5 2.4v.1a26.6 26.6 0 0013.5 5.4c3 .4 6 .8 9 .3a59 59 0 01-.6 7.2v.4c-2.1 7.1-20.4 15.6-40.4 19.2-21.6 4-46.7-.3-46.7-.3-24.8-3.8-34.7-11.4-38.7-16.5l-1.4-2.2zm115.8-23.8c3.3-1.4 6.2-3.9 7.5-7-3-1.6-6.5-2-9.9-1.8a32 32 0 00-14.7 4.6c-1.8 1.1-3.5 2.5-4.2 4.4l.1.3c3 2 7 2 10.7 1.8 3.6-.3 7.3-.8 10.5-2.3zm-10.2-11.3c0-1.2-1-2.2-2.3-2.2-1.3 0-2.3 1-2.3 2.2 0 1.2 1 2.2 2.3 2.2 1.3 0 2.3-1 2.3-2.2zm-.8 35.5c0-.2-.1-.5-.3-.7-.4-.4-1-.7-1.5-.7-.8-.1-1.7.1-2.4-.3.1-.3.5-.4.8-.5.3 0 .6-.2.6-.5s-.3-.4-.6-.4c-1-.2-1.9.5-2.6 1.2a5.2 5.2 0 00-4.9-3.1c-2.8 0-5.2 2.1-5.2 4.8 0 2.7 2.4 4.9 5.2 4.9 1.5 0 2.9-.6 3.8-1.6.5 0 .9.2 1.2.4l.9.5c.3 0 .8-.2.7-.5-.1-.2-.4-.3-.4-.6 0-.2.2-.4.5-.4s.5.2.7.3c.4.2.8.3 1.2.2.4-.2.7-.6.5-1-.2-.2-.6-.3-.9-.4-.3 0-.6-.3-.6-.5 0-.3.1-.5.3-.5h.7l1.3.1c.4 0 1-.2 1-.7zm-6.5-34c0-1.9-1.6-3.4-3.6-3.4s-3.5 1.5-3.5 3.4c0 1.8 1.6 3.3 3.5 3.3 2 0 3.6-1.5 3.6-3.3zm6.6-178c0-3.6-18-6.5-40.4-6.5-22.3 0-40.4 3-40.4 6.5 0 3.6 18.1 6.5 40.4 6.5 22.3 0 40.4-3 40.4-6.5zm-15 183.7c.2-.4.3-.9.1-1.3-.2-.5-.9-.7-1.4-.9-3.6-1-7.5-.9-11.2 0 1.3-3.8 1-8.1-.5-11.9-.3-.6-.6-1.3-1.3-1.7-1.2-.6-2.6.2-3.6 1.1a16.6 16.6 0 00-4.8 8.6c-.7 3.1-.5 6.4.2 9.5a12.4 12.4 0 00-4 7.6h.1c-.2.4-.3.9 0 1.2.3.5 1 .5 1.7.4 2-.2 4-.6 6-1 2.7 3.7 7.2 6.3 12 6.7 4.9.3 9.9-1.5 13.1-4.9-4.1-4-10.2-6-16.1-5.4 2.4-1.3 4.6-2.7 6.6-4.4 1.3-1 2.5-2.2 3.1-3.6zm-5 30.5c.1-.2 0-.5-.1-.6-.4-.2-.9.1-1.2 0-.2-.4.6-.6.7-1 0-.2-.2-.5-.4-.5l-.8.1c-.2.1-.4.3-.6 0-.1 0 0-.3.2-.5l.5-.8c0-.3 0-.7-.3-.9-.4-.3-1.1-.1-1.4.3-.3.4-.5 1-.6 1.4-.1.2-.2.4-.4.4s-.4-.2-.4-.4 0-.4.2-.5c.3-.6.4-1.3 0-1.8l-.3-.2c-.2 0-.4 0-.6.2-.6.5-.8 1.3-.8 2v.5c0 .2-.1.4-.3.4-.3 0-.5-.3-.5-.6-.1-.3-.2-.7-.5-.7-.4 0-.5.4-.5.8 0 .7.3 1.5.7 2.2-1.8.8-3 2.5-3 4.4 0 2.8 2.3 5 5.2 5 2.9 0 5.2-2.2 5.2-5 0-1.3-.6-2.5-1.5-3.4l1-.3.5-.5zm-22-17.4c.3-.2 0-.6-.1-1l-.2-.2h.2c.2-1.8-.4-3.5-1.2-5l-.9-1.5c.8-4 .3-8-1.5-11.5a19.4 19.4 0 00-8.6-8.6 18 18 0 00-.7 11.8 27 27 0 00-10.3-1.5c-.3 0-.6 0-.8.2-.2.2-.2.5-.2.8.1 3.2 1.6 6.2 3.7 8.7l.8 1c-2.3 0-4.5 1-6.4 2.2-2 1.3-3.5 2.9-5 4.6-.6.5-1.2 1.3-.8 2 .2.3.6.5 1 .7 1.7.7 3.5.8 5.4 1 3 .1 6 .3 8.8-.2 3-.5 5.8-1.7 7.8-3.7 2.7 1 5.7 1.3 8.5.5.2 0 .4 0 .5-.3zm-12.3 21.7c0-1.2-.6-2.3-1.5-3l.3-.2.8-.5c.1-.3 0-.7-.3-.8-.3 0-.6.2-.8 0 0-.3.5-.5.5-.9 0-.2-.2-.5-.5-.5s-.6.2-.8.4l-.6.5h-.4v-.3l.4-.8c.1-.3.2-.6 0-.9l-.2-.1h-.3c-.6.3-1.1.8-1.3 1.4l-.3.6c0 .2-.4.3-.6.2v-.6c0-.2-.2-.5-.4-.4h-.2c-.2.3-.3.7-.2 1l.2 1c-1.7.6-3 2.1-3 4 0 2.3 2.1 4.2 4.6 4.2 2.5 0 4.6-1.9 4.6-4.3zM145 350c0-2.9-2.5-5.2-5.6-5.3l.8-2 .2-1c-.1-.3-.3-.6-.7-.7-.4 0-.9.3-1 .8v1.2c0 .1 0 .2-.2.3h-.3l-.2-.4c0-.5 0-1-.2-1.3 0-.3-.4-.5-.6-.4l-.2.5v1c-.2.1-.5 0-.5-.3l-.1-.7c-.1-.2-.5-.4-.6-.2v.3c0 .6.2 1 .5 1.6-.4 0-.8-.3-.9-.7 0-.3 0-.8-.2-1.1-.2-.3-.8-.5-1-.2l-.1.4c0 .9.2 1.8.7 2.6l.2.4c0 .1 0 .3-.2.3h-.2c-.5-.3-.9-1-1.5-.9h-.1c-.1.2 0 .3 0 .4.4.8 1 1.5 1.8 2.1a5 5 0 00-1.2 3.3c0 2.9 2.6 5.3 5.7 5.3s5.7-2.4 5.7-5.3z"/><path fill="#C6D3D8" fill-rule="nonzero" d="M214.9 335c1-1.4 2.7-2 4.4-2.5 4.3-1.2 8.8-1.6 13.1-.7 1.8.4 3.6 1 5.2 1.9l-.1 7c-3 .5-6.2.1-9.2-.3-1.4-.2-3-.4-4.4-.8-1.5-.4-2.9-1-4.3-1.6-1.7-.8-3.5-1.7-4.7-3zM204.2 325l-.1-.2c.7-1.9 2.4-3.3 4.2-4.4 4.3-2.7 9.5-4.3 14.7-4.6 3.4-.2 7 .2 9.9 1.7a13.6 13.6 0 01-7.5 7.1c-3.2 1.5-6.9 2-10.5 2.3-3.7.3-7.7.2-10.7-1.8zM213 311.1c1.2 0 2.3 1 2.3 2.2 0 1.2-1 2.2-2.4 2.2-1.3 0-2.3-1-2.3-2.2 0-1.2 1-2.2 2.3-2.2z"/><path fill="#C4505D" fill-rule="nonzero" d="M207.3 352c-.9 1-2.3 1.5-3.8 1.5-2.8 0-5.2-2.2-5.2-4.8 0-2.7 2.4-4.9 5.2-4.9 2.2 0 4.2 1.3 4.9 3.1a4.6 4.6 0 01-1 5zM204.3 311.4c2 0 3.6 1.5 3.6 3.4 0 1.8-1.7 3.3-3.6 3.3-2 0-3.6-1.5-3.6-3.3 0-1.9 1.6-3.4 3.6-3.4z"/><ellipse cx="174.1" cy="136.8" fill="#C8E0E8" fill-rule="nonzero" rx="40.4" ry="6.5"/><path fill="#C6D3D8" fill-rule="nonzero" d="M173.1 331.5h-.1c.2-2.9 1.8-5.5 4-7.6a18.4 18.4 0 014.7-3.4c1.7-1 3.5-1.6 5.4-2.1 3.6-1 7.5-1 11.1 0 .6 0 1.2.3 1.4.8.2.4 0 .9 0 1.3a10 10 0 01-3 3.6 38.2 38.2 0 01-15.7 8c-2 .5-4 .9-6 1-.7.1-1.5.1-1.8-.4-.3-.3-.2-.8 0-1.2z"/><path fill="#C6D3D8" fill-rule="nonzero" d="M206 334a16.7 16.7 0 01-13.1 4.8c-4.9-.4-9.4-3-12-6.8 3-.8 6.1-2 9-3.5 5.8-.6 12 1.5 16 5.5z"/><path fill="#C4505D" fill-rule="nonzero" d="M193 351.8c1 .9 1.6 2 1.6 3.4 0 2.8-2.4 5-5.3 5s-5.2-2.2-5.2-5c0-2 1.2-3.6 3-4.4a5.4 5.4 0 016 1z"/><path fill="#C6D3D8" fill-rule="nonzero" d="M181.7 320.4a24.6 24.6 0 00-4.7 3.5c-.8-3.1-1-6.4-.2-9.5.7-3.3 2.3-6.3 4.8-8.6 1-.9 2.4-1.7 3.6-1.1.7.3 1 1 1.3 1.7a17 17 0 01.5 12c-1.8.4-3.6 1.2-5.3 2zM156.6 329.9a23.9 23.9 0 01-4.7-4.1 14.6 14.6 0 01-3.7-8.7c0-.3 0-.6.2-.8.2-.2.5-.2.8-.2a27 27 0 0112.9 2.5 20.4 20.4 0 019 8.7 9.5 9.5 0 011.3 5h-.2c0 .2.1.2.2.3.2.4.4.8.1 1-.1.2-.3.3-.5.3-2.8.8-5.8.4-8.5-.5a27.3 27.3 0 01-7-3.5z"/><path fill="#C6D3D8" fill-rule="nonzero" d="M168.8 314.3a18 18 0 011.5 11.5 20.6 20.6 0 00-10.8-8.3c-1-4-.8-7.9.7-11.7 3.7 2 6.8 5 8.6 8.5z"/><path fill="#C99E62" fill-rule="nonzero" d="M161.9 10l-.4.5c0-.2.2-.3.4-.5zm-15.5 18c-2.2 2.3-5.4 2.7-5.6 1.4V29c.5-1.1 1-2.1 1.6-3-1.3 1.6-2.9 3.5-5.2 4-.4.1-1 .1-1.3-.1-.5-.5-.2-1.3.1-1.9.8-1.2 1.8-2.2 2.9-3.2l-5 3.6c-1.1.8-2.2 1.6-3.4 2.2-.4.2-1 .4-1.4.3-.4-.2-.6-.6-.7-1 0-.4 0-.8.2-1.2.7-1.6 2-3 3.3-4 1.4-1.1 3-2 4.6-2.8-2.8 1-5.7 2-8.4 3.2-.8.3-1.6.7-2.5.7-.3 0-.7-.1-.8-.4-.1-.1-.1-.3 0-.4 0-1 .6-1.8 1.3-2.5 2-2.3 5.2-3.5 8.3-4.3 4.2-1.2 8.7-1.8 12.9-.8l.1.2a6 6 0 003.3 1.7h2.2c1.3 0 2.8-.5 3.4-1.6a5 5 0 01-3.5-1.3l1.4-.8c.8-.5 1.6-1 2.5-1.1 1.2-.2 2.5.2 3.6.6-.2-1.2-1.4-2-2.6-2.4-1-.3-2-.4-3-.4.8-3.4 3-6.6 5.9-8.7a8 8 0 013.3-1.5h1c.7.4.7 1.2.5 1.8-.5 2.3-2 4.4-3.6 6.2l1.5-1.1c.4-.2.7-.4 1-.4 1 0 1.6.8 1.7 1.6 0 .9-.4 1.7-1 2.3-.8 1-2 2-3.1 2.8.6-.4 1.4-.7 2-.8h.4l.2.4c.2 1.3-.6 2.6-1.6 3.6a11 11 0 01-2.4 2c.8 1.3 1.5 2.8 1.7 4.4l-.2.4c-.4.8-.3 1.8-.2 2.7l-1-1.6c-.3-.4-.6-.8-1-.8s-.6.3-.7.7l.1 1a10 10 0 002.9 4.2h-.2l-1.5.8-.3.2-2.3.7c-1.5.2-3 .2-4.5 0 .3 1.8 1 3.6 2 5.1v.3l-.2.2-1.2.4-.5.1-2.8.7a7 7 0 012.1-2.3c-2-1.8-4-3.7-5.2-6-.5-1.2-1-2.4-1.1-3.7z"/><path fill="#E2D6C7" fill-rule="nonzero" d="M162.1 10c-.2.3-.3.5-.2.7V11l-.7-.5.2-.1c.3 0 .5 0 .7-.4zm0 0s.1.1 0 .4c0 .2 0 .5-.2.6l-.7-.5.2-.3.4-.2h.3z"/><path fill="#E2D6C7" fill-rule="nonzero" d="M146.4 28c-.6.6-1.3 1.1-2 1.5-.9.4-1.8.7-2.6.7a2 2 0 01-.7-.2.8.8 0 01-.4-.6l.2-.7.2-.6 1.3-2.3c-.6 1-1.4 2-2.3 2.7a6 6 0 01-3.3 1.6c-.3 0-.6 0-.9-.2a.7.7 0 01-.3-.5V29c0-.3.1-.6.3-.8l.5-.8a14 14 0 012.4-2.7l.2.2-5 3.7-2.5 1.7-.7.4a3 3 0 01-.7.3h-.9c-.3 0-.5-.3-.7-.5l-.2-.9c0-.2 0-.5.2-.8l.7-1.4c.6-.9 1.3-1.7 2-2.4 1.6-1.4 3.5-2.4 5.3-3.3l.2.4-6 2.2-3 1.2a7 7 0 01-1.7.4h-1a.7.7 0 01-.3-.5v-.6c.1-1 .8-2 1.5-2.8.8-.8 1.7-1.4 2.6-2a35.2 35.2 0 0112.3-3.4c2.2-.1 4.3 0 6.4.5h.1v.1l.1.1h.1a6 6 0 004.3 1.8c.8 0 1.6 0 2.3-.3a3 3 0 001.8-1.3l.3.5c-1.4 0-2.8-.5-3.8-1.4l-.3-.3.4-.2.9-.4.4-.3.5-.2 1.9-1a5 5 0 012.1 0l2 .6-.4.4c-.1-.5-.4-.9-.8-1.2l-1.3-.8a8 8 0 00-3.2-.5h-.4v-.4a15.1 15.1 0 015-8c.7-.6 1.6-1.3 2.5-1.8l1.5-.5.8-.2 1 .1.3.3.3.5a3 3 0 010 1.7l-.3.7c-.3 1-.9 2-1.4 2.8-.6 1-1.3 1.7-2 2.5l-.4-.4 1.3-1 .7-.4c.2 0 .5-.2.8-.1 1.3 0 2.1 1.3 1.8 2.5a4 4 0 01-.7 1.5l-1 1.1-2.5 2-.3-.5c.7-.4 1.4-.7 2.2-.8h.4c.2.1.3.3.3.4v.3c.2.6 0 1.2-.3 1.8-.2.6-.6 1-1 1.6a12.2 12.2 0 01-2.7 2.3v-.4l1.1 2.2.6 2.4v.1l-.2.4c-.3.8-.3 1.7-.2 2.6l.1 1-.5-.8-.7-1.1-.3-.6-.4-.5a.6.6 0 00-.5-.1s-.2 0-.3.2c-.3.2-.2.6 0 1a10.8 10.8 0 002.8 4.2l.2.2-.3.1h-.1l-.1.1-.3.1-.4.3-.8.4-.3.1-1.7.6c-.5.2-1.1.2-1.7.3l-3.5-.1.2-.2c.1 1 .4 1.9.7 2.8l.6 1.3.4.7.1.3.1.1v.3l-.1.2-.2.1-1.2.3-.4.2h-.4l-.8.3-1.7.3h-.2c.3-.6.7-1 1-1.4l1.2-1a23.8 23.8 0 01-5.2-6l-.3-.8c-.3-1-.6-1.9-.7-2.9zm0 0a11.2 11.2 0 001 3.5l.4.6.8 1.2c1.2 1.6 2.6 3 4.2 4.2v.1l-1.2 1-1 1.3 1.6-.5.8-.2.9-.2 1-.4h.3l-.1-.3-.2-.3-.4-.6a12.6 12.6 0 01-1.4-4.2V33h.2a17.6 17.6 0 005-.2l1.7-.5.3-.1.8-.5.4-.2h.2l.1-.1.2-.1v.3a10 10 0 01-3.2-5c0-.3 0-.6.2-.8.2-.2.4-.4.8-.4.2 0 .5.1.7.3l.4.5.4.6.7 1-.4.2c-.1-.5-.2-1-.1-1.5 0-.4 0-1 .2-1.4l.2-.4v.1c-.1-.7-.3-1.5-.6-2.2l-1-2.1-.2-.2.2-.1a11.5 11.5 0 002.7-2.3c.3-.4.7-.9.9-1.4.2-.5.3-1 .2-1.6v-.1h-.2c-.7 0-1.4.2-2 .6l-.3-.4a23 23 0 003.4-3c.3-.4.5-.8.6-1.3v-.6c0-.3 0-.5-.2-.6-.3-.4-.6-.7-1-.7-.3 0-.5 0-.7.2a6.3 6.3 0 00-1.8 1.3l-.3-.5A17 17 0 00165 4l.2-.7c0-.4 0-.9-.4-1-.4-.2-.9 0-1.4 0l-1.3.6a13.3 13.3 0 00-4.6 4 14.6 14.6 0 00-2.5 5.4l-.4-.4a8 8 0 011.8.1l1.7.5 1.5.9c.4.3.8.9 1 1.5l.1.5-.5-.1c-.7-.3-1.3-.5-2-.6h-1.8l-1.8.9-.4.2-.4.3-1 .4.1-.5c.9.9 2.2 1.3 3.4 1.3h.5l-.3.4c-.2.4-.5.8-1 1l-1.1.6a8.8 8.8 0 01-3.9.2l-1.2-.4c-.8-.3-1.6-.8-2.2-1.4h.1l-.1-.1c-2-.5-4-.6-6.1-.5a35.2 35.2 0 00-12.1 3.3 12 12 0 00-2.5 1.9l-1 1.2c-.2.4-.4.8-.4 1.3l.1.4.7.1 1.5-.3 3-1.2c2-.8 4-1.6 6-2.2l.3.4c-1.9 1-3.7 1.9-5.2 3.2a10.5 10.5 0 00-2.7 3.6l-.1.7.1.7.5.4h.7l.6-.3.7-.4c.9-.5 1.7-1 2.5-1.7l5-3.6.2.2c-.9.8-1.7 1.6-2.4 2.6-.3.5-.7 1-.8 1.6 0 .3 0 .5.3.7.2.2.5.2.8.2 1.1-.1 2.2-.7 3.2-1.5.9-.7 1.6-1.7 2.4-2.6l-1.2 2.3-.2.6-.2.7c0 .2.2.4.4.5l.6.2c.8 0 1.7-.2 2.5-.6.8-.4 1.5-1 2-1.6z"/><path fill="#C6D3D8" fill-rule="nonzero" d="M156.6 329.9a34.5 34.5 0 007 3.5c-2 2-5 3.2-7.8 3.7a39.3 39.3 0 01-14.3-.8c-.4-.2-.8-.4-1-.8-.3-.6.2-1.4.8-2 1.5-1.6 3.1-3.2 5-4.5a13 13 0 016.4-2.3c1.2 1.2 2.5 2.3 3.9 3.2z"/><path fill="#C4505D" fill-rule="nonzero" d="M154 351.4a4.6 4.6 0 014.7.9 4 4 0 011.4 3c0 2.4-2 4.3-4.5 4.3s-4.6-1.9-4.6-4.2c0-1.9 1.3-3.4 3-4zM151.7 12.8l.4-.1a8.7 8.7 0 015.7 0c1.2.3 2.4 1.1 2.6 2.3-1.2-.4-2.4-.8-3.6-.6-1 .1-1.7.6-2.5 1.1l-1.4.8-1.2.3c-1 .1-2-.2-2.4-1h-.1c0-.3.1-.6 0-.8l-.9-.3a4.5 4.5 0 00.8-3.8c.3 1.3 1.2 2.2 2.2 2.2l.4-.1z"/><path fill="#C4505D" fill-rule="nonzero" d="M147.4 17.3c-.5-.5-.8-1.1-.7-1.7.6-.2 1.2-.5 1.6-1l1 .2c0 .2 0 .5-.2.7.5.9 1.6 1.2 2.5 1a5 5 0 001.2-.2c.9.8 2.3 1.3 3.5 1.3-.6 1-2 1.5-3.4 1.7l-2.2-.1a5.9 5.9 0 01-3.3-1.9zM134.9 346.7c1-1.3 2.6-2.1 4.5-2.1h.1c3.1 0 5.6 2.4 5.6 5.3 0 3-2.6 5.3-5.7 5.3-3.2 0-5.7-2.4-5.7-5.3a5 5 0 011.2-3.2z"/><path fill="#C6D3D8" fill-rule="nonzero" d="M141.3 324v.1c-2.6 1.8-6 2.5-9.2 3-2 .3-4.2.5-6.3.1-2.4-.4-4.5-1.5-6.5-2.8-1.4-.9-2.7-1.8-3.7-3l-.3-.5c0-.5.5-.7.9-.9a33.8 33.8 0 0117.2-1.5 20 20 0 018 5c.1 0 .2.3.1.4l-.2.2zM108.5 335.2v-2.3a34 34 0 018-2.6c4.6-.8 9.4-.6 13.6 1 1.1.4 2.2 1 2.9 2-1 1.7-3 2.8-5 3.6a45.4 45.4 0 01-19.5 3.2v-5z"/><path fill="#C4505D" fill-rule="nonzero" d="M108.6 324.2c1.4.7 2.3 2.2 2.3 3.8 0 1.6-1 3.1-2.4 3.9v-7.7z"/><path fill="#FFF" fill-rule="nonzero" d="M101.4 327a4.7 4.7 0 014.1-3.5h.6c.9 0 1.7.3 2.5.7v7.7a5 5 0 01-2.5.6c-2.7 0-4.8-2-4.8-4.5v-1zM108.5 335.2v4.9c-1.7-.1-3.5-.3-5.2-.6-.9-.2-1.8-.4-2.5-.9l.8-.4a44 44 0 017-3z"/><path fill="#FFF" fill-rule="nonzero" d="M105.6 321.9v.7l-.1.7v.2c-2 .3-3.7 1.6-4.2 3.4-.5-.2-1-.3-1.4-.6-.4-.3-.8-.8-.9-1.3l1.3.5.4.1.1-.4a1 1 0 00-.3-.3c-.5-.6-.9-1.2-1-2v-1c.1-.1.2-.3.4-.3.2-.2.6 0 .8.3l.2.8c.2.3.4.6.7.6.2-.5 0-1-.2-1.5s-.4-1-.2-1.6c.1-.5.9-.8 1.3-.5.3.3.2.8.1 1.2 0 .4 0 1 .3 1.1h.2c.2 0 .2-.2.2-.4v-.8c.1-.3.2-.7.5-.8.3 0 .7.2.7.5s0 .6-.2.9c0 .3-.2.6 0 .9v.2c.2 0 .4-.1.4-.3 0-.2 0-.4.2-.5.2-.1.6 0 .7.2zM76.5 337.8a7.6 7.6 0 01.2-8 8.7 8.7 0 017.3-4c3.1 0 5.9 1.6 7.4 4l.1.2a7.6 7.6 0 011.1 4c0 4.4-3.8 8-8.6 8a8.7 8.7 0 01-7.5-4.2zM91 246.9a34.6 34.6 0 001.6 31.8 52 52 0 01-26.5-57.4c.3-.8.6-1.7 1.4-2 1-.4 18.4 13.3 23.5 27.6zM59.5 321.8c.6-.2 1.3-.3 2-.3 4 0 7.3 3 7.3 6.8 0 .7-.1 1.4-.3 2a7.3 7.3 0 01-7 4.8c-4 0-7.2-3-7.2-6.8 0-.5 0-1 .2-1.5a6.8 6.8 0 013.4-4.3l1.6-.7zM55.6 235.1a4.8 4.8 0 015.5 2.3c.3.6.5 1.3.5 2 0 2.5-2.2 4.5-4.8 4.5a5 5 0 01-1.7-.3c-1.8-.6-3-2.3-3-4.2 0-2 1.5-3.7 3.5-4.3zM50.1 344c1-2.2 3.3-3.8 6-3.8 3.6 0 6.5 2.7 6.5 6s-2.9 6-6.5 6c-.8 0-1.6-.1-2.4-.4a6 6 0 01-4-5.6c0-.8.1-1.5.4-2.1z"/><path fill="#DFE3E5" fill-rule="nonzero" d="M54.3 326.8c-.7 0-1.4-.2-1.8-.6-.2-.2-.4-.7 0-.8h.6c.2 0 .5 0 .5-.2l-.2-.4c-.7-.5-1.1-1.3-1.3-2 0-.5 0-.9.2-1.3l.2-.1h.2c.8.2 1 1.3 1.7 1.5h.2c.2 0 .2-.2.1-.3-.1-.6-.6-1.2-.7-1.8l.1-.3h.6l.3.6c0 .2.2.4.5.4v-1c-.1-.5-.2-.8-.1-1.2 0-.4.4-.7.8-.7.4.1.6.6.8 1 0 .4.2.7.3 1.1l.5 1.8c-1.6 1-2.9 2.5-3.3 4.3h-.2z"/><path fill="#FFF" fill-rule="nonzero" d="M53.7 351.8c0 .5 0 1.1-.4 1.6-.2.4-.6.8-1 .7a1 1 0 01-.5-.3c-.4-.5-.4-1.2-.8-1.8l-.2-.2c-.2 0-.4.2-.5.4l-.5 1c-.1.3-.2.6-.4.7-.3.2-.6.3-.9.2l-.3-.5a3 3 0 010-2.2c.2-.3.3-.5.1-.7-.2-.3-.7-.2-1 0l-1 1.6c-.1.2-.3.3-.5.3s-.3-.3-.4-.4c-.3-.7-.2-1.5.2-2.2.3-.7.7-1.3 1.2-1.9l-2.1.8c-.4.1-.8.2-1 0-.2-.2-.2-.5-.2-.7a3 3 0 011.2-2c1-.7 2.6-.8 3.6-1.6-.2-.5-.8-.5-1.1-.8-.3-.3-.3-.8 0-1 .5-.3 1.2-.1 1.6.3.4.3.8.8 1.3 1-.3.6-.4 1.4-.4 2a6 6 0 004 5.7zM45.1 249.3c-1 .6-2.3.9-3.5.9-4 0-7.3-3-7.3-6.8 0-1 .3-2 .8-2.9a7.3 7.3 0 017.4-3.7c3.6.4 6.3 3.2 6.3 6.6 0 2.6-1.5 4.7-3.7 5.9zM36.4 222.5c2.3.8 4 3 4 5.3s-1.5 4.3-3.6 5.2c-.8.3-1.6.4-2.5.4-3.3 0-6-2.5-6-5.6 0-1.5.6-2.8 1.6-3.8a6.2 6.2 0 016.5-1.5zM30 247c-1 1.1-2.5 1.7-4 1.7-3.2 0-5.8-2.3-5.8-5.3v-.4c.3-2.2 2-4 4.1-4.6.5-.2 1-.3 1.6-.3 3.1 0 5.7 2.4 5.7 5.3a5 5 0 01-1.6 3.7z"/><path fill="#C99E62" fill-rule="nonzero" d="M160.3 35.7c-.4-1-.2-2.2 0-3.2l-2.4.7c-1.5.2-3 .1-4.5 0 .3 1.8 1 3.6 2 5.1l.1.3-.3.2-1.2.4.2.4c2-.6 4.6-1.1 7.4-1.5a8 8 0 01-1.3-2.4zM157 46.4c-.4-.3-.6-.7-.7-1.1l-.8-2.2M158.7 45.9v-.3c.2-1.2-.2-2.4-.6-3.6M162.5 41c-.6 0-1.1.2-1.6.3a18 18 0 011 4.5c.2.2.4.3.7.3 1-1.5 0-3.4-.1-5.2z"/><path fill="#C99E62" fill-rule="nonzero" d="M157 42.4l-1.5.6.8 2.3c.1.3.3.8.7 1 .2.2.5.3.7.3.3-1.3-.7-2.8-.8-4.2zM161 47.6c0-.8-.3-1.8-.5-2.4l-.7-2.2c-.1-.4-.3-.9-.3-1.4l-1.4.4c.4 1.2.8 2.4.6 3.6v.3c0 .5.2 1 .6 1.4.4.4 1.1.6 1.6.3z"/><path d="M315 251.8v-.3M313.3 251.3h-.3"/><g transform="translate(3)"><path stroke="#649B80" stroke-width=".5" d="M170 331.5c.3-3.6 2.8-6.9 5.8-9.2 5.4-4 12.8-5.8 19.3-4 .6.2 1.2.4 1.5 1 .2.3 0 .8-.1 1.2a9.8 9.8 0 01-3 3.6c-6 5-13.7 8.2-21.7 9-.7.1-1.5.1-1.8-.4-.4-.6.1-1.3.6-1.8 2.8-2.6 6.5-4 10.1-5.5"/><path stroke="#649B80" stroke-width=".5" d="M174 324.1c-.7-3.2-1-6.5-.2-9.7.7-3.2 2.3-6.3 4.8-8.6 1-.9 2.4-1.7 3.6-1 .7.3 1 1 1.3 1.6 1.6 3.9 1.8 8.2.5 12.2M180 309.2c-.1 3.9-.6 7.7-1.4 11.5M177.8 332c2.6 3.8 7.2 6.4 12 6.8 4.9.4 9.9-1.5 13.1-4.8-4.2-4-10.4-6.1-16.4-5.4M182.2 330.7c3.8 2.6 8.7 3.4 13.5 3.6M201 324.9c.8-2 2.5-3.3 4.3-4.4 4.3-2.7 9.5-4.3 14.7-4.7 3.4-.2 7 .2 9.9 1.8a13.6 13.6 0 01-7.5 7c-3.2 1.5-6.9 2-10.5 2.3-3.7.3-7.7.2-10.7-1.8a37 37 0 0114.7-4.2M211.9 334.9c1-1.3 2.7-2 4.4-2.5 4.3-1.2 8.8-1.5 13.1-.6 4.3 1 8.3 3.2 11 6.5a20 20 0 01-4 1.9c-3.5 1.1-7.4.7-11 .2a28.7 28.7 0 01-8.7-2.4c-1.8-.8-3.5-1.7-4.8-3 4.9-1.4 10.2-.5 15.2.4"/><ellipse cx="201.3" cy="314.8" stroke="#C4505D" stroke-width=".5" rx="3.6" ry="3.3"/><ellipse cx="209.9" cy="313.3" stroke="#C4505D" stroke-width=".5" rx="2.3" ry="2.2"/><ellipse cx="200.5" cy="348.7" stroke="#C4505D" stroke-width=".5" rx="5.2" ry="4.9"/><ellipse cx="186.3" cy="355.2" stroke="#C4505D" stroke-width=".5" rx="5.2" ry="4.9"/><path stroke="#000" stroke-width=".5" d="M184.1 350.8c-.4-.7-.6-1.5-.6-2.2 0-.4 0-.8.4-.8.3 0 .5.4.5.7 0 .2.2.6.5.6.2 0 .4-.2.4-.4v-.6c-.1-.7.2-1.4.7-2 .2 0 .4-.2.6-.1.2 0 .2.1.3.2.4.5.3 1.2 0 1.8l-.2.5c0 .2.2.4.4.4s.3-.2.4-.4c.2-.5.3-1 .6-1.4.4-.4 1-.7 1.4-.3.3.2.4.6.3.9 0 .3-.3.5-.5.8-.1.2-.3.4-.1.6l.6-.1.7-.2c.3.1.5.3.4.6 0 .4-.8.5-.7 1 .3.1.9-.2 1.2 0 .2.1.3.4.2.6l-.6.5-1 .3M205.3 347c.8-.7 1.7-1.5 2.7-1.3.3 0 .6.2.6.4 0 .3-.3.5-.6.5-.3.1-.7.2-.8.5.7.4 1.6.2 2.4.3.6 0 1.1.3 1.5.7.2.2.3.5.3.7 0 .5-.6.7-1 .7s-.8 0-1.2-.2h-.7c-.2.2-.4.4-.4.6 0 .2.3.4.7.5l.8.4c.2.3 0 .8-.5 1-.3.1-.8 0-1.2-.2l-.7-.3c-.2 0-.5.2-.5.4 0 .3.3.4.4.6 0 .4-.4.6-.7.5-.3 0-.6-.3-.9-.5-.3-.2-.8-.3-1.3-.3"/><ellipse cx="136.4" cy="349.9" stroke="#C4505D" stroke-width=".5" rx="5.7" ry="5.3"/><ellipse cx="152.6" cy="355.3" stroke="#C4505D" stroke-width=".5" rx="4.6" ry="4.3"/><path stroke="#000" stroke-width=".5" d="M131.9 346.7a7 7 0 01-1.9-2.2v-.3h.1c.6-.1 1 .6 1.5.8h.3l.2-.3-.2-.4c-.5-.8-.8-1.7-.8-2.6v-.4c.3-.3 1-.1 1 .2.3.4.2.8.3 1.2.1.3.5.7.9.6-.3-.5-.4-1-.5-1.6v-.3c.2-.2.5 0 .6.2v.7c.2.2.4.5.6.3v-1c0-.1 0-.4.2-.4.2-.2.5 0 .6.3.2.4.1.9.2 1.3 0 .1 0 .3.2.4h.3l.2-.3v-1.2c.2-.4.6-.8 1-.7.4 0 .6.3.7.7l-.2 1-.7 2M151 351.5l-.2-1c0-.4 0-.8.2-1l.2-.1c.2 0 .3.2.3.4l.1.6c.2.1.5 0 .6-.2l.3-.6c.2-.6.7-1.1 1.3-1.4h.3l.2.1v.9l-.4.8s-.1.2 0 .2c0 .2.2.1.3 0 .3 0 .5-.3.7-.4.2-.2.5-.4.8-.4.2 0 .5.3.5.5 0 .4-.6.6-.5 1h.7c.4 0 .5.4.4.7-.2.3-.5.4-.8.6l-.5.2"/><path stroke="#649B80" stroke-width=".5" d="M169.4 332.3c.2-1.7-.4-3.4-1.2-5-2-3.7-5.2-6.8-9.1-8.7-4-2-8.4-2.7-12.8-2.5-.3 0-.6 0-.8.2-.3.2-.3.5-.3.8.2 3.1 1.6 6.2 3.7 8.7 2.1 2.5 4.9 4.4 7.9 6 3.7 1.8 8.1 3.2 12.2 2.1.2 0 .5-.1.6-.3.2-.3 0-.7-.1-1a107.8 107.8 0 00-8.4-7.4 7.5 7.5 0 00-2.8-1.4"/><path stroke="#649B80" stroke-width=".5" d="M156.5 317.6c-1.1-4-.8-8 .7-11.8 3.7 2 6.8 5 8.6 8.5a18 18 0 011.5 11.6M149.8 326.7a13 13 0 00-6.5 2.3 28 28 0 00-5 4.5c-.6.6-1.2 1.3-.8 2 .2.4.6.6 1 .7a39.3 39.3 0 0014.2.8 14 14 0 007.8-3.6M142 334.4c3.4-2.4 7.5-3.9 11.7-4.5M138.4 324.1c-2.7 1.8-6 2.5-9.3 3-2 .3-4.2.5-6.2.1-2.4-.4-4.6-1.5-6.6-2.8-1.3-.9-2.7-1.8-3.7-3l-.2-.5c0-.5.4-.7.8-.9a33.8 33.8 0 0117.2-1.5 20 20 0 018 5c.1 0 .2.3.1.4 0 .2-.3.2-.6.2-3.9-.3-7.8-.8-11.7-1.7M98.5 338c.3-1.1 1.4-2 2.5-2.6 3.8-2.4 8-4.3 12.6-5.1 4.5-.9 9.3-.7 13.6 1 1 .4 2.2 1 2.8 2-1 1.7-3 2.7-5 3.5-7.6 3.2-16.3 4.1-24.6 2.6-1-.1-1.8-.3-2.5-.8a43.2 43.2 0 0119-5.7M120.3 333h1.2"/><ellipse cx="103.1" cy="328" stroke="#C4505D" stroke-width=".5" rx="4.8" ry="4.5"/><path stroke="#000" stroke-width=".5" d="M98.5 327l-1.5-.7c-.5-.3-.9-.8-1-1.3l1.3.6h.4c.2 0 .2-.2.2-.3a1 1 0 00-.3-.4c-.5-.6-.9-1.2-1-2v-1l.3-.3c.3-.2.7 0 .8.3.2.2.2.6.3.8 0 .3.3.6.7.6.2-.5 0-1-.2-1.5s-.4-1-.3-1.5c.2-.6 1-.9 1.3-.5.4.3.3.8.2 1.1-.1.5-.1 1 .3 1.1 0 0 .1.1.2 0l.2-.3v-1c0-.2.2-.6.5-.7.3 0 .6.2.7.5 0 .3 0 .6-.2 1-.1.2-.2.5-.1.8l.1.2c.2 0 .3-.1.4-.3 0-.1 0-.3.2-.5.2-.1.5 0 .6.2.2.2.1.4 0 .7v.6"/><path fill="#000" fill-rule="nonzero" d="M278.7 196.6c.1 1.4-.3 3-.6 4.3v1c0 .2.1.3.3.4l.5.2a16.3 16.3 0 004.2 1.4c.7.1 1.4.2 2.1.1 1.5 0 2.9-.5 4-1.4l.1-.3.1-.2v-.1-.1-.2l-.2-.4-.2-1.5v-1.4-1.5l.1 1.5v.7l.1.7.2 1.5.1.3v.2h.1v.4l-.1.1-.2.3v.1a6.2 6.2 0 01-4.1 1.6l-2.3-.1a13.8 13.8 0 01-4.2-1.5l-.5-.2a.8.8 0 01-.4-.5v-1.2l.5-2.2a5 5 0 00.4-2z"/><path fill="#C4505D" fill-rule="nonzero" d="M278.7 198.4c-1.7.5-3.3 1.4-4.5 2.7l-.7 1a1.8 1.8 0 00.6 2.3l1 .7a30 30 0 0015.5 2.3 25 25 0 002.6-.5c.8-.2 1.6-.5 2.2-1.2.3-.3.5-.7.6-1 .1-.5 0-1-.1-1.3-.2-.4-.5-.8-.8-1l-1-.9c-1.5-.9-3.2-1.3-5-1.6l2.7.5c.8.2 1.7.5 2.4 1l1 .8c.4.3.7.7.8 1.1.2.4.3.9.2 1.4 0 .4-.3.8-.6 1.2a5 5 0 01-2.4 1.3 24 24 0 01-7.9.7 29.2 29.2 0 01-11.4-3.3c-.3-.3-.6-.7-.7-1.2a2 2 0 01.1-1.3l.8-1.1a10.4 10.4 0 014.6-2.6z"/><path fill="#000" fill-rule="nonzero" d="M271.5 187.4a4 4 0 00-4 .6c-.5.5-.9 1-1.1 1.7-.3.7-.3 1.3-.2 2a4.8 4.8 0 003.6 3c.8.3 1.7.2 2.4-.2.8-.4 1.4-1 1.8-1.7-.4.7-1 1.4-1.7 1.8-.7.4-1.7.6-2.5.5a5 5 0 01-3.9-3.3c0-.7 0-1.5.3-2.2a4 4 0 011.3-1.8c.5-.4 1.2-.7 2-.8.6 0 1.4 0 2 .4z"/><path fill="#000" fill-rule="nonzero" d="M266.9 191.2c.3-.4.8-.8 1.3-1.1a4 4 0 011.7-.5 4 4 0 013.2 1.1 5.5 5.5 0 00-3.2-.8 4.7 4.7 0 00-3 1.3z"/><path fill="#C99E62" fill-rule="nonzero" d="M267.8 164.3c1.4-2.2 3.5-4 5.9-5.2 2.3-1.3 5-2 7.6-2 5.3-.3 10.6 1.4 14.9 4.5a15 15 0 014.7 6.4 20 20 0 011.3 7.8c0 .7 0 1.3-.2 2v2a3.6 3.6 0 001.8 3 5.1 5.1 0 003.7.7c1.3-.3 2.5-.9 3.5-1.8l.3-.3-.2.4a7.2 7.2 0 01-5.6 4.2 7.6 7.6 0 01-6.5-2.4c.8.9 1.9 1.6 3 2 1.1.3 2.4.4 3.5.2a7.3 7.3 0 005.5-4h.1c-1 1-2.2 1.6-3.5 1.9h-2a5 5 0 01-3.4-2c-.4-.6-.6-1.3-.6-2l.1-2 .2-2c0-2.5-.4-5.2-1.3-7.6a14.3 14.3 0 00-4.6-6.2 21.2 21.2 0 00-7-3.6c-2.4-.8-5-1.2-7.7-1.1a18 18 0 00-7.6 2c-2.3 1.1-4.4 2.9-5.9 5z"/><path fill="#C99E62" fill-rule="nonzero" d="M298.8 186.6a5 5 0 002.8 1.6c1.1.3 2.2.2 3.3 0 1-.3 2-.9 2.9-1.6l1.1-1.1c.3-.5.6-1 .6-1.5a3 3 0 01-.5 1.6 7.2 7.2 0 01-5.7 3.1c-.6 0-1.2 0-1.7-.2a5 5 0 01-1.6-.7l-1.2-1.2z"/><path fill="#C99E62" fill-rule="nonzero" d="M295.8 190.4c.6.3 1.2.4 1.8.5l1.7.2c1.2.1 2.4.1 3.6-.1a7.8 7.8 0 005.2-4.4c-.4 1-1 2.1-2 3a7.1 7.1 0 01-5 1.9l-1.8-.1c-1.2-.2-2.4-.4-3.5-1zM268.8 165.9c.9.4 1.7.8 2.6 1a26.8 26.8 0 008.3 1.7c2 .1 3.8 0 5.7-.2 1 0 1.9-.3 2.8-.6.8-.4 1.7-.9 2.2-1.7-.5.8-1.3 1.4-2.2 1.8-.9.4-1.8.6-2.7.8a21.6 21.6 0 01-5.8.2 28.5 28.5 0 01-11-3zM266.7 165c-2.2 1-4 2.8-5 5-1.1 2.1-1.5 4.6-1.4 7a21.7 21.7 0 003.3 10.3c.6 1 1.4 2 2.2 2.8-.9-.8-1.7-1.8-2.3-2.8a17.7 17.7 0 01-3-6.7 20.5 20.5 0 01-.3-7.3c.3-1.2.6-2.4 1.2-3.5s1.3-2.1 2.2-3c1-.7 2-1.4 3.1-1.9z"/><path fill="#C99E62" fill-rule="nonzero" d="M265.1 170.4l-.4 1.2-.4 1.2-.3 1.2-.3 1.3a24 24 0 00.5 9.9l.3 1.2.4 1.1.5 1.2.5 1.2-.6-1.2-.5-1-.5-1.3-.4-1.2a22.3 22.3 0 01-.5-10l.3-1.2.4-1.2.4-1.2.6-1.2z"/><path fill="#C99E62" fill-rule="nonzero" d="M267.1 187.9c0-.3-.2-.5-.3-.7l-.3-.7-.2-.7-.3-.8a14.3 14.3 0 01-.1-6l.1-.8.3-.8.2-.7.3-.7-.2.7-.2.8-.2.7-.1.8a19.5 19.5 0 00.2 6l.1.7.2.7.2.8c.2.2.3.4.3.7zM268.4 186.6c-.3-1-.3-2.2-.3-3.3 0-1.1.2-2.2.6-3.3l-.3 3.3v3.3zM269.8 164.8l.8.4.9.3.8.3.9.3a19.8 19.8 0 007.1.9l1-.1h.9l.9-.2.9-.2-.9.3-.9.2-.9.1-.9.1a20.6 20.6 0 01-7.3-.9l-.8-.3-.9-.4-.8-.4a5 5 0 01-.8-.4zM275.8 164.7l3 .2h3c-.9.2-1.9.4-3 .3-1 0-2-.2-3-.5zM284.7 159.5a14.6 14.6 0 017.8 2.7c1.1.8 2.2 1.7 3.2 2.7l1.3 1.6 1.2 1.7-1.3-1.6a31.2 31.2 0 00-4.6-4.1 17.4 17.4 0 00-7.6-3z"/><path fill="#C99E62" fill-rule="nonzero" d="M288.9 162.1a19 19 0 015.2 3.9 18.7 18.7 0 015.3 11.6c.1 1 .3 2 .7 3 .4 1 1 2 1.8 2.6-.9-.6-1.5-1.5-2-2.5-.4-1-.6-2-.8-3.1l-.2-1.6-.2-.8c0-.3 0-.5-.2-.8a20 20 0 00-4.7-8.3 21.2 21.2 0 00-5-4z"/><path fill="#000" fill-rule="nonzero" d="M273.5 193.4a19.6 19.6 0 0012.5 4.1 13 13 0 003.2-.6l.8-.2.7-.4 1.4-1c1.7-1.4 2.9-3.4 3.8-5.4a18.4 18.4 0 00.6-13c-.6-2.1-1.7-4.2-3-6a21.2 21.2 0 01.1 0 20 20 0 013.2 5.9 19.7 19.7 0 01-2.2 16.3c-.7.9-1.4 1.8-2.3 2.5a7 7 0 01-1.4 1c-.3 0-.5.2-.8.3l-.8.3c-1 .4-2.2.6-3.3.6-2.3 0-4.5-.4-6.7-1-2-.7-4.2-1.8-5.8-3.4z"/><path fill="#000" fill-rule="nonzero" d="M287 171.7a9.4 9.4 0 002.9 4.8 10.8 10.8 0 004.9 2.5v.2a2.8 2.8 0 01-2.3 2.8h-1.2c.8.1 1.7-.2 2.3-.7.7-.5 1-1.3 1-2.1l.1.1a10.3 10.3 0 01-6.8-5 8 8 0 01-1-2.6z"/><path fill="#000" fill-rule="nonzero" d="M293 181.7c0 .5.3 1 .7 1.2l.3.3.2.3.2.4-.1.3c-.2.5-.5 1-.9 1.3l-1.2.9a10.3 10.3 0 01-5.9.5h3c1-.2 1.9-.4 2.7-.8 1-.4 1.7-1 2-2 .2-.1.2-.4 0-.5 0-.1 0-.2-.2-.3l-.2-.2-.5-.6-.1-.8z"/><path fill="#000" fill-rule="nonzero" d="M286.5 185.7c.1.5 0 1-.2 1.3-.2.5-.4.8-.8 1l.6-1 .4-1.3zM290.3 189c.8.3 1.6.3 2.4 0 .8-.1 1.5-.6 2-1.3a3 3 0 01-1.9 1.7c-.9.2-1.8.1-2.5-.3zM275.3 181.7l.1-1 .5-1c.3-.5 1-1 1.6-1.2.6-.2 1.3-.3 2-.2l1.9.7c-.7-.2-1.3-.4-2-.4a3.8 3.8 0 00-3.4 1.3 4 4 0 00-.7 1.8zM289.4 175c0-.5.2-1 .5-1.5s.7-.9 1.2-1.1a3.3 3.3 0 012.5-.2c.2.1.5.3.6.6-.1-.3-.4-.4-.6-.4l-.8-.1c-.6 0-1 .1-1.5.4-1 .4-1.7 1.3-2 2.4zM273.2 177.5a4 4 0 01.8-1.8c.4-.5 1-1 1.5-1.2a5 5 0 013.7-.5h-1.8a5.7 5.7 0 00-4.2 3.5zM288 170.2c.4-.7 1.1-1.2 2-1.5l1.2-.2h.6l.3.1.2.1c0 .1-.1.2-.2 0 0 .1.1 0 .1 0h-1a7 7 0 00-1.2.3c-.8.3-1.5.7-2 1.2z"/><path fill="#C99E62" fill-rule="nonzero" d="M269.2 164.2c-1.5 0-3 .2-4.3.8-1.3.6-2.5 1.5-3.5 2.5-2 2.2-3 5-3 8-.3 2.8.4 5.7 1.8 8.3 1.4 2.6 3.4 4.8 5.8 6.4a16.8 16.8 0 01-6-6.3 16 16 0 01-2-8.5c0-1.5.4-3 1-4.3a10.6 10.6 0 016-6.2c1.2-.6 2.7-.8 4.2-.7zM269 166c.7.7 1.2 1.5 1.5 2.3.4.9.6 1.8.8 2.6a31 31 0 01.3 13.6c-.3.8-.7 1.7-1.2 2.4.5-.7.8-1.6 1-2.5l.4-2.7a38.5 38.5 0 00-1.4-13.3c-.3-.9-.7-1.7-1.3-2.4z"/><path fill="#000" fill-rule="nonzero" d="M140 11.8c0-1 .2-1.9.7-2.7l1-1c.4-.3.9-.4 1.4-.4.5 0 1 0 1.4.3l1.2 1c.6.8.8 1.8.8 2.8 0 1-.2 2-.8 2.7-.3.4-.7.8-1.2 1-.4.3-1 .4-1.4.4a3 3 0 01-1.4-.5c-.4-.2-.7-.6-1-1-.5-.8-.7-1.7-.7-2.6zm0 0c0 .9.2 1.8.8 2.5.5.8 1.4 1.3 2.3 1.2.9 0 1.6-.6 2-1.3.6-.7.8-1.6.8-2.5 0-.8-.2-1.7-.7-2.4a2.7 2.7 0 00-2.1-1.4c-1 0-1.8.5-2.3 1.2-.6.8-.8 1.7-.8 2.7z"/><path fill="#000" fill-rule="nonzero" d="M146 9.8c0-.7.2-1.4.5-2l.7-.9c.3-.2.7-.3 1-.3.5 0 .9 0 1.2.2l.8.8c.5.7.7 1.4.7 2.2 0 .8-.2 1.5-.7 2.2l-.8.8a2 2 0 01-1.2.2 2 2 0 01-1-.3l-.7-.8c-.3-.7-.5-1.4-.5-2.1zm0 0c0 .7.2 1.4.6 2a2 2 0 001.7.9 2 2 0 001.5-1c.3-.6.5-1.2.5-1.9s-.2-1.3-.5-1.9c-.3-.5-.9-1-1.5-1-.3 0-.7 0-1 .2l-.7.7c-.4.6-.6 1.3-.6 2z"/><path fill="#FFF" fill-rule="nonzero" d="M147.3 13.5a9.8 9.8 0 012.6-1.2c1-.2 1.9-.3 2.9-.2 1 0 1.9.3 2.8.7l1.2.8c.3.4.6.8.7 1.3l.1.3-.2-.1c-1-.3-2-.6-3-.7-.5 0-1 .1-1.4.3l-1.3.7c-.9.5-1.8 1-2.8 1.2-.5.1-1 0-1.5-.1a2 2 0 01-1.1-1c.2.4.7.7 1.2.9h1.4c1-.2 1.9-.8 2.7-1.3l1.4-.7c.4-.2 1-.3 1.5-.3 1 0 2 .4 3 .7l-.2.1c0-.4-.3-.8-.6-1.1l-1.2-.8a9.3 9.3 0 00-6.9-.2l-1.3.7z"/><path d="M143.8 15.4c-.3.7.2 1.5.7 2a6 6 0 003.2 1.8h2.2c1.4 0 2.9-.5 3.5-1.6-1.3 0-2.7-.5-3.6-1.3"/><path fill="#FFF" fill-rule="nonzero" d="M151.7 12.3a14.8 14.8 0 017.4-10 7 7 0 011.6-.6h.8c.4 0 .7 0 1 .3.2.2.3.6.3.9v.9l-.5 1.5c-.9 2-2.2 3.7-3.7 5.4l-.5-.5 1.3-1.2.7-.4.8-.4h1c.3.2.6.3.8.6l.5.8v1c0 .6-.3 1.1-.7 1.6l-1.1 1.3-2.6 2-.3-.4 1.5-.8.9-.1h.2l.3.1.3.5c0 .6 0 1.2-.3 1.7-.2.6-.6 1-1 1.5a13.1 13.1 0 01-5.5 3.6c1-.4 2-1 3-1.6.8-.6 1.7-1.3 2.3-2.2.4-.5.7-.9.8-1.4.2-.5.3-1 .3-1.6l-.1-.2h-.3a4.5 4.5 0 00-2.2.9l-.3-.4c1-.7 1.8-1.3 2.5-2 .4-.4.8-.8 1-1.2.4-.5.6-1 .7-1.4v-.7l-.4-.6-.6-.3a1 1 0 00-.6 0 3 3 0 00-.7.2 8 8 0 00-1.8 1.6l-.5-.5c1.4-1.5 2.8-3.2 3.6-5l.4-1.5c.1-.5.1-1-.1-1.3-.3-.3-.8-.2-1.3-.1a6 6 0 00-1.4.4 13.3 13.3 0 00-4.8 4 17.4 17.4 0 00-2.7 5.6zM144.4 17.4c-3-.8-6.4-.6-9.5 0-1.6.3-3.1.7-4.6 1.2-1.5.4-3 1-4.4 1.8a10.4 10.4 0 00-3.4 3.2 3 3 0 00-.4 1v.5l.2.2h1a128.9 128.9 0 0110-3.8l.3.5c-1.7 1-3.6 2-5 3.3-.8.7-1.5 1.4-2 2.2-.3.5-.6.9-.7 1.4-.2.4-.3.9 0 1.2.1.3.5.4 1 .3l1.3-.6 2.5-1.7 5-3.6.4.4c-1 .8-1.7 1.6-2.4 2.6-.4.5-.7 1-.8 1.5 0 .2 0 .4.2.6l.7.2.9-.2.8-.3 1.4-1c1-.7 1.7-1.6 2.4-2.6l.3.2c-.5.7-1 1.5-1.3 2.3l-.3.7-.1.6c0 .2.2.3.4.4l.6.2c.5 0 .9 0 1.3-.2l1.3-.5c.8-.4 1.5-1 2.1-1.6a7.4 7.4 0 01-3.3 2.2 4 4 0 01-1.4.2l-.7-.1a.9.9 0 01-.5-.6l.1-.7.3-.7c.3-.8.7-1.6 1.3-2.4l.2.2c-.7 1-1.5 1.9-2.4 2.7a6 6 0 01-3.3 1.6c-.3 0-.7 0-1-.3a1 1 0 01-.3-.4v-.6c0-.7.4-1.2.7-1.7.7-1 1.5-1.9 2.5-2.7l.3.5-5 3.6c-.8.6-1.6 1.3-2.6 1.8a13.8 13.8 0 01-1.4.6c-.3.1-.6.2-1 0-.3 0-.6-.3-.7-.5-.2-.3-.3-.6-.2-1 0-.2 0-.5.2-.8a10.8 10.8 0 012.8-3.8c1.6-1.4 3.4-2.4 5.2-3.3l.3.5a134.6 134.6 0 00-10.2 3.8H122.2a.8.8 0 01-.4-.3l-.2-.4v-.7l.6-1.2c.4-.7 1-1.3 1.6-1.8.6-.6 1.3-1 2-1.5 1.4-.8 3-1.3 4.5-1.8a48.3 48.3 0 019.5-1.5 20 20 0 014.6.7z"/><path d="M143.7 24c-.8 2.5-.3 5.3.9 7.6a21 21 0 005.3 6c-.9.7-1.7 1.4-2.2 2.3a35 35 0 004.8-1.3l-.1-.3c-1-1.6-1.7-3.3-2-5.2 1.5.2 3 .3 4.5 0a14 14 0 004.3-1.7 10 10 0 01-2.9-4.3v-1c0-.2.3-.5.6-.5.5 0 .7.3 1 .7l1 1.7c-.1-1-.1-2 .2-2.8.4-.9 1.1-1.7 2.1-1.8h.5c.3.1.3.3.3.6.2 1.2-.5 2.4-1 3.5a3.8 3.8 0 012.4-2.7h.8l.3.5c0 .7-.4 1.3-.9 1.8l-2 1.9c-.6.6-1 1.5-1 2.3 0 .4.2 1-.2 1.2-.3.1-.6 0-.8-.2-.3-.1-.4-.4-.5-.7"/><path fill="#FFF" fill-rule="nonzero" d="M157.6 20.3l.8 1a6.5 6.5 0 011 2.3V25l-.6-1.1-.4-1.2-.4-1.1-.4-1.2zM157.6 32.5l.7 1.3.7 1.3.5 1.3.2 1.6-.7-1.4-.6-1.3-.5-1.4-.3-1.4z"/><path fill="#4F91C3" fill-rule="nonzero" d="M149.3 44.5c2-1.3 4.2-2.3 6.5-3a55.3 55.3 0 0121.5-1.2h-7.2A77.1 77.1 0 00156 42a38 38 0 00-6.6 2.5z"/><path fill="#4D866D" fill-rule="nonzero" d="M256.8 317.2c.3-3.8 1.3-7.4 2.9-10.8a34.7 34.7 0 0110.6-12.8 41.2 41.2 0 019.7-5.6l2.6-1 2.6-1a59.2 59.2 0 0120.7-2.2c.5 0 1 0 1.4.2l.7.4.6.6c.2.5.2 1 .2 1.5l-.1 1.4-.2 1.4-.3 1.4c0 .5-.2 1-.3 1.4l-.2.7-.2.6-.4 1.4-1.1 2.5-.7 1.3-.7 1.2a40.1 40.1 0 01-11.5 12.2l-1 .8-1.3.7-2.4 1.4a63.6 63.6 0 01-15.9 5.5l-1.4.2-1.4.2-2.7.4-5.6.5-2.8.1H257l-.7-.4a1 1 0 01-.4-.7c0-.3 0-.5.2-.8l.2-.6.7-1.3c.4-.8 1-1.6 1.5-2.3a78 78 0 0127.7-18.4 80.6 80.6 0 00-27.4 18.6l-1.5 2.3-.6 1.3-.3 1.2c0 .2 0 .3.2.4.1.2.3.2.5.3h1.4l2.7-.1a71.4 71.4 0 0026.7-7c.8-.3 1.6-.8 2.4-1.3l1.2-.7 1.1-.7a39.6 39.6 0 0011.3-12l.6-1.2c.3-.4.5-.8.6-1.3.5-.8.8-1.6 1.2-2.5l.4-1.3.2-.6.2-.7.3-1.3.2-1.4.2-1.3.2-1.4c0-.4 0-.9-.2-1.2-.2-.4-.5-.6-1-.7l-1.2-.3a19.8 19.8 0 00-4.1-.3 54 54 0 00-16.4 2.6l-2.7.8-2.6 1a43 43 0 00-13.7 9.2 30.2 30.2 0 00-9.3 19.5z"/><path fill="#4D866D" fill-rule="nonzero" d="M263.3 300.9a30.5 30.5 0 01-2.5-6c-.5-2-.8-4.2-1-6.3A43.6 43.6 0 01266 264c2.2-3.7 4.8-7.2 7.8-10.3l1.2-1c.3-.5.7-.8 1.2-1.2l1.2-1 .6-.6.6-.5 1.3-1 1.5-.8c.2-.2.5-.2.8-.3h1c.5.2 1 .6 1.4.9 1.7 1.5 3 3.3 3.8 5.3l1.1 3 .5 1.6.2.8.2.7a54.6 54.6 0 01-.1 25.5 55.8 55.8 0 00-2.4-31.4c-.8-2-2-3.7-3.6-5a3 3 0 00-1.3-.8 2 2 0 00-1.4.2l-1.3.8-1.2 1-.6.5c-.3.1-.5.3-.6.5l-1.2 1-1.2 1.1-1.1 1.1a49.6 49.6 0 00-14.1 34.5 30.6 30.6 0 003 12.4z"/><path fill="#4D866D" fill-rule="nonzero" d="M279 261.8a65.7 65.7 0 01-9.4 29.4c-1.8 3-3.8 5.8-6 8.5a97 97 0 0013.3-27.8c.9-3.3 1.6-6.7 2.2-10.1zM250 276.2a31.9 31.9 0 01-11.3-21.3 30.8 30.8 0 013.3-18l1.8-2.5 1.2-1 1.3-1h.3l.1.2c2.1 3.3 4 6.7 5.6 10.3a45 45 0 013.3 11.2c.5 3.9.5 7.8-.3 11.7a26 26 0 01-5 10.6l-.2.3v-.4a38 38 0 01-3-22.3 38.9 38.9 0 003.3 22.2h-.4c2.4-3.1 4-6.8 4.7-10.5.8-3.8.9-7.7.3-11.5-.6-3.8-1.8-7.5-3.3-11-1.5-3.6-3.4-7-5.4-10.3l.4.1c-1.8 1-3.1 2.5-4 4.3-1 1.8-1.8 3.6-2.4 5.6l-.2.7-.2.7-.3 1.5-.3 1.5-.1 1.5a32.7 32.7 0 0010.8 27.4z"/><path fill="#4D866D" fill-rule="nonzero" d="M252.9 244.2a34.7 34.7 0 0110.3-14.1 40 40 0 0115.5-8.3h.4v.3c1 4.5 1 9.2.1 13.8a41.6 41.6 0 01-13.4 23.8 55 55 0 01-5.5 4.2 54.4 54.4 0 0013.6-15.3 39.7 39.7 0 004.6-26.4l.4.2a39.9 39.9 0 00-26 21.8z"/><path fill="#4D866D" fill-rule="nonzero" d="M256 253.5a91.3 91.3 0 0014.4-16.7l2-3.2 2-3c-.6 1-1.2 2-1.7 3.2l-1.8 3.3a58.7 58.7 0 01-15 16.4zM291.5 273a200.5 200.5 0 0122-11.3l3.9-1.6 3.7-1.7-3.6 2-3.7 1.8-7.4 3.6-7.5 3.5c-2.4 1.3-4.9 2.4-7.4 3.6zM288.3 314.2c-.1 1.7.2 3.4.8 5 .6 1.6 1.5 3.1 2.5 4.5s2.2 2.6 3.4 3.8a66.4 66.4 0 0012.3 9.3c3 1.6 6.3 2.7 9.7 3.2l-.4.3a77 77 0 00-1.6-15l-1.6-4.8-.3-.6-.3-.6-.5-1.1-.6-1.1-.7-1c-.9-1.5-2-2.8-3.1-4a72.8 72.8 0 00-7.5-6.9 66.9 66.9 0 019.5 8.6l1.5 2 .7 1 .6 1.2.6 1.1.3.6.3.6.5 1.1.4 1.2.8 2.5 1 5c.5 3.4.7 6.8.7 10.2v.3h-.4c-3.4-.5-6.8-1.7-9.8-3.3a46.9 46.9 0 01-12.3-9.5 31.2 31.2 0 01-3.5-3.9c-1-1.4-1.8-3-2.3-4.6a13 13 0 01-.7-5.1z"/><path fill="#4D866D" fill-rule="nonzero" d="M295.3 310a29.9 29.9 0 017.2 7.2 34.5 34.5 0 014.7 9 75.5 75.5 0 00-5.2-8.6 63.7 63.7 0 00-6.7-7.6zM244.7 359.3c-2 .3-3.8 1.5-5 3.1a13.2 13.2 0 00-2.1 5.6c-.7 4-.3 8 .9 11.9a34.2 34.2 0 009.4 15l1.1 1 1.2 1 1.2 1 .6.4.3.2.3.2h.2l.4-.7.8-1.2.7-1.3.7-1.4a33 33 0 001.8-5.7c.9-3.9 1.2-8 1.2-12a17.8 17.8 0 00-3.8-11.1c-1.3-1.5-2.8-2.9-4.3-4.2a9.3 9.3 0 00-2.6-1.4c-1-.4-2-.6-3-.4zm0 0c1-.2 2 0 3 .3s1.8.8 2.6 1.4c1.6 1.3 3 2.7 4.3 4.3 1.3 1.6 2.4 3.3 3.1 5.2.7 1.9 1 4 1 6 0 4-.1 8-1 12-.4 2-1 4-1.8 5.8l-.6 1.4-.8 1.4-.8 1.3-.4.6-.2.2-.3.2c-.3 0-.5 0-.6-.2l-.3-.2-.3-.2-.7-.4-1.2-1-1.1-1A35.4 35.4 0 01238 380c-1-3.9-1.4-8-.7-12 .4-2 1-4 2.3-5.6a8 8 0 015-3.1z"/><path fill="#4D866D" fill-rule="nonzero" d="M244.8 359.1a38.6 38.6 0 013.5 10c.4 1.6.7 3.4.8 5.1.2 1.8.3 3.5.2 5.3a98 98 0 00-4.5-20.4zM252.1 362.1a18 18 0 01.1-12.7l.2-.5c0-.2.1-.3.3-.5l.6-.2h.5c.4 0 .7 0 1 .2 1.3.3 2.5 1 3.6 1.7l.9.6.8.5.8.6.8.7.8.6.7.7 1.4 1.4a34.4 34.4 0 018.7 17.8 40 40 0 01-.7 16v.3l-.3-.1a40.5 40.5 0 01-13.6-10.6 41.2 41.2 0 0013.8 10.1l-.3.2c1.1-5.2 1.4-10.5.6-15.8a34 34 0 00-8.6-17.5l-1.3-1.4-.8-.7-.7-.6c-1-.9-2.1-1.6-3.2-2.4-1.1-.7-2.3-1.4-3.5-1.8a5 5 0 00-1-.2c-.3 0-.6 0-.7.2-.2.1-.4.4-.5.7 0 .4-.2.6-.3 1a18.7 18.7 0 000 11.8z"/><path fill="#4D866D" fill-rule="nonzero" d="M252.9 348a40 40 0 017.1 9.4 55 55 0 014.9 10.8 136.9 136.9 0 00-5.4-10.4 100.1 100.1 0 00-6.6-9.7z"/><path fill="#4F91C3" fill-rule="nonzero" d="M144 44V47c.2 1 .4 2.1.8 3 .5 1 1 1.8 1.9 2.4.8.5 1.8.9 2.8 1.1a67.3 67.3 0 0012.5 2.2 43 43 0 01-12.7-1.5 9 9 0 01-3-1.3 6 6 0 01-2-2.7c-.3-1-.5-2-.5-3.1s0-2.2.2-3.2zM195.8 44.6l.1 1.2v1.3l-.1 1.2a8.6 8.6 0 01-1.4 3.5 7 7 0 01-2 1.7c-1.4 1-3 1.3-4.7 1.7-1.6.2-3.2.4-4.8.8 1.5-.6 3.2-1 4.7-1.3l2.4-.7c.7-.2 1.5-.6 2.2-1a6.8 6.8 0 002.9-3.6 14.9 14.9 0 00.7-3.5v-1.3z"/><path d="M291.6 195.9a23.4 23.4 0 0116.6 3.8 462 462 0 0132.4 20.4c1.8 1.3 3.7 2.8 4 4.8.2 2.1-.3 4.5-2 5.9-8.8 6.9-22.3 8-32 2.6"/><path fill="#C4505D" fill-rule="nonzero" stroke="#C4505D" stroke-width=".5" d="M293.3 243.2c0-1.7.8-3.4 2.1-4.6a7.3 7.3 0 0111.4 2c.4.8.6 1.7.6 2.6a6.4 6.4 0 01-2.2 4.8 7.3 7.3 0 01-9.8-.1 6.3 6.3 0 01-2-4.7zm0 0a6.3 6.3 0 002.1 4.6 7 7 0 009.4-.1 6 6 0 000-8.8 7 7 0 00-9.3-.2c-.7.6-1.2 1.3-1.6 2-.4.8-.6 1.7-.6 2.5zM281.4 239.5c0-1.3.5-2.5 1.4-3.4a5.4 5.4 0 017.2-.2c.5.5 1 1 1.2 1.6a4.7 4.7 0 010 4 5 5 0 01-1.2 1.5 5.4 5.4 0 01-7.2-.2c-.9-.8-1.4-2-1.4-3.3zm0 0c0 .6.1 1.3.4 1.8a4.8 4.8 0 004.5 2.7 5 5 0 003.3-1.4c.9-.8 1.4-2 1.4-3.1 0-1.2-.5-2.3-1.4-3.1a5 5 0 00-6.7-.2 4.3 4.3 0 00-1.5 3.3zM316 235.7c-.7.3-1.3.7-1.8 1.1a5.8 5.8 0 00-1.7 3.6v1.6l.2.5c.3 1.3 1 2.5 1.9 3.4.5.5 1 .9 1.6 1.1l1 .3 1 .2c.6.2 1.2.1 1.9.1a7 7 0 002-.5 6.5 6.5 0 003-2.5 9 9 0 00.8-1.8l.4-2v-2c-.2-.7-.4-1.4-1-1.9.6.5 1 1.1 1.1 1.8.2.7.3 1.4.2 2.1l-.3 2.1c-.2.7-.4 1.4-.8 2a7.4 7.4 0 01-7.5 3.3l-1-.3c-.4 0-.7-.2-1-.3-.7-.3-1.3-.7-1.8-1.3-1-1-1.7-2.3-2-3.7v-.6l-.1-.5v-1l.7-2.1a4.8 4.8 0 013.2-2.7z"/><path fill="#FFF" fill-rule="nonzero" d="M312.8 224.1a81.4 81.4 0 0112.2-2.3c2.1 0 4.2 0 6.3.4 2.1.3 4.1 1 6 2-2-.8-4-1.3-6-1.5a58.7 58.7 0 00-12.4.5l-6.1 1z"/><path fill="#4D866D" fill-rule="nonzero" d="M306.1 223.5a61 61 0 01-8.8-5.3l-1.4-1-1.3-1c-.4-.3-1-.5-1.4-.4a33.4 33.4 0 00-4.3 2.5c-.4.3-.9.6-1.2 1l-.7 1.5c-.1.5-.2 1.1-.1 1.6 0 .6 0 1.2.2 1.7-.4-1-.5-2.2-.4-3.4.1-.6.4-1.1.7-1.6.4-.5.8-1 1.3-1.3a24.8 24.8 0 013.5-2.4l1-.3h.9l.8.4 1.4 1 1.4 1c.9.8 1.8 1.4 2.7 2a121 121 0 005.7 4z"/><path fill="#4D866D" fill-rule="nonzero" d="M293.2 216.7l-2.4 2.4a84 84 0 00-2.2 2.5c-.7.8-1.3 1.8-1.3 2.8 0 1.1.5 2.1 1 3.2a7.5 7.5 0 01-1.5-3.1c0-.6 0-1.3.3-1.8l1-1.5a29.4 29.4 0 015.1-4.5zM294 221.5l-.8 1-.7 1-1.6 1.8c-.2.3-.2.8-.3 1.3a10.7 10.7 0 000 2.8c0 .4.4.7.7 1 .4.1.8.3 1.2.2l.6-.1c.2 0 .3-.2.4-.3.1-.3 0-.7-.2-1v-.2h-.1v-.1c-.2-.2-.2-.4-.2-.5l.1-.9a4.6 4.6 0 01.6-1l.3-.3c.6-.4 1.2-.3 1.7-.1h.3l.4.3.6.5 1.1.9c1.6 1 3.3 2 5.2 2.5a16 16 0 01-6.6-3l-.6-.4-.2-.2-.4-.1c-.3-.1-.8 0-1 .1-.2 0-.3.3-.4.5l-.3.6-.2.6v.1h.1v.2l.2.1.3.8-.1 1-.2.1c0 .1 0 .2-.2.2l-.4.2-.8.2c-.5 0-1-.1-1.5-.4l-.6-.6-.3-.4v-.4c-.2-.5-.2-1-.1-1.5l.1-1.5c.1-.5.2-1 .5-1.4v-.1l1.6-1.8.9-.9.9-.8z"/><path fill="#000" fill-rule="nonzero" d="M307.6 222.9c-.4-.5-.7-1-.9-1.6-.1-.5-.2-1.2 0-1.8v-.4c0-.2.1-.3.3-.5H307.6l.4.4c.4.4.7 1 1 1.5l-.4.1v-2.8a5.2 5.2 0 01.9-2c.1-.1.3-.4.6-.5h.5c.2 0 .4.2.4.3l.2.3.1.4a6.7 6.7 0 010 4.2l-1 2.7.4-2.8a4.5 4.5 0 011.4-2.8l.6-.4c.2 0 .5 0 .7.3l.3.6v.6l-.4 1c-.2.7-.5 1.3-1 1.8l-.3-.2c.2-.5.6-.8 1-1 .5-.3 1-.4 1.5-.4h.2v.2a6.9 6.9 0 01-2.2 4c.5-.6.9-1.2 1.2-2 .3-.6.5-1.3.6-2l.1.2c-.8 0-1.7.4-2 1.2l-.5-.3a7.4 7.4 0 001.1-2.6l-.1-.7c-.1 0-.3 0-.5.2l-.6.7a4 4 0 00-.6 1.7l-.6-.1a5.7 5.7 0 000-3.8v-.3l-.2-.3-.1-.1h-.1l-.4.4-.3.5-.4 1.2c-.2.9-.2 1.8-.2 2.7v1.3l-.4-1.2c-.2-.5-.5-1-.9-1.4l-.3-.4h-.2l-.1.3-.1.4c-.2.5-.2 1.1 0 1.7 0 .5.3 1 .7 1.5z"/><path fill="#29ABE2" fill-rule="nonzero" d="M285.9 210.6l.2-.2h.2l.4-.2.9-.1 1.8-.2 3.6-.3h3.6l1.9.2.9.1.5.1.2.1.2.1.1.4-.1.3-.2.1-.2.1-.5.1-1 .1-1.8.2H293l-3.6-.2-1.8-.2a8.6 8.6 0 01-1.3-.3l-.2-.1-.2-.1zm0 0l.2.1.2.1.4.1.9.2h1.8a68.3 68.3 0 007.2-.1l1.7-.2.9-.2h.4l.2-.1v.2h-.2l-.4-.1-.9-.2-1.7-.2-3.6-.2h-3.6l-1.8.1-.9.1-.4.1-.2.1-.2.2z"/><path fill="#29ABE2" fill-rule="nonzero" d="M300.3 210.5l.2 2.3.1 2.4v2.3c0 .8-.1 1.5-.3 2.3l-.3-2.3v-2.3-2.4c0-.8.1-1.5.3-2.3zM286 210.4l.5 3.2a51.7 51.7 0 01.5 6.4v3.2l-.5-3.2-.4-3.2a53.9 53.9 0 01-.2-6.4zM293.3 228.6l1.2-.1 1.2-.1 1.1-.2 1.2-.3-1 .8a4 4 0 01-2.5.3c-.4 0-.8-.2-1.2-.4z"/><path fill="#4D866D" fill-rule="nonzero" d="M292.1 219.9l-1.5 2.5-.8 1.2-.7 1.3-.5 1.3v1.4c.3.9 1 1.7 2 1.9l-.8-.1a2.8 2.8 0 01-1.6-1.7c-.3-.5-.3-1-.2-1.6 0-.5.3-1 .5-1.5a17.6 17.6 0 013.6-4.7z"/><path fill="#C4505D" fill-rule="nonzero" stroke="#C4505D" stroke-width=".5" d="M302.8 228.3c0-1.4.6-2.9 1.7-3.9a6.2 6.2 0 018.2-.1c.6.5 1 1.1 1.4 1.8.3.7.5 1.5.5 2.3 0 .8-.2 1.5-.5 2.2-.3.7-.8 1.4-1.4 1.9a6.3 6.3 0 01-4.2 1.4c-1.5 0-3-.6-4-1.6s-1.8-2.5-1.7-4zm0 0c0 .8.1 1.5.4 2.1.3.7.8 1.3 1.4 1.8a6 6 0 004 1.4c1.3 0 2.7-.6 3.7-1.6s1.7-2.3 1.7-3.7a5 5 0 00-1.7-3.6 6 6 0 00-3.8-1.6 5.5 5.5 0 00-5.3 3.1c-.3.7-.4 1.4-.4 2.1z"/><path fill="#000" fill-rule="nonzero" d="M284 235.4c-.5-.7-.8-1.6-1-2.5v-.3l.3-.4c.1 0 .3-.1.4 0l.4.1.2.3.2.3c0 .2.2.3.3.3l-.3.3a5.3 5.3 0 01.1-3l.3-.5.5-.3c.2-.1.6-.1.8 0l.3.6.2.5v.5c.1.6.2 1.3.1 2h-.7c0-.6.2-1.1.5-1.6 0-.2.2-.4.4-.6.2-.1.5-.3.8-.3h.5l.4.5v.8c0 .5-.3 1-.6 1.4l-.4-.3c.3-.5.8-1 1.3-1.2l.4-.2.5-.2.3.1.2.3.1.5c0 .6-.3 1.2-.6 1.7l-1.3 1.2 1.1-1.3c.3-.5.5-1 .4-1.5v-.4l-.2-.1-.3.1-.4.2-1.1 1.1-.5-.2c.2-.4.4-.8.4-1.2v-.6h-.2l-.4.1-.4.5-.3 1.2h-.7a7.1 7.1 0 00-.1-2.3l-.1-.5c0-.1 0-.2-.2-.2h-.1l-.3.1-.2.3-.2.9a5 5 0 000 1.8l.1.4-.4-.2-.3-.2-.2-.3-.2-.3-.1-.2c-.1-.2-.3-.2-.4-.2v.5c0 .9.3 1.7.7 2.5z"/><path fill="#4D866D" fill-rule="nonzero" d="M286 244a33.9 33.9 0 011.3 4.9l.5 2.4.4 2.4-1-2.3-.5-2.4-.5-2.5c0-.8-.2-1.6-.1-2.5zM290.9 263a51.7 51.7 0 015.3-10.4l2.2-3.2-1.8 3.5-1.8 3.4c-.6 1.1-1.2 2.3-2 3.4-.5 1.1-1.2 2.2-2 3.3zM306 233.4a8 8 0 01-.9 2.4l-.6 1a8 8 0 01-.9 1l.4-1.2.6-1.1c.1-.4.4-.8.6-1 .2-.5.5-.8.8-1z"/><path fill="#000" fill-rule="nonzero" d="M297.5 237.3l-.9-1-.4-.5-.3-.6v-.4c0-.1 0-.3.2-.3.1-.1.3-.2.4-.1l.4.2.9 1-.4.2-.5-1.9v-1c0-.3.1-.7.4-1 .2-.2.4-.3.7-.3l.6.3.5 1c.2.6.3 1.3.3 2h-.6l.1-1.7.4-.9.4-.3a.9.9 0 011.2.2l.2.5v.8l-.1 1.7h-.6a2.6 2.6 0 011.1-2c.2-.2.4-.4.8-.3.1 0 .4 0 .5.2v1.2c0 .5-.2 1-.5 1.4l-.3-.2.3-.5.6-.3c.2 0 .5 0 .6.3l.1.6c0 .7-.5 1.4-1 1.9.5-.5.8-1.2.8-2l-.1-.4-.4-.1c-.3 0-.5.3-.6.6l-.3-.1a3.3 3.3 0 00.4-1.9v-.2h-.2c-.2 0-.6.3-.8.6-.2.4-.4.8-.4 1.2h-.6l.2-1.6v-.4l-.1-.4-.1-.2h-.2l-.4.2-.2.6c-.2.5-.2 1-.2 1.5h-.6a9 9 0 00-.3-1.7c0-.3-.2-.6-.3-.8h-.3-.2l-.3.7v.9c0 .6.2 1.2.4 1.8l.4 1-.7-.8-.9-1c0-.2-.2-.2-.3-.2l-.2.2v.3c0 .2.2.4.3.5l.3.6c.3.2.5.6.8 1z"/><path fill="#4D866D" fill-rule="nonzero" d="M306.5 245.5c.5-.3 1-.4 1.6-.6a16 16 0 011.7-.4l1.7-.2h1.7l-.1.1h-.3l-.4.2-.8.2-1.7.4a31.4 31.4 0 01-3.4.3z"/><path fill="#000" fill-rule="nonzero" d="M326 241.5c.9 0 1.6.2 2.4.4l2.2.2 1-.2.2-.1-.2-.1-.2-.2c-.6-.4-1.3-.7-2-.8l-.9-.2.8-.4c.7-.4 1.5-.6 2.2-.8a9 9 0 002.1-.6l.2-.1v.1l-.1-.1-.2-.1c-.3-.2-.6-.3-1-.3h-2.3l-.6-.2.6-.2 1.5-.6.7-.5v-.3c0-.2 0-.3-.2-.3.3 0 .4.4.3.7l-.7.5-1.5.8v-.3c.7 0 1.5-.2 2.2-.1.5 0 .9 0 1.3.3l.3.1.2.3v.4l-.1.2-.3.2c-.7.4-1.5.6-2.2.8-.7.2-1.5.3-2 .7l-.1-.6c.8.1 1.5.5 2.2 1l.2.2s.2 0 .3.2v.6l-.4.3-1.2.2c-.8 0-1.6-.2-2.3-.4-.8-.3-1.6-.6-2.3-.7z"/><path fill="#4D866D" fill-rule="nonzero" d="M249.8 276l.3 7.2.2 7.1.2 14.3-.1 14.3-.2 7.2c0 2.4 0 4.7-.2 7.1l-.1-7.1v-7.2l-.1-14.3v-25-3.6zM233.7 348l4-3.7 4.2-3.7 4.1-3.7 2.1-1.8 1-1 .5-.4.3-.3v-.1h.2l.1-.2 2.6.3h-2.6l.1-.1v.1l-.2.2-.2.3-.5.5a29 29 0 01-3 3 121.2 121.2 0 01-4 3.7l-2.2 1.8a58 58 0 01-6.5 5.1z"/><path fill="#4D866D" fill-rule="nonzero" d="M250.1 333.3a32 32 0 012.7-6.8 46 46 0 013.7-6.3l-1.5 3.3-1.6 3.3-1.6 3.3c-.5 1-1 2.1-1.7 3.2zM268.5 335.3a3.5 3.5 0 01-1.2-.4l-.5-.2a2 2 0 01-.6-.5h.7l.7.1.5.4c.2.2.4.4.4.6zM234.7 318.3a49.9 49.9 0 017.5-6.2 74.4 74.4 0 018.1-5.2l-3.8 2.9-4 2.8-3.9 2.9-3.9 2.8z"/><path fill="#C4505D" fill-rule="nonzero" stroke="#C4505D" stroke-width=".5" d="M252.9 334.6c0-1.7.7-3.4 2-4.6a7.3 7.3 0 019.6-.2c.7.6 1.3 1.4 1.6 2.2.4.8.6 1.7.6 2.6 0 1-.2 1.8-.6 2.6-.3.8-1 1.6-1.6 2.2a7.4 7.4 0 01-4.9 1.7 7 7 0 01-4.7-2 6 6 0 01-2-4.5zm0 0c0 .8.1 1.7.5 2.5s1 1.4 1.6 2c1.3 1.1 3 1.7 4.6 1.6 1.7 0 3.3-.7 4.5-1.8a5.9 5.9 0 000-8.7 6.8 6.8 0 00-4.5-1.8 7 7 0 00-4.6 1.6c-.7.6-1.2 1.3-1.6 2-.4.9-.5 1.7-.5 2.6z"/><path fill="#FFF" fill-rule="nonzero" d="M264 330c1.2-2.1 3.2-4 5.5-5.1.3-.2.6-.3.9-.2.4.2.4.7.2 1.1-.6 1.2-2.2 1.7-3 2.8v.5h.3l2.5-.2 1.2.1c.4.2.6.7.3 1l-.4.2-3 .9 2.1 1c.8.3 1.6.6 2.2 1.2 1 .6 1.6 1.5 1.9 2.5v.4l-.5.1c-1-.1-2-.3-3-.7l1.1 3.2c.1.3.2.6 0 .8 0 .2-.3.2-.5.2-.8 0-1.5-.4-2-1-.5-.5-1-1-1.7-1.3.6 1 1 2.1 1 3.3a5 5 0 01-4-3.4"/><path fill="#000" fill-rule="nonzero" d="M264 330a13 13 0 015-5.1l.7-.4h.9l.3.4v.9l-.3.3c-.2.5-.6.8-1 1.1l-1.2.9-.4.5-.1.1h-.1v.2l.1-.1h.4l.7-.1 1.4-.1h.8l.4.1c.2 0 .3.2.5.3l.2.4v.6l-.5.4-.4.1-2.7.8v-.6l2.7 1.3 1.4.8a6.3 6.3 0 012 2.5s0 .2.2.3v.6l-.2.3-.3.1h-.5c-1-.1-2-.4-3-.7l.4-.4.8 2.2.4 1.1c0 .2.2.5 0 .7 0 .2 0 .3-.2.4l-.4.1c-.4.1-.9 0-1.3-.2l-1-.7c-.5-.5-1-1.1-1.7-1.4l.2-.3c.7 1 1 2.2 1 3.4v.2h-.1c-1-.3-1.8-.7-2.5-1.3a4.6 4.6 0 01-1.5-2.3c.3.9.9 1.6 1.6 2.2a5 5 0 002.4 1l-.2.2c0-1.1-.3-2.3-1-3.2l-.4-.5.6.2c.8.4 1.4 1 2 1.5.2.2.5.5.9.6.3.2.6.2 1 .2l.2-.2v-.4l-.5-1-.8-2.2-.3-.6.6.2 3 .6h.3v-.1l-.2-.3c-.2-.5-.4-.9-.8-1.2l-1-1-1.3-.7-2.7-1.3-.7-.3.8-.3 2.7-.7.5-.2-.1-.4-.5-.2h-.7l-1.4.1h-.7l-.4.1h-.2-.3l-.2-.4v-.3l.2-.2.1-.2.6-.5 1.2-.9a4 4 0 001-1l.2-.5c0-.2 0-.4-.2-.5h-.5l-.6.4-1.2.7c-1.7.9-3 2.3-4 4z"/><path fill="#4D866D" fill-rule="nonzero" d="M271 320.5a10.6 10.6 0 01-1.3 3l-.8 1.3-1 1.2c0-.5.3-1 .6-1.5l.7-1.4.8-1.3c.3-.5.5-1 1-1.3z"/><path fill="#C4505D" fill-rule="nonzero" stroke="#C4505D" stroke-width=".5" d="M275.3 327.4c0-1.5.7-3 1.9-4.2a6.6 6.6 0 014.3-1.7c1.6 0 3.3.5 4.5 1.6a5.6 5.6 0 012 4.3 6 6 0 01-2 4.4 6.7 6.7 0 01-8.8-.2 5.6 5.6 0 01-1.9-4.2zm0 0a5.6 5.6 0 002 4.2 6.2 6.2 0 008.4-.2c1-1 1.7-2.4 1.7-4 0-1.4-.7-2.9-1.8-3.9a6.3 6.3 0 00-8.4-.2 5.5 5.5 0 00-1.9 4.1zM276.3 346c0-2.2 1-4.2 2.4-5.6a8.8 8.8 0 0111.5-.2 7.7 7.7 0 012.7 5.7 7.6 7.6 0 01-2.6 5.7 8.5 8.5 0 01-5.9 2c-2.1 0-4.1-.8-5.7-2.2a7.5 7.5 0 01-2.4-5.5zm0 0a7 7 0 002.5 5.3 8.4 8.4 0 0011.1-.1 7.3 7.3 0 002.4-5.3c0-2-.9-3.9-2.4-5.3a8.5 8.5 0 00-11.1-.2c-.8.8-1.4 1.6-1.9 2.5a7 7 0 00-.6 3z"/><path fill="#4D866D" fill-rule="nonzero" d="M269 339.2l1.8 1 1.7 1 .8.5.9.5 1.7 1v.1h.1l.3.2h.2l.2.2h-.2l-.2-.1h-.4v-.1h-.1v-.2.2a11.8 11.8 0 01-2.7-1.2l-.9-.6-.8-.5c-.3-.2-.5-.5-.8-.6-.7-.5-1.2-.9-1.6-1.4zM270.2 331.5l1.4-.7 1.4-.5 1.5-.4 1.5-.2-1.4.7-1.4.5-1.5.4-1.5.2z"/><path fill="#000" fill-rule="nonzero" d="M286 324.2a4.3 4.3 0 011.8-1.5c.2 0 .5-.2.8-.1.2 0 .3 0 .4.2l.2.4c0 .2 0 .4-.2.6l-.3.2-.2.1-.1.3h.3l1.5.4 1.4.8.3.4.2.4v.3l-.1.4-.6.2h-1.2-.5c0 .1 0 0 0 0v.2h.3l.4.2.4.2.6.7.3.8v.4c0 .2 0 .4-.3.6l-.5.1h-.4l-.7-.4-.4-.2-.3-.3-.2.1c0 .2 0 .4.2.5.1.2.4.5.3.8a.5.5 0 01-.7.5c-.3 0-.5-.2-.7-.3l-1.2-1 1.3.8.7.3c.2 0 .4-.1.3-.3v-.3l-.3-.2-.2-.4c0-.1-.2-.3 0-.5 0-.1 0-.3.3-.4h.5a6.3 6.3 0 00.7.4l.6.3h.5v-.1-.3l-.3-.6c0-.2-.2-.4-.4-.5l-.6-.2-.4-.2a.8.8 0 01-.3-.5v-.4l.3-.3h1.2l.7-.1h.2v-.1l-.1-.2-.2-.3c-.3-.3-.7-.5-1.2-.7l-1.3-.4h-.4l-.3-.3v-.3c0-.2 0-.4.2-.5l.1-.1.2-.1.4-.4-.4-.4c-.4 0-.9.2-1.3.4-.5.2-.9.5-1.2.9zM288 352.4l1 2.6c.2.9.7 1.7 1.5 2.1l.6.3h.6c.2 0 .3-.2.3-.3v-.6l-.4-.5-.4-.6-.9-1 .4-.3c.4.4.9.8 1.4 1 .5.2 1.2.3 1.6.2.2 0 .3 0 .4-.2l.1-.2v-.3l-.2-.2-1.4-1.3.5-.4c.6.6 1.5 1 2.4 1 1 .1 1.9-.1 2.6-.7l.3-.4c0-.1 0-.2-.2-.3l-1.2-.5-2.9-1 .2-.5a3 3 0 001.9.2l.9-.3.3-.3c.2 0 .3-.2.3-.3v-.2l-.2-.1-.5-.1-.5-.1-2-.3-1.1-.2 1-.3a7.7 7.7 0 002.1-1c.2 0 .4-.2.5-.4 0-.2 0-.4-.2-.5a1 1 0 00-.6-.3 3 3 0 00-1.4.3h-.2v-.4l.2-.2.4-.5-.1-.4-.5-.1c-.8-.1-1.5 0-2.2.3.6-.4 1.4-.5 2.2-.5.2 0 .4 0 .6.2l.2.3v.3l-.4.5-.2.4h-.1c.4-.3 1-.5 1.5-.5.3 0 .6.2.8.4l.3.3v.5c0 .4-.3.6-.6.7l-.6.5-1.5.6v-.4l2 .2h.5l.6.2c.1 0 .4.1.6.4v.7l-.5.5-.5.3-1 .4c-.7.2-1.5.1-2.2-.2l.2-.6 2.8.9.8.2.7.4c.2 0 .3.2.3.4l.1.6c0 .3-.3.5-.5.7-.9.7-2 1-3 .9-1-.1-2.1-.5-2.9-1.3l.5-.4 1.3 1.2.4.5v.7c-.1.4-.5.6-.8.7h-1.1a4.6 4.6 0 01-2.5-1.5l.3-.3.9 1.1.4.6.3.6c.1.3.2.5.1.8 0 .3-.3.5-.6.6-.5 0-1-.1-1.4-.4a4.2 4.2 0 01-1.6-2.3c-.4-.8-.5-1.7-.8-2.6z"/><path fill="#4D866D" fill-rule="nonzero" d="M273 376.3c1.2 1.3 2.7 2.1 4.3 2.8 1.6.6 3.3 1 5 1.3l1.2.2 1.3.2 1.3.1h1.2c1.7.2 3.4.2 5.2 0 .8 0 1.7 0 2.5-.2l1.3-.1 1.2-.3c1.7-.3 3.4-.6 5-1.1 3.3-1 6.5-2.3 9.5-4l-.2.4c-1.9-3.6-4.7-6.6-8-9-3.3-2.3-7-4-11-5.1-3.8-1-8-1.6-12-1.5-4 0-8.1.6-12.1 1.5 3.9-1 8-1.7 12-1.8A43 43 0 01293 361c4 1 7.8 2.8 11.1 5.1 3.4 2.4 6.3 5.5 8.3 9.2l.1.3-.2.1a44 44 0 01-14.7 5.2l-1.3.2-1.3.1-2.5.2H286.6l-.6-.2h-1.3l-2.6-.5c-1.7-.3-3.4-.8-5-1.5-1.5-.7-3-1.6-4.1-2.9z"/><path fill="#4D866D" fill-rule="nonzero" d="M271.9 367.3a87.5 87.5 0 0112.8.5l1.6.2 1.6.2 1.7.2 1.6.2 6.3 1.2 3.2 1.5-3.3-1.2-6.3-1-3.2-.3-3.2-.4-6.4-.6-6.4-.5z"/><path fill="#C4505D" fill-rule="nonzero" stroke="#C4505D" stroke-width=".5" d="M304 352.2c0-2 1-4 2.5-5.5a8.7 8.7 0 0111.6-.2 7.7 7.7 0 012.6 5.8c0 1-.2 2.2-.7 3.1-.4 1-1.1 1.9-1.9 2.6a8.7 8.7 0 01-11.6-.2 7.9 7.9 0 01-2.4-5.6zm0 0a7.5 7.5 0 002.5 5.5 8.4 8.4 0 0011.2-.2 7 7 0 000-10.5 8.4 8.4 0 00-11.1-.2 8 8 0 00-1.9 2.5c-.4.9-.6 2-.6 3z"/><path fill="#000" fill-rule="nonzero" d="M319.4 348.8a10 10 0 012.4-2.1c1-.6 2-1 3-1.1h.5l.4-.1.9.1s.3.2.3.4l-.1.5a2 2 0 01-.7.6l-1.5.6c-.5.1-1 .4-1.2.7l-.2-.3c.9.1 1.9-.2 3-.1 1 0 2 .3 2.8.9.2.2.5.4.6.8 0 .4-.3.7-.6.9l-.5.1h-.4l-.7-.1c-.5 0-1-.2-1.4-.1-.5 0-.9.2-1 .5l-.3-.5 2 .3c.6.2 1.3.4 1.9.8l.4.3.2.2.2.3v.5l-.6.3h-.5l-1.9-.4.2-.6c1.4.8 2.7 1.8 3.4 3.3v.1l.1.2v.4a.9.9 0 01-1 .6h-.2l-.1-.1-.6-.3-1-.6-.5-.2h-.4c-.3 0-.5.1-.5.3 0 .2.2.3.3.5l.2.5.4 1.2-.1.7-.2.3-.4.2-.7-.2-.5-.4-.9-.8c-.5-.5-1-1-1.8-1.2l.2-.2.4 2.1v1.1c0 .2-.2.4-.4.5a1 1 0 01-.6 0l-1-.7-.7-.8-1.6-1.5 1.7 1.4.8.8c.3.2.5.4.9.5h.5l.3-.3v-.5l-.1-.5-.5-2.1v-.3h.3c.8.3 1.4.9 2 1.4l.8.7c.2 0 .4.2.5.3l.5.1.2-.1v-.5l-.3-1-.3-.5-.3-.6v-.4l.2-.4c.2-.2.5-.3.7-.3h.7l.5.3 1 .6.5.2h.2v.1h.2s.2 0 .2-.2v-.2a7.6 7.6 0 00-3.3-3l-1.8-1 2 .3 1.9.3h.2l.2.1c-.1.1 0 .1-.1 0l-.2-.2-.3-.2c-.5-.4-1.1-.6-1.7-.7-.6-.2-1.2-.2-1.9-.3h-.5l.3-.5.7-.5.8-.2h1.5l.7.2h.6c.2-.1.2-.2.2-.3l-.3-.4c-.7-.6-1.7-.9-2.6-1-.9 0-1.9.3-3 .1h-.3l.2-.3c.2-.3.4-.5.7-.6l.8-.4 1.5-.4.5-.5c.2-.2.1-.3 0-.4l-.8-.1h-.8c-1 .1-2 .5-3 1a22 22 0 00-2.4 2.1z"/><path fill="#4D866D" fill-rule="nonzero" d="M297.6 350.1h1.7a30.9 30.9 0 015 .8h-1.7a15.4 15.4 0 01-5-.8zM89.6 278.7a34.6 34.6 0 014-40.7 7 7 0 012.6-1.5h.2l.1.2a33 33 0 01.6 33.1 34.3 34.3 0 01-7.2 9l-.3.3v-.5a59 59 0 012.3-24.2 59.7 59.7 0 00-2 24.2l-.3-.1a35 35 0 0010.7-19.6A31.8 31.8 0 0096 237l.3.1c-.9.3-1.6.8-2.4 1.4a40.7 40.7 0 00-5 7 35.8 35.8 0 00-3.3 22.3c.8 3.8 2.1 7.5 4 10.9z"/><path fill="#4D866D" fill-rule="nonzero" d="M89.6 278.7l.1 6.6v6.6l.2 13.3.1 13.2c0 4.4.2 8.8.4 13.2v-.1a172.1 172.1 0 007.7 9l4.1 4.4a23 23 0 004.7 3.6c-1.8-.9-3.4-2.1-4.8-3.5a89.6 89.6 0 01-8.4-8.6l-3.8-4.6h-.1v-.1l-.4-13.3-.1-13.2v-13.3l.2-6.6.1-6.6zM88.2 247.2c-1.6-4.2-4-8-6.7-11.5A79.1 79.1 0 0065.3 220l-.7-.4s-.1 0 0 0l-.2.1a1.7 1.7 0 00-.7.8l-.4 1.6a47.3 47.3 0 00-1 13.3A54.7 54.7 0 0074 266a51.4 51.4 0 009.7 9.2A52.1 52.1 0 0166.5 255a56.5 56.5 0 01-5-26.3 37 37 0 011.2-6.7c.1-.6.2-1.1.5-1.7l.6-.8.4-.2.2-.1h.4l.8.4.7.5 1.4 1A75.8 75.8 0 0185.4 241c1.1 2 2 4 2.8 6.1z"/><path fill="#4D866D" fill-rule="nonzero" d="M70 236A73.5 73.5 0 0185 263a140 140 0 00-10.7-20.5c-1.4-2.1-2.8-4.3-4.4-6.4zM81.2 318.2a31.7 31.7 0 00-6.8-18.3l-.7-.8-.6-.8-1.4-1.4c-1.8-1.8-4-3.3-6.3-4.8-4.3-3-9-5.6-14-7.1-5.1-1.6-10.5-2.1-15.7-1.2l-.4.1-.2.2v.8l.6 1.8 1.6 3.6c1.2 2.4 2.5 4.7 3.9 7 2.8 4.4 6.2 8.5 10.3 11.9a37.5 37.5 0 0021.7 8.6c2.6.2 5.3.2 7.9.2l-.2.4c-1.3-2-2.9-3.8-4.6-5.6a195 195 0 00-5-5l-10.5-10 10.6 9.8 5.2 5c1.7 1.8 3.3 3.6 4.7 5.6l.2.3h-.4c-2.6 0-5.3 0-8-.2a38.1 38.1 0 01-22-8.6 50.5 50.5 0 01-10.5-12 65.6 65.6 0 01-5.5-10.7l-.6-2v-1.2l.6-.4.6-.2c5.2-.9 10.7-.3 15.8 1.2a50 50 0 0114.2 7.4c2.1 1.5 4.4 3 6.3 4.8a32.5 32.5 0 019.2 21.6z"/><path fill="#4D866D" fill-rule="nonzero" d="M50.2 284.6a39.4 39.4 0 012.7-33l.7-1.3.7-1.2.9-1.1.4-.6.3-.3.6-.2.7.5.5.5 1 1 1.8 2.3.9 1 .9 1.2 1.7 2.3.7 1.2.8 1.2.8 1.2.7 1.3.3.6.3.6.6 1.3 1.1 2.7.5 1.3.4 1.4.4 1.4c0 .5.2.9.3 1.4l.2 1.4.1 1.4.1.7v2.2a38 38 0 01-1.7 11.2l-1.6 5.4c1-3.6 2-7.2 2.5-11 .3-1.8.5-3.7.5-5.6v-1.5l-.1-.7v-.7l-.2-1.4-.3-1.4a32 32 0 00-1.6-5.4l-1-2.5-.7-1.3-.3-.6-.3-.6-.7-1.3-.8-1.2-.7-1.2-.8-1.1-1.7-2.3-.9-1.1-.9-1.1-1.8-2.1-1-1c-.2-.4-.6-.9-.8-.9h-.1l-.2.2-.4.6-.8 1.2-.7 1.1-.8 1.2a42.8 42.8 0 00-4 10.5l-.6 2.8-.3 1.3-.1 1.4-.1 1.4-.1 1.5v2.8c.1 3.7.8 7.4 2 11z"/><path fill="#4D866D" fill-rule="nonzero" d="M58 260a148.2 148.2 0 013.4 29.5l-.8-7.4-.9-7.4-.9-7.3-.9-7.4zM81.4 318.2l2.4 3.2 2.3 3.4a125 125 0 014 6.9 205.8 205.8 0 01-4.7-6.6l-2-3.4-2-3.5zM67.4 317.3l1.6 3 1.6 3.1 1.5 3 1.5 3.2c-.7-.9-1.4-1.8-2-2.9l-1.6-3a57 57 0 01-2.6-6.4zM65.4 330.4l1.8.2 1.8.4 1.7.5a9 9 0 011.7.8 16.4 16.4 0 01-3.6-.7l-1.7-.5-1.7-.7zM59.6 344.6a51.4 51.4 0 016.8-3.7 120.6 120.6 0 017.1-3.1 51.4 51.4 0 01-6.8 3.7 120.6 120.6 0 01-7.1 3z"/><path fill="#C4505D" fill-rule="nonzero" d="M72.4 334c0-2.3 1-4.4 2.6-5.9a9.3 9.3 0 0112.2-.2 8 8 0 012 9.3c-.5 1-1.2 2-2 2.7a9 9 0 01-6.2 2.2 9 9 0 01-6-2.4 8 8 0 01-2.6-5.8zm0 0c0 1 .2 2.1.7 3 .5 1 1.1 2 2 2.7a9 9 0 006 2.1c2 0 4.2-.8 5.7-2.3a7.5 7.5 0 000-11.1 8.8 8.8 0 00-11.8-.2c-.8.7-1.4 1.6-1.9 2.6s-.7 2-.7 3.1zM51.3 328.3c0-1.8.8-3.6 2.2-4.9 1.3-1.3 3.1-2 5-2s3.8.6 5.3 1.8a6.8 6.8 0 012.3 5 6.6 6.6 0 01-2.3 5.2 7.8 7.8 0 01-10.3-.2 6.4 6.4 0 01-2.2-4.9zm0 0a6.6 6.6 0 002.2 4.9 7.3 7.3 0 005 1.7c1.8 0 3.6-.7 4.9-2a6.3 6.3 0 000-9.2 7.4 7.4 0 00-9.9-.2c-.7.6-1.2 1.3-1.6 2.1-.4.9-.6 1.8-.6 2.7z"/><path fill="#000" fill-rule="nonzero" d="M51.4 326.8c-.7.1-1.4 0-2-.5a1 1 0 01-.3-.5v-.3l.3-.3h.9c0-.2-.2-.3-.3-.4a3.9 3.9 0 01-1.1-1.8c-.1-.3-.2-.7-.1-1.1l.2-.6.2-.1.3-.1h.3c.3 0 .4.2.6.3l.3.5.6.7h.1c.1 0 .1 0 0 0v0l-.5-.9-.2-.5v-.3-.4c0-.2.2-.3.4-.3h.4l.4.2.2.3.2.4.1.1-.2.2v-.8l-.2-1c0-.2 0-.4.2-.5 0-.2.2-.4.3-.5l.6-.2c.3 0 .5.2.6.3l.4 1 .2.9.5 1.9-.7-1.8-.3-1c0-.2-.2-.6-.4-.7-.2-.2-.4-.2-.6 0l-.2.2v.4l.1 1v1l-.1.2h-.2l-.4-.1-.3-.3-.2-.5h-.1v-.1h-.1v.2l.2.4.4 1v.6l-.2.2c-.2.2-.4.1-.5 0a1 1 0 01-.3 0l-.8-.9-.5-.5h-.2s0-.1 0 0l-.1.3v.9c0 .3.2.6.3.8l.6.8.4.4s.1.2 0 .4l-.3.3H50 49.7c-.1-.1-.2-.2-.3 0-.1 0-.2 0-.1.2 0 0 0 .2.2.3.6.4 1.2.6 2 .6z"/><path fill="#4D866D" fill-rule="nonzero" d="M54.4 320.7c0-.4 0-1 .4-1.3.2-.1.4-.3.7-.3.4 0 .6.1.8.3.2.2.3.4.3.7l.1.6c0 .5 0 .9-.2 1.3l-.3-1.2c0-.4-.2-.8-.4-1h-.3c0-.1-.2 0-.4 0-.3.2-.5.5-.7.9z"/><path fill="#000" fill-rule="nonzero" d="M47.2 344c-.5 0-.9-.4-1.2-.7-.4-.4-.9-.6-1.3-.5-.2 0-.4.1-.5.3v.6l.7.3s.2 0 .3.2l.3.3v.2c-.7.6-1.6.9-2.4 1.2a4 4 0 00-1.1.5l-.8 1c-.2.3-.3.7-.3 1v.3h.8l.3-.2.6-.2 1.2-.4 1-.4-.6.9a7 7 0 00-1.4 2.2c-.1.4-.2.8-.1 1.2v.3l.1.2h.1c.2 0 .3-.2.4-.4l.4-.6c0-.2.2-.4.4-.6h.2l.1-.2.5-.2h.5l.3.6v.4l-.1.3a3.2 3.2 0 00-.1 1.9l.2.4h.4c.2 0 .3-.2.4-.4l.3-.6.4-.6v-.1l.1-.2.4-.3.5.1.2.3.5 1.3c0 .2.1.4.3.5.2.1.4.2.5.1.2 0 .4-.2.5-.4l.3-.5c.2-.4.3-.9.3-1.3 0 .4 0 .9-.2 1.3-.1.4-.4 1-.8 1.1-.2.1-.6 0-.8 0l-.5-.6-.5-1.3-.2-.2-.2.1v.2l-.1.1-.3.7-.3.6-.6.6c-.2 0-.6.1-.8 0-.3-.2-.5-.5-.5-.7l-.2-.8c0-.5 0-1 .2-1.4l.1-.3v-.2H45h-.2l-.2.2-.3.5-.4.5-.2.3-.3.3c-.1.1-.4.2-.6.1a.7.7 0 01-.4-.3l-.2-.4-.1-.4c-.1-.5 0-1 .1-1.4.3-1 1-1.7 1.5-2.4l.3.5-1.2.4-.7.2-.3.1-.3.1h-.9a.8.8 0 01-.3-.5v-.4c0-.5.2-1 .4-1.4l1-1 1.2-.6c.9-.2 1.7-.5 2.4-1v.3l-.5-.4c-.3 0-.5-.2-.7-.4a.8.8 0 010-.8c0-.3.3-.4.6-.5.6 0 1 .3 1.4.6.4.3.7.7 1.2.9z"/><path fill="#4D866D" fill-rule="nonzero" d="M46 283.6c-1.7 0-3.3-.5-4.9-1l-2.3-1-1.2-.4-1.1-.5a52.6 52.6 0 01-22-20l-.7-1-.2-.8.1-.8.6-.5.6-.3 1.2-.5a52.6 52.6 0 0114.9-2.2c3.3 0 6.7.8 9.8 2 3.1 1.2 6 3 8.3 5.5-2.4-2.4-5.3-4.1-8.4-5.2a28.6 28.6 0 00-9.8-1.8 51.8 51.8 0 00-14.6 2.3l-1.1.5-1 .6v.4l.2.5.6 1a50.7 50.7 0 0021.6 20l1.1.6 1.2.5 2.3 1c1.5.5 3.1 1 4.8 1z"/><path fill="#4D866D" fill-rule="nonzero" d="M28.6 264a90 90 0 0110.7 4.9c1.7 1 3.4 2 5 3.2 1.5 1.2 3 2.5 4.3 4a46.5 46.5 0 00-9.6-6.7l-5.1-2.7-5.3-2.7zM42.1 249.3l1.9 3 1.7 3.2A102.4 102.4 0 0149 262l-2-3a44.1 44.1 0 01-4.9-9.6z"/><path fill="#4D866D" fill-rule="nonzero" d="M45.9 256.6a45 45 0 011.2-3.5l1.4-3.3a45.5 45.5 0 013.7-6.3l-1.5 3.3-1.5 3.3-1.6 3.3-1.7 3.2z"/><path fill="#C4505D" fill-rule="nonzero" d="M49 239.4c0-1.2.6-2.4 1.5-3.2a5 5 0 013.3-1.4c1.2 0 2.5.4 3.5 1.2.5.4.9 1 1.2 1.5.3.6.4 1.3.4 2 0 .6-.1 1.2-.4 1.8a5.1 5.1 0 01-8 1.3c-1-.8-1.5-2-1.5-3.2zm0 0c0 .6.2 1.2.5 1.8.2.5.6 1 1 1.4a4.8 4.8 0 006.5-.2c.8-.8 1.3-1.8 1.3-3 0-1-.5-2.2-1.3-3-.9-.7-2-1.2-3.2-1.3-1.1 0-2.3.4-3.2 1.2a5 5 0 00-1.1 1.4c-.3.5-.5 1.1-.5 1.7zM31.3 243.4c0-1.8.9-3.6 2.2-4.8a7.8 7.8 0 0110.2-.2 6.8 6.8 0 012.4 5c0 1-.2 2-.6 2.8-.4.9-1 1.6-1.7 2.3a7.8 7.8 0 01-10.3-.2 6.5 6.5 0 01-2.2-4.9zm0 0a6.4 6.4 0 002.3 4.8 7.4 7.4 0 009.8-.2 6.3 6.3 0 000-9.3 7.4 7.4 0 00-9.8-.2 6.4 6.4 0 00-2.3 5zM25.3 227.8c0-1.5.7-3 1.8-4 1.1-1.1 2.7-1.7 4.2-1.8 1.6 0 3.2.5 4.4 1.6a5.5 5.5 0 010 8.5 6.5 6.5 0 01-8.6-.2 5.7 5.7 0 01-1.8-4zm0 0a5.4 5.4 0 001.9 4 6.2 6.2 0 008.1-.2c1.1-1 1.8-2.3 1.7-3.8 0-1.4-.6-2.9-1.7-3.8-1-1-2.5-1.6-4-1.7a6 6 0 00-5.5 3.2c-.3.8-.5 1.6-.5 2.3z"/><path fill="#000" fill-rule="nonzero" d="M32 240.5a2.3 2.3 0 01-1.9-1.8v-.1h.2c.5.1 1 .2 1.5 0v.3l-.8-1.1c-.2-.4-.5-.8-.6-1.3l.1-.8c.2-.3.4-.5.7-.6.3-.1.6 0 .9.1l.5.6c.1.2.2.4.4.4l.2.2-.1-.2-.3-.7v-.5c0-.2.2-.4.4-.5a1 1 0 01.9 0c.3.1.5.3.6.6l.3.6h-.6l.2-.8.1-1c.1-.3.3-.7.6-1 .4-.1.8-.2 1.2 0 .2 0 .4.2.5.4l.1.5V235.4h.2l.1-.3c.2-.6.3-1.3.8-1.8.3-.2.6-.4 1-.4.3 0 .7.1 1 .4l.2 1c0 .3 0 .6-.2 1l-.9 1.6c.3-.6.6-1.1.7-1.7 0-.3.2-.6.1-1 0-.2 0-.5-.2-.7a.7.7 0 00-.7-.2c-.2 0-.5.1-.7.3l-.4.7-.1 1-.3.4-.4.2H37a.5.5 0 01-.2-.4v-.3-.5l-.1-.8-.1-.4-.2-.2-.6.1-.3.6-.2 1c0 .2 0 .6-.2 1l-.4.7-.2-.8-.2-.6-.3-.3h-.4s-.1.1 0 .2c0 .2 0 .4.2.6v.5c0 .1 0 .4-.2.5-.2 0-.3.1-.4 0H33l-.4-.3-.4-.5-.4-.5c-.1 0-.3-.1-.4 0-.1 0-.3.1-.3.3-.1.1-.2.3-.1.5 0 .4.2.7.5 1.1l.6 1.2.1.3H32c-.6 0-1.2 0-1.7-.2l.2-.1c0 .4.2.8.5 1 .2.5.6.7 1 .9zM52.7 235.4c-.3-.5-.5-1.1-.6-1.8v-1l.1-.4s.1-.2.3-.2h.3c.2.1.3.3.3.5l.2.4.3.6.2-.1v-.1-.2-.4-.5c-.1-.6.1-1.3.5-1.9l.3-.4c.2 0 .3-.2.5-.3h.7c.2 0 .4.3.5.5l.1.5v.5c0 .4 0 .7-.2 1l-.3.9V233.4l-.3.2.6-1.2.2-.3.3-.3h.5l.5.1.2.4.1.5c0 .2-.1.5-.3.7l-.5 1-.1-.2h.1l.2-.4.4-.4h.7a1 1 0 01.1 1.6l-.3.3.1.1h.4c.2 0 .4 0 .5.2.2.1.2.3.2.5l-.2.4c-.1.2-.2.3-.4.3l-.7.6c.1-.3.4-.5.6-.6l.4-.3v-.4-.3h-.9l-.3-.3v-.4c.1-.1.3-.2.3-.4l.2-.3c0-.2-.1-.5-.3-.5 0-.1-.1-.1-.2 0l-.2.1-.2.5-.3.1c-.2 0-.3.1-.4 0h-.2v-.2c0-.6.4-1 .5-1.3l.2-.5v-.2l-.2-.2H57s-.2.1-.3.4l-.5 1.1-.1.2h-.2-.3l-.2-.2-.2-.4v-.3-.2l.4-.9.1-.8v-.4-.3l-.2-.2h-.2c-.2 0-.4.3-.6.5a2.5 2.5 0 00-.5 2v.7l-.1.3c-.2.2-.4.3-.6.2a.6.6 0 01-.4-.2v-.2l-.2-.5-.2-.4c0-.2 0-.3-.2-.3l-.1.1-.2.4v.8l.5 1.8zM27 224l-.6-.6-.5-.8v-.3s0-.2.2-.2l.2-.1h.2l1-.1-.2.2-1-1.9-.4-1v-.6c0-.3.2-.5.5-.6h.6c.2 0 .4 0 .6.2.4.3.5.7.6 1l.2.5.3.3c.1.3.4.4.6.4l-.3.2v-1l-.3-1.2v-1.3l.5-.7c.2-.2.6-.3.9-.2.3.1.5.3.6.5l.3.7c.1.4.2.9.1 1.3V219.6l-.1.3.1-.1v-.5l.1-.4.2-.4.3-.2c.1-.1.3-.2.4-.1.4 0 .6.3.6.6v.7l-.2.5-.1.3v.4h.1c.1 0 .3 0 .3-.2l.4-.6.4-.1h.3c.2.2.4.4.4.7l-.1.6-.3.6-.6 1 .5-1c.1-.4.3-.8.2-1.2 0-.2 0-.3-.2-.4h-.5l-.2.5c-.1.2-.3.4-.6.5h-.4a.6.6 0 01-.2-.5v-.6l.3-1c0-.2-.1-.3-.2-.3s-.2 0-.3.2v.4l-.1.7-.2.4-.5.2h-.3l-.2-.3-.1-.4v-.7l.1-.5v-1.1l-.3-.5-.2-.2h-.3l-.3.4v1l.3 1.2v1.4l-.1.2h-.2a1 1 0 01-.7-.2 2 2 0 01-.5-.4 3 3 0 01-.3-.5l-.2-.5c-.1-.3-.3-.7-.5-.8a.9.9 0 00-.7-.2l-.2.2v.4l.4 1c.2.7.5 1.3.9 1.9v.2H26v.4l.4.8c.3.1.4.4.6.7z"/><path fill="#C4505D" fill-rule="nonzero" d="M17.3 243.4a5 5 0 011.7-3.8 6 6 0 014-1.6 6 6 0 014 1.5 5.4 5.4 0 012 4 5.4 5.4 0 01-2 4 6.2 6.2 0 01-8-.2c-1.1-1-1.8-2.4-1.7-3.9zm0 0c0 .8.1 1.5.4 2.1.4.7.8 1.2 1.3 1.7a5.7 5.7 0 007.7-.2c1-1 1.6-2.2 1.6-3.6a5 5 0 00-1.6-3.6 5.8 5.8 0 00-7.6-.2c-.6.5-1 1-1.3 1.7a5 5 0 00-.5 2.1z"/><path fill="#000" fill-rule="nonzero" d="M17.3 243h-1.8a3 3 0 01-.8-.3c-.3-.1-.5-.4-.7-.7v-.1c.8-.4 1.6-.5 2.4-.6l-.2.3-1.4-1.1-.7-.6c-.2-.2-.5-.4-.6-.7l-.2-.6.2-.6.5-.4h.6c.4.2.7.4.8.7.2.3.4.4.6.5h.4v-.1l-.3-.3c-.5-.4-1-1-1.2-1.5a4 4 0 01-.3-2v-.3l.2-.1.2-.2h.7l.8.6c.3.3.5.5.6.8l.5.8c0 .3.2.5.4.8l.2.1v0l-.1-.2-.2-.4-.2-.5v-.5l.1-.6.6-.3c.4 0 .8.2 1 .4.2.3.3.7.3 1v.4l.1.3h.2v-.3-.2-.2-.5c.1-.2.4-.3.6-.3l.4.3.3.9v1.8l-.1-1.8c-.1-.3-.1-.6-.3-.8l-.3-.1-.3.1V236.8l-.1.5c-.2.1-.5.2-.7 0l-.2-.5v-.5c0-.3-.1-.5-.3-.7a.7.7 0 00-.6-.2c-.1 0-.3.2-.3.4l.2.7.3.5v.5c0 .2 0 .4-.2.5H18l-.3-.2-.1-.1-.1-.1-.5-.8c-.3-.6-.6-1.1-1-1.5a2 2 0 00-.6-.4h-.2s0-.1 0 0a3.5 3.5 0 001.3 3l.3.4.2.3-.1.5-.6.3a1 1 0 01-.6 0c-.4-.2-.6-.5-.8-.8-.1-.2-.3-.4-.5-.4l-.4.1-.1.3v.3l1.2 1.2 1.4 1.2.4.3h-.5c-.8 0-1.5.2-2.2.4v-.2c.2.5.8.9 1.3 1 .6.2 1.2.2 1.8.2z"/><path fill="#4D866D" fill-rule="nonzero" d="M44.6 302.9A23.1 23.1 0 0032 313a29.1 29.1 0 00-3.7 11.7v1l-.1 1v2c.3.4 1 .6 1.6.6.3 0 .6 0 1-.2l1-.2 1-.2 1-.3c.7-.1 1.3-.4 2-.6a34.3 34.3 0 0013.6-9.1c1.8-2 3.4-4.4 4.6-6.9a29 29 0 01-10.6 12.7l-1.8 1.1-1.8 1-1 .5-1 .5-.9.4-.5.2-.5.1-2 .7-1 .3-1 .2-1 .3h-2.2c-.4-.2-.8-.5-1-.9-.2-.4-.2-.8-.2-1.1v-2.1l.2-1c.1-1.4.4-2.8.7-4.2a23.4 23.4 0 018.7-14c2.3-1.8 4.8-3 7.5-3.7zM88.6 349c-1-.4-2-.3-3-.2l-2.8.8a34.7 34.7 0 00-14.4 10.1 28.1 28.1 0 00-5.9 22.1l.1.3h1.5l.7-.1a22 22 0 0012.9-6.5c1.4-1.4 2.8-2.8 4-4.4a22 22 0 002.8-5.1c.8-1.9 1.6-3.7 2.2-5.5a27 27 0 001.5-11.7l.2.2a41.7 41.7 0 00-7.2 5.8 40 40 0 017-6.1l.3-.2v.3c.5 4 0 8-1.3 11.8-.6 2-1.4 3.7-2.2 5.6a23.6 23.6 0 01-2.9 5.2 41.4 41.4 0 01-8.7 8.3 22.1 22.1 0 01-8.5 3h-1.5l-.4.1h-.4a.7.7 0 01-.5-.4l-.2-.4a27.9 27.9 0 016.1-22.5 32.7 32.7 0 0114.7-10l2.9-.8c1-.1 2 0 3 .2z"/><path fill="#4D866D" fill-rule="nonzero" d="M98 359.5c-1-.4-2.2-.3-3.2 0a15 15 0 00-3 1.4c-1.9 1.1-3.7 2.5-5.1 4a17.2 17.2 0 00-5.1 11.6c-.1 1.1-.2 2.2-.1 3.3a36.8 36.8 0 001.3 9.7l.4 1.5.3.8.2.7c.1.2.2.2.4.2l.7-.3 1.4-.8A36.7 36.7 0 0096 383c1.4-1.6 2.5-3.5 3.3-5.5.7-2 1-4.2 1.4-6.3.4-2.2.5-4.4.1-6.5a10.5 10.5 0 00-2-4.3c0-.2-.3-.4-.5-.5h-.6c-.4.1-.8.6-1 1l-1 1.4-.8 1.4-.7 1.5c-2 3.9-3.2 8.1-4.3 12.4a60.3 60.3 0 015.5-15.5l1-1.4c0-.2.2-.5.5-.7l.7-.5h1l.7.7.9 1.3c.5 1 1 2 1.1 3.2a18 18 0 010 6.6 53.7 53.7 0 01-1.5 6.5c-.7 2-2 4-3.3 5.7a36.5 36.5 0 01-10 8.6l-1.4.8-.9.4h-.5a1 1 0 01-.5-.4l-.2-.5-.1-.4-.3-.8-.4-1.5a59.3 59.3 0 01-1.2-6.5v-6.7a17.5 17.5 0 015.4-11.7 23.7 23.7 0 018.3-5.2c.6-.2 1-.3 1.7-.3.5-.2 1 0 1.6.1zM87.7 349.6a51.3 51.3 0 019.7-5l3.4-1.3.5-.2v.5l-1.5 7.9-.8 3.9-.8 3.8.5-3.9.6-4 1.3-7.8.4.4-3.4 1.2a105.6 105.6 0 00-6.7 2.9l-3.2 1.6zM34.7 322A54.6 54.6 0 0147 308.7l2.1-1.5-2 1.7-1.8 1.8-3.6 3.7-3.5 3.7-3.5 3.9z"/><path fill="#C4505D" fill-rule="nonzero" d="M46.7 346.2c0-1.6.7-3.3 2-4.4a7 7 0 019-.1 5.8 5.8 0 011.5 7c-.3.7-.8 1.4-1.4 2a6.9 6.9 0 01-9.2-.2c-1.2-1-2-2.7-2-4.3zm0 0a5.5 5.5 0 002 4.3c1.2 1 2.8 1.6 4.4 1.5 1.7 0 3.2-.6 4.3-1.7a5.5 5.5 0 000-8.2 6.6 6.6 0 00-8.7-.2c-.6.6-1.1 1.2-1.5 2-.3.7-.5 1.5-.5 2.3z"/><path fill="#4D866D" fill-rule="nonzero" d="M61.5 377.2c-3.2.6-6.5.7-9.7.3-3.3-.3-6.4-1-9.6-2a84 84 0 01-9-3.6l-2.3-1a7.7 7.7 0 01-1.6-1l-.3-.3v-.6c0-.2 0-.3.2-.4l.2-.2.5-.4 1-.8 2-1.4a53 53 0 018.4-4.9l4.6-1.8a50 50 0 0119.2-2.6 15.5 15.5 0 014.7 1.5c-1.5-.7-3.1-1-4.7-1.3a49.2 49.2 0 00-23.5 4.8c-1.5.7-3 1.4-4.3 2.2l-2.1 1.3-1 .6-1 .7-2 1.5-1 .7-.4.4-.3.3.2.2.4.3c.3.3.7.4 1 .6a147.6 147.6 0 0011.2 4.7 48.3 48.3 0 0014.3 2.6c1.7 0 3.3-.2 5-.4z"/><path fill="#4D866D" fill-rule="nonzero" d="M44.3 366.4a33.1 33.1 0 0119.8 0 88.3 88.3 0 00-9.9-.8 52 52 0 00-9.9.8zM27 247a59.5 59.5 0 008.6 5 41.3 41.3 0 009.5 2.9 26.8 26.8 0 01-9.8-2.4A28.5 28.5 0 0127 247zM33.7 232.8l.6.7.3.8.2.8v1l-.5-.8-.3-.8-.2-.8v-.9zM111.6 155a11 11 0 003 3c1.1.7 2.3 1.3 3.7 1.9a83.3 83.3 0 0025 3.8 59 59 0 01-25.3-3.4c-1.3-.6-2.5-1.3-3.6-2.2-1.1-.8-2.1-1.9-2.8-3.1z"/><path d="M320.6 280.7c1.5 15.4 3 31 4.7 46.4l.8 9.6 1.2 11.8M305.2 335.6c.8 3.6 1.3 7.3 1.7 11"/><path fill="#4D866D" fill-rule="nonzero" d="M309 359.5c0 .5 0 1 .2 1.5 0 .3.2.5.4.7.1.2.3.3.6.3h3.1a106.3 106.3 0 0012.7-2l1.6-.4c.5-.1 1.1-.2 1.2-.6v-.1-.2l-.1-.4-.2-.8-.4-1.6.6 1.5.3.8v.4l.1.2v.4l-.2.2c-.1.2-.3.2-.4.3l-.8.2-1.6.5a51 51 0 01-12.7 2H311c-.3 0-.6 0-.9-.2-.3 0-.5-.2-.7-.5l-.4-.8v-1.4zM334.5 362.3c-.2-1.3.2-2.7.9-3.8a9 9 0 012.8-2.8c1-.7 2.3-1.2 3.5-1.7a20.2 20.2 0 015.8-1.1h1.1l.1.2.1.2v1c-.2 1.3-.4 2.6-.8 3.8a13.6 13.6 0 01-2.8 5.2c-.5.5-1 .9-1.7 1.1.6-.3 1-.7 1.5-1.2l1.1-1.6c.6-1.1 1-2.4 1.4-3.6.3-1.2.5-2.5.6-3.8v-1l.1.2h.1c0 .1 0 0 0 0h-.2l-.5.1a20.9 20.9 0 00-9.2 2.6 9 9 0 00-2.8 2.5c-.8 1-1.2 2.4-1.1 3.7z"/><path fill="#4D866D" fill-rule="nonzero" d="M337.4 362.9c.1-.8.5-1.5.9-2.2a12.3 12.3 0 015.3-4.7l-1.7 1.6a26.8 26.8 0 00-4.5 5.3z"/><path fill="#000" fill-rule="nonzero" d="M312.1 362.1l.4 3.7c0 .6 0 1.2.3 1.8.1.6.5 1 1 1.4.9.7 2.2 1 3.4.9 1.2 0 2.4-.3 3.6-.5a9.5 9.5 0 013.8.1c1.2.3 2.4.8 3.5 1.2 2.3.8 4.8 1 7.2.6 2.4-.3 4.7-1.2 6.6-2.7l.8-.6.6-.6c.4-.4.8-.8 1-1.4 0-.2 0-.5-.2-.7 0-.3-.2-.5-.4-.6a3 3 0 00-.8-.3l-.9-.2a92.6 92.6 0 01-14.2-4.3 108.2 108.2 0 0014.3 3.8l1 .2.9.3.4.4.2.5c.1.3.2.7.1 1-.1.8-.6 1.3-1 1.7l-.7.7-.7.6a15.5 15.5 0 01-14.4 2.2c-1.2-.5-2.3-1-3.5-1.2a8.6 8.6 0 00-3.5-.2c-1.2.1-2.4.4-3.7.4-.6 0-1.3 0-1.9-.2-.6-.2-1.2-.4-1.7-.8a3 3 0 01-1-1.6l-.3-1.9-.2-3.7z"/><path fill="#4D866D" fill-rule="nonzero" d="M291.1 264.3c2.1-2.8 5-5 8-6.8a34.4 34.4 0 0115.1-4.1h5.3c3.5.3 7 1 10.3 1.8h.4l-.1.4a30 30 0 01-6.3 10.3 35.7 35.7 0 01-14.8 10.2c-2 .7-3.9 1.2-5.8 1.7l-5.8 1.5-5.9 1.4 11.6-3.2a35.2 35.2 0 0020.3-12c2.7-3 4.7-6.4 6.1-10.1l.2.4c-3.3-.9-6.8-1.5-10.2-1.8-3.5-.3-7-.2-10.4.4-3.4.6-6.8 1.7-9.8 3.3-3.2 1.7-6 3.9-8.2 6.6zM325.2 327.8c1-1.3 2.3-2.3 3.8-3a17.7 17.7 0 019.5-1c1.5.4 3.1.9 4.6 1.5h.3l-.1.4a17 17 0 01-2.5 5 14.5 14.5 0 01-9.2 5.7c-1.8.2-3.7.2-5.5-.4 1.8.4 3.7.4 5.4 0a14.6 14.6 0 0011.2-10.5l.2.4c-1.5-.6-3-1.1-4.5-1.4-1.6-.3-3.1-.5-4.7-.4-1.6 0-3.1.4-4.6 1-1.4.6-2.8 1.5-4 2.7z"/><path fill="#4D866D" fill-rule="nonzero" d="M336.5 328.3l-2.6 1.5a40.7 40.7 0 01-8 3.3 40.7 40.7 0 015.1-2.6 40.5 40.5 0 015.5-2.2zM340.6 336.5c.2-.4.6-.8 1-1.1.5-.3 1-.6 1.5-.7l1.6-.2c.6 0 1.1 0 1.7.3 1 .3 2 .8 2.8 1.5a12 12 0 013.7 5.3c.3 1 .5 2 .5 3.2V346.5l-.6.4h-.4l-.8.2h-3.3a14.3 14.3 0 01-8.3-4.8 6 6 0 01-1-1.4c-.2-.5-.3-1-.2-1.6 0-.6.2-1.2.5-1.6.3-.5.8-.9 1.4-1a3 3 0 011.6 0c.6 0 1 .3 1.6.5 2 .8 3.7 2 5.3 3.5a18.3 18.3 0 00-5.5-3.2l-1.4-.5c-.6-.2-1-.2-1.5 0-1 .3-1.5 1.3-1.5 2.3 0 1 .5 1.9 1 2.7l1.2 1c.3.4.8.7 1.2 1a13.6 13.6 0 008.8 2.4h.8l.3-.2h.2v-.7-.8a11.3 11.3 0 00-1.8-5.9 10 10 0 00-4.7-3.9c-1-.3-2-.4-3.1-.2-1 .4-2 1-2.6 1.8z"/><path fill="#4D866D" fill-rule="nonzero" d="M345.9 334.8c.4-.8.9-1.6 1.6-2.2.6-.7 1.4-1.2 2.2-1.7a15 15 0 015.3-1.5c.9-.2 1.8-.2 2.7-.2h2.8c1.8.2 3.7.6 5.4 1.4l.6.2.4.2.3.4.1.5v.4l-.1.7-1 2.6-1.6 2.3-1.9 2a15.5 15.5 0 01-4.4 3.3c-1.7.8-3.5 1.3-5.3 1.1a12 12 0 005.2-1.4c1.6-.8 3-2 4.2-3.3a27.5 27.5 0 003.2-4.3l1-2.4v-.7-.3-.2l-.3-.2-.6-.3c-1.7-.7-3.4-1.1-5.2-1.3a28 28 0 00-5.4 0c-1.8.2-3.6.5-5.2 1.3-1.7.8-3.1 2-4 3.6z"/><path fill="#4D866D" fill-rule="nonzero" d="M359.7 334.3c-.6.6-1.3 1-2 1.5s-1.4 1-2.1 1.3a30.5 30.5 0 01-4.7 2c.7-.6 1.4-1 2.1-1.4l2.2-1.2 2.3-1.1c.7-.4 1.5-.8 2.2-1zM336.5 334.2l1.2.6 1.2.5 1.2.7 1.1.8c-.5 0-.9-.2-1.3-.3l-1.2-.6-1.2-.6a3 3 0 01-1-1zM327.3 348.4c0-.8.3-1.5.7-2.2.5-.7 1.1-1.2 1.8-1.6.7-.3 1.5-.5 2.3-.5l2.4.1c1.5.1 3 .5 4.6.8 1.5.3 3 .6 4.5.5h.4v.3a9.5 9.5 0 01-3.3 6.6l-2 1.4c-1.3.8-2.8 1.6-4.3 2.1-.8.3-1.5.5-2.3.6-.8.1-1.7.2-2.4 0h1.2c.4 0 .8 0 1.1-.2.8-.1 1.6-.4 2.3-.7a26.8 26.8 0 006-3.6l1.5-1.8a9 9 0 001.5-4.4l.3.4c-1.6 0-3.1-.2-4.6-.5-1.5-.4-3-.8-4.5-1h-2.3c-.8 0-1.5 0-2.2.3-.7.3-1.3.8-1.8 1.4a3 3 0 00-.9 2z"/><path fill="#4D866D" fill-rule="nonzero" d="M340.5 347c-.2.5-.6 1-1 1.3l-1.6.8a19.4 19.4 0 01-5 1.3l-1.6.3-1.5.3c-.5.2-1 .5-1.4.9.3-.5.7-.9 1.2-1.1.5-.3 1.1-.5 1.7-.6l3.2-.7a27.9 27.9 0 004.7-1.5c.5-.2 1-.5 1.3-1zM327.5 350.2c.2 0 .3.2.3.2l.2.4v.3l-.2.4-.3-.3-.1-.3v-.3l.1-.4z"/><circle cx="148.9" cy="8.7" r="1" fill="#000" fill-rule="nonzero"/><circle cx="143.3" cy="13" r="1.2" fill="#000" fill-rule="nonzero"/><path fill="#4D866D" fill-rule="nonzero" d="M33.5 310.5a25.8 25.8 0 00-13.1-6.1c-2.4-.4-4.8-.6-7.3-.4l-.9.1-.9.1-.9.2H10l-.4.2-1 .2-.8.2c-.2.2-.3.3-.3.5l.1.8a20 20 0 007.6 12 23.6 23.6 0 0013.5 4.9 23.9 23.9 0 01-13.8-4.5 21 21 0 01-8-12.3v-1c0-.2 0-.4.2-.6l.4-.3a4 4 0 011-.3l.9-.2.4-.1h.5l1-.2c.2 0 .6 0 .8-.2h1a26.6 26.6 0 0114.4 2.8c2.2 1 4.2 2.5 6 4.2z"/><path fill="#4D866D" fill-rule="nonzero" d="M16.3 309.4c1.2.6 2.4 1 3.7 1.3a30.5 30.5 0 015.4 2.2l1.8 1 3.3 2-3.6-1.5-3.5-1.7a72 72 0 00-3.6-1.5c-1.2-.5-2.5-1-3.5-1.8zM10.7 313.8c-1 .6-1.8 1.3-2.5 2.2A36.2 36.2 0 001.1 331l-.2.8-.1.8v.5l.7.3c1 .3 2.2.5 3.3.5 2.2.1 4.4-.3 6.6-1 2.1-.6 4.2-1.5 6.3-2.3 2.1-1 4.1-1.9 6-3.1 2-1.2 3.7-2.7 5-4.6-1.2 2-3 3.6-4.8 4.8a40.8 40.8 0 01-9.1 4.6c-1 .5-2.1.8-3.2 1.2-2.2.7-4.5 1.1-6.8 1-1.2 0-2.3-.2-3.5-.5l-.4-.2c-.1 0-.3 0-.5-.2l-.2-.3v-.3-.5l.1-.8.2-.9a34.3 34.3 0 017.6-15.1c.8-.8 1.6-1.5 2.6-2z"/><path fill="#4D866D" fill-rule="nonzero" d="M5.4 330.4l3.2-2.5 3.2-2.5 3-2.5 3.2-2.6a30.8 30.8 0 01-5.8 5.6 49 49 0 01-6.8 4.5z"/><path fill="#4F91C3" fill-rule="nonzero" d="M147.4 52.7l.2 38.6v9.6l-.1 4.8v2.4l-.2 2.5a35 35 0 01-.6 4.8c-.3 1.5-.9 3-1.7 4.5l-.6 1-.7 1-.7 1-.8 1-.8.9-.8.8-1.7 1.7c-4.7 4.5-9.7 8.5-14.9 12.3-2.6 1.9-5.2 3.8-7.5 6a31 31 0 00-6 7.4 28.5 28.5 0 00-3 9 64.6 64.6 0 00-1 12V181.2l-.1 9.7-.6 154.3.3 1 .4 1.2a18.7 18.7 0 004.2 5.6l.5.4.4.4 1 .7.9.8 1 .7 2 1.3 1 .6 1 .5c5.6 3 11.7 5 18 6.4a171 171 0 0038 4 116.7 116.7 0 0037.4-6.5c3-1 6-2.3 8.8-3.7 3-1.3 5.7-3 8.2-4.8a19.5 19.5 0 004-4.3l.5-1v-.3l.1-.3.1-.6.2-1.1c.3-3.2.4-6.4.5-9.6v-38.3l-.2-38.4v-38.4l-.7-38.3.8 38.3.3 38.4.1 38.4.1 19.1v19.2c0 3.2 0 6.4-.4 9.6l-.2 1.2v.6l-.1.3-.1.3c-.3.8-.7 1.5-1.2 2.2-1 1.3-2.2 2.4-3.5 3.4a38.8 38.8 0 01-8.2 5 118.5 118.5 0 01-65.8 9.3 138 138 0 01-9.5-1.3l-2.4-.3-1.2-.2-1.2-.2-2.3-.5-1.2-.3-1.2-.2a75 75 0 01-18-6.4l-1.1-.6-1-.6-2.1-1.3-1-.7-1-.8-.9-.7-.5-.5-.4-.4a20.7 20.7 0 01-4.4-5.8c-.3-.7-.6-1.5-.7-2.4l.7-154.3v-9.7l.1-4.8V174l.1-2.5a61.8 61.8 0 012.2-14.3 29.3 29.3 0 014.6-8.5c1-1.3 2.2-2.4 3.4-3.5 2.4-2.2 5-4 7.6-6 5.2-3.8 10.2-7.8 14.9-12.2l1.7-1.7.8-.9.8-.9.7-.9.8-1 .6-1 .6-1c1.7-2.7 2-6 2.3-9.2l.2-2.4v-2.4l.1-4.8.1-9.6V52.7z"/><path d="M266.4 259.1l.1 5.2"/><path fill="#4F91C3" fill-rule="nonzero" d="M193 52.8l.2 19.1v40.9l.1.3v.5l.2.6.1.6a20.5 20.5 0 004 8.4l.8.9.7.9c.6.6 1.2 1 1.7 1.7l.9.7 1 .8 1.8 1.4 4 2.8 7.6 5.6c2.5 2 5 4 7.3 6.2 2.4 2.2 4.6 4.5 6.4 7.2a21.2 21.2 0 012.9 6.6v.6l.1.6.1 1.2.4 9.5.1 9.6c0 3.2 0 6.3.2 9.5-.2-3.2-.3-6.3-.3-9.5l-.4-9.6c0-3.2-.2-6.3-.4-9.5l-.1-1.2v-.6c0-.1 0-.3-.2-.5a21 21 0 00-2.9-6.4 56.2 56.2 0 00-6.3-7c-2.3-2.2-4.7-4.2-7.2-6.2L208 133l-4-2.8-1.8-1.4-1-.8a11 11 0 01-.9-.7l-1.7-1.7-.8-1-.8-1a25 25 0 01-4.1-8.6l-.1-.6-.1-.6v-.6l-.1-.3V110 91l.1-19.1.2-19.1z"/><path d="M130.7 136.8c0-.4.3-.8.6-1.1a5 5 0 011.1-.7c.8-.4 1.6-.8 2.4-1a113.3 113.3 0 0115.4-2.7 219.7 219.7 0 0152.2 1.2 48.3 48.3 0 017.6 2.2l1.1.8.5.6.2.8-.2.8-.5.5-1.1.8-2.5 1a115.4 115.4 0 01-15.5 2.7 220.2 220.2 0 01-52-1.7 47.7 47.7 0 01-7.6-2.2l-1-.8c-.4-.4-.7-.8-.7-1.2zm0 0c0 .4.3.8.6 1.1l1.1.7c.8.4 1.6.8 2.4 1a114.7 114.7 0 0015.4 2.7 219.5 219.5 0 0052-1.7 43.2 43.2 0 007.4-2.2c.4-.2.8-.4 1-.7.3-.3.6-.6.6-.9 0-.3-.3-.6-.5-.9l-1-.7-2.4-1-5-1.2c-3.4-.7-6.9-1.1-10.3-1.5a219 219 0 00-52 1.2l-5.2 1.3-2.4 1-1 .7c-.4.3-.7.7-.7 1.1zM308.1 286.2a25 25 0 0012.9-4.8c.2-.2.5-.4.6-.7.2-.3.1-.7 0-1l-2-9.8"/><path fill="#000" fill-rule="nonzero" d="M138.4 9l.1-1.5c.2-.4.4-1 .8-1.3.4-.4.9-.6 1.4-.7.5 0 1 0 1.4.2l-1.3.4a3 3 0 00-1.1.6l-.7 1-.6 1.3zM146.7 4.9c0-.5.4-1 .8-1.2.4-.3 1-.4 1.5-.4s1 .3 1.4.6c.4.3.6.8.6 1.2-.2-.3-.6-.6-1-.8a3 3 0 00-1-.4 3 3 0 00-1.2.2c-.4.2-.8.4-1.1.8z"/><path fill="#4F91C3" fill-rule="nonzero" d="M153 1.8c0-.8.6-1.5 1.5-1.6.4 0 .9 0 1.3.3s.6.8.6 1.3-.2 1-.6 1.3a2 2 0 01-1.3.3c-.9 0-1.6-.8-1.6-1.6zm0 0c0 .4.1.8.4 1 .3.3.7.4 1 .3.8 0 1.3-.7 1.3-1.3 0-.6-.5-1.2-1.2-1.3-.4 0-.8 0-1 .3-.4.2-.6.6-.6 1z"/></g><path fill="#C4505D" fill-rule="nonzero" d="M235.8 151.9c17.8-.9 35.6-.7 53.3.9a288 288 0 0152.5 9.7c8.5 2.6 17 5.4 24.9 9.5 2 1 3.9 2.2 5.8 3.4l.7.4.7.5 1.3 1c1 .6 1.8 1.3 2.7 2l2.5 2.2c.5.3.8.8 1.2 1.1l.6.6.6.7c.8.8 1.6 1.6 2.2 2.5l1 1.3 1 1.3A51.1 51.1 0 01396 214a61.1 61.1 0 01-2.9 26.4 97 97 0 01-13.5 26.8l-1 1.4-1 1.3c-.2.5-.6 1-.9 1.4l-1 1.3-2 2.6c-2.9 3.5-5.8 6.9-8.8 10.1l-2.3 2.4-2.4 2.3-1.2 1.2-1.3 1.1-2.4 2.3-2.5 2.2-2.6 2.2-5.2 4.1-2.7 2-2.7 2-1.3 1-1.4 1-2.8 1.8-2.8 1.9-2.8 1.8-2.8 1.7-1.4.8-1.5.9a244.7 244.7 0 01-48.7 21.8 345 345 0 01-32 9.1l-6.6 1.5c-2.1.4-4.3 1-6.5 1.3l-6.6 1.3c-8.7 1.6-17.5 2.8-26.4 3.7-8.9.8-17.8 1-26.7.7-8.9-.4-17.8-1.5-26.5-3.5-8.6-2-17.1-5.1-25-9.3l-3-1.6a52.8 52.8 0 01-8.3-5.6A59.6 59.6 0 0197 328a39.7 39.7 0 01-6.6-11.7 28 28 0 01.4-19.7c.8-2.1 2-4 3.2-5.9 2.6-3.6 6-6.8 9.6-9.3 7.4-5 16.2-8 25.2-8.4 4.4-.2 9 .4 13.1 2 4.2 1.7 8 4.5 10.5 8.2 1.3 1.8 2.2 4 2.7 6.1l.2.8.1.9v1.7c0 1.1 0 2.3-.4 3.3a15.9 15.9 0 01-8.9 9.6 13.2 13.2 0 01-9.9.2c-1-.4-2-1-2.9-1.7-1.7-1.5-3-3.4-3.8-5.5-.8-2.1-1.1-4.4-1-6.6a15.4 15.4 0 014.2-9.9l.6-.6.6-.5.7-.5a21 21 0 015.9-3.3c2-.8 4.2-1.3 6.5-1.5l.8-.1.8-.1 1.7-.1h3.3c2.2.2 4.5.5 6.6 1 4.4 1 8.5 2.7 12.8 3.8 4.3 1 8.9 1 13.1-.3l.8-.2.8-.3 1.6-.5 1.5-.7.8-.3.3-.2.4-.2 1.5-.8.7-.4a20.7 20.7 0 007.6-7.5c1.2-1.8 2.4-3.7 2.9-6a11 11 0 00-.4-6.4c-.4-1-1-2-1.7-2.8a7.3 7.3 0 00-2.7-2c-1-.4-2.1-.6-3.3-.6-1 0-2.2 0-3.2.4s-2 1-2.8 1.7a5.1 5.1 0 00-.8 6.2c.5 1 1.4 1.7 2.5 2a4.8 4.8 0 004.6-1.1c.4-.4.7-.9.8-1.4-.1.5-.4 1-.8 1.4-.3.4-.8.7-1.4 1-1 .4-2.2.5-3.2.1-1.1-.3-2-1-2.6-2a5.2 5.2 0 01.8-6.2c.8-.8 1.8-1.4 2.9-1.8a9.8 9.8 0 016.5.3c1 .4 2 1 2.8 1.9.7.8 1.3 1.8 1.7 2.8.9 2 1 4.4.4 6.6a12 12 0 01-1.1 3.1c-.6 1-1 2-1.7 2.9a23.8 23.8 0 01-7 7.2l-.7.4-.7.4-1.5.8-.3.2-.4.1-.8.4-1.5.7-1.6.6-.7.2-.9.3a25.5 25.5 0 01-13.2.2c-4.4-1-8.5-2.8-12.8-3.7-2.2-.5-4.4-.8-6.6-.9h-5l-.8.1-.8.1c-2.3.3-4.4.8-6.5 1.6a21.1 21.1 0 00-6.4 3.7l-.6.6-.6.5-.6.6a15.8 15.8 0 00-2.5 15.5c.8 2 2 4 3.8 5.4 1.7 1.4 3.8 2.2 6 2.5 2.1.2 4.4-.2 6.4-1 2-.9 3.8-2.2 5.3-3.8a14 14 0 003.3-5.6c.3-1 .5-2.2.5-3.3l-.1-1.6-.1-.8-.2-.8a17 17 0 00-2.6-6 22.3 22.3 0 00-10.3-8 31.9 31.9 0 00-13-2c-8.8.4-17.5 3.3-24.8 8.4a38.5 38.5 0 00-9.4 9.1 26.2 26.2 0 00-3.6 25c1.5 4.3 3.8 8.1 6.5 11.6a57.2 57.2 0 0017.8 14.8l2.9 1.6a106 106 0 0024.9 9.2c8.6 2 17.5 3 26.3 3.4 8.9.4 17.8 0 26.6-.7 8.9-.8 17.7-2 26.4-3.7l6.6-1.2 6.5-1.4 6.5-1.5 6.5-1.5a344 344 0 0050.4-17.2c8-3.6 16-7.6 23.7-12l1.4-.9 1.5-.8 2.8-1.8 2.8-1.8 2.8-1.8 2.7-1.9 1.4-1 1.4-1 2.7-1.9 2.6-2 5.3-4.2 2.5-2.1 2.5-2.2 2.5-2.2 1.2-1.2 1.2-1.1 2.4-2.4 2.3-2.4c3-3.2 6-6.6 8.7-10l2-2.6 1.1-1.4 1-1.3 1-1.4.9-1.3 1.9-2.8c4.8-7.4 9-15.4 11.6-23.9a60.3 60.3 0 000-39.1 50.1 50.1 0 00-6.1-11.8l-1-1.3-1-1.3c-.7-1-1.5-1.7-2.2-2.5l-.6-.6-.6-.6-1.2-1.1-2.5-2.2c-.9-.7-1.7-1.4-2.7-2l-1.3-1-.7-.5-.7-.4a70.2 70.2 0 00-5.8-3.3c-7.8-4.2-16.3-7-24.8-9.6a252 252 0 00-52.3-9.9 398.6 398.6 0 00-53.5-.9z"/><path fill="#C4505D" fill-rule="nonzero" d="M196 95.2a160.5 160.5 0 0135 2 93.2 93.2 0 0116.7 5 54.3 54.3 0 0114.7 9.6 26.6 26.6 0 018.3 15.3c.3 2 .4 3.9.3 5.8l-.1 1.5-.2 1.5c-.2 1-.3 1.9-.6 2.8a35.2 35.2 0 01-4.6 10.8 68.7 68.7 0 01-11.6 13.2c-2.9 2.6-6 5-9.1 7.3l-9.6 6.7-4.8 3.3-5 3.2-4.9 3.2-2.5 1.5-2.5 1.5-5 3-5 3-2.6 1.4-2.6 1.4-5.1 2.7-5.3 2.7-2.6 1.3-2.6 1.2-5.3 2.4-5.4 2.3c-3.6 1.6-7.3 3-11 4.4l-2.6 1-2.8.9-2.8 1c-.5 0-1 .2-1.4.4l-1.4.4-5.6 1.7-1.4.5-1.4.4-2.8.7-2.9.8-1.4.4c-.5 0-1 .2-1.4.3l-5.7 1.2c-1.9.5-3.8.8-5.7 1.1l-3 .5-1.4.3-1.4.2-5.8.7-3 .4-2.8.2c-4 .3-7.9.4-11.7-.3a22 22 0 01-10.7-4.5 17.3 17.3 0 01-4-4.4 12.1 12.1 0 01-.7-11.3c.7-1.8 1.7-3.5 2.8-5.2l.9-1.2.9-1.1 1.8-2.3a56.6 56.6 0 00.1 0l-1.8 2.4-.9 1.1-.8 1.2c-1 1.6-2 3.4-2.7 5.1a11.8 11.8 0 00.7 11c1 1.8 2.3 3.2 3.8 4.4a20.8 20.8 0 0010.6 4.4 49.2 49.2 0 0014.5 0l2.9-.4 5.8-.8c7.7-1.2 15.3-2.7 22.8-4.8l2.9-.7 1.4-.4 1.4-.5 5.5-1.7 1.4-.4 1.4-.5 2.8-1 2.7-.9 2.7-1c3.7-1.4 7.3-2.7 10.9-4.3l5.3-2.3 5.3-2.5 2.7-1.2 2.6-1.3 5.2-2.6 5.2-2.8 2.6-1.4 2.5-1.4 5-3c1.7-.9 3.4-2 5-3l2.6-1.4 2.4-1.6 5-3.1 4.9-3.2 4.8-3.3 9.6-6.7c3.1-2.3 6.2-4.6 9.1-7.2A65.4 65.4 0 00265 149a44.1 44.1 0 004.5-10.6l.6-2.9.2-1.4c0-.5 0-1 .2-1.5a27.1 27.1 0 00-2-11.3 31.2 31.2 0 00-11-13.2 49.8 49.8 0 00-10-5.7l-5.4-2.1a92.6 92.6 0 00-22.8-4.7 185 185 0 00-23.3-.5z"/><path fill="#C4505D" fill-rule="nonzero" d="M194.3 57.8c2.4 0 4.8.2 7.1.6 2.4.4 4.7 1 7 2a21.1 21.1 0 0110 10 26.1 26.1 0 01.9 21.1 55.4 55.4 0 01-17.6 22.4l-2.8 2.3-1.5 1-1.4 1.2c-4 2.8-8 5.4-12.2 7.7l-1.5 1-1.6.7-1.7.9-1.6.8-3.2 1.5-1.7.7-1.7.7-1.6.7-1.7.6-3.4 1.3-3.4 1.1-.8.3-.9.3-1.7.5-1.7.5-1.8.4-3.5.9-7 1.4-7.2 1-3.5.3a34.4 34.4 0 01-10.9-.3l-.8-.2-1-.3-.8-.3c-.3 0-.5-.1-.8-.3-1.2-.4-2.2-1-3.2-1.8a9.5 9.5 0 01-3.4-6.3c0-1.3 0-2.5.4-3.7.4-1.1 1-2.2 1.6-3.3 1.3-2 2.9-3.8 4.7-5.4a37 37 0 015.9-4.2 157.3 157.3 0 00.2.3c-2.1 1.2-4 2.6-5.8 4.2a24.4 24.4 0 00-4.7 5.4c-.6 1-1.1 2-1.5 3.2a9.3 9.3 0 00-.3 3.4c0 1.2.4 2.3 1 3.3s1.3 2 2.2 2.7c1.9 1.5 4.1 2.3 6.4 2.8a26.4 26.4 0 007.1.5l3.6-.2 3.5-.4c2.4-.3 4.8-.5 7.1-1l7-1.4 3.5-.8 1.8-.5 1.7-.5 1.7-.5.9-.2.8-.3 3.4-1.1 3.4-1.3 1.7-.6 1.6-.7 1.7-.7 1.6-.7 3.3-1.5 1.6-.8 1.6-.9 1.6-.8 1.6-.9c4.1-2.3 8.1-4.9 12-7.7l1.5-1 1.4-1.1 2.8-2.3a85 85 0 0010.2-10 51.2 51.2 0 007.4-12.2 26 26 0 00-.7-20.8 20 20 0 00-9.9-10c-2.2-.9-4.5-1.6-6.8-2-2.4-.4-4.8-.6-7.2-.7z"/><path fill="#C4505D" fill-rule="nonzero" d="M170.7 27.3a53.6 53.6 0 0122-3.4c2 .2 3.8.6 5.6 1.2 1.8.6 3.5 1.4 5 2.5a16.6 16.6 0 017.1 14.8c0 1.9-.3 3.8-.7 5.6-1 3.7-2.4 7.2-4.2 10.5a64 64 0 01-6.2 9.4l-.9 1.1-1 1.1-1.8 2.1a79.3 79.3 0 01-12.8 11l-4.8 3a94.3 94.3 0 01-15.5 6.7l-1.4.4-1.3.3-2.8.7-2.8.6-2.7.5a37.5 37.5 0 01-8.5.2l-2.8-.7a8.4 8.4 0 01-4.2-3.7 7.7 7.7 0 01-.6-5.6c.4-1.8 1.3-3.5 2.3-5a26.3 26.3 0 015.9-6.1l-2 2a24.3 24.3 0 00-3.7 4.2c-1 1.5-1.8 3.2-2.2 5-.2 1-.3 1.8-.2 2.7a7 7 0 002.5 4.7c.7.6 1.5 1 2.4 1.4.8.3 1.7.6 2.6.7l2.8.2a75.9 75.9 0 0049.3-23.5l2-2.1.8-1.1 1-1.1c2.2-3 4.3-6 6-9.3 1.9-3.3 3.4-6.8 4.2-10.4.5-1.8.8-3.6.8-5.5.1-1.8 0-3.7-.6-5.5a16.1 16.1 0 00-6.1-9c-1.6-1-3.2-1.8-5-2.4a29 29 0 00-5.4-1.3 50 50 0 00-22 3z"/><path fill="#DFE7EA" fill-rule="nonzero" d="M213.5 223.5a30.5 30.5 0 009.6 8c1.1.7 2.4 1.2 3.7 1 2.9-.5 3-4.2 3.4-6.5l.4-2.5c.2-.7.5-1.5.3-2.3l-.1-1.2c-.3-1.3-1-2.6-1.3-4-.3-1-.5-2-.5-3v-1.4c0-.4 0-.8-.6-1-.6 0-1.3.6-1.5 1-.4.8-.5 1.6-.6 2.4l-.2 2.1-.3-.2a.7.7 0 01-.3-.4v-.3l-.1-.5-1-2.1c-.5-1.5-1-3-1.7-4.5l-.9-1.5c-.4-.6-1-1.3-1.8-1-.5 0-.9.6-1 1.1l.3 1.5 2.9 9-5.4-9.9c-.4-.6-1.1-1.4-1.9-1-.7.3-.6 1.3-.3 2l1 2.5 1.7 4.7.8 2.4.4.6c.2.3.2.6.2 1a9.4 9.4 0 01-2-2.8c-1-1.6-1.4-3.3-2.3-4.9a10 10 0 00-1.1-1.7l-.5-.3c-.6 0-1.1.5-1.3 1a37.5 37.5 0 003.1 9c.4.7.8 1.5 1.3 2 .3.5.6.8.7 1.4a14 14 0 01-3.2-4.1c-.2-.4-.3-.8-.7-1-.3-.3-.8-.4-1.2-.3-.2.1-.3.2-.3.4v.7c.4 1.7 1.3 3.2 2.3 4.6z"/><path fill="#C3DBE0" fill-rule="nonzero" d="M225.4 232.7c.6-2.6 5-10.2 6.6-9.6 1.5.6 3 1.4 4.7 1.4 0 0 .6 13 0 13.5a21.8 21.8 0 01-11.3-5.3z"/><path fill="#4F91C3" fill-rule="nonzero" d="M198 43.2c0 .6-.3 1.1-.7 1.5l-1.3 1c-1 .5-2 1-3.1 1.3-2.2.7-4.4 1.1-6.6 1.5a91.9 91.9 0 01-33.6-1.3l-3.2-1.3-1.4-1c-.4-.5-.7-1-.8-1.6 0-.7.4-1.2.8-1.6l1.4-1a43.5 43.5 0 019.8-2.7 88 88 0 0133.6 1.6c1 .3 2.1.7 3.1 1.3.5.2 1 .5 1.4 1 .3.2.7.8.7 1.3zm0 0c0-.5-.3-1-.7-1.4l-1.3-1c-1-.5-2-1-3.1-1.3-2.2-.7-4.4-1.1-6.6-1.5a87.5 87.5 0 00-33.5 1.7c-1 .3-2.1.7-3.1 1.2-.5.3-1 .6-1.3 1-.4.4-.7.8-.7 1.3 0 .6.3 1 .7 1.4l1.3 1 3 1.2a91.5 91.5 0 0040 .2c1.2-.3 2.3-.7 3.3-1.3.5-.3 1-.6 1.3-1 .4-.4.8-.9.8-1.5z"/><circle cx="145.8" cy="12.7" r="1" fill="#FFF" fill-rule="nonzero"/><path fill="#C6D3D8" fill-rule="nonzero" d="M315.3 369.3s3.3 3.1 8.6.6c0 0 5 .2 5.6 1.4.6 1.3 12.9 3.8 15.8-2.2 0 0 5.8 1 6.2 3 .3 1.5-13.5 5.5-26.3 2.2-6.2-1.6-10-5-10-5z"/></g></svg>