<svg xmlns="http://www.w3.org/2000/svg" viewBox="0 0 400 400"><g fill="none" fill-rule="evenodd"><path d="M11.4 259.9h378.9"/><path fill="#000" fill-rule="nonzero" d="M11.4 259.9l47.4-.2 47.4-.1 94.7-.1 94.7.1 47.4.1 47.3.2-47.3.2-47.4.1-94.7.1-94.7-.1-47.4-.1z"/><path fill="#E2D6C7" fill-rule="nonzero" d="M130.8 150c.7-1 2-2 3.8-2 1.1 0 2.2.6 2.8 1.2.6.6.8 1.4 1 2.1.1 1.3 0 2.5-.4 3.7-.3.8-.7 1.8-2.1 2a5 5 0 01-5.5-3c-.5-1.3-.4-2.7.4-4zm12 23.3c-1-1.3-1.5-3-.8-4.5.6-1.4 2.8-2.1 3.8-1 .8 1 .6 2.3.4 3.4-.2.9-.5 1.8-1.2 2.4-.6.6-1.7.8-2.3.1"/><ellipse cx="132.9" cy="301.8" fill="#CAD7DD" fill-rule="nonzero" rx="46.2" ry="7"/><path fill="#C99F62" fill-rule="nonzero" d="M227.8 186.6c0 .2-.2.4-.4.6-4.5 3.3-46.7 5.8-98.2 5.8-54.4 0-98.5-2.9-98.5-6.4 0-3.6 44.2-6.5 98.5-6.5 54.5 0 98.6 3 98.6 6.5z"/><g fill-rule="nonzero"><path fill="#CADCDD" d="M170.9 136.4l16-25.8-6.2-3.5-13.8 27c-16 7-49.2 24.6-50.9 50.9a24.9 24.9 0 0012.3 22.6c1.3.8 13.2 7.7 25.4-.7 21.4-14.8 19.6-52.8 17.2-70.5zm-35.7 71.1c3.6-1.2 9-4.4 15.5-12.6 6-7.7 14-22.7 18.3-51.2 3.8 41.8-10.5 56.5-16.8 60.9a20 20 0 01-17 2.9zm31.1-64.9c-4 28.3-12 43.1-17.8 50.5-6.2 8-11.2 10.9-14.2 11.8-1.3.5-2.4.6-3.2.5l35.2-62.7zM127.5 201c-.7-3.2-.7-9 2.8-18.5 3.3-9 11.9-23.3 33.7-41.3l-35.3 62.9a10 10 0 01-1.2-3.1zm34.3-61.5c-22 18.2-30.6 32.8-34 42a36.4 36.4 0 00-3 20 20.9 20.9 0 01-6-16.4c.5-7.8 5.7-27.8 43-45.6z"/><g fill="#4F8E99"><path d="M170.9 136.4l15.8-25.8v.1l-6-3.5.3-.1-13.7 27v.1h-.2a163 163 0 00-22.5 12.2c-3.6 2.3-7 4.9-10.2 7.6a70.1 70.1 0 00-8.9 9.2l-1.9 2.5-.9 1.3-.8 1.4-.4.7-.4.7-.8 1.4-.6 1.4-.4.7-.3.8-.6 1.4-.4 1.5-.3.8-.2.8-.4 1.5-.2 1.6-.2.7v.8l-.2 1.6v1.6a22.7 22.7 0 003.2 12 25 25 0 0024.1 11.8 22.3 22.3 0 0011.5-5l.6-.5.7-.5 1.1-1.1 1.1-1.1 1.1-1.2 2-2.5a42 42 0 003.3-5.5l1.3-2.9c.3-.4.4-1 .6-1.4l.6-1.5a109.6 109.6 0 004.5-25.1c.3-8.4-.2-17-1.2-25.5zm0 0a146 146 0 011.3 25.6 87 87 0 01-4.2 25.3l-.7 1.4-.6 1.5-1.3 3c-1 1.9-2.1 3.7-3.3 5.5l-2 2.5-1 1.3-1.2 1.1-1.2 1.1-.6.6-.6.5-2.6 1.9a23.1 23.1 0 01-18.8 2.7 24.3 24.3 0 01-11.1-6.5 27.5 27.5 0 01-5.5-8c-.5-1-.8-2-1.1-3a24 24 0 01-.9-6.5v-1.6l.2-1.6v-.8l.2-.8.3-1.6.4-1.6.2-.8.2-.8.5-1.5.6-1.5.3-.7.4-.8.7-1.4.7-1.5.4-.7.4-.7.9-1.3.9-1.3c.6-1 1.3-1.8 2-2.6 2.6-3.4 5.7-6.4 9-9.2a110 110 0 0110.2-7.8 146 146 0 0122.7-12l-.1.1 14-26.9v-.2l.3.1 6 3.6h.2l-.1.2-16.1 25.7z"/><path d="M135.3 207.5l2.1-1 2-1a33.5 33.5 0 007.2-6.1l1.5-1.8 1.5-1.8c4-4.8 7-10.3 9.5-16l1.7-4.4 1.5-4.4.7-2.2.7-2.3 1.3-4.5a187 187 0 003.6-18.4l.5-3.3.3 3.4a152.6 152.6 0 01.4 20.9 89.5 89.5 0 01-3.9 20.6l-.4 1.2-.5 1.2-1 2.4-2.5 4.7a34 34 0 01-6.6 8 20.4 20.4 0 01-19.6 4.7zm0 0a22 22 0 0010.2 0c3.4-.9 6.5-2.7 9-5a35.2 35.2 0 008.8-12.8l1-2.4.5-1.2.4-1.2a79.7 79.7 0 003.8-20.4c.2-3.5.2-7 .1-10.4v-2.6l-.2-2.6v-1.2l-.1-1.3-.2-2.6h.7c-1 6.2-2.1 12.4-3.7 18.4-1.5 6.1-3.5 12-6 17.9a67.1 67.1 0 01-9.7 16l-1.5 1.8-1.6 1.7a51 51 0 01-7.3 6l-2 1.1-2.3.8z"/><path d="M166.3 142.7l-.6 4.6-.9 4.8-.9 4.6-1 4.7-1.3 4.6c-.4 1.5-.8 3-1.4 4.5l-.7 2.3-.8 2.2-.9 2.2-.9 2.2a71 71 0 01-4.3 8.5l-1.3 2a40.6 40.6 0 01-4.3 5.8 45 45 0 01-7 6.6c-1.2 1-2.6 1.8-4.1 2.5-1.5.6-3.1 1.1-4.8 1h-.7l.4-.5 8.9-15.8 9-15.7 8.9-15.6 8.7-15.6zm0 0l-8.7 15.8-8.7 15.8-8.7 15.7-8.7 15.7-.4-.6c1.5 0 3-.4 4.5-1 1.4-.6 2.7-1.5 4-2.4a62.5 62.5 0 0016.7-22.6l1-2.2.8-2.1.9-2.3.8-2.2 1.4-4.5 1.3-4.6 1.2-4.6 1-4.6.9-4.7.7-4.7zM127.5 201c-.3-1.5-.4-3-.3-4.5 0-1.5.2-3 .4-4.6a49.1 49.1 0 012.5-8.7 63 63 0 018.5-16c3.5-5 7.5-9.6 11.8-14 4.2-4.3 8.7-8.3 13.4-12.2l1.7-1.4-1.1 1.9-8.9 15.7-9 15.6-8.9 15.6-8.8 15.7c-.6-1-1-2-1.3-3.1zm0 0c.3 1 .7 2.1 1.2 3l8.8-15.7 8.7-15.8c2.9-5.2 5.7-10.5 8.7-15.7l8.7-15.7.6.5c-4.6 3.8-9.2 7.9-13.4 12.1-4.3 4.3-8.4 8.8-12 13.7a64.7 64.7 0 00-11.2 24.6l-.5 4.5c0 1.5.1 3 .4 4.5z"/><path d="M161.8 139.5l-3.6 3-3.4 3.2-3.4 3.3-3.3 3.3a127 127 0 00-12 14.4 68 68 0 00-11 25.6 30 30 0 00.2 9.1l.2 1.4-1-1a21.5 21.5 0 01-5.8-19.5 35 35 0 013.5-10 47 47 0 015.8-8.7 88.4 88.4 0 0124.5-19.4l2.3-1.2 2.3-1.2 1.1-.6 1.2-.6 2.4-1.1zm0 0l-2.5 1.2-1.1.6-1.2.6-2.3 1.2-2.2 1.3c-3 1.8-6 3.6-8.8 5.6-5.7 4-11 8.6-15.3 14a49.7 49.7 0 00-5.7 8.6 34 34 0 00-3.3 9.8c-.6 3.3-.5 6.9.5 10.1a19.8 19.8 0 005.2 8.7l-.7.4c-.3-1.6-.4-3.2-.4-4.7a36.5 36.5 0 011.4-9.4 62.8 62.8 0 0110.2-21.1 104 104 0 0112.1-14.3c1.2-1.1 2.2-2.3 3.4-3.3l3.5-3.2 3.5-3 3.6-3.1z"/></g></g><path fill="#E2D6C7" fill-rule="nonzero" d="M168.2 179.7l1.2-1.1c1.2-1 2.5-2 4-2.1 1.4-.2 3.1.6 3.5 2.1.5 2.2-1.7 4.7-.3 6.4.6.8 1.7 1 2.4 1.5 1.4 1 1.4 3.3.5 4.8a8 8 0 01-2.4 2.5l-1.4.8c-1.7 1-3 2.3-4.8 3a9 9 0 01-7.8-.7c-3.2-2-2.4-5.2-1.2-8.2 1.5-3.3 3.6-6.4 6.3-9zm-62 6.3a18.4 18.4 0 00-5-4.1c-1.4-.8-3-1.4-4.4-1-1.5.5-2.6 2.3-2 3.6.6.9 1.6 1.3 2 2.2.4.8 0 2.2-1 2.5-.7.2-1.5-.2-2.3.1a4 4 0 00-2 2.1c-.4 1-.4 2.3.2 3.3 1 1.6 3.1 2 5 2l6.6.7c2.5.3 4.8.2 6-2.3 1.3-2.5-.6-5.5-2-7.5l-1.1-1.6z"/><g fill-rule="nonzero"><path fill="#4F8E99" d="M171.4 131c-5.6-3.3-2.5-8.1.8-13.9l42.4-87.2a11.7 11.7 0 0116.1-4.5 12.1 12.1 0 014.5 16.4L183 124.1c-3.2 5.7-5.8 10.1-11.5 6.9z"/><path fill="#BDCDD6" d="M171.4 131l-1.6-1.3c-.5-.4-.9-1-1.2-1.6l-.2-1v-1c0-.7.1-1.4.3-2 .9-2.7 2.4-5 3.7-7.4l7.2-14.8 14.2-29.7 14.4-29.6 3.6-7.4 1.8-3.7 1-1.9.5-.9.7-.8a12 12 0 0120.7 3.8c.9 2.6.9 5.6 0 8.2l-.4 1-.5 1-1 1.7-2.4 3.6-4.4 7L210 81.9l-17.7 27.7-8.8 13.9c-1.5 2.3-2.6 4.8-4.6 6.8-.4.5-1 1-1.6 1.3-.5.3-1.2.6-1.9.6a5 5 0 01-2-.3c-.8-.2-1.4-.5-2-.8zm0 0l2 .8a5 5 0 002 .2c.6 0 1.3-.2 1.9-.6.6-.3 1.1-.7 1.6-1.3 1.8-2 3-4.5 4.5-6.8l8.8-14.1 17.5-27.8 17.5-27.7 4.4-7 2.1-3.5 1.1-1.7.5-1 .3-.8a11.8 11.8 0 00-5-13.8 11.3 11.3 0 00-14.4 2.3l-.6.8-.5.9c-.4.5-.6 1.2-1 1.8l-1.7 3.7-3.7 7.4-14.5 29.6-14.5 29.5-7.2 14.8c-1.3 2.4-2.8 4.7-3.7 7.3a8 8 0 00-.4 2v1l.3 1c.3.7.7 1.3 1.2 1.7.4.5 1 .9 1.5 1.3z"/></g><path fill="#E6EFEF" fill-rule="nonzero" d="M227.7 187.2s17.6 74.8-66.5 109.4a60 60 0 01-23.9 4.5l-17.3-.3a60.5 60.5 0 01-21.5-4.3c-85.6-34.3-67.8-110-67.8-110 0 3.7 44.2 6.5 98.5 6.5 51.5 0 93.7-2.6 98.2-5.8h.3z"/><path fill="#CADCDD" fill-rule="nonzero" d="M125.3 271A126 126 0 0134 234c7.3 22 24.8 46.6 64.4 62.6a59.8 59.8 0 0021.5 4.3l17.3.2c8.2.2 16.4-1.4 24-4.5 47.8-19.7 62.7-52.5 66.7-77-20.3 30.7-58.6 51.4-102.7 51.4z"/><path fill="#4F8E99" fill-rule="nonzero" d="M30.7 186.6a102.6 102.6 0 002.1 42.6 90.2 90.2 0 0020.6 37.1 113 113 0 0016 14.2l2.3 1.5 2.2 1.5L76 285l1.1.7 1.2.7c3 1.8 6.2 3.5 9.4 5l4.9 2.4 2.4 1 2.5 1a58.7 58.7 0 0020.8 4.7h5.4l5.3.2h5.4l5.4.1a58.4 58.4 0 0020.8-4.3c3.3-1.4 6.6-2.8 9.8-4.4l4.8-2.5 2.3-1.2 1.2-.7 1.2-.7a112.5 112.5 0 0025-20 93.5 93.5 0 0020.6-37.2 96.7 96.7 0 003.6-21.2 99.5 99.5 0 01-6.7 31.5 90.4 90.4 0 01-17.1 27.2 102 102 0 01-26.3 21l-1.2.6-2.3 1.3-4.8 2.4c-3.2 1.6-6.5 3-9.8 4.5a61.1 61.1 0 01-21 4.4h-5.4l-5.4-.1-5.4-.1-5.4-.1a59.4 59.4 0 01-21-4.7l-2.5-1a77.2 77.2 0 01-7.3-3.4c-3.2-1.6-6.4-3.3-9.5-5.1l-1.1-.7-1.2-.7-2.2-1.5-2.3-1.5-2.2-1.5a113.6 113.6 0 01-16-14.3A90.4 90.4 0 0129.1 208a94 94 0 011.5-21.5z"/><path fill="#BDCDD6" fill-rule="nonzero" d="M172.1 117.1a13.4 13.4 0 004.4 4.8l.8.4.3.3.4.1.7.4.8.2.4.2h.4l.8.3 1.7.3-1.7.2h-1.3l-.5-.1-.9-.2c-.3 0-.6-.2-.8-.3l-.4-.2-.4-.2-.8-.4a8.4 8.4 0 01-3.9-5.8zm2.2-4.3a13.4 13.4 0 004.4 4.8l.7.4.4.2.3.2.8.3.8.3.4.1.4.1.8.2 1.7.4-1.8.2h-.9l-.4-.1h-.4l-1-.2c-.2-.1-.5-.3-.8-.3l-.4-.2-.4-.2-.8-.4c-1-.7-1.9-1.5-2.6-2.5-.6-1-1.1-2.2-1.2-3.3z"/><ellipse cx="157.9" cy="350" fill="#CAD7DD" fill-rule="nonzero" rx="46.2" ry="7"/><ellipse cx="256.8" cy="329.7" fill="#CAD7DD" fill-rule="nonzero" rx="106.5" ry="23.4"/><path fill="#FFF" fill-rule="nonzero" d="M306.5 322c-2.1.2-4.3.7-6.3 1.3-3.8 0-4.6-.9-4.6-.9l-.2-.3a18 18 0 002.4-2.3c.3-.4.6-.8.5-1.3l-.6-.6-1.2-.8a8.3 8.3 0 003.5-2.3 7 7 0 001-1.9c0-.7-.2-1.5-.8-1.9-.7-.4-1.6-.1-2.3.1l2.5-2c.7-.9 1.3-1.9 1.3-3 0-.3 0-.7-.2-1-.4-.4-1.1-.6-1.6-.2l.5-1.4c.6-2.4.4-5-.8-7 0-.2 0-.3-.2-.3-.2-.1-.4 0-.5.2-.6.6-1 1.5-1.3 2.2-1.6 3.7-3.9 7-6.5 10l-.1-.1v-.1a53.5 53.5 0 00-26.3-12.7c-1.6-4.6-3.1-10-4.6-14.5a91.3 91.3 0 01-4.3-17.4c-.4-4-.4-8 1-11.7.4-1 .9-2 1.7-2.6 1-1 2.4-1.3 3.8-1.3 3.4 0 6.3 2.3 9 4.5a196 196 0 0124.5 23.7c3.5 4.3 6.7 9 9.3 13.9 7.3 4.2 16 4.9 24.4 4.9h.3l3.5-.3a86.4 86.4 0 0127 2.7l4.8 1.6c3.5 1.3 7.1 3.3 8.4 6.8 1.2 3.3 0 7-2.4 9.6-2.4 2.5-5.6 4-8.8 5.2-16.2 6-33.9 5.5-51 8-2.3-2-3.8-4.2-4.8-6.9z"/><path fill="#C5505D" fill-rule="nonzero" d="M173.8 331.2a11 11 0 01-6.7-2c-.3-.3-.7-.6-.7-1 0-.3.1-.6.3-.8.4-.6 1-1 1.5-1.4 2.2-1.6 5-2.2 7.6-1.6.2 1.5.3 3.1.2 4.7 0 .6-.2 1.3-.6 1.7-.4.4-1 .4-1.6.4z"/><path fill="#0C2A3E" fill-rule="nonzero" d="M195.4 333.7a6 6 0 01-2.3-1.3c.4-.1.6-.4.9-.7.4-.8.4-1.8.2-2.7.5 1 1.8 1.6 3 1.2l.3-.2a6 6 0 010 2.3c0 .3-.2.6-.3.8-.3.4-.7.6-1.2.6h-.6zm-4.9 12.3c.1.9-.2 1.9-1 2.4-.6.5-1.5.7-2.3.4h-.7c-1.8-1.4-4-2-6.2-2.2-2.5-.1-5 .2-7.5.2l-2.8-.2.2-1.2c2-1 3.9-2.5 5.2-4.3 1.2.7 2.7.9 4.1.8 1.4-.1 3-.4 4.3-.3 2 .2 3.8 1 5.2 2.3.7.5 1.3 1.2 1.5 2z"/><path fill="#EDF3F4" fill-rule="nonzero" d="M291 293.8l-1.2-4.7c-.4-1-.7-2.3-1.2-3.3-1.8-4.2-3.5-8.4-5.8-12.4-2.2-4-5-7.6-8.6-10.3-.3 3.3-.2 6.6.2 9.9a104 104 0 004.7 20l3.1 9c3.1 1.9 6 4 8.8 6.4v.1c1.2-1.2 2.2-2.5 3.2-3.8l-.2-.5c-1.2-3.4-2-6.9-3-10.4zm45.3 18.4c2-.6 4-1.1 5.9-1.8a31 31 0 0010.2-5 21 21 0 00-2.5-1.3 30.7 30.7 0 00-13.8-2 91 91 0 00-13.9 2.3l-4.4 1.1-3.9 1.3c-3.3 1.2-6.5 2.5-9.9 3.4-1.2.4-2.4.8-3.7 1 .5.3.8 1 .7 1.8a4 4 0 01-1 1.9c-1 1-2.1 1.9-3.5 2.3l1.2.8c.2.2.5.3.6.6.2.5-.1 1-.4 1.3-.7.8-1.6 1.6-2.5 2.3l.2.3s.9 1 4.6 1a41 41 0 016.3-1.5l.9 2c8-2.8 15.7-6.5 23.5-9.8 1.7-.9 3.6-1.4 5.4-2z"/><path fill="#C5505D" fill-rule="nonzero" d="M194.3 328.6c-.4.2-.9.1-1.3 0-.5-.1-1-.3-1.5-.8.5-1 1.6-1.9 2.7-2h.6c.2.2.4.4.4.6v.8c-.2.5-.4 1.2-1 1.4z"/><circle cx="184.4" cy="326.5" r="1.3" fill="#0C2A3E" fill-rule="nonzero"/><path fill="#0C2A3E" fill-rule="nonzero" d="M193.6 321.6c-.3.2-.4.5-.4.9 0 .6.5 1.2 1.1 1.2l.6.1M373.4 183c.9.8 1.2 2 1 3.2a6.4 6.4 0 01-1.4 3.1c-.5.7-1 1.2-1.7 1.7a5.4 5.4 0 00-5.2.7c-.3.3-.6.7-.4 1 .2.3.5.3.8.3a9 9 0 004.7-2c.8.3 1.5.8 2 1.4 1.8 2 1.9 5.3.2 7.3-.5.6-1.2 1-1.8 1.3a8.3 8.3 0 00-4-.9c-.5 0-1 0-1.4.5a6 6 0 005.4.5c.4.2.8.6 1 1 .9 1.2.8 2.8-.1 3.9-1.3 1.5-3.7 1.5-5.5 1-2-.7-3.8-1.7-5.7-1.8h-.1v-2.4a13 13 0 00-3.1-9c-1-1.2-2.5-2-4-2.5.3-4 1.4-7.4 3.9-10.6 1.5-2 3.7-3.9 6.3-4 .7 0 1.4 0 2 .4.8.6 1.2 1.4 1.4 2.4.3 1 .2 2-.2 2.9-1.5.3-3 .8-4 1.9-.4.3-.7.8-.6 1.2.2.5 1 .5 1.6.3 1.5-.6 2.5-2 3-3.4a17 17 0 011.9-.3c1.5-.2 3 0 4 .9z"/><path fill="#0C2A3E" fill-rule="nonzero" d="M345.8 197.3l-.4.5c-3 0-5.9 1.2-8.2 3a24.3 24.3 0 00-8.9 19.8h-.4a28 28 0 013.7-19.7c3.7-5.8 10-9.8 16.7-10.4 2-.1 4 0 5.8.7a10 10 0 014 2.5c2.3 2.3 3 5.7 3.2 9v2.4a32.5 32.5 0 01-6.6 17.4l-1-.5c.5-.6 1-1.2 1-2 0-.3 0-.7-.3-1-.6-1.1-1.8-1.6-3-1.6a4 4 0 00-2 .7l-.1-.3a14 14 0 01-1.2-6.4v-6.9c-.1-2.3-.5-4.6-1.8-6.5a10 10 0 00-.5-.7z"/><path fill="#C5505D" fill-rule="nonzero" d="M296.9 274.2a188 188 0 0112.4-23.4 51 51 0 017.3-9.3l-.7-.8a12.8 12.8 0 002.5-4c.4-1 .8-2.2 1-3.4v-.2h.1c2.8-.7 5.7.1 8.5.9-1.7.1-3.3.2-4.7 1-.9.5-1.6 1.4-1.6 2.4 0 .7.3 1.3.7 1.7.4.5 1 .9 1.5 1.1a17.3 17.3 0 0011.6 1.5l1.4-.6c.4-.3.8-.6.8-1s0-.7-.2-1c-.1-.4-.4-.7-.6-1 2.3 1.8 5.6 2.4 7.4 4.9.7.9 1 2 1.4 3.1 2.6 8.5 4 17.3 6 26A71 71 0 00361 297l-.8.6c-3.2-1-6.4-1.6-9.6-2a34.8 34.8 0 01-5.8-8.7l-1-1.8a83.5 83.5 0 01-5-12.3l-2.6-7.5a59 59 0 01-2-7.2 65.4 65.4 0 00-3 16c-.7 7-1.5 14-1.5 21h-.3a48 48 0 01-24.3-4.8 85 85 0 00-9.4-14l.3-.1.9-2z"/><path fill="#FFF" fill-rule="nonzero" d="M349.5 218.1c.6-.3 1.3-.6 2-.6 1.1-.1 2.3.4 3 1.5.2.3.3.7.3 1.1 0 .8-.6 1.4-1.1 1.9a9.5 9.5 0 01-6 2.5c-.4 0-.8 0-1 .2-.5.2-.9.5-1.2.8a18.2 18.2 0 01-7.5 5l-.6.3h-.2l-1.6.2a6 6 0 01-3.2-.7c-.5-.3-1-.7-1.4-1.3l-1-1.5a18.8 18.8 0 01-1.8-10 24.3 24.3 0 018.9-16.6c2.4-1.8 5.2-3 8.2-3l.4-.5.6.7a14 14 0 011.7 6.6v6.8a15.6 15.6 0 001.4 6.7zm-7-1.7c0-.1.1-.3 0-.4l-.3-.2c-.3.3-.4.7-.4 1.1l.1.4.4-.1c.2-.2.2-.5.3-.8zm-10.2-3.7v-.5c-.2-.2-.5-.1-.5.1-.3.3-.4.7-.4 1.1l.1.3h.4l.2-.4.2-.6z"/><path fill="#0C2A3E" fill-rule="nonzero" d="M353.7 222l1 .5a18.5 18.5 0 01-4.3 3.1c-3.9 2.2-8 3.9-12.4 5a20 20 0 007.5-5.1c.4-.3.7-.7 1.1-.8.4-.2.8-.2 1.1-.2a9 9 0 006-2.5z"/><path fill="#FFF" fill-rule="nonzero" d="M328 234c1-1.6 2-3.2 2.9-5 .5.5 1 1 1.5 1.3 1 .5 2 .7 3.2.7l1.6-.2v.4c-.9 1.7-1.6 3.5-1.9 5.4h.2v.1l1.4 1.4.7 1 .2 1c0 .4-.5.7-.9 1-.4.3-.9.5-1.3.6a17.7 17.7 0 01-11.6-1.5 6 6 0 01-1.5-1c-.4-.5-.8-1.1-.8-1.8 0-1 .8-1.9 1.7-2.4 1.3-.8 3-.8 4.5-1z"/><path fill="#C99F62" fill-rule="nonzero" d="M316.6 214.5c2.1 4.5 3.3 9.6 3.2 14.7h-.8v-.2c0-.8-.5-1.6-.6-2.4-.2-.7 0-1.5 0-2.2a6 6 0 00-1.2-3.5c-.6-2.8-1.7-5.5-3.5-7.5-.5-.6-1-1-1.7-1.4.7-.2 1.4-.4 2.1-.2 1.2.3 2 1.5 2.5 2.7zm3.2 14.7a30 30 0 01-.4 3.9v.2a17.5 17.5 0 01-2 5.4 7.7 7.7 0 01-4.3 3.7l.2-.7c0-.2 0-.4.2-.6.1-.2.4-.3.7-.4.7-.2 1.2-.8 1.4-1.5l.3-.7c.4-.7 1.1-1 1.5-1.6.2-.1.2-.2.3-.4.4-1 0-2.5.2-3.7.2-1.3 1.1-2.4 1.1-3.6h.8z"/><path fill="#FFF" fill-rule="nonzero" d="M319 229v.2c0 1.2-1 2.3-1.1 3.6-.2 1.2.2 2.6-.2 3.7l-.3.4c-.4.6-1.1.9-1.5 1.6l-.3.7c-.2.7-.8 1.3-1.4 1.5-.3.1-.6.2-.7.4-.2.2-.2.4-.2.6l-.1.7a3 3 0 01-.9 1.7c-.6.5-1.7.5-2.1-.3-.2-.3-.2-.7-.5-.8h-.3l-.2-1a8 8 0 003.9-1.7 11 11 0 003.6-6 37.4 37.4 0 00.4-13v-.3a6 6 0 011.2 3.5v2.2c.2.7.7 1.5.7 2.3z"/><path fill="#C99F62" fill-rule="nonzero" d="M306.9 240l-.1-1c-.3-1-1-1.9-1.8-2.7a9.8 9.8 0 01-1.8-2.7c-.3-1 0-2.4.8-3 1.1-.7 2.6 0 3.9-.3.6 0 1.3-.6 1-1.2 0-.3-.4-.4-.6-.6h.8a1 1 0 000-1c.5 0 1.1 0 1.4-.5.2-.5 0-1.1-.4-1.5-.6-.6-1.3-.8-2-1a51.8 51.8 0 00-5.9-1.6 4 4 0 00-1.7.8l-1.3.8c-.9-4.3 1-9 4.5-11.7 2.2-1.7 5.3-2.4 7.8-1.1.2 0 .4.1.5.3.6.3 1.2.9 1.7 1.4 1.9 2 3 4.7 3.4 7.5l.1.3c.5 2.9.4 5.8.1 8.7 0 1.5-.2 2.9-.5 4.3a11 11 0 01-3.7 6 9.1 9.1 0 01-3.8 1.7 8 8 0 01-2.7.1c.1-.6.3-1.3.3-2z"/><path fill="#C5505D" fill-rule="nonzero" d="M316 240.7l.6.7a51 51 0 00-7.2 9.4l-1-.7-.9-4.5-.1-.3-1.4-1 .3-1.2h.1c.3.5.5 1 1 1.3.5.3 1.1.3 1.5-.2l.2-.8.4-.4h.2c.3 0 .4.5.5.7.4.8 1.5.8 2.2.3.4-.4.7-1 .8-1.7 1-.3 2-.8 2.7-1.6z"/><path fill="#4D876D" fill-rule="nonzero" d="M311.7 345a25.6 25.6 0 01-11-14l-.7-1.8c-.8-1.2-2.2-1.8-3-3a1 1 0 01-.2-.6c0-.3.2-.6.4-.8a7 7 0 013-1.5 41 41 0 016.3-1.4c1 2.7 2.4 4.8 4.7 6.9-.7 2.4-.6 5-.2 7.5l1.5 7.5c0 .4.1.8-.1 1-.1.4-.5.4-.7.3z"/><path fill="#FFF" fill-rule="nonzero" d="M298.7 244.7l-1.8-6.8c-.7-2.7-1.3-5.6-1.2-8.5 0-.6.1-1.3.4-2 .3-.7 1-1.2 1.6-1.7l1.5-1.2 1.3-.8a4 4 0 011.7-.8 44.8 44.8 0 015.9 1.5l2 1c.4.4.6 1 .4 1.6-.3.4-.9.5-1.4.5.2.3.2.7 0 1h-.8c.2.2.5.3.6.6.2.6-.4 1.1-1 1.2-1.3.3-2.7-.4-3.9.4-.9.5-1 1.9-.8 3 .4 1 1.1 1.8 1.8 2.6.8.8 1.5 1.7 1.8 2.8v1c0 .6 0 1.3-.3 2a35.3 35.3 0 01-.6 2.3c.5.1 1 .4 1.4.8l.2.4-.1.3a3 3 0 01-1.5.7 16 16 0 01-7.2.3 2 2 0 01-1-.4l-.3-.5.2-.8 1.1-.5z"/><path fill="#FFF" fill-rule="nonzero" d="M309.2 242l.2 1-.3.4c-.1.3-.1.6-.3.8-.3.5-1 .5-1.4.2a3 3 0 01-1-1.3h-.1l.3-1h2.6z"/><path fill="#C5505D" fill-rule="nonzero" d="M308.4 250.1l1 .7-1.3 2c-4.2 6.8-8 14-11.2 21.4-2-1.7-2.6-4.7-2.7-7.5a62 62 0 013.3-20.7c0 .2.1.4.3.5l1 .4c2.3.6 4.8.4 7.2-.2.5-.2 1.1-.3 1.4-.8l.1-.3 1 4.5z"/><path fill="#FFF" fill-rule="nonzero" d="M283.9 324.5c.1-1.6-1.3-2.8-2.5-3.6-.4-.3-.7-.5-1.2-.5-.4 0-.8.3-.8.7 0 .3.2.5.3.7a9.8 9.8 0 004.2 2.7zm-7.5 1.5c.1-1-.5-2-1.2-2.8-.9-1.1-2-2.3-3.5-2.2-.3 0-.8.2-.8.6l.3.6c1.5 1.5 3.3 2.8 5.2 3.8zm-9.6-.8c.3-.6.3-1.3.2-2a6 6 0 00-4.1-4.4.6.6 0 00-.8.8c.8 2.3 2.7 4.1 4.7 5.6zm-11.5 3.2l-.2-.3.2.3zM251 325l-.5.1h.5zm-18.8-1.6a6.5 6.5 0 013-4.2l.1.6c.2.8.5 1.6 1.2 2 .8.5 2 .2 2.5-.5.7-.8.9-1.9.7-2.8 0-1-.5-1.9-.9-2.8 0-.3-.2-.7-.1-1l.2-.4c.6-.7 1.3-1.4 1.5-2.4.2-.5 0-1.2-.3-1.7a58 58 0 018-9.6c3.2-2.8 7-5 11.2-5.3a23.7 23.7 0 015.5.4 53.5 53.5 0 0126.3 12.7l.1.1a35 35 0 006.6-9.9c.3-.8.7-1.6 1.2-2.2l.6-.3.2.3a9.5 9.5 0 01.2 8.4c.6-.3 1.3-.2 1.6.3.2.3.3.6.3 1 0 1-.6 2.1-1.4 2.9-.7.8-1.6 1.3-2.5 2.1.8-.2 1.7-.5 2.4-.1.6.4.8 1.2.7 1.9 0 .7-.5 1.3-1 1.8-.9 1.1-2 2-3.4 2.4l1.1.7c.3.2.6.4.7.7 0 .4-.2.9-.5 1.2a14.8 14.8 0 01-4.5 3.8 8 8 0 01-3 2.6l.4.4c-3.2 3.7-8 6-13 6.1-.2 0-.2.2-.1.3l.3.4v.3a29.3 29.3 0 01-8.3 0 25.3 25.3 0 01-7-2l1.2 1.2.2.3c0 .3-.5.4-.8.3-1.4-.2-2.7-1-3.9-1.8a40 40 0 01-4-3.2c.3.3.4.7.3 1 0 .2-.1.2-.2.2-1.7-1-3-2.5-3.8-4.3l-.3.1v.4c0 .5-.6.8-1 1a73.5 73.5 0 01-4.3 2h.3c.3 0 .6.3.5.7-.1.5-.7.7-1.1.8l-5.7 1.9v-.1l-.1-.3-.4-.9-.4-.5c-.3-.2-.5-.1-.8-.1l-2-.3a2 2 0 01-1.5-1v-.2a8.3 8.3 0 01-3-5.6l.3.3h-.1zm6.3 3c.2-.2.2-.5 0-.7-.1-.2-.4-.3-.3 0 0 .3.1.5.3.7z"/><path fill="#C5505D" fill-rule="nonzero" d="M239.2 333v-.1l.5-.6.2-.2 5.7-1.8c.5-.2 1-.4 1.2-.9 0-.3-.2-.7-.6-.7l1.7-.8c.5.2 1 .6 1.3 1.1.4.5.5 1.2.2 1.7l-.7 1c-.6 1 0 2.2-.2 3.3-.2 1.3-1.4 2.3-2.6 2.9-1.5.8-3.2 1.3-5 1.5-.5 0-1.2 0-1.5-.4-.5-.5-.5-1.2-.3-1.9.2-.6.5-1.2.3-1.9 0-.4-.3-.7-.4-1.1 0-.4 0-.8.2-1.1zm-7.4-9.8c-1.7-2.1-3.4-4.5-3-7.2 0-1.4.7-2.6 1.8-3.4l.8-.8c.6-1 0-2 0-3 0-1.7 1.2-3.2 2.8-3.3 1.6-.1 3 1.3 3.2 2.8 0 .5 0 1.2.4 1.4.4.3 1 0 1.4.1.3 0 .5.2.7.5.4.4.6 1.1.4 1.7-.3.9-1 1.6-1.5 2.3a2 2 0 00-.3.4c0 .4 0 .7.2 1 .4 1 .8 1.8.9 2.8.1 1 0 2-.7 2.8-.6.7-1.8 1-2.6.5-.7-.4-1-1.2-1.1-2l-.2-.5a6.4 6.4 0 00-3 4.1l-.2-.2z"/><path fill="#C5505D" fill-rule="nonzero" d="M237.3 334.2v.2l-.3.3-.4-.3a10 10 0 01-1.8-5.4c.3.5 1 .8 1.5 1l2 .2h.8l.4.7.4.9v.2l-.1.2-.6.6-1.6 1.4h-.3z"/><path fill="#0C2A3E" fill-rule="nonzero" d="M198.8 328zm-27.4-6.7c.8-.4 1.6-.6 2.5-.7a8 8 0 012.5-2.7 13 13 0 018.2-2 12.3 12.3 0 018.8 5.2c-.3.5-.6 1.1-.6 1.7l.1 1c.2.2.6.2.9.3.6 0 1.2-.3 1.2-.3l.2.2.3.4.1.2.1.1.1.1a13704.3 13704.3 0 00.5.5l.3.2h.1l.2.1.4.3.5.3a2.9 2.9 0 01.6.6c.2.2.2.4.3.7v1.3l-.2.3-.1.2-.2.3-.2.1-.1.2h-.2c-.1.2-.3.3-.4.3-1 .4-2.4-.2-2.9-1.2.3.9.3 1.9-.2 2.7a2 2 0 01-.9.7 6 6 0 002.3 1.2l.6.1v.1l-.6.7a19.8 19.8 0 01-8.8 5.3c-2.4.6-5 .6-7.3-.4a8.7 8.7 0 01-5.1-5.1l-.1-.5a11 11 0 01-9-4c-.2-.4-.5-.8-.5-1.3 0-.4.3-.8.5-1.1 1.2-1.8 2.4-3.7 4.2-5 .6-.5 1.2-.9 1.9-1.1zm23.9 5.9v-.7c0-.3-.2-.5-.4-.6h-.6c-1.1 0-2.2.9-2.6 2 .4.5 1 .7 1.4.8.4 0 1 .2 1.3 0 .5-.2.8-.9.9-1.5zm-9.6.8c.4-.3.9-.7.8-1.2l-.2-.6c-.3-.5-.7-1.1-1.3-1.4a2 2 0 00-1.4 0 3.9 3.9 0 00-2.6 2.4c.4.8 1.3 1.3 2.2 1.4a4 4 0 002.5-.6zm-9.5 1.1c.2-1.6 0-3.2-.2-4.7a9.4 9.4 0 00-9.1 3c-.2.2-.3.5-.3.8 0 .4.4.7.7 1a11 11 0 006.7 2c.6 0 1.2 0 1.6-.4.4-.4.5-1 .6-1.7zm19.6-4.2l.2.1-.2-.1zm-.3-.4z"/><path fill="#0C2A3E" fill-rule="nonzero" d="M188.9 317.1a12.3 12.3 0 00-7.6-1c0-1.6.3-3 .8-4.4l.2-.3.4-.1c1 0 2 .6 2.7 1.3l2 2c.6.7 1.3 1.5 1.5 2.5zM135 342.6h-1 1zm-15.6-13.2c-.5-3.3-.1-6.8 1-10a19.3 19.3 0 0113.6-13c3.6-.8 7.5-.2 11 1.1 3.4 1.3 6.6 3.4 9.6 5.6 2.6 2 5.2 4 8 5.7 2.7 1.5 5.7 2.5 8.7 2.5-.7.2-1.3.6-1.8 1a20.4 20.4 0 00-4.3 5c-.2.4-.5.7-.5 1.2s.3 1 .6 1.3a11 11 0 009 4v.4a8.5 8.5 0 002.8 3.9 12.5 12.5 0 01-6.7 7.3l-.2 1.2 2.7.2c2.6 0 5-.3 7.6-.2 2.1.2 4.4.7 6.1 2.1l.4.3.4.3c.7.8 1.4 2 1.2 3 0 .3-.2.6-.3.8-.2.4-.6.7-1 .9l-1.2.3-2.6-.2c-2.2-.2-4.5.1-6.7.4a39 39 0 01-15.5-.7 22 22 0 01-8.7-4.9s-4 .5-4.8-.8c1 1.9.1 4.8-2 5.2-1 .3-2.1-.2-3.2-.6-4.8-1.8-10-4.8-15.2-4-1.2.2-7.5-3.5-.2-7.3a16.2 16.2 0 01-7.8-12z"/><path fill="#FFF" fill-rule="nonzero" d="M183.9 325.7c.3 0 .5.3.5.7 0 .3-.2.6-.5.6s-.6-.3-.6-.6c0-.4.2-.7.6-.7z"/><path fill="#0C2A3E" fill-rule="nonzero" d="M119.9 331.7a17 17 0 004.1 7.3c-1.8 2-5 2.2-7.6 2.3l-11.7.5c-2.6 0-5.5.3-7.4 2.1-.5.6-1 1.4-.8 2.2.2.5.7.8 1.1 1 1.4.7 3 .6 4.4.7 1.5.2 3.2.8 3.7 2.2.4 1 0 2.2-.6 3-.7.9-1.6 1.4-2.6 1.8-4.4 1.8-9.8.7-13.2-2.7a7.6 7.6 0 01-1.9-2.7c-.6-1.6-.4-3.5.1-5 .8-2.2 2-4.1 3.8-5.5 2.7-2.2 6.2-3 9.5-3.4 3.4-.4 6.9-.4 10.2-1 3.2-.8 6.4-2.3 8.4-5l.5 2.2z"/><path fill="#000" fill-rule="nonzero" d="M309 227.5c.4 0 .8 0 1-.3a.8.8 0 00.4-1c0-.3-.3-.6-.6-.8a4 4 0 00-1-.5l-2.3-.8-2.2-.6c-.8-.2-1.6-.5-2.2-.3-.7.2-1.3.7-2 1.1l-1.8 1.4c-.7.5-1.3 1-1.7 1.6-.4.5-.5 1.3-.5 2a26.1 26.1 0 00.7 7l1.1 4.6 1 4.7-.3-1.2-.3-1.1-.8-2.3-1.3-4.6a31.4 31.4 0 01-1-7.1l.2-1.3.5-1.2c.5-.8 1.2-1.3 1.8-1.7l2-1.4 1-.7 1.2-.5h1.3a55 55 0 015.7 2c.4 0 .7.3 1 .6.4.3.7.6.7 1v.7c-.1.2-.3.4-.5.4-.3.3-.7.3-1.1.3z"/><path fill="#000" fill-rule="nonzero" d="M298.8 227.6a17 17 0 012.4-2.2c.5-.3.9-.6 1.5-.8h1l.8.1 3 1.2c.5.2 1 .5 1.5 1 .2.2.3.4.3.8 0 .2 0 .6-.2.8.1-.3.1-.5 0-.8 0-.2-.2-.4-.4-.6-.4-.3-.9-.4-1.4-.6l-3-1c-.6-.2-1-.3-1.4-.2-.5.1-.9.4-1.3.7l-2.8 1.6z"/><path fill="#000" fill-rule="nonzero" d="M300 230a7.1 7.1 0 017.5-2.1l.4.1.5.2.5.3.4.7-.1.7-.5.4-.5.3a1 1 0 01-.3 0l-.3.1h-2c-.6 0-1.2 0-1.6.4a2 2 0 00-.6 1.5c0 .3 0 .6.2.8l.3.9c.6 1 1.7 2 2.4 3 .4.6.7 1.3.7 2 .2.7 0 1.4-.1 2-.4 1.4-1 2.5-1.2 3.8.1-1.3.6-2.5.8-3.8a5 5 0 000-1.9c0-.6-.4-1.1-.7-1.7-.7-1-1.8-1.8-2.5-3l-.5-1-.2-1a3 3 0 01.9-2.2l1-.5 1.2-.1 1.9.1h.3l.4-.2.3-.5-.5-.5-.4-.2-.4-.1a7.3 7.3 0 00-7.2 1.5z"/><path fill="#000" fill-rule="nonzero" d="M298.8 244.7l-.8.4a1 1 0 00-.5.6c0 .2 0 .4.2.6l.6.4c1 .3 2.1.4 3.2.4l3.2-.3 1.6-.4c.2 0 .5-.1.7-.3.2-.1.4-.3.4-.5l-.2-.4a3.7 3.7 0 00-1.3-.8c.3 0 .7.2 1 .4l.4.3.1.2s.2.1.2.3l-.2.4-.3.3-.8.4-1.6.4a15.2 15.2 0 01-4.9.2l-1.6-.4-.7-.5a1 1 0 01-.2-.9c.1-.3.4-.5.6-.6.3 0 .6-.1.8-.3h.1z"/><path fill="#FFF" fill-rule="nonzero" d="M307.5 245.6c.4.7.6 1.4.7 2.2.2.8.3 1.6.2 2.4l-.6-2.3-.3-2.3zM296 276.2a131.8 131.8 0 019.7-19.7l2.8-4.7a59 59 0 016.5-8.8c1.2-1.4 2.6-2.6 4-3.8a45.7 45.7 0 00-10.2 12.8l-2.8 4.7a200.9 200.9 0 00-10 19.5z"/><path fill="#000" fill-rule="nonzero" d="M337 238a2 2 0 01-1-.6l-.3-.3-.2-.5.4.2.4.4c.3.2.5.5.6.9zm-31.9 52.2l1.5.7 1.4.7 1.5.6 1.5.5a80.2 80.2 0 0012.5 2.1c2.2.2 4.3.3 6.5.3a100.5 100.5 0 01-6.4 0c-2.2 0-4.3-.3-6.4-.6-2.1-.4-4.2-.8-6.2-1.5l-1.5-.6-1.5-.6-1.4-.8-1.5-.8zm1.6 31.7c-1.4.2-3 .5-4.4 1l-2.1.6-2 .8a4 4 0 00-.9.7c-.2.2-.4.5-.3.8 0 .1 0 .3.2.4l.3.4.9.8 1.6 1.6c.5.6.6 1.4.9 2.1a26.2 26.2 0 0010.7 14 23 23 0 01-6.8-6c-1.9-2.3-3.3-5-4.3-7.8-.3-.7-.4-1.4-.9-2-.4-.6-1-1-1.5-1.6l-.9-.7-.3-.5a2 2 0 01-.4-.5v-.7l.5-.5c.2-.3.6-.5 1-.7a40.8 40.8 0 018.8-2.2zm4.6 6.8l-.4 2.1v2.2c0 1.4.2 2.8.4 4.3l.9 4.2.4 2.2v1c-.1.3-.2.5-.4.5h-.5v-.1h-.1v-.1.1h.5c.2 0 .3-.1.3-.3v-1l-.5-2.2a86 86 0 01-1-4.2 23.4 23.4 0 01-.2-6.6c.1-.8.3-1.5.6-2.1z"/><path fill="#FFF" fill-rule="nonzero" d="M348.5 197.8a8 8 0 011.4 2.2c.4.8.6 1.6.7 2.5.3 1.7.2 3.4 0 5.2l-.8 5-.4 2.6v2.5a16 16 0 010-5l.9-5.2c.2-1.6.3-3.3 0-5a10 10 0 00-1.8-4.8z"/><path fill="#000" fill-rule="nonzero" d="M331.8 212.3c-.2.3-.2.6-.2.9 0 .4.1.4.3.2l.1-.4.2-.5v-.3c-.1-.1-.4-.1-.4 0zm0 0l.1-.3h.3l.3.6-.1.5c0 .2-.1.4-.3.5v.2h-.3c-.1.1-.2.1-.4 0l-.2-.3v-.3c.1-.4.3-.7.6-1zm10.4 3.5l-.2.9v.4h.1c.2 0 .3-.3.3-.6v-.4c0-.1 0-.3-.2-.3zm0 0c.2-.1.4 0 .5.2v1c-.1.2-.2.4-.5.5h-.4a.4.4 0 01-.2-.3v-.5c.2-.4.3-.7.6-.9zm-4.7 15.2l-1 2.4a20.6 20.6 0 00-1 5l-.3 2.6c-.3-.9-.4-1.8-.4-2.7a11.6 11.6 0 012.7-7.4zm-6.6-2a14 14 0 01-1 2.5l-1.3 2.4a19.1 19.1 0 01-3.5 4c.4-.9.9-1.6 1.4-2.3l1.4-2.2 1.5-2.2 1.5-2.2zm-31.6-4.3A12 12 0 01302 214c.9-1 2-1.8 3-2.4a8 8 0 013.9-.9 6.6 6.6 0 013.7 1.2c2.2 1.6 3.5 4 4.3 6.4.8 2.4 1 5 1 7.5l-.2 3.8c0 1.3-.2 2.6-.4 3.8-.5 2.5-1.8 5-3.7 6.6a9 9 0 01-3.3 1.8 7 7 0 01-3.8.2c2.5.3 5-.6 6.9-2.3a11 11 0 003.3-6.4c.2-1.2.2-2.5.3-3.7l.1-3.8c0-2.5-.2-5-1-7.3a14.6 14.6 0 00-2.6-4.8l-1.3-1.2c-1-.7-2.1-1.1-3.3-1.1a8 8 0 00-3.5.7c-2.2 1-4 3-5 5.2a11.9 11.9 0 00-1.1 7.4z"/><path fill="#FFF" fill-rule="nonzero" d="M314.6 219.8a33.8 33.8 0 011 8.3c0 1.4-.2 2.8-.6 4.2-.3 1.4-.8 2.7-1.6 3.9a27.8 27.8 0 001.3-12.3l-.1-4.1z"/><path fill="#000" fill-rule="nonzero" d="M306.8 240h.1a2 2 0 011-.3h1l-.4.6-.5.2c-.4 0-.8 0-1-.4h-.2zm5.1-28c.7-.2 1.5-.5 2.2-.3.5 0 .8.2 1.1.5l.9.9 1 2a29 29 0 012.4 6.6c.3 1.6.5 3 .6 4.7l.1 2.3-.1 2.4a25.3 25.3 0 01-1 4.6 12 12 0 01-2 4.1 8 8 0 01-3.9 2.7 8.4 8.4 0 003.5-3c.9-1.1 1.5-2.6 1.9-4l.5-2.2.2-2.3a36.5 36.5 0 00-2.6-15.6c-.3-.7-.5-1.4-1-2a3 3 0 00-1.6-1.4c-.7-.3-1.5-.2-2.2 0zm33.5-14.2c-3.2.1-6.3 1.5-8.7 3.6a24.8 24.8 0 00-8.1 16.6 18 18 0 001.8 9.1c.7 1.4 1.6 2.7 3 3.2a6 6 0 002.2.2h1.2l.5-.2.6-.1c1.5-.5 2.8-1.2 4.1-2.1 1.3-1 2.5-2 3.6-3.2.3-.2.7-.6 1.2-.6h1.2l2.3-.5a7.9 7.9 0 003-1.8l.8-.8.5-1c0-.3 0-.7-.2-1-.4-.7-1-1.2-1.7-1.5-.8-.3-1.6-.2-2.3 0-.8.3-1.4.7-2 1.3a5 5 0 012-1.4 3 3 0 012.3-.1c.8.2 1.5.7 2 1.5.2.4.3.8.2 1.3 0 .4-.2.8-.5 1.1l-.8 1-1 .7a9.7 9.7 0 01-4.6 1.7h-1l-1 .6-1.6 1.7-2 1.6c-1.2 1-2.7 1.7-4.3 2.2l-.6.2-.6.1-1.2.2c-.8 0-1.7 0-2.5-.3a4.6 4.6 0 01-2.1-1.5c-.6-.6-1-1.3-1.4-2a19 19 0 01-1.8-9.6c.2-3.2 1.1-6.4 2.6-9.3a23 23 0 016-7.5 16.5 16.5 0 018.9-3.4z"/><path fill="#000" fill-rule="nonzero" d="M347.2 222.4a5 5 0 012.2-2.1 6 6 0 011.5-.5c.5 0 1-.1 1.6 0l-1.4.6-1.3.6-1.3.6-1.3.8zm-11.5-10.6l-1.4 3.3-.7 1.6-.6 1.7-.6 1.7-.5 1.7v.8c0 .2 0 .4.2.6.2.1.5.1.8 0l.7-.3-.7.6c-.2 0-.6.2-1 0-.3-.1-.5-.5-.6-.9v-1c0-.6.1-1.1.3-1.7a25 25 0 014.1-8.1zm-4.1-2.5c.1-.4.3-.6.5-.8l.4-.4.5-.1c.5 0 .9.2 1 .6.2.3.2.7 0 1-.1-.3-.3-.6-.5-.7a.7.7 0 00-.4-.1l-.6.1a5 5 0 01-.9.4zm10.8 3.1c0-.2.2-.3.3-.5 0-.2.3-.4.6-.5.3 0 .6 0 .8.2.3 0 .4.3.5.5.3.5.3 1 .2 1.4 0 .4-.2.8-.4 1.2l-.2-1.2c0-.4-.1-.7-.3-1-.1-.2-.3-.4-.5-.4a1 1 0 00-.5.1l-.5.2z"/><path stroke="#000" d="M238.1 325.7c0 .3.1.5.3.7.2-.2.2-.5 0-.7-.1-.2-.4-.3-.3 0z"/><path stroke="#4F8E99" stroke-width=".5" d="M276.4 326c.1-1-.5-2-1.2-2.8-.9-1.1-2-2.3-3.5-2.2-.3 0-.8.2-.8.6l.3.6c1.5 1.5 3.3 2.8 5.2 3.8z"/><path stroke="#4F8E99" stroke-width=".5" d="M266.8 325.2l1.2.8c1.8 1.3 4 2.4 6.2 2 .8 0 1.6-.5 2-1.3l.2-.7m-9.6-.8c.3-.6.3-1.3.2-2a6 6 0 00-4.1-4.4.6.6 0 00-.8.8c.8 2.3 2.7 4.1 4.7 5.6z"/><path stroke="#4F8E99" stroke-width=".5" d="M250.9 311.5c1.9 6.6 7 12.1 13.4 14.5l.8.1c1 0 1.4-.3 1.7-.9m-15.2 0h0a9.5 9.5 0 003.8 4.4s.2 0 .2-.2c0-.3 0-.7-.3-1"/><path stroke="#000" stroke-width=".5" d="M270.9 333.8l.6 1.5.6.6.3.1h.9l.1-.1.8-.8.7-1.2v-.1h0"/><path stroke="#000" stroke-width=".5" d="M273.3 336l-1.2-.2v.1l.2 5.2-.1 1.2c-.4.8-1.3 1-2.2 1h0c-.8 0-1.7 0-2.5.4l-.1.1c0 .2.1.3.3.3 1 .2 2.2-.3 3.1.2l-3.4 1-.6.3c-.2.1-.4.3-.4.6 1.5.5 2.9-1.1 4.4-1-.4 1.1-2.3 1-2.8 2 0 0-.1.2 0 .2 0 .2.1.2.2.2 1.1 0 2-.7 2.8-1.6.7-.8 1.3-1.7 2.3-2.2.9-.4 1.9-.3 2.8-.4a8 8 0 002.2-.6c.1 0 .2 0 .2-.2s-.1-.3-.2-.3c-1.2-.5-2.5 0-3.8 0-.4 0-.8 0-1-.4a26.9 26.9 0 01-.1-6h-.1zm-6.3-.2l.4.5c0 .2.3.4.5.5h.1c.5.2 1-.2 1.2-.6.5-.8.6-1.7.4-2.6v-.1"/><path stroke="#000" stroke-width=".5" d="M266 332.6v.3l.2 2.3v.6c.2.2.3.4.5.4h0c.2 0 .4-.2.4-.4m-.1.4v4.8c0 .4 0 .9-.4 1.2-.3.3-.8.3-1.3.3l-3.3.2c-.3 0-.7.3-.5.6l.4.2h2.6c.3-.1.7 0 .6.3-1.2.7-2.9.3-4.2 1l-.2.4c-.1.2.2.4.5.4 1.6.1 3-1 4.5-1l-1.7 1.7-.3.4c0 .2 0 .4.3.4h.3l2.4-1.6s0 0 0 0m1.2-9v.3l-.2 4.9v.4l.4.2 1.9.8"/><path fill="#FFF" fill-rule="nonzero" d="M173.9 320.6c.3-.8 1-1.5 1.6-2a12.4 12.4 0 017.2-3 13.1 13.1 0 019.6 3.8l1.5 2.1 1.3 2.2v.2h.1l.3.5.7.7.4.4-.5-.4-.7-.7-.3-.4h-.1l-.1-.2c-.6-.7-1-1.5-1.4-2.2a11 11 0 00-1.5-2 12.5 12.5 0 00-16.5-1 10 10 0 00-1.6 2zm3.2 17.5c-.4-.1-.8-.3-1.1-.6l-.9-.9-.6-1-.2-1.3.8 1 .7.9.6.9.7 1z"/><path fill="#FFF" fill-rule="nonzero" d="M196.2 333.9l-.5.5c0 .2-.2.4-.4.5-.2.4-.6.7-.9 1l-2.1 1.7c-1.5 1-3.2 1.8-5 2.3a13 13 0 01-5.3.4c-.9-.2-1.8-.4-2.6-.8a10 10 0 01-2.3-1.4 10 10 0 005 1.8c1.7.2 3.5 0 5.2-.4a18 18 0 004.8-2.2l2.2-1.6 1-.9.4-.5.5-.4z"/><path fill="#FFF" fill-rule="nonzero" d="M197.6 329.4c.2.7.4 1.4.3 2.2l-.1 1-.2.6-.4.4c-.4.3-.7.4-1.1.3h-.6a108961.4 108961.4 0 01-1.5-.8l-.8-.7 1 .6.9.3c.3.1.6.3 1 .2.2 0 .6 0 .8-.2l.5-.8.2-1v-2zm-11.9-1.4a5 5 0 01-1.2.6h-1.3c-.5 0-1 0-1.3-.3-.4-.2-.8-.6-1-1v-.1a3.8 3.8 0 012.4-2.5c.4-.2.8-.2 1.2-.2.4.1.8.3 1 .6.4.3.6.6.7 1l.3.4v.6l-.8 1zm0 0l.8-.8v-.6l-.3-.5-.7-.9c-.3-.2-.6-.4-1-.4-.7 0-1.4.3-2 .8-.6.4-1 1-1.3 1.7v-.1c.2.3.4.7.8 1a3 3 0 002.5.3 6 6 0 001.2-.5z"/><path fill="#000" fill-rule="nonzero" d="M180.4 324.9c0-.4.1-.8.3-1 .2-.4.4-.7.8-.9l1-.4 1-.2-1 .4-.8.5-.8.7-.5.9z"/><path stroke="#FFF" stroke-width=".5" d="M234.7 329c0 2 .7 3.9 1.9 5.5 0 .1.2.3.4.2l.2-.2v-.3l1.1-2.6"/><path stroke="#4F8E99" stroke-width=".5" d="M231.8 323v.2a8.4 8.4 0 002.9 5.5v.3"/><path stroke="#FFF" stroke-width=".5" d="M237.6 334.4l1.5-1.5.6-.6.2-.1v-.4l-.5-.9c0-.2-.2-.4-.4-.5-.2-.2-.5-.1-.7-.1-.7 0-1.4-.1-2-.3-.6-.1-1.3-.4-1.5-1"/><path stroke="#4F8E99" stroke-width=".5" d="M251 325a13 13 0 005.2-2.6m-9.9 6.3l1.6-.8 2.3-1.1c.5-.3 1-.6 1.1-1v-.4l-.4-.4m-10.9 7.2l5.7-2c.4 0 1-.3 1-.7.2-.4-.1-.7-.4-.8"/><path fill="#4F8E99" fill-rule="nonzero" d="M240 310.3c1.4-2.1 2.8-4.2 4.4-6.1 1.6-2 3.3-3.8 5.4-5.3 2-1.6 4.3-2.8 6.8-3.5 1.2-.3 2.5-.5 3.8-.5l3.9.3a49.3 49.3 0 0120.9 8.5c2 1.4 4 3 5.8 4.7a58.8 58.8 0 00-26.9-12.4 14.9 14.9 0 00-7.3.1c-2.4.6-4.6 1.8-6.6 3.2a32 32 0 00-5.5 5c-1.7 2-3.2 4-4.7 6zm43.9 14.2c2.1.6 4.4.5 6.5-.1a14.6 14.6 0 007.5-5.6c0-.2 0-.3-.2-.4l-.6-.5a49.8 49.8 0 00-7.2-4.2c2 .7 4.2 1.7 6.1 2.7l1.5.9.7.5c.2 0 .3.2.4.4l.1.6c0 .4-.2.7-.4 1l-.5.6a13.6 13.6 0 01-4 3.3c-1 .5-2 1-3.2 1.3-2.3.6-4.7.4-6.7-.5zm0 0c-.1-1-.8-1.9-1.6-2.5l-1.3-1-.6-.2h-.3l-.2.1-.1.2.3.6a11 11 0 003.8 2.8zm0 0a8 8 0 01-4.3-2.3c-.2-.2-.4-.4-.5-.8v-.7l.4-.5.6-.2h.5c.4.1.6.3.9.5l1.3 1 1 1.4c.1.5.2 1 0 1.6zm-7.5 1.5c.4 0 .7.2 1 .3l1.2.3 2 .2c.4 0 .8 0 1-.2.4 0 .7-.2 1-.4.6-.4 1-1 1.3-1.7 0 .8-.3 1.6-1 2.2a4 4 0 01-2.2.9 6.1 6.1 0 01-3.4-1l-1-.6z"/><path fill="#4F8E99" fill-rule="nonzero" d="M255.3 328.4a42.5 42.5 0 005 3.6c1 .5 1.8.9 2.8 1l.2.1h.4l-.2-.2-1-1.1-1.2-1.2 1.5.7a25 25 0 0011.4 2.2l2-.1 1-.1h.4l.2-.1h-.1v.3h-.1l-.2-.2v-.1h-.1v-.1l-.2-.2.1-.4.4-.2 1-.1 1-.1 1-.1a18.6 18.6 0 0010-5.5v.2l-.2-.3-.2-.2-.2-.2h.2l1.7-1.1c.6-.4 1-1 1.5-1.5a7 7 0 01-1.4 1.6c-.5.5-1 .9-1.7 1.2v-.2c.2 0 .2.1.3.2l.2.2.2.1-.2.2a17.8 17.8 0 01-10.1 6c-.4 0-.7 0-1 .2h-1l-1 .2.2-.3v-.1l.2.3h.1l.1.2v.2c.1.1 0 .2 0 .4l-.3.2h-.3l-.5.1-1 .1a39.8 39.8 0 01-6 0 22.3 22.3 0 01-7.7-2.3l.4-.5 1 1.1.2.2.1.3v.4l-.3.2-.5.1h-.5a16.4 16.4 0 01-5.3-3.2l-2.3-2.1zm34.3-18.2a48 48 0 007.6-11.6l1-1.9.3-.4.5-.4.5-.1c.2 0 .4.2.4.3l.2.3v.2c.4.6.6 1.3.8 2 .3 1.3.3 2.7 0 4.1a9 9 0 01-4.9 6.2 9.5 9.5 0 004.2-10.1l-.7-1.9v-.2l-.2-.1s.1 0 0 0l-.2.2-.2.4-1 1.7a29.6 29.6 0 01-3 5.3 36.4 36.4 0 01-5.3 6z"/><path fill="#4F8E99" fill-rule="nonzero" d="M300 304.9c.3-.2.7-.3 1.1-.2.2 0 .4.2.5.4l.3.6c.2.8 0 1.6-.4 2.4l-.7 1-.8.8-1.8 1.5-.4-.6c.5-.2 1-.4 1.5-.4l.8.1.7.5c.5.4.6 1 .6 1.5 0 .6-.2 1-.5 1.5-.5.9-1.2 1.5-2 2-.8.6-1.7 1-2.6 1.2a9.4 9.4 0 003.3-2.4l.8-1.1.3-1.2c0-.3-.2-.8-.4-1-.2-.2-.6-.3-1-.3l-1.2.2-1.9.7 1.5-1.3 1.8-1.5c.6-.5 1.2-1 1.5-1.6a3 3 0 00.6-2 1 1 0 00-.5-.9H300z"/><path fill="#FFF" fill-rule="nonzero" d="M174.3 333.7l.6-.2h.8c-.2.3-.5.3-.7.4-.3 0-.5 0-.7-.2z"/><path fill="#FFF" fill-rule="nonzero" d="M171.4 321.3c-1.6.8-2.9 2.1-4 3.5L166 327l-.6 1a1 1 0 000 1l.8 1 .5.5.4.4a11.4 11.4 0 007.3 2.9 10 10 0 01-5.4-.8l-2.4-1.5-.5-.4-.5-.5-.9-1.1-.2-.8.1-.9.4-.6.4-.6c.5-.8 1-1.5 1.7-2.2a10 10 0 014.4-3.1zm4.2-.5h-2.1l-2.1.5c.6-.5 1.3-.7 2-.8a4 4 0 012.2.3z"/><path fill="#000" fill-rule="nonzero" d="M176.2 329.1c.2-1.6 0-3.1-.2-4.7a9.7 9.7 0 00-5.5.7c-.9.3-1.7.8-2.4 1.4l-1 1c-.1.1-.3.3-.3.5l.1.6c.2.3.6.6 1 .8l1.2.8 2.7.9c1 .1 1.9.3 2.8.1.3 0 .5 0 .7-.2.2 0 .4-.2.5-.4.3-.5.4-1 .4-1.5zm0 0c0 .5-.1 1-.4 1.4l-.5.5-.7.2a10 10 0 01-5.6-.8l-1.3-.7-.6-.4-.5-.5a.9.9 0 01-.2-.9c0-.2.3-.5.4-.6a6 6 0 011-1.1 9.8 9.8 0 018.2-1.8c.3 1.6.4 3.2.2 4.7z"/><path fill="#FFF" fill-rule="nonzero" d="M177.1 338.1c-.1.9-.4 1.7-.8 2.5a10.5 10.5 0 01-3.5 3.8c-.8.5-1.5.8-2.4 1l2-1.5a16.8 16.8 0 003.4-3.7l1.3-2.1zm0-.1l.2.1h-.2l-.2-.1h.2z"/><path fill="#000" fill-rule="nonzero" d="M184.6 350.1a4 4 0 012.4.4 3.6 3.6 0 011.7 1.8l-1-.8-.9-.6c-.7-.4-1.5-.6-2.2-.8zm-.2 2.3c.6-.1 1.3 0 1.8.4.5.3 1 .8 1.3 1.4l-.8-.6-.7-.5-1.6-.7z"/><path fill="#FFF" fill-rule="nonzero" d="M193.5 321v.2a5 5 0 00-.5 1v1.2c0 .2 0 .3.2.3l.5.2 1.2-.1c-.3.3-.8.4-1.2.4l-.7-.1a.8.8 0 01-.5-.6v-.7l.2-.6c.1-.4.4-.8.7-1v-.1z"/><path fill="#000" fill-rule="nonzero" d="M190.7 320.5l.1-.5.4-.4c.1-.2.3-.2.5-.2h.5l.2.1h-.2c-.1.2-.3.2-.4.3a1.2 1.2 0 00-.7.3l-.4.4zm4.6 6.7l-.4 1.1-.5.4-.6.2-1.2-.2c-.4-.1-.8-.4-1-.7l-.2-.1v-.1c.3-.5.6-1 .9-1.2a3.4 3.4 0 012-.9c.2 0 .5 0 .7.2.2.1.3.3.3.6v.7zm0 0v-.7l-.3-.6a.9.9 0 00-.7 0 3 3 0 00-1.7 1l-.7 1v-.1l.8.6 1.1.3h.6l.4-.4c.3-.3.4-.7.5-1.1z"/><path fill="#FFF" fill-rule="nonzero" d="M190.9 332.4c.5.2 1 .3 1.5.2.5 0 1-.3 1.4-.6.3-.4.5-.9.5-1.4v-1.5l-.6-2 .9 1.8c0 .2.2.4.3.5a2.3 2.3 0 001.6.8c.4 0 .7 0 1-.3l1-.8v-.3l.2-.2v-1.2l.1.6v1l-.2.3a2.5 2.5 0 01-2.2 1.3c-.5 0-1-.1-1.3-.4-.4-.2-.7-.6-1-1l.5-.1c0 .5.2 1 0 1.6 0 .6-.2 1.2-.6 1.6a3 3 0 01-1.6.7 3 3 0 01-1.5-.5zm.1-2.5c-.3 0-.5 0-.8.2l-.7.2-.8.2-.7.3a30.8 30.8 0 00-5.5 3l-.6.6-.6.5-.6.5-.6.5.5-.6.6-.6.6-.5.5-.6a17.1 17.1 0 015.6-3l.7-.3.8-.2.8-.2h.8zm-.7 1.2a35.8 35.8 0 00-8.5 6.5 17.5 17.5 0 018.5-6.5zm-1.5 2.4a3.8 3.8 0 01-1.7 1.9 3.8 3.8 0 011.7-1.9z"/><path stroke="#000" stroke-width=".3" d="M196.8 326.8l.5-.8s0 0 0 0a10 10 0 017.7-4m-8 6l.3-.3.4-.3.8-.6c2-1.3 4.6-2 7-1.6"/><path fill="#FFF" fill-rule="nonzero" d="M135 342.6a10.1 10.1 0 008.8-8.2 13 13 0 00-4.6-11.4 11.6 11.6 0 015.3 11.6 9.8 9.8 0 01-3.4 5.8 9 9 0 01-6.2 2.2zm0 .1h-.6l-.3.4v-1l.3.3c.1.2.4.3.6.3zm0 0l-.3.1-.7.3v-1l.7.4.3.2z"/><path fill="#FFF" fill-rule="nonzero" d="M172 321.2a12 12 0 01-5.3-.6c-1.8-.5-3.4-1.3-5-2.2-3.1-1.9-5.9-4.2-8.9-6.3-3-2-6-3.8-9.5-4.9a18 18 0 00-10.5-.2c-3.4 1-6.3 3.2-8.6 6a21.5 21.5 0 00-3.4 20 16 16 0 006.6 8.1l.6.3-.6.4c-1 .4-1.8 1-2.5 1.7s-1 1.7-.6 2.6a4.4 4.4 0 002.7 2.3h.7l.8-.1h.8c2.2 0 4.3.6 6.3 1.3 2 .7 4 1.6 6 2.5l1.4.6 1.5.4c.4.1 1 .2 1.4 0 .5-.1 1-.4 1.2-.8a4 4 0 00.8-2.8c0-1-.5-2-1.3-2.8a9.1 9.1 0 00-2.5-1.8c-1-.5-2-.8-3-1.1-2-.7-4.1-1-6.2-1.2a26.3 26.3 0 019.2 2.1c1 .5 2 1 2.7 1.8l1 1.3.5 1.6a5 5 0 01-.9 3.1c-.3.5-.8.8-1.4 1-.5.2-1.1.2-1.6 0-.6 0-1.1-.3-1.6-.4l-1.5-.6-6-2.4c-1.9-.6-4-1.2-6-1.2h-.8l-.8.1h-1c-.3 0-.5-.2-.8-.3-.5-.2-1-.6-1.4-1-.4-.3-.8-.8-1-1.3-.2-.3-.2-.6-.3-1l.1-.9.9-1.5c.8-.8 1.7-1.4 2.7-1.9v.7c-3.2-2-5.7-5-7-8.4a20 20 0 01-1-10.9 24 24 0 014.6-10c2.3-2.8 5.4-5 9-6.1 1.7-.6 3.6-.8 5.4-.7 1.8.1 3.6.5 5.4 1 3.5 1 6.6 3 9.6 5 3 2.1 5.7 4.5 8.8 6.4 1.5 1 3.1 1.8 4.8 2.3 1.9.6 3.7 1 5.5.8z"/><path fill="#FFF" fill-rule="nonzero" d="M141.8 347a3 3 0 011.9 0 6.4 6.4 0 013.3 2c.4.4.8.9 1 1.5l-1.5-1.1a13.8 13.8 0 00-4.7-2.5zm.2 3.2a5.1 5.1 0 012.8.7c.4.2.7.5 1 .9.3.1.4.4.6.5l.2.3v.4l-.2-.1-.3-.2-.6-.3-1.1-.7-1.2-.7-1.2-.7zm21-11.8c-.4 1.6 0 3.2 1 4.5a7.3 7.3 0 003.7 2.8c1.5.6 3.1.8 4.7.8s3.2 0 4.9-.2c1.6 0 3.2-.1 4.9.2 1.6.3 3.2.8 4.6 1.8l1 .9.7 1c.3.4.4.9.5 1.3l-.1 1.4c-.2.4-.5.9-.9 1.1-.3.3-.8.5-1.2.6a7 7 0 01-2.5 0c-3.2-.5-6.4.3-9.6.5a39.2 39.2 0 01-14.6-1.4 21 21 0 01-4.4-2.2 17.7 17.7 0 01-6.5-7 17 17 0 003 3.8 21 21 0 008.1 5 43.2 43.2 0 0014.3 1.1l4.8-.6 2.5-.2h1.2c.4 0 .8 0 1.3.2.7 0 1.5.2 2.2 0 .7-.2 1.3-.6 1.5-1.2.3-.6.1-1.4-.2-2l-.7-1-.4-.3-.4-.4a9.6 9.6 0 00-4.3-1.8c-1.6-.3-3.2-.3-4.8-.2h-4.9c-1.6 0-3.3-.2-4.8-.9a9 9 0 01-2.2-1.2 7 7 0 01-2.5-4 5 5 0 010-2.4zm-43.5-9.1c-.6 1-1.4 1.7-2.3 2.4-.8.7-1.8 1.3-2.9 1.8-2 .9-4.3 1.4-6.5 1.6l-6.7.7c-2.2.2-4.3.6-6.4 1.5a11.9 11.9 0 00-6.6 6.8c-.4 1-.7 2-.7 3.1 0 1 .3 2.1.9 3a8 8 0 002.1 2.4 12.1 12.1 0 0012.2 1.8 5 5 0 002.4-2c.3-.4.4-.9.5-1.3 0-.5-.1-1-.4-1.4-.6-.8-1.6-1.2-2.7-1.4-1-.2-2.2-.1-3.3-.3-.6-.1-1.2-.2-1.7-.5-.3-.2-.6-.3-.8-.6-.3-.2-.4-.6-.5-1l.1-1 .5-.7.6-.7.4-.2c0-.2.2-.2.3-.3a8 8 0 013.3-1.1c1.1-.3 2.2-.3 3.4-.3l6.7-.2 3.3-.1c1.1 0 2.3 0 3.4-.2 1 0 2.2-.2 3.2-.5 1-.4 2-1 2.8-1.8-.7.9-1.7 1.5-2.7 1.9-1 .3-2.2.5-3.3.6l-3.4.2-3.3.2-6.7.4a35 35 0 00-3.3.3 7.8 7.8 0 00-3.4 1.3l-.3.3-.5.5c-.3.4-.6.9-.4 1.3 0 .4.4.8.8 1 .5.2 1 .4 1.5.4 1 .2 2.2.1 3.4.3l1.7.6c.5.2 1 .6 1.4 1.1.4.5.6 1.2.6 1.8a4 4 0 01-.5 1.8 6 6 0 01-2.8 2.3 13 13 0 01-13-1.9c-1-.8-1.7-1.6-2.4-2.6-.6-1-.9-2.2-.8-3.4 0-1.2.2-2.3.6-3.4a11.5 11.5 0 014.2-5.5 20.5 20.5 0 019.6-3.1l6.7-.5a22 22 0 006.4-1.5c2.1-.8 4-2 5.3-4z"/><path fill="#FFF" fill-rule="nonzero" d="M152.6 349c-.4.2-.8.3-1.3.3H150c-.4 0-.9 0-1.3-.3 0 0-.2 0-.3-.2 0 0-.2 0-.3-.2l-.2-.2-.1-.3c.3.2.7.3 1 .3l1.2.2a16.9 16.9 0 012.6.3z"/><path fill="#000" fill-rule="nonzero" d="M264.8 296c-1.7-4.6-3-9.2-4.5-13.7s-3-9-4-13.8a46 46 0 01-1-7 24.6 24.6 0 011-9l.8-1.8 1.2-1.5c.4-.4 1-.8 1.6-1a6 6 0 011.9-.4l1.8.1c1.3.3 2.4.7 3.5 1.3 2.2 1.2 4 2.9 5.8 4.4a357.7 357.7 0 0110.8 9.5 119 119 0 0114.4 16 81.4 81.4 0 013.9 6 108.6 108.6 0 00-13.6-16.5 200.6 200.6 0 00-16-14.5c-1.8-1.5-3.6-3-5.7-4.2-1-.6-2-1-3.2-1.2a7 7 0 00-1.7-.1l-1.6.3a4.8 4.8 0 00-2.4 2.2l-.7 1.6-.5 1.7a40.6 40.6 0 00.4 14c1 4.7 2.3 9.3 3.7 13.9l4 13.6z"/><path fill="#000" fill-rule="nonzero" d="M277.1 267.2a62.4 62.4 0 019.7 17 69 69 0 014.5 19 109.2 109.2 0 00-5.2-18.7 97.7 97.7 0 00-9-17.3z"/><path stroke="#000" stroke-width=".2" d="M279.9 267.5c.4 1.8.7 3.5.9 5.3"/><path fill="#000" fill-rule="nonzero" d="M315.1 297.6a113.5 113.5 0 0116.6-2.8 84 84 0 0116.8.1 69.5 69.5 0 0120.3 5.6 14.7 14.7 0 013.4 2.6l.7.9a8.9 8.9 0 011.3 3c.2.7.2 1.5.2 2.2a10.4 10.4 0 01-2.4 6c-1 1.1-2 2-3.2 2.9-1.2.8-2.5 1.4-3.7 2-1.3.6-2.7 1-4 1.5l-2 .7-2 .6-2 .5-2.1.5-8.3 1.6c-5.6.8-11.2 1.2-16.7 1.7-5.6.5-11.2 1-16.7 1.7 5.5-1 11-1.5 16.7-2 5.5-.6 11.1-1.1 16.6-2l2-.4 2.1-.3 1-.2 1-.3 2.1-.4 2-.5c.7-.2 1.4-.3 2-.6l2-.5 2-.7a38.2 38.2 0 007.5-3.5c1.2-.8 2.2-1.7 3-2.8a11.1 11.1 0 002.2-5.5 7.6 7.6 0 00-.7-3.9l-.6-.8-.6-.8-1.5-1.4a18.4 18.4 0 00-5.5-2.8 83 83 0 00-33-4.2 98 98 0 00-16.5 2.3z"/><path fill="#000" fill-rule="nonzero" d="M349.5 302l-7 2.4a517.1 517.1 0 00-34.4 13.2l-1.6.7c-.3.1-.5.3-.5.4-.1.2 0 .5 0 .8a20.7 20.7 0 002.9 6.7c.7 1 1.5 1.9 2.4 2.7a18.1 18.1 0 01-5.8-9.3c0-.3-.2-.6 0-1 0-.2.2-.4.3-.5l.5-.3 1.6-.7a317.8 317.8 0 0127.5-10.7l7-2.3c2.4-.7 4.8-1.5 7.1-2zm-53.9 20.4c.4.2.8.2 1.2.2l1 .2c.5 0 .8 0 1.2.2l1.2.3-1.2.3a5 5 0 01-2.4-.4c-.4-.1-.8-.4-1-.8z"/><path fill="#E2D6C7" fill-rule="nonzero" d="M179.2 161.7c1.6-2.6 4.3-4.6 7.3-4.6s6 2.7 5.7 5.7c-.2 3.1-3.3 5.2-6.2 6-2.8.8-5.7 1-8.3 2.2-1 .6-1.3.4-1.3-.8 0-1.3.4-2.6.8-3.9.4-1.6 1-3.2 2-4.6zm-69.6 15.1c-.3-2-1.3-3.8-2.8-5a5.5 5.5 0 00-5.4-.9c-1.8.8-3 2.9-2.5 4.8.5 2 2.6 3.3 4.5 4 1 .4 2 .7 2.9 1.2.7.3 1.6 1.2 2.4 1.2 1.7 0 1.1-4.3 1-5.3z"/><path d="M198.6 154c-.2.1-.2.5 0 .5"/><path fill="#C5505D" fill-rule="nonzero" d="M214.3 33.4a192.8 192.8 0 00-27.6-6 74 74 0 00-14.1-.7 18 18 0 00-6.9 1.3c-1 .4-2 1-2.8 1.8-.7.8-1.2 1.9-1.2 3v-.1a7.6 7.6 0 002.6 3.8l1 .8 1 .6.5.4.5.3 1.1.5c3 1.4 6.1 2.4 9.3 3.2a113.2 113.2 0 0019.5 3.3 224.6 224.6 0 0034.5.8c1.7-.1 3.3-.3 4.9-.6a39.5 39.5 0 0012.9-2.8l1.3-.6 1.3-.6.3-.2.3-.2.6-.4 2.5-1.6 1-1 .4-.2.2-.2.5-.5c1.4-1.4 2.6-3 3.5-4.6a15.4 15.4 0 00-1.2-16.4l-.4-.5-.3-.3-.2-.3-1-1-1-1.1-.5-.5-.5-.5-1.2-1-1.1-.8-.7-.4-.6-.4-1.2-.7-1.3-.7-1.3-.6-2.7-1.2a44.6 44.6 0 00-20.3-2 9.7 9.7 0 00-5.1 2.2 7 7 0 00-1.3 2.4 4.8 4.8 0 00.8 3.3l1 1.4 1.4 1.3a49.2 49.2 0 006 4.4 30.8 30.8 0 0014.4 4h2.4a5.7 5.7 0 003.1-1.5c.3-.2.5-.5.7-.9.4-.6.6-1.4.5-2.2 0-.8-.3-1.5-.7-2.2a7.8 7.8 0 00-2.5-2.5l-1-.7a36.7 36.7 0 00-11.5-4h-2.4c-.8 0-1.6.1-2.4.4-.8.2-1.5.6-2 1.2a5 5 0 00-1.4 2l1 1.2-1-1.1c.2-.8.7-1.5 1.3-2 .6-.7 1.3-1 2.1-1.3.8-.3 1.6-.4 2.4-.5l2.5.1a37.5 37.5 0 0111.6 3.9l1 .6 1 .8a8 8 0 011.7 1.8c.5.8.8 1.6.8 2.4.1.9 0 1.8-.5 2.5-.2.4-.4.8-.8 1a5.8 5.8 0 01-3.4 1.7 28.9 28.9 0 01-10-1 32.2 32.2 0 01-16-10.3c-.4-.6-.7-1.2-.8-1.9a6 6 0 01-.2-2c.3-1 .8-2 1.6-2.8.7-.8 1.7-1.4 2.6-1.8l3-.9 3-.4c2-.2 4-.1 6 0a49.7 49.7 0 0111.7 2.5l2.8 1.1 1.3.7 1.4.7 1.3.8.6.4.6.4 1.3.9 1.1 1 .6.4.5.5 1.1 1 1 1.2.3.3.2.3.4.6a16 16 0 011.2 17.4c-.9 1.9-2.1 3.5-3.6 5l-.5.5-.3.2-.3.3-1.2 1-2.5 1.7-.6.4-.4.2-.3.2-1.4.6-1.4.7-1.4.5c-3.8 1.4-7.8 2-11.8 2.3h.1a49.6 49.6 0 01-10 .9 193.6 193.6 0 01-29.8-1.2 134 134 0 01-19.6-3.4 50 50 0 01-9.4-3.4l-1.1-.6-.6-.3-.5-.3-1-.7-1-.8a9.1 9.1 0 01-2.8-4.3 5.1 5.1 0 011.4-3.5c.8-1 1.9-1.5 3-2 2.3-.9 4.7-1.2 7-1.2h5.5l1.8.1c2.3.2 4.7.4 7 .8 4.7.6 9.4 1.5 14 2.6 4.9 1 9.4 2.3 14 3.8zM195 69.8l-3.5-.9-3.6-.8a268.1 268.1 0 00-21.6-4.3 220.4 220.4 0 00-36.4-3 42.4 42.4 0 00-10.5 2 7 7 0 00-2.8 2 3.4 3.4 0 00-.6 3 7 7 0 001.9 3c1.7 1.6 3.8 2.8 6 4l6.6 3a141 141 0 0013.9 4.6 281.8 281.8 0 0043 8.7l3.7.4h1.8l1.8.2h7.4a209 209 0 0032.8-3l1.8-.3 1.8-.3a42 42 0 007-1.8A25 25 0 00252 83c2-1.4 3.6-3.2 4.8-5.3a17.8 17.8 0 001.7-11.5c-.2-1.9-.9-3.7-1.7-5.5a27 27 0 00-3.3-5 43.5 43.5 0 01.2-.1 24 24 0 013.3 5 18.4 18.4 0 012 11.6c-.4 2-1 4-1.8 5.7-1.2 2.2-3 4-5 5.5a26 26 0 01-6.5 3.4 43 43 0 01-7.1 2l-1.8.2-1.8.3-3.7.6a210.5 210.5 0 01-36.6 2.5h-1.9c-.6 0-1.2 0-1.8-.2l-3.6-.3a285.9 285.9 0 01-43.2-8.7 160 160 0 01-20.8-7.7 27.6 27.6 0 01-6.2-4.2 8 8 0 01-2.1-3.2c-.2-.7-.3-1.4-.1-2 .1-.7.4-1.3.8-1.9.8-1 2-1.8 3-2.3a41.6 41.6 0 0111-2.2 89 89 0 0114.8.3l7.3.7 7.3 1 7.3 1.2 14.4 3 7.1 1.9 3.5 1 3.6 1z"/><path fill="#C5505D" fill-rule="nonzero" d="M175.4 110.2a300.1 300.1 0 00-85.9-22.8 131 131 0 00-17.7-.6 74 74 0 00-17.6 2.4 41 41 0 00-8 3.4 20.8 20.8 0 00-6.5 5.7 14.9 14.9 0 00-1.3 8.4c.3 2.7 1.5 5.5 3.1 7.8a28 28 0 005.9 6.5 41.3 41.3 0 0011.2 6.6l4.2 1.5 4.1 1.5 4.2 1.3a216.8 216.8 0 0052.3 7.3c11.8.2 23.6-.3 35.4-1.1 11.8-.9 23.5-2.1 35.3-3.3l8.8-.9c2.9-.3 5.8-.8 8.7-1.4 5.7-1.2 11.4-3 16.5-5.9l1-.5.9-.6 1.8-1.2 3.4-2.8c2.1-2 3.9-4.4 5.2-7l.8-2 .4-1 .2-1 .3-1.1.2-1.1.1-1.1.1-.6v-.5a18.7 18.7 0 00-.9-6.5l-.3-1-.4-1a25 25 0 00-8.2-10.3c-1-1-2.3-1.8-3.5-2.6a112 112 0 003.7 2.4 38.8 38.8 0 016.2 6.4c.8 1.2 1.6 2.5 2.2 3.9l.4 1 .4 1a22.7 22.7 0 01.9 6.7v1.1l-.2 1.1-.2 1.1-.3 1.1-.2 1.1-.4 1-.8 2.1-.6 1-.2.5-.3.5-.6 1-.7.9-.3.4-.3.5-.8.8-1.5 1.6c-1 1.1-2.3 2-3.5 2.9l-1.8 1.3-1 .5-1 .6a61 61 0 01-16.6 6c-3 .7-5.9 1.2-8.8 1.5l-8.8 1c-11.7 1.2-23.5 2.5-35.3 3.4-11.8.8-23.6 1.4-35.5 1.2A223 223 0 0188 137c-5.8-1-11.6-2.4-17.3-4.1l-4.2-1.4a204.4 204.4 0 01-12.4-4.9A37.7 37.7 0 0140.6 115a19.6 19.6 0 01-3.3-8.4c-.2-1.5-.2-3 0-4.6.3-1.5.8-3 1.4-4.3v-.1c1.9-2.5 4.2-4.5 6.8-6C48.2 90 51 89 54 88.2a74.5 74.5 0 0117.8-2.4c6-.1 11.9.2 17.8.8a221 221 0 0135.2 6.3 298.3 298.3 0 0150.7 17.3z"/><path fill="#C5505D" fill-rule="nonzero" d="M357.1 269.1c1.7 0 6.3.6 9.5 1.4a41.7 41.7 0 0129.1 24.3 47.7 47.7 0 013.4 28.7 56.5 56.5 0 01-6.4 18.4 79.9 79.9 0 01-18.4 22.5l-1.8 1.6-2 1.5-1 .7-.9.7-2 1.5-2 1.3-2 1.4-2.1 1.2-1 .7-1.1.6c-11.4 6.4-23.7 11-36.3 14l-2.3.6-2.4.6-4.8 1-4.8.8-2.4.4-2.4.3-4.8.8-2.4.4-2.5.2a62 62 0 01-19.5-.8l-1.2-.2-1.2-.2-2.3-.6-1.2-.3-1.2-.3-2.3-.8-4.6-1.6-2.3-.9-2.3-1-4.5-2-4.4-2a85 85 0 00-18.2-6.2 52.3 52.3 0 00-19.2-.7l-4.4 1.2-2.2.6-2.2.5c-3 .9-6 1.7-8.9 2.7l-17.5 5.7c-5.8 2-11.7 3.9-17.6 5.5-6 1.6-12.1 2.8-18.3 3.1-3.1.2-6.2 0-9.3-.3-.8 0-1.5-.2-2.3-.4a45.2 45.2 0 01-6.8-1.6 55.9 55.9 0 01-12.7-5.9 95.2 95.2 0 01-11.3-8.1l-.9-.8-.8-.9-1.6-1.7-3-3.4c-2.2-2.3-4.1-4.7-6-7.1l-5.5-7.4-10.8-15c-3.7-4.9-7.6-9.6-11.9-14-8.4-8.9-17.8-16.9-26.5-25.6-4.4-4.3-8.6-8.9-12.4-13.8a87.8 87.8 0 01-11.7-19.9l-.8-2.2-.4-1-.4-1.1-.3-1.1-.3-1.2-.6-2.2-.5-2.3-.2-1.2-.1-1.1-.2-1.2c0-.4 0-.8-.2-1.1l-.2-2.4v-4.6c-.1-1.5 0-3.1.1-4.6l.3-2.4v-1.1l.3-1.2a59 59 0 012.9-11.2l.8-2.2 1-2.1c.3-.7.6-1.5 1-2.1l1-2 1.2-2a58.7 58.7 0 0136.6-27l4.5-.9H51l1.1-.1c.8 0 1.5-.2 2.3-.3l4.5-.8a204 204 0 0127.7-2.2c12.3-.4 24.5-.3 36.9-.5l4.6-.1 2.3-.1 2.3-.1 4.6-.2 2.2-.2 2.3-.1c3.1-.2 6.1-.6 9.2-1l2.3-.2 2.3-.4 2.3-.3 2.2-.4 2.3-.4 2.2-.4 4.5-1 4.5-1.2 2.2-.6 2.2-.7c3-1 5.8-2 8.6-3.2l2.1-1 2.1-1 2-1 1-.6 1-.6 2-1.2 1-.6.8-.7 1.9-1.4 1.8-1.4a40 40 0 006.2-6.7c1.7-2.6 3.1-5.3 4-8.3l.2-1 .3-1.2.3-2.3v-2.3l-.1-1.1v-.6l-.1-.6-.2-1.1-.3-1.2-.1-.5-.2-.5-.4-1.1-.5-1-.5-1-.6-1-.3-.5-.4-.5c-1.8-2.4-4-4.6-6.4-6.5a131.5 131.5 0 000-.1c2.4 1.9 4.7 4 6.6 6.5l.3.5.3.4.6 1 .5 1 .5 1.1.4 1 .2.6.2.6c0 .4.2.7.3 1.1l.2 1.1v.6l.1.6.1 1.1v2.3c0 .8-.2 1.6-.3 2.3l-.2 1.1-.3 1.2c-.8 3-2.2 5.8-4 8.3a36.3 36.3 0 01-6.2 6.8l-1.8 1.5-1.9 1.3-.9.7-1 .7-1.9 1.2-1 .6-1 .5-2 1.1-2.1 1-2.1 1a98.1 98.1 0 01-8.7 3.2l-2.2.7-2.2.7-4.5 1.2-4.5 1-2.2.4-2.3.4-2.3.4-2.3.3-2.3.4-2.3.3-9.1 1h-2.3l-2.3.3-4.6.2-2.4.1H128l-4.6.2c-12.3.3-24.6.2-36.8.7a300.4 300.4 0 00-27.6 2.2l-4.5.8a9 9 0 01-2.3.3l-1.2.1-1.1.1a71.5 71.5 0 00-17.2 5.8 58.8 58.8 0 00-23.1 21.6l-1.2 2-1 2-1 2-1 2.2-.8 2-.7 2.3c-1 2.9-1.7 5.8-2.1 8.9l-.2 1-.1 1.2-.3 2.3-.2 4.6.2 4.5.2 2.3.1 1.1.2 1.2.1 1.1.3 1.1.4 2.3.6 2.2.3 1 .4 1.2.3 1 .4 1.2.8 2.1 1.9 4.2a85 85 0 009.8 15.4c3.7 4.9 7.9 9.4 12.2 13.7C38 312 47.3 320 55.8 328.8c4.3 4.4 8.3 9.2 12 14.1l10.8 15A294.8 294.8 0 0090 372.2l3 3.3 1.6 1.7.8.8.8.8a55 55 0 007.3 5.6l3.9 2.4a65.5 65.5 0 0012.4 5.8 49.6 49.6 0 0018 2.3c6-.3 12-1.5 18-3 5.9-1.7 11.7-3.6 17.6-5.5a1051.1 1051.1 0 0126.4-8.4l2.2-.5 2.2-.6 4.5-1.1c6.5-1 13.2-.7 19.5.7a88.1 88.1 0 0118.5 6.2l4.5 2c1.4.8 2.9 1.5 4.4 2l2.2 1 2.3.9 4.5 1.6 2.3.7 1.2.3 1.2.3 2.3.6 1.2.3 1.2.2a60.2 60.2 0 0019.2.8l2.4-.3 2.4-.3 4.8-.7 2.4-.4 2.4-.4 4.8-.8 4.7-1 2.4-.6 2.3-.5c12.6-3 24.9-7.5 36.1-13.9l1-.6 1.1-.6 2-1.2c.8-.4 1.5-1 2.1-1.4l2-1.3 2-1.4 1-.7 1-.8 1.9-1.5 1.8-1.5a82.1 82.1 0 0018.4-22.3 64 64 0 006.3-18.2 46.2 46.2 0 00-14.7-43.8c-5-4.1-11-7-17.3-8.5a41.6 41.6 0 00-14.2-1.3c2-.3 3.7-.4 4.8-.4z"/></g></svg>