<svg xmlns="http://www.w3.org/2000/svg" width="400px" height="400px" viewBox="0 0 400 400"><g fill="none" fill-rule="evenodd" transform="translate(7)"><g fill="#FFF" fill-rule="nonzero" transform="translate(39 67.4)"><path d="M239.4 45.5c.7 1 2.2 1.1 3.3.3.5-.3 1-.8 1-1.5.2-.7-.2-1.4-.6-2a3 3 0 0 0-1.8-.8c-.7 0-1.3.2-1.8.7-.4.4-.8 1-.8 1.6 0 .5.1 1 .4 1.4l.3.3zM341.6 147l-.4.5c.1-.1.2-.4.4-.4z"/><path d="M338.6 148.7a11 11 0 0 0 3.2-2.1c.4-.5.9-1 1-1.7.3-.6.3-1.4 0-2a7.3 7.3 0 0 0-2.7-2.8c-1.1-.6-2.3-1.1-3.5-1.5-1-.4-2-.8-3.1-1l-.6-.2h-.2c-1-.4-2.2-.7-3.5-1a11 11 0 0 1-2.3 5c-2.5 3-5.7 3.7-9.4 4.3h-.5.4c3.7-.6 7-1.4 9.5-4.3 1.6-1.8 2-4.1 2.6-6.5.2-1.1.3-3 1-4 .6-.2 1.2-.6 1.7-1 1.5-1.6 1.6-3.1 1-5.3-.3-1.7-3.5-2.3-4.5-2.4l-.3-.1-3.8-.3h-.8l-2.1-.2h-.4l-5-.4-1.6-.2h-.8l-5.9-.2a84 84 0 0 0-9 .4c.1-.7.1-1.6-.4-2-1-.6-2.4.4-3 1-.8.4-1.3 1-1.8 1.5-3.5.5-6.4 1.2-8 2l-.5-1.5c-.7.3-1.4.5-2.1 1l-.3.3a39320.2 39320.2 0 0 0-1 1.3 2 2 0 0 0-.6 1c0 .5-.2 1 0 1.5.1.8.8 1.5 1.6 2l.1 4.6.1 1.6a302.6 302.6 0 0 0-7.6 1.5c-2.4.5-4.7 1.2-7 2.1l3.8-7.3c1.2-2.2 2.5-4.3 4-6.3l2.5-1.4 2-1.5.6-.6c.4-.3.8-.8 1.1-1.3l.5-.6.5-.8c.6-.9.9-2 .9-3.2a6 6 0 0 0-1-3.2l-2-.4 1.6-.5a18.6 18.6 0 0 0 9.6-8.9l.7-1.5c.9-2.3 1.3-4.8 1.1-7.2 0-1.5-.2-3-.9-4.4a4 4 0 0 0-1.6-1.6c-.6-.4-1.4-.5-2.2-.3v-.2a12 12 0 0 0-5.5-7l-1-.5 1 .5a9 9 0 0 1 1.6 1.2l-1.1-.8-1.7-1-1-.2-.2-.2c-.6-.4-1.2-.8-1.8-1a15.4 15.4 0 0 0-8.9-.5 14 14 0 0 1 5.4-.1 9.7 9.7 0 0 0-3.4 0c-3.1.3-6.2 1.5-9.1 3l-2 1-1.3.9-.6.6-.2.3c0-.3.2-.5.4-.6l.6-.5 1.3-1 2.7-1.4c1.9-.8 3.8-1.6 5.9-2l.3-.1h-.4a28.3 28.3 0 0 0-8.6 3.6l-1.3.9a2 2 0 0 0-.6.5c-.2.1-.3.3-.3.6v.2h.1v.2c-1-.2-2-.1-3 .3a7.9 7.9 0 0 0-3.4 2.8 8 8 0 0 0-1.5 4.2 4.9 4.9 0 0 0 .8 3 51.4 51.4 0 0 0-2 3.7c-.4.6-.8 1.3-1 2a20 20 0 0 0-1.7 6.8c-.1.8 0 1.6.2 2.4.3.8.8 1.4 1.4 2l-1.2 1.1a6 6 0 0 0-1.7-3.6c-.5-.5-1-1-1.7-1.3a2 2 0 0 0-1-.3c-.3 0-.6 0-.8.2-.2-.6-.6-1-1-1.4-.2-.1-.4-.3-.7-.3l-.1-.3c-.4-.6-1-.7-1.5-.8l-.7-.3-.8-.2-.8-.2c-.3 0-.4-.2-.6-.3l-1.2-.5-1-.3-.4-.5-.4-.5-.7-.4h-.5l-.3.4-.3.6v1h-.2l-.1-.3-.3-.1-2.7-1c-.4 0-.7 0-1-.2 1-9 2-101-.2-101.3l-9.5.1h-.6l-24.4.3L5.6 3.5l.1.1h-.2v-.2.2h-.8l.1 57.6.3 79.8.2.2h.5l5.4-.2 24.5-.4 7.8 23.3.7 2.2 4.9 14.2c-.8-.4-1.6-1-2.2-1.2l-1.1-.7-.8-.4a16.2 16.2 0 0 0-13.8.8c-1.7 1-3.3 2.3-4.4 3.9a16 16 0 0 0-1.4 14l-.6.1h.5a15.5 15.5 0 0 0 6 7.7c1 .8 2.1 1.5 3.3 2l2.2 1.3 1 .7v.2l-.1.1.1-.1.1.2c-.4.2-.6.6-.9.8-.6.8-1 1.8-1.5 2.7a21.8 21.8 0 0 0-.8 1.5l1.3-3 .8-1.2-.7 1-1.5 3c-.9 2-1.3 4.1-1.2 6.3 0 2.2.8 4.3 1.2 6.4.2 1 .4 2 .3 3-.1.5-.2 1-.5 1.4-.3.3-.7.6-1.1.7-.5.2-1 .2-1.5.2h-1.6c-1.1 0-2.3 0-3.3.5-.5.2-1 .6-1.3 1.2l-.3.4-.1.4-.1.9c-.1 1 .2 2.2.2 3.2l-.5 3-.1 1c-.9.4-1.6.9-2.1 1.7-.7 1.2-1.3 2.5-.7 3.9.7 1.5 2.3 2.5 3.9 3 1.6.4 3.3.4 5 .5 1 0 3.4.4 4 1.8.2.7-.4 1.5-.9 2.1a17 17 0 0 1-4 3.8c-2.4 1.5-4.8 2.8-6.6 5a7.7 7.7 0 0 0-1.9 6.1c.3 1 .8 2 1.4 2.9.6.9 1.2 1.8 2 2.5l1.8 1.4c-.2.3-.5.6-.5.9.1-.3.4-.6.7-.7 1.2.8 2.6 1.4 4 1.9l1.8.5c1.4.3 2.9.5 4.3.6l-2.7 2.8c-.4-.2-.8-.2-1.3-.2-.6 0-1 .2-1.6.3-1 .3-2 .4-2.8-.1-.8-.5-1.4-1.5-2.4-2.1-.5-.4-1-.5-1.6-.5-.6.2-1.2.5-1.3 1 .3-.5.8-.6 1.3-.6s1 .2 1.3.5c.8.6 1.3 1.6 2.3 2.2a3 3 0 0 0 1.7.5 4 4 0 0 0 1.7-.4c.8-.2 1.6-.6 2.5-.6l-3.7 3.7c-1-.3-2-.1-2.9 0-1 .2-2 .3-2.9 0-.8-.3-1.4-1.2-2.3-1.9a3 3 0 0 0-1.6-.5c-.6 0-1.2.3-1.4.8.4-.3.9-.5 1.3-.3.5 0 1 .3 1.3.5.7.6 1.4 1.6 2.5 2a5 5 0 0 0 3.2 0c1-.2 1.8-.5 2.8-.5l-2.6 2.5c-.3-.2-.6-.4-1-.4s-1 0-1.5.2c-1 .4-1.9.8-2.8.6-1-.2-1.9-.7-2.8-1.1L18 288l-1.6.1c1-.1 2 .4 2.8.9 1 .5 1.8 1 3 1.3.4 0 1 0 1.6-.2l1.4-.5c.5-.2 1-.4 1.5-.4.3 0 .6 0 .8.2L24 293l.1-.3c-.3.3-.7.6-1.1.6a2 2 0 0 1-1.3 0l-2.7-.8c-2-.3-3.8 0-5.6.6 1.8 0 3.7-.2 5.4.2 1 .1 1.8.5 2.8.6.5 0 1 0 1.5-.2l.4-.2-8.7 8.6h.1c-1 .3-2.1.5-3.2.4-.7 0-1.4-.2-2-.5-.7-.3-1.3-.7-1.9-1.2-.6-.4-1.4-.8-2.2-.8-.8-.2-1.6 0-2.3.3a4.7 4.7 0 0 0-3 3.3 4.8 4.8 0 0 1 3.2-2.8c.7-.1 1.4-.2 2-.1a4 4 0 0 1 2 .8c.5.3 1.2.9 1.9 1.1a5 5 0 0 0 2.3.5c1.3 0 2.6-.5 3.8-1l26.7.3 23 .2v2.2a28.3 28.3 0 0 0-6.5 5.4l-1.2 1.8-.7 2a9.4 9.4 0 0 0-.1 4.3c.3 1.4 1 2.8 2 3.8a5 5 0 0 0 4.3 1c1.4-.2 2.8-.7 4-1.4A78.3 78.3 0 0 0 84.4 310l1.5-1.4a5 5 0 0 0 2.4 1.4l.4.1.8.2h.5c.8.2 1.7.2 2.6.1h1.7l1.2-.1c1.5 0 3-.2 4.5-.4l7.6-.8 7.6-.8a99.6 99.6 0 0 0 18.6-4l2-.6h1.5a101.8 101.8 0 0 1-34.2 7.9c-1.8 0-3.5 0-5.3-.2-2 0-4.2 0-6.2-.2L90 311h-.3c-.6-.1-1.2 0-1.9.2a33.8 33.8 0 0 0-9.5 6.2c-3.5 3-7.1 6-11.5 7.4-4.4 1.4-9.8.6-12.6-3.1 0 2.8 1.3 5.5 3.5 7.4 2.4 2.2 6 3.4 9.2 2.8 5-1 8.6-5.5 12.8-8.6a38 38 0 0 1 18.4-6.6c3.5-.4 7.1-.6 10.7-.7h2.7l.8-.4c1.3-.5 2.9-.8 4.3-1.2a80.2 80.2 0 0 0 22.7-10.6l49.6.6c-2.7 9.4 1.4 21 17.2 24 37 7 85-27.4 85-27.4l-5.3 1.6-.2-.8a40 40 0 0 0 9.9-4.4c4.9-3 8.8-8 9.5-13.5l4.7-26.8-.4 1h-.2l.6-1.9c.6-1 1-2.2 1-3.2 0-9.8-25.4-17.7-56.8-17.7-29 0-52.9 6.8-56.2 15.6h-.2l-22.3.2a553 553 0 0 0 24.5-9c5.3-2 10.6-4 15.8-6.2 5.1-2 10.4-4.2 15.5-6.5l3.2-1.3c1-.5 2-.8 3-1.1a95.3 95.3 0 0 0 11.2-4.7l1.9-1c.5-.2 1.1-.7 1.7-.9l-7.6 2.2-1.2.3a149.2 149.2 0 0 1-12.3 2.7l-1.7.1c-3.3.6-6.6 1.5-10 2.2l-16.7 3.8-8.4 1.8c-1.8.5-3.7.8-5.5 1.2-6.4 1.3-12.9 2.8-19.3 4.3-13 3-26 6.3-39 8.4-8.6 1.4-17.4 2.4-26.2 2.4a104.9 104.9 0 0 1-15.9-1.4c.2-.1.4-.3.5-.6 2.4.2 5.7.4 9.8.4l5.7.1c5 .1 10-.1 15-.6 9.8-1 19.6-3.1 29.3-5 19.5-4.1 39-8.5 58.4-12.7l14.5-3.2 14.7-2.9c2.7-.4 5.5-.8 8.2-1.6 2.1-.6 4.2-1.3 6.2-2.3 2.1-1.2 4.3-2.7 5.7-4.9a7 7 0 0 0 1.1-3.6v-1l-.3-.9-.3-1.8a44 44 0 0 1-.5-7.3l.1-3.8.2-3.7a201.7 201.7 0 0 1 3.4-25.2c1.1-5.6 2.4-11 4-16.5 3.2 1.8 9.1 4.2 19.6 5.6 5.5.9 10.9 1.3 16.4 1.6l-.3 3.4v1l-.9 8.2-2.8 22.7-1.1 7.4c-.5 3.3-1.7 7.4-4 10.2l.1-.2a6.4 6.4 0 0 0-1.4-5.7c-2.6-5-11.2-7-14.6.1a11.2 11.2 0 0 0-.7 9c.1.8.4 1.6.7 2.4a12 12 0 0 0 7.2 6 15 15 0 0 0 15.4-4l.8-.7 1-.6a8.6 8.6 0 0 1 7.2-.8l1.2.5.3.1v.2c1.8 2 4 3.7 6.4 4.9a14.8 14.8 0 0 0 12.1-.1c.6-.2 1.2-.7 1.8-1 .6-.4 1.2-.9 1.6-1.4.5-.4.9-1 1.3-1.6l1-1.9.5-2c0-.3 0-.6.2-1v-1c0-2.8-1-5.6-2.8-7.7l-.5-.5c-3-4-7.9-3.7-11-1.1l-.6.6-6.7-3.8-2.9-20.5c-.4-3.5-.7-6.9-1.2-10.3-.3-3.5-.8-6.9-1-10.3 0 3.4.4 6.8.7 10.4l1 10.4c.8 6.8 1.7 13.7 2.7 20.5.3 1.6.4 3.4.8 5-.4-1.3-.6-2.6-.8-3.8l-.4-3a844.6 844.6 0 0 1-4.6-39.9 93 93 0 0 0 18.4-1.4c3.4-.6 6.8-1.6 10-3a25 25 0 0 0 4.4-2.5c.7-.6 1.4-1.1 2-1.8l.8-1 .4-.5-.4.5-1 1a20.7 20.7 0 0 1-6.4 4.1 46.1 46.1 0 0 1-9.8 2.7c-6 1-12.2 1.4-18.4 1.3 20.2-.4 27.8-5.3 30.6-8.2l2.4-1.2zM12.3 134.4l-.1-19.9V72.6H12l-.3-58.9h.8l.2 58.9.2 61.7h.2l9.3-.2-10.2.3zm41.3 47.3H53a11 11 0 0 1-2.5-1l3 1zM27.8 183a14.8 14.8 0 0 0-2.3 9.6c.3 2.6 1 5 2.4 7.2a16.4 16.4 0 0 1-2.6-7.4c-.2-3.4.5-6.8 2.4-9.6a13.6 13.6 0 0 1 9.6-5.4 19 19 0 0 1 4 0c1.4.1 2.8.5 4 1l.8.4 1.1.6c1.5.9 3.8 2.4 5.9 2.8 1.5.3 3 0 4-1.5l.4-.6.3-.9c.3-.8.3-1.5 0-2.2.3.7.3 1.5 0 2.4 0 .3-.1.7-.3 1 0 .2-.2.3-.3.5-1.1 1.5-2.5 1.8-4 1.5-2.2-.4-4.4-1.9-6-2.8l-1-.6-.9-.4c-1.1-.5-2.5-.8-3.9-1a19 19 0 0 0-4 0c-1.9.2-3.8.8-5.4 1.7a15 15 0 0 0-4.2 3.7zm3.8 13.5l-.1-.3v-.5a7 7 0 0 1-.5-2.5 11 11 0 0 1 1.5-6 9.8 9.8 0 0 1 2.7-3c1-.8 2.3-1.2 3.7-1.2.9 0 1.7.1 2.6.3l4 1.1c2.2.6 4.8 1 7.3 1.4H54l-2.6.2 2.5 7v.1h-.2v.3h.1l.1.1h.2c2.3 6.5 3.9 10.5 5.2 14.7a18.7 18.7 0 0 0-12.2-3.9 14.7 14.7 0 0 0-4.9 1.3l-.2.1-.8-.4c-.8-.3-1.5-.8-2.3-1.2l-2.2-1.4-2.4-2-1.4-1.6c-.5-.7-1-1.5-1.3-2.4v-.2zm5 6.8l-2.4-2c-.6-.5-1-1-1.5-1.7l-.7-1.1.6 1a15.9 15.9 0 0 0 4 3.7l2.2 1.4 2.4 1.2c.3.3.7.4 1.1.6l.7.5.3.7c0-.2-.1-.3-.3-.5l-.6-.5-1.2-.5c-.7-.5-1.5-1-2.3-1.3l-2.2-1.5zm3.5 37.9h-4.4l-1.2-.2h-1c-.1-.4-.5-.6-.8-.7v-.6c0-1.2.8-2 1.9-2.3h.3c1-.3 2-.3 3-.2h4c1.3 0 2.6-.3 3.9-.7l1.5-.5v.1a5 5 0 0 0-1.2 2v1.4c.1.4.4.9.8 1.1.3.3.7.4 1 .5H40zm3.7-34l-.4-.6v.1c.3.2.4.4.5.7l.2 1.1c0 .2 0 .3-.2.3-.1 0-.3 0-.3-.2h.2c.2 0 .2 0 .2-.2l-.2-1.1zm3.5-2.4c-1.2 0-2.3.2-3.4.5l-1.4.5h-.1l.1-.1 1.5-.5c1-.3 2.2-.5 3.4-.6a18.4 18.4 0 0 1 12.3 4.1v.3a19.1 19.1 0 0 0-12.4-4.2zm12.6 36.9c.2-.5.2-1 .1-1.5-.1-.6-.4-1-.8-1.4a5.7 5.7 0 0 0-2.8-1.5c-1-.3-2-.6-2.8-1-.5-.2-.8-.5-1-1a1 1 0 0 1 .2-1.2c1 .5 2.3.7 3.4 1l.7.1c1 .3 2 .5 3.2.5v.3l.1.1.3.6.5 1 1.3 1.8a24 24 0 0 0 3 3.1l-5.4-1zM88 248l.5-.5-.4.5zM53.8 143.8a102 102 0 0 1-13.8-4.4l-.6-1.5c1.5.9 3.2 1.5 4.8 2.2l.1.1h.5c4 1.6 8 2.8 12 3.8a333.5 333.5 0 0 0 24.5 5.2 245 245 0 0 0 23.3 2.9 284 284 0 0 1-50.8-8.3zM109 55.6h-.2v-1.9l.5.2-.3 1.7zm151.6 28.3v.1l-.2.1.1-.1.1-.2.6-.5 1.5-1 1.6-.9a29.3 29.3 0 0 1 1.3-.5c-1.8.8-3.6 1.6-5 3zm22.8 52zm7.5 75.5c-.8.9-1.7 1.7-2.7 2.2 2-2.3 2.6-4.7 2.1-6.7a6 6 0 0 1 .7 4l-.1.5zm27.5 2.9l-.3-.2-.5-.7.8.9zm-6.8-14.3a46 46 0 0 0 6.6 3.8c-2.1 2-3 5.2-1.2 8.5.3.5.5 1.1 1 1.7a8 8 0 0 1-2.4-1.8c-.6-.7-1-1.6-1.4-2.5-.8-1.5-1.3-3.1-1.7-4.8-.5-1.6-.7-3.2-1-4.9z"/><path d="M309 229.3c3.7-.4 7.5 0 11.3-.4 2.2 0 4.3-.5 6.3-1.3 2.1-.8 3.7-2.3 5.5-3.6.5-.5 1.2-1.1 1.1-1.8 0-1-1.2-1.6-2.2-1.3-.8.1-1.6.8-2.3 1.3a15.4 15.4 0 0 1-17.9.1c-2.4-1.8-4.5-4.4-7.6-4.6-3.3-.2-6 2.6-8.8 4.3a15.3 15.3 0 0 1-20.6-4.5c-.4-.5-.7-1.7-1.7-1.6-.4 0-1 .4-1.3.7l-.5.8-.8 2.3c-1.5 4.6 1.8 8.5 6 9.7 2.5.8 5.1.8 7.8 1A42.1 42.1 0 0 1 307 241l2 1.8c.6.7 1.2.5 2.1.5a154.4 154.4 0 0 0 16.9-.5c1.3-.1 2.6-.2 3.6-1 1-.7 1.7-2 1.2-3.2-.6-1.2-2-1.5-3.4-1.8l-20.5-3-2-.3h-.4c-.3-.1-.6-.4-.8-.7a2 2 0 0 1 .2-2c.8-1 2-1.2 3.2-1.4zM255.6 73.5c1 .4 2.3.3 3.3-.2s1.9-1.4 2.3-2.5c.3-1 .2-2.2-.2-3.2s-1.3-1.9-2.3-2.2c-1-.3-2.2-.1-3.1.3-1 .4-1.8 1.2-2.1 2.2-.4 1-.4 2.1 0 3.1.3 1 1 2 2.1 2.5zm-8.8 5.5a2 2 0 0 0 1.7-.2 2 2 0 0 0 1.2-1.2c.1-.5 0-1-.2-1.6-.2-.5-.6-.8-1.1-1a2 2 0 0 0-1.5.2 2 2 0 0 0-1.1 2.4c.1.5.4 1 1 1.3zM15.3 295c1 .4 2 .7 3.1.7a4 4 0 0 0 2.9-1.2 4 4 0 0 1-2.9.6c-1-.2-2-.4-2.9-.8-1-.3-2-.7-3-.8-1-.1-2.2 0-3 .6.9-.3 2-.2 3 0s1.8.6 2.8 1zm-10.8 1.2a5 5 0 0 1 3.4.3l3 1.7c1.2.5 2.4 1 3.6.9 1.2 0 2.4-.5 3.4-1.1a8 8 0 0 1-3.4.5c-1.1 0-2.2-.4-3.2-1-1-.5-2.1-1.1-3.3-1.5-1.1-.3-2.5-.4-3.5.2z"/></g><g fill-rule="nonzero" transform="translate(60.6 174)"><path fill="#F0F0F0" d="M314.9 40.9c-5.8 3.6-20 6.2-36.6 6.2-21.8 0-39.4-4.4-39.4-9.8 0-1.7 1.7-3.3 4.7-4.7v-.3a42.5 42.5 0 0 1 8-13.9c-1.1.6-2.4 1-3.6 1.6a84.6 84.6 0 0 1-8.4 3.1c-9 3-18.3 5.7-27.5 8.4a334.7 334.7 0 0 1-49.6 9.6 675.8 675.8 0 0 1-52 4.7c-.8 2.4-1.5 4.8-2.6 7.2-2.2 5.3-6.5 9.5-10.2 13.7a121 121 0 0 0-5.4 6.7 42.6 42.6 0 0 0-5 9.8h.2v.1c0 .2 0 .3.2.5.1.5.3.7.6 1.1.7.7 1.5 1.2 2.2 1.7l.8 1c.3.6.5 1.2.5 1.7.4 1.7.2 3.2-.4 4.6a12 12 0 0 1-2.7 3.6c-.7.6-1.5 1-2.1 1.7l-.7.9h-.3c-.2 1.4 0 2.9-.1 4.2-.3 2.7-1 6.4-3.2 8.3l-2.3 1.3c-.2 1.6-1.3 3.8-3.2 4-.6.2-1 .4-1.5.2-.3.2-.6.2-1 .2-.7 0-1.3-.2-2-.3a8 8 0 0 0-2.6.1l-.2.4-.5.5-.5.4c-.1.2-.3.2-.5.3h-1.5v.8l-.4.6-.6.3H65c-.3 0-.7 0-1-.2-.2.4-.6.7-1 .9-1.7 1.6-4.5 2-6.9 2h-1.8l-1-.2h-.4l-.5-.2v.1c-.6 1-1.4 1.7-1.8 2.7-.3 1-.7 2-.3 3 .4.8 1.2 1.2 2 1.5 1.8 1 3.8 1.4 5.7 2 .6 0 1.3.3 1.9.5.9.4 2 .8 2.7 1.5 1.3 1.2 1.8 3 1.2 4.6v.2l-.2.3h.6s16.3 2.8 39.1-1c6.4-1 16.6-3 28.3-5.6 30.4-6.6 71.3-16 81-17.3l2.6-.5c1-.2 3-.8 4.5-1 8.8-2.6 13.4-7.4 12-12.4-1.4-5.1-1-17.3 1-31.2a200.9 200.9 0 0 1 6.7-29c1.2 1.3 7.7 7.3 31.8 8.7l5.5.2 3.4.1c30.4.3 35.4-9 36.4-10.2H315z"/><path fill="#F0F0F0" d="M93.4 45.4A240 240 0 0 1 32.1 37a79 79 0 0 1-18.7-6.7 1187.7 1187.7 0 0 0 9.5 29c.3-.5 1-.9 1.5-1.2a12.5 12.5 0 0 1 13 .6c2.8 1.8 5 4.8 5.6 8.3.5 3.2-.5 6-2.5 8.2-2 2.2-4.8 3.6-7.7 4h-3l2.5 7C36 96.5 37.6 100.8 40 108c.5.7 1 1.3 1.6 1.8a7 7 0 0 0 2.8 1.6l.1.2.3-.2.4-.3.2-.1.5-.3.7-.3c.3-.2.5-.3.8-.3l.3-.1h.2l.4-.2h.4l.4-.1v-.2l1-1.5c1.6-1.8 4-2.7 6.5-2.7h1.3l.1-.2c.2-.5.7-.9 1-1.2 1-1 2.1-2 3.3-2.6l.5-.3c.3-.1.7-.4 1.1-.4h.1c.1-.4.6-.6 1-.4 2.3 1.6 2.1 5.2.9 7.6l.4.1c.4 0 .7.1 1 .3 1.6.6 2.5 1.9 2.8 3.4.5-.2 1.2-.2 1.8-.2 1.7.1 3.4.7 4.2 1.8l.1.2c.3.2.4.5.6.8 1-1.5 1.2-3.3 1.4-5 .2-3-.6-6-.7-8.9-.2-4.2 0-8.4 1-12.5.5-2 1.3-5 3-6.4.8-3 1.3-6.2 2.3-9.2 2.7-8.3 5.8-16.4 9-24.4l.7-2v-.3z"/><path fill="#D7D7D7" d="M20.8 15.8c1.7-1.9 2.9-2.2 5.8-3.3-1.7.3-4.7.6-7.3 1.4a80.8 80.8 0 0 1 9.4-2 265 265 0 0 1 26.9-1.7h.3l9.8-.2 21.4-.1h7.6A454 454 0 0 0 120 9l1.5-.1 11.2-1c-1.7 1.8-3.3 3.8-4.9 5.8-1.3 1.8-3.8 4.8-5.2 6.8l-.3 1-1.8-.5c-1-.2-1.8-.8-2.8-.9V20a6 6 0 0 0-3.3-.7c-6.4-.3-10.2 3.9-10.7 10-1 2-1.9 4.2-2.7 6.2l-1 2.8-.3-.2C86.7 40 42.2 32 27.4 26c-14.2-5.6-7.3-9.8-6.6-10.2zM165.6 3.4l1.3-.2h.3c8-1.4 12.9-2.5 12.9-2.5V.6h.1l1.5.8c2.6 1.2 5.4 2.1 8 3.2l3.4 1.5 4 1.8 1.2.7.2.1.2.2c-.4 1.8-.4 4 1.7 4.1l.4.1c.6 1.1 2.4 1.6 3.5 1.6l1.5-.3.2-.3c1.2 1.2 3.7.7 5.2.5l.4.9c.5.6 1.2 1.2 1.5 1.9h-.2c.2.6-.3 1.5-.6 2.2a2 2 0 0 0-1-1.5 2 2 0 0 0-2 0c-.6.5-1 1.3-1 2v.1c.4 0 .6.2.8.4.3.3.4.8.3 1.1v.2l-.4.1c-.2-.7-1-1.3-1.7-1.1-.8.1-1.3 1.2-1 2v.1c-.6.1-1.2.5-1.4 1.1-.1-.3-.4-.5-.7-.6a2 2 0 0 0-2.7 1l-.1.2-.3-.2c-1-.5-2.1-.3-3 .4-.7.7-1 1.9-.6 2.8l.1.3-8.1 1.4c.6-1.2-2.2-2.5-3-1.6h-.2c-.2-.9-.8-1.7-1.5-2.3-1.4-1.2-3.8-.7-4.9.7-.3.4-.5.9-.5 1.5l-.1.2c-1.2-.2-2.7.2-3.4 1.3-.4.5-.7 1.2-.4 1.8v.5l-6.1.7v-.3c-1.1-1.7-18.4-21.2-19.7-23l-2-2.4L158 5c2.6-.7 5.1-1.2 7.5-1.6zm24.6 22.4c1.6-.3 1.2-2.6.3-3.3-.4-.4-.9-.4-1.4-.3v.1c-2.6.6-1.2 4 1 3.5zM231 74.5l-.2.5a67.2 67.2 0 0 1-22.6 21.4 192 192 0 0 1-29.4 14.5 457.1 457.1 0 0 1-40.4 13.6c-7.4 2-14.8 3.8-22.3 5.3-7.1 1.4-14.3 2.5-21.6 3.1-6.3.5-12.7.7-19 0a40.9 40.9 0 0 1-14.9-4.2c-1.6-.9-3.2-2-4.6-3.3h-2c.2 1 .3 1.9.2 2.8.5.9 1.3 1.6 2.3 2.1l4.4 1.9 1.4.8h.6c2.7.5 4.8 2.8 4 5.7l-.2.4a3 3 0 0 1-.7 1.7c5.8.6 19.1 1.4 36-1.4 6.3-1 16.5-3 28.2-5.6 30.4-6.6 71.3-16 81-17.3l2.7-.5c.9-.3 2.9-.8 4.4-1 8.8-2.7 13.5-7.4 12-12.4a93 93 0 0 1 .7-28z"/><path fill="#DCE8EB" d="M58 140.4a86.6 86.6 0 0 0-39.7-6c-5.4.5-12.6-1.3-17 2.8-4.5 9.4 10.4 5.5 12.2 9.2-1 5.4-8.4 6.7-11.4 11-5.3 5.8 1.5 13.2 7.6 14.9 13.3 2.7 27.3 1.4 40.8.6 31-2.7 60.6-12.9 89.5-24a894.9 894.9 0 0 0 90.6-35.3c-27.2 7.4-55.2 11.8-82.7 18.6-29.3 7.3-59.7 14.3-89.8 8.2zm203.4-22.7c4 1 8.4.5 12-1.7 2.8-1.7 5.5-4.5 8.8-4.3 3 .2 5.2 2.8 7.6 4.6a15.4 15.4 0 0 0 17.9 0c.7-.6 1.5-1.3 2.3-1.4 1-.2 2.1.3 2.2 1.3 0 .7-.6 1.3-1.2 1.8-1.7 1.4-3.3 2.8-5.4 3.7-2 .8-4.2 1.1-6.3 1.3-3.8.2-7.6-.1-11.4.3-1.1.2-2.3.5-3 1.3a2 2 0 0 0-.3 2.1l.7.7h.5c.6 0 1.3.3 2 .4l20.5 3c1.3.2 2.8.5 3.4 1.7.5 1.1-.1 2.5-1.2 3.2-1 .8-2.3 1-3.6 1l-4 .3c-4.3.3-8.5.3-12.9.3-.9 0-1.6.1-2.2-.5l-1.9-1.9a42.1 42.1 0 0 0-23.6-10.5c-2.7-.2-5.3-.2-7.9-1-4-1.2-7.4-5.1-5.9-9.7l.7-2.3.6-.8c.4-.3.9-.6 1.3-.7 1 0 1.2 1 1.7 1.7a15.3 15.3 0 0 0 8.6 6zM177.5 186s21 30.5 92.2 8.3c0 0-48 34.5-85 27.4-24.7-4.7-20.7-30.1-7.2-35.6zM36.3 222.4c2.5 2.2 6 3.4 9.2 2.8 5.1-1 8.7-5.5 12.8-8.6a38 38 0 0 1 18.4-6.6c3.5-.4 7.1-.6 10.7-.7h2.7l.8-.4c1.4-.5 2.9-.7 4.3-1.2a80.2 80.2 0 0 0 22.7-10.6c.7-.5 1.5-1.4 2.3-1.6a112.4 112.4 0 0 1-38.4 9.4l-5.3-.1c-2-.1-4.2 0-6.2-.3-1.5-.1-2.4-.5-3.9 0a33.8 33.8 0 0 0-9.4 6.2c-3.6 3-7.2 6-11.6 7.4-4.4 1.4-9.8.6-12.5-3a9.7 9.7 0 0 0 3.4 7.3z"/></g><path fill="#B4D1D5" fill-rule="nonzero" d="M370.8 276.5c-.2-1.2-.5-2.4-1.1-3.6-2.8-5.5-8.4-5.3-11.9-2.5-3 2.5-4.3 6.9-.5 11.2-4.7-2.1-6.8-8.2-7.5-13l-.4-3c-1.3-9-2.5-18-3.5-27.1-.3-3.6-1.1-10.3-1.2-13.9a3 3 0 0 0-1.5.5c-.5.2-1-.2-1.1-.6l-2.9.3-.3 4.3-1 9.2a695.1 695.1 0 0 1-3.8 30c-.7 4.6-2.5 10.4-6.9 12.7 8.3-9.2-7.8-18.8-13-8.2-4 8.2 1.3 16 10.3 16.4a15.6 15.6 0 0 0 9.5-2.9c.7-.4 1.3-1 1.9-1.5l.9-.8a8.7 8.7 0 0 1 9.8-.5l-.2.2c3.5 3.5 7.1 5.8 12.2 5.8h1.8l.5-.1h.4l.5-.2c.6-.1 1.2-.2 1.8-.5l.6-.2 1-.5.5-.2.4-.3h.2l.6-.5.6-.4.2-.2.5-.5.4-.5v-.1l.6-.6.4-.7.4-.7.3-.7c.7-1.9.9-4 .5-6.1z"/><g transform="translate(36.8 67.9)"><path stroke="#4F92C4" d="M31 300.6c1.9 1 4-1 4.4-3.1.4-2 .3-4.3 1.8-5.7 2-1.7 5.6-.7 7.6-2.5s1-5 1.7-7.8c1-3.3 4.6-5 7.3-7.2 2.5-2 4.6-4.5 6.5-7l12.7-16m-34.7 50.1c1.7 1 3.7-1 4-3.2.4-2 .3-4.4 1.8-5.8 1.8-1.8 5.2-.7 7.1-2.5 2-2 1-5.2 1.6-8 .9-3.3 4.3-5.1 7-7.4 2.3-2 4.2-4.5 6-7l12.1-16.4" opacity="0.5"/><g transform="translate(0 41.2)"><g transform="translate(0 36.1)"><path fill="#0C2A3E" fill-rule="nonzero" d="M81.2 142.7c-.6.4-1 1-1 1.6 0 .7.2 1.3.9 1.7.8.5 1.9.4 2.8 0a3 3 0 0 0 1.9-2l-.2-.2h-.1l-1.3-1.7v-.2l-.7-.2-1.1.2-.7.3-.5.5z"/><path fill="#C5505D" fill-rule="nonzero" d="M91.4 137.1c-2.4.7-3.6-2-3.6-2 .4-1.6 1-3 2-4.4.4-.5.9-1.2 1.5-1.5.8.6 1 1.7 1 2.6.1 1.3-.2 2.8-.5 4l-.1.4c0 .5 0 .8-.3 1zm-14.5 9.5c.1.1-.1.4-.1.5-.1.4 0 1 .2 1.3l-.1.1h-.7c-2.3.2-4-.6-6-1.8l-1.4-1.2-.4-.6.5-.6c.5-.4 1-1 1.6-1.2a9.3 9.3 0 0 1 5-1 4 4 0 0 1 2.6.8l.2.3a6 6 0 0 1-2.2 1l-.9.2H75c-.1.2.1.4.3.5.4.3.8.4 1.3.4h.8a3 3 0 0 0-1.5 1.3l-.3.6c.1.2.2 0 .3 0 .3 0 .6-.3.9-.4l.2-.2z"/><path fill="#000" fill-rule="nonzero" d="M102.5 146.5c-.3.2-.6.2-1 .2-.6 0-1.1-.3-1.7-.3a6.9 6.9 0 0 0-4 .5c-.6.2-1.1.6-1.5 1.1.3-.8 0-1.5-.3-2.2a2 2 0 0 0-.6-.7l1-.2a6 6 0 0 0 1.1-3.7l1.3-.4a7 7 0 0 1 2.4-.2c1.5 0 3 .6 3.9 1.6l.3.3c0 .1.1.2.3.1l.1.4c.2.4.2.9.1 1.4-.3.8-.8 1.7-1.4 2.1z"/><path fill="#0C2A3E" fill-rule="nonzero" d="M76.2 148.6v.2c-.1.4 0 .7.2 1a5 5 0 0 0 2.4 2.3l1.1.5v.1c-.6 1-1.3 1.7-1.8 2.7-.4 1-.6 2-.3 3 .4.8 1.2 1.2 2 1.5 1.8 1 3.8 1.4 5.7 2 .6 0 1.3.3 1.9.5.9.3 2 .8 2.7 1.5 1.5 1.4 2 3.4 1 5l-.1.3h-.2c-.3.8-1 1.3-2 1.6v.2l-.4.2-.7.3c-1 0-1.8-.7-2.5-1.2a14 14 0 0 0-3.3-1.5c-2.4-.7-5-.5-7.5-1-3.5-.6-6.7-2.5-9-5.2-1-1-2-2.2-2.7-3.5-.1-.3-.5-.8-.5-1.2-1.4 0-2.7-.4-4-.7-1.2-.3-2.2-.5-3.3-1l-.2-.1-.8-.4c-.3-.1-.8-.5-1.1-.3-.4.1-.7.6-1 1l-1 .7a18.5 18.5 0 0 1-7.4 2h-4.6c-1.8.1-4 .7-4 2.8l.1 1 .1.1c.7.5 1.2 1.2 1.5 2v1.2l-.5 1c-.3.2-.8.3-1 .2h-.2c-.5 1-1.4 1.1-2.3.7-.4-.2-.7-.2-.9-.5h-.1c-.7-.2-1.3-.7-2-1-.5-.4-1.2-.6-1.6-1.2-.5-.7-.3-1.4-.2-2.2l.5-2.5c.1-1.3-.4-2.8-.1-4 .7-2.8 4-2.3 6.2-2.3.7 0 1.6 0 2.2-.5 1.2-.7 1.4-2.2 1.3-3.4-.2-2.3-1-4.4-1.4-6.7-.5-3 .2-6.5 1.7-9.3.5-1 .9-1.9 1.5-2.7.3-.2.5-.6 1-.8l.1-.2v.1c.2 0 .2.1.2.2l.1.2h.2v-.4l-.8-.8-2.7-1.5a22.6 22.6 0 0 1-6.1-4.7 16 16 0 0 1-4-9.1c-.3-3.4.4-6.9 2.3-9.6a14.4 14.4 0 0 1 9.7-5.4 19 19 0 0 1 4 0c1.4.1 2.8.5 4 1l.7.4 1.2.6c1.5.9 3.7 2.4 5.8 2.7 1.5.3 3 0 4-1.4l.4-.6c.2-.3.2-.6.3-1 .4-1.5 0-2.7-.9-3.6a8.7 8.7 0 0 0-3-1.9c-1.6-.7-3.4-1.2-4.6-2-1-.5-1.6-1.4-1.8-2.3-.1-1 .1-2 1-2.8.5-.7 1.1-1.1 1.9-1.5a12.3 12.3 0 0 1 17.3 8.7c.4 3-.7 5.7-2.5 7.7s-4.5 3.4-7.3 3.8h-5c-2.4-.2-5-.8-7.2-1.3l-4-1.1a12 12 0 0 0-2.7-.4 7 7 0 0 0-4 1.4c-1.2.8-2.3 2-2.9 3.2a11.4 11.4 0 0 0 2 14A23.7 23.7 0 0 0 41 127l2.2 1.3 1.2.6.6.5.4.7.2.8c0 .1.1.2.3.2l.2-.3-.2-1.1c0-.3-.2-.5-.4-.7l-.8-.7-.3-.2 1.5-.5c1-.4 2.2-.5 3.4-.6a18.9 18.9 0 0 1 14.3 6c1.6 1.8 2.9 4.3 4.7 6a8 8 0 0 0 3 1.7 9.6 9.6 0 0 0-2.8 3.4c-.2.3-.4.6-.3 1l.4.6c.5.5 1 1 1.5 1.3 2 1 3.7 1.7 6 1.7z"/><path fill="#000" fill-rule="nonzero" d="M60 165.6c0 .1-.1.2-.3.2-.8.5-1.6-.2-2.3-.7a10 10 0 0 0-5.6-2c-1.1 0-2.3 0-3.1-.7-.6-.6-.7-1.5-.5-2.3.2-.7.7-1.4 1.1-2v-.3a9 9 0 0 0 1.4-.7l1-.8c.3-.3.6-.8 1-1l1.2.4.7.4.3.1v.1c-.5.2-.7.9-.5 1.4.1.5.5.9 1 1 1 .6 2 .8 3 1 .9.4 1.9.7 2.6 1.5.7.7 1.2 1.8.8 2.7h-.1l-.1.5c0 .7-.7 1.2-1.5 1.2z"/><path fill="#0C2A3E" fill-rule="nonzero" d="M93.4 145l.5.7c.4.7.6 1.5.3 2.2l-.2.3-.1.3c-.4.5-1.1.8-1.7.7l-.4-.1-.1-.1-.4-1.4h.5c.2-.2.3-.5.3-.7.2-.5.5-1.5.2-2l.1-.1c.5-.2.7 0 1 .2z"/><path fill="#C5505D" fill-rule="nonzero" d="M92.3 144.8c.4.5.1 1.5-.1 2 0 .1-.1.5-.4.6h-.5c-.5 0-1-.3-1.5-.5-.3-.1-.6-.2-.8-.5l-.1-.2.3-.3c.2-.4.7-.7 1.1-1 .5-.1 1-.4 1.5-.4h.1l.4.1v.2z"/><path fill="#0C2A3E" fill-rule="nonzero" d="M95.5 141.2v-.4l-.1-.6c-.4-1.6-1.5-3-2.8-3.8l-.8-.2c0 .4 0 .8-.3 1-2.5.6-3.6-2-3.6-2 .3-1.7 1-3.1 2-4.5.4-.5.9-1.2 1.4-1.5-.4-.2-1.1.2-1.4.3l-.4.2a17 17 0 0 0-3.4 2.6c-.4.4-1 1-1 1.5h-1.4a8.7 8.7 0 0 0-7.5 4.1v.2c-.6 0-1.2.2-1.7.5-1 .3-2 .9-2.9 1.5 0 .1 0 .2-.2.2a9.6 9.6 0 0 0-2.8 3.5c-.2.2-.4.5-.3.8v.2c.1-.3.4-.5.5-.6.5-.5 1-1 1.7-1.2a9.3 9.3 0 0 1 5-1.1c.8 0 1.8.2 2.6.8v.3a6 6 0 0 1-2 1l-1 .3h-.3c0 .2.1.4.3.5.4.3.8.4 1.4.5h.7a3 3 0 0 0-1.5 1.2c0 .1-.3.5-.2.7 0 .2.2 0 .3 0 .3 0 .6-.3.9-.4l.2-.2c.1.1-.1.4-.1.5-.1.4 0 1 .2 1.3l-.1.1h-.7v.2c0 .4 0 .7.2 1a5 5 0 0 0 2.4 2.4l1.1.5c1.3.4 2.5.5 3.8.4.8 0 1.6-.4 2.5-.6a8 8 0 0 0 2.8-1.3c1.5.5 3-.5 2.8-2.1v-.1l-.5-1.4c-.5 0-1-.3-1.5-.5-.3-.1-.6-.2-.8-.5l-.1-.2.3-.3c.2-.4.7-.7 1.1-1 .5-.2 1-.4 1.5-.4h.5l.1.2.2-.1c.3 0 .6.1.8.4l1-.2c.8-1 1.1-2.4 1-3.7zm-1.3.1c0 .5-.3 1-.8 1.3-.2 0-.3.2-.5.3l-.6.1-.7.1h-.1l-.6-.1v-.2l-.8-1.4-.2-.2a2 2 0 0 1 1.5-1.5c.7-.2 1.5-.1 2.1.3.4.3.6.7.6 1.2.2 0 .2 0 .1.1z"/><path fill="#000" fill-rule="nonzero" d="M281.2 4.8c2.8 1.8 3.6 5.4 2.8 9.8h-.2l-.1-.2-.4-.2-.4-.5-.4-.4c-.6-.7-1-1.5-1.2-2.3a14 14 0 0 1-.4-2.6v-1l.1-1.6.2-.7v-.3s-.1 0 0 0zm-.3.4l-.1.6-.2 1.6v.1l-.4 1v2.7c-.1.5-.3 1-.6 1.3l-.5.6-.1-.1.3-.8.1-1.2V8.2c0-.4.2-.8.4-1.2l.5-1 .2-.3.4-.6zm-4-1.7c1.7.1 3.2.5 4.3 1.3h-.1l-.2-.1h-.2l-.8.1h-1.3c-.7 0-1.4 0-2.1-.2-.8 0-1.5-.3-2.2-.5l-1-.3-.4-.2h4z"/><path fill="#FFF" fill-rule="nonzero" stroke="#0C2A3E" d="M79.6 144.4c.2-.6.7-1 1.3-1.4l.7-.2h1.6l.7.4v.3s0 0 0 0l.6 2h0c.2 0 .2.2.1.3-.4.8-1.3 1.3-2.2 1.4-1 .2-2-.2-2.5-.8-.5-.6-.5-1.1-.5-1.6l.2-.4z"/><circle cx="82.5270758" cy="145.054152" r="1.15523466" fill="#0C2A3E" fill-rule="nonzero"/><circle cx="92.8519856" cy="141.299639" r="1.15523466" fill="#0C2A3E" fill-rule="nonzero"/><g fill="#4F8E99" fill-rule="nonzero" transform="translate(265.7 45.5)"><path d="M65.6 13.2a50.4 50.4 0 0 1 10.9 3.6c1 .7 2.1 1.5 2.7 2.8.3.6.3 1.3 0 2-.1.6-.6 1.2-1 1.6-1 1-2.1 1.6-3.3 2.2a36.3 36.3 0 0 1-7.2 2.5 89 89 0 0 1-15.2 2.4 156.3 156.3 0 0 1-30.7-.6 92.4 92.4 0 0 1-15-3.4c-1.2-.5-2.4-1-3.5-1.7-1-.7-2.1-1.5-2.7-2.8-.3-.6-.4-1.4 0-2 .1-.7.6-1.2 1-1.7 1-1 2-1.6 3.2-2 2.3-1.2 4.9-1.9 7.3-2.5a87.6 87.6 0 0 1 .1.3A34 34 0 0 0 5 16.4c-1.2.6-2.3 1.2-3.1 2a4 4 0 0 0-1 1.6 2 2 0 0 0 0 1.7c.5 1.1 1.6 2 2.6 2.6a69.3 69.3 0 0 0 18.3 5 180.6 180.6 0 0 0 30.5.6c5.1-.6 10.2-1.2 15.1-2.5 2.5-.5 5-1.3 7.3-2.3 1.1-.6 2.2-1.2 3.1-2 .5-.5.8-1 1-1.6a2 2 0 0 0 0-1.7 6 6 0 0 0-2.6-2.6 31.9 31.9 0 0 0-10.5-4z"/><g transform="translate(37.5)"><path d="M.1 5.7c.3-1 1-1.7 1.3-2.6l.8-1.3a3 3 0 0 1 1.2-1c1.9-1 4-.7 5.8-.7l1.6.1.8.4c.2.2.5.4.5.8 0 .3-.2.5-.3.6l-.3.3c-.3.2-.5.2-.8.2l-1.5.2c-2 .3-4 .2-5.7-.5a19.4 19.4 0 0 0 5.7 0l1.4-.3.6-.2c.2-.1.3-.3.2-.3 0 0 0-.2-.2-.2l-.5-.3H9.3L8 .8H6.4a6 6 0 0 0-2.7.6c-.9.3-1.4 1.1-1.9 2C1.2 4 .6 4.7.1 5.6z"/><path d="M11.8 1c.5.7.7 1.5.8 2.2l.3 1v1.1l-.6-.9-.4-1V1zM10 2.3c.3.5.5 1 .5 1.6.1.6.1 1.2-.2 1.7-.3-.5-.4-1-.5-1.6 0-.5 0-1 .2-1.7zm-2.6.3c.3.2.3.6.4.8V5c0 .3 0 .6-.2.8L7 4.3l.1-1 .2-.7zM5 2.6V4c0 .5 0 1-.5 1.5-.2-.5-.2-1-.2-1.5.1-.5.3-1 .8-1.4z"/></g><path d="M1 25.4c.6.7 1.3 1.2 2 1.7l.5.3.6.4 1.1.6 1.2.6 1.1.5 2.4.9 2.4.7 1.3.4 1.2.3 2.5.5 2.6.5c6.7 1.1 13.5 1.6 20.4 1.6 6.8.3 13.6 0 20.4-1.2 3.3-.6 6.7-1.4 9.8-2.7a20.7 20.7 0 0 0 6.5-4.1l.8-1 .5-.5.4-.4c-.2 0-.3.3-.4.4l-.4.5-.9 1c-.5.7-1.2 1.2-2 1.8a25 25 0 0 1-4.4 2.6 47.3 47.3 0 0 1-9.9 3 130.4 130.4 0 0 1-41-.4l-2.5-.6-2.5-.6-1.3-.3-1.2-.3a32.3 32.3 0 0 1-4.8-1.8l-1.2-.5-1.1-.6c-1.5-1-3-2-4-3.3z"/></g><path fill="#4F8E99" d="M80.9 36.8l-1-1.9a47 47 0 0 1-1-1.8l-2-5.8s-.2-.2-.3 0c0 0-.1 0 0 .1.6 1.8 1.3 3.9 2.1 5.8l.9 1.9 1 1.8h.2v-.1z"/><path fill="#4D876D" fill-rule="nonzero" d="M263.5 7.1c1.3.8 1.8 2.4 1.8 3.9 0 1.4-.5 3-1.2 4.2-.8 1.2-2 2.3-3.3 3a6 6 0 0 1-2.2.4 3.8 3.8 0 0 1-3.7-2.5c-.3-.7-.5-1.5-.4-2.2 0-1.6.7-3 1.5-4.2.9-1.3 2-2.2 3.4-2.8 1.2-.5 3-.6 4.1.2zm0 0c-.5-.4-1.3-.5-2-.5-.8 0-1.5.2-2.1.5a8 8 0 0 0-3.2 2.8 8 8 0 0 0-1.3 4c0 1.3.6 2.7 1.6 3.5 1.1.7 2.6.7 3.9.2A7.8 7.8 0 0 0 265 11c0-.7-.1-1.4-.4-2 0-.8-.6-1.5-1.2-1.9zm11.5 6.1c1.3 1 1.8 2.7 1.8 4.3a9.8 9.8 0 0 1-1.6 4.6 9 9 0 0 1-3.6 3.3c-.7.4-1.6.7-2.4.7a6 6 0 0 1-2.6-.7 4.2 4.2 0 0 1-1.5-2c-.3-.9-.4-1.7-.4-2.6a9.3 9.3 0 0 1 5.5-7.7c1.5-.7 3.4-.8 4.7.1zm0 0a5 5 0 0 0-2.4-.6c-.8 0-1.6.3-2.3.5a8.8 8.8 0 0 0-3.4 3.3 9.1 9.1 0 0 0-1.5 4.4c0 1.5.4 3.1 1.7 4 1.2.8 2.9.7 4.3 0a8.9 8.9 0 0 0 3.5-3c1-1.2 1.6-2.7 1.7-4.3 0-.8 0-1.6-.3-2.4-.2-.7-.7-1.4-1.4-1.9z"/><path fill="#000" fill-rule="nonzero" d="M281.2 4.8v.3l-.1.7-.2 1.6v1c0 .8.2 1.7.4 2.6.2.8.6 1.6 1.2 2.3l.4.4.5.5.4.2v.3h-.3l-.1-.1-.3-.2-.6-.5-.3-.4a8 8 0 0 1-1.2-2.4c-.3-.8-.4-1.7-.4-2.7v-1l.1-1.5.2-.8v-.3h.3c.1 0 0 0 0 0z"/><path fill="#000" fill-rule="nonzero" d="M280.6 5l-.7.1h-1.3c-.7 0-1.5 0-2.2-.2l-2.2-.5-1-.4-.5-.2v-.2h.2c.1.2.3.2.5.3l.9.3 2.2.5 2.1.2h1.3l.7-.1h.4v.3l-.1.2-.4.5-.2.3-.5 1-.3 1.2V11l-.2 1.2c0 .4-.2.7-.5 1 .3-.1.6-.4.7-.6l.6-1.3V8.6l.5-1h.3V8a1 1 0 0 0-.4.8v2.6c0 .5-.3 1-.6 1.5a6.2 6.2 0 0 1-1.8 1.7h-.2s-.1 0 0-.2v-.1l.3-.3.2-.2.2-.3.5-1.2.1-1.2V8.4l.3-1.2.5-1.1.2-.4.4-.7z"/><path stroke="#000" stroke-linecap="round" stroke-linejoin="round" d="M60.1 165.6c.8 0 1.4-.5 1.6-1.2.2-.7-.1-1.4-.7-1.9"/><line x1="266.353791" x2="266.353791" y1="77.3285199" y2="77.0397112"/><line x1="250.469314" x2="250.469314" y1="226.353791" y2="225.631769"/><path fill="#000" fill-rule="nonzero" d="M310.9 83.7l9.2-1.4 9.4-1.2 9.3-1.1 4.7-.5 4.7-.4-4.7.8-4.6.6-9.3 1.2-9.3 1.1-9.4 1zm-48.6 6.1l10.5-1.6a516.5 516.5 0 0 1 21-2.6l5.2-.5 5.3-.6-5.2.8-5.2.8-10.5 1.3a516.5 516.5 0 0 1-21 2.4zM33.9 118.3c2.1-.5 4.2-.8 6.4-1.1l6.4-.9 6.5-.7 3.3-.3 3.2-.2-3.2.6-3.2.5-6.4.8-6.5.8-6.5.5zM.5 122.4l6.9-1.2 6.8-1 7-.7 3.4-.4c1.2 0 2.3-.2 3.5-.3-1.2.3-2.3.5-3.5.6l-3.4.5-6.9 1-7 .8-6.8.7z"/><path stroke="#4F92C4" d="M285.3 51.6l.1 2.4c0 2.5-.3 5.4 1.4 7.5 1 1.2 2.3 2.3 3.6 3.3l1.5 1m4.1 1.5l1.1.4a57.4 57.4 0 0 0 22.5.2c3.6-.7 6.9-1.4 9.4-4.3 1.7-1.9 2-4.2 2.6-6.6.3-1.3.5-3.5 1.5-4.4"/><g fill="#4F92C4" fill-rule="nonzero" transform="translate(283 42.6)"><path d="M47.7 2.5c.7.1 1.3.2 2 .5l1 .5c.2.2.5.4.6.8 0 .3 0 .8-.2 1-.2.3-.5.5-.8.6-.6.4-1.2.7-1.9.9-2.6.9-5.2 1.3-7.9 1.6a109.8 109.8 0 0 1-32.3-1C7 7 5.6 6.6 4.4 5.9c-.3-.2-.6-.4-.8-.8l-.1-.6v-.2l.2-.3c.5-.7 1.1-.9 1.7-1.2a18 18 0 0 1 4-1c1.2-.4 2.6-.5 3.9-.6a33 33 0 0 0-7.8 1.9c-.6.3-1.2.6-1.5 1-.4.6.1 1.1.6 1.4 1.1.6 2.5 1 3.8 1.3a120 120 0 0 0 32.1 1 40.9 40.9 0 0 0 9.7-2.2c.6-.3 1.1-.8 1-1.4-.2-.7-.9-1-1.5-1.2l-2-.5z"/><path d="M18 .7c5-.6 10-.7 15-.6l7.4.5 7.4.7 2.6.6 1.3.6c.3.3.7.6 1 1.1L53 5l.1 1.4A4 4 0 0 1 52 9a5 5 0 0 1-2.3 1.5c-.8.4-1.7.5-2.6.6-.8.2-1.7.2-2.6.2l-2.7.2 2.6-.4 2.6-.3c.9-.2 1.7-.4 2.5-.8.8-.3 1.5-.8 2-1.5.5-.6.8-1.4.8-2.3L52 5c0-.5-.1-.9-.3-1.2-.3-.6-1.1-1-2-1.3-.7-.3-1.6-.4-2.4-.6L40 1.2 32.6.6A199 199 0 0 0 18 .7zM4.7 1.8L3 2.8A7 7 0 0 0 1.7 4l-.5.8-.3.8c0 .2-.1.6 0 .8v.4l.2.3c.5 1 1.6 1.8 2.7 2.4l1.7.7 1.9.4-2-.1c-.6-.2-1.3-.3-1.9-.6a5.9 5.9 0 0 1-3-2.5l-.3-.5v-.6a4.3 4.3 0 0 1 1.1-2.8c.4-.5 1-1 1.6-1.3l1.8-.4zm5 9.2l3.9.3c1.3 0 2.5.2 3.8.3l7.7.4 7.6.1h1.9l1.9-.1c.6 0 1.3 0 1.8-.2l2-.2c-2.5.7-5.1 1-7.7 1.1a90.2 90.2 0 0 1-15.3-.5L9.7 11z"/></g><path fill="#C5505D" fill-rule="nonzero" d="M289.1 48.8c.2-1 .7-2 1.5-2.7.7-.7 1.7-1.2 2.8-1.3v.1c.4-.2.8-.3 1.3 0 .2 0 .3.2.4.4v.6l-.2-.5-.4-.2c-.3 0-.6 0-.9.2a8.3 8.3 0 0 0-4.5 3.4z"/><path fill="#C5505D" fill-rule="nonzero" d="M292.8 49.4c.8-1.5 1.5-3 2.4-4.4.8-1.4 2-2.8 3.5-3.6.4-.2.9-.3 1.4-.2.5.1 1 .5 1.1.8.3.5.4 1 .3 1.5 0 .2-.1.5-.3.6l-.4.5c-.6.7-1.3 1.1-2 1.6-.6.5-1.3 1-1.7 1.6l-.8 1-.1.4.1.3c.2.1.5.1.9-.1l1-.7a5 5 0 0 0 1.5-2.2c.4-.9.8-1.8 1.5-2.6h.1c.9-.2 1.7-.4 2.5 0l.5.5.3.6c.2.4.2.8.2 1.2a13.4 13.4 0 0 1-1 4.6c.2-.7.5-1.5.5-2.3.2-.8.2-1.5.2-2.3-.1-.7-.3-1.5-.9-1.9-.6-.3-1.4-.2-2 0-.5.7-.9 1.5-1.2 2.5-.4.9-1 1.9-1.8 2.4l-1 .8c-.5.2-1 .3-1.6 0a1 1 0 0 1-.4-.8c0-.3 0-.5.2-.8.2-.5.5-.8.9-1.1a6 6 0 0 1 1.8-1.7l1.9-1.5c.2-.3.5-.6.5-.9.1-.2 0-.6-.1-.9-.2-.3-.5-.5-.8-.6-.4 0-.6 0-1 .2-1.5.6-2.5 2-3.5 3.2-1 1.4-1.8 3-2.7 4.3z"/><g fill-rule="nonzero" transform="translate(26.7 128.5)"><path fill="#FFF" d="M63.5 38.2c.2 0 .5.2.6.4l.4.7c.2.5.3 1 .1 1.6-.1.5-.5 1-1 1.3a2 2 0 0 1-1.4.3l1.2-.8c.3-.3.5-.6.6-1 .2-.3.1-.8.1-1.2-.3-.5-.3-1-.6-1.3z"/><path fill="#000" d="M49.5 9.4c.4-.9.9-1.7 1.5-2.3.7-.7 1.6-1.2 2.4-1.5.9-.4 1.8-.6 2.8-.6h1.3l1.4.4h-1.4a3 3 0 0 0-1.3.2c-.9.1-1.8.3-2.6.6-.7.3-1.5.7-2.3 1.3l-1.8 1.9z"/><path fill="#000" d="M58.3 5.3c0-.3.3-.6.5-.9l.6-.8L61 2.2c.5-.5 1.2-.8 1.8-1.2l1-.5.5-.1c.2 0 .5 0 .7.2.6.6.9 1.3 1 2 .2.7.2 1.4 0 2.2a15 15 0 0 1-1.2 4c.4-1.4.6-2.7.6-4l-.1-2a3 3 0 0 0-.8-1.6l-.6.1-.8.4-1.8 1L59.6 4c-.5.3-1 .7-1.3 1.3z"/><path fill="#000" d="M64.6.8l-1 1.4-.9 1.4-1.5 3.1a7.3 7.3 0 0 1 2-4.9 3 3 0 0 1 1.4-1zM50.5 9.7c-.9 0-1.8.3-2.6.6l-2.3 1.3-2 1.8-1.4 2.2-.3.5v.1l.1.3.8.9c.6.6 1.5 1 2.2 1.4 1.5 1 3.2 1.3 5 1.3a8 8 0 0 1-2.7.1 10 10 0 0 1-2.6-.8l-1.2-.6a11 11 0 0 1-1.2-.8l-1-1.1-.1-.4V16l.2-.7c.5-.7 1-1.6 1.6-2.2.7-.7 1.3-1.3 2.1-1.8s1.6-.9 2.5-1.2c1-.4 2-.6 2.9-.4z"/><path fill="#000" d="M41.7 16.5l.2-.7.5-.5 1-1a8.3 8.3 0 0 1 5.5-1.2c1 .2 2 .5 2.5 1.2-.8-.5-1.7-.6-2.5-.6a10.6 10.6 0 0 0-5 1.2c-.4.2-.9.4-1.2.7l-.6.4c-.2.1-.4.2-.4.5z"/><path fill="#000" d="M52.1 13.7c-.1.6-.6 1.1-1.1 1.5a7 7 0 0 1-1.7.8l-.9.2.1-.1c0-.1 0 0 0 0h.2l.8.4h1l.3.1c.1.4 0 .3 0 .4l-.2.1h-.3l-.3.3c-.3.1-.5.4-.6.6l-.4.6s0 .1-.1 0l-.2-.1.4-.2.8-.3h.4v.3l-.1.2v.3c-.2.5 0 1.1.5 1.6l-.7-.7c-.1-.3-.3-.6-.3-1v-.2l.1-.2V18l.3.2h.1l-.8.5-.4.2h-.3s-.3 0-.3-.2c-.2-.2-.1-.3 0-.5.1-.4.3-.5.5-.8l.7-.7.4-.3h.3s0-.1-.2 0c0 .1-.1 0 0 .4.3.3.2.1.2.1h.1-1.2c-.4 0-.7-.2-1-.3l-.2-.2-.2-.2-.1-.5.1-.2h.1l.2-.1.9-.3 1.6-.5c.7 0 1.2-.4 1.5-1zm-2.6 6.6l.2.9.6.7c.3.4.8.8 1.3 1.1 1 .6 2.3 1 3.4 1.1h1.8c.6 0 1.2 0 1.8-.2 1.3-.3 2.4-.6 3.6-1.2a13.4 13.4 0 0 1-5.3 2.2h-2a7.4 7.4 0 0 1-3.6-1.4 4 4 0 0 1-1.3-1.3l-.5-.9v-1z"/><path fill="#000" d="M60.4 21c.4.6.8 1 1.3 1.3.5.2 1 .4 1.5.2.6 0 1-.4 1.3-.8l.2-.8v-.8l.4-.1h.2v.2l.1.2c0-.1 0 0 0 0 .3.2.9 0 1.3-.3.2-.1.4-.2.5-.5.2-.2.2-.5.2-.7.1-.5-.1-1-.3-1.6-.2-.5-.7-1-1.3-1 .6-.1 1.2.3 1.6.8.3.5.6 1.2.6 1.8 0 .4 0 .7-.2 1a2 2 0 0 1-.7.9c-.2.2-.5.4-.9.4-.4.1-.7.1-1.1-.1H65l-.2-.2v-.1h.5c.1-.2 0-.3 0-.4v.6l-.2 1c-.4.7-1 1-1.8 1.1-.6 0-1.3 0-1.9-.5a5 5 0 0 1-1-1.5z"/><path fill="#000" d="M62.4 17.5c.1-.5.5-.7.8-1l1.1-.7.8-.1h.5v.1h.1l.1.2c.3.5.3 1 .2 1.5l-.2.6-.3.6-.4.4-.3.1H64l-1.1-.6-.6-.4-.2-.3v-.3c0 .5.5.5 1 .6l1 .4h.6l.2-.1.2-.7.2-.5v-1h-.8l-1.2.3-1 .9zM5.6 33.6a6 6 0 0 1 2.3.3 4 4 0 0 1 1.7 1.5c.2.3.4.7.4 1.1.1.5 0 .8-.1 1.3-.2.3-.3.7-.7 1-.3.3-.8.2-1.1 0a2 2 0 0 0 1-.3l.3-.9c.1-.6 0-1.3-.4-1.8a5 5 0 0 0-1.3-1.4l-2-.8z"/><path fill="#000" d="M14 2l-.7.5-.5.7a22.7 22.7 0 0 0-2.2 4.2c-.7 2-1 4.2-1 6.2 0 2.1.8 4.2 1.3 6.3l.3 1.5v1.7c0 .6-.3 1.2-.6 1.7s-.9.9-1.4 1l-1.7.3H6c-1 0-2 0-3 .3a2 2 0 0 0-1 1l-.2.3-.2.3-.1.7c-.1 1 .1 2.1.1 3.2s-.3 2.2-.6 3.2a2 2 0 0 0 .1 1.4c.2.5.7.8 1 1 .6.2 1 .6 1.5.8l.7.4H5c.4 0 .9-.5.9-1-.1-.5-.6-.9-.9-1.2.4.3 1 .6 1 1.2s-.3 1.1-.8 1.3H4l-.6-.4-1.4-.8c-.5-.3-1-.6-1.3-1.1-.3-.6-.2-1.2-.2-1.8l.6-3-.3-3.2.2-.9.1-.4.2-.5c.3-.5.8-1 1.3-1.1 1.1-.5 2.3-.5 3.4-.5h1.6c.5 0 1 0 1.5-.2.4-.1.8-.4 1-.8.3-.3.5-.8.6-1.3.1-1-.1-2-.3-3-.5-2.2-1.2-4.2-1.3-6.4 0-2.2.4-4.4 1.3-6.4.4-1 1-2 1.5-2.9.3-.4.6-1 1-1.3 0-.2.3-.4.5-.5 0-.2.2-.4.4-.4z"/><path fill="#FFF" d="M4.8 39l.7.2.7.2c.5 0 .9-.1 1.2-.4.3-.3.5-.7.5-1.2s-.1-1 0-1.6c.2.6.5 1 .5 1.6v.9l-.5.8a2 2 0 0 1-.9.5H6l-.7-.4c-.2-.2-.5-.4-.5-.7z"/><path fill="#000" d="M8.2 34.4c-.2-.2-.2-.6-.2-.9v-1A3 3 0 0 1 9.4 31c1.2-.7 2.6-.7 3.9-.7l3.9-.1 3.7-.7c1.3-.4 2.5-1 3.4-1.7l.4-.3.3-.3c.2-.2.4-.5.8-.7.3-.1.6 0 .8 0l.5.2.8.4c1.2.6 2.4 1 3.7 1.3 1.3.3 2.6.7 3.9.8-1.3.1-2.6-.2-4-.5-1.2-.3-2.5-.5-3.8-1l-1-.5a1 1 0 0 0-.3-.1H26c-.2 0-.4.3-.6.6l-.4.3-.4.3c-1 .9-2.3 1.4-3.6 1.8-1.3.4-2.6.6-4 .7h-3.9a7.6 7.6 0 0 0-3.7.4c-.6.2-1.1.6-1.3 1.3-.2.3-.2.6-.2 1s0 .7.2 1zm27.3-5.1c0 .4.2.7.5 1l.5 1a30.6 30.6 0 0 0 4.7 4.7 15 15 0 0 0 8 3.2l4.4.4a11.2 11.2 0 0 1 6.1 2.9c.6.3 1.3.5 1.9 0 .6-.3 1-1 .9-1.7-.1-.7-.6-1.4-1-2 .5.6 1 1.2 1.1 2v1c-.2.4-.5.8-.8 1a2 2 0 0 1-1.2.4c-.4 0-.7-.2-1.1-.4l-1-.6c-.2-.3-.5-.4-.9-.6-1.3-.7-2.7-1.2-4.1-1.4-1.4-.2-3-.2-4.4-.3-3-.3-6-1.6-8.3-3.5a22 22 0 0 1-4.4-5l-.5-1c-.2-.4-.4-.7-.4-1zm17.7-5c-.5 1-1.3 1.8-1.6 2.8-.3 1-.6 2 0 3 .2.4.6.7 1 .9l1.5.6c1 .5 2 .7 3 1 1 .3 2.1.5 3.1.9l1.5.6 1.5.8a5 5 0 0 1 1.8 2.9c.2 1 0 2.3-.7 3.1.5-.9.7-2 .3-3-.3-1-1-1.9-1.8-2.4-.9-.6-1.9-1-2.9-1.3l-1.5-.4-1.6-.4a22.5 22.5 0 0 1-4.5-2 3 3 0 0 1-1.3-1.1c-.3-.6-.3-1.2-.2-1.8 0-.6.2-1 .5-1.6.5-1 1.3-1.7 2-2.6zm22.8-6c.3.1.6 0 .8 0l.5-.2.4-.1a3 3 0 0 0 1.3-.9c.4-.3.6-.9 1-1.3l.7-1.5a4 4 0 0 1-.3 1.8c-.2.6-.5 1.2-1 1.6-.3.4-1 .8-1.6 1H77c-.4 0-.8-.1-1-.4zM65.8 7.9a5 5 0 0 1 3.2 3.7 5 5 0 0 1-1.3 4.7c.7-1.4 1-3 .6-4.5a7 7 0 0 0-2.5-4z"/><path fill="#000" d="M22.7 29.5c-.5.7-.9 1.5-1 2.3-.1.8.2 1.6.8 2 .7.4 1.5.4 2.4.4a10.3 10.3 0 0 1 5 1.4c.9.4 1.5 1 2.2 1.4.3.2.7.3 1 0 .3-.1.4-.5.4-.9s-.1-.8-.4-1c-.3-.4-.7-.6-1-.8.4.1.8.3 1.1.6.4.3.7.7.7 1.1 0 .5-.1 1-.5 1.3-.5.3-1 .3-1.5.1-.4-.1-.8-.4-1.1-.6l-1.1-.7-2.3-1a10 10 0 0 0-2.5-.3c-.9 0-1.8 0-2.7-.6-.4-.3-.7-.7-.8-1.1a3 3 0 0 1 0-1.4 5 5 0 0 1 1.3-2.2zm5.5-1.8a1 1 0 0 0-.3 1.3c.3.5.6.7 1 1l2.9.9c1 .3 2 .7 2.8 1.5.3.5.6.9.8 1.5.1.5 0 1-.2 1.6.2-1-.3-2-1-2.6a9 9 0 0 0-2.6-1.3c-1-.3-2-.6-3-1.1-.4-.3-.8-.8-1-1.3-.2-.6.1-1.3.6-1.5z"/></g><path fill="#000" fill-rule="nonzero" d="M103.7 142.2l-.3-.4c-.9-1.2-2.5-1.7-4.3-1.8-.7 0-1.3 0-2 .2l-1.6.7v.4c.3-.2.7-.4 1.3-.4a9 9 0 0 1 2.3-.3c1.5 0 3 .6 4 1.6l.2.3c0 .1.2.2.3.1v-.4z"/><path fill="#000" fill-rule="nonzero" d="M104 142.7a2 2 0 0 0-.6-.8h-.4l.1.1c0 .2.2.3.3.4l.3.5v1.4a3 3 0 0 1-1.2 2.3c-.3.2-.6.2-1 .2-.6 0-1.1-.3-1.7-.4a9 9 0 0 0-4 .5 4 4 0 0 0-1.7 1.5l-.2.2.8-.2c.5-.6 1.1-1 1.8-1.3a8 8 0 0 1 3.2-.3c.7 0 1.4.4 2.1.3.3 0 .7 0 1-.2.7-.5 1.4-2 1.4-3.1 0-.4 0-.8-.2-1zM44 128l.6-.1 1.5-.5c1-.3 2.2-.5 3.4-.6a18.9 18.9 0 0 1 14.3 6c1.6 1.7 2.8 4.2 4.7 6 .9.7 1.8 1.3 3 1.6l.2-.1-.1-.2c-1.1-.3-2-.9-2.8-1.5-1.9-1.8-3.1-4.3-4.8-6a19.5 19.5 0 0 0-9.3-5.6 16.4 16.4 0 0 0-8.8.1l-1.4.6-.6.3v.2l.1-.1z"/><path fill="#000" fill-rule="nonzero" d="M41 131v-.3c-.1-.3-.4-.5-.8-.8-.8-.7-2.1-1.2-2.7-1.5a24.7 24.7 0 0 1-6.1-4.7 16 16 0 0 1-4-9.1c-.3-3.4.5-6.9 2.3-9.6 1.1-1.5 2.6-2.8 4.3-3.7 1.7-1 3.6-1.5 5.4-1.7a19 19 0 0 1 4 0c1.4.1 2.8.5 4 1l.8.3 1.1.7c1.5.9 3.8 2.4 5.9 2.7 1.5.3 3 0 4-1.4l.4-.6.3-1c.5-1.5 0-2.7-.8-3.6a8.7 8.7 0 0 0-3-1.9c-1.7-.7-3.5-1.2-4.7-2a3 3 0 0 1-1.7-2.3c-.2-1 0-2 .8-2.8.6-.7 1.3-1.1 2-1.5l2.4-.8a12 12 0 0 1 9.5 1.6c2.7 1.8 4.8 4.6 5.4 8a9 9 0 0 1-2.4 7.7c-1.8 2-4.5 3.4-7.3 3.7-1.6.2-3.3.2-5 0-2.4-.2-5-.8-7.2-1.3l-4-1a12 12 0 0 0-2.7-.4 7 7 0 0 0-4 1.4 11 11 0 0 0-3 3.1 11.5 11.5 0 0 0 2 14.1l2.5 2 2.2 1.5 2.3 1.2 1.2.6.7.5.3.7.2.8c0 .2.2.2.3.2.2 0 .2-.1.2-.3a6 6 0 0 0-.3-1c0-.3-.2-.5-.4-.8l-.7-.6-1.2-.7c-.8-.3-1.6-.8-2.3-1.2l-2.2-1.4-2.5-2-1.3-1.6a10.8 10.8 0 0 1 2.1-14.8 6.5 6.5 0 0 1 3.8-1.3c.8 0 1.7.2 2.6.4l3.9 1c2.3.6 4.8 1.2 7.3 1.4 1.7.2 3.4.3 5 0 3-.3 5.8-1.8 7.8-3.9 2-2.1 3-5 2.5-8.2-.6-3.5-2.8-6.5-5.7-8.4a12.7 12.7 0 0 0-13-.5 6 6 0 0 0-1.6 1.3 4 4 0 0 0-1 3.3c.2 1 .8 2 2 2.7 1.2.7 3.1 1.3 4.8 2 1 .5 2 1 2.8 1.8.7.8 1 1.8.7 3.2l-.2.7c0 .2-.2.4-.4.6-1 1.3-2.2 1.5-3.5 1.3-2-.3-4.2-1.9-5.7-2.6l-1.2-.7-.8-.4a16.2 16.2 0 0 0-13.8.8c-1.7 1-3.3 2.3-4.4 3.9-2 2.8-2.6 6.4-2.3 9.9a16.1 16.1 0 0 0 6.9 11.9c1 .8 2.2 1.5 3.3 2a26.8 26.8 0 0 1 3.2 2l.1.2.1.2h.6z"/><path stroke="#4F92C4" stroke-linecap="round" stroke-linejoin="round" d="M199.3 59.6c-.3-.7 0-1.3.4-2 1-1.4 3.1-1.6 4.5-.7.6.4 1.4 1.3 1.2 2m-2.2-2.7c0-.6.2-1 .6-1.5 1-1.4 3.4-2 4.9-.7 1.1 1 2.1 3.2 1 4.6m.6-2.2c.9-.9 3.6.4 3 1.7m-.4-6.9c-2.6.6-1.2 4 1.1 3.5 1.7-.3 1.2-2.5.3-3.4-.4-.3-1-.3-1.4-.3m21.5-24.6c-.2-.2.3-.1 0 0a20 20 0 0 0-8.7 4c-.6.6-1.5 1.4-1.2 2.5.3 1.2 2.4 1.1 3.3 1 3-.4 6.2-1.2 9.1-2.3"/><path stroke="#4F92C4" stroke-linecap="round" stroke-linejoin="round" d="M225 31.3c-.5.5-.7 1.4-1 2l-.6 1.8-.4 1.1c-.5 1.7-1.6 5.6 1.4 5.6"/><path stroke="#4F92C4" stroke-linecap="round" stroke-linejoin="round" d="M225.1 38c-.4 1-.8 2.4-.6 3.4.3 1.4 2.5 2 3.7 2l1.5-.3m-.3-2.7c0 .5-.2 1.1 0 1.6 1 2.2 4.1 1.5 5.8 1.2m-4.6-9.8c-.5 1.1-.4 2.8-.5 4m-3.2-2.7c0 .3 0 0-.1.2m-5.4 21.5c-.3-1 0-2.1.7-2.8.7-.7 2-.8 2.9-.4 1 .4 1.4 1.6 1.3 2.6"/><path stroke="#4F92C4" d="M226 54c0-.8 1-1.3 1.8-1 .7.3 1 1.4.6 2"/><path stroke="#4F92C4" d="M225.4 53.2a2 2 0 0 1 2.7-1c1 .4 1.4 1.7.9 2.7"/><path stroke="#4F92C4" d="M228.8 52.8a2 2 0 0 1 2.5-1c.9.5 1.3 1.8.8 2.6m-1.8-2.8c-.3-.8.1-1.9 1-2 .8-.3 1.7.5 1.6 1.4.2-.7 0 0 .6-.2a2 2 0 0 1 1.9.3v.4"/><path stroke="#4F92C4" stroke-linecap="round" stroke-linejoin="round" d="M230 51.4c-.1-.6 0-1.2.3-1.7.4-.5 1-.8 1.5-.9.5 0 1 .2 1.2.4.3.3.4.8.3 1.2m-1 2.5c.1-.6-.3-1.4 0-1.8a2 2 0 0 1 1.5-.6c.5.1 1 .4 1.2 1m-2.7-2.7c0-.7.3-1.4 1-1.9.5-.4 1.3-.5 2-.1.6.3 1 1 1 1.7"/><path fill="#000" fill-rule="nonzero" d="M141 49.1a6 6 0 0 1 2.3.6c.7.3 1.5.3 2.3.6l4.7 1.2 9 3c3 1.2 5.9 2.4 8.7 3.8l4.2 2.3 4.2 2.1c-1.5-.5-3-1.2-4.4-1.8l-4.3-2.1a218.1 218.1 0 0 0-17.6-6.9l-4.5-1.4c-.8-.2-1.6-.3-2.4-.7-.7-.3-1.4-.6-2.2-.7zm5 .8c1.4-2.4 3.3-4.6 5-6.9 1.7-2.2 3.4-4.5 5.4-6.6 1-1 2-2 3.2-2.9 1.1-.9 2.3-1.8 3.7-2.2.4-.1.7-.3 1.2-.3h1.1c.8.1 1.5.3 2.2.7 1.4.6 2.5 1.6 3.5 2.6l2.9 3.2 2.7 3.3 5.6 6.5c3.6 4.3 7.4 8.7 10.8 13.2l-5.6-6.4-5.7-6.4-5.6-6.5-2.8-3.2a22.1 22.1 0 0 0-6.1-5.7c-.6-.2-1.3-.5-2-.5h-1l-1 .1c-1.3.4-2.4 1.2-3.5 2.1a38.5 38.5 0 0 0-8.7 9.3c-1.8 2.2-3.7 4.3-5.4 6.6zm91.3-3.3c-.2-.8-.8-1.3-1.3-1.8-.6-.6-1-1.3-1.3-2.1a8.9 8.9 0 0 1-.3-4.8c.3-1.6 1-3 1.6-4.5.4-.7.8-1.4.9-2 .1-.7-.1-1.4-.6-2l-.7-.9-.5-1.1a9 9 0 0 1-.3-1.2V25l.3-.6.3-.3c.1-.1.3-.2.5-.1.3 0 .4.3.6.4l.5.5c.5.6 1 1.3 1.3 2 .3.7.8 1.2 1.4 1.8.3.3.6.6.7 1 .2.4.2.9.2 1.3-.2.8-.7 1.4-.7 2.2l-.5 2.4.3-2.4c0-.8.4-1.5.6-2.3 0-.3 0-.7-.2-1l-.7-.8c-.6-.6-1.2-1-1.6-1.9-.3-.7-.7-1.3-1.2-1.8l-.7-.7-.2.2-.2.4c-.1.6.1 1.4.3 2l.5 1 .7 1c.3.3.5.7.6 1 .2.5.2 1 0 1.4-.1.9-.6 1.5-.8 2.3-.6 1.4-1.3 2.9-1.6 4.3-.4 1.4-.4 3 0 4.5.3.8.5 1.5 1 2 .3.6 1 1.1 1.1 2zm-108.8 9.6a31 31 0 0 0-3 6.5c-.7 2.3-1.6 4.5-2.4 6.8L118 83a242.6 242.6 0 0 0-7.3 20.2l-1.9 7 1.5-7.1c.6-2.4 1.4-4.6 2.1-7 1.5-4.5 3.3-9 5-13.5l5.2-13.4 2.7-6.7a26 26 0 0 1 3.2-6.3zm14.6 2.8c-.8 1-1.2 2.3-1.6 3.6l-1 4-2.2 7.8c-.8 2.6-1.6 5.2-2.7 7.7a31 31 0 0 1-4.3 7l-5.5 6c-1.8 2-3.4 4.2-5 6.3a33 33 0 0 0-4.4 6.8l-.9 1.8-.4 1c-.2.3-.2.6-.2 1-.2.6-.5 1.3-.9 1.8s-1.1.8-1.9.7c.7 0 1.4-.3 1.8-.9.4-.5.7-1.1.8-1.8 0-.3 0-.6.2-1 .1-.3.3-.6.3-1l.8-1.8c1.2-2.4 2.6-4.8 4.2-7s3.3-4.3 5-6.3c1.9-2 3.7-4 5.4-6.2a29 29 0 0 0 4.3-6.8c1-2.4 1.9-5 2.7-7.6l2.5-7.7 1-4c.6-1.2 1.1-2.5 2-3.5zm47.7-27l.1.1.2-.1c.4-.2.7-.6 1-.9.9-1 1.6-2 2.5-2.8l1.9-1.8 4.5-4.1c.7-.7 1.5-1.5 2.5-2.2.5-.4 1.1-.8 1.8-1 .5-.3 1.4-.2 2.4 0 2.1.4 4.6 1.4 6 1.7l9.1 2.4c1.3.4 2.7.7 4 .9 1.4.3 3 .5 4.5 1a13.8 13.8 0 0 1 3 1s.2 0 .3-.2c0-.2 0-.3-.2-.4l-.2-.1-2.7-1c-1.5-.4-3.2-.7-4.6-.9l-4-.9c-3-.8-6-1.7-9.2-2.3-1.3-.3-3.8-1.3-5.9-1.8-1-.2-2.1-.3-2.8 0-.7.2-1.4.6-2 1.1l-2.4 2.2-4.6 4.2-1.8 1.8-2.5 3-.9.8-.2.1v.3h.2z"/><path fill="#000" fill-rule="nonzero" d="M200.8 27.4c0 .1 0 .1 0 0 0 .2.2.2.3.3l1.1.7 1.8 1 1.6.9 8 3.1L217 35l4 1.7 1.2.7.1.2.4.1c.2 0 .3-.3.2-.3l-.2-.3-.9-.6-4.5-2c-1.1-.6-2.3-1-3.4-1.5-2.7-1.1-5.5-2-8-3.2l-3.2-1.8-.8-.4-.8-.4h-.3l-.2.1.2.2zm36.2-2.1c.5 0 1 .2 1.3.3l1.3.5 1.1.8c.4.2.7.7.9 1.1.3.9.4 1.8.3 2.8 0 .8-.2 1.7-.5 2.6v-2.6c0-1-.1-1.7-.5-2.4-.3-.7-.9-1.3-1.6-1.8l-1.1-.7c-.4-.2-.7-.5-1.2-.6z"/><path fill="#000" fill-rule="nonzero" d="M239.4 26.4l1.6.2.8.2.7.3c.4.1 1 .2 1.5.8.2.3.3.6.3 1v.8l-.3 1.5-.2 1.6-.8 3 .3-3c0-.6 0-1.1.2-1.6l.1-1.5-.1-1.3c-.3-.3-.7-.5-1.2-.7l-.7-.4c-.2-.2-.4-.2-.7-.3l-1.5-.6z"/><path fill="#000" fill-rule="nonzero" d="M243.3 27.9c.2.2.5.2.7.3.3 0 .5.2.8.3.4.4.8.8 1 1.4v3.3l-.6 3.2-.5 3.2c-.2 1-.3 2.1-.6 3.1l-.3 1.6c0 .5-.1 1.1-.3 1.6-.8 2.1-2 4-3 5.8l1.3-3 1.2-3c.2-.9.2-2 .5-3.1l.5-3.2.5-3.2c.2-1 .5-2 .6-3.1l.2-1.6c0-.6.1-1.1 0-1.6 0-.4-.3-1-.8-1.3-.2-.2-.4-.4-.6-.4l-.6-.3zm-6.4 18.2v1c0 .4 0 .7-.2 1l-.7 2c-.5 1.2-1.1 2.4-2 3.5a20 20 0 0 1 1.3-3.9l.9-1.8c.3-.5.7-1 .7-1.8z"/><path fill="#000" fill-rule="nonzero" d="M245.6 30c.2-.2.6-.3 1-.3.3 0 .7.1 1 .3.6.3 1.1.8 1.6 1.3a6 6 0 0 1 1.8 3.6 12 12 0 0 0-2.3-3.1c-.4-.5-.9-1-1.4-1.3-.5-.4-1-.7-1.7-.5z"/><path fill="#000" fill-rule="nonzero" d="M246.3 37.5l.1.6.4.2c.3.1.6 0 .9-.1l1.6-1.4c1.1-1 2-2.3 3.2-3.3l-1.2 2c-.5.6-.9 1.3-1.5 1.8-.6.6-1.1 1.1-2 1.4-.3.1-.8.3-1.2 0-.2-.1-.3-.4-.4-.6v-.6zm24.6-8c-.4.7-1 1.3-1.4 1.8l-1.3 1.8c-1 1.3-2 2.4-2.8 3.7l-2.6 3.6c-.9 1.3-1.5 2.6-2.3 4l.8-2.2 1-2a68.5 68.5 0 0 1 5.3-7.4l3.3-3.3z"/><path fill="#000" fill-rule="nonzero" d="M262.8 40c0 .4.3.6.6.6l.9.3h3.8a3 3 0 0 1 1.9 1c-.7-.3-1.3-.4-2-.4h-3.9l-1-.5a.9.9 0 0 1-.3-.4v-.5zm-7.3 4a3 3 0 0 0 0 1.4l.3 1.4c-.6-.2-1-.7-1-1.3v-.9c.2-.3.4-.5.7-.6zm.1-27.5a26.6 26.6 0 0 0-2.2 4l-.8 2.2-.8 2.1c-.3 1.6-.7 3-.7 4.5s.4 3 1.5 3.8c1.1 1 2.7 1.3 4.2 1.3s3-.2 4.5-.4c3-.5 6-1.4 8.5-3.2a16.9 16.9 0 0 1-8.4 3.8c-.8.1-1.5.3-2.3.3l-2.3.2c-1.6 0-3.2-.3-4.5-1.3a4.5 4.5 0 0 1-1.5-2c-.3-.8-.3-1.6-.3-2.4a20 20 0 0 1 1.7-6.8l1-2 1-2.1a5 5 0 0 1 1.4-2zm7.8-10.1l.3-.2.6-.2h1c.7 0 1.3 0 2 .4.6.2 1 .6 1.5 1.1l.3.5s.1.2.3 0c0 0 .1 0 0-.2v-.3c-.2-.1-.2-.2-.3-.4a4 4 0 0 0-1.7-1.3 5.2 5.2 0 0 0-3.5-.2l-.5.2-.3.3v.2h.3zM275 11c.2 0 .2 0 0 0h.7a4 4 0 0 1 2 .7 4 4 0 0 1 1.7 2l.2.7v1c0 .5 0 1-.2 1.4l-.3.9c0 .1-.2.2-.3.1-.1 0-.2-.2-.1-.3l.2-1v-2.6c-.3-.7-.8-1.3-1.6-1.8l-1.8-.7h-.2l-.2-.1-.2-.2h.2z"/><path fill="#C99F62" fill-rule="nonzero" d="M262.5 6.3c1.4-1.5 3.3-2.4 5.2-3.3a28 28 0 0 1 5.9-2c2-.4 4-.6 6.2-.2 1 .2 2 .4 3 1 .9.4 1.7 1 2.4 1.8 1.4 1.5 2.4 3.5 2.8 5.6.4 2 .4 4.2 0 6.3-.5 2-1.1 4-2 5.9l-1.6 2.7-.8 1.3-.2.4c-.2-.1-.2-.2-.3-.1v-.1l.1-.2a39 39 0 0 0 3-5.3c.9-2 1.5-3.9 1.7-5.9.3-2 .3-4-.2-6a11 11 0 0 0-3-5.2 8.7 8.7 0 0 0-5.5-2.6 16 16 0 0 0-6.1.2 28.3 28.3 0 0 0-8.6 3.6c-.5.2-.9.6-1.3.9-.2.1-.5.2-.6.5-.2.1-.4.3-.4.6l.1.2.2-.1zm0 0h-.1c0-.4.1-.6.3-.7l.5-.5 1.3-1 2.8-1.4c1.9-.8 3.8-1.6 5.8-2a16.3 16.3 0 0 1 9.3.3c1 .4 1.9 1 2.6 1.7a12 12 0 0 1 3.2 5.4c.6 2 .7 4.2.4 6.3a27 27 0 0 1-4.7 11.4v.2h-.1v.1l-.1.1c-.3.3-.8.2-.9-.2v-.5l.2-.2.2-.3.8-1.3 1.6-2.7a26 26 0 0 0 2-5.8c.4-2 .6-4 .2-6-.4-2-1.2-4-2.6-5.4a7.6 7.6 0 0 0-2.4-2c-.9-.4-1.9-.6-2.9-.9-2-.4-4-.3-6.1.1-2 .4-4 1.2-5.9 2-2 1-4 1.8-5.4 3.3z"/><path fill="#C99F62" fill-rule="nonzero" d="M283.5 2.2l.8.3.7.2c.5.1 1 .4 1.4.6a11.9 11.9 0 0 1 5.4 7.2c.5 2 .6 4.2.5 6.2a24.6 24.6 0 0 1-8.3 16.2 20.2 20.2 0 0 1-5.3 3.2l-3 .9-1.5.3h-.6V37s-.1 0 0 0h.2a19 19 0 0 0 10.8-4.8 24.1 24.1 0 0 0 7.2-22.1 11.9 11.9 0 0 0-5.3-7.1l-1.4-.7-.7-.2h-.4l-.2-.2h-.1l-.2.1v.2zm0 0V2h.1c0-.1.2 0 .2 0h.6c.2.2.5.2.7.3l1.5.7a12 12 0 0 1 5.6 7 24.5 24.5 0 0 1-7.1 22.6 18.2 18.2 0 0 1-5.2 3.5c-2 .8-4 1.4-6 1.6h-.7a.8.8 0 0 1-.1-1l.4-.2h.6l1.5-.3 2.9-.8c1.9-.7 3.6-1.8 5.2-3 3-2.7 5.4-6.1 6.8-10 1.5-3.7 2-8 1-11.9-.5-2-1.3-3.8-2.7-5.3a11.9 11.9 0 0 0-3.7-2.6l-.8-.2c-.3 0-.6 0-.8-.2z"/><g fill-rule="nonzero" transform="translate(262 28.2)"><path fill="#000" d="M.7 12.1c.2.2.5.2.7.3a5 5 0 0 0 1.8 0c1.3 0 2.6-.6 3.7-1 2.6-.8 5-2.2 7-4.1a35.7 35.7 0 0 0 5.4-6V.9L19 1l-.2.2c-.1.1-.3.3-.3.5a35 35 0 0 1-5 5.4c-2 1.8-4.4 3.2-6.9 4-1 .5-2.3 1-3.5 1.1H1.5L1 12l-.2.1z"/><path fill="#C99F62" d="M.7 12.1c.8.5 1.9.5 2.8.4l2.7-.8a18 18 0 0 0 5-2.5 30 30 0 0 0 6.2-6L19.1 1c-.1 0-.1.2 0 .2l.3-.1-1.8 2.2c-.6.7-1.2 1.5-2 2.1a24 24 0 0 1-9.6 6l-2.8.7H1.8l-.7-.1-.4-.2v.3zm0 0c-.1 0 0-.3.2-.2h.3c.2.2.5.2.7.2h1.5l2.7-.8A25.5 25.5 0 0 0 15.3 5c1.4-1.4 2.5-2.9 3.7-4.5.1-.2.5-.2.7 0 .2 0 .3.4.2.6a31.8 31.8 0 0 1-8.3 8c-1.6 1-3.4 1.8-5.2 2.4l-2.7.7c-1.1.3-2.1.4-3-.2z"/></g><path fill="#4F92C4" fill-rule="nonzero" d="M273.7 26.8c.2-.4.6-.7 1-.9l1.1-.6c.8-.4 1.7-.6 2.5-.7.5 0 1 0 1.4.2.4.2.9.5 1.2 1l.3.6v.7c0 .6-.2 1-.4 1.4-.5.8-1.3 1.4-2.1 1.8a8 8 0 0 1-5.1.7c-.9-.2-1.7-.6-2.3-1.1a7 7 0 0 0 4.8.6 9 9 0 0 0 2.3-.8c.7-.4 1.4-.9 1.8-1.5.2-.3.4-.7.4-1v-.6c0-.2-.2-.3-.3-.5-.2-.3-.4-.5-.8-.6a3 3 0 0 0-1.2-.2 7.3 7.3 0 0 0-3.6 1c-.3 0-.7.1-1 .5z"/><path fill="#000" fill-rule="nonzero" d="M273.7 28.4c.2-.5.5-.7.9-1 .3-.2.8-.3 1.2-.3h1.3c.4.2.9.4 1 .8-.3-.2-.7-.2-1-.2l-1.2.1-1.1.1-1 .5zM127.3 58.6c0-1.7.2-3.4.9-5a9 9 0 0 1 3.2-4 10 10 0 0 1 5-1.7h1.2l1.3.2c.9.1 1.7.3 2.4.9-.8-.4-1.6-.6-2.5-.6h-1.2a7 7 0 0 0-1.2.1c-1.7.2-3.3.7-4.6 1.7a9 9 0 0 0-3 3.7c-.9 1.3-1.2 3-1.5 4.7zM161.2 42c.2 1.5.7 2.8 1.1 4.2l1.5 4 1.6 4 .9 1.9 1 1.9c-1-1-1.7-2.3-2.4-3.6a94 94 0 0 1-1.8-4l-1.4-4c-.3-1.4-.7-2.9-.5-4.3zm-51.9 67.5a6.3 6.3 0 0 0-2.3 3.6c-.5 1.3-.8 2.7-1.2 4a37.5 37.5 0 0 0-.7 12.9l.5 4.3c.1 1.4 0 3-.2 4.3a8.8 8.8 0 0 1-1.4 4 7 7 0 0 0 1-4c.2-1.5.2-2.9 0-4.3l-.6-4.3a43.5 43.5 0 0 1 .8-13c.4-1.3.8-2.8 1.4-4l1-2c.6-.6 1-1.1 1.7-1.5zM114 126a7.6 7.6 0 0 0-.8 4.7v2.4l-.3 2.5a11 11 0 0 1-1.9 4.6c-.5.7-1.1 1.3-1.8 1.7l-2.3 1 2.1-1.3c.7-.4 1.2-1 1.6-1.7.8-1.4 1.3-3 1.6-4.5l.4-2.4v-2.4l.3-2.4c.2-.8.5-1.6 1-2.2z"/><path fill="#000" fill-rule="nonzero" d="M114.7 112.1l.1-.1.1.1c.2.9.8 1.5 1.5 2l1 .8c.4.2.8.5 1 .8a6.7 6.7 0 0 1 1.2 5.1 9.5 9.5 0 0 1-2.4 4.8l-1 .9-1 .9-.9.8-.4.4-.2.2v.2l-.3.2c-.3.2-.7 0-.8-.3v-.5l.1-.1.4-.6 1-1 1-.7 1-.9a10 10 0 0 0 2.5-4.2c.2-.8.2-1.7.1-2.5s-.4-1.6-1-2.3c-.5-.6-1.2-1-1.9-1.7-.6-.5-1.2-1.3-1.1-2.3zm0 0c0 .9.5 1.6 1.2 2.2l2 1.6a5 5 0 0 1 1.2 2.4c.2 1 .2 1.8 0 2.7a9.7 9.7 0 0 1-2.6 4.6l-1 1-1 .8-.9.8-.2.5-.1.2v-.2s-.2-.1-.2 0h-.1v-.1l.3-.3.5-.5 1-.9 1-.8.9-.9c1.1-1.2 2-2.7 2.4-4.3.2-.8.2-1.7 0-2.6-.1-.8-.4-1.6-1-2.3-.4-.6-1.2-1-1.9-1.6l-.9-1-.3-.5-.1-.7h-.1c0-.1-.1 0-.1 0zm-1.1 8.3l-.3.4c-.2 0-.2 0-.4-.4.2-.3.2-.3.4-.3.1 0 .3 0 .3.3zM264.7 14.8a12 12 0 0 1-7.5 6.3l.2-.3c-.1.6 0 1.3.5 1.7.4.4 1.1.6 1.9.5-.7.4-1.5.3-2.1-.2a2 2 0 0 1-.8-2.1v-.3h.1a18.2 18.2 0 0 0 7.7-5.6zm-10 10.1c.7 1 1.5 1.6 2.5 2a6 6 0 0 0 3.3.3c-1 .8-2.4 1-3.6.4-1.1-.4-2-1.5-2.2-2.7z"/><path fill="#C99F62" fill-rule="nonzero" d="M292.1 10.2c.8-.2 1.5 0 2.2.3a4 4 0 0 1 1.6 1.6c.7 1.4.9 3 1 4.4a18.5 18.5 0 0 1-7.6 15.6 17 17 0 0 1-8.2 3.1c2.9-.6 5.5-1.8 7.9-3.6a17.7 17.7 0 0 0 5.4-6.7c1.3-2.6 1.8-5.5 1.8-8.4 0-1.4 0-3-.7-4.2-.3-.7-.7-1.3-1.3-1.6-.6-.4-1.3-.7-2-.5zm-26.7-4.7A15.5 15.5 0 0 1 279.6 4c1.6.7 3 1.8 4 3.2a9 9 0 0 1 1 5 21.3 21.3 0 0 1-2.9 9.5l-1.5 1.8c-.6.6-1.2 1.2-2 1.5a8.8 8.8 0 0 0 3.2-3.6A17 17 0 0 0 283 17c.4-1.5.7-3.2.8-4.8 0-1.6-.2-3.2-1-4.5-.8-1.4-2-2.4-3.5-3-1.5-.7-3-1-4.7-1a15 15 0 0 0-4.7.2c-1.6.2-3.2.8-4.6 1.6z"/><path fill="#9D9D9C" fill-rule="nonzero" d="M52.6 95a24.7 24.7 0 0 1 3 8.8c-.7-1.3-1.3-2.8-1.8-4.2-.4-1.5-1-3-1.2-4.5z"/><g fill="#9D9D9C" fill-rule="nonzero" transform="translate(34.7 29.6)"><path d="M10 15c-.8.6-1.5 1.2-2 2-.1.5-.3 1-.2 1.3 0 .5.1 1 .4 1.3a5 5 0 0 0 1.8 2l2.3 1.6c1.6.8 3.3 1.6 5.1 2.2l2.6 1 2.7.7A378.9 378.9 0 0 0 66.5 36l2.7.4 2.7.4 5.6.5 2.8.2 2.8.2h5.6l-2.8.2h-5.6l-2.8-.1-5.6-.5-2.8-.3-2.8-.3a320 320 0 0 1-33-6l-5.5-1.4-5.4-1.5-2.7-.9-2.7-1c-1.7-.6-3.4-1.4-5-2.2-.9-.5-1.7-1-2.4-1.6a5.8 5.8 0 0 1-1.8-2.2 3 3 0 0 1-.4-1.3c0-.5.2-1 .4-1.4a4.9 4.9 0 0 1 2.2-2.1z"/><path d="M4.2 15.4c-1.5 1.4-2.9 3-3.6 5-.4.9-.5 2-.2 3a6 6 0 0 0 1.5 2.7 19 19 0 0 0 4.9 3.6c1.8 1 3.7 1.9 5.7 2.6 7.8 2.9 16 4.7 24.1 6.5a313.1 313.1 0 0 0 37 5.6c4.2.4 8.3.5 12.5.4-8.3.5-16.6-.3-25-1.2a245 245 0 0 1-24.6-4.1l-12.2-2.9c-4-1-8.1-2.2-12-3.7-2-.8-4-1.6-5.7-2.6a17 17 0 0 1-5-3.9A6.5 6.5 0 0 1 0 23.6a5 5 0 0 1 .3-3c.8-2.3 2.3-3.8 3.8-5.2zm18.3 63l2.8 7a287 287 0 0 1 5.2 14.5l1.1 3.6 1 3.6L30 100l-2.6-7.1-2.6-7.2-2.3-7.3z"/><path d="M6.1 29.3l.3 1 .2.9.7 1.8 1.3 3.7L11 44l2.4 7.4 1.2 3.7 1 3.7c-1-2.3-1.8-4.8-2.7-7.2l-2.6-7.4L8 36.8 7 33l-.6-1.9-.3-1.8zM121.7 7.2l-14.8 1.5c-4.9.3-9.9.5-14.8.6l-29.6.3c-9.9 0-19.7.1-29.6.6a168.6 168.6 0 0 0-22 2.4 20 20 0 0 0-3.5 1A50.7 50.7 0 0 1 18.2 11c4.9-.6 9.8-1 14.7-1.3A675 675 0 0 1 62.5 9h29.6c5 0 10-.2 14.8-.5l14.8-1.2zm33.5 33.2a427.2 427.2 0 0 0 85-21.1 44.3 44.3 0 0 0 8.8-4.9c.5-.3.8-.8 1.1-1.2l.5-.7.5-.7a6 6 0 0 0 0-6.3c.7 1 1 2 1 3.2 0 1.1-.3 2.3-.8 3.2l-.5.7a4 4 0 0 0-.5.7l-1.1 1.3a19 19 0 0 1-2.7 2c-2 1.3-4 2.2-6 3.1l-6.4 2.4c-8.5 3-17.2 5.5-25.8 8a232 232 0 0 1-26.3 6.4c-8.9 1.6-17.8 2.9-26.8 3.9z"/><path d="M103.2 45l13-1 13-1.2c4.4-.3 8.7-.8 13-1.2l13-1.2-6.4.9-6.5.9-13 1.3c-4.3.4-8.7.8-13 1l-6.6.4-6.5.2zm3.4-9c5.7-.4 11.4-1 17-1.5a895.7 895.7 0 0 0 51.2-6c2.9-.3 5.7-.7 8.5-1.2l8.5-1.5c1.4-.2 2.8-.6 4.2-1l4.1-1 8.3-2 8.4-2.2c2.7-.8 5.4-1.6 8.1-2.6 2.7-.9 5.4-2 7.8-3.4l7.4-4.4c-2.4 1.6-4.8 3-7.3 4.5s-5 2.7-7.8 3.7c-2.7 1-5.4 1.8-8.2 2.6l-8.3 2.3c-5.5 1.5-11 3-16.7 4.1l-8.4 1.6-8.5 1.4c-11.4 1.6-22.8 3-34.2 4l-17 1.5-17.1 1.1zm62.6-36l-8 1.9c-2.6.6-5.4 1-8 1.5L145 4.6l-4.1.5-4.1.4 8-1.5 8.1-1.3 8.2-1.4 4-.7 4.1-.6zM57 139.7a83.7 83.7 0 0 0 15 1c4.9 0 9.9-.3 14.8-.8 9.9-1 19.6-3.2 29.4-5.2 19.5-4.2 38.8-8.6 58.2-12.9l14.6-3.1c4.9-1 9.8-2 14.7-2.8l3.7-.6c.5 0 1.2-.2 1.8-.4l1.8-.4c2.4-.6 4.7-1.4 7-2.5 2-1.2 4.2-2.6 5.5-4.6a7 7 0 0 0 1-3.4v-.9l-.1-.9-.4-1.8-.3-3.8V89l.2-3.8a199.3 199.3 0 0 1 8.5-43.8 183.8 183.8 0 0 0-8 44l-.3 3.7v3.7c0 2.5 0 5 .4 7.4l.3 1.8.3 1v.9a7 7 0 0 1-1.1 3.6 14.8 14.8 0 0 1-5.7 4.8 45.8 45.8 0 0 1-14.4 4c-5 .8-9.7 1.9-14.7 2.9-4.8 1-9.7 2-14.5 3.2-19.5 4.1-38.9 8.5-58.4 12.6-9.7 2-19.5 4.1-29.4 5a129.4 129.4 0 0 1-29.9-.4zM236.2 31.6a43 43 0 0 1 3.2-7.6c1.2-2.3 3-4.6 5-6.4a52 52 0 0 0-4.4 6.8l-3.8 7.2z"/></g><path fill="#4D876D" fill-rule="nonzero" d="M273.7 15c1 .7 1.3 2 1.3 3a6.7 6.7 0 0 1-3.5 5.6c-.5.4-1.1.5-1.8.5a3 3 0 0 1-1.8-.5c-.5-.4-.9-1-1.1-1.5-.2-.6-.3-1.2-.2-1.8 0-1.2.5-2.3 1.2-3.2.6-1 1.6-1.6 2.6-2.2 1-.4 2.3-.5 3.3.2zm0 0c-1-.6-2.2-.4-3.2 0a6 6 0 0 0-2.3 2.3c-.6 1-1 2-1 3s.3 2.2 1.2 2.7c.8.5 2 .5 2.9 0a6.6 6.6 0 0 0 3.6-5c0-1.1-.2-2.3-1.2-3zM263 8.3c1 .7 1.3 1.9 1.3 3s-.4 2.2-1 3.2-1.4 1.8-2.5 2.4c-.5.3-1 .4-1.7.4s-1.3-.1-1.8-.5c-.5-.3-1-1-1.2-1.5-.2-.6-.3-1.2-.2-1.8a6 6 0 0 1 1.2-3.2c.7-1 1.6-1.6 2.6-2.1 1.2-.5 2.4-.5 3.3.1zm0 0c-1-.6-2.2-.5-3.1 0a6 6 0 0 0-2.4 2.2c-.6 1-1 2-1 3s.3 2.2 1.2 2.7c.8.6 2 .5 2.9 0a6.6 6.6 0 0 0 3.7-5c0-1-.3-2.3-1.3-2.9z"/><g fill="#4D876D" fill-rule="nonzero" transform="translate(256.3 8.7)"><path d="M3.7.4C4 1.6 4 2.7 4 4l-.6-.2C4.2 2.9 5 2 6 1.4c-.6 1-1.3 2-2.1 2.7l-.7.7v-1c.1-1 .2-2.2.5-3.4z"/><path d="M3.7 8.5A14 14 0 0 1 3 5.1l.7.2c-.7 1-1.5 1.8-2.4 2.5.5-1 1.2-2 1.8-2.9l.6-.7v4.3z"/><path d="M7 4.4c-1 .3-1.8.4-2.7.5l.3-.6 1 1.3.8 1.3c-.5-.3-1-.6-1.3-1l-1-1.1-.6-.6h.8c.8 0 1.7 0 2.6.2z"/><path d="M.4 5c.8-.5 1.5-.7 2.4-1l-.1.6-1.2-1-1-1.2L2 3l1.2 1 .6.4-.7.1c-.8.3-1.7.5-2.6.4z"/></g><g fill="#4D876D" fill-rule="nonzero" transform="translate(267.1 15.2)"><path d="M3.8.4C4 1.6 4 2.7 4 4l-.6-.2C4.3 2.9 5 2 6 1.4c-.6 1-1.3 2-2.1 2.7l-.7.7v-1c0-1 .2-2.2.5-3.4z"/><path d="M3.8 8.5A14 14 0 0 1 3 5.1l.7.2c-.8 1-1.5 1.8-2.4 2.5.5-1 1.1-2 1.8-2.9l.6-.7v1c.1 1 .2 2.2 0 3.3z"/><path d="M7 4.4c-.9.3-1.7.4-2.6.5l.3-.6 1 1.3.7 1.3-1.2-1-1-1.1-.5-.6h.7a8 8 0 0 1 2.6.2zM.5 5c.8-.5 1.6-.7 2.5-1l-.2.6-1.1-1c-.4-.4-.8-.7-1-1.2L2 3c.5.3.9.6 1.2 1l.6.4-.7.1c-.8.3-1.7.5-2.6.4z"/></g></g><path fill="#4F92C4" fill-rule="nonzero" d="M258.4 24.7c-.9.4-1.8 1.1-2 2.1-.3 1-.3 2.1.2 3 .4 1 1.1 1.7 2 2 1 .3 2 .2 2.9-.2.8-.5 1.6-1.2 2-2 .4-1 .4-2 .1-3-.3-.9-1-1.7-2-2.1a4 4 0 0 0-3.2 0zm0 0c1-.5 2.1-.6 3.1-.3s2 1.1 2.4 2.1a4.4 4.4 0 0 1-2 5.7c-1.2.6-2.4.7-3.5.3a4 4 0 0 1-2-2.5c-.4-1-.4-2.2 0-3.2.2-1 1-1.7 2-2zm-8.6 9.4a1.8 1.8 0 0 0-.8 2.5c.2.4.6.7 1 .8.3 0 .7 0 1-.2.4-.1.7-.4 1-.8.2-.4.2-.8 0-1.3a1 1 0 0 0-.8-1c-.4-.2-1-.1-1.4 0zm0 0a2 2 0 0 1 1.4-.1c.5.1 1 .5 1.2 1 .2.5.3 1 .1 1.6-.1.6-.6 1-1.1 1.2-.5.3-1.2.4-1.8 0a2 2 0 0 1-1-1.2 2 2 0 0 1 1.2-2.5zm-73.7-12.7c.8 1 2 1.6 3.3 1.6 1.3.1 2.5-.4 3.5-1.1 1-.8 1.6-1.9 1.7-3.1 0-1.2-.4-2.4-1.3-3.3-.8-1-1.9-1.5-3-1.6a5 5 0 0 0-3.5.8c-1 .8-1.9 1.8-2 3.1 0 1.3.5 2.6 1.3 3.6zm0 0a6 6 0 0 1-1.4-3.6 5 5 0 0 1 1.8-3.4c1-.8 2.4-1.3 3.8-1.2a5 5 0 0 1 3.6 1.7c1 1 1.5 2.4 1.4 3.8-.2 1.4-1 2.6-2.2 3.3a6 6 0 0 1-3.7 1c-1.3 0-2.5-.6-3.3-1.6zm12.8 12.4c.3.4 1 .7 1.6.7.5 0 1.1-.2 1.6-.6.4-.3.7-.8.7-1.3s-.2-1-.6-1.4c-.6-.8-1.9-1-2.9-.4-.5.2-.9.8-1 1.3 0 .6.2 1.2.6 1.7zm0 0c-.4-.4-.7-1-.7-1.7 0-.6.4-1.2.8-1.6a2.4 2.4 0 0 1 3.6.2c.5.5.8 1.2.7 1.9a3 3 0 0 1-1.1 1.6c-1 .7-2.6.5-3.3-.4zm53.3-29.3c.3.4.9.7 1.6.7.5 0 1.1-.2 1.5-.6.5-.3.8-.8.8-1.4 0-.5-.3-1-.6-1.3-.7-.8-1.9-1-2.9-.5a2 2 0 0 0-1 1.4c0 .6.2 1.2.6 1.7zm0 0c-.4-.5-.7-1-.7-1.7 0-.6.4-1.2.8-1.6a2.4 2.4 0 0 1 3.6.2c.5.5.8 1.2.7 1.8-.2.8-.6 1.3-1.1 1.6-1.1.8-2.6.7-3.3-.3z"/></g><g transform="translate(6.5)"><path fill="#DCE8EB" fill-rule="nonzero" d="M338.6 143.4c0 1.3-1 2.5-2.8 3.6-5.8 3.7-20 6.2-36.6 6.2-21.7 0-39.3-4.4-39.3-9.8 0-1.7 1.6-3.3 4.6-4.6a56 56 0 0 1 14.5-3.9c0 1.4.4 2.8 1.3 3.9 1 1.2 2.3 2.2 3.6 3.2l1.5 1.1c.4.1 1.1.6 2.3 1a90 90 0 0 0 25.4 1c3.7-.6 7-1.3 9.5-4.2 1.3-1.5 1.8-3.2 2.2-5 8.4 1.9 13.8 4.5 13.8 7.5z"/><path fill="#C5505D" fill-rule="nonzero" d="M288.5 101.3c3.7-1.9 7.4-3.8 11.3-5 3.9-1.4 8-2.2 12.2-1.8 4.2.4 8.1 2.3 11.2 5.1 1.5 1.5 2.7 3.3 3.4 5.3.8 2 1 4.2.5 6.3-.4 2-1.3 4-2.5 5.8a18.5 18.5 0 0 1-4.5 4.4 9.8 9.8 0 0 1-5.9 2c-.6 0-1-.2-1.6-.3-.5-.2-1-.5-1.4-.9a5.2 5.2 0 0 1-1.7-2.7c-.2-1 .1-2.3 1-3.1.8-.8 2-1 3-.9 1.2.2 2.2.7 2.9 1.5.7 1 1 2 1 3 .1 2.2-.9 4.2-2.4 5.6a20.5 20.5 0 0 1-5 3.6c1.7-1.1 3.5-2.2 4.9-3.7a7.8 7.8 0 0 0 2.2-5.5c0-1-.3-2-1-2.7a4.3 4.3 0 0 0-2.5-1.3c-1-.2-2 0-2.7.8-.6.6-1 1.6-.7 2.6a4.4 4.4 0 0 0 4.2 3.4c2 0 3.9-.8 5.5-2 3.3-2.2 6-5.7 6.7-9.7a11.8 11.8 0 0 0-3.7-10.9 19 19 0 0 0-10.8-5c-4-.5-8.2.3-12.1 1.5-4 1-7.7 2.9-11.5 4.6z"/><path fill="#1D71B8" fill-rule="nonzero" d="M40.7 139.5a7.4 7.4 0 0 1-2-2h-.1l1.3 2.1h1l-.2-.1z" opacity="0.33"/><path fill="#B4D1D5" fill-rule="nonzero" d="M223 .3L.6 3l.1 57.6.2 79.8.3.1 34.8-.8-1.4-3.7-.4-.3a6 6 0 0 1-4-2.4l-22.3.5L7.7 72l-.3-59H10l29 .1h93.2l81.2.2.2 18 .3 34 .3 34.5c.9.3 1.9.7 3 .9 2 .2 4.2.5 6.3 1.1C224.2 88.2 225 .6 223 .3z"/><path stroke="#1D1D1B" stroke-linecap="round" stroke-linejoin="round" d="M185.4 34c2 .2 4 .2 6.2.2m-21.9-1.6c4 .6 8.5 1.1 13.2 1.3m-49.6-13.1c7.5 4.1 18.8 8.9 33.6 11.4M121.7 13s3 2.9 9.1 6.5"/><path fill="#4F8E99" fill-rule="nonzero" d="M185 38.1l.8-.5c.3 0 .6 0 1 .2-.3.3-.6.5-.9.5-.3.1-.6 0-.8-.2zm-17-1.8c1.1.4 2.3.6 3.6.8l3.6.6c2.3.4 4.8.5 7.3.6a25.7 25.7 0 0 1-14.6-2z"/><path fill="#4F8E99" fill-rule="nonzero" d="M165.7 37.1l.3-2.4c0-.8.4-1.6.6-2.3l.4-1.1c.2-.4.4-.8.7-1l1.1-.8c.2-.1.6-.2.9 0l.2.2.1.1.2.4v1.4l-.3 1.2a15 15 0 0 1-1 2.1l-.6 1a5 5 0 0 0-.5 1.1c0 .3-.2.4-.3.5-.1.2-.3.4-.6.4-.4 0-.8-.2-1.1-.4.3.1.8.3 1.1.2.3 0 .5-.5.6-.9l.4-1.1.5-1.1 1-2.2c.1-.7.3-1.4.1-2V30h-.1c-.2 0-.2-.1-.4 0-.3 0-.6.3-.8.5l-.7.9-.4 1c-.3.8-.7 1.5-.8 2.3a12 12 0 0 1-.6 2.3zm16.9-.3l.2-2.6v-1.3c.2-.5.3-1 .7-1.3.4-.3 1-.3 1.4-.2l.4.2s.3.1.3.3l.1.2v3.2l-.1 1.3-.2 1.3-.3 1.3-.1.7c0 .3-.4.5-.6.5-.4.2-1 .2-1.4 0-.2 0-.5 0-.6-.3v-2l.2-1.3zm0 0V38c-.2.4-.2.8-.1 1.3l.1.6.5.2 1.2-.1.3-.3V39c.2-.4.2-.8.2-1.3l.1-1.3.2-1.3.1-2.6V32s-.1-.2-.4-.3c-.3-.1-.7-.1-1 .1-.3.2-.6.6-.6 1l-.2 1.3-.4 2.6z"/><path fill="#000" fill-rule="nonzero" d="M195 33.9c2.8-.2 5.5-.2 8.2-.2 2.7 0 5.5 0 8.2.2a51 51 0 0 1-8.2.5 55 55 0 0 1-8.1-.5z"/><path fill="#4F8E99" d="M103.8 61h-.1c-1.8 7.3-3.3 14.5-5 21.7A167 167 0 0 1 94.5 97c-.7 2.2-1.9 6-3.2 9.3-.7 1.8-1.5 3.4-2.3 4.7h.4c.8-1.3 1.5-2.8 2.3-4.6 1.3-3.4 2.4-7.1 3.1-9.4a167 167 0 0 0 4-14.2c1.9-7.2 3.3-14.4 5-21.6V61zM64.5 50.5a24.4 24.4 0 0 0-2 6c-1 5-2 11.5-2.4 14.5-1.4 7.5-2.7 15.1-3.4 22.9a109.5 109.5 0 0 0-.4 15.5s.2 0 .2-.2c-.3-5 0-10.2.5-15.3.7-7.7 2-15.3 3.4-22.9.5-2.8 1.4-9.3 2.6-14.5l.5-2.4c.4-1.5.8-2.8 1.3-3.6l-.1-.2-.2.2z"/><path fill="#C99F62" d="M98.6 43.7c.2-.7.2-.4.2.6l.1.1.2 1.2.4 3 .2 2.8v6.4l-.1.1-.2-.1v-6.4c0-1-.1-1.8-.3-2.7l-.3-3-.2-1.2v-.2c-.3-.8-.2-1.1 0-.6zm-13 11c.1 0 0 0 0 0 .1 0 .1 0 0 0l.2.2c.3 1 .6 2 1 2.8 1 2.4 2.4 4.7 3.2 6.8l.3.2.1-.2c-.9-2.6-2.6-5.1-3.8-7.9l-.7-1.8v-.2s-.1-.2-.2 0z"/><path fill="#4F8E99" d="M96 95l-1.5-3.2-.9-2.2a26.5 26.5 0 0 1-1.1-3.9l-.2.1c.2 1.3.6 2.6 1 4l.9 2.2a43.4 43.4 0 0 0 1.8 3.2V95zm2.3-8.4l1-.8c1-1.2 2.2-2.3 3.4-3.5v-.2h-.2l-3 3-1.3 1.3v.2c0 .1 0 .1.1 0zm-39.7-6.1h.2l.2-.2 2.7-2.2c1-1 2-1.8 3-2.6v-.3h-.3l-3.8 3.2-1.5 1.4-.5.3-.1.3v.2h.1zM61 67.6c-.3-.2-.5-.5-.7-.9-.3-.4-.5-1-.7-1.5-.9-2.2-1.5-5.2-2-6.5l-.2-.1-.1.2c.4 1.3 1 4.3 2 6.5.1.6.4 1.2.7 1.6l.9.9h.2v-.2z"/><path stroke="#C99F62" stroke-linecap="round" stroke-linejoin="round" d="M117.6 80s9.4-4 13.4-11m-15 5.2l.8-.7"/><line x1="72.9963899" x2="73.2851986" y1="63.465704" y2="64.0433213" stroke="#4F8E99"/><path stroke="#4F92C4" stroke-linecap="round" stroke-linejoin="round" d="M8.5 133.7l21.5-.4m-28 7.1s32.6-1 33.3-.5m179.6-40.4l-.7-86.1S8.6 13.2 8.7 13"/><polyline fill="#EBEBEB" stroke="#4F92C4" stroke-linecap="round" stroke-linejoin="round" points="133 115.2 133 13.4 133 13.4 130.8 13.4 130.8 115.2"/><polyline fill="#EBEBEB" stroke="#4F92C4" stroke-linecap="round" stroke-linejoin="round" points="39.6 118.1 39.7 13.2 39.7 13.2 37.4 13.2 37.4 119.6"/><path stroke="#4F92C4" stroke-linecap="round" stroke-linejoin="round" d="M1.4 2.9L223.8.2c2.2.4 1.2 92.7.2 101.4"/><line x1="1.51624549" x2="1.66064982" y1="60.5054152" y2="140.288809" stroke="#4F92C4" stroke-linecap="round" stroke-linejoin="round"/><line x1="1.37184116" x2="1.51624549" y1="2.74368231" y2="60.5054152" stroke="#4F92C4" stroke-linecap="round" stroke-linejoin="round"/><path stroke="#4F92C4" stroke-linecap="round" stroke-linejoin="round" d="M8.4 72l-.2-60m.2 60l.2 61.7 3-2.3m-.4-74.8l.4 74.8m-.8-118.1l.3 43.2"/><line x1="11.5523466" x2="28.8808664" y1="131.407942" y2="131.407942" stroke="#4F92C4" stroke-linecap="round" stroke-linejoin="round"/><path fill="#C99F62" fill-rule="nonzero" d="M109.7 66.8C114 61 120.4 53 125.9 48.4"/><path fill="#C5505D" fill-rule="nonzero" d="M195.2 69.5a43.5 43.5 0 0 1 5.4-7.3l3.2-3.3 1.7-1.6c.6-.5 1.1-1 1.8-1.4l-3 3.4-3 3.4-3.1 3.4-3 3.4zm5.2-2.1c.6-1.1 1.5-2 2.5-2.9l3-2.2a29.7 29.7 0 0 1-5.5 5.1z"/><path fill="#4F8E99" fill-rule="nonzero" d="M165.7 35.2c-.5.7-1.2 1.3-1.6 2l-.5 1.2c0 .4 0 .8.4 1 .5.7 1.3 1 2 1.6.4.3.8.6 1 1 .4.5.5.9.6 1.3V46c0 .9 0 1.7.3 2.5l.6 1 1.1.4 1.3.2 1.3.2c.9 0 1.7.1 2.5-.2.8-.2 1.3-.8 1.8-1.5l1.6-2.2c.6-.7 1.3-1.2 2.1-1.8 1.6-1 3.5-1 5-2l1-.7c.2-.3.4-.7.4-1.2.2-.8.1-1.8.4-2.6-.2.9 0 1.8-.1 2.7l-.5 1.3-1 1c-1.6 1-3.5 1-4.9 2.1-.7.5-1.4 1-1.9 1.7l-1.5 2.1c-.5.7-1.2 1.5-2.2 1.8-.9.3-1.8.3-2.7.2a8 8 0 0 0-1.3-.1l-1.4-.3c-.4-.1-1-.3-1.3-.6-.4-.3-.6-.8-.8-1.2-.3-1-.3-1.9-.3-2.7v-2.6c0-.9-.5-1.6-1.2-2-.6-.6-1.5-1-2-1.7-.2-.2-.4-.4-.4-.7v-.7c.1-.4.3-.9.6-1.2.4-.8 1.1-1.4 1.6-2z"/><path fill="#C5505D" fill-rule="nonzero" d="M191.6 34.7c-.4.7-.6 1.5-.6 2.3l-.3 2.4-.5 5c0 .7-.3 1.6-.4 2.4v1c0 .2 0 .3.2.4l.5.1 1.2.1 1.2.3c.8.1 1.6.3 2.5.3-1.7.2-3.3-.1-5-.2-.1 0-.4 0-.7-.2l-.5-.7v-1.3l.4-2.5c.2-1.6.3-3.2.7-4.9l.5-2.4c0-.6.2-1.5.8-2.1z"/><path fill="#C5505D" fill-rule="nonzero" d="M196.1 44.3c0-.1 0 0-.1 0l-.1.2v1.1l-.2 1.4v2.9l-.2 2.9v2.9l-.1 11.4V70v-.2h-.2.1l.3-.1h.1l.3-.1.4-.1 1.4-.2c1 0 2-.2 2.8-.5l2.9-.5L209 67c1.9-.4 3.7-1 5.5-1.6a64.7 64.7 0 0 1-11 3.3l-2.9.6-2.9.5-1.4.2-.4.1c.1 0 0 0 0 0l-.2.2-.3.1h-.8v-.1c-.2-.4-.1-.7-.1-1v-2.1l.1-5.8.2-5.7.1-3 .3-2.8.2-2.9.2-1.4v-.8l.2-.3v-.2s.1-.1.2 0zm-4.8-9.1c.4-1 1-1.8 1.8-2.4a9 9 0 0 1 2.8-1.5c2-.5 4-.6 6-.6h6.1l3 .2c1 0 2 .2 3 .4h-6l-6 .1c-2 0-4 0-6 .4a7.9 7.9 0 0 0-4.7 3.4z"/><path fill="#B2B2B2" fill-rule="nonzero" d="M125.4 167.4c-1 1.5-2 2.8-3.2 4-2 2.3-4.9 4.3-6.2 7-.5 1-1.3 1.7-2 2.7-1.4 1.6-3.5 4.8-2.4 7l1.4 2c.9 1.3 1.7 2.7 2.2 4.2.7 2.4.6 5.1-.9 7-1.2 1.5-2.9 2.5-3.8 4-.8 1.5-.8 3.1-1 4.8a14 14 0 0 1-8 10.8c.3-.2 1.5.1 2 0 .8-.1 1.6-.4 2.3-.8 1.3-.7 2-2.4 3.2-3.4 3-2.7 5.6-6 7.8-9.3 2.6-4 4.8-9 3.5-13.5-.7-2.1-2-4-2-6.2-.1-3 2.1-5.3 4-7.6a43.4 43.4 0 0 0 8.6-17c.5-2 1.9-5 .4-6.7-1.2 2.7-2.3 5.5-3.9 8l-2 3z" opacity="0.33"/><path fill="#C99F62" fill-rule="nonzero" d="M55.1 257.9c-.3.5-1 .7-1.6.6-.7 0-1.3-.4-1.8-.7-1-.8-1.8-1.7-2.8-2-1-.2-2 .3-3.3.5-.7.2-1.2 0-1.9 0-.6-.4-1.2-.7-1.3-1.4.3.5.9.8 1.4.9.6 0 1 0 1.6-.2l1.8-.5c.5-.1 1.2-.2 2 0 1.2.3 2 1.4 2.9 2.1.4.4 1 .7 1.4.8.5.2 1.1.2 1.6-.2zm-9.7-4.4c.5-1 2-1.7 3.2-1.4 1.3.5 2 1.5 3 2s2.2.6 3.4.6l3.5-.3a15 15 0 0 1-3.5 1 6 6 0 0 1-3.7-.7c-1.2-.5-1.9-1.6-2.9-2-1-.4-2.2-.1-3 .8zm15.3-1.5c-.3.4-.8.6-1.3.6s-1-.3-1.5-.4c-.8-.4-1.6-.9-2.5-1.2a16 16 0 0 0-5.4-.8c.9-.3 1.9-.5 2.8-.4 1 0 2 .2 2.8.6.5.1.9.4 1.3.6l1.2.7 1.3.5c.4.1.8 0 1.3-.2z"/></g><g transform="translate(275.8 157.4)"><path stroke="#4F8E99" d="M15.2 57.1c8.3-9.2-7.8-18.8-13-8.4-4 8.3 1.4 16.1 10.4 16.5 1.4 0 2.8 0 4.2-.4a15 15 0 0 0 7.2-4l.8-.8a9.5 9.5 0 0 1 4.2-1.7c1.9-.3 4 .1 5.7 1.1 0 0 0 0 0 0" opacity="0.33"/><path fill="#4F8E99" fill-rule="nonzero" d="M27.3.1c0 3.5-.4 7-.7 10.4l-1 10.4C25 28 24 34.7 23 41.6c-.3 1.7-.5 3.5-1 5.1-.3 1.7-.8 3.4-1.6 5a13 13 0 0 1-3 4.3 9 9 0 0 1-4.8 2.3 6 6 0 0 1-5-1.8c-.6-.6-1-1.4-1.3-2.3-.3-.8-.3-1.8.1-2.6.5-1 1.2-1.5 2-1.8l.3-.1.4-.1h.6c.5 0 1 .3 1.2.7l.7 1.1v1.3l-.2.7-.4.5c-.4.3-.8.3-1.3.3 1 0 1.8-.6 1.9-1.5l-.1-1.2-.7-1.1c-.3-.3-.6-.5-1-.5h-.6l-.3.1-.3.2c-.8.3-1.5.8-1.8 1.6-.4.8-.3 1.6 0 2.4.2.8.6 1.5 1.2 2.1a5.3 5.3 0 0 0 4.5 1.6c1.7-.2 3.2-1 4.4-2.2 1.2-1.1 2.2-2.6 2.9-4 .7-1.6 1.2-3.3 1.6-5l.8-5L25.1 21l1.2-10.3c.3-3.6.8-7 1-10.6z"/><path fill="#4F8E99" fill-rule="nonzero" d="M15.2 57.1a9 9 0 0 0 2.1-4.1c.3-1.5 0-3.1-.8-4.4a9 9 0 0 0-7.7-4.1A7 7 0 0 0 4.7 46c-1.2.9-2 2.2-2.5 3.6a10.6 10.6 0 0 0 0 8.9 11 11 0 0 0 6.7 5.7 14.8 14.8 0 0 0 13.1-2l1.8-1.6.9-.7 1-.7a9 9 0 0 1 9 .2 8.8 8.8 0 0 0-8.9 0l-.9.7-.9.8-1.8 1.6a15 15 0 0 1-13.6 2.4 13 13 0 0 1-7.2-6c-1.3-3-1.2-6.5.1-9.4a9.4 9.4 0 0 1 2.8-4A7.3 7.3 0 0 1 8.7 44a9 9 0 0 1 8 4.5c.8 1.3 1.1 3 .8 4.6a8 8 0 0 1-2.3 4.1zM32.8.8c.2 3.5.6 6.9 1 10.3L35 21.4A934 934 0 0 0 37.8 42l.9 5.1c.4 1.7 1 3.3 1.7 4.8.7 1.6 1.6 3 3 4.2a8.7 8.7 0 0 0 4.4 2.1c1.7.2 3.3-.4 4.5-1.6.6-.6 1-1.3 1.3-2.1a3 3 0 0 0-.1-2.4c-.4-.7-1-1.3-1.8-1.6-.4-.2-.8-.2-1.2-.2-.4 0-.8.2-1.1.6-.6.5-.9 1.5-.7 2.3 0 .8.9 1.4 1.8 1.4h-.7l-.6-.3-.4-.5-.2-.6c-.2-.9 0-1.8.6-2.5.3-.3.8-.6 1.2-.6.4-.1 1 0 1.3.2.8.3 1.6.8 2 1.7.5.8.5 1.8.2 2.7a6.1 6.1 0 0 1-6.2 4.2l-1.3-.3L45 58a13 13 0 0 1-5.3-5.8 24 24 0 0 1-1.7-5c-.5-1.7-.6-3.5-1-5.1-1-6.9-1.8-13.8-2.6-20.6l-1-10.3c-.4-3.6-.7-7-.7-10.5z"/><path fill="#4F8E99" fill-rule="nonzero" d="M45.4 57.7c-1-1-1.7-2.2-2.2-3.5a7.2 7.2 0 0 1 0-4 8.6 8.6 0 0 1 5.8-5.7c1.3-.4 2.8-.5 4.1 0 1.4.3 2.6 1.2 3.6 2.2a13 13 0 0 1 2.8 7.7v1.1l-.2 1-.6 2c-.2.6-.6 1.2-1 1.9-.4.5-.7 1.1-1.2 1.5-.5.6-1 1-1.6 1.4-.6.4-1.2.8-1.8 1a14.8 14.8 0 0 1-12 0 20.6 20.6 0 0 1-6.6-4.8c2 1.9 4.1 3.6 6.6 4.5 2.4 1 5.3 1.3 7.9 1 1.3-.4 2.6-.7 3.7-1.2l1.7-1 1.5-1.4c.5-.4.9-1 1.2-1.5.3-.5.7-1.1.9-1.7.3-.6.3-1.2.6-1.9l.1-1v-.9a12 12 0 0 0-2.5-7.3c-.9-1-2-1.8-3.2-2.1a6.9 6.9 0 0 0-3.8 0 8.2 8.2 0 0 0-5.7 5.1 6.5 6.5 0 0 0 0 4c.3 1.4 1 2.6 2 3.6z"/><path stroke="#4F8E99" stroke-linecap="round" stroke-linejoin="round" d="M28.9 55.5A89 89 0 0 1 30.8 44l.2-.8c.3-.2.6-.4.8-.2.3.1.3.4.4.7L34 55.5"/></g><g transform="translate(2.9 234.7)"><g transform="translate(194.2)"><path fill="#B4D1D5" fill-rule="nonzero" d="M111 22.8l-1.8 4.5c-2 2.8-3.6 8-3.2 11.4.4 3.3 1.1 6.6.8 10a19.6 19.6 0 0 1-9.5 13.5c-17 5.3-31 7.6-42.7 8a104.1 104.1 0 0 1-25-2.3h-.2C11.8 63.5 5.3 54.4 5 54.1 3.8 52 3 50 2.9 47.7c-.4-3.5.3-7 .8-10.4.3-3.4-1.3-9-3.3-11.8C7.3 34 29.1 40.2 55 40.2c28.3 0 51.9-7.5 56-17.3h.1z"/><path fill="#4F8E99" fill-rule="nonzero" d="M91.5 18.3a8.5 8.5 0 0 1 2.8 7.1 9 9 0 0 1-4 6.7v.2a160 160 0 0 1-11.5 1.9l-.1-1.6c2.8-1.3 5.6-2.5 8-4.3a13 13 0 0 0 5-7.4c-.1-.9 0-1.8-.2-2.6z"/><path fill="#4F92C4" fill-rule="nonzero" d="M69.5 18.7c3-2.2 6.2-4 9.6-5.3 2.8-1 6.2-1.8 9-.3 1.8 1 3 3 3.3 5.2.2.8.2 1.7 0 2.6-.5 3-2.5 5.5-4.9 7.4a32.8 32.8 0 0 1-8 4.3l.1 1.6c-4 .4-8.4.7-12.9.9.9-1.8.1-4.2-1.6-5.2-1.6-1-4.1-.4-5.3 1-.2-.2-.6-.5-1-.6-.8-.3-1.6-.2-2.2.2l-.5-1.2-1.9-1.4c2.1.8 4.6.3 6.6-1 .1 0 .3-.1.3-.3 2-1.2 3.5-3 5.2-4.6l4.2-3.3z" opacity="0.6"/><path fill="#4F92C4" fill-rule="nonzero" d="M43.3 19l2.3 2.2c.4.3.8.6 1 1 2.1 2 4.2 4 6.6 5.8l1.9 1.4.5 1.1a3 3 0 0 0-1.7 2.6h-.3c-.3-1-1.3-2-2.3-2-1.5 0-2.8 1.6-2.5 3v.8l-8.7-.7V34c.6-1.5 0-4.1-1.3-5a3.8 3.8 0 0 0-4.4.3 4 4 0 0 0-1.3-2 4.1 4.1 0 0 0-5.2.3 3 3 0 0 0-1.3-1.2c-1.7-1-4.1-.8-5.5.5l-1-.7c-.7-.4-1.7-.4-2.5 0 1.5-.9 1.8-2.7.5-3.7-.6-.5-1.4-.8-2.4-.8v-1c.2-3.7 3.3-7 7.1-8.3 4.1-1.4 8.8-.6 12.7 1.2a31 31 0 0 1 7.8 5.5z" opacity="0.5"/><circle cx="72.4909747" cy="24.765343" r="1.29963899" fill="#FFF" fill-rule="nonzero"/><ellipse cx="59.2779783" cy="17.6173285" stroke="#4F8E99" rx="56.6787004" ry="17.6173285"/><path stroke="#4F8E99" d="M115 19.6c0 11.4-25.3 20.5-56.6 20.5S1.7 31 1.7 19.6c0-1.4.4-2.8 1.2-4"/><path fill="#4F8E99" fill-rule="nonzero" d="M8.5 13.3C12 10.8 16 9 20.1 7.7a88 88 0 0 1 12.5-3.2c2-.2 4.2-.7 6.3-.8l3.2-.4 3.2-.2c4.3-.3 8.6-.2 12.9-.2a180.2 180.2 0 0 1 25.6 1.9 66 66 0 0 1 12.5 3.4 141.8 141.8 0 0 0-.1.3C92.2 7 87.9 6 83.8 5.2 75.3 4 66.8 3.8 58 3.6c-4.2 0-8.6 0-12.8.2L42 4l-3.2.3c-2.1.1-4.2.5-6.3.8-4.2.7-8.4 1.5-12.5 2.8-4 1.4-8 3-11.6 5.4z"/><path fill="#FFF" fill-rule="nonzero" d="M32.2 18.3a20 20 0 0 1 3.9 2.7 21 21 0 0 1 3.3 3.5c.9 1.3 1.8 2.6 2.5 4l.5 1.1.4 1 .7 2.4-.5-1-.5-1.2-.6-1-.5-1a36.6 36.6 0 0 0-9.2-10.5z"/><path fill="#4F92C4" fill-rule="nonzero" d="M15.8 27.8c.4-.8 1-1.5 1.9-1.8.8-.3 1.8-.3 2.5 0 1 .5 1.6 1.3 2 2 .2 1 .2 1.8-.3 2.6.2-.8 0-1.7-.2-2.4a3 3 0 0 0-1.6-1.6 3 3 0 0 0-2.3-.1 4 4 0 0 0-2 1.3zM54 33a3 3 0 0 1 1.1-2.4c.8-.6 2-.9 2.8-.6 1 .4 1.8 1.2 2 2a3 3 0 0 1-.5 2.8c.3-1 .3-1.8 0-2.6-.4-.8-1-1.3-1.7-1.6a3 3 0 0 0-2.3.3c-.6.5-1.3 1.3-1.4 2.1z"/><g fill="#4F92C4" fill-rule="nonzero" transform="translate(39.7 13)"><path d="M7 9.2c.8-.9 1.7-1.8 2.8-2.3a6 6 0 0 1 3.7-.5 4 4 0 0 1 1.7.9c.5.4 1 1 1.1 1.6a3 3 0 0 1 0 1.9c-.2.5-.6 1.1-1 1.4a3 3 0 0 0 .4-3.2c-.3-1-1.3-1.6-2.4-2a5 5 0 0 0-3.3.4c-1 .4-2 1-3 1.8z"/><path d="M16.1 11c0-.8.8-1.6 1.6-1.9.8-.4 1.8-.4 2.6.1s1.2 1.5 1.2 2.4c0 .8-.3 1.8-1 2.2a3 3 0 0 0 .4-2.2c-.1-.7-.5-1.3-1-1.7-.6-.4-1.3-.4-2-.2-.7.1-1.4.6-1.8 1.3zM.1 3c.3-1 1-2 2.2-2.4 1-.5 2.5-.2 3.4.6.4.3.9.9 1 1.5.2.6 0 1.3-.3 1.8C5.8 5.5 4.6 6 3.5 6c1-.3 2-1 2.4-1.8.5-1 .2-2-.6-2.6-.8-.5-1.8-.8-2.8-.5C1.5 1.3.5 2 0 3z"/><path d="M6.3 2.5a3 3 0 0 1 1.6-1c.7-.3 1.5-.2 2.1.2.7.2 1.3.9 1.3 1.7 0 .7-.3 1.5-.9 1.7a1.8 1.8 0 0 0-.7-2.8C9.2 2 8.7 2 8.1 2a4 4 0 0 0-1.8.5z"/><path d="M10.6 2.5c.4-1 1.2-1.6 2.2-2 1-.4 2-.5 3-.1a4 4 0 0 1 2.4 5.2c.1-1 0-2-.6-2.8a4.4 4.4 0 0 0-2-1.8c-.8-.4-1.8-.4-2.7 0-.8.2-1.7.7-2.3 1.5z"/><path d="M18 3.2c.2-.6.8-1.2 1.6-1.4.7-.2 1.6-.1 2.2.3.7.4 1 1.1 1.2 2 0 .7-.2 1.5-.7 2a3 3 0 0 0 .2-2 3 3 0 0 0-1-1.4c-.6-.3-1.1-.5-1.8-.4a3 3 0 0 0-1.7 1z"/><path d="M22.9 3.8c.2-.8 1-1.5 1.7-1.9a4 4 0 0 1 1.3-.2c.5 0 .9 0 1.3.2.5.1.9.3 1.2.6l.8 1c.5.7.7 1.6.5 2.4-.1-.8-.5-1.5-1-2l-.8-1c-.2-.2-.6-.3-1-.4l-1.1-.1h-1.1c-.7.3-1.4.6-1.8 1.4z"/></g><path fill="#4F92C4" fill-rule="nonzero" d="M94 21.8a2 2 0 0 1 2-.6c.7.1 1.3.5 1.7 1.2.4.6.4 1.4.1 2a2 2 0 0 1-1.4 1.4c.5-.5.8-1 .9-1.5.1-.6 0-1.1-.3-1.6a2 2 0 0 0-1.2-1c-.6-.1-1.1-.1-1.7.1z"/><g fill="#4F92C4" fill-rule="nonzero" transform="translate(5.8 19.5)"><path d="M.3 2.2a7.7 7.7 0 0 1 4.6-2c1.7-.1 3.5.2 5 1.1C8.1.9 6.5.8 4.8.9c-1.6.2-3 .6-4.6 1.3zm15 5.3a4 4 0 0 1 2.5-1.4c1-.1 2 0 3 .4s1.7 1.3 2 2.2a3 3 0 0 1-.4 2.9c.3-1 .2-2-.2-2.7-.3-.8-1-1.5-1.8-1.8-.8-.4-1.6-.5-2.6-.5a5 5 0 0 0-2.5 1z"/><path d="M22.2 8.2c.6-.8 1.6-1.3 2.6-1.3 1-.1 2 .2 2.9.8a4 4 0 0 1 1.3 2.7c.2 1-.1 2-.8 2.7a4.3 4.3 0 0 0-1-4.8c-.7-.5-1.6-.8-2.4-.9-.9 0-1.8.2-2.6.8z"/><path d="M28.7 9.9A3 3 0 0 1 31 8.7c1-.1 1.9.1 2.6.8.7.6 1 1.5 1.1 2.4a4 4 0 0 1-.3 2.6c.1-.9 0-1.6-.2-2.4a4 4 0 0 0-1.1-2c-.6-.6-1.4-.8-2.1-.9-.7 0-1.5.3-2.3.7zM7.4 3C8 2.4 9 2 9.7 2a4 4 0 0 1 2.5.6c.4.2.7.6 1 1 .2.4.2.9.2 1.4-.2 1-.8 1.6-1.6 1.9.6-.5 1-1.3 1-2a2 2 0 0 0-1-1.7 5 5 0 0 0-2.1-.5c-.7-.2-1.5-.1-2.3.3zM53 11.8c.4-1 1.3-1.8 2.4-2a4 4 0 0 1 5.1 3 4 4 0 0 1-.6 3c.4-1 .4-2 .1-2.9-.3-1-.9-1.7-1.7-2.1a4 4 0 0 0-2.7-.5c-1 .2-2 .7-2.6 1.5zm-9.9 2.9c-.3-.8-.1-1.6.4-2.3.4-.6 1.2-1.1 2-1.1 1 0 1.7.5 2.2 1.1.4.7.6 1.5.3 2.3a3 3 0 0 0-.8-2c-.4-.4-1-.7-1.6-.7-.6 0-1.3.3-1.7.8-.5.5-.8 1.1-.8 1.9zM91.8 3.5a4 4 0 0 1 2.1-1c.9 0 1.8.2 2.4.7.7.6 1.2 1.5 1.1 2.4 0 .8-.6 1.6-1.3 2 .6-.6.8-1.4.7-2 0-.7-.4-1.3-1-1.8a3 3 0 0 0-1.9-.7c-.6 0-1.4 0-2.1.4z"/><path d="M97.3 5.1c.2-.3.8-.5 1.3-.4.5 0 1 .3 1.3.7.2.4.4 1 .3 1.5 0 .5-.3.9-.8 1.1.2-.4.2-.8.2-1.1 0-.4-.1-.8-.3-1-.2-.3-.5-.4-.9-.6-.3-.2-.6-.3-1.1-.2z"/></g><path stroke="#4F8E99" d="M1.7 19.6l2.2 5.7a22 22 0 0 1 3.2 11.9C6.8 40.6 6 44 6.4 47.5c.6 5.8 4.5 10.8 9.4 14a47 47 0 0 0 16.3 6.2c4.4.9 7.3 1.3 11.7 1.8m66.5-20.9a19.6 19.6 0 0 1-9.5 13.6c-5 3-10.6 5-16.5 5.8-21.6 2.9-28.6 2.3-40.5 1.5M115 21.8l-2.1 5.5c-2 2.8-3.7 8-3.3 11.4.4 3.3 1.2 6.6.8 10"/><circle cx="82.6714801" cy="18.267148" r="1.29963899" fill="#FFF" fill-rule="nonzero"/><circle cx="79.133574" cy="26.2093863" r="1.29963899" fill="#FFF" fill-rule="nonzero"/><circle cx="68.8086643" cy="23.9711191" r="2.16606498" fill="#FFF" fill-rule="nonzero"/><circle cx="72.1299639" cy="30.2527076" r="1.51624549" fill="#FFF" fill-rule="nonzero"/><circle cx="46.7148014" cy="29.3140794" r="1.51624549" fill="#FFF" fill-rule="nonzero"/><circle cx="31.2635379" cy="22.3826715" r="1.51624549" fill="#FFF" fill-rule="nonzero"/><circle cx="25.4873646" cy="16.3898917" r="2.09386282" fill="#FFF" fill-rule="nonzero"/><circle cx="43.465704" cy="22.6714801" r="1.08303249" fill="#FFF" fill-rule="nonzero"/><circle cx="36.0288809" cy="17.7617329" r="1.08303249" fill="#FFF" fill-rule="nonzero"/><circle cx="77.2563177" cy="20.1444043" r="1" fill="#FFF" fill-rule="nonzero"/><circle cx="84.5487365" cy="22.6714801" r="1" fill="#FFF" fill-rule="nonzero"/></g><path fill="#C5505D" fill-rule="nonzero" d="M85.4 73c.8 1 2 1.6 3.2 1.9 1.2.3 2.5.3 3.7.3 2.6-.1 5.1-.4 7.6-.7l7.5-1a114.7 114.7 0 0 0 22.3-4l3.7-1c1.2-.3 2.3-.8 3.5-1.3a9.2 9.2 0 0 0 3.1-2 5 5 0 0 0 2-2.8 5 5 0 0 0-.5-3.4c-.6-1-1.4-2-2.2-2.9a36.2 36.2 0 0 0-13-7.4c-2.4-.8-4.9-1.5-7.3-1.3-2.5.1-5 1-6.5 3a8 8 0 0 0-1.5 3.4c-.1 1.2 0 2.5.5 3.6.6 1 1.4 2 2.2 3 .9.9 1.8 1.8 2.3 3 .2.6.3 1.3.3 2 0 .6-.2 1.2-.6 1.7-.8 1-2 1.6-3.3 1.6 1.2-.1 2.5-.6 3.3-1.6.7-1 .6-2.5.1-3.6a10 10 0 0 0-2.2-3c-.9-.8-1.8-1.8-2.4-3a7.5 7.5 0 0 1 3.9-9.8 13 13 0 0 1 3.7-1c2.6-.1 5.2.5 7.6 1.3a42.6 42.6 0 0 1 13.2 7.6c1 .9 1.8 1.9 2.5 3 .6 1.2 1 2.6.6 4a6.5 6.5 0 0 1-2.3 3.2c-1 .8-2.1 1.5-3.3 2a69.8 69.8 0 0 1-7.3 2.3c-4.9 1.3-9.9 2.3-15 3l-7.5.8-7.6.8-7.6.5a15 15 0 0 1-3.7-.4c-1-.1-2.2-.8-3-1.8z"/><path fill="#C5505D" fill-rule="nonzero" d="M110.3 59.4A59 59 0 0 0 96 60a21.9 21.9 0 0 1 14.3-.7z"/><polygon stroke="#C5505D" points="121.5 54.5 120.1 53.5 118.4 54 119 52.3 117.9 50.9 119.7 51 120.8 49.5 121.3 51.2 123 51.8 121.5 52.8"/><polygon stroke="#C5505D" points="131.1 56.2 129.8 55.6 128.7 56.4 128.7 54.9 127.7 54.1 129 53.7 129.5 52.4 130.3 53.6 131.7 53.7 130.8 54.8"/><polygon stroke="#C5505D" points="125.7 63 124 61.9 122.2 62.7 122.7 60.7 121.3 59.2 123.3 59.1 124.3 57.3 125.1 59.2 127.1 59.6 125.6 60.9"/><polygon stroke="#C5505D" points="84.8 61.7 83.1 60.6 81.2 61.4 81.7 59.5 80.4 58 82.5 57.8 83.5 56 84.3 58 86.2 58.4 84.7 59.7"/><polygon stroke="#C5505D" points="92.1 63.5 91 62.9 89.7 63.4 90 62.1 89.2 61.1 90.5 61 91.2 59.9 91.7 61.1 93 61.4 92 62.2"/><polygon stroke="#C5505D" points="83 70.4 81.9 69.7 80.6 70.3 81 69 80.1 67.9 81.4 67.9 82.1 66.7 82.6 67.9 83.9 68.2 82.9 69.1"/><polygon stroke="#C5505D" points="134.7 63 133.5 62.2 132.2 62.9 132.5 61.4 131.6 60.4 132.9 60.3 133.6 59 134.2 60.3 135.6 60.6 134.6 61.5"/><g fill="#C5505D" fill-rule="nonzero" transform="translate(56.3 52)"><path d="M38.6 10c-.4 1.3-1.1 2.5-2 3.6L34 17a77.3 77.3 0 0 1-19.6 15.7l-3.8 2c-1.2.6-2.6 1.1-4 1.4-.7.1-1.5 0-2.2-.1a5 5 0 0 1-2-1 6.8 6.8 0 0 1-2-3.8 9.4 9.4 0 0 1 2-8c1.7-2.3 4-3.9 6.4-5.5a28.5 28.5 0 0 0-6.2 5.6A11.4 11.4 0 0 0 .7 27a9.5 9.5 0 0 0 0 4c.4 1.3 1 2.5 2 3.4.5.4 1 .7 1.7.9h2a13 13 0 0 0 3.8-1.4l3.7-2a77.5 77.5 0 0 0 19.7-15.3c2-2 4-4 5-6.5z"/><path d="M16.5 20a8.2 8.2 0 0 1-4-10.3c.4-.9 1-1.8 1.6-2.6.6-.7 1.5-1.4 2.5-1.8l1.5-.4 1.3-.6 1.2-.7L22 3c1.9-.8 3.8-1.4 5.7-1.8 2-.5 4-.8 6-.4 1 .1 2 .5 3 1 .8.6 1.5 1.4 2 2.3a8 8 0 0 1-.1 5.9c.5-2 .6-4-.3-5.7a4.8 4.8 0 0 0-2-2c-.8-.6-1.7-.8-2.7-1-1.9-.1-3.9 0-5.7.6-2 .4-3.9 1-5.7 1.8l-1.3.6-1.3.7-1.4.6-1.4.3c-.8.3-1.6 1-2.3 1.7a8.3 8.3 0 0 0 2 12.5z"/><path d="M17 5.3a22.5 22.5 0 0 0 3.3 11.3 11.3 11.3 0 0 1-3.2-5.2c-.5-2-.6-4.2-.1-6.1zm-12.6 19a2 2 0 0 0-1.1 1.5 3 3 0 0 0 0 1.8c.3 1.2 1.4 2 2.6 2.2a5 5 0 0 0 3.5-.7c1.1-.6 2.1-1.4 3.2-2.2-.8 1-1.7 2-2.9 2.7-.6.4-1.2.7-1.9.8-.6.2-1.3.2-2 0-.7 0-1.4-.3-2-.9-.4-.4-.9-1.1-1-1.8-.2-.7 0-1.3.1-2 .4-.7.9-1.3 1.5-1.4z"/></g><g transform="translate(14.4 15.2)"><path fill="#C99F62" fill-rule="nonzero" d="M54.4 52.3l-26.8-.2-26.9-.3H.2l.4-.4L50 2h.2c11-.3 22-.4 33-.5l33.2-.4 33-.4 33.1-.2-33 .6-33.1.5-33.1.5-33 .5.1-.1L1 51.8l-.2-.4 26.9.5 26.8.4z"/><line x1="234.296029" x2="119.205776" y1="55.0180505" y2="53.2851986" stroke="#C99F62"/></g><path fill="#C99F62" fill-rule="nonzero" d="M.2 68.3a4.7 4.7 0 0 1 3-3.3c.7-.3 1.5-.4 2.3-.3.8.1 1.6.5 2.2 1 .6.3 1.2.8 1.8 1 .7.3 1.3.5 2 .6 1.5 0 3-.3 4.4-.6a11 11 0 0 1-4.3 1.1 5 5 0 0 1-2.4-.4l-2-1.1a4 4 0 0 0-1.8-.8c-.6-.1-1.4 0-2 .1a4.8 4.8 0 0 0-3.2 2.7zm17.6-4.9c-1 .7-2.1 1.1-3.4 1.1-1.2 0-2.4-.3-3.5-.8-1-.6-2-1.3-3.1-1.7a5 5 0 0 0-3.4-.3c1-.6 2.4-.6 3.5-.2 1.2.4 2.3 1 3.3 1.5 1 .6 2 1 3.2 1 1.1 0 2.3-.1 3.4-.6zm3.4-3.4c-.6.8-1.8 1.1-2.9 1.1-1 0-2.1-.3-3-.6l-3-1c-.9-.2-2-.2-3 .1 1-.6 2.1-.8 3.1-.6 1.1.1 2.1.5 3 .8l3 .8c1 .1 2 0 2.8-.6zm2.8-2.6a2 2 0 0 1-1 1c-.5.3-1 .3-1.6.3-1-.1-1.8-.5-2.7-.7-1.7-.3-3.6-.1-5.5-.1 1.8-.6 3.7-1 5.6-.6 1 .1 1.8.6 2.7.8h1.3c.4 0 .9-.3 1.2-.7zm4-3a2 2 0 0 0-1.4-.4c-.5 0-.9.1-1.4.3-.4.3-1 .5-1.4.6-.6.2-1.2.2-1.7.2-1.2-.3-2-.8-3-1.3-.8-.5-1.8-1-2.8-.9a3 3 0 0 1 1.7-.1c.5 0 1 .2 1.5.5 1 .4 1.9.9 2.8 1 1 .3 1.8-.2 2.9-.5a4 4 0 0 1 1.5-.3c.5.2 1.1.4 1.4 1zm-9-4.6c.3-.5.9-.8 1.4-.8.6 0 1.2.1 1.6.5 1 .7 1.5 1.5 2.4 1.8.9.4 1.9.2 2.9 0 1 0 2-.2 3.1.2-1-.1-2 .2-3 .5a5 5 0 0 1-3.3 0c-1-.4-1.7-1.4-2.4-2-.4-.3-.8-.5-1.3-.6-.5-.1-1 0-1.3.4zm4-3.7c.2-.5.8-.9 1.3-1 .6 0 1.2 0 1.7.4 1 .7 1.6 1.6 2.4 2.1.8.6 1.7.5 2.8.2.5-.2 1-.3 1.6-.3.6 0 1.1 0 1.6.3-1.1-.3-2 .2-3 .5a4 4 0 0 1-1.7.3 3 3 0 0 1-1.8-.4c-1-.6-1.5-1.6-2.3-2.2a2 2 0 0 0-1.3-.5c-.4 0-1 .1-1.3.6zm2.8-3.5c.1-.6.7-1.1 1.3-1.3.6-.1 1.3 0 1.9.2 1.1.5 1.9 1.4 3 1.8 1 .4 2 .4 3.2.3l3.4-.7c-1 .5-2.1 1-3.4 1.2-1.1.3-2.4.3-3.6-.2-1.1-.5-2-1.5-2.9-2-.4-.3-1-.3-1.5-.3-.6.2-1.1.5-1.4 1zm2.6-3.8c.3-.5 1-.8 1.6-.8.6-.1 1.2 0 1.8.2 1.2.4 2.1 1.1 3.2 1.5 1.1.3 2.3.4 3.4.3l3.6-.2c-1.1.3-2.2.7-3.4.8-1.2.2-2.5.2-3.6-.3-1.3-.4-2.2-1.1-3.2-1.6l-1.6-.5c-.7.1-1.3.3-1.7.6zm2.9-4.2c.5-.3 1.1-.4 1.8-.3.6 0 1.2.3 1.8.6 1 .7 2 1.5 3 2 1 .4 2.2.3 3.4.2.6 0 1.2-.2 1.9 0 .6 0 1.3 0 1.8.4-1.2-.4-2.4 0-3.6.2l-1.8.3c-.7 0-1.3-.1-2-.4-1.2-.5-2-1.5-3-2.1-.5-.4-1-.6-1.6-.8-.6-.2-1.2-.3-1.7 0zm1.7-2.3a6 6 0 0 1 4 0 7 7 0 0 1 1.8.8l1.6 1.2c1 .7 2.2.5 3.5.3a9 9 0 0 1 2-.3c.6 0 1.3 0 1.8.5-.6-.2-1.2-.2-1.9-.2l-1.8.5c-.7.3-1.3.4-2 .4-.8 0-1.5-.2-2-.6l-1.8-1.1a6 6 0 0 0-1.6-.9c-1-.6-2.3-.8-3.6-.6zm4.5-2.7c.5-.4 1.1-.5 1.8-.5a5 5 0 0 1 1.8.5c1.1.5 2.1 1.1 3.2 1.4 1.1.3 2.3 0 3.4-.2l1.8-.2c.7 0 1.3.1 1.8.5-1.2-.4-2.3 0-3.5.3-1.2.3-2.4.7-3.7.3-1.3-.3-2.2-1-3.3-1.5-.5-.3-1-.6-1.6-.6-.6-.2-1.1-.2-1.7 0zm2.5-2.5c.4-.3 1-.4 1.7-.3.7 0 1.3.3 1.8.5.6.3 1.1.5 1.7.6.6.2 1 .2 1.7 0 1.1 0 2.3-.3 3.5-.4a5 5 0 0 1 3.5.8c-1-.5-2.3-.5-3.4-.3-1.2.2-2.3.6-3.6.6-.7.1-1.3 0-2-.1l-1.6-.7-1.5-.8c-.6 0-1.3-.1-1.8.1zm4.5-3.1c.8.9 1.9 1.1 2.9 1.2 1 0 2-.2 3-.5 1.2-.3 2.2-.5 3.4-.3.6 0 1.1.3 1.6.6.5.2.8.7 1 1.3-.6-1-1.7-1.3-2.7-1.3-1-.1-2 .1-3 .4-1.2.2-2.3.5-3.4.3-.6 0-1.2-.2-1.7-.5a3 3 0 0 1-1-1.2z"/></g><circle cx="81.5884477" cy="222.093863" r="1" fill="#FFF" fill-rule="nonzero"/><circle cx="91.9133574" cy="218.33935" r="1" fill="#FFF" fill-rule="nonzero"/></g><g fill-rule="nonzero" transform="translate(88 100.4)"><path fill="#C99F62" d="M65.7 24.5a26 26 0 0 1 3.6-6A41.3 41.3 0 0 1 82.8 7l3.3-1.4c-2 1.1-4.2 2.3-6 3.7a45.8 45.8 0 0 0-10.4 9.5 48.4 48.4 0 0 0-4 5.7z"/><path fill="#C99F62" d="M42 36a30.4 30.4 0 0 1-5.8-20.5c0-.2.2-.3.3-.2a27.5 27.5 0 0 1 8.3 5l1.8 1.8.8 1 .3.4.4.5c1 1.4 1.6 3 2.2 4.4l-.6.2a60 60 0 0 1-.3-21.8C50 4.4 51 2 52.9.3c.2 0 .3-.2.5 0l1.2 1 1 1.2.7 1.3.7 1.4a39 39 0 0 1 1.8 5.8l.6 3 .3 3.1.2 3 .2 3h-.6a34.2 34.2 0 0 1 4.3-11.8 25.4 25.4 0 0 1 8.5-9.1c.3 1 .5 2.1.6 3.2l.2 3.2a23.5 23.5 0 0 1-.8 6.3l.5-3.1.1-3.2c0-1 0-2.1-.2-3.2l-.6-3h.2a27.7 27.7 0 0 0-10.6 14.8c-.7 2-1.3 4-1.6 6 0 .1-.2.3-.3.2-.2 0-.2-.2-.3-.3l-.1-3-.3-3-.3-3-.6-3c-.4-2-1-3.9-1.8-5.7L55.7 4 55 2.7a16 16 0 0 0-.8-1.1l-1-1h.4a14.2 14.2 0 0 0-3.3 6.1c-.7 2.3-1 4.7-1 7a60.3 60.3 0 0 0 1.2 14.5l-.2.3c-.2 0-.3 0-.4-.2-.6-1.5-1.2-3-2.2-4.3l-.3-.5-.4-.5-.7-1-1.7-1.6a25.7 25.7 0 0 0-8.1-5l.3-.2a26.7 26.7 0 0 0 2.6 15.7c.7 2 1.6 3.5 2.6 5zm46.2-17l1.1-1.3 1.3-1.2 1.5-1 .8-.5c.2-.1.5-.3.9-.3h.2s.2 0 .2.2l.1.3v1.5c0 .5 0 1-.2 1.6l-.5 1.7-.3 1.7a53 53 0 0 1-2.3 6.7l-1.3 3.2-1.5 3.2 2.3-6.6c.8-2.1 1.6-4.4 2.1-6.6l.4-1.7.4-1.6.4-1.7v-1.1l-.2-.2h.1l-.7.3-.7.4-1.5 1a8 8 0 0 0-2.6 2z"/><path fill="#C99F62" d="M88.2 4.8l2.2-1.2.6-.2h.7c.4.5.4 1 .4 1.4 0 .8-.3 1.6-.4 2.4l-.4 2.5a50 50 0 0 1-3 9.2l1.2-4.7 1.1-4.7.5-2.4.5-2.3c0-.4 0-.8-.2-1v-.1H91l-.5.1-2.3 1zM68.8 34a98 98 0 0 1 4.1-3.6l4.2-3.5 4.3-3.4 2.1-1.6 2.2-1.7c-1.2 1.4-2.6 2.6-4 3.8a98.5 98.5 0 0 1-8.5 7l-4.4 3z"/><path fill="#4D876D" d="M65.3 48.3c.3-.6 1-1 1.4-1.5l1.8-1.1 2-.7 2-.5c.1 0 .3 0 .3.2a29 29 0 0 1-1.7 14 16.5 16.5 0 0 1-10 9.5 17.4 17.4 0 0 0 9.4-9.8 31.8 31.8 0 0 0 1.7-13.6l.4.2a19.8 19.8 0 0 0-4 1c-.7.1-1.3.4-1.9.8l-1.4 1.5z"/><path fill="#4D876D" d="M11.3 83.5a45.7 45.7 0 0 1 2.3-19.2A48.5 48.5 0 0 1 33.4 39l2.7 7.6h-.6c1-3 2.5-5.8 4.4-8.4A48.3 48.3 0 0 1 50 28.4l2-1.3 2-1.2c.4-.2.7-.3 1-.6l1.1-.5 2.2-1 4.4-1.6c.1-.1.3 0 .4.2a88 88 0 0 1-2 46.8 73.2 73.2 0 0 1-.3 0c.9-2.5 1.4-5 2-7.6a87.5 87.5 0 0 0-.4-39l.6.3-4.4 1.6-2 1-1.1.6-1 .5-2 1.2-2 1.3-2 1.4-1.7 1.4a40 40 0 0 0-6.3 6.8 30.6 30.6 0 0 0-4.3 8.2c-.1.1-.2.2-.5.2l-.2-.2-2.6-7.6.5.1a48.5 48.5 0 0 0-21 31.4c-1 4-1.4 8.4-1 12.7zm59.6-26.7A27.1 27.1 0 0 1 83.2 53c.3 0 .4.1.4.3a20.2 20.2 0 0 1-4.9 15 23.5 23.5 0 0 0 4.2-14.9l.3.2A31.4 31.4 0 0 0 71 56.8zM56.5 82.2l3.6-3.4 3.5-3.5 3.4-3.5c.6-.6 1-1.3 1.7-1.8l1.6-1.8c-.4.7-1 1.3-1.3 2l-1.6 2-3.2 3.6a51.7 51.7 0 0 1-7.7 6.4z"/><path fill="#4D876D" d="M6.6 85A65.1 65.1 0 0 1 .9 65.2c-.9-6.9-.5-13.9 1-20.6l.6-2.5.7-2.5.8-2.4 1-2.4a93 93 0 0 1 12-22.9c1.1-1.4 2.3-2.7 3.8-3.7l.4.1a31 31 0 0 1 4 7.9c1.2 2.7 1.9 5.6 2.5 8.5l.7 4.4.2 2.2.1 2.2.1 2.2V38l-.2 4.4v-6.7c0-.7 0-1.4-.2-2.2l-.2-2.2-.3-2.1c-.1-1.5-.5-3-.7-4.4a47.8 47.8 0 0 0-6.6-16.1h.3c-1.3 1-2.4 2.3-3.5 3.6a55 55 0 0 0-7.9 13.2 155 155 0 0 0-4 9.4l-1 2.4a14 14 0 0 0-.7 2.5L3 42.2a60.3 60.3 0 0 0 0 33c1 3.4 2 6.7 3.6 9.8z"/></g><path fill="#4D876D" fill-rule="nonzero" d="M176.7 168.9a5 5 0 0 1 2.3-.2 3.5 3.5 0 0 1 3 3.2c.1.8 0 1.7-.5 2.3-.3.3-.8.5-1.3.4-.4 0-.8-.2-1.1-.5-.3-.3-.5-.8-.5-1.2l.1-1.2a14 14 0 0 1 2.2-4.2 6.5 6.5 0 0 1 3.2-3c1.3-.7 2.8-.8 4.3-.7a7 7 0 0 1 2.2.7 4 4 0 0 1 1.7 1.5c.3.7.3 1.7-.2 2.4s-1.3 1-2.1 1-1.6-.5-2-1.2a3 3 0 0 1-.8-2.1c0-1.6.6-3 1.5-4.2a6 6 0 0 1 3.5-2.7c1.5-.5 3.1-.3 4.4.4.4.2 1 .5 1.4 1 .3.6.4 1.3.2 1.9 0 .2-.3.5-.5.7a1 1 0 0 1-1 .3c-.4-.2-.7-.5-.8-.7l-.3-.8a5.6 5.6 0 0 1 2-5.8 8.7 8.7 0 0 1 6-2c1 0 2.1.3 3 .9 1 .6 1.5 1.6 1.8 2.6 0 .4 0 .8-.4 1.1-.2.4-.6.6-1 .6-.5 0-1 0-1.2-.3-.4-.2-.6-.5-.7-1-.3-1.4.2-2.9 1-4 1-1.2 2.2-2 3.6-2.4a6 6 0 0 1 4.2.1c.6.4 1.1 1 1.5 1.5-.4-.5-.9-1-1.5-1.3a5.6 5.6 0 0 0-4 0 7.3 7.3 0 0 0-3.4 2.3c-.9 1-1.2 2.4-1 3.8.1.3.4.6.6.7.3.2.6.3 1 .3l.6-.5c.2-.2.3-.6.3-.8-.3-1-.8-1.8-1.7-2.3-.8-.5-1.8-.8-2.8-.8-1.9 0-4 .7-5.4 1.9a5 5 0 0 0-1.7 2.4c-.4.9-.4 1.9-.1 2.8.1.4.3 1 .6 1 .2.2.6-.2.7-.6.2-.3.1-.8-.1-1.1-.2-.4-.7-.6-1.1-.7a5 5 0 0 0-3.9-.4 7 7 0 0 0-3.2 2.4c-.8 1-1.4 2.4-1.4 3.7 0 .7.2 1.3.6 1.8.3.5.9 1 1.5 1s1.2-.3 1.6-.8a2 2 0 0 0 .1-1.7 3 3 0 0 0-1.4-1.3 7 7 0 0 0-6 0 6 6 0 0 0-3 2.7c-.9 1.3-1.7 2.6-2.2 4-.2.8-.2 1.6.3 2.1s1.3.7 2 .2a3 3 0 0 0 .5-2.1c0-.8-.4-1.5-.9-2.1-.5-.6-1.2-1-2-1-.7-.3-1.5-.2-2.3 0zm37.3-11.3a3.5 3.5 0 0 1 2.4-2.7c1.2-.5 2.7-.4 3.8.5.5.4.7 1 .9 1.7.1.7.3 1.3.3 2a6 6 0 0 1-.3 2c-.2.2-.3.6-.7.8-.3.2-.8 0-1-.1l-.1-.1c-.3-.9-.3-1.7-.2-2.5a14.7 14.7 0 0 1 3.9-5.8c1.3-1 2.6-1.8 4.2-2.2a7 7 0 0 1 2.6-.2c.8.1 1.6.4 2.2 1a4 4 0 0 1 1.7 1.9c.4.7.6 1.5.8 2.3.2.8.3 1.6.2 2.5 0 .4-.2.9-.6 1.3-.3.4-1 .4-1.4.3h-.1c-.6-.6-.6-1.2-.7-1.7 0-.6 0-1.1.2-1.6a9.2 9.2 0 0 1 3.3-5.2 4 4 0 0 1 1.5-.6h.8c.3 0 .5-.2.8 0 2.2 0 4.1 1 5.6 2.6a6.7 6.7 0 0 1 1.7 5.8c-.1.4-.3.9-.6 1.3-.4.3-.9.5-1.4.5-.3 0-.5-.2-.7-.4-.2-.2-.3-.6-.3-.8 0-.6.4-1 .7-1.2.5-.8 1.5-1.3 2.4-1.6 1-.3 2-.3 3 0 .9.2 2 .8 2.3 1.7.3.5.3 1.1.1 1.5a3 3 0 0 1-.6 1.4h-.1c-.4.3-.8.4-1.2.2-.3-.1-.7-.5-.8-.8 0-.5.1-.9.4-1.1.3-.3.7-.4 1-.5 1.5-.5 3 0 4.1.8 1.2 1 2.1 2 2.7 3.3.6 1.2.9 2.7.7 4.1.2-1.4-.2-2.8-.8-4a9.3 9.3 0 0 0-2.6-3.1c-1.2-.8-2.6-1.2-3.9-.8l-.8.5c-.2.2-.4.5-.3.8 0 .3.3.5.5.5.3.1.6 0 .9-.1h-.1c.5-.6.8-1.6.5-2.4-.4-.8-1.2-1.2-2.1-1.4-.9-.2-1.8-.2-2.7 0-.8.3-1.6.8-2.1 1.5-.3.3-.6.6-.6.9 0 .2.2.4.6.5.2 0 .6-.1.8-.3.2-.2.4-.6.4-1a6 6 0 0 0-1.7-5.2 7.3 7.3 0 0 0-5-2.4H237c-.5.1-.8.3-1.3.6a6 6 0 0 0-2 2 11 11 0 0 0-1 2.7l-.3 1.4c0 .4 0 1 .4 1h-.2l.8-.1c.2-.2.3-.5.4-.9.1-.7 0-1.5-.2-2.2-.1-.8-.4-1.6-.8-2.2a4 4 0 0 0-1.4-1.7 5 5 0 0 0-4.2-.7c-1.4.4-2.8 1-4 2-1.1 1-2.2 2.1-3 3.4-.7 1.3-1.3 2.8-.8 4.3h.7c.2 0 .3-.3.5-.6.2-.6.2-1.2.2-1.8 0-.6 0-1.3-.2-1.9a3 3 0 0 0-.8-1.6c-1-.8-2.4-1-3.6-.5-1 .1-2 1.1-2.3 2.4zm-40.1 9.6c-1.3-.2-2.6.2-3.9.7-1.2.5-2.3 1.2-3.3 2-1 1-1.8 2-2 3.2a3 3 0 0 0 0 1.8c.2.6.6 1.1 1 1.6v-.1c.6.3 1.4 0 1.9-.6s.9-1.4.7-2c-.3-.8-.9-1.6-1.6-2.1a4 4 0 0 0-2.6-.7c-1 0-2 .2-2.9.5-.9.3-1.7.8-2.5 1.3a12.8 12.8 0 0 0-3.3 4.8 20 20 0 0 0-1.2 5.9c0-2 .2-4 .9-6 .4-.9.7-1.8 1.3-2.7a9 9 0 0 1 7.7-4.4c1 0 2.2.2 3 .9 1 .5 1.6 1.5 2 2.5 0 1-.4 2-1 2.7-.4.3-.7.6-1.2.8-.5.1-1 .1-1.5-.1h-.1a3.7 3.7 0 0 1-1.2-4 8 8 0 0 1 2.3-3.4c1.1-.8 2.3-1.6 3.6-2 1.3-.7 2.6-1 4-.6z"/><path fill="#C5505D" fill-rule="nonzero" d="M289.7 169c-2.5.5-5 .2-7.5-.8a16.5 16.5 0 0 1-9-11.7c-.6-2.6-.2-5.2.4-7.6.8-2.5 2-4.8 3.4-6.9 1.4-2 3.1-4 5-5.8 3.8-3.4 8.3-6 12.7-8.4 4.5-2.4 9.1-4.6 13.5-7.2a68.3 68.3 0 0 0 21.5-21.2c2.6-4.3 4.7-9 5.8-14a39 39 0 0 0-4.3-29.2A49.7 49.7 0 0 0 309.5 36a62 62 0 0 0-37-5 65.8 65.8 0 0 0-21.6 7 44.7 44.7 0 0 0-12 9c-3.4 3.7-6 8.2-7.2 13a23 23 0 0 0 .8 14.6 25.2 25.2 0 0 0 23.7 15c5-.1 10-1.7 14.1-4.4 4.2-2.7 7.7-6.5 9.7-11 2-4.6 2.8-9.7 2.4-14.6a37 37 0 0 0-4.2-14.3 52.2 52.2 0 0 0-9-12A82.9 82.9 0 0 0 251 19.8a141.1 141.1 0 0 0-65.3-18.2c-20.3-.7-40.6 3.2-59.4 10.8l-7 3-3.4 1.7-3.4 1.7a156 156 0 0 0-13.1 7.8l-3.2 2L93 31a65 65 0 0 0-16 15.9c-1.4 2-2.4 4.4-3.2 6.8A19.6 19.6 0 0 0 79.2 74a14 14 0 0 0 6.4 3.3l1.8.3h1.8l1.8-.1c.6-.2 1.3-.2 1.9-.5a16.8 16.8 0 0 0 9.5-24.1c-2.3-4.5-6-8-10.2-10.7A36.5 36.5 0 0 0 78 37.8c-5-.6-10.1-.4-15.1.3A74.4 74.4 0 0 0 5 81.9a57.3 57.3 0 0 0 9 57.2c.7 1 1.7 1.7 2.7 2.6L18 143l1.3 1.4a53.2 53.2 0 0 0 19 12.1c4.8 2 9.6 3.6 14.4 5.3a142 142 0 0 1 14.2 5.6 55 55 0 0 1 13 8.2c3.8 3.3 7 7.3 9.2 12a28.6 28.6 0 0 1 2.6 11c0 .7-.2 1.3-.7 1.8l-1 1.6 1.2-1.4c.5-.5.7-1 .7-1.7l-.3-3.9c-.5-2.5-1.2-5-2.3-7.2a36.8 36.8 0 0 0-9.4-11.9c-3.8-3.3-8.3-6-13-8-4.6-2.2-9.3-3.9-14.2-5.6-4.8-1.6-9.6-3.3-14.3-5.2a70 70 0 0 1-13.5-7.2c-2.1-1.5-4.2-3-6-4.9l-1.3-1.4c-.4-.5-.7-.9-1.3-1.3l-2.8-2.7a51.2 51.2 0 0 1-8-13A66.3 66.3 0 0 1 .6 96.3a59.5 59.5 0 0 1 11-28.5A75.3 75.3 0 0 1 78 36.5c5 .5 10.1 2 14.7 4.6a28 28 0 0 1 10.7 11.2 22 22 0 0 1 2 7.5c.3 2.6-.2 5.3-1.2 7.7a17.8 17.8 0 0 1-11 10.5c-.6.3-1.3.4-2 .6l-1.9.2-2-.1c-.7 0-1.3-.2-2-.3-2.6-.6-5-2-6.9-3.7A21.6 21.6 0 0 1 72.6 53c.8-2.5 2-5 3.3-7 2.7-4.5 6.4-8.2 10.3-11.6l6-4.7 3.2-2.3 3.2-2.1a135 135 0 0 1 13.2-7.8c1.1-.6 2.2-1.3 3.4-1.8l3.4-1.6c2.3-1 4.7-2.1 7.1-3 19-7.8 39.6-11.7 60-11a141.4 141.4 0 0 1 72.5 22.5c4.3 2.9 8.3 6 12 9.7a50 50 0 0 1 9.2 12.3c2.5 4.6 4 9.7 4.4 14.8a31 31 0 0 1-2.6 15.3 29 29 0 0 1-25 16.2 27 27 0 0 1-14.8-4.1c-4.4-2.8-8-6.8-10-11.7-1-2.5-1.7-5-1.7-7.7a28.4 28.4 0 0 1 8.4-21.2c3.5-3.8 7.7-6.8 12.3-9.2a67.6 67.6 0 0 1 21.9-7 68.6 68.6 0 0 1 37.5 5A51.4 51.4 0 0 1 332 56c2.5 4.5 4.2 9.4 5 14.5a39 39 0 0 1-.7 15.3 46 46 0 0 1-6 14 63.6 63.6 0 0 1-21.8 21.3c-4.4 2.7-9 4.8-13.5 7.2-4.5 2.4-9 5-12.7 8.4a31.8 31.8 0 0 0-5 5.7 22 22 0 0 0-3.4 6.8 15.2 15.2 0 0 0 2.5 14.4c1.7 2 3.6 3.6 6 4.7a12 12 0 0 0 7.3.8z"/></g></svg>