<svg xmlns="http://www.w3.org/2000/svg" width="400px" height="400px" viewBox="0 0 400 400"><g fill="none" fill-rule="evenodd" transform="translate(0 19)"><path fill="#FFF" fill-rule="nonzero" d="M275.2 204.1v-.2.2zm82.9-13.6c-.8-2.1-1.8-4.3-3-6.2-.5-1.6-1.3-3-2-4.3a21 21 0 0 0-2.4-3.1c-.5-2.5-1.5-4.9-2.8-7a93.9 93.9 0 0 0-5-6.8c-1.8-2.1-4-4-6.2-5.6a74 74 0 0 0-7-4.5 32.8 32.8 0 0 0-10.1-3.5l-1.5-.2h-.4a12 12 0 0 0-3.3-.4l-2.8-.8c-5.4-.9-10.5 2-13.8 6.1l-1-.4c-.4-1-1.1-1.6-1.7-2.3-.7-.7-1.2-1.3-2.1-1.9h-.4l.3-.2a4 4 0 0 0 .5-2.2c0-.6-.3-1.4-.6-2.1-.4-.7-1-1.4-1.8-1.6a3 3 0 0 0-2.4.5l-1 .6v.2a17 17 0 0 0-1.2-2l-.9-1.4-.7-1.6-.2.3-.5-.9a5 5 0 0 0 1.3-.9l3.2-1.5a5.6 5.6 0 0 0-5.4 2.2l-2.3-1.2 2.7-1.8 2.6-2a6 6 0 0 0-4.5 2.1l-.5.9-2-.2c.3-.7.7-1.3 1.3-1.8a26.9 26.9 0 0 1 6.2-4.2 8 8 0 0 0-5 1.7 6.6 6.6 0 0 0-2.4 2.6l-1.6-.5.6-.9c1-1.1 2-2.1 3.2-3 1.1-.8 2.6-1.4 4-2-1.5.4-3 .7-4.3 1.5-1.4 1-2.5 2-3.5 3-2 2.4-3.3 5.5-3.9 8.4-.6 3-.8 6-.8 9.1l.3 4.5c0 .4 0 .8.3 1.2l.2.2.4.1.5-.1c.6-.1 1.2-.2 1.7-.5l.2.8.6 1.7.8 1c.3 0 .6.1.8.3l.3 2.1c-.9 0-1.8.3-2.5.8-.7.6-1.5 1.3-2.1 2.1-.6.8-1.1 1.7-1.5 2.6-.3.8-.4 1.6-.3 2.5-1.5-.1-3 0-4.4.5 0-.4-.1-.8-.3-1-.3-.5-.6-.7-1-1a2 2 0 0 0-.7-.2v-.1c.2-.9 0-2-.6-2.6a2 2 0 0 0-1-.8c.2-.4.5-1 .5-1.6a3 3 0 0 0-.8-2.1 5.6 5.6 0 0 0-2.7-1.6c-.3-2.8-.8-5.5-1.6-8l-.1-.5c.4-1.6 1.2-3 1.8-4.5l1.7-5.5a38 38 0 0 0 1.2-11.2 14 14 0 0 0-1.5-5.5 15 15 0 0 0-1.3-2.5c-.6-.8-1.1-1.6-1.8-2.3-1.4-1.3-3-2.5-4.8-3.2a9 9 0 0 0-2.8-.8h-2.8a10 10 0 0 0-5.2 2.8 11 11 0 0 0-3.2 4.8c-.6 2-.6 3.9-.6 5.8s.3 3.8.9 5.6c1 3.6 3 7.1 5.7 9.7 2.5 2.5 5.4 4.5 8.1 6.6a103 103 0 0 0 2.6 8.4c-.6.1-1.2.2-1.8.5a9.6 9.6 0 0 0-3.5 2.4v.4l-2.9-1c-6.5-2.3-13.3-3.9-20.2-5a182.5 182.5 0 0 0-62 .7c-4.3.9-8.6 1.9-12.8 3.1l-.3-53.8.3-47.7v-.2l-21.9-28.5.9-23.6v-.4h-.5L115 4.8 96.6 3.7 60 1.4l-.4 23.7v.2h.1l-13 21-13.2 21.4-.2.3.4.1h.1c0 17-.3 34-.3 51.2l-.1 51.3c-.1 17-.2 34.1-.1 51.2v51.6h.4l38.9 4.8 38.9 4.5 6.5-2.2a71.2 71.2 0 0 0 38.4 55 99 99 0 0 0 46.9 12.6 90 90 0 0 0 47-11.8 70 70 0 0 0 18.5-16 80.6 80.6 0 0 0 16.2-40.7c.4.4 1.1.5 1.4.6 2.2.4 4.6.4 6.7.1 3.1-.4 5.5-1.7 8.2-3 .2 0 .1.4.1.6l.5.8c.5.8 1.7 2 2.8 1.5 1.1-.5 1-2.8.3-3.6-.8-1-2.2-1.5-3.6-1.6h-1.3l-1 .2c-2.7 2-7 2.2-10.2 2.5-.8.1-2.8 0-3.8.6l.3-3.3a72.3 72.3 0 0 0-1.9-24.3c-1.7-8-3.6-16-5.4-23.8-.9-4-1.7-7.9-2.4-12l-.6-6-.1-3v-1.8a31.8 31.8 0 0 1-1.8 2.2l1.9-2.5a31 31 0 0 0 3.6-6.5v.2c.4.7.6 1.2 1.1 1.8.6.9 1.2 1.8 2 2.6 3 3.1 7.1 5.3 11.3 6.4l3.3.8c0 1.2.9 2.4 1.3 3.5.2.7.6 1.2.8 2l1.1 1.6a9.8 9.8 0 0 0 4.6 3v.4c-.3 0-.4.2-.6.4-1.3 1-2.2 2.4-3 3.7-.9 1.6-1.5 3.3-2.2 5a80.5 80.5 0 0 0-3.2 10.5 45 45 0 0 0-.8 11c.2 3.5.6 7.2 1 10.8.5 3.8 1.8 7.3 2.9 10.7l.3 1.2c.1-.1.1 0 0 0h-1c-.4 0-.2 1.4-.2.9l.4.3h.1l.8.1h1.4l1.2.1 4.2.4c.9-.1 1.7.3 2.8.2h.1l.2-.1.2-.3v-1.9l.2-.6c.2-1.8.4-3.6 1-5.3a14.4 14.4 0 0 1 4.5-6.4l1.6-1c1.3 4.6 3.4 9 5.8 13l2.5 3.8 1.5 1.8.7 1c.2.3.2.2-.2.4l-2 .7-1.2.3-.1.1-.1.1v.5l.4.6c.6.5 1.4.6 2.1.7.4.2.8.2 1.3.2l.1 1.6-5 .4c-1.5 0-3.2.2-5 0-.4 0-1.4-.2-1.8.2-.6.7.9 1.4 1.2 1.6 1.7.8 4 1.3 5.9 1.6 3.1.3 6-1.4 8.9-1.8.2 0 .8.7.9.9.6.4 1.7.5 2.6.3 2.2-.5.7-1.8-.4-2.5a8 8 0 0 0-3-1l.2-1.1h6.9c.5 0 1.1 0 1.8-.2v-.2c.2 0 .2-.2.2-.2v-.2l-.1-.5-.2-.8c-.3-1-.4-2.2-.5-3.3a37 37 0 0 1 1-13.7c2.3-8.9 7.1-16.9 10.5-25.5 1.6-4.4 3-8.8 4.4-13.2 1.2-4.5 2.6-9 3.4-13.5a47.6 47.6 0 0 0-.7-20.9zm-85.4-.3l-.6 1.1.6-1.1zm.2-1l.1-.3v.4zm-8-20.7l-1-.5c.3 0 .6.3 1 .5zm10.3 27c-.1 0-.1 0 0 0 .2-.1.3-.4.4-.6.3-.2.4-.6.6-.9l.1-.2.3-.7c.6.9 1 2 1.5 2.8l-3-.3c.2-.1.3-.2.4-.5-.2.1-.2.3-.3.5zm.2 7.7l.1-.3-.1.3zm3.5-6.2l.3-1c0 .4-.2.7-.3 1l-.3-.6c-.2-.1-.2-.4-.3-.5l1 .1h.2l-.5 1.3-.1-.3z"/><path fill="#E6E6E6" fill-rule="nonzero" d="M112.9 282.2l-82.1-10.6-30.8 9 118.6 16s-4.2-12.8-3.1-15.6m227.3-6.2l.6 3c.1.6-.2 1.2-.8 1.4-.5.2-1.2-.3-1.3-.8l-.1-.4-.7 1c-.2.4-.6.6-1 .6-.3 0-.8-.2-1-.6l.2 3c0 .7-.6 1.2-1.1 1.2-4.5-.3-9 1-13.5 0-1-.2-1.2-1.6-.3-2 .7-.3 1.6-.8 1.7-1.7.1-.6-.2-1.2-.4-1.8l-1.5-2.8-40.4.3a69 69 0 0 1-7 25.3c-3 6.7-7.1 14-12.3 22.2-11.8 19.2-62.2 36-99 18-4.7-2.3-9.3-4.7-13.7-7.5a99 99 0 0 1-20-15.4 46.7 46.7 0 0 1-4.9-5.7c-.6-.7-1-1.5-1.5-2.3a4 4 0 0 1-.4-1.8 3.3 3.3 0 0 0-2.4-2.5 9.9 9.9 0 0 0-4 .1 44.7 44.7 0 0 0-18.7 9.2 22.7 22.7 0 0 0-7.8 10.6l-1.2 3.9c-.5 1.1-.5 2.6-.5 3.8.1 2.6 1.1 5.2 2.6 7.4a27 27 0 0 0 9.5 8c14 8 30.7 10.3 47 11.8 18.2 1.6 36.7 2.2 54.8-.8a115 115 0 0 0 32.8-10.5 82 82 0 0 0 14.5-9.3c2.3-1.8 4.5-3.2 6.7-5.1 2.2-2 4.3-4 6.3-6.2a50.5 50.5 0 0 0 12.7-22.9l113-31-47 .3z"/><g fill="#CADDE0" fill-rule="nonzero" transform="translate(29.3 106)"><path d="M117.9.2V2c0 4.3 0 8.6-.2 12.9v35.4c0 1.7-1.5 2.5-2.9 3.1a45 45 0 0 0-19 12.2 30.6 30.6 0 0 0-5.4 19.8c0 .6 0 1.3-.4 2l-.6.5c-1 .4-2 1-3 1.6l-6 3.3c-.2.1-2 1-2 1.3V21.3l38.1-21h1.4z"/><polygon points=".3 88.6 .3 14.1 1.9 14.1 71 20.5 72.6 19.6 72.6 92.3 67.9 95"/></g><path fill="#CADEED" fill-rule="nonzero" d="M275.4 265c.6 24.6-9.2 48.9-26.3 61.9-31.3 23.7-83.1 20.5-113.4-10.4-18.6-19-20.8-47.1-16.5-71.4 1.7-9 4.6-17.5 6-26.5.4-3.6 1.6-7.5-.4-11h.4c6.3 10 21.2 13.2 32 16 23.4 5.9 63.3 7.7 86-1.8 8.4-3.5 17-7.2 22.4-14.2-1.7 10.4 9.5 44.6 9.7 57.5zm-11.6-92.3l1.3-1.1c-12.4-9-36.5-15-64.2-15-40.2 0-72.9 12.7-72.9 28.5 0 2.6 1 5.2 2.6 7.6l.3-.3c3.4-6.7 12.4-9 19-11.3a73 73 0 0 1 19.5-4.9c10.4-.8 21 1 31.5 0 5.7-.6 11-2 16.7-3 6.6-1.2 14-.8 21 .9v-.3c3.6-.2 6.7.5 10.2 1.2 3 .5 7 1 11 2.2 1-1.7 2.5-3.1 4-4.5z"/><g transform="translate(29.3)"><g fill-rule="nonzero" transform="translate(0 6.8)"><g fill="#4F8E99" opacity="0.3" transform="translate(0 99.2)"><path d="M117.9.2V2c0 4.3 0 8.6-.2 12.9v35.4c0 1.7-1.5 2.5-2.9 3.1a45 45 0 0 0-19 12.2 30.6 30.6 0 0 0-5.4 19.8c0 .6 0 1.3-.4 2l-.6.5c-1 .4-2 1-3 1.6l-6 3.3c-.2.1-2 1-2 1.3V21.3l38.1-21h1.4z"/><polygon points=".3 88.6 .3 14.1 1.9 14.1 71 20.5 72.6 19.6 72.6 92.3 67.9 95"/></g><path fill="#5093C4" d="M34.5 10.4c.4 1.4.5 2.8.5 4.2a14 14 0 0 1-.5 4.4c-.5-1.3-.6-2.8-.6-4.3 0-1.4.1-2.8.6-4.2zm9.4 0c.5 1.4.5 2.8.5 4.2 0 1.5-.2 2.9-.7 4.3-.4-1.4-.4-2.8-.4-4.3 0-1.4 0-2.8.6-4.2zM44.2.2c.4.7.5 1.4.5 2 0 .6 0 1.2-.5 1.9-.5-.7-.6-1.4-.6-2-.1-.5 0-1.2.6-1.9zm10 12c.6 1.3.8 2.7.9 4.1.1 1.4.1 2.9-.2 4.3-.6-1.3-.8-2.7-1-4.1 0-1.5 0-2.9.3-4.3zM54 1.5c.4.6.5 1.2.5 1.9s0 1.2-.5 1.9a3 3 0 0 1-.6-2c0-.6.1-1.2.6-1.8zm10.1 11c.5 1.6.6 3.2.6 4.6 0 1.6-.1 3.2-.6 4.6-.4-1.5-.6-3.1-.6-4.6.2-1.6.2-3.1.6-4.6zm10.2 0c.4 1.7.5 3.4.6 5 0 1.8 0 3.5-.4 5.1-.5-1.6-.6-3.3-.7-5 0-1.7 0-3.4.5-5zm8.7.8c.4 1.6.4 3.2.3 4.7a16 16 0 0 1-1 4.6 18.3 18.3 0 0 1 .8-9.3zm8.5.7a14.8 14.8 0 0 1-.9 7.8c-.3-1.4-.2-2.8-.1-4 0-1.3.3-2.6 1-3.8z"/></g><g fill-rule="nonzero" transform="translate(86.8 153.2)"><path fill="#FFF" d="M78.2 29.3l.3-.1m15-7.8l.4-.1m66.8 18c-7.2 14.3-38.4 25.3-75.9 25.3-42.7 0-77.4-14.2-77.4-31.8S42.1 1 84.8 1c28.9 0 54 6.4 67.3 16m5 17.7C153.6 49 122.7 60.2 85 60.2c-40 0-72.6-12.8-72.6-28.3C12.4 16.2 44.8 3.6 85 3.6c27.9 0 52.1 6.2 64.3 15.2M8.9 26.4a23.2 23.2 0 0 0-2.7 9 31 31 0 0 0 .2 7.2c2.8 16.8 23.2 21.4 37.3 25 25 6.3 67.3 8.2 91.4-2 11.8-4.9 23.9-10 28.3-23.2M9.2 50.7c2 3.7.8 7.7.4 11.6-1.3 9.5-4.3 18.6-6.1 28-4.7 26-2.5 55.7 17.3 76 32.2 32.8 87.4 36.3 120.6 11 18.1-13.7 28.5-39.6 28-65.6-.4-14.3-13.3-53.7-10-62.5"/><g fill="#5093C4"><path d="M78.2 29.3l-.1-.6.1.1.2.5v.6c.1-.2 0-.3-.2-.6zm15.3-7.9v-.7l.4.5v.5c-.2 0-.3-.2-.4-.3z"/><path d="M160.7 39.2c-1.6 3.2-4 5.8-6.7 7.9-2.7 2.1-5.6 4-8.6 5.6a92 92 0 0 1-19.5 7.2 169 169 0 0 1-41.2 5c-13.8 0-27.7-1.4-41.2-4.8-6.8-1.7-13.3-4-19.5-7.3a52 52 0 0 1-8.8-5.6 24.8 24.8 0 0 1-6.7-8.1 14.1 14.1 0 0 1 0-13L10 24c1-1.5 2.2-2.8 3.5-4 5.2-5 11.5-8 18-10.5s13.1-4.3 20-5.7a182.5 182.5 0 0 1 62-.7 122.6 122.6 0 0 1 29.8 8.8 63.3 63.3 0 0 1-9.8-3.6c-6.5-2.1-13.3-3.6-20.2-4.7a187.1 187.1 0 0 0-61.7 1C44.7 6 38 7.7 31.7 10.1A55.3 55.3 0 0 0 14 20.5a25.6 25.6 0 0 0-3.3 3.8 20.3 20.3 0 0 0-2.1 4.5 13 13 0 0 0 .9 9.7c1.4 3 3.7 5.7 6.4 7.8 2.6 2.2 5.5 4 8.6 5.5 6 3.2 12.6 5.4 19.2 7.2 13.3 3.5 27.2 4.9 41 5a168 168 0 0 0 41-4.7 93.6 93.6 0 0 0 19.6-7c3-1.6 6-3.4 8.7-5.5 2.6-2 5-4.4 6.6-7.6z"/><path d="M157.2 34.7a17 17 0 0 1-5.3 8.1c-2.4 2.3-5.2 4-8 5.7-5.8 3.1-12 5.2-18.3 7a174 174 0 0 1-77.9 1.1 91 91 0 0 1-18.6-6.1c-3-1.4-5.9-3-8.6-5a25 25 0 0 1-6.9-7.2 14 14 0 0 1-1.7-4.7 14 14 0 0 1 .4-5c1-3.4 3.1-6 5.6-8.3 5-4.4 11-7.2 17.3-9.5a110 110 0 0 1 19-5 181.4 181.4 0 0 1 58.6-.3 138 138 0 0 1 19 4.6 61.8 61.8 0 0 1 17.5 8.7 60 60 0 0 0-17.6-8.3c-6.2-2-12.6-3.4-19-4.4a180.6 180.6 0 0 0-58.4.7C48 8 41.6 9.6 35.5 11.8c-6 2.3-12 5.1-16.8 9.4a17.5 17.5 0 0 0-5.3 7.8 10 10 0 0 0-.3 4.6c.2 1.6.8 3 1.5 4.4 1.6 2.7 4 5 6.6 6.8 2.6 2 5.4 3.5 8.3 4.9 5.9 2.7 12.2 4.6 18.5 6.2 12.6 3 25.7 4.2 38.8 4 13 0 26-1.4 38.6-4.7a86.6 86.6 0 0 0 18.3-6.7c2.9-1.6 5.6-3.3 8-5.6a18 18 0 0 0 5.5-8.2z"/><path d="M8.9 26.4a24.9 24.9 0 0 0-2 17.7l.4 1.4L8 47c.2.4.3.9.6 1.3l.7 1.3c2 3.5 5.2 6.2 8.6 8.3 3.4 2.1 7.1 3.7 11 5C32.5 64 36.4 65 40.4 66l5.8 1.5 6 1.2a193.2 193.2 0 0 0 48.3 3 132.4 132.4 0 0 0 29.9-5.1c1.9-.7 3.8-1.3 5.6-2.1a156 156 0 0 0 11-5.1c3.7-2 7-4.2 9.9-7.1 2.8-3 5-6.4 6.3-10.3a29.7 29.7 0 0 1-6.1 10.5 38 38 0 0 1-9.7 7.3c-3.6 2-7.3 3.6-11 5.3l-5.8 2.3-5.9 1.7c-7.8 2-16 3-24 3.5a221.2 221.2 0 0 1-48.7-3l-6-1.2-6-1.5c-4-1-7.9-2.1-11.7-3.5a55 55 0 0 1-11-5.1 27.5 27.5 0 0 1-8.7-8.6l-.8-1.3-.6-1.5-.5-1.5-.4-1.4c-.3-2-.6-4-.6-6C6 34 7 30 9 26.4z"/><path d="M9.2 50.7c1 1.8 1.3 4 1.2 6-.1 2-.6 4-.8 6-.6 4.1-1.4 8-2.3 12L4.5 86.5l-1.1 6-.5 3-.3 3c-1 8-1.1 16.3-.3 24.3.7 8 2.5 16 5.8 23.5a63.3 63.3 0 0 0 13.4 20c2.8 2.8 6 5.5 9.1 8a98.2 98.2 0 0 0 56.6 19 88 88 0 0 0 46.5-11.4A60.5 60.5 0 0 0 152 166c5-6.3 8.8-13.6 11.6-21.2a87.7 87.7 0 0 0 5.3-35.8c-.3-4-1.1-8-2-12-1.5-8-3.4-15.9-5.1-23.9l-2.3-11.9-.6-6a15.8 15.8 0 0 0 .1 0 203.4 203.4 0 0 0 3 18c1.8 7.8 3.7 15.7 5.4 23.7.8 4 1.6 8 2 12 .4 4.1.2 8.2 0 12.4a96 96 0 0 1-5.1 23.8c-2.8 7.7-6.6 15-11.6 21.4a57.3 57.3 0 0 1-18.5 16 90 90 0 0 1-47 11.9A99 99 0 0 1 30.1 175a66.6 66.6 0 0 1-22.8-28.4c-3.2-7.6-5-15.6-5.8-23.7a111 111 0 0 1 .4-24.4l.5-3 .4-3.1 1.1-6 3-11.8c1-4 1.9-7.9 2.5-12 .2-2 .6-4 .7-6 .3-2 0-4-.9-5.9z"/></g><path fill="#5093C4" d="M14.3 75.8l2.7 1.8c.4.4.9.6 1.3.8l1.5.7a114.9 114.9 0 0 0 18.7 6.2c4.2 1.1 8.6 2 12.8 2.7l6.6 1 6.5 1-6.5-.4-6.6-.7a95.3 95.3 0 0 1-25.6-6.4l-3-1.3-3-1.3-1.5-.8-1.3-.9-2.6-2.4zm84.2 15.4l.6-.5.4-.1.5-.1c.3 0 .5.1.7.3-.1.2-.2.5-.4.6l-.5.2h-.7l-.5-.4zm17.8-1.5c.2-.5.5-.6.7-.7.3 0 .6 0 1 .4 0 .5-.4.6-.7.7-.4 0-.7 0-1-.4z"/><path fill="#5093C4" d="M15.4 39.1c1.4-2.7 3.8-5 6.3-6.4a46 46 0 0 1 8.4-3.7c3-1 5.7-2.2 8.5-3a50.3 50.3 0 0 1 18-3.5c3-.2 6 0 9 0 6.2.3 12.3.6 18.3.1 6-.4 12-2 18-3.1a53 53 0 0 1 35.2 7.3 13 13 0 0 1 5.2 7.5c.3 1.4.3 3 0 4.6-.3 1.4-1 2.9-1.8 4.1a11 11 0 0 0 1.6-8.6 13 13 0 0 0-5.3-7.1c-1.3-1-2.6-1.6-4-2.3-1.3-.7-2.8-1.2-4.1-1.7a56 56 0 0 0-26.8-2.8c-6 1-11.9 2.7-18 3.2-12.4 1-24.5-1.7-36.5.5-2.9.6-5.8 1.4-8.8 2.3-2.9.9-5.7 2-8.6 3-3 1-5.8 1.8-8.5 3.4a17.8 17.8 0 0 0-6 6.2z" opacity="0.46"/><path fill="#5093C4" d="M122.5 20.7a17 17 0 0 1 5.5 0c1.8.1 3.7.5 5.4.8 3.6.7 7.2 1.4 10.7 2.8-3.6-.5-7.2-1-11-1.7-3.4-.7-6.9-1.6-10.6-1.9zM95.8 37.2c0-.1.3-.1.4.1l.4.5c0 .3 0 .6-.3 1-.4.5-1 1-1.7 1.2-1.3.5-2.9.1-4.1-.6a3 3 0 0 1-1.4-1.6c-.2-.8.1-1.6.6-2.2 1-1.1 2.5-1.7 3.8-2a31.5 31.5 0 0 1 18.8 1.4l2 .8a7 7 0 0 1 1.9 1.3c.5.4 1 1.1 1.3 1.9.7 1.3.8 3 0 4.5a8 8 0 0 1-3.1 3 51.2 51.2 0 0 1-16.5 3.8c-2.8.2-5.6.2-8.4.2l-8.5-.1a49 49 0 0 1-16.6-3.2l-1.9-.8c-.7-.3-1.2-.5-1.9-1a13 13 0 0 1-3-3c-.8-1.3-1.5-2.6-1.4-4.2.1-1.5 1.2-2.8 2.2-3.7 1-1 2.3-1.7 3.6-2.3l4-1.4c2.6-.8 5.4-1.3 8.3-1.3a29.5 29.5 0 0 0-15.5 5.4c-1 1-1.8 2-2 3.4 0 1.4.5 2.6 1.3 3.7a9.6 9.6 0 0 0 2.8 2.8c.6.4 1.3.6 1.8 1l2 .7a40 40 0 0 0 8 2.2c2.7.4 5.5.7 8.2.8h16.7a49.8 49.8 0 0 0 16-3.6 7 7 0 0 0 2.8-2.6 5 5 0 0 0 0-3.6c-.5-1.3-1.5-2-2.7-2.6l-2-1-1.9-.7c-5.1-1.8-10.9-2-16.3-1-1.3.3-2.7.6-3.6 1.7a2 2 0 0 0-.6 1.8c.2.6.6 1 1.2 1.4 1 .7 2.6 1.2 4 .7.6-.2 1.2-.7 1.6-1.1.2-.2.3-.6.2-1 0 0 0-.3-.2-.4 0-.3-.1-.3-.3-.3z" opacity="0.46"/></g><g fill="#1D1D1B" fill-rule="nonzero" transform="translate(86.8 153.2)"><path d="M160.7 39.2c-1.6 3.2-4 5.8-6.7 7.9-2.7 2.1-5.6 4-8.6 5.6a92 92 0 0 1-19.5 7.2 169 169 0 0 1-41.2 5c-13.8 0-27.7-1.4-41.2-4.8-6.8-1.7-13.3-4-19.5-7.3a52 52 0 0 1-8.8-5.6 24.8 24.8 0 0 1-6.7-8.1 14.1 14.1 0 0 1 0-13L10 24c1-1.5 2.2-2.8 3.5-4 5.2-5 11.5-8 18-10.5s13.1-4.3 20-5.7a182.5 182.5 0 0 1 62-.7 122.6 122.6 0 0 1 29.8 8.8 63.3 63.3 0 0 1-9.8-3.6c-6.5-2.1-13.3-3.6-20.2-4.7a187.1 187.1 0 0 0-61.7 1C44.7 6 38 7.7 31.7 10.1A55.3 55.3 0 0 0 14 20.5a25.6 25.6 0 0 0-3.3 3.8 20.3 20.3 0 0 0-2.1 4.5 13 13 0 0 0 .9 9.7c1.4 3 3.7 5.7 6.4 7.8 2.6 2.2 5.5 4 8.6 5.5 6 3.2 12.6 5.4 19.2 7.2 13.3 3.5 27.2 4.9 41 5a168 168 0 0 0 41-4.7 93.6 93.6 0 0 0 19.6-7c3-1.6 6-3.4 8.7-5.5 2.6-2 5-4.4 6.6-7.6z"/><path d="M157.2 34.7a17 17 0 0 1-5.3 8.1c-2.4 2.3-5.2 4-8 5.7-5.8 3.1-12 5.2-18.3 7a174 174 0 0 1-77.9 1.1 91 91 0 0 1-18.6-6.1c-3-1.4-5.9-3-8.6-5a25 25 0 0 1-6.9-7.2 14 14 0 0 1-1.7-4.7 14 14 0 0 1 .4-5c1-3.4 3.1-6 5.6-8.3 5-4.4 11-7.2 17.3-9.5a110 110 0 0 1 19-5 181.4 181.4 0 0 1 58.6-.3 138 138 0 0 1 19 4.6 61.8 61.8 0 0 1 17.5 8.7 60 60 0 0 0-17.6-8.3c-6.2-2-12.6-3.4-19-4.4a180.6 180.6 0 0 0-58.4.7C48 8 41.6 9.6 35.5 11.8c-6 2.3-12 5.1-16.8 9.4a17.5 17.5 0 0 0-5.3 7.8 10 10 0 0 0-.3 4.6c.2 1.6.8 3 1.5 4.4 1.6 2.7 4 5 6.6 6.8 2.6 2 5.4 3.5 8.3 4.9 5.9 2.7 12.2 4.6 18.5 6.2 12.6 3 25.7 4.2 38.8 4 13 0 26-1.4 38.6-4.7a86.6 86.6 0 0 0 18.3-6.7c2.9-1.6 5.6-3.3 8-5.6a18 18 0 0 0 5.5-8.2z"/><path d="M8.9 26.4a24.9 24.9 0 0 0-2 17.7l.4 1.4L8 47c.2.4.3.9.6 1.3l.7 1.3c2 3.5 5.2 6.2 8.6 8.3 3.4 2.1 7.1 3.7 11 5C32.5 64 36.4 65 40.4 66l5.8 1.5 6 1.2a193.2 193.2 0 0 0 48.3 3 132.4 132.4 0 0 0 29.9-5.1c1.9-.7 3.8-1.3 5.6-2.1a156 156 0 0 0 11-5.1c3.7-2 7-4.2 9.9-7.1 2.8-3 5-6.4 6.3-10.3a29.7 29.7 0 0 1-6.1 10.5 38 38 0 0 1-9.7 7.3c-3.6 2-7.3 3.6-11 5.3l-5.8 2.3-5.9 1.7c-7.8 2-16 3-24 3.5a221.2 221.2 0 0 1-48.7-3l-6-1.2-6-1.5c-4-1-7.9-2.1-11.7-3.5a55 55 0 0 1-11-5.1 27.5 27.5 0 0 1-8.7-8.6l-.8-1.3-.6-1.5-.5-1.5-.4-1.4c-.3-2-.6-4-.6-6C6 34 7 30 9 26.4z"/><path d="M9.2 50.7c1 1.8 1.3 4 1.2 6-.1 2-.6 4-.8 6-.6 4.1-1.4 8-2.3 12L4.5 86.5l-1.1 6-.5 3-.3 3c-1 8-1.1 16.3-.3 24.3.7 8 2.5 16 5.8 23.5a63.3 63.3 0 0 0 13.4 20c2.8 2.8 6 5.5 9.1 8a98.2 98.2 0 0 0 56.6 19 88 88 0 0 0 46.5-11.4A60.5 60.5 0 0 0 152 166c5-6.3 8.8-13.6 11.6-21.2a87.7 87.7 0 0 0 5.3-35.8c-.3-4-1.1-8-2-12-1.5-8-3.4-15.9-5.1-23.9l-2.3-11.9-.6-6a15.8 15.8 0 0 0 .1 0 203.4 203.4 0 0 0 3 18c1.8 7.8 3.7 15.7 5.4 23.7.8 4 1.6 8 2 12 .4 4.1.2 8.2 0 12.4a96 96 0 0 1-5.1 23.8c-2.8 7.7-6.6 15-11.6 21.4a57.3 57.3 0 0 1-18.5 16 90 90 0 0 1-47 11.9A99 99 0 0 1 30.1 175a66.6 66.6 0 0 1-22.8-28.4c-3.2-7.6-5-15.6-5.8-23.7a111 111 0 0 1 .4-24.4l.5-3 .4-3.1 1.1-6 3-11.8c1-4 1.9-7.9 2.5-12 .2-2 .6-4 .7-6 .3-2 0-4-.9-5.9z"/></g><g transform="translate(228.7 146.5)"><path fill="#5093C4" fill-rule="nonzero" d="M50 29.7c-.8-.3-1.2-1-1.5-1.8-.4-.7-.5-1.4-.8-2.2A17 17 0 0 1 47 21 13.5 13.5 0 0 1 58.9 7.8a11 11 0 0 1 4.8.4l1 .5c.4.2.8.4 1 .8.6.5.9 1.2 1.5 1.8-.7-.5-1.2-1.2-1.7-1.6-.3-.2-.6-.5-1-.6l-1-.3a7.9 7.9 0 0 0-4.3-.2 14 14 0 0 0-7.7 4.2A14 14 0 0 0 48 21c-.1 1.4-.1 3 .2 4.5.5 1.5.5 3.2 1.7 4.2z"/><path fill="#5093C4" fill-rule="nonzero" d="M49.7 30c-.2.3-.7.4-1.1.4-.5 0-.8-.3-1.2-.5l-1.8-1.7c-1-1.4-1.5-3-1.8-4.7-.4-3.2 0-6.6 1-9.6 1.2-3 3-6 5.9-7.8 1.5-1 3-1.6 4.4-2l2.4-.6 1.2-.1c.5 0 1 0 1.1.3a1 1 0 0 0-1.1 0 4 4 0 0 0-1.1.1l-2.3.8a15.4 15.4 0 0 0-9.5 9.7c-1 3-1.4 6-1.2 9.2a8.9 8.9 0 0 0 3 6.2c.4.3.6.5 1 .6.3 0 .8-.1 1-.3z"/><path fill="#5093C4" fill-rule="nonzero" d="M50.4 29.7a3 3 0 0 1-1-1.9 18.1 18.1 0 0 1-.3-6.4A14.1 14.1 0 0 1 60.6 9.6c1.4-.2 2.8-.1 4.3.2 1.4.5 2.7 1.2 3.4 2.6a5.6 5.6 0 0 0-3.5-2 9 9 0 0 0-4 0c-2.8.5-5.1 2-7 4a14.2 14.2 0 0 0-4.1 11.2c-.3 1.4-.3 3 .6 4.1zM32 27.5v3l.2 2.7.5 2.9c.2.9.4 1.8.8 2.8a6.1 6.1 0 0 1-1.7-2.5 12.3 12.3 0 0 1-.7-6c.1-1 .3-2 .9-3z"/><path fill="#0D2A3E" fill-rule="nonzero" d="M41 128.3c-2.7 2-7 2.2-10.1 2.5-1 .1-3.6 0-4.3 1-.7 1 1.1 1.4 1.8 1.5 2.1.4 4.5.4 6.6.1 3.2-.4 5.6-1.7 8.3-3 .2 0 0 .4 0 .6l.5.8c.6.8 1.7 2 2.8 1.5 1.2-.5 1-2.8.4-3.6-1-1.4-3.5-1.8-5-1.6m27.3 9l-5.3.4a36 36 0 0 1-5 0c-.4 0-1.4-.3-1.9.2-.5.7 1 1.3 1.3 1.6 1.7.8 4 1.3 5.8 1.5 3.2.4 6-1.3 9-1.8.2 0 .7.8.8 1 .7.4 1.7.5 2.6.3 2.3-.5.8-1.8-.3-2.5-2-1.1-4.2-1.2-6.4-1.2M20.7 12.4l2 3.7 1 1.8c.4.7.6 1.3 1 1.8-.7-.2-1.3-.8-1.7-1.3-.5-.6-1-1.2-1.3-1.8a7.2 7.2 0 0 1-1-4.2zM19.6 43c-.8.8-2.2 1.2-3.4.8-1.2-.4-2.2-1-3.2-.9-1 .1-1.6 1.2-2.4 2.2-.3.4-1 1-1.8 1.1-.8.1-1.6-.5-2-.9a5.7 5.7 0 0 1-1.3-3.7c0-1.3 0-2.5.4-3.7a11.6 11.6 0 0 1 4-6 13.4 13.4 0 0 0-3.3 6c-.2 1.2-.2 2.3 0 3.5 0 1 .4 2.2 1 3 .3.3.6.6 1 .6s.9-.4 1.2-.8l1.2-1.4c.5-.4 1.2-.9 1.8-.9 1.5-.1 2.5.8 3.5 1.3 1 .6 2.3.5 3.3-.3z"/><path fill="#0D2A3E" fill-rule="nonzero" d="M7.9 29.4A11 11 0 0 0 4.3 33c-1 1.4-1.6 3-1.8 4.5V40c0 .8.4 1.6.7 2.4a5 5 0 0 0 1.3 1.9c.6.5 1.5.5 2.3 0a2 2 0 0 1-2.6.5 5.5 5.5 0 0 1-2-2l-1-2.6a6 6 0 0 1 0-2.8c.4-1.8 1-3.5 2.3-5 1.1-1.2 2.7-2.3 4.4-2.9z"/><path fill="#0D2A3E" fill-rule="nonzero" d="M2.1 37.5c-.3 0-.6 0-1-.2a1 1 0 0 1-.4-1v-2A10 10 0 0 1 2 30.4c1.6-2.2 3.5-4.4 6-5.7 2.5-1.5 5.5-1.8 8.2-1.3a15.4 15.4 0 0 1 10 7.4 96 96 0 0 0 2 3.5 13 13 0 0 0 6.3 4.7c2.5.9 5.3 1.2 7.8.3 1.2-.4 2.5-.9 3.6-1.7 1-.8 1.9-1.9 2.8-2.9-.8 1.1-1.5 2.3-2.6 3.2l-1.8 1c-.6.4-1.3.6-2 .9-1.2.4-2.6.8-4.1.7a14 14 0 0 1-11-5.7l-2-3.6a16 16 0 0 0-2.6-3.1 12.3 12.3 0 0 0-14.4-2.8 19.1 19.1 0 0 0-6 5.3c-.7 1-1 2.4-1.3 3.8l-.2 2c0 .3 0 .7.3.9l1.1.2z"/><path stroke="#5093C4" d="M67 10.5a21 21 0 0 0-13.6-9.3C46 0 39 6 37 13"/><path fill="#0D2A3E" fill-rule="nonzero" d="M17 44c1.7 1.4 2.6 3.5 3.5 5.5 1 1.9 2 3.7 3.6 5.3 3 3 7 5 11 6 2 .5 4.2.7 6.4.8l3.1.3 3.2-.3c4.1-.6 8.3-2 11.7-4.5 6.9-4.8 11-13.2 11.7-21.6.1-2.1 0-4.3 0-6.4a61.3 61.3 0 0 0-1.6-12.8c-.5-2-1.3-4-2.4-5.8a24 24 0 0 1 2.8 5.8 44.2 44.2 0 0 1 2 12.8c0 2.1.2 4.3.1 6.4a28.4 28.4 0 0 1-7 18 26.8 26.8 0 0 1-17 9.1l-3.3.2c-1-.2-2.1-.2-3.2-.3a32 32 0 0 1-6.4-1A24.6 24.6 0 0 1 23.9 55a12 12 0 0 1-2-2.6l-1.5-3c-1.1-1.7-1.8-3.9-3.4-5.3z"/><path fill="#5093C4" fill-rule="nonzero" d="M14.8 23.7c-.4-1-.2-2 .2-3a11.8 11.8 0 0 1 3.6-4.7c.8-.6 2-.9 3-.8a5 5 0 0 0-2.4 1.5c-.7.7-1.3 1.3-1.8 2.1-.6.8-1.2 1.6-1.6 2.4-.5.7-1 1.4-1 2.5zM55.7 2c1.3 0 2.8.1 4.1.4 1.4.2 2.7.3 4 .6a35.8 35.8 0 0 1 14.9 7.6 36.8 36.8 0 0 1 8.7 8.9l2.4 3.5a20 20 0 0 1 3 7.9 29.7 29.7 0 0 1-2.1 12.4c-.6 1.4-1 2.7-1.7 4a46.4 46.4 0 0 1-9.9 13.2c-4 4-8.7 7.1-13.7 9.5a39 39 0 0 1-8 2.6c-2.8.5-5.6.8-8.4.4-2.8-.3-5.5-1.6-7.3-3.7l-1.1-1.7c-.3-.7-.6-1.2-.8-2-.5-1.1-1.4-2.4-1.4-3.9.1 1.5 1 2.6 1.5 3.9.2.7.6 1.2.9 1.9.3.6.8 1.1 1.2 1.7 1.8 2 4.5 3.1 7.2 3.4a31.8 31.8 0 0 0 15.9-3.4c9.8-5 18.2-12.9 23.1-22.7a40.3 40.3 0 0 0 3-7.7 18.5 18.5 0 0 0-2-15.5 58.7 58.7 0 0 0-4.7-6.6A47.1 47.1 0 0 0 64.1 3.2c-1.3-.4-2.7-.6-4-.8-1.6-.1-3-.5-4.4-.4z"/><path fill="#4F8E99" fill-rule="nonzero" d="M46.2 72.7a13.5 13.5 0 0 0-3.3 4.3c-.8 1.5-1.4 3.3-2 5a55.3 55.3 0 0 0-2.8 10.5c-1.4 7.1-.5 14.4.3 21.6.5 3.5 1.7 7 2.7 10.5.1.5.4 1 .4 1.5l-.1.7c-.3.3-.5.3-.6.3l-.8.1h-.1c.4-.1.1-1.3.2-.8h2l5.4.5c1 0 2 .4 2.6.3h.2l-.2.1v-1.6l.2-.6a15.7 15.7 0 0 1 4.2-10.1c.6-.6 1.2-1.3 2-1.8.7-.4 1.6-.7 2.3-1.3-.7.6-1.6 1-2.2 1.5-.8.4-1.4 1-2 1.8-1 1.3-2 2.9-2.5 4.6-.6 1.7-.8 3.5-1 5.3l-.2.6v1.8l-.2.4-.2.1h-.1c-1.2.1-2-.3-2.9-.2l-5.4-.5H40a.9.9 0 0 1-.5-.3v-.1c0 .5-.3-.8.2-.8h.4l.6-.1s0-.1 0 0c0-.4-.2-.8-.4-1.2-1-3.4-2.3-7-2.9-10.7-.3-3.6-.8-7.3-.9-10.9a45.7 45.7 0 0 1 4-21.4c.6-1.7 1.3-3.4 2.2-5 1-1.5 2-3 3.5-4.1z"/><path fill="#4F8E99" fill-rule="nonzero" d="M63.2 73.1L60.7 77c-.8 1.2-1.4 2.7-2 4a38 38 0 0 0-2 9c-.5 2.8-.2 5.9 0 9 .5 3 .9 6 1.6 9 1.2 6 3.4 11.5 6.5 16.8l2.4 4c.3.7.9 1.1 1.3 1.8l.7 1c.1.2.2.3.2.8-.1.3-.4.4-.6.6-.7.3-1.5.4-2.2.5l-1.1.2c-.1 0-.1.2-.1 0v.3s0 .3.2.4c.4.6 1.2.8 2 1H70h-2.3c-.8 0-1.6-.2-2.1-.8l-.4-.5v-.6h.1l1.2-.4 2.1-.7c.3-.2.3-.1.1-.5l-.7-.9c-.4-.5-1-1-1.4-1.8l-2.5-3.8a55 55 0 0 1-8.3-26.1 29 29 0 0 1 0-9.3c.5-3 1-6 2.3-8.9 1.4-3.1 3.4-5.6 5.2-8zM97 37.4a32.7 32.7 0 0 1 4.5 13.1c.6 4.6.1 9.3-.7 13.8-.7 4.7-2.1 9-3.3 13.6L93 91c-3.4 8.7-8.3 16.7-10.6 25.6-1.1 4.4-1.5 9-1 13.7l.5 3.3.3.8v.9l-.2.1c-.6.4-1.2.3-1.8.3-2.2-.2-4.6 0-6.8 0 2.3-.2 4.6-.3 7-.3.5 0 1.2 0 1.5-.2v-.7l-.3-.8c-.2-1.2-.5-2.2-.6-3.4-.6-4.7-.4-9.4.6-14 1-4.5 3-8.8 4.8-13A178.9 178.9 0 0 0 100 64.2c1-4.5 1.4-9.1 1-13.6-.2-2.3-.4-4.6-1-6.8-.8-2.2-1.9-4.4-3-6.4z"/><path fill="#0D2A3E" fill-rule="nonzero" d="M92 29.4a18.7 18.7 0 0 1 5 8 18.5 18.5 0 0 1-3-3.7c-.7-1.2-1.5-2.7-2-4.3z"/></g><g transform="translate(243.4 127.3)"><g fill="#0D2A3E" fill-rule="nonzero"><path d="M4.2 28.4L2 29h-.9c0-.2 0-.2-.2-.3-.2-.3-.3-.8-.3-1L.3 23c0-3 .2-6 .8-9.1C1.7 11 3 8 5 5.6c1-1 2.1-2.1 3.5-3 1.3-.8 2.8-1.1 4.2-1.6l-4 2c-1 1-2.2 2-3 3a19.3 19.3 0 0 0-3.4 8c-.6 3-.8 6-1 9-.2 1.5 0 3-.2 4.5 0 .3 0 .7.3 1 0 .1 0 .2.2.2H2l2-.3z"/><path d="M6.2 9.5c-.1-1 .2-1.8.8-2.6.4-.8 1.1-1.5 1.9-2a8 8 0 0 1 2.4-1.3c.9-.3 1.8-.4 2.7-.4a28.2 28.2 0 0 0-6.2 4.1C7 8 6.6 8.6 6.2 9.5zm1.9.6A3 3 0 0 1 9 8.6a6 6 0 0 1 4.5-2.2l-2.6 2L8.1 10zm1.6 2.5a4.7 4.7 0 0 1 2.5-2.8c1.1-.6 2.3-.8 3.6-.7l-3.2 1.6-3 2zM12 12l.7 1.6 1 1.5 1.6 3c-.5-.2-1.1-.5-1.6-1l-1-1.4c-.4-.6-.6-1.2-.8-1.7 0-.7-.2-1.4 0-2z"/><path d="M13.9 22c-.3-.3-.4-.7-.4-1l.1-1c.1-.7.3-1.5.6-2 .1-.4.3-.8.7-1.1l.9-.7c.7-.4 1.6-.7 2.3-.4.8.2 1.5.9 1.8 1.6.4.6.7 1.4.7 2 0 .9 0 1.7-.5 2.2-.5.6-1.3 1-2 1 .7-.3 1.3-.7 1.5-1.3.2-.6.3-1.2.2-1.8 0-.6-.3-1.2-.6-1.7-.4-.4-.8-.9-1.3-1-.4-.1-1-.1-1.4.2a3.4 3.4 0 0 0-1.4 1.3c-.3.5-.6 1-.8 1.8-.3.6-.7 1.2-.4 1.9zM3 24.2c.7 1 1.2 2.2 1.5 3.2l.6 1.6.5 1.5c.3.8 1.4.7 2.5.5 1.1-.4 2.2-.7 3-1.6-.3.6-.6 1.1-1.2 1.5l-1.6.9c-.5.2-1 .4-1.9.4-.3 0-.7 0-1.1-.3a3 3 0 0 1-.8-1 6 6 0 0 1-.6-1.6c0-.6-.3-1.1-.4-1.7 0-1-.2-2.1-.5-3.4zm1.2-2.6c-.3-.5-.1-1.2 0-1.9.3-.5.9-1.2 1.8-1.3.8-.1 1.4.3 1.9.8.4.4.8 1 1 1.5l-1.5-.9c-.4-.2-.9-.4-1.2-.3-.3 0-.7.3-1 .7-.5.3-.8.9-1 1.4z"/><path d="M11 27.5l1 1.5.8 1.4c-.7.1-1.4-.2-1.8-.9-.4-.5-.5-1.3 0-2zm4.9-4.9c-.5-.2-.7-.6-.8-1-.1-.5-.1-1 .1-1.5.1-.5.5-1 .8-1.3.3-.3.9-.4 1.4-.2-.4.2-.6.6-.8.9l-.5.9-.2 1v1.2z"/><path d="M16 20.7c-.1-.2.1-.5.3-.6l.6-.2c.3.2.7.4.7 1l-1 .2-.1-.1c-.2 0-.2-.2-.5-.3zm4.2 1.2c.9.5 1.4 1.2 2.1 1.9.6.7 1.2 1.3 1.7 2.2a5 5 0 0 1-2.5-1.4 4.2 4.2 0 0 1-1.3-2.7zM10.4 39c1.2.3 2.4.3 3.6.1a13.3 13.3 0 0 0 6.3-3.2c.9-.7 1.6-1.8 2.1-2.9a6.9 6.9 0 0 1-1.4 3.5c-.8 1-2 1.8-3 2.5-1.2.5-2.6 1-4 1a6 6 0 0 1-3.6-1z"/></g><line x1="6.1971831" x2="6.30985915" y1="24" y2="24" stroke="#0D2A3E"/></g><g transform="translate(3.4)"><g stroke="#C4505D" transform="translate(279.4 163.4)"><path d="M3.4 2.6L3.2 2c0-.4 0-.9.3-1.2.8-1 3-1.2 3.5.2.1.4.2.8.1 1.2-.1.5-.8 1-1.4 1H4.5l-.1.6a48.8 48.8 0 0 0-1 5"/><path d="M3.4 2.6c0 .9-.4 1.7-.5 2.5l-.3 2.1-.5 2M7.3 2C8 2 8.8 2.2 9 3l.1.7v1l-.2.1-.2-.3L8 4c-.6-.4-1.2-.4-1.9-.5m.7-.7c1 0 2.2.7 2 2M5.9.9h-.5c-.3.1-.8.7-.3.9l.3.1.7-.1c.2-.1.3-.6.1-.7 0 0-.2 0-.3-.2m-.2.5s0 0 0 0M3.4 9c.3.1.7.2 1 .5.7.4 1.5 1.2 1.8 2 .3.8.3 1.8.3 2.7v1c0 .1 0 .3-.2.3M2 9.7c-.3.3-.2 1-.2 1.3.1 1.2.5 2.4 1.2 3.2l1.2.9c.4.4 1 .7 1.7.8l.5.1"/><path d="M4.5 9.8l-.1.1-.2.5-.4.9v1.3c.1.4.5.5.7.1.1-.2.2-.5.1-.8h0v.4l.1.8c.1.4.4 1 .7 1.2.2.2.5.3.8.1l.1-.2m-2.7.6l-.1.4m.1-.2a23 23 0 0 1-.6 2.7c0 1-.3 2-.6 3-.1.3-.1.6-.4 1 0 .2-.2 0-.4 0-.1-.2-.4-.2-.6-.2-.1 0-.3 0-.3.2v.2h.8s.2 0 .2.2h-.3c-.3 0-.7.2-.7.4 0 .1.2 0 .2 0l.8-.2.2-.1-.1.1s-.4.2-.3.3h.2c.2 0 .3-.3.6-.4l.2-.1v-.2c0-.4 0-.8.2-1.2l.8-3.1.2-1.1.1-1.3m-1.3-1.6c-.5-.3-1 .1-1.3.4 0 0-.3.3-.3.5.1.4.6 0 .7-.2v-.1h.2l-.3.2c-.3.2-.5.5-.5.8v.5l.2-.2.6-.5.1-.2.1-.2c-.2.2-.2.5-.3.7l.1.2.3-.4c.3-.3.6-.7 1-.6m3.4.6h1l.3.1c0 .2-.4.2-.5.2h0s-.2 0 0 0l.4.1c.3 0 .8.2 1 .4.2.2-.5.3-.5.3-.5.1-1.1 0-1.7-.2"/></g><g fill="#C4505D" fill-rule="nonzero" transform="translate(50.7 6.8)"><path d="M275 206.9c5.5.2 11 .8 16.2 2.8a37.4 37.4 0 0 1 22.2 23.2 54 54 0 0 1 2.7 16.3c0 5.6-.7 11.2-2 16.5a94.4 94.4 0 0 1-23.9 43.3 140.5 140.5 0 0 1-26.7 19.7 177.6 177.6 0 0 1-30 14.2 110.5 110.5 0 0 1-32.5 6.8 63 63 0 0 1-16.7-1.2 49.2 49.2 0 0 1-15.6-6 53.8 53.8 0 0 1-9.2-9.2c-2.7-3.3-5.1-6.8-8-10a41.5 41.5 0 0 0-6.7-6.5l-1.3-1-1.3-.9-1.4-.9-.6-.4-.7-.4-2.8-1.4a51.9 51.9 0 0 0-12-3.5c-2.1-.2-4.1-.5-6.3-.5h-3.1c-1 .1-2.2.1-3.2.3l-3.1.4-3 .6-1.7.3-1.4.5-3 .9-3 1-2.8 1.4a39.3 39.3 0 0 0-10.5 7c-6.3 5.5-12 12-18.8 17.3a37.3 37.3 0 0 1-24.3 7.6 62.2 62.2 0 0 1-25.3-4.1c-4-1.7-7.7-4.2-10.4-7.6-2.7-3.4-4-7.8-4.1-12.2.8-4.6 2.7-9 5.7-12.6 3-3.5 7.2-6 11.6-7.4a45.8 45.8 0 0 1 13.7-1.5c-4.5 0-9.2.4-13.6 2a23.5 23.5 0 0 0-16.6 19.7v-.1a19 19 0 0 0 4 11.6 25 25 0 0 0 10.1 7.2c3.9 1.7 8 2.7 12.2 3.2 4.2.6 8.5.8 12.6.7 4.2-.1 8.5-.6 12.5-1.8 4-1.2 7.8-3.3 11-5.8 6.8-5.1 12.4-11.8 18.8-17.4.8-.7 1.6-1.5 2.5-2l2.7-2a62 62 0 0 1 2.8-1.6l1.3-.8 1.5-.7 3-1.4 3-1c1-.4 2-.8 3-1 .6 0 1-.3 1.6-.4l1.6-.4 3.1-.6 3.3-.5 3.3-.2a61.5 61.5 0 0 1 9.7.5c2.1.4 4.2.6 6.3 1.3 2.1.5 4 1.3 6 2.2l3 1.5.7.3.6.5 1.4.9 1.3.9 1.3 1 2.5 2 4.5 4.7c5.6 6.4 10.2 13.8 16.9 18.8h-.1c4.6 2.8 9.8 4.7 15 5.8a65.3 65.3 0 0 0 16.3 1.3c11-.5 21.7-3.2 32-6.8a184.5 184.5 0 0 0 43.7-23c4.5-3.2 8.8-6.5 12.6-10.5a96.8 96.8 0 0 0 18.5-27c4.5-10 7.4-20.8 7.5-31.8 0-5.5-.6-10.9-2.4-16.2a36.3 36.3 0 0 0-21.8-23.2 55.9 55.9 0 0 0-15.9-2.8z"/><path d="M198.4 240.7c.5-2 1.5-3.9 2.5-5.4a31 31 0 0 1 3.8-4.7c1.5-1.3 3-2.7 4.7-3.9a39 39 0 0 1 5-3.3 75 75 0 0 0-9.2 7.6c-1.5 1.3-2.7 3-4 4.5-1 1.6-2 3.3-2.8 5.2zM69.3 77.9a68 68 0 0 0 23.8-10.4c7.3-4.7 13.8-10.5 20.1-16.6 6.3-6 12.3-12.4 18.6-18.4 6.3-6 13-11.9 20.3-16.5a103.3 103.3 0 0 1 49.7-15c8.8-.2 17.6.8 26 3.6A57.7 57.7 0 0 1 250 18.3a44 44 0 0 1 9.3 24.2c0 4.4-.5 8.8-1.8 13a49.7 49.7 0 0 1-5.7 11.9 65.7 65.7 0 0 1-43 27.6 87.2 87.2 0 0 1-44.7-.4A50 50 0 0 1 144.2 84a28.7 28.7 0 0 1-6.8-9 18 18 0 0 1-1.6-11.5c.7-3.8 2.8-7.4 5.4-10.1a36 36 0 0 1 9.2-6.8 59 59 0 0 1 10.5-4.2l2.7-.8c1-.3 1.8-.6 2.8-.7a51 51 0 0 1 17 .1c3.8.7 7.5 2 10.9 3.7a25.3 25.3 0 0 1 13.5 17.8 32.6 32.6 0 0 1-3.9 16.7 26 26 0 0 1-3.2 4.7c-5 5.9-11.7 9.8-18.6 12.9-7 3-14.2 5-21.5 6.7-7.4 1.7-14.8 2.9-22.2 3.8-15 1.9-29.9 2.7-44.9 4-1.9.2-3.7.3-5.5.6-2 .2-3.7.5-5.5.9l-2.7.4-2.7.7-2.7.7-1.4.3-1.3.5a89.4 89.4 0 0 0-20.2 9.5 111 111 0 0 0-48.7 72.3 87 87 0 0 0-1.2 22.3 70.7 70.7 0 0 0 16.2 41.1 72.6 72.6 0 0 1-16.8-41c-.5-7.6-.1-15.1 1.1-22.5l.6-2.9.2-1.3.4-1.4 1.3-5.5 1.7-5.4 2-5.3A109.1 109.1 0 0 1 51 123.8a93 93 0 0 1 20.4-9.7l1.4-.4 1.3-.3 2.7-.7 2.7-.7 2.9-.5a84 84 0 0 1 5.6-.9l5.6-.6c15-1.5 30-2.3 44.8-4.2 7.4-1 14.7-2.1 22-3.8a108 108 0 0 0 21.3-6.8c6.8-3 13.3-6.9 18-12.5a28 28 0 0 0 6.8-20.3v.1c-.7-3.6-2.1-7-4.4-9.8a27.2 27.2 0 0 0-8.3-6.8 37.5 37.5 0 0 0-10.4-3.5 44.3 44.3 0 0 0-19 .7l-2.7.7c-3.5 1.2-7 2.5-10.3 4.2a33.3 33.3 0 0 0-8.8 6.4 19.1 19.1 0 0 0-5 9.4 17 17 0 0 0 1.4 10.5c1.5 3.2 3.9 6.2 6.6 8.6a48 48 0 0 0 19.2 10.4 76 76 0 0 0 22 3c7.4 0 14.9-1 22-2.7A62.5 62.5 0 0 0 251 66.8a45 45 0 0 0 5.6-11.5 37 37 0 0 0-.8-25.1 48 48 0 0 0-6.4-11 54.1 54.1 0 0 0-21.8-13.6A72.9 72.9 0 0 0 202 2a101.8 101.8 0 0 0-69.7 31c-6.3 6-12.4 12.3-18.7 18.3-6.3 6-13 11.7-20.3 16.4a69.7 69.7 0 0 1-24 10.3z"/></g><g fill="#2663A0" fill-rule="nonzero"><path d="M27.3 1l.2 23.6-.2-.3 36.2 2.4 36.3 2.6-.5.6.9-23.6.4.6-18.2-1.5L64 4 27.3 1zm0 0l36.6 2.3 18.4 1 18.4 1.3h.5v.5l-1 23.8v.5h-.5l-36.3-2.7L27.2 25h-.3v-.2L27.3 1zm51.5 281.3l-39-4.6L1 273H.7v-.3l-.1-51.3v-51.3L.9 119c0-17.2.2-34.3.3-51.3.1 17.1.4 34.3.4 51.3v51l.2 51.3-.1 51.3-.4-.4 39 5 38.6 5z"/><polygon points="27.3 24.6 14.3 46.1 1.4 67.5 1.1 67 78.9 75.6 78.3 75.9 88.8 52.7 99.3 29.6 99.6 28.8 100.2 29.5 121.9 58.4 122 58.5 122 58.6 121.7 106.3 121.1 153.8 121.1 106.3 121.1 58.6 121.2 58.9 99.4 30.1 100.2 30 89.8 53.2 79.2 76.3 79.1 76.6 78.8 76.6 1 67.7 .6 67.6 .8 67.3 14 45.9"/><polygon points="78.8 83.2 79.1 107.9 79.2 132.8 79.3 182.6 79.2 232.5 79.1 257.4 78.8 282.3 78.5 257.4 78.3 232.5 78.2 182.6 78.3 132.8 78.5 107.9"/></g></g><g transform="translate(210.7 115)"><g fill-rule="nonzero"><path fill="#0D2A3E" d="M20.7 61.9a3 3 0 0 1-.5-1.2v-1.2c0-.5.3-1 .9-1.2.2-.2.5-.2.8 0 .2 0 .3.3.5.4l-.9.2-.2.8-.6 2.2z"/><path fill="#5093C4" d="M18.6 7.3a5 5 0 0 1 3.1 2.8c.6 1.4.8 2.9.6 4.2-.6-1.3-1-2.6-1.6-3.7a18 18 0 0 0-2.1-3.3zm3.8 9.5c.6.4.8 1 .8 1.6 0 .5-.2 1-.7 1.5-.4-.5-.4-1-.4-1.6-.1-.5 0-.8.3-1.5z" opacity="0.46"/><path fill="#0D2A3E" d="M12.6 47c1-1 2.2-1.8 3.5-2.4a9 9 0 0 1 4.3-.5c1.5 0 3 .6 4 1.8.5.5.7 1.3.7 2.1s-.2 1.5-.6 2c.3-1.3 0-2.7-.8-3.5a6 6 0 0 0-3.4-1.3c-2.6-.2-5.2.4-7.7 1.8z"/><path fill="#0D2A3E" d="M18.3 49.7a9 9 0 0 1 2.4-.7c.8-.1 1.7-.1 2.6.1.8.3 1.8.5 2.4 1.3.7.6.8 1.7.6 2.6-.3-.8-.7-1.5-1.3-2-.5-.4-1.2-.5-2-.7-.8-.3-1.6-.3-2.4-.4l-2.3-.2zm6.4 3.5c.8-.4 1.7-.2 2.3.1.4.2.7.4 1 .9.2.3.3.8.3 1.2a42 42 0 0 0-1.8-1l-1.8-1.2z"/><path fill="#5093C4" d="M13 24.3c1 1.5 1.2 3.3 1.8 4.9l1.3 5c.8 3.3 1.6 6.7 2 10-1.3-3.2-2.2-6.5-3.1-9.7-.5-1.7-.8-3.4-1.1-5-.4-1.9-.4-3.6-.8-5.2zm-.5-2.6a2 2 0 0 1-.9-1.4c-.1-.6-.1-1.1.2-1.7.6.4.8.9 1 1.5 0 .5 0 1-.3 1.6z" opacity="0.46"/><path fill="#5093C4" d="M9.8 5.3c-.7.1-1.3.2-2 .6-.6.3-1.2.7-1.5 1.3A7.9 7.9 0 0 0 5 11c-.3 1.4-.2 2.7 0 4.2a22.4 22.4 0 0 0 4.6 11.5 38.7 38.7 0 0 0 5.7 6.3A26.7 26.7 0 0 1 9 27.3a24.1 24.1 0 0 1-4.2-7.7 18 18 0 0 1-.5-8.7A8 8 0 0 1 6 7a4.1 4.1 0 0 1 3.7-1.6z" opacity="0.46"/><path fill="#5093C4" d="M15.9 36.2c-3-2.4-6-4.5-8.7-7.1A21.8 21.8 0 0 1 .6 13.7C.6 11.8.6 10 1 8a11 11 0 0 1 3.3-4.8A10 10 0 0 1 12.5.3l2.8.8c1.8.8 3.4 2 4.8 3.3l1.8 2.2c.5.8 1 1.7 1.3 2.5a15 15 0 0 1 1.5 5.5 38 38 0 0 1-3 16.7c-.6 1.7-1.5 3.4-2 5.2.4-1.8 1.1-3.6 1.7-5.3l1.5-5.4a41 41 0 0 0 .9-11c-.4-3.6-2.2-7.1-4.5-9.7a15.9 15.9 0 0 0-4.5-3c-.8-.4-1.7-.7-2.6-.9-1 0-1.7 0-2.6.2A9.3 9.3 0 0 0 5 3.8a9 9 0 0 0-3 4.4A21.5 21.5 0 0 0 2.3 19c.9 3.6 2.8 7 5.2 9.6 2.5 2.8 5.6 5 8.4 7.6z" opacity="0.46"/><path fill="#5093C4" d="M17.1 28.6a47.5 47.5 0 0 1 4.5 15.6c-1-2.6-1.8-5.1-2.6-7.7-.7-2.6-1.5-5.2-1.9-7.9z" opacity="0.46"/></g><path stroke="#4F8E99" stroke-dasharray="1" d="M96.3 162.4a55 55 0 0 1 .4-28.2c3.7-13.5 12.5-25.8 13.2-39.9"/><path fill="#4F8E99" fill-rule="nonzero" d="M101.6 97.7a88.3 88.3 0 0 0 12.1-12.4 24.4 24.4 0 0 1-12 12.5zm-16.4 3a57.3 57.3 0 0 0 24.5-21.6l1.5-2.4 1.2-2.5 1.3-2.5 1-2.5-.8 2.7-1 2.5-1.1 2.6-1.4 2.5a47.2 47.2 0 0 1-25.2 21.2z"/></g><g fill="#5093C4" fill-rule="nonzero" transform="translate(87.9 156.6)"><path d="M158.2 108.4c.6 24.6-9.2 48.9-26.3 61.9-31.3 23.7-83.1 20.5-113.4-10.4C-.1 140.9-2.3 112.8 2 88.5 3.7 79.5 6.6 71 8 62c.4-3.6 1.6-7.5-.4-11H8c6.3 10 21.2 13.2 32 16 23.4 5.9 63.3 7.7 86-1.8 8.4-3.5 17-7.2 22.4-14.2-1.7 10.4 9.5 44.6 9.7 57.5z" opacity="0.3"/><path d="M146.6 16.1l1.3-1.1C135.5 6 111.4 0 83.7 0 43.5 0 10.8 12.7 10.8 28.5c0 2.6 1 5.2 2.6 7.6l.3-.3c3.4-6.7 12.4-9 19-11.3a73 73 0 0 1 19.5-4.9c10.4-.8 21 1 31.5 0 5.7-.6 11-2 16.7-3 6.6-1.2 14-.8 21 .9v-.3c3.6-.2 6.7.5 10.2 1.2 3 .5 7 1 11 2.2 1-1.7 2.5-3.1 4-4.5z" opacity="0.22"/></g></g></g></svg>