<svg xmlns="http://www.w3.org/2000/svg" viewBox="0 0 400 400"><g fill="none" fill-rule="evenodd"><ellipse cx="211" cy="305.2" fill="#C6D3D8" fill-rule="nonzero" rx="135.7" ry="13.5"/><ellipse cx="178.8" cy="322.3" fill="#C6D3D8" fill-rule="nonzero" rx="97" ry="13.5"/><ellipse cx="93.3" cy="360" fill="#C6D3D8" fill-rule="nonzero" rx="90" ry="10.2"/><path fill="#C5505D" fill-rule="nonzero" d="M76.3 126.6v1.1a8.6 8.6 0 01-5.7 2c-1 0-2 0-2.7-.7h-.2v-1l.1-.1a4 4 0 002.5.8c1 0 1.8-.3 2.6-.5 1.3-.3 2.6-.7 3.4-1.6zM58.5 157h.2c1.2.6 2.7.1 4-.5 4.2-2.3 7.4-6.6 12-7.7h.1l.1 2.4c-2 0-4 1.1-5.4 2.4-1.5 1.3-2.8 2.9-4.4 4a8.4 8.4 0 01-4.5 2h-.9c.8 1.6 1.5 3.4 1.6 5.2 0 .6 0 1.2-.3 1.6-.4.4-1 .6-1.5.4l-.4-.4.3-.1c1.2-.5.8-4-.8-7.7s-3.9-6.3-5-5.8l-.3.1-.4-.5c.3-.3.6-.5 1-.5s1 0 1.4.3l1 .8c1 1.2 1.6 2.6 2.2 4zm45.1-16.7c.2.5.2 1.1.1 1.7 0 .3-.2.6-.6.7h-.2c-.3-.2-.6-.4-.7-.8-.3-.7-.3-1.5 0-2.1 0 0 .1-.3.4-.3.2-.1.4 0 .6.2.2.1.3.4.4.6z"/><path fill="#FFF" fill-rule="nonzero" d="M350 288.9c-1.2.2-2.5.3-3.8.3h-4.5a123.2 123.2 0 01-24.7-2.4c-4.5-.9-8.8-1.9-13.2-3l-2.3-.7a237.3 237.3 0 01-27-9 665 665 0 01-13.2-5.3l-2.8-1.1v-23A78.2 78.2 0 01287 248c21.7 5 43.6 11.4 61.3 25 2.9 2.2 5.7 4.6 7.8 7.7.7 1 1.4 2.1 1.2 3.3 0 .5-.1 1-.4 1.4-.5.7-1.1 1.4-1.8 1.8-1.5 1-3.2 1.4-5 1.7zM275.7 221c16.8-23.8 27.1-55 19.3-83.6a87.6 87.6 0 0140-55.3c1-.6 2-1.1 3-1.1 2.2 0 3.7 2.3 4.6 4.3 12 26.3 15.8 57 6.4 84.4-9.5 27.4-44.8 46.6-73.3 51.4z"/><path fill="#FFF" fill-rule="nonzero" d="M197.2 118.2l-.3-1.6-.1-.6a126.9 126.9 0 01.4-56.6c.1-.6.3-1.3.8-1.8.8-.7 2-.5 3.1-.2 35.8 9.7 69 31.7 87.3 64 3 5.2 5.1 10.6 6.6 16 7.9 28.5-2.4 59.9-19.2 83.7-.6 1-2.2.9-2.5-.3-2.9-10-13.5-16.3-22.3-22.4a133.4 133.4 0 01-53.8-80.2z"/><path fill="#FFF" fill-rule="nonzero" d="M259 212.8h-.3c0-1.3-.3-2.6-1-4 0 0 11.4 2 13.5 15.1-9.8 3.5-12.1 10.3-12.7 13v-2.4l.5-21.7z"/><path fill="#FFF" fill-rule="nonzero" d="M258.7 212.7h.3l-.5 21.7c-1.9 3.5-11.7 18.6-77.1 21-85.7 3.4-88.5-21-88.5-21h-.3l.5-20.7c0 .6.2 1.1.4 1.6 2 5.1 8 8 12.6 10.2 8.3 3.6 17.2 5.7 26 7.3a275.9 275.9 0 0073.4 2 168 168 0 0030.6-5.9 48 48 0 0018.7-9.1c2.3-2 3.8-4.4 3.9-7z"/><path fill="#FFF" fill-rule="nonzero" d="M97.4 204.8a37 37 0 015.5-3.6l3.4-1.5c2.6-1.2 5.2-2.1 7.9-3l.2-.2.5.4c.4.3.8.6 1.3.7h.8l.2.5-6.7 2.3c-4.8 2-13.8 5.5-13.8 12-.3 2.5 2 4.3 3.2 6a29 29 0 008.6 5.4 83 83 0 0012.3 3.6c26.2 6.7 52 7.5 78.2 5.3 13.4-.9 26.3-3 39.1-6.7a40.2 40.2 0 0013.3-6.2c2.7-2.2 5-4.4 5-8-1-4.9-5.4-7.5-9.4-9.8-21.3-9.3-44.4-9.8-67.3-11l.5-2.2c12.2.2 24.3 1 36.3 3a127 127 0 0127.1 7c5 2 11.3 5 14 10 .8 1.3 1 2.6 1 3.9 0 2.6-1.6 5-3.8 7A49.2 49.2 0 01236 229c-9.8 3-20.1 4.7-30.4 5.8a275.9 275.9 0 01-73.4-2c-8.9-1.5-17.9-3.6-26.1-7.3-4.6-2-10.6-5-12.6-10.1a9.2 9.2 0 01-.6-2.8c.1-3 2-5.6 4.5-7.7z"/><path fill="#FFF" fill-rule="nonzero" d="M153.5 210.5a15 15 0 016.6-6.5 28 28 0 0116.1-1.7c-2.2-.3-3.4 3-2 4.8 1.2 1.8 3.7 2.3 6 2.4 10.3.4 20.3-4.1 30.6-4.8a41.9 41.9 0 0133.4 13.8c1.1 1.2 2.3 3 1.6 4.5l.1.2a47 47 0 01-7.7 2.9 195.3 195.3 0 01-39.1 6.7 232 232 0 01-78.2-5.4c-4.2-1-8.5-2-12.4-3.6l.3-.6a47 47 0 0144.7-12.7zm44.7-88.6h-.3c-7 2.7-11.7 9.4-14 16.3-3.2 8.8-2.7 18.3-3.6 27.6a58.6 58.6 0 01-3.6 15.4v.2c-.4.1-.8.5-1 .9h-.1l-.6-.3c-.7 0-1 .7-1.3 1.4-.4-.2-.9-.5-1.4-.4-.6.2-.8.9-1 1.5l-1-.5a2 2 0 00-1-.2c-.8.2-1.2.8-1.6 1.4-.5 1.2-.8 2.5-1 3.8l-3 .1v-.2L146 160.7l-1-1.6a82.6 82.6 0 016-17.1c4-8.1 10-15.6 18-20 8.5-4.7 19-6 28.4-3.8.2 1.2.5 2.5.9 3.7z"/><path fill="#FFF" fill-rule="nonzero" d="M196.9 116.6c0 .6.2 1 .3 1.6-9.4-2.2-19.9-1-28.3 3.8-8 4.4-14 11.8-18 20a82 82 0 00-6 17v.1c-1-1.3-2-2.6-3.3-3.5-.7-.5-1.5-.9-2.4-1a9 9 0 00-4 .3c-5 1-10.5 1.4-14.5-1.5l-.6-1.1.4-.2c1.7-3.6 3.6-7.1 5.7-10.5v-.3c2 0 4-.4 5.9-1.4 2.2-1.3 3.8-3.5 4.8-5.9l.6-1.6h.1a13 13 0 006.3-9.3l.1-1h.5a50.9 50.9 0 0152.4-5.5z"/><path fill="#FFF" fill-rule="nonzero" d="M75 117.8h-.6a39.8 39.8 0 01-26.8-5.6l-3.2-2.6a47.8 47.8 0 01-15.9-24c-.3-1.3.7-2.9 2-3.2A80 80 0 0048 78.8c9.7-3.5 19.1-8 28.8-11.7a114 114 0 0122.4-4.5c5.5-.6 11.3-.4 16.8-.3 34.5.8 64.6 29.8 64.9 30.1 5.5 5.5 10.3 10.7 14.6 17.1l1.3 6.5v.7a50.9 50.9 0 00-52.3 5.4h-.5c.3-3.5-.6-7.1-2.3-10.3a7.1 7.1 0 00-3-3.3c-1.3-.6-3-.3-3.8.8-1.3-2-2.8-3.6-4.7-5a7.5 7.5 0 00-5-1.5c-1.1-.7-2.4-1.1-3.7-1.4a17 17 0 00-10.8 2c-2.3 1.1-4.6 2.9-5.3 5.3l-.7.6a14.2 14.2 0 00-4.3 10 31 31 0 00-1.6 19.7 14.1 14.1 0 003.2 6.3h-.6l-1-.6c-.7-.4-1.5-.7-2.2-1.2a5.9 5.9 0 01-2-1.8c-.4-.7-.8-1.6-1.6-1.6h-.1l-2-2.5c-.2-.4-.6-.7-1-.8-.7 0-1 .7-1.4 1.3v.1l-2.1-1c-.4 0-.8-.2-1.2 0-.6.3-.8 1-.8 1.7h-.6l-1.4-.2h-.5l-.3.4a6 6 0 00-.4 1.5v.3c-.4 0-.8 0-1.1.2-.3 0-.6.2-.7.5v.6a27.8 27.8 0 005.8 9.6 54 54 0 008.3 2.3c1.4.1 2.7.3 4 .8a6 6 0 012.8 2h-.6c-7.7-.9-9 1.5-8.8 5.7.1 2.3.5 4.5 1.1 6.7-2.3.3-3.8.3-4.2 1.7l.1 1.2 1 3.6h-.3a22.5 22.5 0 01-10.5-8.5l-.3-.6a36.6 36.6 0 01-4.6-18c0-3 .2-6 .7-9v-2.9c.6-3 .9-6.1.8-9.1v-1.2a36 36 0 00-1.4-8.7z"/><path fill="#FFF" fill-rule="nonzero" d="M108.5 156l-.1-1.2c-.3-2.5-.8-5-1.4-7.4 1 0 1.8-.3 2.7-.5 2.7-.8 5.3-2 7.7-3.6.4 3.1 1.3 6.2 2.8 9l.6 1.1c4 2.9 9.5 2.5 14.3 1.5 1.4-.3 2.8-.6 4.1-.4.9.2 1.7.5 2.4 1 1.3 1 2.4 2.2 3.3 3.6l1 1.6 17.9 28.1v.3c-1.4 0-2.9 0-4.3.2-3 .1-6 .3-8.9.6v-.4c-2.2-6.6-4.7-13.1-7.5-19.6l-.5-.2-25.2 7.3c-.6-2-1.5-3.8-2.3-5.6-1.6-3.4-3.2-6.8-5.2-10l-3.6-5.3a5 5 0 002.1 0zm44 185.5l4 6.5-2.3 4.6H151l-7.3.3h-5.2c-1.7-.2-7.3-2.9-8.7-3-1.4-.2-4-2-5.6-3-1.6-1-4.2-4-4.7-2.6-.5 1.3-3.3-.6-3.3-.6l-4.5-3.2-2.8-1.7-3-2.6s-2-3.3-3.2-3.2c-1.3.2-1.7-1.2-3.7-2.3-2-1-4.9-4.2-6.4-4.8-1.6-.5-20.7-2-21.8-2-1.1 0-3.3-3.5-6-2.8-2.9.6-18.3 8.3-18.3 8.3l-13.4 5.9-4.8-.3H17.7s-3.2-1.4-4-1c-.8.3-3.6 2.7-4.6 3.7-1 1-3.4 5.5-3.8 6-.5.5-2.3 1.4-2 2.2.4.9-1.3 2.4-1.3 2.4s-2 .3 2.7-12l.2-.5v-.2c.7-1.2 2.8-4 10.4-7.4 10-4.4 13.3-6.3 15.6-7.9 2.3-1.6 14.4-11.2 21.3-14.9 6.9-3.6 19.1-4.4 19.1-4.4l20.3 1.2s9.6 5.5 10.2 5.6c.7.2 7.5 5.1 7.5 5.1l22.4 9.4a284 284 0 009.8 12.4l11 6.8z"/><path fill="#FFF" fill-rule="nonzero" d="M107 147.4h-.8a7 7 0 01-4.2-2.1l-.8-.9a15.4 15.4 0 01-2.4-5.4 31 31 0 011.6-19.8c0-3.7 1.6-7.4 4.3-10l.7-.5c.8-2.5 3-4.2 5.3-5.4a17 17 0 0110.8-1.9c1.3.2 2.6.7 3.8 1.3 1.7-.2 3.4.6 4.9 1.6a16 16 0 014.7 5c.8-1.2 2.5-1.4 3.8-.8 1.4.7 2.3 2 3 3.3 1.7 3.1 2.6 6.7 2.3 10.3l-.1 1a13 13 0 01-6.3 9.4l-.7 1.5c-1 2.4-2.6 4.6-4.8 5.9a12 12 0 01-6 1.4H122c.1-.2.3-.2.4-.3 1.6-1 3-2.3 3.8-3.9h-.4c-.5.2-1.3 0-1.4-.5a28.2 28.2 0 01-14.7 10.4c-.9.2-1.8.4-2.7.4zm18.7-16.5a25 25 0 00.7-11.4 15 15 0 00-6.1-9.6 10 10 0 00-4.7-1.7v.1c1.6.7 2.3 2.6 2.7 4.3.8 3.3 1 6.8 1.9 10.2.9 3.2 2.6 6.5 5.5 8.1zm-13-1.5c0-.3-.3-.6-.5-.6-.3 0-.5.2-.5.6 0 .3.2.6.5.6.2 0 .4-.3.4-.6zm-9 12.6l-.1-1.7c0-.2-.2-.4-.4-.6-.1-.2-.4-.3-.6-.3l-.4.3c-.3.7-.3 1.5 0 2.2.1.3.4.6.7.7h.2c.4 0 .6-.3.6-.6zm-3.8-13.6c0-.3-.2-.6-.5-.6-.2 0-.5.3-.5.6 0 .4.3.7.5.7.3 0 .5-.3.5-.7z"/><path fill="#000" fill-rule="nonzero" d="M122 141.2c-1.4.9-3 1.5-4.5 2.2 2.7-1.9 5-4.2 7-6.8 0 .6.8.7 1.3.6l.4-.1a11 11 0 01-3.8 3.9l-.4.2z"/><path fill="#FFF" fill-rule="nonzero" d="M126.2 141.3v.3c-2.1 3.4-4 6.9-5.7 10.5l-.4.2a27 27 0 01-2.7-9 31 31 0 004.5-2.1c1.5.1 2.9.2 4.3.1zM99.7 182a40.2 40.2 0 01-7.3-19.4c-.2-4.1 1.1-6.5 8.9-5.7h.5c-.6-1-1.7-1.6-2.8-2-1.3-.5-2.6-.6-4-.8a54 54 0 01-8.3-2.2 26 26 0 01-5.8-9.6v-.7c.1-.3.4-.4.7-.5l1.2-.2c.7 0 1.5 0 2.4.2 2 .3 4.1.9 6.1 1.5.5.2 1 .3 1.4.7.8.7 1 2 1 3v.1h1.1c2-.4 4.1-.9 6-.4a3.4 3.4 0 011.5.8c.3.2.5.6.6 1v.2a19 19 0 003.4 8.1l3.5 5.3a94.8 94.8 0 017.6 15.6l.4 1.5a37 37 0 011 5.8 37.8 37.8 0 010 11c-.1.4-.3.9-.6 1.3-.2.4-.7.8-1.2 1h-.8c-.4 0-.9-.4-1.3-.6l-.5-.5A58.6 58.6 0 0199.7 182z"/><path fill="#FFF" fill-rule="nonzero" d="M103 147.7a1.9 1.9 0 00-1-1.2c0-.5-.3-.8-.6-1.2h.6a7 7 0 005 2.1 52 52 0 011.4 7.4v1.3a5 5 0 01-2 0 19 19 0 01-3.5-8v-.4zm-.1 53.3v.2a29 29 0 00-5.5 3.6l-7-29-.9-3.5c-.1-.5-.2-.9-.1-1.3.4-1.3 1.8-1.3 4.2-1.7 1.2 4.6 3.4 9 6.1 12.8a2 2 0 00-1.2 1.5 6 6 0 00.2 2.3 84.6 84.6 0 002.3 7.7c.5 2.5 1 5 1.9 7.4z"/><path fill="#FFF" fill-rule="nonzero" d="M101.3 145.3c.4.4.6.7.7 1.2a4 4 0 00-1-.5c-2-.5-4.1 0-6 .3.7-1.1 1.4-2.5 1-3.7-.1-.5-.5-1-.8-1.4l-.8-1 .1-.2c.8.1 1.3 1 1.7 1.7.5.7 1.2 1.4 2 1.8.7.4 1.5.7 2.2 1.2.4.1.7.4 1 .6z"/><path fill="#FFF" fill-rule="nonzero" d="M96 142.6c.5 1.3-.3 2.6-1 3.7l-.8.1v-.2c.8-.8 1.1-2 .8-3.2-.3-1.3-1.3-2.2-2.3-3-.8-.7-1.7-1.3-2.6-1.8v-.1c.3-.6.7-1.4 1.4-1.3.4 0 .8.4 1 .8l2 2.5.8 1.1c.3.5.6.9.7 1.4z"/><path fill="#FFF" fill-rule="nonzero" d="M95 143c.3 1.2 0 2.4-.8 3.2v.3h-.4v-.1c.2-1.2.4-2.4-.3-3.4a5 5 0 00-1.9-1.5c-2-1-4-2-6.2-2.5h.6c0-.7.2-1.5.8-1.7.4-.2.8 0 1.2 0a15.4 15.4 0 014.7 2.7c1 .8 2 1.8 2.3 3z"/><path fill="#FFF" fill-rule="nonzero" d="M93.5 143c.6 1 .5 2.2.3 3.3-.1-1-.3-2.3-1-3a45 45 0 00-10-2.4v-.3c0-.5.2-1 .4-1.5 0-.1.1-.3.3-.3a20.4 20.4 0 012 .2c2 .5 4 1.5 6 2.5.8.4 1.6.8 2 1.5zm-25.8-14h.1a4 4 0 002.8.7c2.2 0 4.1-.5 5.7-2 0 3-.2 6-.8 9.2v2.9c-.5 3-.8 6-.7 9-4.8 1.1-8 5.4-12.2 7.7-1.2.7-2.7 1.1-4 .5v.1c-.7-1.5-1.4-3-2.5-4-.2-.4-.5-.7-.9-1-.4-.2-1-.3-1.4-.2v-.1a32.2 32.2 0 01-4.6-18c.1-3.2 1-6.4 1-9.7 0-5.5-1.7-11-6-14.5l3.4 2.6a39.8 39.8 0 0026.7 5.6h.5a36 36 0 011.4 8.7 7 7 0 01-3.4 1.7c-.8.3-1.7.5-2.6.5a4 4 0 01-2.5-.8h-.1v1zm-.7 0c0-2.8-.7-5-1.7-5-.9 0-1.6 2.2-1.6 5 0 2.7.7 4.9 1.6 4.9 1 0 1.7-2.2 1.7-5zm8 22.2c.3 5.4 1.7 10.6 4.4 15.6a31.8 31.8 0 01-18.8-7.2c1.6-.1 3.2-1 4.5-2 1.5-1.1 2.8-2.6 4.4-4a9 9 0 015.3-2.4h.1z"/><ellipse cx="65.3" cy="129" fill="#C5505D" fill-rule="nonzero" rx="1.6" ry="4.9"/><path fill="#C5505D" fill-rule="nonzero" d="M58.5 158.6c1.7 3.7 2 7.2.9 7.7a1 1 0 01-.3 0c-1.2 0-3.2-2.4-4.7-5.9-1.5-3.4-2-6.6-1-7.5l.1-.1c1.2-.5 3.4 2 5 5.8z"/><path fill="#FFF" fill-rule="nonzero" d="M4.9 335.6l-.1.3-.2.4s0-.3.3-.7z"/><path fill="#ABC4C6" fill-rule="nonzero" d="M351.6 92.2c-.9-2-2.3-4.3-4.5-4.3-1.1 0-2.1.6-3 1.2a87.6 87.6 0 00-40 55.3 69.6 69.6 0 00-6.7-16.1C279.2 96 245.8 74 210 64.3c-1-.2-2.4-.5-3.2.3-.4.4-.6 1-.8 1.7a134.6 134.6 0 0053.8 139c8.9 6 19.5 12.5 22.3 22.4.3 1.2 2 1.4 2.5.3 28.6-4.8 63.9-24 73.3-51.4a115 115 0 00-6.4-84.4z"/><path fill="#C5505D" fill-rule="nonzero" d="M89.2 175.6a160 160 0 00-25.8 4.5 59.2 59.2 0 00-12 5l-1.4.8-.7.4-.7.4-1.3 1-.7.4-.7.5-1.2 1-.6.5-.7.6-.6.5-.6.6-1.1 1.2a42.2 42.2 0 00-10.7 23.2c-.5 4.3-.3 8.7.7 12.9 1 4.1 3 8.1 5.9 11.3a24 24 0 0010.6 7c2 .6 4.2.9 6.3.8h1.7l.7-.1.8-.2a13.5 13.5 0 002.3-.6l.8-.2c2-.7 4-1.8 5.7-3 1.8-1.2 3.4-2.6 5-4 3.2-3 6-6.4 8.9-9.7 2.9-3.2 6-6.4 9.8-8.7a25.3 25.3 0 018.4-3.3l.8-.2h.9l.8-.1h1.7c2.2 0 4.4.5 6.4 1.6 2 1 3.6 2.7 4.6 4.6 1 2 1.7 4.1 1.5 6.3a8.9 8.9 0 01-.8 3.2c-.4 1-1.1 1.9-2 2.6a7.6 7.6 0 002.5-4.2l.2-1.6c0-2.2-.5-4.3-1.6-6.2a10.8 10.8 0 00-4.6-4.4c-2-1-4-1.5-6.2-1.5a24 24 0 00-12.3 3.7l-1.3.9-1.3 1a50.6 50.6 0 00-7 6.8c-2.9 3.2-5.6 6.7-8.8 9.7-1.6 1.6-3.3 3-5.1 4.2a26.9 26.9 0 01-6 3.1l-.7.3-.8.2-1.6.4-.9.1-.8.1h-.9l-.8.1a24.8 24.8 0 01-17.7-8 27 27 0 01-6-11.8 39 39 0 01-.7-13.2 43 43 0 0112.2-24.8l.6-.6.6-.5.6-.6.6-.5 1.3-1 .7-.5.7-.5 1.3-.9.7-.4.8-.4 1.4-.9c3.9-2 8-3.6 12.2-4.8a199.8 199.8 0 0126-4zm72 181.3a163.3 163.3 0 0044.4 18.2l5.2 1.3a162.3 162.3 0 0031.8 4 106.2 106.2 0 0021.2-2c3.4-.8 6.9-1.7 10.2-3 3.3-1.3 6.4-2.9 9.3-5a27.1 27.1 0 0011.2-22.7v-1.2l-.2-1.3-.5-2.6-.7-2.5-.5-1.3a5 5 0 00-.2-.6l-.3-.6a27 27 0 00-20.3-15 21 21 0 00-10.2 1.1c-1.7.6-3.2 1.5-4.6 2.5a13 13 0 00-4.8 8.9c-.1 1.7 0 3.5.3 5.2a21.7 21.7 0 003 7.2l.4.6.4.5.8 1a27 27 0 003.6 3.9l1 .8 1 .9 2.3 1.4a30.3 30.3 0 009.8 3.8 39 39 0 0030.4-5.8c2.8-2 5.5-4.5 7.8-7.2a56 56 0 0010.3-18.5 67.2 67.2 0 00.2 0 55.2 55.2 0 01-10.1 18.9 43.1 43.1 0 01-12.5 10 39.3 39.3 0 01-36.3-.5l-2.3-1.5-1-.8-1.1-.9a28.7 28.7 0 01-3.8-4l-.8-1-.4-.6-.3-.5a24.4 24.4 0 01-3.2-7.5c-.4-1.8-.5-3.7-.4-5.5a13.7 13.7 0 015.1-9.4c1.5-1.2 3-2 4.8-2.7a21.5 21.5 0 0110.8-1.2 29.3 29.3 0 0110.1 3.6 28.2 28.2 0 0110.9 12l.3.6.2.6.5 1.3c.3.8.6 1.7.7 2.6.3.9.4 1.8.5 2.7l.2 1.3v1.4c0 1.8 0 3.6-.3 5.4a27.7 27.7 0 01-11.2 18c-3 2-6.2 3.7-9.6 5a90.3 90.3 0 01-31.7 4.8 148.8 148.8 0 01-42.2-7 178 178 0 01-39.2-17.1z"/><path fill="#4D876D" fill-rule="nonzero" d="M287.5 231.7a27 27 0 008.5-.9 25.8 25.8 0 0011-6.2l3-3.2c1.8-2.1 3.6-4.4 5.8-6.4l.8-.7.8-.7a13.7 13.7 0 016-2.9 7 7 0 014.4.8c1.3.7 2.3 2 2.8 3.5a7 7 0 01-2.6 8.1 8.3 8.3 0 01-4.2 1.6c-.7 0-1.6 0-2.3-.3a3 3 0 01-1-.9c-.3-.3-.5-.7-.6-1-.2-.8-.2-1.6 0-2.4 0-.7.2-1.5.5-2.2a18 18 0 012-3.9c1-1.2 2-2.3 3.2-3.1a9.7 9.7 0 014.2-1.6 7.6 7.6 0 014.4.8c1.3.7 2.5 1.9 3 3.3.6 1.5.5 3.2-.2 4.5-.8 1.4-2 2.6-3.7 2.6a2 2 0 01-1.3-.3l-.4-.6-.2-.6.1-1.2.3-1a9.1 9.1 0 012.4-3.8c1-1 2.3-1.9 3.9-2 .7-.2 1.5-.1 2.2.2a3 3 0 011.5 1.7c.4.7.4 1.5 0 2.3-.2.3-.5.6-1 .7h-.6a.8.8 0 01-.4-.5c-.4-1.6.4-3.1 1.5-4a4 4 0 012-.9c.8 0 1.5 0 2.2.2l2 .5h1.1c.4 0 .7-.2 1-.4a2.4 2.4 0 01-2 .5c-.7 0-1.4-.3-2.1-.4-.7-.2-1.4-.3-2.1-.2a4.1 4.1 0 00-3 2.6c-.2.3-.3.6-.3 1v1c.2.2.5.3.8.2.3 0 .5-.3.7-.6a3 3 0 000-1.9c-.4-.5-.9-1-1.4-1.3-.6-.3-1.3-.4-2-.3-.7 0-1.3.3-1.9.7-.6.3-1.1.8-1.6 1.2a8.4 8.4 0 00-2.4 4.6v1c0 .2 0 .5.2.6.2.2.5.2.8.2.3 0 .6 0 1-.2l.8-.5c.5-.4 1-1 1.2-1.5.6-1.2.7-2.6.2-3.8a5.7 5.7 0 00-2.6-3c-.6-.2-1.3-.5-2-.6a7 7 0 00-2 0 10 10 0 00-6.6 4.4c-.8 1.1-1.4 2.4-2 3.7a7 7 0 00-.3 3.9c0 .3.2.5.4.8l.6.6c.5.2 1.2.3 1.9.2a7.1 7.1 0 006-4.6 6 6 0 000-4 5.7 5.7 0 00-2.4-3 6 6 0 00-3.9-.6 12.5 12.5 0 00-5.6 2.7l-.8.6-.8.7c-2.1 2-4 4.2-5.8 6.3a54.5 54.5 0 01-6.5 5.8 26.7 26.7 0 01-16.6 4.1z"/><path fill="#C5505D" fill-rule="nonzero" d="M147.7 72.6a20.2 20.2 0 007-5.9c2-2.4 3.6-5 5.2-7.7l2.3-4 2.4-4 2.7-3.7 1.4-1.8 1.5-1.8 1.5-1.7 1.7-1.7.8-.8.8-.8 1.7-1.5 1.8-1.5.9-.8.9-.7 1.8-1.4 2-1.3.9-.7 1-.6 2-1.2 2-1.1 1-.6 1-.5c2.7-1.4 5.6-2.6 8.5-3.7l4.4-1.4 1.1-.3c.4 0 .7-.2 1.1-.3l2.3-.5a72.7 72.7 0 0127.7-.6l2.3.4 1 .2 1.2.2 2.3.5 2.2.7 1.2.3 1 .3 2.3.8 2.1.8c.4 0 .8.2 1.1.4l1 .4 2.2 1 2.1 1a35.8 35.8 0 0114.6 11.3 17.8 17.8 0 013.2 13.5c-.3 1.5-.8 3-1.6 4.4a11 11 0 01-3.2 3.5 12.5 12.5 0 01-9.2 2 9 9 0 01-6.8-6.2c-.5-1.5-.6-3.1-.5-4.7a14.2 14.2 0 013.8-8.6 19 19 0 013.6-3 29 29 0 018.7-3.5c3-.7 6-1.1 9.1-1.5l2.3-.3 2.3-.2 2.3-.2h1.2l1.2-.1 2.3-.1h9.3l2.4.1 2.3.2 2.3.3 2.3.2 2.3.3 2.3.4 2.2.4 1.2.2 1.1.3 2.3.5 2.2.6 2.2.6 4.5 1.4 2.2.8 2.2.8 1 .4 1.1.5 2.1 1c.7.2 1.4.6 2.1 1l1 .4.6.3.5.3a79.6 79.6 0 0128.1 23.9 68 68 0 0113 34.4 68 68 0 01-1.3 18.5 57 57 0 01-6.9 17.2c-3.2 5.3-7.3 10-10.5 15.1-1.6 2.7-3 5.4-3.8 8.3-.9 3-1.1 6-.7 9a14.6 14.6 0 007.3 10.9 37 37 0 004 2c3 1.2 5.8 2.2 8.6 3.6l2 1.1 1 .7 1 .6.5.4.5.3.9.7.9.8.4.4.4.4.9.8.8.8 1.5 1.8a35.1 35.1 0 014.7 8l.8 2.3.4 1 .3 1.2.1.6v.5l.3 1.2.2 1.1v1.2l.2 1.2v3.5l-.6 4.6-.5 2.3-.4 1-.3 1.2a31.6 31.6 0 01-10.7 14.9 53 53 0 01-7.7 5.1 89.4 89.4 0 01-8.3 4l-8.7 3.3-8.7 3.2-17.3 6.3 17.3-6.4 8.7-3.3a196.6 196.6 0 0016.9-7.3c2.7-1.5 5.3-3.2 7.6-5.2a32.1 32.1 0 0012.2-23.8v-3.3l-.1-1.2v-.6l-.1-.6-.2-1.1-.2-1.2v-.5l-.2-.6-.3-1-.4-1.2-.7-2.1a37 37 0 00-4.7-7.8l-1.5-1.8-.8-.8-.8-.8c0-.2-.2-.3-.4-.4l-.4-.4-.9-.7-.9-.8-.4-.3-.5-.3-1-.7-1-.6-2-1c-2.7-1.4-5.6-2.4-8.4-3.6-1.5-.7-2.9-1.3-4.2-2.1-1.4-.8-2.6-1.8-3.8-2.9l-.7-.9-.7-1a14.5 14.5 0 01-2.5-6.5 21 21 0 01.7-9.3 38.5 38.5 0 013.8-8.5c3.2-5.3 7.4-10 10.5-15.2a56.1 56.1 0 008-35.2A67.6 67.6 0 00359 55.4a86 86 0 00-15.2-10.2l-.6-.3-.5-.2-1-.5-2-1-2.2-1-1-.4-1.1-.4-2.1-.9-2.2-.7-4.4-1.4-2.2-.6-2.2-.6-2.3-.5-1.1-.2-1.1-.3-2.3-.4-2.3-.4-2.2-.3-2.3-.2-2.3-.3-2.3-.2h-2.3l-2.4-.2h-6.9l-2.3.1-1 .1h-1.4l-2.3.2-2.3.2-2.3.3c-3 .3-6 .7-9 1.5a28 28 0 00-8.5 3.4 18 18 0 00-3.4 2.8 14.3 14.3 0 00-3.5 8.1c-.2 1.5 0 3 .4 4.4a8.6 8.6 0 002.4 3.7 8 8 0 003.8 2 11.2 11.2 0 0011.5-5.2c.8-1.3 1.3-2.7 1.6-4.2.5-3 .1-6-1-8.9-1-2.8-2.8-5.3-5-7.4a37.7 37.7 0 00-11.3-7.7l-2-1a59 59 0 00-2.2-1l-1-.4-1.1-.4-2.2-.8-2.2-.7-1-.4-1.2-.3-2.2-.6-2.2-.5-1.1-.3-1.2-.2-2.2-.4a74.7 74.7 0 00-44.9 6.5l-1 .6-1 .5-2 1.1-2 1.2-1 .6-1 .7-1.8 1.3-1.9 1.4-.9.7-.9.7-1.7 1.5-1.8 1.5-.8.8-.8.8-1.6 1.7-1.6 1.7-1.5 1.8c-.5.6-1 1.1-1.4 1.8a49.2 49.2 0 00-5 7.7l-2.5 4a58.5 58.5 0 01-5.1 7.6 20 20 0 01-7.2 5.8z"/><g fill-rule="nonzero" transform="translate(1.6 123.9)"><path fill="#323230" d="M163.7 229.5l-1.9-1 1.9 1zm-94-44.3c1.6-2.6 4.9-3.2 7.3-5 .3-.2.7-.5.6-1a1 1 0 00-.5-.8c-.6-.2-1.2 0-1.8.1-5 1.6-9.9 4-14.2 7l4-4.1c-.8-.7-1.9-.3-2.7 0-9.6 4.3-18.4 10-27.2 15.7-.4-.5 0-1.2.3-1.7 2.1-3.2 4.5-6.2 7.1-8.8a85 85 0 0120.3-11 42.8 42.8 0 0128.5-.9l.5.2a55.5 55.5 0 0114.6 9.1l4.6 3.1c3-.6 6.2-.8 9.4-.5.6.6-.7 1.2-2 1.5l-1.6.2c.4 0 1 0 1.6-.2 2.5-.1 5.5.4 6 1.6 0 .2-.4.4-1 .6-1.7.1-3.5.4-5.2.9 1.5 0 4-.4 5.3-.9 4.7-.4 9.5.3 13.9 2 .7.3 1.1 1 1 1.7-.2.8-.8 1-1.4 1l-2.8.4c-1.2-.2-2.5-.2-3.8 0h3.8c1.3.2 2.6.6 3.7 1.1.4.2.8.7.7 1.2 0 .6-.6.8-1 1l-3 .7a15.5 15.5 0 0112 2.4c.4.3.6.6.7 1 .2 1-.8 1.6-1.7 1.9l-2 .4-3.3.1h3.3c4-.1 8.1.2 11.6 2.3.4.2.6.6.6 1 0 .7-.6 1-1.1 1-.9.4-1.8.5-2.7.5 3.4.3 6.8 1.3 9.9 2.8.5.3.8.7.8 1.3 0 .8-.6 1-1.1 1.3l-2.5.5c6.3.8 12.4 3.4 17.5 7.4l.5.8c.2 1-.6 1.4-1.3 1.6-4.2 1.2-8.5-.6-12.4-2.4 3.7 2.2 8.6 2.8 10.9 6.5.2.3.3.8.2 1.2-.2.7-1 .8-1.7.7-3.2-.2-6.4-1-9.4-2.3a19 19 0 013.7 2.6c.4.3.7.7.5 1.2a1 1 0 01-1.1.7c-3.6-.2-7-1.1-10.4-2.6.5.7 1.3 1 2 1.5.9.5 1.7 1.5 1 2.5-.4.7-1.3 1-2 .7a72 72 0 01-15.3-7.1l5.6 5.3.4.7c.2 1-1 1.4-1.9 1.3-6-.3-10.6-5.6-16.1-8.1l1.6 2.6c.3.3.5.7.4 1.1-.1.4-.4.6-.8.8-2 1-4.2-.9-5.8-2.5l-8-8.4a7.2 7.2 0 011 4.1c-.2.7-.5 1.3-1.1 1.7-1.3.7-2.6-.1-3.7-1a42.5 42.5 0 01-10.5-12.3 8 8 0 010 5.3c0 .3-.2.7-.5.9-.8.5-1.7-.1-2.2-.8a30.3 30.3 0 01-7-12.8l.4 1.4a7 7 0 01-.7 4.5c-.1.3-.3.5-.5.5h-.1a1 1 0 01-.5-.3l-.7-.6c-2.9-3.1-3.1-8-3.2-12.5l.4-.7c.7.5 1.4 1 2.2 1.2 1.7.5 3.6.3 5 1.3 1.7 1.3 2 4 3.8 5 .3.1.6.2.9 0l.1-.3.2-1.1v-.5c.1-.2.5-.3.8-.1.3.1.4.4.5.7v.1c2.7 2.5 3.3 7.1 6.4 9.3.3.2.7.4 1.2 0 .2-.3.4-.6.4-1 0-.6.6-1.6 1.2-1.3.3.1.4.4.5.7a18 18 0 004.5 6.5c.2.2.5.3.8.2.8 0 .7-1 1.2-1.6.4-.4 1.2-.4 1.7 0 .5.3 1 .8 1.3 1.3 2.1 3.2 5.2 6 9 6.6l.6-.1c.3-.3.2-.7 0-1.1l-.7-1.6c0-.2-.2-.5 0-.8.1-.3.5-.4.8-.3.5.1.8.6 1.2 1 1.6 2.3 4 4 6.7 4.6.3.1.7 0 1-.2.5-.6 0-1.4-.5-2-.5-.6-.6-1.8 0-1.9l.8.1c3.5 1.5 7 3.5 10.9 3.6.2 0 .5 0 .6-.2v-.6c0-.5-.3-1-.6-1.5-1.6-2.2-4.3-2.5-6.2-4.2l3.8 1.1c.4.1 1 .2 1-.2l-.3-.6a14 14 0 00-3-2.1c-5.2-3-11-5.2-17-6.3 2.8-1.2 6.2.5 8.8-1-5.5-4-12.6-4.3-19-6.3-.5-.1-1-.6-.8-1l9.4-.4a6 6 0 00-3-2.5c-4.5-1.7-9.6-.5-14.1-1.8 3.8-1.7 8.1-1 12-2.1.4-.1.8-.3.8-.8a1 1 0 00-.4-.8 14.8 14.8 0 00-8.6-1.5c-2.8.1-5.6.5-8.4 0 1.3-.4 2.7-.9 4-1.1a7.9 7.9 0 00-3.4-.4c1.2-.3 2.5-.7 3.7-1.2a.8.8 0 000-1.4c-.6-.4-1.5-.4-2.3-.3-2.3.2-4.6.6-6.9 1.2.4-.3.4-1 0-1.4-.4-.5-1.2-.4-1.8-.4l-5.8.4c.7-.8 1.8-1 2.8-1.2.5-.1.9-.3 1.3-.6.7-.5.3-1.6-.5-1.7-3.2-.3-6.5.6-9.7 1.4l7.7-2.4c.6-.1 1.3-.4 1.4-1 .1-.5 0-1-.5-1.3-.6-.5-1.4-.5-2.2-.5a41 41 0 00-13.9 3.3c2-2.1 5.2-2.6 7.8-3.7.8-.4 1.7-1 1.3-2-.1-.5-.7-.8-1.2-.8a26.2 26.2 0 00-15.3 4.4 7 7 0 01-2.6 1.3z"/><path fill="#323230" d="M96 226.6c-1.6.1-3.2-.3-4.5-1.3.1 2.2 0 4.4-.5 6.5 0 .3-.1.7-.4 1-.3.2-.7.2-1.1.2-3.3 0-6.6-.2-9.9-.5a7.4 7.4 0 014.3-1.2 17.6 17.6 0 00-5.5-6.1 66 66 0 0113-12.8l.7.6.5.3 2 4.5c-.8 0-1.6 0-2.4-.4l3.2 5a6 6 0 01-3.7-.6c1.1 1.9 2.6 3.5 4.3 4.8z"/><path fill="#323230" d="M15.1 214.7l1-.1c.2-.2.4-.5.4-.8 0-.3-.3-.5-.5-.6-.6-.3-1.4-.1-1.8.4.3 1 .6 1 1 1zm-15 9.2c1.7-4.4 4-8.5 6.2-12.6.7-1.3 1.6-2.7 3-3.1 1-.4 2.2 0 3.2.5s2 1 3 1.3c2 .5 4-.3 5.7-1l31.3-12.6v.1a60 60 0 0110.2-3.2c1-.2 2.1-.4 3.2-.2.4 0 .8.3.9.7l-.2.8c0 .5.4 1 .9 1.1.5.2 1 0 1.5 0 2.5-.6 4.9-1.8 7.4-1.9.6 0 1.4.2 1.4.8 0 .6-1 1.2-.6 1.8.1.2.5.2.8.2h4.6v.1l2.2.1c.8 0 1.7.2 2.3.7l1 1 .5.6-.4.7c0 4.4.3 9.4 3.2 12.5A64.3 64.3 0 0073 233.4c-.3.5-.2.4-.6.6-.4.2-.8.2-1.1.2-3.1 0-6.1-.3-9-1 1-1.2 2.5-1.9 4-1.8a24 24 0 01-1.8-9.3 32 32 0 00-21.7 6.5h-.1a25.3 25.3 0 01-4.2 5.1c-.9.8-.2 1.9-1.3 2.3-.8.3-3.2 0-4.1.2-2.3.4-4.8.8-7 .2-.3 0-.3-.5 0-.6l2-.6c.3 0 .5-.2.7-.3.5-.4.5-1 .3-1.7l-.3-.9c-1.3-2.3-3.1-4-5.2-5.7-1-.8-2.2-1.5-3.3-2.2-1.4-.9-2.8-1.7-3.9-2.8l-8 4.5a9.5 9.5 0 01-3.6 1.5c-1.3.2-2.7 0-3.8-.8.8-.3 1.1-1.4.7-2-.3-.5-.9-.8-1.4-.7v-.2zm9-4.5c0-.4-.2-.8-.5-1h-.7c-.4 0-.8.4-1 .9-.2.2-.4.6-.3.9l.3.3c.3.2.7.2 1.1.1a2 2 0 001-.7l.1-.5z"/><path fill="#C99F62" d="M176.3 69.5c.5.2 1-.1 1.3-.6.2-.4.2-.8.2-1.3.2-.1.2-.3.3-.4h.1c22.8 1.2 46 1.7 67.3 11 4 2.3 8.4 5 9.3 9.8 0 3.6-2.2 5.8-4.9 8a43 43 0 01-5.6 3.4V99c.6-1.5-.5-3.2-1.6-4.5A41.8 41.8 0 00209.2 81c-10.3.6-20.3 5.2-30.7 4.8-2.2-.1-4.7-.6-6-2.4-1.3-1.8 0-5.1 2.2-4.9a28 28 0 00-16.2 1.8 14.7 14.7 0 00-6.6 6.5 47 47 0 00-44.7 12.7l-.3.6c-3-1.3-6-3-8.5-5.3-1.3-1.8-3.6-3.6-3.2-6.1 0-6.5 9-10 13.8-12l6.7-2.3a160 160 0 0128.9-5.4 271 271 0 0126.1-1.6l1 2.6c.3.5.5 1 1 1.5.3.4.9.6 1.3.3.4-.2.5-.7.5-1.1.5.4 1.3 0 1.6-.5l.2-.6z"/><path fill="#C6D3D8" d="M256.9 143.8l2.7 1c-1 3.3-1.9 6.7-2.5 10.1l-.2-11.1zm96.5 19.5c.7-.4 1.3-1 1.7-1.8-3.4 7-6.6 12.8-10.3 19.7l-3.6.8v-.2c2.6-5.3 5.4-11.2 7.2-16.8a12 12 0 005-1.7z"/><path fill="#C6D3D8" d="M340 165.3h4.6a23 23 0 003.7-.3c-1.8 5.6-4.5 11.5-7.2 16.7v.2c-2.3.5-4.8.8-7.2 1 2.3-5.5 4.6-11.8 6.1-17.6z"/><path fill="#C6D3D8" d="M340 165.3a152 152 0 01-6 17.6 90 90 0 01-11.1.4c2.3-5.7 4.1-11.6 5.5-17.6l.1-1c3.8.4 7.7.6 11.5.6z"/><path fill="#C6D3D8" d="M328.5 164.7v1c-1.5 6-3.3 11.9-5.6 17.6-4.4 0-8.7-.4-13-1v-.2c2.2-6 4-12.3 5.3-18.6v-.6c4.5.8 8.9 1.4 13.3 1.8z"/><path fill="#C6D3D8" d="M315.3 162.9l-.1.6c-1.3 6.3-3 12.5-5.2 18.6v.3c-3.4-.5-6.7-1-9.9-1.7l-4.1-.8c2.5-6.4 4.6-12.9 6-19.5l.2-.5c4.3 1.1 8.7 2.1 13.1 3z"/><path fill="#C6D3D8" d="M302.2 159.8l-.2.5a119 119 0 01-6 19.5 204 204 0 01-14.5-3.9 196 196 0 006.7-19.8l.1-.4a295.8 295.8 0 0013.9 4.1z"/><path fill="#C6D3D8" d="M288.3 155.7l-.1.4a192 192 0 01-6.7 19.8c-5.3-1.5-10.5-3.3-15.7-5.1a214 214 0 007-20.4l.2-.3c5 2 10.1 3.8 15.3 5.6z"/><path fill="#C6D3D8" d="M273 150.1l-.2.3c-2 7-4.3 13.7-7 20.4l-8.7-3-.1-12.9c.7-3.4 1.6-6.7 2.6-10L273 150z"/><path fill="#C6D3D8" d="M137.7 198.7c.5-.1 1.1-.3 1.1-1 0-.5-.3-1-.7-1.1-1.1-.6-2.4-1-3.7-1.1l2.8-.4c.6 0 1.2-.3 1.4-1 .1-.7-.4-1.4-1-1.7a31 31 0 00-14-2c.6-.2 1-.4 1-.6-.5-1.2-3.5-1.8-6-1.6 1.3-.3 2.6-1 2-1.5-3.2-.3-6.3-.2-9.4.5l-4.6-3.1c-4-3.2-9-7-14.6-9l-.5-.3.2-.5-.2-.2c-.3-21.7-.6-42.4-.4-63.6h.3s2.8 24.4 88.5 21.2c65.4-2.5 75.2-17.6 77-21h.1v10.2a1795.3 1795.3 0 000 34l.2 13 .2 11.7c-2.3 12.6-38.6 22.5-83 22.5-9.8-.2-19.6-.3-29.4-1.3-3-1.5-6.7-2-10.1-1.3l2.8-.8z"/><path fill="#C5505D" d="M99.4 69.7l-.5-.9a81 81 0 01-1.8-6.8 6 6 0 01-.2-2.3c.1-.6.6-1.3 1.2-1.5l.1.1a62 62 0 0010.1 10.8c-2.6.6-5.3.9-8 .9-.2 0-.5 0-.8-.2l-.1-.1z"/><path fill="#C5505D" d="M101.2 77.1c-.7-2.4-1.3-5-1.8-7.4h.1c.3.2.6.2.9.2 2.6 0 5.3-.2 7.9-.9a93 93 0 004.5 3.6l-.2.2c-2.7.8-5.3 1.8-7.9 3l-3.3 1.5-.2-.2zM141.5 46c2.7 6.5 5.2 13 7.4 19.7v.3a185 185 0 00-31.4 5.4h-.2l.1-1c.6-3.3.3-6.7 0-10a38.8 38.8 0 00-1.6-7.3l25.1-7.3c.2 0 .5.1.6.3z"/><ellipse cx="63.7" cy="5.1" fill="#C5505D" rx="1.6" ry="4.9"/><path fill="#C5505D" d="M57 34.7c1.5 3.8 2 7.2.8 7.7l-.3.1c-1.2 0-3.2-2.5-4.7-6-1.5-3.4-2-6.6-1.1-7.5l.2-.1c1.2-.5 3.4 2.1 5 5.8z"/><path fill="#FFF" stroke="#000" d="M8.6 218.4c.3.2.6.6.5 1 0 .2-.1.4-.3.5-.2.3-.5.6-.9.7-.3.1-.7.1-1-.1a.9.9 0 01-.3-.3c-.1-.3 0-.7.2-1a2 2 0 011-.8s.4-.1.8 0z"/></g><path fill="#C6D3D8" fill-rule="nonzero" d="M258.6 278.8v-11.2c-.2-7.6-.2-15.2-.1-22.9v-2.9a340.8 340.8 0 01-37 33.7 150 150 0 01-25.2 16 163.2 163.2 0 01-55.4 14.4c-11 1-22 1.4-33.2 1.6l.5.4 4.6 3c3-.6 6.3-.7 9.4-.4.6.5-.7 1.2-2 1.4 2.5 0 5.5.5 6 1.6 0 .3-.4.5-1 .6 4.8-.3 9.6.4 14 2 .7.4 1.2 1 1 1.8-.1.7-.7.9-1.3 1l-2.8.3c1.2.2 2.5.6 3.7 1.2.4.2.7.6.7 1.1 0 .7-.6.8-1.1 1l-3 .8a15 15 0 0110.2 1.3c9.8 1 19.6 1 29.3 1.3 44.5 0 80.8-10 83.1-22.6l-.2-11.7-.2-12.8zm88 18.7c-1.2 2.7-2.5 5.5-3.8 8v.3a71 71 0 003.6-.7l4.8-9.2c-1.4.6-3 1.1-4.6 1.6z"/><path fill="#C6D3D8" fill-rule="nonzero" d="M346.6 297.5c-2.6.7-5.3 1.2-8 1.6l-3 7.7c2.4-.2 4.8-.5 7.3-1v-.2l3.7-8.1z"/><path fill="#C6D3D8" fill-rule="nonzero" d="M329.2 299.7h-2l-2.7 7.5c3.7 0 7.4 0 11-.4 1.1-2.4 2.1-5 3-7.7-3 .4-6.2.6-9.3.6z"/><path fill="#C6D3D8" fill-rule="nonzero" d="M315.5 298.4l-1.4-.2-2.5 7.7v.3c4.3.6 8.6 1 13 1 1-2.5 1.8-5 2.7-7.6-4-.1-8-.6-11.8-1.2z"/><path fill="#C6D3D8" fill-rule="nonzero" d="M302.7 295.8l-2-.5-3.1 8.4 4 .9c3.3.6 6.6 1.2 10 1.6v-.3l2.5-7.7c-3.8-.6-7.6-1.4-11.4-2.4z"/><path fill="#C6D3D8" fill-rule="nonzero" d="M286.5 290.6c-1 3.2-2.2 6.2-3.4 9.3 4.8 1.4 9.6 2.7 14.5 3.8 1.1-2.7 2.1-5.5 3-8.4-4.7-1.3-9.5-2.8-14.1-4.7zm-8.3-3.6c-2.2-1-4.5-2.3-6.6-3.5-1.3 3.7-2.7 7.5-4.2 11.2 5.2 1.8 10.5 3.6 15.7 5.2l3.4-9.3c-2.8-1-5.6-2.3-8.3-3.6z"/><path fill="#C6D3D8" fill-rule="nonzero" d="M259.4 275.4l-.7 3.4.1 12.9 8.6 3c1.5-3.7 3-7.4 4.2-11.2-4.3-2.4-8.3-5.1-12.2-8z"/><circle cx="10.2" cy="343.4" r="1" fill="#000" fill-rule="nonzero"/><path fill="#C99F62" fill-rule="nonzero" d="M137.6 202.5a11.2 11.2 0 01-1-8.6 132.8 132.8 0 00-26 6.5c-4.9 2-13.8 5.6-13.8 12-.4 2.6 1.8 4.3 3.2 6.1 2.6 2.4 5.4 4 8.5 5.3l.3-.6c9.2-9.7 23-14.8 36.3-14a15.8 15.8 0 01-7.5-6.7z"/><path fill="#C5505D" fill-rule="nonzero" d="M101 193.5a81 81 0 01-2.3-7.6 6 6 0 01-.2-2.3c.1-.7.6-1.3 1.2-1.5l.2.1a62 62 0 0010 10.7c-2.5.7-5.2 1-7.9 1-.3 0-.6 0-.8-.2l-.2-.2z"/><path fill="#C5505D" fill-rule="nonzero" d="M102.9 201c-.8-2.4-1.4-5-1.9-7.5l.1.1c.3.2.6.2.9.2a37 37 0 008-.9 93 93 0 004.4 3.6l-.2.2c-2.7.8-5.3 1.8-7.9 3l-3.3 1.5-.1-.2zm17.9-9.4a.3.3 0 010-.4c1.2-1.2 2.9-1.9 4.1-3-1 0-2.6-.1-2.3-1.3.1-.5.5-.9.9-1.1a7 7 0 011.8-1.1 17 17 0 014-1.3 32 32 0 004.5-1.7 9 9 0 002.6-1.7c-2.4.9-4.8 1.6-7.3 2.2l-2.5.7-2.5.7c-1.2.3-3 .8-4-.2s-.8-2.6-.8-3.8c0-1 0-2-.5-3l-1.3.5.4 1.4c.5 2 .8 3.9 1 5.8a37.8 37.8 0 010 11h.2l7.7-1.8c-2-.6-4.4-.2-6-1.9z"/><path fill="#323230" fill-rule="nonzero" d="M117.9 111.7l.4 1.8.7 4.6.4 2.2.2 1.1.2 1.4a12.1 12.1 0 004.8 7.2c.2.2.8.7 1.2.6a27.5 27.5 0 001.2-6.8 20 20 0 00-1.1-6.9l-.1-.2a13.3 13.3 0 00-6-6.8 4 4 0 00-.6-.3c-.4 0-.6-.3-1-.5-.7-.4-1.5-.6-2.3-.4 1 .6 1.6 1.8 2 3zm-7.1-3.5c-2.4.9-4.4 2.5-6 4.4a35.6 35.6 0 00-3.2 4.3l-.7 1c0 .2-.2.4-.3.4l-.2-.3.3-1 .4-1a14.6 14.6 0 015.4-6 13.1 13.1 0 014.3-1.8z"/><path fill="#FFF" fill-rule="nonzero" d="M286.4 221.8s5 18.8-3.5 25.3a78 78 0 00-24.5-2.4l.1-7.8c.6-2.8 2.9-9.6 12.7-13a44 44 0 0115.2-2z"/><g transform="translate(10.4 56.5)"><path fill="#4F8E99" fill-rule="nonzero" d="M95 52.2c.3-1.2 1-2.3 2-3.3.9-.9 1.9-1.6 3-2.2a19.7 19.7 0 017.3-2.3 15.3 15.3 0 015.7.6l1.8.8a12 12 0 013 2.3 9 9 0 012 3.2 10.8 10.8 0 00-5.3-5.1 13.4 13.4 0 00-7.1-1.3 19.7 19.7 0 00-10.2 4.2c-1 .9-1.7 1.9-2.2 3.1zm24 4l1.4 3.7a30.8 30.8 0 011.1 7.8c0 1.3 0 2.7-.3 4a77.7 77.7 0 00-1.3-11.7l-1-3.8zm-35.7 56.6l-2.5.5c-.3 0-.7.2-1 .4-.4.3-.6.6-.6 1-.1.3 0 .7.1 1.1l.3 1.2.7 2.4 2.4 9.6 2.2 9.7a168 168 0 012.1 9.7 321.8 321.8 0 01-5-19.2l-2.2-9.7-.6-2.4-.2-1.2c-.1-.4-.2-.9-.1-1.3l.3-.6c0-.2.2-.4.4-.5l1.2-.4 2.5-.3z"/><g fill="#4F8E99" fill-rule="nonzero"><path d="M90 62.7a13.6 13.6 0 019-13.1c1.8-.6 3.7-.8 5.5-.6a15.8 15.8 0 00-9.9 4 15.6 15.6 0 00-4.6 9.7z"/><path d="M98.8 53l2-1 2.2-.5a12.9 12.9 0 014.4.5 12.8 12.8 0 014 2.1 14.4 14.4 0 014.6 7.5c.4 1.4.6 3 .7 4.4 0 3-.5 5.9-1.4 8.7.7-2.9 1-5.8.9-8.7-.2-2.9-1-5.7-2.5-8.2a12.3 12.3 0 00-8.5-5.8 11.8 11.8 0 00-4.3.2 6 6 0 00-2 .8zm15.7-6.7c1-.3 2-.2 2.9 0a16.7 16.7 0 016.7 5.3l.4.6.4.6.4.7.3.6.6 1.3.3.7.2.7c.5 1.8.7 3.8.5 5.7 0-1-.1-2-.3-2.9v-.3l-.1-.4-.2-.6-.4-1.4a18 18 0 00-2.6-4.9l-.8-1.1-1-1-2-1.9a10 10 0 00-2.6-1.4c-.9-.3-1.8-.4-2.8-.3z"/><path d="M124.4 53a2.5 2.5 0 011.6-1.3c.6-.2 1.4-.2 2 0 .7.2 1.3.7 1.8 1.1.6.5 1 1 1.3 1.6a19.7 19.7 0 013 9.8 14.4 14.4 0 01-1.4 6 11.2 11.2 0 01-5.5 5.8 14.3 14.3 0 006-13.9 19.6 19.6 0 00-3.7-9c-.4-.5-1-.9-1.6-1.1-.6-.2-1.3-.3-1.9-.1-.6.1-1.2.5-1.6 1z"/><path d="M111.6 84.7c2 .1 4.3.1 6.3-.3 1-.2 2-.5 3-1 1-.4 1.8-1 2.5-1.8 1.5-1.4 2.6-3.3 3.4-5.3.7-2 1.2-4 1.8-6.2-.3 2.2-.6 4.3-1.4 6.4a13.1 13.1 0 01-3.3 5.6 10 10 0 01-5.9 2.8 18.1 18.1 0 01-6.4-.2zm16.5-19.3l.2.4.1.5v.4l-.3.5-.3-.5v-.9c0-.2.2-.3.3-.4zm-6.3-7.5c.4 1 .8 2.2 1 3.4a22.4 22.4 0 01-.1 7.2 14 14 0 01-1 3.5 42.2 42.2 0 00.6-10.6l-.5-3.5z"/></g><path stroke="#000" stroke-width=".3" d="M92.5 87.6c.1.4.6.6 1 .5.4 0 .8-.3 1-.5"/><g fill="#000" fill-rule="nonzero"><path d="M96.9 53.7a9.3 9.3 0 00-3 2.7l-1.2 1.7c-.2.3-.4.5-.5.9l-.6.8-.4 1.1-.5.9-.4.9-.4 1-.7 1.8c0 .4-.2.7-.3 1l-.2 1c-.7 2.6-1 5.3-1 8l.1 2.1.1 1 .2 1 .4 2 .2 1c0 .4.2.7.3 1a10.3 10.3 0 004.4 6.4l1.8.7h2a28 28 0 0016.7-10.6l.4-.5v.7c0 .2.5.4 1 .4l.6-.1.7-.2a12.3 12.3 0 004.9-2.6c.7-.6 1.3-1.4 1.6-2.3a3 3 0 00-.4-2.6 2 2 0 00-1.1-.7l-1.4-.3a6.3 6.3 0 00-4.6 2.9c1-1.7 2.7-2.8 4.6-3.1h1.5c.5.2 1 .5 1.2.9.6.8.8 1.9.5 2.8a6 6 0 01-1.6 2.5l-2.3 1.7a11.4 11.4 0 01-3.5 1.2l-.7.1h-.8l-.4-.3a.9.9 0 01-.2-.4h.4a27.8 27.8 0 01-17 11 6 6 0 01-2.2 0l-2-.8a8.8 8.8 0 01-3-3c-.8-1.2-1.3-2.5-1.7-3.8a30.5 30.5 0 013-24l.6-.8.5-.9 1.3-1.6a10 10 0 013.1-2.7z"/><path d="M113.9 78.3a5.8 5.8 0 014.1-2.6h1.7l-1.5.5-1.5.6-1.4.6-1.4.9zm-8.7-26.4c.5.2 1 .6 1.3 1l1 1.3c.4 1 .6 2 .9 3.1l1.1 6.4c.4 2.1 1 4.2 1.9 6.1.5 1 1 1.9 1.7 2.7a10 10 0 002.4 2.2 10 10 0 01-2.6-2 14.4 14.4 0 01-3.3-5.6c-.3-1-.6-2.1-.7-3.2l-1-6.4c-.2-1-.4-2.1-.8-3.1l-.7-1.5a3 3 0 00-1.2-1zm2 35l2.3-1.3a27.5 27.5 0 004.5-3 12 12 0 001.8-2c-.3 1-.8 1.7-1.4 2.4-.7.7-1.4 1.3-2.2 1.8a17.7 17.7 0 01-5 2.1zM94.7 66.2a29 29 0 00-4 7.6l-.2 1-.3 1.1-.3 2.1-.2 2.1c0 .4.2.7.4 1 .2.2.6.4 1 .4-.4 0-.8 0-1.1-.3a2 2 0 01-.6-1c-.2-.8 0-1.5 0-2.2a18.3 18.3 0 015.3-11.8zm-2.8 17.1c-.2.7-.1 1.4.1 2l.5.6h.3l.2-.1.1-.9v-1l-.4-.7-.4-.1h-.1l-.1.1-.1.1zm0 0l.1-.2.2-.1h.6c.4.2.6.6.7.9l.2 1v.6l-.2.6-.2.3-.4.2h-.4a.6.6 0 01-.3-.2 2 2 0 01-.7-1c-.2-.7 0-1.5.4-2zM88.6 72v-.4c.1-.1.3-.3.5-.3s.4 0 .6.2l.2.6c0 .2 0 .4-.2.5-.2.2-.4.3-.6.2a.6.6 0 01-.4-.3l-.1-.5zm0 0l.1.4h.3l.2-.1v-.5s0-.2-.2-.2h-.3l-.1.4zm12.6.9l.2-.4.4-.3c.2 0 .4 0 .6.2l.2.6c0 .2 0 .4-.2.6l-.6.2a.6.6 0 01-.4-.3l-.2-.6zm0 0l.2.5h.4v-.2l.1-.2v-.3l-.2-.2-.3.1-.1.4zm-12.6-5c0-.3.2-.7.4-1 .3-.3.8-.5 1.2-.5.2 0 .5 0 .7.2l.4.5c.2.5.1.9 0 1.2l-.4-1a.9.9 0 00-.7-.2c-.3 0-.6 0-.8.2l-.8.6zm12.2.4c.3-.5.7-.8 1.2-1a2 2 0 011.7.1c.5.4.8.9 1 1.5 0 .5 0 1-.3 1.5 0-.5-.1-1-.3-1.4-.1-.4-.4-.8-.8-1-.3-.2-.7-.3-1.2-.2-.4 0-.9.2-1.3.5z"/><path d="M109.8 56.2c.5 1.5.8 3.2 1.1 4.7.3 1.6.5 3.3.9 4.8.3 1.6.7 3.1 1.3 4.6.6 1.5 1.3 3 2.3 4.2-1.2-1-2.1-2.5-2.8-4-.7-1.5-1.1-3-1.4-4.7-.4-1.6-.6-3.2-.8-4.8l-.6-4.8z"/><path d="M113.2 62.9l.4 3 .5 2.8.5 2.9.6 2.9c-.4-1-.8-1.9-1-2.8a28.8 28.8 0 01-1.1-5.8v-3zM107 86.6a38.5 38.5 0 003.2 9.4 28.2 28.2 0 005.8 7.9 21.6 21.6 0 01-6.4-7.7 24.4 24.4 0 01-2.6-9.6z"/></g><path stroke="#000" stroke-width=".3" d="M95.9 99.6c.7.2 1.4.1 2.2 0"/><path stroke="#000" stroke-width=".5" d="M156.3 132.7c.2-1.4.4-2.8 1-4 .4-.6.8-1.2 1.5-1.3h1.1c1.6.7 2.6 2.1 3.4 3.6a22 22 0 012.2 6.6c.1.5.2 1.2-.3 1.6-.5.2-1 0-1.4-.4-.4-.4-.7-1-.9-1.5l-2.3-5.6"/><path stroke="#000" stroke-width=".5" d="M161 128c0-.5.3-1.3 1-1.5.4 0 .9.2 1.2.5a11 11 0 013.6 6c.3.8.5 1.7.6 2.6 0 .6.2 1.3-.1 1.9-.4.6-1.2 1-1.7.5"/><path stroke="#000" stroke-width=".5" d="M163.3 127c.2-.7.6-1.5 1.3-1.4l.6.2c1.2.7 2 2 2.5 3.2.9 1.9 1.2 3.9 1.3 5.9 0 .5 0 1-.2 1.5-.3.5-.8.8-1.3.6"/><path stroke="#000" stroke-width=".5" d="M165.3 125.8c.2-.4.6-.7 1-1 .6-.1 1.2 0 1.6.4.5.4.8.9 1 1.3a9.8 9.8 0 01.2 8.5"/><path fill="#FFF" fill-rule="nonzero" d="M89.5 125.6c-.4.1-.7.4-1 .8-.2.4-.3.8-.3 1.3 0 .9.4 1.7.6 2.6.4 1.8 1 3.5 1.5 5.2.1.4.2 1 .4 1.2 0 .2.2.3.4.3h.5a37 37 0 008.1-.5 27.5 27.5 0 01-8 1.2l-.8-.1c-.3-.1-.6-.3-.7-.5l-.3-.7-.2-.7-1.4-5.3-.3-1.3v-1.4a2.5 2.5 0 011-1.8c0-.2.3-.3.5-.3z"/><path d="M90.5 136.5a52 52 0 002 8m14.3-23.9l25.4-7.3c.2-.1.7.3.4.3"/><path d="M131.3 110.2a251 251 0 018.9 23l-.3-.7"/><path fill="#FFF" fill-rule="nonzero" d="M112.2 129.5a101.9 101.9 0 009-1.9 52.6 52.6 0 008.8-3.2 27.7 27.7 0 01-8.6 3.7 31.4 31.4 0 01-9.1 1.4zm6 .3c.7 0 1.4-.2 2-.4l2-.8c1.3-.5 2.6-1.2 4-1.5h.2c.2.2.2.3.2.5l-.1.4-.5.3-.8.5-1.8.8a170 170 0 01-3.5 1.7l-.1-.6 3-.2 3-.2h.4v.4l-.6.9-.8.4a8 8 0 01-.8.3l-.7.3-3.2 1-3.2 1-3.3.8 3.2-1 3.1-1.3a120 120 0 004.7-1.7c.4-.2.9-.5 1-1l.2.4-3 .2-3 .2-1.6.1 1.5-.7 3.5-1.5 1.7-.9.9-.3.3-.3v-.1h.3c-1.4.3-2.7.9-4 1.4l-2.2.6a7 7 0 01-2.1.3z"/><g fill="#000" fill-rule="nonzero"><path d="M96.5 90.7l.9 2.4a23.5 23.5 0 01.8 5.1c.1.9.1 1.8-.3 2.6.1-.8 0-1.6-.2-2.5l-.4-2.5-.4-2.5-.4-2.6zm-4 .2a16 16 0 002.2 6.5c1.2 2 2.6 4 4 5.9 2.6 3.8 4.6 8.1 6.6 12.3 1 2.1 2 4.3 2.6 6.6.6 2.3.8 4.6 1.1 7 .3 2.3.4 4.7.2 7l-.2 1.8c-.1.6-.2 1.2-.5 1.8a3 3 0 01-1.3 1.4 2 2 0 01-1 .3 2 2 0 01-1-.3l-.7-.5-.8-.5-1.3-1a89.7 89.7 0 01-8-7 47.5 47.5 0 01-8.3-11.4 36 36 0 01-4-13.4c-.1-1.2-.2-2.4 0-3.5 0-.6.3-1.2.6-1.7s.8-1 1.3-1.2c1-.6 2.3-.7 3.4-.8a25.3 25.3 0 000 .1c-1.1 0-2.3.3-3.3.8-.5.3-1 .7-1.2 1.2a4 4 0 00-.6 1.6c-.2 1.1 0 2.3 0 3.5.5 4.6 2 9 4.3 13.2a60.7 60.7 0 0019 20c.4.2.9.2 1.3 0 .5-.2.8-.7 1-1.2.3-.4.4-1 .5-1.5l.2-1.8c.2-2.3 0-4.6-.2-6.9-.2-2.3-.5-4.6-1-6.9-.7-2.2-1.6-4.3-2.6-6.5-1.9-4.2-3.8-8.5-6.4-12.4-1.3-2-2.7-3.8-3.8-5.9l-1.4-3.2c-.4-1.1-.6-2.3-.7-3.4z"/><path d="M91 99.7a30.6 30.6 0 013.3 8.3c.7 3 1.1 6 1.7 8.9a66.5 66.5 0 002.2 8.7 30 30 0 004 8 23 23 0 01-4.5-7.8c-1-2.9-1.8-5.8-2.4-8.8l-1.5-8.9-1-4.3c-.5-1.5-1-2.9-1.9-4zm1.6-8c0-.6-.4-1.2-1-1.5-.4-.3-1-.5-1.7-.6a11.7 11.7 0 00-3.7.3l-2 .2c-.6.1-1.2.2-1.9.1-.6 0-1.3 0-2-.3a4 4 0 01-1.6-1 6 6 0 003.7.8c1.2 0 2.4-.3 3.7-.5 1.3-.2 2.6-.4 4-.1.6.1 1.2.3 1.8.8.5.5.8 1.2.7 1.8z"/><path d="M91.8 100.7a5.2 5.2 0 00-2-1.7 7 7 0 00-2.7-.8l-2.7-.4a81.3 81.3 0 01-5.4-1.1c-.9-.2-1.8-.5-2.6-1a8 8 0 01-2-2.2L73 91.2a22 22 0 01-2.6-5.2l-.1-.8V85l.4-.4.8-.3h.7c1-.2 2 0 2.8.1l5.4 1.4 1.3.5c.5.2.9.5 1.1 1 .6.7.6 1.7.7 2.6l-.2-1.3c-.1-.5-.3-1-.6-1.3-.2-.3-.6-.6-1-.7l-1.3-.6a44.4 44.4 0 00-8.1-1.3l-.6.1-.7.2-.2.3.2.6c.5 1.7 1.4 3.4 2.4 5L75 93c.5.8 1 1.5 1.7 2a6 6 0 002.5 1 65.3 65.3 0 005.4 1.3l2.7.5c1 .2 1.8.5 2.6 1 .7.4 1.4 1 1.9 1.8z"/><path d="M72.4 84a5.7 5.7 0 01.3-1.5l.2-.2.1-.3h1.1l1 .3c1.4.3 2.8.8 4 1.4l2 .9c.5.3 1.2.7 1.7 1.2.3.3.5.6.6 1l.2 1c0 .7-.1 1.4-.3 2v-2c-.1-.7-.4-1.3-.9-1.7-.4-.4-1-.7-1.7-1l-1.7-.9c-1.2-.6-2.5-1-3.8-1.5l-1-.2-.5-.1h-.5s-.2 0-.2.2l-.2.5-.3 1z"/><path d="M75.5 82.4l.1-1c.1-.3.3-.7.7-.8.4-.2.8-.1 1.1 0l1 .2a14.7 14.7 0 015.1 3.3c.5.5 1 1.1 1.2 1.8.5 1.3.1 3-1 3.8 1-1 1-2.5.5-3.6-.2-.6-.7-1-1.1-1.5l-1.5-1.3c-1.1-.7-2.2-1.5-3.4-2l-1-.4c-.2.1-.4-.2-.7.1-.2 0-.5.2-.6.5 0 .4-.2.7-.3 1z"/><path d="M79.7 81.6l.3-.8c.2-.2.4-.5.7-.6.4-.1.7 0 1 .1l.7.7 2 2.6 1 1.4.5.8.1 1c0 .5-.2 1.1-.4 1.6l-1 1.4.7-1.5c.2-.5.3-1 .2-1.6 0-.5-.2-1-.6-1.4L84 84l-2-2.7c-.2-.5-.6-1-1-.8-.3 0-.5.2-.7.4l-.5.7z"/><path d="M91.7 90c-.4-.8-1-1.3-1.8-1.6l-2.3-1.1a5.2 5.2 0 01-1.9-1.9l-.6-1c-.2-.4-.5-.7-1-.8l.7.1c.2 0 .4.3.5.4.4.3.6.7.8 1a5 5 0 001.9 1.6l2.2 1.3c.4.2.7.6 1 1l.5 1.1zm18.3 6.6a9 9 0 003.4 1.7c1.2.4 2.5.6 3.8.7a29 29 0 007.6-.8c1.3-.3 2.6-.7 4-.4a7 7 0 013.5 1.8c1 .9 1.8 2 2.6 3l2 3.3 8.3 13.2 4.1 6.6 4 6.7-4.2-6.5-4.3-6.5-8.4-13.1-2-3.3c-.8-1-1.5-2.1-2.5-3-.9-.8-2-1.5-3.2-1.7a10 10 0 00-3.8.3c-2.5.6-5.1.9-7.7.7a18 18 0 01-3.9-.8c-1.2-.4-2.3-1-3.3-1.9z"/></g><path fill="#000" fill-rule="nonzero" d="M82.6 156.1c0-.5 0-1.1.2-1.7 0-.6.2-1.2.5-1.7a10 10 0 012-3 22 22 0 015.5-4.3 52 52 0 0113-5.2c-2 .9-4.3 1.7-6.4 2.7l-3.2 1.4-3 1.6a34 34 0 00-5.6 4.1 11 11 0 00-2.6 4.4 7 7 0 00-.4 1.7zm82.9 113.4h-14.7a186.5 186.5 0 01-14.7-1.3l7.4.3 7.3.3 7.4.3c2.4 0 5 .2 7.3.4z"/><g fill="#000" fill-rule="nonzero"><path d="M339.7 232.3a36 36 0 01-1.3 4.4l-1.7 4.3a69.2 69.2 0 01-4.2 8.2c.5-1.5 1.1-2.9 1.8-4.2l1.8-4.2a233 233 0 001.8-4.2l1.8-4.3zM251 212.2a32.5 32.5 0 01-1.2 5.1l-.7 2.5-.7 2.5c0-.8 0-1.7.2-2.6l.6-2.6.7-2.5 1-2.4zm80.3 20.6a44.3 44.3 0 01-2.5 9 80.8 80.8 0 01-3.6 8.6l1.5-4.4 1.6-4.4 1.5-4.4 1.5-4.4zm-11.6.2a55.7 55.7 0 01-3.8 13.7 28 28 0 01-1.9 4.3 238 238 0 012.9-9l1.4-4.4 1.4-4.5zm-13.2-2.1a56.2 56.2 0 01-3.5 14c-.5 1.6-1 3.1-1.7 4.6l1.3-4.7 1.3-4.6 1.3-4.6 1.3-4.7zm-13.2-3.2a54.2 54.2 0 01-2.3 10.1 67.4 67.4 0 01-3.8 9.6l1.6-4.8 1.5-5c.6-1.6 1-3.2 1.5-4.9l1.5-5zm-13.9-4.2a72 72 0 01-4.7 15.4 66 66 0 01-2.1 4.9c.5-1.8 1-3.4 1.7-5.1l1.7-5 1.7-5.1 1.7-5.1zm-15.3-5.7a75.1 75.1 0 01-3 10.6 138.2 138.2 0 01-4.2 10l1.8-5.1 1.8-5.2 1.8-5.1 1.8-5.2z"/><path d="M248 188.3c4.6-.5 9-.3 13.6.2a324.3 324.3 0 0139.1 9.2 158.1 158.1 0 0124.6 10.3l1.5.8.7.4.7.5 3 1.7 2.7 1.9.7.4.7.5 1.4 1 1.3 1 1.3 1 2.6 2.2a27 27 0 014.4 5.2l.8 1.6c.1.5.2 1.2 0 1.8-.1.6-.4 1.1-.8 1.6l-1.3 1.2-1.5.8a13.8 13.8 0 01-5 1.2l-3.3.2h-6.8l-3.3-.2a132.3 132.3 0 01-26.5-4c-8.7-2.1-17.2-4.9-25.7-7.9a631 631 0 01-24.9-9.8 613 613 0 0025 9.5c8.5 3 17 5.6 25.7 7.7a152 152 0 0029.8 4h6.7a38.4 38.4 0 006.5-.7l1.6-.6c.5-.2 1-.4 1.4-.8.8-.6 1.6-1.4 1.8-2.4.2-1-.2-2-.7-3a40.5 40.5 0 00-6.8-7.2c-.5-.2-1-.6-1.3-1l-1.4-.9-1.4-1-.6-.4-.7-.5-2.8-1.8-2.9-1.8-.7-.4-.7-.4-1.5-.8a120.6 120.6 0 00-24.6-10.3 323.2 323.2 0 00-39-9.6c-4.4-.6-8.8-.7-13.2-.4zm88.3 60.3a81 81 0 01-22.5 2.4c-7.6 0-15-1-22.5-2.5a204 204 0 01-32.6-9.5l-10.7-4 10.8 3.7 10.7 3.3c7.2 2.2 14.5 4.3 21.9 5.7a130.4 130.4 0 0033.7 2.4c3.8-.3 7.5-.8 11.2-1.6z"/><path d="M346.4 229a130.6 130.6 0 01-10.3 19.7 90.3 90.3 0 015-10 366.2 366.2 0 015.3-9.8z"/></g><g fill="#000" fill-rule="nonzero"><path d="M170 132.5a231.7 231.7 0 0149.6 5.4 89 89 0 0115.8 5.3c2.6 1 5.1 2.3 7.4 4a18.5 18.5 0 013.8 3.6l.6.9.6.9.2.5.2.5a7.6 7.6 0 01-.5 6.3 12 12 0 01-1.1 1.8c-.9 1.1-2 2-3 3a36.6 36.6 0 01-11 6c-2.6 1-5.3 1.7-8 2.5a155.5 155.5 0 01-32.8 6 259.6 259.6 0 01-33.3 1 260.7 260.7 0 01-33.3-3c-5.4-.8-11-1.9-16.3-3.3a83.8 83.8 0 01-15.6-5.8c-2.5-1.3-5-2.7-7-4.6a14 14 0 01-3-4.2l-.4-1 .4 1 .4 1c.7 1.1 1.6 2.2 2.6 3.2 2 1.8 4.5 3.2 7 4.4a84 84 0 0015.6 5.6 234.6 234.6 0 0049.5 6.1 317.4 317.4 0 0033.3-1c5.5-.6 11-1.3 16.5-2.2a144.7 144.7 0 0027.9-7.9 35.6 35.6 0 007-4.2c1.1-1 2.2-1.8 3-3a9.5 9.5 0 001.7-3.5c.3-1.3.3-2.7-.2-4l-.2-.5-.2-.4-.5-.9-.6-.8-.6-.8-3-2.8a38.3 38.3 0 00-7.3-4 97.4 97.4 0 00-15.8-5.2 245.5 245.5 0 00-49.5-6zm-61.3 6.4a142.5 142.5 0 0112.8-3.1l3.3-.6 3.3-.5 3.2-.5 3.3-.4c4.4-.5 8.8-.9 13.2-1l6.6-.3h6.6a425.9 425.9 0 00-26.3 2 217.1 217.1 0 00-19.5 3l-6.5 1.4zm140 106.9a8.4 8.4 0 01-1.9 5.2 19 19 0 01-4.1 4 47.2 47.2 0 01-10.1 5.1 99.5 99.5 0 01-21.9 6 217.7 217.7 0 01-45.1 3.5 263.7 263.7 0 0022.6-1.2 188.2 188.2 0 0044.2-8.7c3.5-1.3 7-3 10-5 1.6-1 3-2.3 4.3-3.8 1.1-1.5 2-3.2 2-5.1zM82.7 156v10.7l-.1 5.3v5.4c0 7.1-.1 14.3 0 21.4v32.1l.1 10.7.1.2-.1-.2-.4-10.7-.2-10.7a2353.9 2353.9 0 01-.1-42.9l.2-10.7.6-10.7z"/><path d="M248.7 156.2l-.2 11.3v11.4c-.1 7.6-.2 15.1-.1 22.7v22.7l.1 11.4V247l.2.2-.2-.2c0-3.8-.2-7.6-.3-11.3l-.3-11.4a2655.3 2655.3 0 010-45.4c0-3.8 0-7.6.2-11.4l.5-11.3zM98.4 166.8l2.1-2.2 2.3-2 2.5-1.9 2.6-1.7a46.6 46.6 0 0123.5-6.5h3l3.1.4 3 .6 3 .7-3-.6-3-.4-3-.2h-3.1a48.9 48.9 0 00-23.3 6.5l-2.6 1.6-2.5 1.7-2.4 2-2.2 2z"/><path d="M189.3 168.2a9.9 9.9 0 00-5.4-.3c-1.7.3-3.5.9-5 1.6-1.7.8-3.3 1.7-5 2.4-.8.4-1.6.8-2.5 1l-1.3.5-1.3.4c-1.8.3-3.6.6-5.4.6H162l-1.3-.2a24.5 24.5 0 01-8-2c-1.6-.8-3.2-1.7-4.7-2.8a19 19 0 01-3.9-3.8 12 12 0 01-2.3-5 10 10 0 01-.1-2.8v-.3l.1-.4.1-.7.4-1.3 1.3-2.5.8-1.1 1-1a15.7 15.7 0 017-4.3 36.3 36.3 0 0113.6-.7l-.2.6c-.4 0-.7 0-1 .3-.4.2-.6.5-.8.9-.4.7-.5 1.6-.3 2.4 0 .4.2.7.5 1 .3.4.6.7 1 .9l2.4 1 2.6.2h3.3l.7-.1 1.3-.1 2.7-.4c7.1-1.1 14-3.5 21.3-4a41.8 41.8 0 0131.3 10.6l1 1 .4.4.5.5.9 1c.6.7 1.2 1.4 1.6 2.2l.4 1.3c0 .5 0 1-.2 1.4.2-.5.2-1 .2-1.4 0-.4-.3-.8-.4-1.2-.5-.8-1-1.6-1.7-2.2l-1-1-.4-.5-.5-.4-1-1-1-.8a41 41 0 00-30.1-9.5 60.6 60.6 0 00-10.6 2c-3.5.7-7 1.6-10.6 2.2l-2.7.4-1.4.1h-.7l-.6.1h-2.8c-.9 0-1.8 0-2.7-.2-1-.2-1.8-.5-2.7-1l-1-1-.2-.3-.2-.3-.3-.7a4 4 0 01.4-2.9 3 3 0 011-1c.4-.4 1-.5 1.4-.4v.6a36 36 0 00-13.4.7 18 18 0 00-4.7 2.3c-.7.5-1.4 1.1-2 1.8l-1 1-.7 1c-.5.8-1 1.6-1.2 2.4l-.4 1.3-.1.6v.3l-.1.4v2.6a14 14 0 002.2 4.8 19 19 0 003.8 3.8 25.4 25.4 0 009.7 4.4c3.5.8 7.2.7 10.7 0l1.3-.3 1.3-.4 2.5-1 4.9-2.4c1.6-.7 3.4-1.3 5.2-1.6 2-.4 3.8-.3 5.5.3z"/><path d="M169.4 134.7l17.2.8c5.7.4 11.4.8 17 1.5 5.7.7 11.4 1.6 17 3a100 100 0 0116.1 5.3c2 1.2 4 2.3 5.9 4a10.2 10.2 0 013.6 6 8.2 8.2 0 01-1.5 5c-1 1.3-2.2 2.4-3.4 3.5A42.3 42.3 0 01228 170l-2.3.6-2.4.7a193.2 193.2 0 01-33.8 5.3l-4.9.4c-6.5.5-13 .7-19.5.7a220.6 220.6 0 01-48.5-5l-1.2-.3-1.2-.3-2.4-.6-4.7-1.1c-3.2-.8-6.3-1.7-9.3-3-3-1.3-5.9-3-8.3-5.2l-2.2-2.9-.8-1.6.8 1.6c.7 1 1.5 1.8 2.3 2.7 2.4 2.2 5.2 3.9 8.2 5.1a63 63 0 009.3 3l4.8 1 2.3.6 1.2.3 1.2.2 9.6 1.9c12.9 2.2 26 3 38.9 3 6.5 0 13-.4 19.5-.8l4.8-.4a245.9 245.9 0 0014.6-1.6 208 208 0 0019.1-3.8l2.4-.6 2.4-.7a38.3 38.3 0 0013-6.1c1.3-1 2.5-2.1 3.4-3.4a7.4 7.4 0 001.4-4.4 9.3 9.3 0 00-1.2-3 12 12 0 00-2.2-2.7 32 32 0 00-5.8-3.8 98.5 98.5 0 00-16.1-5.5 141 141 0 00-16.8-3.1c-11.3-1.4-22.7-1.9-34.2-2.5zm-83 21.3a8.5 8.5 0 011.7-4.8 17 17 0 013.9-3.4c2.9-1.9 6-3.2 9.2-4.4a108 108 0 0119.9-5.4 213.7 213.7 0 0130.6-3.1l10.3-.2-10.3.6a270.4 270.4 0 00-40.5 5.6 100 100 0 00-9.8 3 48 48 0 00-9.2 4.3 16 16 0 00-4 3.3 7.3 7.3 0 00-1.8 4.6zm-3.8 21.9c.1 1 .6 1.8 1 2.6l.8 1.1.8 1.1a24 24 0 004.1 3.7 67.1 67.1 0 0020.3 8.3l2.7.6 2.8.6 5.4 1c7.3 1 14.7 1.6 22 2a359 359 0 0044.2-1c1 0 1.9-.2 2.8-.3l2.7-.2 5.5-.6c3.7-.4 7.4-.9 11-1.5l5.4-1 5.5-1.2c3.6-.8 7-1.8 10.6-3l1.3-.5 1.3-.5 2.5-1c1.7-.8 3.4-1.6 5-2.6 1.5-1 3-2 4.4-3.2 1.4-1.2 2.6-2.6 3.5-4.2-.8 1.6-2 3-3.4 4.3a31.6 31.6 0 01-9.4 5.9c-.8.3-1.6.8-2.5 1l-1.3.6-1.3.5a100.2 100.2 0 01-16 4.4l-5.5 1c-7.3 1.3-14.6 2.1-22 2.7a420 420 0 01-44.3 1l-5.6-.4-5.5-.4-5.5-.6-2.7-.4-2.8-.4-5.4-1-2.8-.5-2.7-.7c-3.6-.9-7-2-10.5-3.3a44.1 44.1 0 01-9.8-5.3 22.3 22.3 0 01-5.6-6c-.5-.8-.9-1.7-1-2.6z"/></g><path fill="#4F8E99" fill-rule="nonzero" d="M277.4 176.2l49-.6 24.6-.2h12.3l12.2.2-24.5.3-24.5.3-24.5.2h-12.2c-4 0-8.2 0-12.3-.2zM.2 178.4l5.1-.3 5.1-.2 5.2-.2h5c6.9-.1 13.7 0 20.5 0l20.5.3h10.2l5.1-.1 5.1-.1-5 .2-5.2.2-5 .1-5.2.1H41l-20.4-.3H5.3l-5 .3z"/><path fill="#4D876D" fill-rule="nonzero" d="M262.8 164.3c-.6-2-1.5-4-2.7-5.8l-.5-.7-.2-.3-.3-.3-1-1.3-1-1.2-1.2-1.1a75 75 0 00-10.1-8l-5.3-3.6-2.7-1.8-1.3-1-1.3-1-2.6-2-2.5-2-1.2-1-1.2-1.1-2.4-2.2c-3.1-3-6.1-6-9-9.3l-1-1.2-.5-.6-.5-.6-2-2.5-.6-.7-.5-.6-1-1.3-1-1.3-.9-1.3-3.6-5.3-1.7-2.8-1.6-2.8-1.6-2.8-1.5-2.8-1.4-3-.8-1.4-.6-1.4-1.3-3-1.3-3-.6-1.5-.5-1.5-1.1-3a138.8 138.8 0 01-7.5-38L183 35v-3.2l.1-6.5.2-3.2.3-3.2.2-1.7.2-1.5.4-3.3.6-3.1.3-1.6.3-1.6.7-3.2.6-1.6c.2-.3.4-.6.7-.7.3-.2.6-.3 1-.3h1.7l1.6.5 3 .9 3.2 1A161.5 161.5 0 01246.5 28 133.2 133.2 0 01273 56c2.4 3.6 4.7 7.3 6.6 11.1a72 72 0 017.5 24.8c1 8.6.5 17.3-1 25.8-1.6 8.5-4.3 16.7-7.8 24.6a131 131 0 01-12.7 22.5l-.4-.7c2.6-.5 5.2-1 7.9-1.7l2-.5.9-.2 1-.3 1.9-.6 2-.6a33 33 0 001.8-.7l2-.7 3.7-1.4a111.5 111.5 0 0028-16l3.2-2.6 3-2.8c3.8-3.7 7.4-7.8 10.3-12.3l.5-.9.5-.9 1-1.7 1-1.8.2-.4.2-.5.4-.9.4-1 .4-.9.7-1.8 1.2-3.9.3-1 .2-1 .5-2 .5-1.9.1-.5.1-.5.2-1 .8-4 .5-4 .2-1v-1l.2-2 .2-2v-2l.2-4V76l-.1-1-.2-2v-2l-.3-2-.4-4-.7-4-.1-1.1-.2-1-.4-2-.4-2-.4-2-1-3.9-1.1-3.8-.3-1-.4-1-.6-1.9-1.4-3.8-1.4-3.8-1.6-3.7c-.5-1.3-1-2.5-1.9-3.6a4.2 4.2 0 00-2.3-1.7h-.4l-.3-.1h-.2a4 4 0 00-1.8.6l-1.7 1-1.7 1.2-1.7 1.1A93.5 93.5 0 00294 56.8a85.6 85.6 0 00-4.6 8.6A87.5 87.5 0 01313.7 33c2.1-1.8 4.3-3.3 6.6-4.9.5-.4 1-.8 1.7-1.1l1.7-1.2 1.7-1c.6-.4 1.2-.7 2-.8h.5l.5.2c.4 0 .7.2 1 .4.6.4 1.1.9 1.5 1.4.9 1.1 1.4 2.4 2 3.7l1.6 3.7 1.5 3.8c.5 1.2 1 2.5 1.3 3.8l.7 2 .3.9.3 1 1.2 3.8 1 4 .5 2 .4 2 .4 2 .2 1 .2 1 .6 4 .5 4 .2 2V73l.2 2v1l.1 1v9.2l-.1 1-.2 2.1-.2 2v1l-.2 1-.5 4.1-.8 4-.2 1v.5l-.2.5-.5 2-.5 2-.2 1-.3 1a53.7 53.7 0 01-6.6 14.8 69 69 0 01-10.4 12.6l-3 2.7-3.1 2.7a113.2 113.2 0 01-28.2 16.1l-3.8 1.5-2 .7-1.9.6-2 .6-1.9.6-1 .3-1 .3-2 .5-7.9 1.7-1 .2.6-1a132 132 0 0012.6-22.3c3.4-7.8 6.1-16 7.7-24.4 1.5-8.4 2-17 1-25.6a71.6 71.6 0 00-14-35.4 119.3 119.3 0 00-26.3-28 146.6 146.6 0 00-45.1-24.2l-3-1-3.2-1-3-.8c-1-.3-2.1-.7-3-.6-.5.1-.8.3-1 .7-.3.3-.4.8-.5 1.3l-.7 3.2-.4 1.5-.3 1.6-.5 3.2-.4 3.2-.3 1.5-.1 1.6-.3 3.2-.2 3.3c-.2 2-.1 4.2-.2 6.4v3.2a134.7 134.7 0 007.5 41l1.1 3 .6 1.5.6 1.5 1.2 3 1.3 3 .7 1.4.7 1.4 1.4 3 1.5 2.8 1.6 2.8 1.6 2.8c.5 1 1.1 1.8 1.7 2.7 1.1 1.8 2.4 3.6 3.6 5.3.3.5.6 1 1 1.3l.9 1.3 1 1.3.5.7.4.6 2 2.5.5.6.6.7 1 1.2c2.7 3.3 5.8 6.3 8.9 9.3l2.3 2.2 1.2 1 1.3 1.1 2.4 2 2.6 2 1.2 1 1.3 1 2.6 1.9 5.4 3.6c3.5 2.4 7 5 10 8l1.2 1.2 1 1.2 1 1.3.3.3.2.3.5.7c1 1.9 2 3.9 2.6 6z"/><path fill="#FFF" fill-rule="nonzero" d="M229 52.8a94 94 0 016.3 5l.8.6.8.7 1.5 1.4 1.4 1.4.8.7.7.7 1.4 1.5 1.4 1.5.7.7.7.8 1.3 1.5 1.3 1.6.7.7.6.8 1.2 1.7 1.2 1.6.6.8.6.9 1.2 1.7 1 1.7.6.8.5.9 1 1.7 1 1.8.6.9.5 1 .9 1.7.9 1.8.5 1 .4.8.8 1.9.8 1.9.4.9.4 1 .8 1.8.6 2 .4.9.3 1 .6 2 .6 1.9 1 3.9a71 71 0 011.7 8c.3 1.3.4 2.6.6 4l.2 2 .2 2a71.1 71.1 0 01-1.3 24.3 44 44 0 01-2.6 7.7l-.8 1.8-.4 1-.5.8-.3.5-.3.4c-.2.3-.5.4-.9.5a1.4 1.4 0 01-1.5-1c0 .3.3.6.6.7.3.2.6.2 1 .2.2 0 .5-.2.7-.5l.3-.4.2-.4.5-1 .4-.9.8-1.8c1-2.5 1.8-5.1 2.3-7.7a72 72 0 001.5-16 103 103 0 00-5.5-31.7l-.3-1-.3-1-.7-1.9-.7-1.8-.4-1-.4-1-.8-1.8-.8-1.8-.4-1-.5-.8-.9-1.8c-2.4-4.8-5.2-9.5-8.3-13.9l-1.1-1.6-1.2-1.6-.6-.8-.7-.8-1.2-1.6L245 68l-.7-.7-.6-.8-1.4-1.5-1.4-1.4c-3.8-4-7.8-7.6-12-10.9z"/><path fill="#FFF" fill-rule="nonzero" d="M327.3 43l.1 9v8.8c-.2 3-.4 6-.8 8.9l-.8 4.3-.5 2.2-.5 2.2-.6 2.1-.6 2.2-1.3 4.2-1.4 4.2-1.5 4.2-1.6 4.1a90.8 90.8 0 01-5.7 12c-3 5.2-6.4 10-10 14.7a228.2 228.2 0 01-23.9 26.3c-4.2 4.2-8.4 8.3-12.8 12.3a350.9 350.9 0 0036.1-38.9c3.7-4.7 7-9.5 10-14.6a78 78 0 005.7-12l1.6-4c2-5.6 4-11.2 5.5-16.9l.6-2.1.5-2.2.8-4.3c.5-3 .7-6 .9-8.9.2-6 .1-11.8.2-17.8z"/><path fill="#4D876D" fill-rule="nonzero" d="M248 181.6c.1-1.5.5-3 1-4.3l.6-1 .5-1 .3-.5.3-.4.7-1a20 20 0 017.1-5.3 33 33 0 018.6-2.5l2.2-.3 2.2-.2h4.7l.1.2a47 47 0 011.3 13.3c-.1 2.2-.5 4.5-1.2 6.6-.8 2-2 4-3.9 5.4 1.8-1.4 3-3.4 3.6-5.5a27.2 27.2 0 00.8-13.2c-.3-2.2-.7-4.4-1.2-6.5l.3.2h-2.2l-2.2.2-2.2.1-2.2.3c-3 .4-5.8 1.2-8.5 2.4a19.7 19.7 0 00-7 5c-2 2.3-3.3 5-3.7 8z"/><path fill="#4D876D" fill-rule="nonzero" d="M247.4 152.4a15.1 15.1 0 017.3 3.3 16.3 16.3 0 014.8 6.5c.7 1.7 1.1 3.5 1.3 5.3a27.3 27.3 0 00-2.3-6.3l-.7-1.1-.7-1-.9-1a18.4 18.4 0 00-6.3-4.7 15 15 0 00-2.5-1zm3.8 12.9l1 3.2a12.3 12.3 0 001.4 3c-.5-.3-.9-.7-1.2-1.2a6.9 6.9 0 01-1.1-3.2v-1.8zm7.5 23l1-3a24.5 24.5 0 013.3-5.6 12 12 0 012.4-2.3l-2 2.6c0 .2-.2.4-.4.6l-.4.7-.8 1.4-1.5 2.8-1.6 2.8z"/><path fill="#C5505D" fill-rule="nonzero" d="M110.1 95.7l1.1-2.9a29.6 29.6 0 012.9-5.2c.5-.9 1-1.7 1.7-2.5l-1.3 2.7-1.4 2.6-1.4 2.7-1.6 2.6z"/><ellipse cx="55" cy="72.5" fill="#C5505D" fill-rule="nonzero" rx="1.6" ry="4.9"/><ellipse cx="46.1" cy="103.1" fill="#C5505D" fill-rule="nonzero" rx="2.3" ry="7.4" transform="rotate(-23.4 46 103)"/><path fill="#C99F62" fill-rule="nonzero" d="M55.3 66.8c.5 0 1 .4 1.3.8l.6 1.5a24.8 24.8 0 01.4 4.7 12.8 12.8 0 01-.6 3 8 8 0 01-.7 1.5l.4-1.5.3-1.5v-3l-.1-1.5-.2-1.6c0-.4-.2-1-.4-1.4a2 2 0 00-1-1z"/><path fill="#C99F62" fill-rule="nonzero" d="M57.4 71.5c.7.4 1.5.5 2.2.5.8 0 1.5-.2 2.2-.3L64 71a7 7 0 002-1.1 4 4 0 01-1.8 1.5c-.7.4-1.5.6-2.2.8a6 6 0 01-2.4.2c-.8-.1-1.6-.4-2.2-1z"/><path fill="#C99F62" fill-rule="nonzero" d="M57.5 72.5a4 4 0 002.2.5 12.6 12.6 0 006.5-2 6 6 0 01-1.8 1.6c-.7.4-1.5.7-2.3.8h-2.4a4 4 0 01-1.2-.2 2 2 0 01-1-.7zM42.5 96c.2-.4.5-.6.9-.7h1.2c.4.1.7.4 1 .6l.8.9c.5.6.9 1.2 1.2 1.9l.7 2.1c-.5-.6-.8-1.3-1.2-1.9l-1.2-1.8-.7-.8-.8-.5c-.6-.3-1.4-.3-1.9.2zm6.5 14.4c.4 0 .8 0 1-.3.4-.1.5-.4.6-.7v-1l-.1-1.1c0-.4-.2-.7-.3-1l-.2-1-.7-2.2c.5.6.8 1.2 1.1 2 .4.6.6 1.3.8 2.1v2.3l-.4.6c-.2.1-.3.3-.5.3-.4.2-.9.2-1.2 0zm-.7-9.8c.8.2 1.6.2 2.3 0l2-1 3.7-2.8c1.2-1 2.4-2 3.8-2.7a10 10 0 014.3-1.7c-1.5.5-2.8 1.2-4 2l-3.7 3a19.7 19.7 0 01-6 3.5c-.8.1-1.7 0-2.4-.3z"/><path fill="#C99F62" fill-rule="nonzero" d="M49.2 103.1c1.5 0 3-.5 4.2-1.3 1.2-.8 2.3-1.8 3.3-2.8 1.1-1 2.2-2.1 3.5-3a7.6 7.6 0 014.2-1.3c-1.5.2-2.8 1-4 1.8l-3.2 3c-1 1-2.2 2-3.6 2.8l-2.1.8-1.2.1h-1z"/><path fill="#C5505D" fill-rule="nonzero" d="M185 53.1a109.7 109.7 0 00-33.4-31 122 122 0 00-20.4-10.3 79.4 79.4 0 00-22.3-5.2h-2.8l-2.9-.1-5.7-.1c-2 0-3.9 0-5.7.2l-2.9.2-2.8.4c-7.6 1-15.1 2.3-22.2 5.2-7.1 2.7-14.1 5.9-21.3 8.7l-5.4 2c-1.9.7-3.7 1.2-5.6 1.6a115.5 115.5 0 01-11.4 1.8c-.6.2-1.1.7-1.4 1.3l-.3 1v.4l.2.5a43.6 43.6 0 0016.8 24.5l.9.7.5.4.2.2.2.2A49.7 49.7 0 0057 61.8c2.3.2 4.6 0 6.9-.4a29.3 29.3 0 01-13.9-.3c-4.5-1-8.9-2.8-13-5l-1-.8a54.1 54.1 0 01-16.9-21 35 35 0 01-1.4-4.4l-.2-.6v-.7c0-.5 0-1 .3-1.4.4-.8 1-1.5 2-1.8a101 101 0 0016.8-3.3l5.4-2c7-3 14-6.1 21.2-8.9l2.7-1 1.4-.5 1.4-.4a83.8 83.8 0 0117-3.3l2.9-.4a95.2 95.2 0 0114.4-.4l3 .1 2.8.2c7.7.6 15.3 2.6 22.5 5.4a118.2 118.2 0 0134.5 20.8A95.7 95.7 0 01178 44.1a52 52 0 017 9zm1.9 8.7a42.8 42.8 0 00-27.2 3.4l-1 .5-1 .6-.5.3-.5.3-1 .7c-1.2.9-2.5 1.8-3.6 2.9-4.6 4-8.3 9.2-11.2 14.7a105.2 105.2 0 00-6.5 17.4 86 86 0 016-17.6 62.9 62.9 0 017.9-11.7l3.3-3.3a37.3 37.3 0 0125.9-9.4h1.2l1.1.1 2.4.2c1.7.2 3.2.5 4.7.9z"/><path fill="#C5505D" fill-rule="nonzero" d="M134.1 65.6a45.9 45.9 0 0125.5-10.3 51.2 51.2 0 0120.7 2.2c2.2.7 4.3 1.7 6.3 2.8a47.4 47.4 0 00-13.2-4 52.7 52.7 0 00-39.3 9.3zM19.2 28.8a62.4 62.4 0 0119.3 3.8 47.1 47.1 0 0112.8 7.6l.5.4.4.4 1 .9.8.8.9 1 .8.8.8 1 .8 1 .8 1 1.4 2 1.3 2c1.6 3 3 6 3.9 9.2L65 62l.2.6v.6l.6 2.5.3 2.4v1.3l.1 1.2a44 44 0 01-.8 9.9v2.9a56.5 56.5 0 00-.7 10.4 47.5 47.5 0 001.8 10.3 39.2 39.2 0 002.6 6l.3.6.4.6 1.6 2c2.2 2.7 5.2 4.8 8.4 6.2a23.4 23.4 0 01-10.2-8l-.4-.6-.3-.6-.6-1.2a37.6 37.6 0 01-4-20.5c.1-1.7.3-3.5.6-5.2v-3A41.4 41.4 0 0060.3 52l-1.2-2.1-1.4-2-.8-1-.8-1-.7-.9-.9-.9-.8-.9-.9-.8-.9-.9-.5-.4-.4-.4-2-1.5-2-1.5A49.3 49.3 0 0029 30a59 59 0 00-9.8-1.2zM75.7 39a32 32 0 0113.2-7.7c1.6-.5 3.3-.9 5-1a84 84 0 00-9.5 3.5 49 49 0 00-8.7 5.2zm111.8 26.5A21.5 21.5 0 00176 76.6l-1.7 3.8-.3 1-.2.4-.2.5-.5 2c-.7 2.6-1.2 5.3-1.5 8l-.7 8.2c-.2 2.7-.3 5.5-.6 8.2a50.3 50.3 0 01-3.9 16 52.5 52.5 0 003.4-16c.4-5.5.5-11 1.1-16.5a53 53 0 011.6-8.1c.1-.7.4-1.4.6-2l.2-.5.2-.5.3-1a39.9 39.9 0 014-7.2l2.8-3.1a19.6 19.6 0 017-4.3zm-87-35.9a98.4 98.4 0 0145.5 7.6 156.8 156.8 0 0131 15.9l9.5 6.5a310.3 310.3 0 00-19.8-12 162 162 0 00-21-9.7 131.9 131.9 0 00-33.7-8c-3.8-.3-7.7-.4-11.5-.3z"/><path fill="#C5505D" fill-rule="nonzero" d="M50.2 103.1a40.4 40.4 0 0019.7 7.2 24.7 24.7 0 01-10.5-1.6c-3.4-1.2-6.6-3-9.2-5.6zM33.5 52.9c1.6 1.1 2.9 2.5 4 4.2a18.2 18.2 0 012.6 8v1.4l.1 1.5c0 1.9-.3 3.8-.6 5.6l-.3 2.8c-.1 1-.2 1.9-.1 2.8a32.1 32.1 0 004.3 16.1A30 30 0 0139 73.5c.3-1.9.6-3.7.6-5.6.1-1.8 0-3.7-.5-5.5-.4-1.8-1-3.6-2-5.2-.9-1.6-2-3.1-3.6-4.3z"/></g><path d="M156 208.2c.4 2.7 1 5.4 1.9 8"/><circle cx="245.1" cy="153.2" r="9.2" fill="#FFF" fill-rule="nonzero" stroke="#4F8E99" stroke-width=".5"/><circle cx="259.7" cy="180.1" r="6.1" fill="#FFF" fill-rule="nonzero" stroke="#4F8E99" stroke-width=".5"/><path fill="#323230" fill-rule="nonzero" d="M30.8 356.7c0 .8-1 1-1.6 1.2-2.3.5-4.6 1-7 1-.4-.1-1-.3-1-.7l2.5-1.1.5-.4c.2-.2.2-.5.3-.8l.7-5.4c1-.2 1.6 0 2.7 0s2.2.3 3 1.2c.7.7 1 1.8 1.2 2.8.1.3.2.7 0 1-.2.4-.7.5-1.1.6-.4.2-.1.2-.2.6z"/><g fill="#000" fill-rule="nonzero"><path d="M212.6 237.7l3-.4 3.1-.5 3-.5 3-.6a113.6 113.6 0 0023.3-7.5c1-.4 1.8-.9 2.7-1.4l2.7-1.5 2.6-1.7 1.2-.9 1.4-.9-2.4 2-2.5 1.8-1.3.8-1.4.8c-.9.5-1.7 1-2.7 1.4a75.9 75.9 0 01-11.4 4.6c-4 1.2-8 2.2-12 3l-3 .4-3 .5-3.1.3-3 .3z"/><path d="M124.9 237.2c-.7-.2-1.5 0-2.1.5-.6.5-.9 1.2-.8 2 0 .4.2.7.3 1 .2.4.6.6.9.7l2.1.8c3 1 6 1.6 9 2.2a228.4 228.4 0 0054.7 3 230 230 0 0036.2-5.5l4.4-1.1a98.2 98.2 0 0013.1-4.2c5.7-2.2 11.2-5 16-8.7a63.3 63.3 0 01-15.8 9 114.5 114.5 0 01-13.1 4.3l-4.5 1.2-4.4 1-4.6 1-4.5.8-4.5.8a231.1 231.1 0 01-36.6 2.5 216.8 216.8 0 01-36.5-3.7c-3-.7-6-1.3-8.9-2.3-.7-.3-1.5-.5-2.1-.9l-1-.7-.3-1.1c0-.8.3-1.6.9-2.1.6-.5 1.4-.6 2.1-.4z"/></g><g fill="#000" fill-rule="nonzero"><path d="M17.9 345.6l-1.9 1.1-1.8 1.1-3.7 2.2c-1.2.7-2.4 1.5-3.9 1.8a6 6 0 01-4.3-.8l-.5-.3.6-.2c.5-.2.8-1 .5-1.5-.1-.6-.9-1-1.5-.8-.7 0-1.2.7-1.2 1.4 0 .3.2.7.4 1 .3.2.7.3 1 .2a1 1 0 01-1-.2c-.4-.2-.6-.6-.6-1-.1-.8.5-1.6 1.3-1.8l1.2.1c.4.2.8.5 1 1v1.2a2 2 0 01-1 1l.2-.6a5 5 0 003.8.7c1.3-.3 2.5-1 3.7-1.7l3.8-2 1.8-1 2-1z"/><path d="M1.2 348c.6-2.8 1.1-5.6 2-8.3.4-1.4.9-2.7 1.6-4 .6-1.2 1.5-2.3 2.6-3.3l.8-.7.9-.6 1-.5a83 83 0 018.7-4l1.9-.8 1.9-.9c5-2.5 9.6-5.8 14-9.2 4.6-3.5 9.2-6.8 14-9.8 4.9-3 10-5.5 15.4-7.2a48.9 48.9 0 0117-2.3 36.7 36.7 0 0116 4.9 61 61 0 017 4.8l3.4 2.6a110.8 110.8 0 00-.1 0c-1.2-.7-2.3-1.7-3.4-2.5a56.7 56.7 0 00-7-4.7 36.2 36.2 0 00-16.2-4.6c-5.6-.3-11.3.6-16.6 2.3a72 72 0 00-15.1 7.2c-4.9 3-9.4 6.3-14 9.7-2.3 1.7-4.5 3.4-6.9 5a51.6 51.6 0 01-7.3 4.2l-2 .9-2 .8a82.6 82.6 0 00-7.7 3.3l-1 .5-.9.5-1.6 1.3c-1 1-2 2-2.6 3.2a22 22 0 00-1.7 3.9l-1.1 4-1 4.3zm105.9-35.3a30 30 0 0115-2.2l.2.2v.3l-.5.4a6 6 0 01-2 .7l-1.2.1h-.5l.5-.1a13.6 13.6 0 016 .2l1 .4c.2.2.5.4.7.8l-.3.4-.4.2-.8.3-1.6.4c-1 .2-2.1.3-3.2.3h-.9l.9-.2a29.7 29.7 0 017.5-1 32.3 32.3 0 0111 1.8l.5.2.5.2.7.7c.2.3.2.7.2 1 0 .4-.3.7-.6.9l-1 .3c-.3 0-.6 0-1 .2l-1.8.1h-3.8l-1.7-.1 1.7-.3c2.3-.3 4.7 0 6.8.9.3 0 .5.2.8.3.3.2.6.4.7.7.1.4.2.7 0 1 0 .4-.4.6-.7.7-.3 0-.6.2-.8.3l-.9.2-1.6.4-.1-.4a16 16 0 0110.8 1.6 24.2 24.2 0 011.8 1.2l.3.7c.1.3.1.6 0 .8 0 .3-.2.5-.4.7-.4.4-.8.6-1.3.7-1.8.6-3.6.8-5.5.6v-.5h6a19.5 19.5 0 018.6 2.1l.3.1.3.2c.3.2.5.5.6.8v.9l-.7.6-.8.3a5 5 0 01-.7.1l-1.5.3-3-.1v-.6a28 28 0 0112.7 3c.5.2.9.7 1 1.3 0 .3 0 .6-.2.9l-.6.6-.8.2-.7.2c-1.9.5-4 .5-5.8 0l-2.6-.6h2.6a34.8 34.8 0 0119.9 6.4l1 .7 1 .8.5.6.1.7c0 .3-.1.6-.3.8l-.5.5-.6.2-.7.2c-.8.2-1.6.3-2.5.2a17 17 0 01-5-.9l-4.5-1.8.3-.6c2 1.2 4.2 1.8 6.3 2.9a12.7 12.7 0 013.7 2.4l.5.7.3.4.3.4c.1.3.2.7.1 1 0 .2 0 .4-.2.6l-.4.4-1 .2h-.9a1231908.5 1231908.5 0 00-4.3-.7c-2.3-.6-4.5-1.5-6.6-2.6l.3-.5a21.4 21.4 0 015.9 3.8l.4.7c0 .6-.3 1.1-.8 1.4l-.8.1h-.6a28 28 0 01-9.8-2.7l.4-.4c.2.4.6.7 1 1 .5.2 1 .4 1.4.8.4.3.8.9.9 1.5l-.2 1-.7.6a2 2 0 01-1.7.3l-.4-.1-.3-.2-.8-.2-2.9-1.1a74.2 74.2 0 01-11.1-5.6l.4-.5 5.3 5.1.4.4.3.4v1.1c-.2.4-.6.6-1 .7-.2.2-.6.2-1 .2a13 13 0 01-3.6-.8c-1.2-.4-2.3-1-3.4-1.6l-3.1-2c-2-1.4-4-2.8-6.3-3.8l.4-.4 1.6 2.5.4.7v1l-.6.6-.4.1-.4.2h-1.6l-1.4-.7c-1-.5-1.7-1.2-2.4-2l-8.2-8.6.3-.2c.5 1 1 2 1 3.2v.9c0 .3 0 .6-.2.8-.2.6-.7 1-1.2 1.3-.6.3-1.3.2-1.8 0l-1.5-.8a53.4 53.4 0 01-7-7.1 39.6 39.6 0 01-3.8-5.6l.3-.1a8.4 8.4 0 01.3 4.4l-.2.8-.4.7a1 1 0 01-.6.5c-.2.1-.5.1-.8 0-.5 0-.9-.5-1.3-.8a32.7 32.7 0 01-5-7.4c-.8-1.8-1.5-3.7-2-5.6h.1a7 7 0 010 5.3l-.3.6c0 .2-.2.4-.4.5-.2.1-.5 0-.7-.1l-.5-.5a8.8 8.8 0 01-1.6-2.1 14.2 14.2 0 01-1.6-5.2 43 43 0 01.6 2.6l1 2.5a8.1 8.1 0 002.1 2.6c.2.1.4.2.6.1.2 0 .3-.2.4-.4l.3-.7c.7-1.6.7-3.6 0-5.2h.1a30.8 30.8 0 007.1 12.8c.4.4.7.7 1.2.8.4.1 1 0 1.1-.5l.3-.6.2-.7.2-1.5c0-1-.1-2-.5-2.8l.3-.2a44.4 44.4 0 0010.8 12.5c.4.4.9.6 1.3.8.5.2 1 .2 1.5 0s.9-.5 1-1c.3-.5.3-1 .3-1.5 0-1.1-.6-2.1-1-3.1l-.7-1.2 1 1 8.3 8.6c.6.7 1.4 1.3 2.2 1.8.8.5 1.8.8 2.7.6l.3-.1.3-.1.4-.5c.2-.3 0-.7-.3-1.1l-1.7-2.5-.4-.7.8.3c2.2 1 4.3 2.5 6.3 3.9 2 1.3 4.1 2.7 6.4 3.5 1.1.4 2.3.7 3.5.8.3 0 .5 0 .8-.2.2 0 .4-.2.5-.4v-.6a1 1 0 00-.2-.3l-.3-.3-5.4-5-2-2 2.4 1.5a72.9 72.9 0 0013.9 6.6l.7.2.3.1.4.1c.4.1.9 0 1.2-.2.4-.2.6-.6.6-1s-.3-.8-.7-1.1c-.3-.4-.8-.5-1.2-.8-.5-.3-1-.6-1.3-1.1l-.6-.9 1 .5a29 29 0 009.6 2.5h1.1l.3-.3c0-.2.1-.3 0-.4 0-.3-.3-.5-.6-.8l-1-.8a20 20 0 00-4.2-2.4l.2-.6a28.5 28.5 0 0010.7 3.2h.8l.7-.1c.2-.1.2-.3.3-.5a1.1 1.1 0 00-.3-1l-.2-.4-.6-.6a10.8 10.8 0 00-3.5-2.4c-2-1-4.3-1.6-6.4-2.9l.3-.5a36.6 36.6 0 009.3 2.8l2.4-.3a2 2 0 001-.3c.3-.2.5-.5.5-.7 0-.3 0-.7-.3-.9l-1-.7-1-.7-1-.7a35.5 35.5 0 00-18.5-5.6v-.6a11.7 11.7 0 006.3-.2l.6-.2c.4-.2.6-.5.5-.9 0-.4-.2-.7-.6-.9l-1.3-.6a27.5 27.5 0 00-11.1-2.3v-.5a12.2 12.2 0 005.7-.5c.2-.1.3-.3.3-.4v-.5a1 1 0 00-.2-.5l-.3-.1-.4-.2a16 16 0 00-2.6-1.1c-1.9-.6-3.8-.9-5.8-1H142v-.4c1.8.1 3.6 0 5.3-.6a3 3 0 001.1-.6c.3-.2.4-.6.3-1l-.2-.5-.5-.4-1.2-.7a15.7 15.7 0 00-10.5-1.6v-.4l1.6-.4.8-.3.8-.2c.3-.1.5-.2.6-.4v-.7a1 1 0 00-.6-.5 13.3 13.3 0 00-7.4-1.2v-.4a28.6 28.6 0 006.5-.3l.8-.2c.5-.3.6-1 .3-1.5 0-.2-.3-.4-.5-.5l-.5-.2-.4-.2c-1.2-.4-2.4-.8-3.6-1a31.8 31.8 0 00-14.8.1v-.2a18 18 0 005.5-1l.3-.2.3-.3-.7-.6-.9-.4a13 13 0 00-6-.3l1.2-.1 1-.3c.4 0 .8-.2 1-.4.2 0 .4-.2.4-.4 0 0 .1-.1 0-.2v-.2c-5-.6-10.1.2-14.9 2z"/><path d="M76.7 329.3a18 18 0 00-9.7 11 22.8 22.8 0 001.1 14.8l.3.5h-.5c-1.5-.1-3 .6-4 1.8l-.1-.5a47.5 47.5 0 007.3.9h2.4l.2-.1.3-.2h.1l.2-.3.6-1A75.3 75.3 0 0182 346l1.7-1.9 1.7-1.7a67 67 0 017.7-6.4l-2 1.6-1.9 1.6a71 71 0 00-3.5 3.4l-1.7 1.9a82.6 82.6 0 00-7.4 9.8c-.5.7-1 1.4-1.3 2.1l-.6 1-.2.4-.1.2h-.2l-.3.2-.4.1H71a32.2 32.2 0 01-7.4-.9h-.5l.3-.5c1-1.3 2.7-2 4.4-2l-.3.5c-1-2.4-1.6-5-1.8-7.5a21 21 0 01.9-7.7 17.5 17.5 0 0110-10.9z"/><path d="M79.7 348.8a17.4 17.4 0 016 6.3v.3h-.2c-1.5 0-3 .3-4.2 1.2v-.5l4.6.3 4.6.2h1.1c.3-.1.5-.3.6-.6l.2-1.1.2-1.2c.2-1.5.2-3 .2-4.6v-.6l.5.4a6 6 0 004.2 1.2l-.2.6c-1.7-1.4-3.2-3-4.3-4.9l-.5-.8.9.4a6 6 0 003.5.7l-.1.3-3.3-5-.2-.5.4.2c.8.3 1.7.5 2.5.4v.1l-1.2-2.3-1-2.4 1.2 2.3 1.1 2.4h.1l-.2.1a6 6 0 01-2.6-.3l.2-.2 3.4 5 .2.2-.4.1c-1.3.2-2.6 0-3.8-.6l.3-.4c1.1 1.8 2.5 3.4 4.2 4.6l.6.5h-.7c-1.7.2-3.4-.3-4.7-1.3l.5-.2c0 1.5 0 3.1-.2 4.7l-.2 1.1-.3 1.2-.4.7-.7.3h-1.2a112.3 112.3 0 01-9.3-.5l-.6-.1.5-.4a7.5 7.5 0 014.4-1.1l-.1.2a21.6 21.6 0 00-5.6-6.4zm-62.5-4.2a13 13 0 002.7 2.3l3 1.9c2 1.3 4 2.7 5.6 4.5a15 15 0 012.2 3c.3.5.5 1.1.4 1.8-.1.4-.3.8-.6 1l-1 .3-1.7.6h-.1l.3.1h.4c1.2.3 2.3.2 3.5.1l1.7-.2 1-.1.9-.1h2.7l.6-.3c.2-.1.3-.3.3-.6l.3-.9.2-.4.4-.4.6-.6a30.5 30.5 0 004.2-5.7 28.9 28.9 0 002.4-6.7l.4-3.5a26 26 0 01-1 7A24.9 24.9 0 0141 357l-.6.6-.5.6-.2.8c0 .2 0 .3-.2.5 0 .2-.2.3-.3.5l-.5.2h-.5l-.9.2h-2.6l-.9.1-1.8.3c-1.2.1-2.4.2-3.6 0l-.5-.2h-.2c-.1 0-.2 0-.3-.2-.2-.1-.3-.5-.2-.7 0-.2.2-.3.3-.4h.2l1.8-.6c.3 0 .5-.1.7-.3.2 0 .3-.3.4-.5 0-.5-.1-1-.4-1.6-.5-1-1.2-2-2-2.8a27.2 27.2 0 00-5.4-4.6l-3-2c-1-.6-2-1.3-2.6-2.3zm-2-8c0-.6.4-1 .8-1.3.4-.4 1-.5 1.5-.5.6 0 1.1 0 1.6.4.5.3.8.8 1 1.4 0 .6 0 1.2-.3 1.7s-.7 1-1.2 1.1a3 3 0 01-1.6 0c-.5 0-1-.2-1.4-.5.4.2 1 .3 1.4.3.5 0 1 0 1.4-.3.8-.4 1.3-1.3 1-2.1a2 2 0 00-.6-1c-.3-.3-.8-.5-1.3-.5-.4 0-.9 0-1.3.3a2 2 0 00-1 1z"/><path d="M15.9 337.4c.2-.5.8-.8 1.4-.8.3 0 .6.2.9.4l.2.5v.6c-.1.3-.4.5-.7.6a2 2 0 01-1 .1l-.4-.2-.3-.4-.1-.8zm0 0l.4.7.2.2h.3l.6-.1c.2 0 .3-.2.4-.4l-.1-.4a1 1 0 00-.5-.3c-.4 0-.9 0-1.3.3zm28.4 15.1a28 28 0 0122-6.5 44 44 0 00-11.6 1.5 36.5 36.5 0 00-10.4 5z"/></g><circle cx="1.9" cy="349.4" r="1" fill="#C5505D" fill-rule="nonzero"/></g></svg>