<svg xmlns="http://www.w3.org/2000/svg" viewBox="0 0 400 400"><g fill="none" fill-rule="evenodd"><path fill="#0C2A3E" fill-rule="nonzero" d="M309.1 373.7c3.7 2 3.8 3 3.4 3.8-.4.8-1.5 1.4-2.3.8-.7-.5-.7-1.5-.6-2.3-3 2.4-6.7 4-10.5 4.7-1.5.3-3.1.4-4.6 0-.7-.1-1.5-.6-1.3-1.3 0-.6.7-1 1.3-1 4.9-1.7 10.2-2.2 14.6-4.7zm-7.3-189.5v.1c0 .4-.1.8-.4 1.1-.6.6-1.7.4-2.3-.1-.6-.6-.9-1.4-1.1-2.2l-1-3v-.2l-.2-.4c-.2-.3-.7-.4-1-.4h-.2v-.3l.3-.7c1.1-1.9 3.8-2.9 5.8-2 1.2.5 2.2 1.6 2.9 2.7 1.3 2 2 4.3 2.2 6.7 0 .6 0 1.5-.7 1.9-.6.4-1.4 0-2-.3-1-.7-1.9-1.8-2.3-3z"/><path fill="#0C2A3E" fill-rule="nonzero" d="M295.5 178h.5l-.3.7v.3l-2.5 9c-.2.4-.6 1-1 .6l-.1-.3v-.1l.4-2.6c-.4.8-.5 1.7-.4 2.6l-.4 1.4-.2.4c-.3.2-.7.2-.9 0l-.4-1c-.8-3.3-.6-7.2 1.3-10.2.2-.4.6-.9 1.1-1.2.9-.6 2.3-.4 3 .4zm54.8 74.3l.2-.5-.3-.3v-.1c3.8-2 8-3.1 12.3-3.4a12 12 0 014 .2c1.5.4 6.2 3.1 6.4 4.7.2 1-.4 2-1.2 2.6-.8.6-1.8.9-2.8 1.2-2.6.7-5.3 1.3-7.9.8a19 19 0 01-4-1.4c-2.3-1-4.6-2-6.6-3.7-.2 0-.1 0 0-.1zm15.2 1c-.7-.5-1.6-.9-2.4-1.2-3.5-1-7.2-1-10.7-.2A22 22 0 00363 254c.8 0 1.7-.1 2.4-.6v-.2z"/><path fill="#0C2A3E" fill-rule="nonzero" d="M360 235.9l-1.7 1.2c-1.7 1.6-3 3.5-4.3 5.4a20 20 0 00-3.8 9h-.2l-.6-.6-.3.2v-.6c1.1-7 5.3-13.7 11.3-17.7a15 15 0 014-2c.8 0 1.6-.2 2.2.2 1.1.6 1.4 2 1.2 3.3-.4 3.7-3.3 6.6-6.2 9a79 79 0 01-10.4 7.5c3.1-2.9 6.7-5.1 9.3-8.3 1.1-1.4 2-2.9 2-4.6 0-.4-.2-.9-.4-1.3-.4-.8-1.4-1-2.2-.7z"/><path fill="#4F8E99" fill-rule="nonzero" d="M316 363.3l-.2 7.5a77 77 0 00-9.5 2.2c.3-.5 1-.9 1.7-.7-5.2-18-9-32.2-14.2-50.3l.2-.1 2.8 4.4c-2.2-3.7-3.5-8-3.7-12.3a12 12 0 01.6-5c.9-2.6 3-4.7 5.1-6.3 4.7-3.4 10.2-5.2 15.5-7.6a51.4 51.4 0 0026.6-22.5c3.3-6.6 4.4-14.5 9.2-20h.1c5.7 9 4.3 20.4 2.2 30.8-.5 2.7-1.3 5.6-3.5 7.1-.7.5-1.6.8-2 1.6-.5.5-.6 1.3-.8 2-5.5 27.3-13.6 54-21.8 80.6l-5-.6c.4-.2.8-.7 1-1.2.2-1-3-7.4-3.6-8.4l-.6-1.2z"/><path fill="#0C2A3E" fill-rule="nonzero" d="M293.2 264.3c1-.1 2.2-.4 3.2-.7l1 .1-.6 1.7 1.6.5c3.5 2.5 7.3 4.5 11.4 6 1.3.6 2.6 1 4 1 3.8.2 7-2.5 9.8-5 2-1.9 4.2-3.8 6-6 .8-1 1.6-2.2 2.3-3.4a180 180 0 0017.3-7.5l.2-.1.7.6c.2 0 .3.2.3.3l-.1.5-.3.2c-4.7 5.6-5.9 13.5-9.2 20a51.4 51.4 0 01-26.6 22.6c-5.2 2.4-10.7 4.2-15.4 7.6a13.5 13.5 0 00-5.2 6.3c-.6 1.6-.6 3.3-.6 5 .3 4.3 1.6 8.6 3.8 12.3l-2.8-4.4c-3-5-5.7-10.2-7.8-15.6a84.7 84.7 0 01-6.4-36.2l.1-2c.2-1.7.4-3.6.9-5.4v.5c.3.3.6.4 1 .5l.4.1c3.7 1 7.4 1 11 .5z"/><path fill="#FFF" fill-rule="nonzero" d="M349.2 250.4v.6a180 180 0 01-17.3 7.5c1.8-3.1 3.1-6.6 4.4-10a115.1 115.1 0 006.2-23.7c0 8.8 2.2 17.5 6 25.5l.7.1z"/><path fill="#FFF" fill-rule="nonzero" d="M314.7 244a9.7 9.7 0 00-2.1 4.6c-.1.6 0 1.3.4 1.6.3.1.6.1.8 0 1-.2 1.7-1 2-2 .1-.8 0-1.8-.3-2.7-.2-.6-.5-1-.8-1.5zm-17.3 19.8l-1-.1-3.2.7a470 470 0 002.2-6.9c1-2.9 2-5.5 3.3-8.4-1.5 0-2.9-.5-4-1.3a20.6 20.6 0 01-4.7-7c2-5.4 5.7-10.8 9-16l3.2-5.2a16 16 0 002.7-7.5l-.3-.8v-.1h.1l25.5-10.2a53.2 53.2 0 0012.3 19.8c.2 1.3.2 2.6.1 4v.3c0 1-.2 1.9-.3 2.8a116.5 116.5 0 01-10.3 30.9 31.6 31.6 0 01-8.2 9.3c-2.9 2.5-6.1 5.2-9.8 5-1.4 0-2.7-.5-4-.9-4-1.5-7.9-3.6-11.5-6l-1.5-.6c0-.8.2-1.3.4-1.8z"/><path fill="#0C2A3E" fill-rule="nonzero" d="M333.4 170.3h.3c.5 0 1 0 1.3.4.3.4 0 1-.4 1.3-.4.3-.8.3-1.3.5a5 5 0 00-2 1.2h1.2c.4 0 .7.4.7.8 0 .3-.3.6-.6.8a4 4 0 01-1.9.6l-.8-1c-.6-.3-1.4-.3-2.1-.2a8 8 0 00-4.1 2.3l-.2-.2c2-3.6 5.8-6 10-6.5z"/><path fill="#FFF" fill-rule="nonzero" d="M309 195.3a14 14 0 01-9-4.5 14 14 0 01-3.4-10.4l.5-.2 1 2.9c.2.8.4 1.6 1 2.2.7.5 1.8.7 2.3.1.3-.3.4-.7.4-1v-.2a6 6 0 002.4 2.9c.6.4 1.4.7 2 .3.7-.4.7-1.3.7-2a14 14 0 00-2.2-6.6 6.7 6.7 0 00-2.9-2.7c-2-.9-4.7.1-5.7 2h-.5c-.4-1.8-.3-2.8-.3-3.7-1.3-.3-2.9-1-3-2.3 0-.8.6-1.5 1-2.1a87.4 87.4 0 0121.1-17.2s3.6-1.7 7-1.8c3.2-.1 6.4 1.6 8.6 4 2.1 2.6 3.3 5.8 3.9 9 .4 2 .5 4.3-.4 6.2-4.1.5-8 3-10.1 6.5l.2.3a7 7 0 014-2.3c.8-.1 1.6-.2 2.2.2.4.2.6.6.8 1l.1.1c1.1 2.3.1 5-1.6 6.7-1 1-2.2 1.8-3.6 2.4.5 3 1 6 1.1 9-5.7 2.2-11.3 4.4-17 6.8l-.6-5.6zm1.4-26.3c0-.7-.2-1.3-.5-1.3-.4 0-.6.6-.6 1.3 0 .6.3 1.2.6 1.2s.5-.6.5-1.2zm-.8 32l17-6.8c1-.3 2-.6 2.8-1l3.8 6.5-3.1 1.2-25.5 10.1h-.2l-.4-1.6-1.8-5.2v-.1l7.4-3.1z"/><path fill="#0C2A3E" fill-rule="nonzero" d="M319.4 376.2c4.3.5 4.8 1.6 4.5 2.5a2 2 0 01-2.3 1.3 2 2 0 01-1.5-2.2 14 14 0 01-9.1 6.7 7 7 0 01-3.8 0c-.6-.1-1.2-.5-1.2-1.1 0-.8 1-1.2 1.7-1.3 4.3-1 8.6-2.7 11.7-6z"/><path fill="#FFF" fill-rule="nonzero" d="M302.3 204l1.8 5.4-2.8.8 1-6.1zm-20.8 24.5l1.7-.9.7-.3c.5-.3 1-.5 1.6-.3 1 .3 1.2 1.3 1.4 2.3a47.3 47.3 0 004.8 14.9c.8 1.3 1.7 2.6 3 3.5 1.1.9 2.5 1.4 4 1.4a90.7 90.7 0 00-3.3 8.4c-2.6 1.7-6.2 1.3-8.7-.5a11.5 11.5 0 01-3.8-5.4l-.3.1c-1 1-2.2 2-3.5 1.5-1-.4-1.4-1.5-1.6-2.4l-.2-.7c-.3-1.4-.3-2.8-.1-4.3-.6.6-1.1.3-1.5-.3-.4-.6-.4-1.4-.3-2.2.1-1.5.5-3 1-4.4h-.3c-.7.4-1.8-.3-2-1.2 0-.8.4-1.7.8-2.4 1.7-2.7 4-5 6.6-6.8z"/><path fill="#FFF" fill-rule="nonzero" d="M295.4 257.5l-2.2 6.8c-3.6.5-7.3.4-10.8-.4.2-3.6.7-5.9 2-9.1h.2c.6.8 1.3 1.6 2.2 2.2 2.4 1.8 6 2.2 8.6.5z"/><path fill="#C6D3D9" fill-rule="nonzero" d="M184.2 232.7c2.3-11 .2-21.8.8-32.7a16 16 0 014.5-12 6.2 6.2 0 016.8-1.2c0 .4 0 .9.2 1.2.3.8 1 1.4 1.8 1.9 1.8 1 3.7 1.7 5.7 2.2 5.4 1.5 11 2 16.7 2 5.2 0 10.5-.5 15-2.9 1-.4 2-1 2.4-2a4 4 0 00.4-2.4c2.4-1 5.3-.5 7 1.2 3.4 3.4 4.5 7.4 4.5 11.9.4 8.2-.7 16.4-.2 24.7.1 3.1.5 6.2 1.3 9.3.3 1.8.8 3.6 1.3 5.4-.5 0-1 .1-1.3.5v.1l-.3-.1c-.1-.1-.4-.3-.6-.1-.2 0-.2.3-.2.4-.1 1.6.8 3.2 2.2 4l-.1.2c-1-.3-1 1.8-.4 2.3 2.3 2.3 5 3.4 7.4 5.7 1 2.2 1 5 3 6.6v.2L258 258l-1.5-.3c-.5 0-1 .5-1 1s.3.8.7 1.2c2.7 2.3 6.4 3.3 9 5.5a346.4 346.4 0 0119.8 41.5c2.3 5.8 4.4 11.7 6.2 17.8a69.6 69.6 0 013.4 28.3 44.2 44.2 0 01-10.2 22.1c-17 19.3-42.5 25.5-67 24.4-24.6 1.1-50.1-5.1-67.1-24.4a44.2 44.2 0 01-10.2-22c-1.2-9.7.5-18.8 3.4-28.4a339 339 0 0132.8-71.4 61.6 61.6 0 007.9-20.5z"/><path fill="#C99F62" fill-rule="nonzero" d="M280.6 218.9c-.3.2-.7.2-1 .2l-1-.4-.6-.5c0 .7-.2 1.5-1 1.8-.6.2-1.5-.6-1.1-1.2-.5.5-1 1-1.7 1.4l-.4.2a.8.8 0 01-.5-.7c0-.6 0-1.3.6-1.7-2.1.5-4.3.5-6.3-.1-.3-.2-.7-.3-.8-.5-.3-.4 0-1 .4-1.2.4-.3 1-.3 1.4-.3-2.6-1.2-5-3-6.7-5.2-.6-.8-1.1-1.9-.4-2.6.7-.7 1.8-.2 2.8-.2-2.2-2-3.5-4.9-3.5-7.9 0-.6 0-1.4.7-1.7.6-.3 1.4 0 1.9.5s.9 1.1 1.5 1.3a8.7 8.7 0 01-1.4-6.2c.1-1 .7-2.3 1.8-2.4.7 0 1.2.4 1.7.7 1.3 1 2.5 2.2 3.6 3.5-.4-1.7 0-3.6 1-5 .3-.3.5-.5.8-.5.3-.1.6.1.9.4a7.8 7.8 0 012.5 4.6c-.1-1.3 1.4-2.6 2.8-2.4 1.5.2 2.6 1.5 2.9 3a8 8 0 01-.5 4.3c.5-.7 1.2-1.2 2-1.5.8-.3 1.8-.2 2.4.3 1 .8 1 2.2.4 3.4-.5 1.1-1.4 2-1.9 3.2.5-.6 1.1-1.2 1.8-1.6.7-.4 1.6-.5 2.3 0 1.1.6 1 2.5 0 3.6-.8 1.1-2 2-2.8 3.1.8-.7 1.6-1.1 2.6-1.4h.6c.3 0 .5.4.3.8 0 .3-.4.6-.6.8-2.4 2.2-5 4.3-7.7 6.3.6-.1 1 .6.8 1.2-.2.4-.3.5-.6.6z"/><path fill="#FFF" fill-rule="nonzero" d="M272 257.1l-.8-5.4 6-1.5.2.6c.2 1 .7 2 1.7 2.4 1.2.5 2.5-.5 3.5-1.4l.3-.1c.3 1.1.9 2.1 1.5 3.1a23.7 23.7 0 00-2.1 9v.1h-.5l-.9-.5v-1.2.6c-.6 1.8-.8 3.7-1 5.5v2c-1.9.5-3.6 1.3-5 2.4h-.2l-.7-4.5-2-11zm10.3-32.4l.8 3-1.6.8c-.5-1.3-1-2.6-1.3-3.9l-1.7-5.8.1-.1 1 .4c.2 0 .7 0 1-.2.7 2 1.2 3.8 1.7 5.8z"/><path fill="#FFF" fill-rule="nonzero" d="M262.1 259.2v-.2c-1.9-1.6-1.9-4.4-3-6.7-2.3-2.3-5-3.4-7.4-5.7-.5-.5-.5-2.6.4-2.3h.2c5.7 1.2 10.8 3.5 13.2 9.1-.8-3.1-1.7-6.5-4.3-8.5-1.4-1-3-1.5-4.6-2.1a28 28 0 01-5.5-2.8v-.2c.4-.3.9-.5 1.3-.5.8 0 1.5.3 2.2.6l5 2.3c1.2.5 2.2 1 3.1 1.8 1.2 1 2 2.4 2.6 3.7.7 1.5 1.5 3 2.1 4.6.6 1.1 1 2.3 1.8 3.3.7.8 1.8 1.5 3 1.5l1.8 11h-.1c-1.5-.2-3 .6-4.5.3-1.3-.3-2.3-1.6-3.3-2.6l-.7-.6c-2.7-2.2-6.3-3.2-9-5.5-.4-.3-.8-.6-.8-1.2 0-.5.5-.8 1-1l1.5.3 4 1.4z"/><path fill="#FFF" fill-rule="nonzero" d="M252.2 244a4.4 4.4 0 01-2.2-3.9c0-.1 0-.4.2-.4h.6l.3.2c1.7 1.1 3.5 2 5.5 2.8 1.5.7 3.2 1.2 4.6 2.2 2.6 2 3.5 5.3 4.3 8.5h-.1c-2.4-5.7-7.5-8-13.1-9l-.2-.1.1-.2zm-61.4-117.5c-3.2 1.7-6.6 3.3-10 4.7-2.3 1-4.8 2-7.3 1.8a3 3 0 01-1.9-.6 5 5 0 01-1.3-1.9l-.4-1c-5-10.4-9.4-21-13.5-31.6a16 16 0 00-2.7-5c-1-1.1-2-1.8-3.4-2l.6-.9a15.8 15.8 0 002.8-5.3l.5-1.9.7-4.7.3-3.9v-.4c0-1.2 0-2.3-.2-3.5l-.1-.6c1.5-1.6 4.9-1.3 7.2-.9a1605 1605 0 0128.7 5 126 126 0 0132.9 9.5 14.6 14.6 0 016.1 5 94 94 0 008.4 8.3c1.3.1 2.6.2 3.7.8 1 .4 1.9 1.1 2.7 1.9a178 178 0 0118.3 18.4c.3.7-.1 1.4-.6 1.8a4 4 0 01-1.9.7 85 85 0 00-19.4 7 9.6 9.6 0 00-3.4 2.7c-1 1.4-1 3.2-1 4.9-.2 4.1 0 8.3.1 12.5v.4c.4 0 .7 0 1 .2.4.4.7 1 .9 1.5a61.2 61.2 0 012.6 29.5c-.8 1.7-2.5 2.6-4.5 3.1l1.3.5c-.1 1.4.3 2.8.4 4.2 0 .8 0 1.7-.4 2.4-.5 1-1.4 1.5-2.3 2a34 34 0 01-15.1 3 72 72 0 01-16.7-2c-2-.6-4-1.3-5.7-2.3-.7-.5-1.5-1.1-1.8-2-.2-.3-.2-.7-.2-1.1v-.7l.4-6.8c-1.7-.9-3.4-2-4.2-3.8a9.4 9.4 0 01-.3-4.4c.5-7 1.2-13.9 2.7-20.7.3-1.2.6-2.5 1.4-3.3.9-.9 2.5-1 3.3 0a229 229 0 01-.7-18.8l-2.4.9c-1.3.4-2.8.8-4 .1-.8-.4-1.2-1.6-1.6-2.7z"/><path fill="#FFF" fill-rule="nonzero" d="M169.9 129.4l-.4.2a7.1 7.1 0 01-7.4 6.3c-1.3-.1-2.6-.6-3.8-.2-2 .5-2.8 2.8-3.5 4.7-3 8.6-8.9 15.8-14.8 22.7a75 75 0 01-20.3 18.4c-.9.6-2 1-2.9.4-1.1-.7-.7-2.5-.2-3.8 8.8-21.4 21-41.4 29-63.2.4-1.2.8-2.6.7-4-.5-3-4.3-5.2-4-8.3.2-1.6 1.4-2.8 2.5-3.9 3-2.6 5.3-4.4 8.8-6 1.1 1.3 2 3.2 2.7 5 4.1 10.8 8.6 21.4 13.6 31.7zm-15-59.1c.2 1.2.2 2.3.2 3.5h-.4a520 520 0 00-21.7-4.3l.2-.6c.2-.7.5-1.3.9-1.9l3 .3 17.5 3h.3z"/><path fill="#FFF" fill-rule="nonzero" d="M155 73.8v.4l-.3 4-22.5-6.2h-.1l.8-2.5c7.3 1.2 14.6 2.6 21.8 4.3h.4zm-.3-4.1l.2.6h-.3a637.7 637.7 0 00-20.5-3.3l.7-.8c.9-.6 2-.6 3-.6 4.8 0 9.6.6 14.4 1.4.6.1 1.4.2 1.8.7l.4.8.3 1.2z"/><path fill="#FFF" fill-rule="nonzero" d="M132.2 72l22.5 6c0 1.7-.3 3.3-.6 4.8h-.2L131 75.5l1-3.7h.2z"/><path fill="#FFF" fill-rule="nonzero" d="M153.9 82.8h.2l-.5 2-.6 1.4c-8-2.1-14.8-4.4-22.6-7h-.1c.1-1.2.4-2.4.7-3.5 7.7 2.4 15.3 4.8 22.9 7z"/><path fill="#FFF" fill-rule="nonzero" d="M153 86.2a14 14 0 01-2 3.8h-.1c-7-2.1-13.5-5.7-20.6-7.4h-.2c0-1.2.2-2.2.3-3.4h.2c7.8 2.6 14.6 4.9 22.5 7z"/><path fill="#FFF" fill-rule="nonzero" d="M150.8 90h.1l-.7.8-1 .9a2 2 0 01-.9.4h-.6a88.7 88.7 0 01-16.4-7 2.6 2.6 0 01-1.3-2.4v-.2h.2c7.1 1.8 13.6 5.3 20.6 7.4z"/><circle cx="75.7" cy="149.6" r="27.3" fill="#E2D6C7" fill-rule="nonzero"/><path fill="#000" fill-rule="nonzero" d="M150.2 90.8l-1 .9c-.3.3-.7.6-1.2.4a44 44 0 01-7.5-2.6 87.7 87.7 0 01-9.7-4.6 3 3 0 01-1-2.4 42.2 42.2 0 01.4-4l.2-1.3.3-1.3c0-.5.2-.9.3-1.3l.7-2.6.9-2.5 1-2.5c.4-.4.6-.8 1-1 .4-.3.9-.5 1.3-.5 1-.2 1.9-.2 2.8-.2l2.6.2a84.9 84.9 0 0110.6 1.3c.5 0 1 .1 1.3.3.5.2.9.5 1.1.9l.4 1.3.3 1.3.1 2.7-.2 2.6-.6 5.3a11 11 0 01-.6 2.6c-.1.9-.5 1.7-.8 2.6a12 12 0 01-2.7 4.4zm0 0c1.2-1.3 2.1-2.9 2.8-4.5l.8-2.5a35.2 35.2 0 001-8l.2-2.6c0-.9 0-1.7-.2-2.6l-.3-1.3c0-.4-.2-.8-.4-1.2-.1-.4-.5-.7-.9-.8L152 67l-5.3-.7-5.3-.5-2.6-.1h-2.6c-.9.3-1.6.7-2 1.4-.5.7-.8 1.5-1 2.4l-.9 2.5-.7 2.5-.4 1.3-.2 1.3-.3 1.3-.3 1.3-.2 2.6c-.2.8.2 1.7.9 2.2l1.1.7 1.2.6 2.4 1.2a74 74 0 009.8 4l2.5.9c.5 0 .9-.2 1.2-.4l.9-.7z"/><path fill="#000" fill-rule="nonzero" d="M133.9 67a8 8 0 012.6 0l2.6.4 5.2.9 5.1 1 2.6.5 2.5.5-2.6-.3-2.6-.4-5.1-.9c-1.7-.2-3.5-.6-5.2-1l-2.6-.4c-.7-.1-1.6-.3-2.5-.3zm-.9 2.5l2.7.3 2.8.4 5.5 1 5.4 1.2 2.7.6 2.7.8-2.7-.5-2.7-.5-5.5-1-5.4-1.2-2.7-.6-2.9-.5zm-.8 2.5c2 .3 3.9.8 5.7 1.3l5.7 1.4 5.7 1.7 2.8.8c1 .3 2 .6 2.8 1l-5.7-1.4-5.7-1.5a213.2 213.2 0 01-11.3-3.4zm-1.4 3.6l3 .8 2.9.8 5.8 1.8 5.7 1.9 2.8 1c1 .3 2 .6 2.8 1L151 82l-2.9-.9-5.8-1.8-5.7-1.8-5.7-2zm-.3 3.6l5.7 1.6 5.6 1.8 5.6 1.8 2.8.9 2.8.9-2.8-.7-2.9-.7-5.6-1.7-5.6-1.8-5.6-2.1zm-.3 3.3c1.8.3 3.6.9 5.3 1.4l5 2 5.1 2 2.6 1 1.2.6 1.3.4-2.6-.7-2.6-.9-5.1-2-5-2-5.2-1.8z"/><path fill="#4F8E99" fill-rule="nonzero" d="M265 264.7a333.2 333.2 0 0124.8 53.5l1.8 5.6a94.6 94.6 0 013.8 17.4c.4 4 .4 8 0 11.9-.9 4-2 8-3.7 11.8a37 37 0 01-6.8 10.5l-2.1 2.2-1 1.2-1.2 1-2.3 2.1-2.5 2-1.2 1-1.3.8-2.5 1.8-2.7 1.6-1.3.8-1.4.7-2.8 1.3-2.8 1.2-1.4.6-1.5.5-2.9 1-3 .9-1.4.5-1.5.3-3 .7-3.1.6-1.5.3-1.6.2-3 .4-3 .3-1.6.1h-1.5l-3.1.2h-6.1l-3-.2h9.1l3-.3h1.6l1.5-.3 3-.3 3.1-.5 1.6-.2 1.5-.3 3-.6 3-.7 1.4-.4 1.5-.5 3-.9 2.8-1 1.4-.6 1.5-.6 2.7-1.2 2.8-1.5 1.3-.7 1.3-.8 2.6-1.6 2.5-1.7 1.3-1 1.2-.9 2.3-2 2.3-2 1.1-1 1.1-1.1 2.1-2.2c2.7-3 4.9-6.5 6.5-10.2a59 59 0 003.5-11.7c1-7.7 0-15.5-2-23.1a92.8 92.8 0 00-3.3-11.3 258.8 258.8 0 00-13.2-32.7c-3.4-7-7-14-10.7-20.9z"/><path fill="#C5505D" fill-rule="nonzero" d="M196.8 179.1l-.2 7.5c0 .6 0 1.2.4 1.6.2.5.7.9 1.2 1.2a14 14 0 003.3 1.5 81.4 81.4 0 0022 2.7 39.1 39.1 0 0010.8-2c1.1-.5 2.3-1 3.1-1.8.4-.4.7-1 .8-1.6v-1.8c0-1.2-.3-2.5-.2-3.7 0 1.2.3 2.4.5 3.7.2.6.2 1.2.1 1.9a4 4 0 01-.8 1.8c-.4.5-1 1-1.5 1.2l-.9.5-.8.4a27 27 0 01-11 2.4H216c-5-.3-10-1.1-14.8-2.8-1.2-.5-2.4-1-3.4-1.8-.6-.4-1-.8-1.4-1.4-.3-.7-.4-1.4-.3-2l.7-7.5z"/><path fill="#C5505D" fill-rule="nonzero" d="M233.3 182.7a16 16 0 005-1.4c.8-.4 1.5-1 2-1.6.5-.7.8-1.4.9-2.3v-10.6a82 82 0 00-1-10.5c-.3-1.7-.7-3.4-1.2-5l-.4-1.3-.5-1.2c-.2-.3-.5-.7-.9-.9-.4-.1-.8-.1-1.1.2.2-.4.8-.4 1.2-.3.5 0 .8.5 1 .8.4.4.5.8.7 1.2l.6 1.3a52 52 0 012.8 21.1l-.1 2.7c0 .9 0 1.8-.2 2.7-.2.9-.6 1.8-1.2 2.6-.7.7-1.4 1.2-2.3 1.6-1.7.7-3.5.9-5.3.9z"/><path fill="#4F8E99" fill-rule="nonzero" d="M196.4 186.9a6.4 6.4 0 00-6.5.9c-1.6 1.5-3 3.4-3.7 5.5-.8 2.1-1 4.4-1 6.7v6.8c0 4.5.4 9 .4 13.6a58 58 0 01-1.4 13.6 55.6 55.6 0 01-5.1 15.2l-1.9 3.6-2 3.5-4 7a385.7 385.7 0 00-20.6 43.2c-2 5-3.8 10-5.4 15.1l-1.2 3.8a76.4 76.4 0 00-3.2 27.4 47 47 0 0010 21.8l2 2.2 1.1 1.2 1.1 1 2.3 2a71 71 0 002.4 2l1.2 1 1.2.9 2.5 1.7 2.6 1.6 1.3.8 1.4.8 2.7 1.4 2.8 1.2 1.4.6 1.4.6 2.9 1 3 1 1.4.4 1.5.4 3 .7 3 .6 1.5.3 1.6.3 3 .4 3 .4 1.6.1 1.5.1 3 .2h3.1l1.6.1h4.5-3l-1.5.1h-4.6l-3-.1-1.6-.1-1.5-.1-3-.3-3.1-.4-1.6-.2-1.5-.3-3-.6-3-.7-1.6-.3-1.5-.5-3-.8-2.8-1-1.5-.6-1.4-.6-2.8-1.2-2.8-1.4-1.4-.7-1.3-.8-2.7-1.6-2.5-1.7-1.3-1-1.2-.9c-.8-.6-1.7-1.2-2.5-2l-2.3-2-1.1-1-1.1-1.2-2.2-2.2a37 37 0 01-6.7-10.5 58.3 58.3 0 01-3.6-11.8 58.8 58.8 0 012-24l1.2-3.9 1.1-3.8c3.3-10.2 7.3-20.2 11.7-30a398 398 0 0120.6-39l1.8-3.4a67 67 0 006.8-28.4c0-4.6-.2-9-.3-13.7l.1-6.8a15.7 15.7 0 015.1-12.3 6.4 6.4 0 016.4-.8l.2-.1zm42.1 0c2-1 4.7-.9 6.6.6.5.3.9.8 1.3 1.2l1.2 1.3a16.2 16.2 0 012.9 10c.1 2.2.2 4.5.1 6.8 0 4.6-.4 9.1-.4 13.7-.1 4.5.2 9 1 13.5a43 43 0 001.2 5.3c-.7-1.7-1.1-3.5-1.5-5.3a50 50 0 01-1.8-13.6c0-2.3 0-4.6.2-6.8l.2-6.8V200c0-2.3-.2-4.5-1-6.6-.8-2-2-4-3.7-5.5a6.4 6.4 0 00-6.3-1z"/><path fill="#4F8E99" fill-rule="nonzero" d="M183.8 232.5a80 80 0 0024.7 9.4c3 .5 5.9.8 8.9 1a43 43 0 01-17.8-2 48.1 48.1 0 01-15.8-8.4z"/><path fill="#C5505D" fill-rule="nonzero" d="M234 149.1l-2.5 1.2-8 1a75.8 75.8 0 01-16-.5c-2.7-.4-5.3-1-7.9-1.3l.4-.1a6 6 0 00-2.1 3.2c-.4 1.3-.6 2.7-.8 4l-.5 4.3-.6 4.2.2-4.2c0-1.5.2-2.8.3-4.2.1-1.4.2-2.9.6-4.3a9 9 0 01.8-2 6 6 0 011.4-1.7l.2-.1h.2c2.7.3 5.3.8 8 1.2a72.7 72.7 0 0015.8.8l4-.2 4-.2h-.2c1-.5 1.9-.8 2.7-1zm-38 20.3l.3 1v.8l-.2.9-.6.8-.4-1v-.8l.3-.9.5-.8zm40.7-17.2a21.6 21.6 0 011.6 7 24.4 24.4 0 01-.5 7 74 74 0 01-.4-3.6l-.3-3.4-.3-3.5-.1-3.5zm1.4 18.4c.3.3.4.6.4 1l.2 1-.2 1a2 2 0 01-.5 1l-.4-1v-1l.1-1c0-.4.2-.8.4-1z"/><path fill="#C5505D" fill-rule="nonzero" d="M199 128.3a259.1 259.1 0 001 18.8l.1 1.2-.8-1c-.4-.4-1-.6-1.5-.4a2 2 0 00-.8.3l-.7.6c-.6 1-.9 2.5-1.2 3.9a141 141 0 00-2.1 16.7l-.3 4.2c-.1 1.4.1 2.7 1 3.7a9 9 0 003 2.4l1.9.9 2 .8a50.4 50.4 0 0024.7 3.2 48.6 48.6 0 01-27-3.2l-2-.8a9 9 0 01-3.6-2.8c-.4-.6-.8-1.3-1-2l-.2-2.3.3-4.2a142.2 142.2 0 012.3-16.8l.5-2.1c.1-.7.4-1.5.9-2.1a3 3 0 012-1.3h1.2c.4.1.8.4 1 .8l-.6.2a261 261 0 01-.4-9.4c0-3 0-6.2.2-9.3zm-45.3-35.5c-3.4 1.7-6.4 4-9.1 6.6-.7.7-1.4 1.4-1.7 2.2-.4.9-.4 1.8-.1 2.6.6 1.7 2 3 3 4.7.5.9.8 1.8.8 2.8 0 1-.2 2-.5 2.9a202.8 202.8 0 01-6.4 15.8c-6 13.8-13.3 27-19.4 40.8l-2.3 5.2-.5 1.3-.5 1.2c-.3.8-.4 1.8-.1 2.3.2.2.5.5.8.5l1.1-.3 1.2-.6 1.2-.7 4.6-3.1c5.9-4.7 10.8-10.5 15.6-16.2a129 129 0 007-8.8c2.2-3 4-6.4 5.5-9.8l1-2.6 1.3-2.6a4 4 0 012.5-1.6c1 0 1.9.1 2.8.3a7 7 0 008-6.1c-.3 3.8-4.2 7-8 6.4-1-.1-2-.3-2.8-.2-1 .1-1.7.8-2.2 1.5-.5.7-.9 1.6-1.2 2.5l-1 2.7a51.6 51.6 0 01-5.4 10c-2.1 3-4.5 6-6.9 9a115 115 0 01-15.7 16.3c-1.5 1.2-3 2.3-4.6 3.3l-1.3.7-1.3.7c-.5.2-1 .3-1.6.3-.7 0-1.2-.4-1.6-1-.4-.5-.4-1.1-.4-1.7l.4-1.5.5-1.4.6-1.3 2.3-5.2c6.2-13.7 13.4-27 19.7-40.7a211.6 211.6 0 006.5-15.7c.4-.8.6-1.7.6-2.6 0-1-.3-1.8-.8-2.6-.8-1.6-2.3-3-2.9-4.8-.3-1-.2-2 .2-3a7 7 0 011.7-2.2 34.6 34.6 0 019.3-6.3z"/><path fill="#C5505D" fill-rule="nonzero" d="M142 157.5a96.6 96.6 0 008.5-20.6l.7-2.7c.1-.5.4-1 .7-1.4.2-.5.6-1 1.2-1.2 1-.5 2.1-.3 3-.3l2.8.2c1.9 0 3.7 0 5.4-.8 1.6-.8 3-2.2 3.3-4.1 0 .4-.1 1-.3 1.3-.1.5-.4.9-.7 1.3a7 7 0 01-2.1 2 11 11 0 01-5.6 1.2l-2.8-.1c-1-.1-1.9-.2-2.5.2-.7.3-1 1-1.3 2l-.7 2.6a66.4 66.4 0 01-9.6 20.4z"/><path fill="#4F8E99" fill-rule="nonzero" d="M236.7 147.4c-.2-2.6-.4-5.2-.4-7.9v-4c0-1.3 0-2.6.3-4a5.6 5.6 0 012.3-3.3c1.1-.8 2.3-1.3 3.5-2a82 82 0 0114.7-5.7l2-.5 1.9-.4c.5-.2 1-.4 1.3-.8.2-.2.3-.5.2-.7v-.2a169.7 169.7 0 00-16.8-17l-3-2.4-1.5-.9-1.9-.4a99.8 99.8 0 01-15.4-3l-15.3-3.8-15.2-4c5.1 1 10.3 2.3 15.4 3.5l15.3 3.6 7.6 1.6c2.6.6 5.2.9 7.8 1.2a7.3 7.3 0 013.9 1.4l3 2.5a173.8 173.8 0 0117 17.4l.1.7a2.3 2.3 0 01-1.3 2l-1 .4-2 .4-1.8.5a94.5 94.5 0 00-14.7 5.4c-1.2.5-2.3 1.1-3.4 1.9a6 6 0 00-1.3 1.3c-.4.5-.6 1-.8 1.7-.4 1.1-.4 2.5-.5 3.8v11.7zm-66.4-17c.4.7.8 1.4 1.4 1.8.6.4 1.3.5 2 .5 1.6 0 3-.3 4.4-.8l4.1-1.9 4.2-1.9 8.1-4 8.2-4.1a98.8 98.8 0 01-15.8 9.1l-4.2 2c-1.4.5-2.8 1.2-4.3 1.6-1.5.5-3 .8-4.7.6-.8-.1-1.6-.3-2.2-.8-.6-.6-.9-1.4-1.2-2z"/><path fill="#C5505D" fill-rule="nonzero" d="M150.2 90.8c1 0 1.9.4 2.7 1 .8.6 1.4 1.4 2 2.2 1 1.5 1.7 3.4 2.5 5.1l4.3 10.4L166 120l4.4 10.4a168.8 168.8 0 01-9.8-20.5c-1.4-3.5-2.8-7-4-10.5-.7-1.8-1.2-3.6-2.2-5.2a7 7 0 00-1.7-2.1 5 5 0 00-2.5-1.3z"/><path fill="#4F8E99" fill-rule="nonzero" d="M190.8 126.5c.6 1 1.1 2 2 2.5.9.5 1.9.2 3 0l3.3-1.1c1-.3 2.2-.6 3.4-.7-1 .6-2 1-3.2 1.5-1 .4-2 .9-3.2 1.2l-1.8.4c-.6 0-1.4-.2-2-.6-.5-.4-.8-1-1-1.5-.3-.6-.4-1.2-.5-1.7zm-36.1-56.7l.1-.1c.6-.7 1.6-1 2.6-1.2 1-.2 1.9-.2 2.8-.2l2.9.4 2.8.4 11.3 1.7c7.5 1.3 15 2.4 22.5 4 3.7.9 7.4 1.8 11 2.9a91 91 0 0110.8 4c1.7.9 3.5 1.6 5.1 2.7 1.7 1.2 2.8 2.8 4 4.2 2.4 3 5.3 5.5 8 8.2-2.9-2.5-5.8-5-8.4-7.8-1.3-1.4-2.4-3-4-4-1.5-1-3.2-1.7-5-2.5-7-3-14.3-5-21.7-6.6-7.4-1.6-15-2.8-22.4-4.2l-11.2-2.1-2.8-.6-2.8-.4c-1-.1-1.9-.2-2.8 0-1 0-1.9.3-2.6 1l-.2.2zm8.3 7.4c-.3.4-.1 1 0 1.3l1 1 2.8.7 5.8 1.2 5.8 1.3 5.7 1.5a54 54 0 01-11.7-1.6l-5.8-1.5c-.9-.3-1.9-.5-2.8-1.1-.4-.3-.8-.8-1-1.3-.2-.6-.2-1.1.1-1.5zm23.5 7.8c.1-.3.4-.3.5-.4h.6l.4.2c.2 0 .3.3.4.5l-.6.3h-.5l-.4-.1a2 2 0 01-.4-.6zm16.7 43c.6 1.4.9 2.8 1.2 4.1a52.4 52.4 0 01.8 12.6l-.8-4.1-.5-4.2a95 95 0 01-.5-4.1l-.2-4.2zm31.8-2.9a45.5 45.5 0 0115.8-7.7 39 39 0 015.7-1.3l-5.4 2.2-5.4 2.2-5.3 2.3c-1.9.7-3.6 1.5-5.4 2.3z"/><path stroke="#4F92C4" stroke-width="2" d="M342.5 224.6h47"/><g fill="#C99F62" fill-rule="nonzero"><path d="M52.7 236.7a333 333 0 01-3.4 10.6l-1.8 5.3-1.9 5.3-3.6 10.6-3.6 10.5a178.6 178.6 0 016.1-21.5 331.2 331.2 0 018.2-20.8z"/><path d="M32.2 251.2a85.7 85.7 0 0121.6 8.3c2.3 1.2 4.6 2.5 6.7 4l-7-3.2-7-3.1-7.1-3-7.2-3.1zm8.1-9.7c.4.8.8 1.5 1 2.3a28 28 0 011.4 4.7l.2 2.4a28 28 0 01-2.4-7l-.2-2.4zm7.1 22a15.4 15.4 0 012.4 4.2 17.7 17.7 0 011.4 4.5 15.4 15.4 0 01-2.4-4 17.7 17.7 0 01-1.4-4.6zm-19.6.5l2.7-1.4c.9-.5 1.9-.9 2.8-1.2l3-1 3-.7-2.7 1.5c-.9.5-1.9.9-2.8 1.2l-3 1-3 .6zm25.1-11.7l2.3-1.6a33.2 33.2 0 017.6-3.1l-2.3 1.6-2.4 1.3a33 33 0 01-5.2 1.8zm39.8 37.9a67.4 67.4 0 013.5 13.3 93.8 93.8 0 011.4 13.6l-1.3-6.6-1.3-6.6-1.3-6.8-1-6.8z"/><path d="M79.6 306.3l7.4-1.6 7.4-1.6 7.4-1.6 7.4-1.6a107.8 107.8 0 01-29.6 6.4zm18.6-7.8c.3-.9.8-1.6 1.2-2.3a18.8 18.8 0 013.2-4c.5-.6 1.1-1.1 1.9-1.6a17.6 17.6 0 01-2.7 4.3l-1.7 1.8c-.6.6-1.2 1.2-2 1.7zm-15.9-3.8a9 9 0 011.8.6 15.8 15.8 0 013.3 1.9l1.4 1.3a9 9 0 01-1.8-.5 15.8 15.8 0 01-3.3-2c-.5-.3-1-.7-1.4-1.3zM91 309c0 .8-.3 1.5-.5 2.2l-.9 2.3a17.8 17.8 0 01-2.3 4c0-.8.3-1.5.5-2.3.2-.7.4-1.4.8-2.1a17.8 17.8 0 012.3-4zm9.8-1.2c1 .4 1.8 1 2.6 1.5a38 38 0 014.7 3.7c.7.7 1.5 1.3 2.1 2.1l-2.6-1.4a38 38 0 01-4.7-3.7c-.7-.7-1.5-1.4-2.1-2.2z"/></g><g fill-rule="nonzero"><path fill="#C99F62" d="M48.3 149.6a27.8 27.8 0 1155.5 0 27.8 27.8 0 01-55.5 0zm0 0a27.4 27.4 0 008 19.2 27 27 0 0038.2-.4 26.9 26.9 0 10-46.2-18.8z"/><path fill="#C5505D" d="M48.2 193.7a689.3 689.3 0 0130.6-1.4h15.3c5 0 10.2 0 15.3.4l.1.2-.2-.2c-5.1.5-10.2.7-15.3 1-2.5 0-5.1 0-7.6.2l-7.7.2H63.4c-5 0-10.1 0-15.2-.4z"/><path fill="#C99F62" d="M55.4 186.1c3.9-.4 7.8-.6 11.7-.8l11.7-.4 5.9-.1h5.8l11.7.3.1.1-.1-.1c-4 .4-7.9.6-11.8.8l-5.8.2-5.8.2a809.4 809.4 0 01-23.4-.2z"/><path fill="#4F92C4" d="M37.9 200.5c6.9-.4 13.7-.6 20.5-.7l10.3-.1h20.5a618.8 618.8 0 0130.8.4c-6.8.4-13.7.7-20.5.9l-10.3.2-10.2.1H68.7c-3.4 0-6.8 0-10.2-.2-7-.1-13.8-.3-20.6-.7z"/></g><path stroke="#000" d="M309.1 373.7c-4.4 2.5-9.7 3-14.6 4.6-.7.1-1.3.5-1.4 1 0 .8.7 1.2 1.4 1.4 1.5.4 3 .2 4.6 0a24 24 0 0010.4-4.7c0 .8 0 1.8.6 2.3.7.5 2 0 2.3-.9.5-.8.4-1.7-3.3-3.7zm10.3 2.5c-3 3.2-7.4 5-11.7 5.9-.8.1-1.7.5-1.7 1.3 0 .6.6 1 1.2 1.1a7 7 0 003.8 0c3.8-.8 7.2-3.3 9.1-6.7-.1 1 .6 2 1.5 2.2 1 .2 2-.4 2.3-1.3.3-.9-.2-2-4.5-2.5zM292 188.1c0-.8 0-1.8.4-2.6 0 1-.1 1.8-.4 2.6zm9.6-4.6l.2.7a6 6 0 002.4 2.9c.6.4 1.4.7 2 .3.6-.4.7-1.3.6-2a14 14 0 00-2.2-6.6 6.7 6.7 0 00-2.8-2.7c-2-.9-4.7.1-5.8 2l-.3.7v.3l-2.5 8.9c-.2.5-.6 1-1 .7l-.1-.4s0 0 0 0m9.1-7.6s0 0 0 0 0 0 0 0h0z"/><path stroke="#000" d="M295.7 179c.4.1.9.2 1 .5.2.1.2.3.3.4v.3l1 2.9c.2.8.5 1.6 1.1 2.2.6.5 1.7.7 2.3.1.3-.3.3-.7.4-1v-.2c0-1.2-.3-2.4-.6-3.5m22.1-3.9c2.1-3.6 6-6 10.1-6.5h.3c.5 0 1 0 1.3.4.3.4 0 1-.4 1.3-.4.3-.8.3-1.3.5a5 5 0 00-2 1.2h1.2c.4 0 .7.4.7.8 0 .3-.3.6-.6.8a4 4 0 01-1.9.6"/><g fill="#000" fill-rule="nonzero"><path d="M292.1 188.1l-.4 1.3c0 .2 0 .4-.2.6-.1.2-.4.3-.6.2-.2 0-.4-.2-.5-.3l-.3-.6-.3-1.2a14 14 0 01-.2-4.9 11 11 0 011.6-4.6l.9-1c.3-.3.8-.5 1.2-.6 1-.2 2 .1 2.6.9l-.7.3-.4-1.9v-1.9l.4.5a8 8 0 01-2.1-.8l-1-.9c-.2-.4-.3-.8-.3-1.3 0-.4.3-.8.4-1.2l.7-.9 1.5-1.7a85 85 0 0119.7-15.7c1.3-.6 2.7-1 4-1.4 1.5-.3 3-.5 4.4-.4 3 .4 5.6 2 7.5 4.2a17 17 0 013.6 7.6l.6 4.2a8 8 0 01-1 4c.6-1.2.8-2.6.7-4 0-1.4-.3-2.8-.7-4-.7-2.7-2-5.3-3.8-7.3a11 11 0 00-7-3.7 14 14 0 00-4 .4c-1.4.4-2.7.8-3.9 1.4a92.2 92.2 0 00-19.4 15.6l-1.5 1.4c-.5.5-.9 1-.9 1.5 0 .6.3 1 .8 1.3.5.4 1.2.6 1.8.8l.4.1v.3l-.2 2c0 .6 0 1.2.2 1.9l.3 1.5-1-1.2a2 2 0 00-1.8-.7c-.7 0-1.2.6-1.6 1.3a13 13 0 00-1.6 9l.2 1.2c.1.4.3.7.6.8l.5-.1.2-.6.6-1.4z"/><path d="M296.6 180.4a14.2 14.2 0 0014 14.7 27.7 27.7 0 007.5-1.6c-2.4 1-4.8 1.9-7.5 2a13.6 13.6 0 01-14-15.1z"/><path d="M308.9 194.9c.6 1 .8 2 1 3.1v1.6c0 .5 0 1.1-.3 1.7-.3-.5-.4-1-.6-1.6l-.3-1.5v-1.6c0-.5 0-1.1.2-1.7zm12.6-13.7a7.6 7.6 0 017.1-7.1c.3 0 .7 0 1 .2.4 0 .7.3 1 .6l.5.8.4 1a6 6 0 01-.2 3.7 8 8 0 01-2.1 3c-1 .8-2 1.3-3 1.8l-3.5 1.2 3-1.6c1-.5 2-1.2 2.8-2a6 6 0 001.6-2.7c.4-1 .5-2 .2-3a3.5 3.5 0 00-.7-1.3c-.2-.3-.6-.4-1.1-.5-.6 0-1 0-1.6.2l-1.5.7a8 8 0 00-4 5z"/><path d="M322.8 183a5.6 5.6 0 012-3.8 4 4 0 011.8-1c.7-.3 1.6-.5 2.2 0-.8 0-1.3.4-1.8.7a14 14 0 00-2.9 2.5l-1.3 1.6zm2.7 2l.1.2.8 2.1.4 2.3a15.2 15.2 0 01-.1 4.5l-.6-2.2-.4-2.2a27.9 27.9 0 01-.2-4.6zm-15.1-20.7c.5-.8 1.3-1.3 2.2-1.3 1 0 1.8.5 2.3 1.3l.5 1.2c.1.4.3.8.3 1.3a7 7 0 010 2.5l-.4-2.4a9 9 0 00-.4-1.1l-.5-1.1c-.4-.6-1-1.1-1.8-1.2-.7 0-1.6.2-2.1.8z"/></g><path stroke="#000" d="M284.4 254.8a23.7 23.7 0 00-2 9m-1.3-1.6l-.2.6.1.6c.3.2.6.4 1 .4l.4.1a28.7 28.7 0 0014-.2m-13.9-2.9c-.3.4-.8.7-1.2 1l-.2.4m69.2-9.9v-.1"/><path stroke="#000" d="M281.7 260.6c-.3.5-.4 1-.6 1.6h0l-.2.6a26 26 0 00-.8 5.5l-.1 2a84.7 84.7 0 006.4 36.1 108 108 0 0010.6 20c-2.3-3.7-3.6-8-3.8-12.3 0-1.7 0-3.4.6-5 .9-2.6 3-4.7 5.1-6.3 4.7-3.4 10.2-5.2 15.5-7.5a51.4 51.4 0 0026.6-22.6c3.3-6.6 4.5-14.4 9.2-20 0-.2.2-.2.2-.3"/><path stroke="#000" d="M331.5 258.7l.4-.1a180 180 0 0017.3-7.5s.2 0 .2-.2l.7.6h0c.2.1.3.2.3.4l-.1.4h0l-.1.1"/><path stroke="#000" d="M350.1 251.5h0l.1-.1c3.8-2 8-3.1 12.3-3.4a12 12 0 014 .2c1.5.4 6.2 3.1 6.4 4.7.2 1-.4 2-1.2 2.6-.8.6-1.8.9-2.8 1.2-2.6.7-5.3 1.3-7.9.8a19 19 0 01-4-1.4c-2.3-1-4.6-2-6.6-3.7l2.1-.5c3.6-.8 7.2-.7 10.7.2.8.3 1.7.7 2.4 1.2.5.5.8 1 1 1.7"/><path stroke="#000" d="M349.1 250.9l.1-.5a26 26 0 0111.2-17.6c1.3-.9 2.6-1.6 4-2 .8-.1 1.6-.2 2.3.1 1 .6 1.4 2 1.2 3.3-.5 3.8-3.3 6.7-6.2 9.1a79 79 0 01-10.4 7.5l-1.1.7h-.2m2.3.2l.1.2A22 22 0 00363 254c.8 0 1.7-.1 2.4-.6"/><path fill="#4F8E99" fill-rule="nonzero" d="M282.6 224.6l4-.5h4a92.7 92.7 0 018 .5l-4 .5h-8l-4-.5zm-32.6.1c2.5-.3 5-.4 7.5-.5l7.6-.1a334.2 334.2 0 0115 .6l-7.5.4-7.5.1a334.2 334.2 0 01-15.1-.5zm-224.5-1.2l19.8-.3 19.9-.1 39.8.1 39.7.5 19.9.3 19.9.4-20 .1h-19.8l-39.7-.2-79.5-.8zm324.6 28.2v-.3a16.5 16.5 0 011.8-6 40 40 0 013.4-5.3c1.2-1.7 2.6-3.3 4.4-4.4 1.9-1.1 3.9-1.8 6-2-2.1.4-4 1.2-5.7 2.4a18 18 0 00-4.3 4.4 68.5 68.5 0 00-3.4 5.1c-1 1.8-1.8 3.7-2.1 5.8v.3z"/><path stroke="#000" d="M359.3 236.3l.7-.4a2 2 0 012.2.7c.3.4.4.8.4 1.3a7 7 0 01-1.9 4.5c-2.7 3.2-6.2 5.5-9.3 8.4h0M319.2 374l-1.4-.1c.3.3 1 .4 1.4.2z"/><g fill="#FFF" fill-rule="nonzero"><path d="M319.2 374.1l.7-.6c.2-.3.3-.6.2-1 0-.6-.4-1.2-.6-1.8a42.2 42.2 0 00-3.6-7.1l-2-3.5a186.9 186.9 0 01-13.2-29l-2.6-7.7-2.3-7.6 2.6 7.6 2.7 7.5a278.8 278.8 0 0015.2 32.5l1.8 3.6 1.6 3.7.5 2c.1.3 0 .6-.2.9l-.8.5z"/><path d="M350.2 252.7a30.8 30.8 0 014.1 15.3 75.4 75.4 0 01-3 19.7 7 7 0 01-2.6 3.2l-1.5 1.1c-.5.5-.7 1-.8 1.6l-.8 4a516.3 516.3 0 01-12 46.5l-9.3 30.6-5.1-.7 5 .7c3-10.2 6.1-20.4 9-30.7a856.5 856.5 0 0011.9-46.4l.8-4c.1-.6.4-1.3.9-1.9.5-.5 1-.8 1.7-1.2a6 6 0 002.3-3 78.4 78.4 0 003.1-19.5 34 34 0 00-.8-7.9 23 23 0 00-3-7.3zM293.9 322l3.7 12.4 3.6 12.6 3.6 12.6 3.4 12.5.1.4h-.3c-.6-.3-1.2 0-1.5.5l-.2-.2c3.1-1 6.3-1.7 9.5-2.3v.2l.3-8-.2 8c-3.2.7-6.4 1.4-9.5 2.4l-.5.2.2-.4c.3-.7 1.1-1.1 2-.9l-.4.3-3.5-12.6-3.6-12.6-3.4-12.5-3.3-12.6z"/></g><path stroke="#000" d="M309.3 169c0-.7.3-1.3.6-1.3s.5.6.5 1.3c0 .6-.2 1.2-.5 1.2-.4 0-.6-.6-.6-1.2z"/><path fill="#4F92C4" fill-rule="nonzero" d="M302.2 204l6.7-3 6.8-3 6.8-2.7 3.4-1.3 3.4-1.4.4-.1.2.4 3.8 6.5.3.6-.6.2a1074.6 1074.6 0 01-21.5 8.3l-7.2 2.6 7-3.1 7-3c4.8-2 9.5-4 14.3-5.8l-.3.8-3.7-6.6.7.3-7 2.6-6.8 2.6-6.8 2.5c-2.3 1-4.5 1.8-6.9 2.6z"/><path fill="#4F92C4" fill-rule="nonzero" d="M302.2 204a9.9 9.9 0 011.8 3.4l.4 1.8c0 .7.2 1.3 0 2l-.8-1.7-.7-1.7c-.3-.5-.4-1.2-.6-1.8a7 7 0 01-.1-1.8v-.2z"/><path fill="#4F92C4" fill-rule="nonzero" d="M302.3 204a17 17 0 010 3.2 794529.7 794529.7 0 00-.5 3l-.7-.5.8-.2h.7l1.5-.2-1.3.7c-.2.2-.5.2-.7.3l-.6.3-.8.4v-.9l.2-1.5.3-1.6c.2-1 .5-2 1-3zm2.5 8a10 10 0 01-.6 4c-.4 1.4-1 2.6-1.7 3.8a178 178 0 01-4.3 7c-1.5 2.3-3 4.5-4.4 6.9a78.8 78.8 0 00-3.9 7.1 68.2 68.2 0 017.4-14.5l2.2-3.5 2.2-3.4a18 18 0 003.1-7.4zm7.9 25.6a75.8 75.8 0 0111.7-27.6 11 11 0 013.2-3 6.4 6.4 0 014.4-1 7 7 0 014 2.2 31 31 0 016.6 11.2c.3 1.5.4 3 .4 4.5v1l-.2 1.1-.3 2.2-.8 4.2a135.5 135.5 0 01-8.4 24.5 40.5 40.5 0 01-5 7.1l-3.1 3-3.3 2.9c-1.1.9-2.3 1.7-3.7 2.4-1.3.6-2.8 1-4.3 1-1.5-.1-2.9-.7-4.2-1.2a49.6 49.6 0 01-11.4-6.2 53.7 53.7 0 0011.5 5.8c1.3.6 2.7 1 4 1 1.4 0 2.8-.4 4-1 1.3-.7 2.4-1.5 3.6-2.5a75.4 75.4 0 006.2-5.8c2-2 3.5-4.4 4.8-7a137.3 137.3 0 009.1-28.5l.3-2v-1.1l.1-1.1a14 14 0 00-.3-4.1 19.1 19.1 0 00-3.7-7.5c-.9-1.2-1.7-2.3-2.7-3.3-1-1-2-1.8-3.3-2-1.3-.3-2.7.1-3.8.8a10 10 0 00-3 2.8l-2.5 3.6a68.5 68.5 0 00-7.6 15.3c-.8 2.8-1.7 5.5-2.3 8.3zM293 264.7a77.6 77.6 0 015-15.4c.8-1.6 1.7-3.1 2.8-4.6l-2 5-1.8 5-1.9 5-2 5zm2.8 4a54.4 54.4 0 014.3-13.3 93.9 93.9 0 016.8-12.3l-3 6.3-2.7 6.4c-1 2.1-1.9 4.3-2.7 6.4l-2.7 6.5z"/><path fill="#4F92C4" fill-rule="nonzero" d="M314.7 244c.3-.8.9-1.5 1.6-2a6.9 6.9 0 014.9-1.9c.9 0 1.7 0 2.5.4a16.8 16.8 0 00-4.7 1.2l-2.2 1-2.1 1.3zm0 0c.4.5.8 1 1 1.6.4.6.5 1.3.5 2 0 .6-.2 1.4-.6 2-.4.6-1 1-1.9 1.2a1 1 0 01-.7 0c-.2 0-.5-.2-.6-.5-.4-.4-.4-.8-.4-1.2l.1-1 .3-1a8.2 8.2 0 012.3-3zm0 0a14.2 14.2 0 00-1.5 4.3c0 .3-.2.6 0 .8v.5h.4a2 2 0 001.1-.7c.4-.4.6-.9.7-1.4v-1.7l-.7-1.8zm-10.5 4.1c.3-1 .9-2 1.6-3a11 11 0 012.6-2.3c1-.5 2.2-1 3.5-.8a3 3 0 011.7.7c.4.4.8.9 1 1.4a3.8 3.8 0 00-2.8-1.2c-1 0-2 .5-2.8 1a21 21 0 00-2.6 1.8l-2.2 2.4zm-33 3.6a86.3 86.3 0 013.1 15.8c.3 1.7.5 3.6.6 5.3a54.1 54.1 0 01-2.4-10.5 169 169 0 01-1.3-10.6zm0 0c.4-.4 1-.6 1.4-.8l1.5-.5 1.5-.3h1.6c-.4.4-1 .6-1.4.8-.4.3-1 .4-1.4.6l-1.6.2c-.5.2-1 .2-1.6 0zm3.7 20.9c.2-.4.6-.7 1-1 .3-.4.7-.7 1.1-.9l1.4-.5c.4-.1 1-.2 1.4-.1h.1l-1.2 1-1.2.6-1.2.6-1.4.3z"/><path fill="#000" fill-rule="nonzero" d="M282 239.9c.2 2.3.1 4.6.4 7 .2 2.2.8 4.4 1.9 6.3 1 2 2.6 3.6 4.6 4.5 2 .8 4.4 1 6.5-.2a5.7 5.7 0 01-3.1 1.3h-1.9a8.8 8.8 0 01-4.8-2.2 9 9 0 01-2.2-3 15 15 0 01-1.7-6.8 23 23 0 01.4-6.9z"/><path fill="#000" fill-rule="nonzero" d="M299 249c-1 .2-2 0-3-.3-1-.4-1.8-1-2.5-1.7a19.5 19.5 0 01-3.5-4.8 41.6 41.6 0 01-3.6-11.3l-.2-1.5-.3-1.3c-.4-.8-.9-.8-1.7-.4a27.8 27.8 0 00-5 3 21.4 21.4 0 00-3.8 4.3c-.6.8-1.2 1.6-1.2 2.5 0 .5.2 1 .5 1.2.3.4.8.5 1.3.3-.4.3-1 .2-1.4-.1a2 2 0 01-.8-1.4c0-1 .6-2 1-2.8a21 21 0 016.2-6.4l2.6-1.5c.5-.2 1.1-.4 1.8-.3.3 0 .7.3 1 .5l.4.8c.2.5.4 1.1.4 1.6l.2 1.4a44 44 0 004.7 13.7c.5.8 1 1.6 1.7 2.3a7.3 7.3 0 005.2 2.2z"/><path fill="#000" fill-rule="nonzero" d="M281.9 230.6a28.6 28.6 0 00-4.8 7.8c-.5 1.4-1 3-1.2 4.4-.1.7-.3 1.5-.2 2.1 0 .4.2.7.5 1 .2.2.6.2 1 0l-.6.3a1 1 0 01-.7-.1 2 2 0 01-.8-1 6 6 0 01-.1-2.5 16.3 16.3 0 016.9-12z"/><path fill="#000" fill-rule="nonzero" d="M281.2 236.3c-.8 1.7-1.7 3.4-2.3 5a19.3 19.3 0 00-1.3 8c.2 1 .3 1.8.7 2.6.1.4.4.6.7.8.3.2.7.3 1.1.2.9-.1 1.7-.7 2.4-1.3-.6.8-1.3 1.4-2.3 1.8a2 2 0 01-1.5 0c-.6-.3-1-.8-1.2-1.1-.6-1-.8-2-1-2.9a12.7 12.7 0 01.5-5.8c.2-.9.6-1.8 1-2.6a26 26 0 013.2-4.7zm-15.7 17.1a14.6 14.6 0 00-5.6-5.8c-2.4-1.4-5-2-7.7-2.7h-.2v1l.1.4a20 20 0 002.4 2l2.5 1.7a16 16 0 012.4 2v.2c.6 1.2.8 2.4 1.1 3.6.4 1.2.8 2.4 1.7 3.3a4 4 0 01-1.3-1.4l-.8-1.7c-.4-1.2-.7-2.4-1.3-3.4v.1c-1.4-1.4-3.2-2.4-5-3.5l-2.5-2c-.3-.3-.3-.7-.5-1v-.9c0-.3 0-.6.3-1l.8-.4c.2 0 .4 0 .6.2h-.1a25.6 25.6 0 017.9 3 14 14 0 013.2 2.8c.8 1 1.5 2.2 2 3.5z"/><path fill="#000" fill-rule="nonzero" d="M265.5 253.6c-.8-2.2-1.5-4.4-2.7-6.2-.6-1-1.4-1.7-2.3-2.3-.9-.6-1.9-1-3-1.4a31.4 31.4 0 01-6.2-3.1l-.7-.5-.2-.1v1.4c.2 1 .8 2 1.7 2.7-1-.5-1.9-1.4-2.3-2.6l-.1-.9v-1l.4-.3h.5c.2 0 .4 0 .5.2l.8.4c2 1 4 2 6 2.8 1.2.4 2.2.8 3.3 1.6 1 .7 1.8 1.6 2.3 2.6 1.2 2 1.7 4.4 2 6.7z"/><path fill="#000" fill-rule="nonzero" d="M251.1 239.8l.8-.5h1c.6 0 1.2.2 1.8.4l3.5 1.4 3.5 1.6 1.6 1.1c.5.5 1 1 1.3 1.5a63.3 63.3 0 013.2 6.9c.4 1.2.8 2.3 1.5 3.3a4 4 0 003 1.7c-.6.2-1.2 0-1.8-.2a4 4 0 01-1.6-1.2c-.9-1-1.4-2.1-2-3.3l-1.6-3.3c-.5-1.1-1-2.3-1.7-3.2l-1-1.4-1.5-1c-1-.6-2.2-1-3.3-1.7-1.1-.5-2.2-1-3.3-1.7-.6-.2-1.1-.5-1.7-.6-.5-.2-1.2-.2-1.7.2zm22.8 28.4c-1.4 0-2.6.6-4 .6-.8 0-1.5-.3-2-.7-.7-.4-1.1-1-1.6-1.4-2-1.9-4.4-2.9-6.7-4.1a19 19 0 01-3.5-2.3 2 2 0 01-.8-1l-.2-.6c0-.3.2-.6.3-.8a2 2 0 011.2-.7h1.2l7.6 2.8-7.8-1.9c-.6-.1-1.2 0-1.3.3v.4l.6.6c1 .8 2.2 1.5 3.3 2l3.6 2a13 13 0 013.2 2.6c1 1 1.8 2 3.1 2.2 1 .2 2.4-.3 3.8 0z"/><path fill="#C5505D" fill-rule="nonzero" d="M275.7 195.4c0-.6.2-1.1.6-1.5a3 3 0 011.3-.9c1.1-.3 2.2.3 3 1 .7 1 1 2 1 3.1s-.3 2.2-.6 3.2l-.2-.1c.7-.8 1.6-1.5 2.7-1.7.5 0 1 0 1.6.3.5.2.8.7 1 1.2.3 1 0 2.2-.5 3.1-.5 1-1.2 1.8-1.6 2.7l-.3-.2 1.1-1.2c.5-.3 1-.6 1.6-.7a2 2 0 011.7.3c.5.4.8 1 .8 1.6a4.5 4.5 0 01-1.4 3.1c-.8.8-1.6 1.5-2.2 2.4l-.3-.3c.5-.5 1-.9 1.6-1.2l1-.3.6-.1c.2 0 .4.1.5.3.3.4.2.9 0 1.2-.2.4-.5.6-.7.8l-1.5 1.3a90 90 0 01-6 4.8l-.3-.5c.3 0 .6 0 .8.3.3.2.4.5.4.7 0 .7-.5 1.1-1 1.3-.5.2-1 .1-1.5 0l-1.1-.8.4-.2c0 .4 0 .8-.2 1.2a2 2 0 01-1 .8c-.4.2-.9 0-1.2-.3a2 2 0 01-.4-.5l.1-.8.5.4-1 1-.6.4c-.2 0-.4.3-.8.3-.2 0-.4-.2-.5-.3a.6.6 0 01-.2-.4v-.8c0-.5.3-1 .7-1.4l.2.5c-1.7.5-3.4.6-5.2.2l-1.3-.3c-.2 0-.4 0-.7-.3a.8.8 0 01-.4-.7c0-.6.4-1 .8-1.2.5-.3 1-.3 1.4-.3l-.1.5a19.6 19.6 0 01-7-5.6c-.4-.5-.8-1.1-.7-1.8.1-.4.3-.7.7-1 .2-.2.6-.2 1-.2l1.8.1-.2.5a10 10 0 01-2.3-3 10.5 10.5 0 01-1.2-5.6c0-.3 0-.6.2-1 .2-.2.6-.5 1-.5.7-.1 1.3.3 1.8.8.4.5.8 1 1.3 1.1l-.2.3a9.1 9.1 0 01-1.5-6c0-.7.3-1.5.8-2 .2-.4.5-.6.8-.8a2 2 0 011.1 0c.8.3 1.3.8 1.8 1.2l2.8 3-.1.1a6.5 6.5 0 011-4.6l.3-.6c.2-.2.4-.4.8-.4l.7.4.6.5 1 1.3a5 5 0 011.1 2.8 8 8 0 00-2-4.2c-.4-.4-.8-.8-1.3-.9-.2 0-.4.2-.6.4l-.5.6c-.2.4-.5.9-.6 1.4a7 7 0 00-.1 3v.5l-.2-.3c-.9-1.1-1.8-2.1-2.8-3-.6-.4-1.1-1-1.7-1.1h-1l-.7.6a3 3 0 00-.6 1.8v2a8 8 0 001.5 3.8l.3.5-.6-.2c-.6-.2-1-.8-1.5-1.2-.4-.4-1-.8-1.5-.7-.5 0-.8.6-.8 1.2l.1 1.8a10.8 10.8 0 003.4 6.3l.4.5h-.6l-1.7-.2c-.3 0-.5 0-.8.2-.2 0-.3.3-.4.5 0 .5.2 1 .5 1.5l1.1 1.4c1.7 1.7 3.6 3 5.7 4l1 .5h-1l-1.1.2c-.3.1-.6.5-.6.8 0 .2.4.4.8.5l1.2.3c1.7.2 3.4.2 5-.3l1.3-.3-1 .8c-.3.3-.5.6-.5 1v.6l.2.3.5-.2.5-.4.9-1 .4.4c0 .2 0 .4.2.6.2.2.5.2.7.2.6-.2.8-.9.8-1.5v-.6l.4.4 1 .6c.4.2.8.2 1.1.1.4-.1.7-.4.6-.7 0-.3-.3-.6-.6-.5l-1.4.3 1.2-.8a70 70 0 006-4.8l1.5-1.3.7-.7v-.6c-.1-.2-.3-.2-.6 0l-.9.3c-.5.2-1 .6-1.5 1l-1.2 1.1.8-1.4c.6-1 1.5-1.6 2.3-2.4a5 5 0 001-1.3c.2-.4.3-1 .3-1.5s-.2-1-.6-1.2a2 2 0 00-1.5-.3c-1 .2-1.8 1-2.4 1.8l-.8 1 .5-1.1c.4-1 1.1-1.9 1.6-2.7.5-.9.8-2 .5-2.8-.1-.5-.4-.9-.9-1.1-.4-.2-1-.3-1.4-.2-1 0-1.9.7-2.5 1.5l-.4.3.2-.4c.3-1 .6-2 .7-3.1 0-1.1-.3-2.2-1-3-.7-.8-1.8-1.4-2.8-1-.5 0-1 .3-1.4.7-.6.6-.8 1.1-.8 1.7z"/><path stroke="#000" d="M275.7 195.4v0z"/><path fill="#000" fill-rule="nonzero" d="M280 216.4a56.7 56.7 0 012.7 8.2l-.4-.2h.2v.2l.7 3.2-.6-1.6-.5-1.5.2.2h-.1v-.2a88.1 88.1 0 01-2.3-8.3zm-1.4 2.4a37.1 37.1 0 012.3 7.2c.3.8.5 1.7.6 2.5l-1-2.4c-.3-.8-.7-1.6-.8-2.4-.4-1.6-.9-3.2-1.1-5z"/><path fill="#4F92C4" fill-rule="nonzero" d="M342.5 222.8a149.6 149.6 0 002 14 85.4 85.4 0 004 13.5 39.3 39.3 0 01-5-13.2 38.5 38.5 0 01-1-14.3zM330.2 201c1 .7 2 1.6 3 2.5l2.5 3 2.1 3.4 1.7 3.7c-.9-1-1.6-2.1-2.4-3.2l-2.3-3.2-2.3-3.2-2.3-3z"/><path fill="#C5505D" fill-rule="nonzero" d="M328.8 184.2c2.4-2.1 5.2-3.8 8.3-4.9 3-1 6.3-1.3 9.5-.5a8.6 8.6 0 015.6 4.3l.5 1.2.2 1.2a13 13 0 010 4.8c-.3 1.6-.8 3-1.4 4.6-3.5 4.8-7.4 9.4-11 14.1-3.6 4.8-7 9.8-9 15.4-1 2.8-1.8 5.8-2 8.7-.2 1.5-.2 3-.2 4.5s.1 3 .4 4.4c.7 5.9 3 11.6 7 16a27.9 27.9 0 0024 9.4 29 29 0 0015.8-7.4l1.5-1.6 1.6-1.6c1-1 1.9-2.2 2.9-3.4a74 74 0 0015.7-50l-.2-2.1-.3-2.2c-.1-1.5-.5-3-.9-4.4l-.6-2.2-.3-1-.3-1.1-.7-2.1-.9-2a69.4 69.4 0 00-4-8l-.6-1-.6-1-1.2-1.8-2.5-3.7c-7-9.6-15.6-18-23.7-26.8a168.5 168.5 0 01-16.5-21.3 82.8 82.8 0 01-4.1-8 45.8 45.8 0 01-4.3-18 49 49 0 013-18.2c1-2.8 2.5-5.6 4.3-8.2 1.8-2.5 4-4.7 6.8-6.4 2.7-1.7 5.7-2.8 9-3 3-.4 6.2 0 9.2.9h.1a18.9 18.9 0 018.5 9.1c1.5 4 1.5 8.4.5 12.5a31.3 31.3 0 01-14.3 19.6v-.1a59 59 0 01-9.6 5.6 34.7 34.7 0 01-11 2.8h.1c-3 .6-6.3 1-9.5 1.1a34.6 34.6 0 01-12-1.7c-.4 0-.7-.3-1.1-.4l-1.2-.5c-1.4-.8-2.9-1.6-4.1-2.7l-1-.8-.8-.8-1.7-1.8-1.5-1.9-1.5-2a40.8 40.8 0 01-4.4-8.5c-1.1-3-2-6.1-2.8-9.2-1.4-6.3-2.2-12.6-3.2-18.9a56 56 0 00-14.8-34A62.2 62.2 0 00269 17.7a89.8 89.8 0 00-17.1-7.8 160 160 0 00-37-7.6l-4.7-.4-4.7-.1c-1.6-.2-3.2-.1-4.8-.1H196l-2.4.1h-1.2l-1.2.1-4.7.4-4.7.5c-.8 0-1.6.1-2.3.3l-2.3.3A146.8 146.8 0 00124 22.2c-5.3 3.2-10.4 7-14.8 11.5a49 49 0 00-10.7 15.2 40.3 40.3 0 00-2.6 8.9l-.4 2.3-.1 2.3a30.7 30.7 0 003 13.3 14 14 0 006.5 6c1.4.6 2.9 1 4.4 1 .7.1 1.5.2 2.3.1h1.1l1-.2a11.5 11.5 0 007.6-4.4c1-1 1.6-2.4 2-3.9.4-1.4.6-3 .5-4.4a17.1 17.1 0 00-7.4-13.4l-2-1a26.8 26.8 0 00-18-2.4 58 58 0 00-17.2 7.3 148.2 148.2 0 00-21.8 18 199.4 199.4 0 00-33.8 45.4A193 193 0 009 158.9a159.6 159.6 0 00-5.2 74.9 188 188 0 009.7 36.5c1 3 2.4 5.9 3.7 8.8l2.1 4.2 1 2.1 1.2 2 1.1 2 1.3 2c.8 1.4 1.6 2.8 2.5 4l2.8 3.9 2.9 3.7c4 4.8 8.6 9.1 13.6 13a75.2 75.2 0 0023 11.8c.7.3 1.4.4 2.2.5l2.3.2h1.2l1.3.3c1.6.4 3 .9 4.6 1.2a41.7 41.7 0 0027.1-4 33.8 33.8 0 0016-22c1.4-6.1 1-12.7-1.6-18.3a29 29 0 00-21.5-16.1 26.5 26.5 0 00-17.7 4.4c-2.6 1.7-5 3.9-7 6.2a40.2 40.2 0 00-8.3 35.3l.7 2.2.8 2.3a57.8 57.8 0 004.4 8.3l1 2.1.3.6.2.5c.2.4.3.7.6 1 .8 1.2 2 2.4 3 3.5a60.8 60.8 0 0028 16.7 61.6 61.6 0 0037.2-2.3c3-1.2 5.8-2.6 8.4-4.2a147 147 0 008-5.2c2.6-1.8 5.2-3.5 8-5a31.4 31.4 0 0127.6-2.4 33.5 33.5 0 0112 7.7c1.1 1.2 2 2.5 3 3.8a60 60 0 002.8 3.8 28 28 0 012.7 4c1.6 2.6 3 5.5 4.5 8.3a101 101 0 0010.2 16c2 2.5 4.2 4.8 6.7 6.7a22.5 22.5 0 008.6 3.7c1.6.3 3.2.6 4.7.7a43.6 43.6 0 0023-4.2 42.1 42.1 0 01-8.8 3.4 44 44 0 01-23.5-1.2 23 23 0 01-4.1-2.3 38.7 38.7 0 01-6.8-6.6c-4-5-7.2-10.5-10.2-16-1.6-2.9-3-5.7-4.6-8.4l-2.6-4-3-3.7c-.8-1.3-1.7-2.6-2.8-3.8a35.6 35.6 0 00-11.8-7.6 31 31 0 00-27.2 2.5c-2.8 1.5-5.4 3.3-8 5-2.6 1.8-5.3 3.6-8 5.2a57.6 57.6 0 01-27.1 8.6 59.6 59.6 0 01-47.5-18.6l-3.2-3.7-.6-1.1-.3-.6-.2-.5-1-2-2.4-4.2a34 34 0 01-3-6.6l-.7-2.3a41.3 41.3 0 018.4-36.2c2.1-2.4 4.5-4.6 7.1-6.4a27.5 27.5 0 0118.5-4.6 30.2 30.2 0 0122.4 16.7 30 30 0 011.9 19 35.6 35.6 0 01-16.7 22.8A42 42 0 0180 331c-1.6-.3-3.2-.8-4.6-1.2-.8-.1-1.5-.3-2.3-.3l-2.3-.1c-.8 0-1.7-.3-2.5-.5l-2.2-.8A75.7 75.7 0 0131 303.7l-3-3.7c-1-1.3-2-2.6-2.8-4-1-1.3-1.8-2.6-2.6-4l-1.3-2-1.2-2.1-1.1-2.1a38 38 0 01-1.2-2.1l-2-4.3a170 170 0 01-13.7-45.6 158.8 158.8 0 01-1.8-38A185.7 185.7 0 0122 123a191.8 191.8 0 0148.3-58.7 85 85 0 0116.4-10c3-1.3 6-2.4 9.2-3a28.8 28.8 0 0119 2.4l2.3 1.2 2 1.6a19 19 0 016.2 13.2c0 1.6-.1 3.3-.6 5a12.9 12.9 0 01-6.1 7.7c-1.5.9-3 1.4-4.7 1.7l-1.2.2H109a15.9 15.9 0 01-9-4 16.1 16.1 0 01-3-4 25.1 25.1 0 01-3-9.3 39 39 0 01-.3-4.9l.1-2.4.4-2.4a38 38 0 012.7-9.3 51 51 0 0111-15.7A82 82 0 01123 20.6a129 129 0 0117-8.6 166.2 166.2 0 0136.8-10.3l2.4-.3 2.3-.3 4.8-.5 4.8-.4h2.3l2.4-.1h9.5l4.8.1 4.8.4C227.6 1.8 240 4 252.3 8.2c6 2.1 11.9 4.7 17.4 8a66.4 66.4 0 0115 12A55.8 55.8 0 01295 44.4a86 86 0 014.7 18.6c1 6.2 1.8 12.5 3.2 18.7.7 3 1.6 6 2.7 9a41 41 0 005.6 10.1l1.5 1.8 1.6 1.7.8.8.9.7c1.2 1 2.5 1.8 3.8 2.5l1.1.5 1.1.4a31.6 31.6 0 0011.4 1.6c3.2 0 6.3-.5 9.4-1h.1c3.6-.3 7.1-1.3 10.4-2.8a54 54 0 009.5-5.4 30.7 30.7 0 0013.8-18.8c.9-3.8.9-8-.5-11.6a16 16 0 00-3.2-4.9 21 21 0 00-4.7-3.6h.1c-2.8-.7-5.8-1-8.8-.8-3 .3-5.8 1.3-8.4 2.9a24.6 24.6 0 00-6.4 6 34.5 34.5 0 00-4.3 8 47.6 47.6 0 00-2 26.8 69.9 69.9 0 0012 23.9 131.3 131.3 0 0011.6 13.7c8 8.9 16.5 17.3 23.6 27l2.6 3.8 1.2 1.9.6 1 .6.9c1.5 2.6 2.8 5.3 4 8l.9 2.1.7 2.2.4 1 .2 1.2.7 2.1c.3 1.5.7 3 .8 4.4l.3 2.3.2 2.3a74.8 74.8 0 01-16 50.4l-3 3.4-1.6 1.6-1.6 1.6a29.7 29.7 0 01-16.1 7.5 28.1 28.1 0 01-24.2-9.6 31 31 0 01-7.2-16.3l-.4-4.5c0-1.5 0-3 .2-4.5.3-3 1-5.9 2.1-8.7a63 63 0 019-15.4c3.7-4.7 7.6-9.3 11.2-14 .5-1.5 1-3 1.3-4.6a13.4 13.4 0 00-.2-6l-.4-1c-.4-.7-.8-1.4-1.4-2-.5-.6-1.2-1-1.9-1.5l-2.2-.9c-3.1-.8-6.4-.4-9.4.5-3 1-5.8 2.7-8.2 4.8z"/></g></svg>