<svg xmlns="http://www.w3.org/2000/svg" width="400px" height="400px" viewBox="0 0 400 400"><g fill="none" fill-rule="evenodd" transform="translate(0 5)"><path fill="#DCE8EB" fill-rule="nonzero" d="M42.8 274l349-115.3V389S9.3 386.3 8.6 384c-.7-2.2 34.2-110 34.2-110z"/><g fill-rule="nonzero" transform="translate(16 15.3)"><g fill="#FFF"><path d="M64 23.1c-.4-.3-1-.3-1.5-.3h-12l6.8-.3h2.5l.3-.3.1-.4c.3-.3.3-.5.3-.8v-.5c0-.2-.2-.4-.4-.6a1 1 0 0 0-.5-.3c-.5-.1-1 0-1.4.1l-1.4.4a28.4 28.4 0 0 1-17-.9l-2.6-1-1.3-.8a10 10 0 0 0-1.2-.6l-1.4-.4-1.3-.3-.8-.2-2-.5c-3.7-.6-7.5-.8-11.3-.4a38.3 38.3 0 0 1 11.4.1h.2v-.5c.4 0 .7 0 1-.2v-.1c.3-.3.4-.6.5-1v-.5l-.5.1h-.7a.7.7 0 0 1-.5-.4c-.2-.4 0-1 .5-1 .5-.1.9.2 1 .6l.2.5.6-.2.6-.3c.2 0 .3-.2.3-.4l.1-.3a5.7 5.7 0 0 1-2.7-1.2l-.4-.5a.7.7 0 0 1 0-.7c.1-.3.4-.4.5-.5l1.4.1 1 .8c.4.4.5 1 .5 1.5 1.6.3 3.3 0 4.7-.6.8-.3 1.5-.7 2.1-1.2.7-.5 1.3-1 1.7-1.7.4-.6.6-1.4.3-2.2-.3-.7-1-1-1.8-1.2 0 0 0 .2-.2.2l-1 .8c-.7.5-1.4.9-2.3 1l-1.3.2h-.6l-.7-.2a.6.6 0 0 1-.3-.3l-.1-.4c0-.3.1-.5.3-.7l.6-.3.7-.2c1.3-.4 2.8-.5 4.2-.4h.1l.4-.5.1-.2v-.3c0-.7-.3-1.5-1-2-.5-.4-1.3-.5-2.1-.5a34.4 34.4 0 0 0-10.2 2.4h-.2a33.4 33.4 0 0 0-9.5 6.6 17039496.5 17039496.5 0 0 0-1.6 1.6l1 1.7 1.2 2-1.4-2-1.5-2-2.7-4c-1-1.3-2-2.5-3.2-3.5a8 8 0 0 0-2-1.1c-.8-.2-1.6-.3-2.4-.2 0 0-1 0-2.1.7l-.2.5c-.1.4-.4.8-.9 1H.6C.4 4.4 0 5 0 6a38.5 38.5 0 0 0 7.6 22.8 26 26 0 0 0 5.8 5.5A20.9 20.9 0 0 0 32 36.9a35 35 0 0 1-18.2-14.2l-.4-.8v-.2l.2.6 1 1.6.6.9.1.2 1.9 2c.8 1 1.7 1.8 2.6 2.6l2.8 2.3.8.5.7.5.9.6.6.3c1 .6 2.1 1.2 3.3 1.7l3.3 1.4c1.7-.5 3.3-1.3 4.9-2.2l-5-2v-.2h.2l2 .7 4 .8a19 19 0 0 0 4.5-4h.1l-1.3 1.4c-1 1-2 1.9-3.1 2.6l1.9.3 4.2.2c.7 0 1.4 0 2-.3.3-.1.5-.3.6-.6.2-.2 0-.5 0-.8-.4-.5-1-1-1.5-1.3l-.9-.6-.9-.6c-1-.4-1.9-1-2.8-1.3-.2 0-.4 0-.5-.2-1 .4-2 .4-3 .3-2-.4-3.7-1.2-5.5-1.6h-.4l-1.4-.3 1.5-.1a24.1 24.1 0 0 1 8.5 1.1l.5.1.8-.5.4-.6v-.6a2 2 0 0 0-1-1l-1.3-.6a32.3 32.3 0 0 0-4.4-1.2 4 4 0 0 1-1.5.6h-1.1c-.9-.2-1.5-.5-1.8-1.1v-.4h.1c1.5 0 3 .2 4.4.5l.2-.4c.3-.8 0-1.6-.7-2.3-.7-.6-1.8-1-2.9-1l-.3.2c-.4.1-.9.2-1.3 0l.2-.1-.2-.1h.2c.5-.1 1-.2 1.6-.1l.3-.2v-.2c.3-.3.2-.7 0-1-.1-.3-.5-.5-.8-.7a5 5 0 0 0-2.2-.4c-.8 0-1.5.2-2.3.3.8-.1 1.5-.3 2.3-.3h1.3l.9.3c.3.2.7.4.9.7l.2.6c0 .2 0 .4-.2.6l-.3.3 1.5.2 1.4.8c.4.4.7 1 .8 1.5 0 .5-.1.9-.4 1.3l1.4.3c1 .2 2 .5 2.9.9.4.2 1 .3 1.3.6.5.3 1 .6 1.1 1.1v.9l-.3.7-.8.5 3 1.3 1 .5.7.5.3-.5-2.2-1.6a83.3 83.3 0 0 1 6.8 4.3l1.7 1.1c.5.4 1.1.8 1.7.8.3 0 .6 0 .8-.3l.4-.8c.2-.6.2-1.3.2-2l.1-.5-.8-.3a27.8 27.8 0 0 1-5.6-2.2l-1.7-1 3.7 1.5c1.2.5 2.5 1 3.7 1.3l2 .5.9.2 1 .2c.5 0 1-.6 1.1-1.2.2-.6 0-1.3 0-2-1.8.2-3.5 0-5.3-.4a20.6 20.6 0 0 0 6.7 0 6 6 0 0 0 1.5-.7c.4-.3.8-.7 1.1-1.2.2-.4.4-1 .4-1.5.1-.4 0-1-.4-1.3zM4.7 7.1h.9c.5.3 1 .9 1 1.4-.4-.4-.8-.8-1.2-1-.4-.1-1-.2-1.4 0 .1-.2.4-.4.7-.5z"/><path d="M46.7 38.3l-.9-.4-8.4-3.1-.7.3c-1.2.8-2.6 1.4-4 2 .4 0 .9.2 1.4.4l.8.2.9.3a46 46 0 0 0 7.2 1.4l1.8.2h1.8c.3 0 .6-.1.8-.3.2-.2.2-.4 0-.6l-.7-.4z"/></g><path fill="#C3D8DC" d="M107.5 279a228.7 228.7 0 0 0 48.8-20.8c4.3-2.6 11.8-5.5 11.4-11.7-.4-7.2-9.6-5.8-14.3-4.8-6 1.3-12 2.2-18 2.8-5.6.6-11.7 1.3-17.4.7-6-.5-12-2.7-18-1.2-6.5 1.6-13 3.7-19.3 5.7A538.3 538.3 0 0 0 43 263.4c-4.8 2-10.5 5.8-9.2 10.8 1 3.5 5 5.1 8.6 5.5 12.3 1.4 24.5-5.4 36.7-3.5 4.6.8 9 2.7 13.5 3.5 5 1 10 .4 15-.8zm156.7 49.3c-4.8.5-9.2 2-13.9 2.4a335.2 335.2 0 0 0-35.4 4.8 294 294 0 0 0-55 16.8c-2.2.9-4.7 2.2-5.2 4.5-.5 3 2.5 5.4 5.3 6.4 12 4.6 25.3-.6 38.1-.7 14 0 27.4 6 41.3 7.6 20.6 2.4 40.9-5 60.4-12.2 6.3-2.4 13.8-6.5 13.6-13.2-.5-9.6-11.2-9-17.8-10.4-2.7-.5-5.1-1.7-7.7-2.7a60.2 60.2 0 0 0-34.6-2.3"/></g><g fill="#FFF" fill-rule="nonzero" transform="translate(29.7 38)"><path d="M274.6 217.3v1.6l-1-8.4-.7-4.1-.7-4.2-.7-4.1-.3-2.1-.2-1-.2-1a45 45 0 0 0-1-3.6h-.5a16.4 16.4 0 0 1-10-.3c-1.7-.5-3.2-1.4-4.6-2.5l-1-.9-.8-.9-.9-1a3 3 0 0 1-.7-1.1c-.3-.8-.4-1.7-.5-2.5-.2-.9-.4-1.7-.8-2.4-.5-.6-1.3-.8-2.1-.8a2 2 0 0 0-1.3.4c-2.5 2-2.7 7.5.7 9.3h-.9l.2.1v.1a7 7 0 0 0-1 0h-2.5l-.6.1-1 .2-2.3.6 2.1-.5 2.2-.3a10 10 0 0 1 4.2.1 20 20 0 0 0-8.4 1 48.1 48.1 0 0 0-11.7 5.2l-1.9 1.1-.9.6-.8.6-.8.8-.3.2c-1.8 1.8-4 4.4-3 5.3l.6-.7 1-.9 1-.7a49.9 49.9 0 0 1 16-6.4l2.5-.4a19 19 0 0 1 4.9 0 19 19 0 0 0-5 .2c-.8 0-1.6.3-2.4.4a45 45 0 0 0-7 2.1 48.4 48.4 0 0 0-8.8 4.4 24 24 0 0 0-3.1 2.8c-2.6 2.9-5.4 7-1.6 8.2h.1l1.2-1.2c1.5-1.4 3.2-2.6 5-3.8a19.8 19.8 0 0 1 5.6-2.5c2-.5 4-1 6-1.2 2-.3 4.2-.4 6.2-.3h.8l.7.2h.8l.8.2c1 .2 2 .6 2.9 1-2-.8-4-1-6-1a37.4 37.4 0 0 0-17.6 4c-1.5 1-3 2-4.2 3.2a13 13 0 0 0-2.3 2.6c-1.2 2-.7 4 1.6 4.8 1.6.4 3.5.3 5.4 0l3-1c.7-.4 1.4-.6 2-.8l1.8-.5h.2l.5-.2-.3.1c1.5-.3 3-.6 4.6-.7 1.7-.1 3.4-.4 5.1-.4l2.5-.2h1.3l.4.1h-1.8c-.9 0-1.7 0-2.6.2-1.7 0-3.3.4-5 .5a49.8 49.8 0 0 0-7.4 1.6l-2.3 1-1.2.8c-1.4 1.2-2.2 2.9-1.5 4.9 1 2.6 4 3.6 6.8 3.9h1.5l1.3-.2 1.2-.1c3.4-.5 6.7-1 10.1-1.3l5.2-.1 5-.1c.9 0 1.7-.2 2.5-.4a46.6 46.6 0 0 0 7.4-1.8l1.2-.4.2-.1c2.7-1.1 5.1-2.4 7.7-3.6h.1v-1.8zm-42-1.8zm-9.9-84.5l.8-.1a38.4 38.4 0 0 0 9.7-4 112.4 112.4 0 0 0 12-7.2c2.7-1.8 5.3-3.7 7.7-5.8l-.2-.2c1.1-1 2.2-2 3.2-3.3h.4c4 1.5 10.3-1.3 13-4l1.6-2 .5-.9c.2-.3.3-.7.3-1.1l-.1-1.2c-.3-.7-1-1.2-1.7-1.6-.8-.4-1.6-.5-2.4-.7a13.5 13.5 0 0 0-9.6 2.5l-2 1.5c-.7.5-1.3 1-1.6 1.7.3-.6.9-1.2 1.4-1.8a17.4 17.4 0 0 1 5.3-3.5c.5-2.6 1.2-4.8 1.3-7.3v-.9L262 89c-.1-.7-.4-1.4-.6-2-.6-1.4-1.4-2.6-2.2-3.8a28.3 28.3 0 0 0-5.6-6.4 23.6 23.6 0 0 0-11.6-5.3l-4.2-.6-8.6-.9-4.2-.6c-1.1-.2-2.1-.6-3.1-1.1l-2.3.5a26.3 26.3 0 0 1-9.4-.8v.1l-1.6 3-1.5 2.6c.8 0 1.6 0 2.3.3l.8.4a3.5 3.5 0 0 1 1.8 3c0 .5-.1 1.1-.5 1.6s-1 .8-1.5.9h-.9c-.3 0-.6-.2-.8-.3-1-.4-2-.9-3.1-1.1l-.4-.1-3 6.2-1.3 3.3a42.2 42.2 0 0 0-3.3 17.1c0 4.6.5 9.3 1.9 13.8a26.5 26.5 0 0 0 5 9c.8 1 1.7 1.7 2.6 2.4l.6.4c4.5 2.5 10.3 1.6 15.1.5h.3zm35.4-26c.8-.7 1.6-1.3 2.5-1.8a9 9 0 0 1 2.9-1.1l1-.1h.1l.3-.4 1.6-.1.4.2 1 .6h.1l-.2.4-1.3-.1h-.7l-1-.4c-.4 0-.8 0-1.2.2a11.7 11.7 0 0 0-4 2l.7-.2 1.2.1c.4 0 .8.2 1.2.4l.5.2.5.4-1.2-.3-1.1-.3c-.7-.1-1.4-.2-2.1 0l-1 .6-1 1-1 1.2a6 6 0 0 1 1.8-2.4zm-23.9-18.5c.3-1.5 1.7-3 2.8-3.7a6.5 6.5 0 0 1 8.3 1l.8 1 .3.5.2.5.2 1.2v2.2c0 .4 0 .8-.2 1.2l-.4.5-.3.2h-.4l-.1-.2-.5-1-.4-1.1v-.2l-.1-.1v-.1l-.5-.4-.9-.6-2.1-.5-.6-.1h-.5l-1 .2-2.2.5-1.1.2h-.9.9l1-.3 2.2-.6 1.1-.2h1.2a9 9 0 0 1 2.2.5h.2c-1-.4-2-.6-3-.7-1.2-.1-5.4 1.6-6 .9h-.1v-.1.5c-.2-.4-.2-.8 0-1.2zm-.3 7.9c.3-.7.9-1.3 1.4-1.8a6 6 0 0 1 2-1.2 6 6 0 0 1 2.3-.5c.5 0 .8.2 1.2.4.4.1.7.5.9.9.3.7.3 1.6.1 2.3-.3 1.5-.8 3-1.7 4.2l.8-2 .6-2.2c0-.7 0-1.5-.3-2.1-.1-.3-.3-.6-.7-.7a3 3 0 0 0-1-.3c-.7 0-1.4.1-2 .4-.8.2-1.4.6-2 1-.6.5-1.1 1-1.5 1.7a8 8 0 0 0-.7 2.1c0-.8.2-1.5.6-2.2zm-32.5-7.7L201 88v1a4 4 0 0 1 .4-2.4 14.2 14.2 0 0 1 2.9-4l1-.8.6-.3h.8l1 1c.2.3.4.8.4 1.2.2.8 0 1.7-.1 2.5l-.7 2.4-1 2.3c.5-1.6 1-3.2 1.3-4.8.1-.8.2-1.6 0-2.4 0-.3-.1-.7-.4-1-.2-.3-.5-.6-.8-.7-.2-.1-.6 0-1 .2l-1 .6a14.5 14.5 0 0 0-2.9 3.8zm4.1 24.1c-.5-.3-1.1-.6-1.6-1.1-.5-.6-.5-1.3-.5-2 0-1.3.6-2.5 1.1-3.6l.8-1.8.8-1.7 1.5-3.5c2.1-4.7 4.4-9.2 7-13.6l2-3.2 2.1-3.3c1.4-2 2.9-4 4.7-5.9-1.8 2-3.2 4-4.5 6.2l-2 3.2-2 3.3c-2.5 4.4-4.8 9-7 13.6l-1.5 3.4-.7 1.8-.8 1.7c-.6 1.1-1 2.3-1.2 3.5 0 .7 0 1.3.5 1.7l.7.6.8.4c1 .6 2.3 1 3.6 1h3.7a31 31 0 0 1 0 .2c-1.2.2-2.5.2-3.7.1-1.3 0-2.6-.4-3.8-1zm10.5 13c-.8.2-1.7.2-2.6.2-.8-.1-1.7-.3-2.4-.7a8 8 0 0 1-2-1.5 8.7 8.7 0 0 0 9.2.8c-.6.5-1.4 1-2.2 1.2zm-4-4.7l-1.7-.6c-.5-.3-1-.6-1.4-1.2-.2-.2-.3-.5-.3-.9l.1-.9c.2-.5.4-1 .5-1.7 0 .7-.2 1.2-.3 1.8-.1.6-.1 1.2.2 1.6.3.4.9.7 1.4 1l1.6.5c2.3.5 4.7.4 7-.1a21.2 21.2 0 0 0 6.5-2.6l2.9-2 .3-.2.2-.2v-.3l-.2-.4.1-.1v.2l.1.2.2.3v.2l.6.7-.6-.7-.2.2v.2c-.2 0-.3.2-.4.3-1 .7-1.9 1.4-3 2-.9.7-2 1.2-3 1.6-1.2.4-2.3.8-3.5 1-2.3.6-4.7.6-7 0zm-11.2-42.6c.5-2.2.7-4.6.7-7l-6-8.7c.2 1.3.2 2.6.1 4 0 2.2-.4 4.4-1 6.6a39.9 39.9 0 0 0 0-10l-.1-2.2c-2.3-3.1-4.7-6.3-7.2-9.3a109.5 109.5 0 0 0-17.4-17.3l-2.4-1.8-2.6-1.7-1.3-.9-1.3-.8-2.6-1.6c-1.9-1-3.6-2-5.5-2.7-1-.5-1.9-1-2.8-1.3l-2.8-1.2-3-1-1.4-.5-1.5-.5c-2-.6-3.9-1.2-5.9-1.6l-1.5-.3-.8-.2-.7-.2-3-.5-1.6-.2-1.5-.2-3-.3-3.1-.3h-3c-2.1-.2-4.2 0-6.2 0l-3.1.3-1.5.1-1.5.2-3 .4-3 .6-1.6.3-1.5.4-3 .7-2.9 1c-.5 0-1 .2-1.5.4l-1.4.5-2.9 1-2.8 1.3-1.4.6-1.4.7-2.7 1.4a87.4 87.4 0 0 0-34.7 33.8c-2 3.6-3.6 7.3-4.6 11.3a29 29 0 0 0 3.6 23l.2-.3-.2.4.3.3V93a42 42 0 0 0 10.7 10.5l3 1.6 5.5 2.6a75.8 75.8 0 0 0 48.1 3 37 37 0 0 0 11.2-5 19 19 0 0 0 7.3-9.5 28.6 28.6 0 0 0 1.5-9l-.1-1.6-.1-.7-.2-.8a16 16 0 0 0-6.4-10.1 29 29 0 0 0-11-5 39.4 39.4 0 0 0-21.7 1l1.5-.6L93 69a41 41 0 0 1 18.3 0c4 .9 8 2.5 11.2 5a16.4 16.4 0 0 1 6.5 10.3l.1.7.1.7.2 1.6c0 1 0 2-.2 3a29 29 0 0 1-1.3 6 18.2 18.2 0 0 1-7.4 9.7 32.8 32.8 0 0 1-11.2 5.1 66.5 66.5 0 0 1-18.4 2.6h-2a70.4 70.4 0 0 1-33.5-8.3 31.3 31.3 0 0 1-13.7-11.7l-.1-.3-.1-.1c-.8 2.5-1 5.1-.7 7.7.3 2.8 1.1 5.6 2.3 8.1a51.5 51.5 0 0 0 10.3 13.4c4.1 4 8.8 7.2 13.8 9.9a56.8 56.8 0 0 0 24.4 6.6l4.2-.1c.8 0 1.5-.2 2.2-.3a27.3 27.3 0 0 0 4-.7 46.7 46.7 0 0 0 14-5.3c2.3-1.4 4.6-3.2 6.5-5.3 1.9-2 3.4-4.5 4.4-7.2a12.9 12.9 0 0 0-2.1-12c-.8-1-1.7-1.8-2.8-2.4 1 .6 2 1.4 2.8 2.3a13 13 0 0 1 2.2 12.2 21 21 0 0 1-4.3 7.3c-2 2.2-4.2 4-6.6 5.5l-.4.2a41 41 0 0 1-15.6 5.5l-2.2.4-2.1.3h-4.3a50.9 50.9 0 0 1-24.6-6.7c-2.6-1.3-5-2.9-7.5-4.6l-.1.1a4 4 0 0 0-.8 1.3c-.2.6-.2 1.2-.2 1.7 0 1.2.4 2.3.7 3.4a22 22 0 0 0 3 6.2c2 2.9 4.6 5.4 7.5 7.4l.1.1.5-.2c-.2 0-.3.2-.4.3l.8.5a39.2 39.2 0 0 0 8.1 4.2c0-.2-.2-.3-.4-.5l.5.5 6 2a54.6 54.6 0 0 0 17 2.5c1-.1 2.2-.3 3.4-.3l3.4-.5 1.7-.3 1.7-.3a44 44 0 0 0 10-3.3l-.7-1.6.8 1.5c.8-.5 1.7-1 2.4-1.7a14 14 0 0 0 4.3-5.3c1-2 1.3-4.4 1-6.6 0-.5 0-1-.2-1.4l-.5-.1h.5a13.9 13.9 0 0 0-6.4-8.9c3.4 2 5.8 5.3 6.7 9l.3.1.4.2a72.5 72.5 0 0 0 34.2-4.3c1.3-.6 2.7-1.2 4-2 1.2-.9 2.3-1.8 3.2-3 1-1 1.6-2.4 2.4-3.8l1.8-4.1a108.6 108.6 0 0 0 4.4-13l.6-2.2c.2-.6.3-1.3.3-2l-2 2-5.1 5c-1.7 1.6-3.4 3.4-5.5 4.6-1 .6-2.2 1-3.5 1-1.2 0-2.4-.6-3.4-1.3a10.1 10.1 0 0 1-3.5-6.2c-.4-2.4-.2-4.8.4-7.2a32.8 32.8 0 0 1 11.5-17.7c3.8-2.9 8.3-4.9 13-5.3-4.7.5-9.2 2.6-12.9 5.5a31.6 31.6 0 0 0-11.2 17.6c-.5 2.3-.7 4.7-.3 7a12 12 0 0 0 1.1 3.3 8 8 0 0 0 2.3 2.6c.9.8 2 1.2 3 1.3 1.2 0 2.3-.4 3.3-1 2-1.1 3.7-2.9 5.4-4.5l5.2-5 5.1-4.9c1.7-1.6 3.5-3.2 5-5.1 1.4-1.9 2.6-4 3.1-6.3a15 15 0 0 0-.2-7 30.6 30.6 0 0 0-2.4-6.8c1.1 2.2 2 4.4 2.6 6.7.6 2.3.8 4.8.3 7.1-.5 2.4-1.8 4.5-3.2 6.4-1.5 2-3.2 3.6-5 5.2l-3.1 3-.2 2-.4 2.3-1.2 4.5v.3h.3l.8-.1-.3-.2a12.4 12.4 0 0 0 5.7-3.2 31 31 0 0 0 4.4-5.7 105.3 105.3 0 0 0 10.3-27zm-84.7-13.2a63.9 63.9 0 0 1-16.9-1.6 20.5 20.5 0 0 1-4.8-2.2c-.3-.3-.6-.5-.7-.9a1 1 0 0 1 0-1l.7-.9-.6.8c-.1.4 0 .7.1 1 .4.5 1 .8 1.6 1.1 1.2.6 2.6 1 4 1.3a60.1 60.1 0 0 0 12.4 1.5l4.2.1 8.4-.2c-2.8.5-5.6.9-8.4 1zm18.6 50.7h-.2v-.7l.2.1v.3l.1.2-.1.1zm0-2v.1h-.2v-.6h.2v.5zm.5 3.8l-.1.1h-.1v-.1l-.2-.5.1-.2.2.1.1.4v.1zm-.2-5.6v.1h-.1v-.6h.2l-.1.5zm1 7.4h-.1l-.2-.1-.2-.4v-.2h.3l.2.5v.2zm-.5-9.2l.3-.5h.1l-.2.5h-.1s-.1 0 0 0zm1.6 10.8h-.3l-.3-.4v-.3h.3l.3.4v.3zm-.6-12.4l.3-.4-.2.4s-.1 0 0 0zm2 13.6l-.2.1h-.2l-.3-.3v-.3h.3l.3.2.1.2v.1zm1.4 1.2h-.2l-.4-.3-.1-.2c0-.1.2-.2.3-.1l.3.2c.2 0 .3 0 .3.2 0 .1 0 .2-.2.2zm1.8.7h-.2l-.5-.1s-.2-.1-.1-.3c0 0 .1-.2.2-.1h.4c.2 0 .3.2.3.3v.2zm1.8.4h-.6l-.2-.3.3-.2h.5c.1 0 .2.1.2.3l-.2.2zm2-.1l-.1.1h-.5c-.2 0-.3 0-.3-.2 0-.1.1-.2.3-.2h.4c.2 0 .3 0 .3.2zm1.9-.3h-.2l-.4.2-.3-.1.1-.3h.4c0-.1 0-.2.2-.2.1 0 .2.1.2.3zm1.5-.6l-.3.2-.3-.1.1-.3.3-.2h.2c.2 0 .3 0 .3.2 0 .1-.1.2-.3.2zm1.8-1l-.4.2h-.3v-.3l.4-.3h.3v.3zm-1.4-3.2a7 7 0 0 1-5 2.1 7 7 0 0 1-5-2.1 7 7 0 0 1-1.7-6 6.7 6.7 0 0 1 6.7-6.1c2.5 0 4.7 1.4 5.8 3.4a7 7 0 0 1-.8 8.6zm-11.5-12.2l.4-.3-.3.4h-.1zm1.5-1v-.1zm0-.1l.4-.2-.4.2zm5.5-26.5l-.2.1h-.1v-.6h.2v.5zm0 1.3h.2l.2.5v.2h-.3l-.2-.5.1-.2zm0-3.1v-.1l.2-.4h.1v.5h-.3zm5-2.3c1.4 0 2.8 1 3.3 2.3.2.5.4 1 .4 1.6 0 1-.4 2-1 2.7-.7.7-1.8 1.2-2.8 1.2a3.8 3.8 0 0 1-3.7-3.9l.3-1.3a3.6 3.6 0 0 1 3.4-2.6zm-2.6-.6l.5-.3-.5.3zm4.5-.4l.4.2-.4-.2zm1.6 1l.4.3-.4-.3zm-1.9 9l-.1.3h-.5l-.3-.1c0-.2 0-.3.2-.3l.5-.1h.2v.2zm-1.1 22l-.4-.3.4.3zm-.5-.2zm-.2-21.6l-.1.1s0 .1-.2 0h-.5l-.1-.2c0-.2 0-.2.2-.2h.4c.2 0 .3.1.3.3zm-1 20.8l-.4-.2.4.2zm-.8-21.3c0 .1-.1.2-.3.2h-.2l-.3-.3-.1-.2c0-.1.2-.2.3-.1l.3.1c.2 0 .3.1.3.3zm-1.4 20.6zm-.3-29l-.3.4v-.1l.3-.3zm-.2 6.7l.2.4h.1v.1l-.1.2h-.2l-.4-.4v-.3h.4zm5.4 25v-.1l.4.3-.4-.2zm.8 13.7l-.4.4h-.3v-.3l.3-.3.2-.1.2.1v.2zm.2-37V82l.4-.3h.2l.2.1v.2l-.5.3h-.3zm.2 24.6h.1l.3.4v.1l-.3-.4zm.7 10.9l-.2.4h-.3v-.2l.2-.3.1-.2.2.2zm.3-9.3l.3.5h-.2l-.2-.4v-.1zm.3 8s-.1.1-.2 0c0 0-.1 0 0-.1v-.4l.2-.2h.1v.2l-.1.5zm0-35.5v-.3l.2-.4h.2c.2 0 .2.1.2.2v.2l-.3.3h-.3zm.2 29.4l.1-.2.1.1.1.5v.1h-.2v-.5zm.4 3.8v.4s-.2.1-.2 0h-.1v-.4l.1-.2h.2v.2zm.1-1.5v.1h-.2v-.6h.2v.5zm0-37.5V75l.3.5h-.1l-.2-.3zm.6 3.6l-.1.5s-.1.1-.2 0l-.1-.1.1-.5.2-.1.1.2zm0-1.3l-.1-.1v-.5c.1-.1.2 0 .2 0v.6zm5.4-2.4h-.1l-.1-.5v-.2l.2.1v.4l.1.1v.1zm-.2-2v-.5h.2v.5h-.2zm.8 3.8h-.2v-.1l-.2-.4v-.2h.3l.1.4.1.2v.1zm-.4-5.7l.2-.4h.1l-.1.5h-.2zm1.4 7.4h-.3l-.3-.5v-.3h.4l.3.5v.3zm1.4 1.2h-.3l-.3-.3c-.1 0-.1-.1 0-.2 0-.1.1-.1.2 0l.4.2v.3zm1.5 1l-.1-.1-.4-.2-.2-.2.3-.2.4.2c.2 0 .3.1.3.2 0 .2-.1.3-.3.3zm1.9.4l-.5-.1c-.2 0-.3-.1-.2-.2 0-.2.1-.3.2-.2h.5c.1 0 .2 0 .2.2s-.1.3-.2.3zm2-.2s-.1 0 0 0l-.6.1c-.1 0-.2 0-.3-.2 0-.1 0-.2.2-.3h.6v.1c.2.2.1.3 0 .3zm1.8-.7l-.5.3-.3-.1.1-.3.3-.1c0-.2 0-.2.2-.2s.3 0 .3.2v.2zm-3.5-.9a6 6 0 0 1-4-1.6 5.3 5.3 0 0 1-1.3-6 5.5 5.5 0 0 1 5.3-3.7c2.3 0 4.4 1.3 5.2 3.3.3.7.5 1.5.5 2.3 0 1.5-.5 3-1.6 4a6 6 0 0 1-4 1.7zm-5.5-9.8l.2-.4-.2.4zm1.3-1.3l.3-.4-.3.3zm8-.7l.3.3-.4-.3zm1.4 1.2zm0 0l.4.4-.3-.3zm-.3 10.5l-.3.2h-.3v-.2l.3-.3h.2v-.1c.2 0 .3 0 .3.2l-.2.2zm1.3-1.5l-.3.3h-.3V78l.3-.4h.2l.2.1-.1.2zm.2-7l-.1-.4v-.1l.3.5h-.2zm.6 5.1l-.2.5s0 .1-.2 0c0 0-.1 0 0-.1v-.4l.2-.2.2.1v.1zm-.1-3.8h.1l.1.5v.1l-.1-.1-.1-.5zm.3 2v.4l-.1.1-.1-.1V74l.1-.1.2.1v.1zm4.5-16.5l-1.7 1.4c-1.2.9-2.7 1.5-4 2a66.8 66.8 0 0 1-21.8 3.2 15 15 0 0 1-4.2-.8c1.4.4 2.9.5 4.3.5l2.2-.1 2.2-.2 2.2-.3 2.1-.3 4.3-.7 4.3-1 4.2-1a21 21 0 0 0 4-1.6 6 6 0 0 0 3-3c-.2.7-.6 1.3-1.1 1.9zm6.5 21.3a61.5 61.5 0 0 0-.7-14.4l-1-3.4a20 20 0 0 0-6-8.5 24 24 0 0 0-6.1-3.6l-.8-.3-.9-.3a45.8 45.8 0 0 0-5.2-1.2 172.6 172.6 0 0 0-10.7-1.6l-1.8-.2H151l-.2 2.4-.2 2.4v.4c-1.1.4-2 1-3 1.6a30.4 30.4 0 0 1-10 2.6c-2.4.1-4.8 0-7-.7-1-.3-2.2-.6-3.3-1.1l-1.4-1-.7-.5c-.2-.3-.5-.6-.5-.9h.2v-6l-5.5.7a86.3 86.3 0 0 0-12 2.6 30 30 0 0 0-10.8 5.8c-.8.7-1.6 1.3-2.2 2l-1 1.2-.9 1.3a21.5 21.5 0 0 0-2.9 8.6c0 .6.2 1 .4 1.5s.5.9 1 1.1c-.5-.2-.8-.6-1.1-1-.3-.5-.4-1-.5-1.6 0-1 0-2 .2-3.1a23.2 23.2 0 0 1 3.2-7.3c.2-.4.7-.8 1-1.2L96 53a28.4 28.4 0 0 1 11-6 81.2 81.2 0 0 1 17.8-2.6v-3.6l.2-5 .2-4-.1-.7v-.6c.4-2.3 6-4.1 13-4.1 6.3 0 11.6 1.6 12.7 3.6.3.3.4.7.4 1v.2c.2.7 0 1.5 0 2.2v7.2l-.2 4.7h2.9a175.4 175.4 0 0 1 10.8 1l3.6.7 1.8.5.8.3.9.3c2.3 1 4.4 2.2 6.3 3.7 2 1.6 3.6 3.5 4.7 5.7a24.6 24.6 0 0 1 3 12.3c.2 3 0 6.1-.5 9zM23.5 12a27 27 0 0 1-5 2.2h.1l.2.1h.2c1.4-.5 2.7-1 4-1.8l.7-.4h-.1l-.1-.1zm1.2-.7h.1C26 10.5 27 9.7 28 8.7h.1l1.3-1.4a23 23 0 0 1-4.6 4zM12 11.2a4423502.8 4423502.8 0 0 0-1.6-1l-.7-.5-.8-.5L6 7 3.4 4.4l-1.7-2-.1-.3-.7-1L.6.8c3.6 5.8 10 10.6 17.8 13.6-1-.5-2-.8-3-1.4-1.2-.5-2.2-1-3.3-1.7zM.6.7L.2 0l.4.7zm138.7 196.4a21 21 0 0 0-7 .1h-.2l-4.3 1a60 60 0 0 0-4.1 1.2c-2.8.8-5.6 1.8-8.3 2.7-5.2 1.7-10.3 3.6-15.5 5l-1.2.2c2.8-.8 5.5-1.8 8.2-2.9l8.2-3a171 171 0 0 1 14.9-4.7 6 6 0 0 1-1.2-2.7l-.5-2.9-.2-1.5c-1.2-4.7-2.8-10.9-6.7-14-4.4-3.5-11-1.8-16-.6-7.5 1.8-15 3.6-22.5 6l-4.9 1.5a4 4 0 0 1 2 .6c.8.6 1.5 1.4 2 2.2.5.9 1 1.8 1.3 2.7a27.2 27.2 0 0 1 1.4 5.6c.6 3.8.7 7.6 1 11.4.3 1.9.2 3.8.6 5.5l.3.9a211675 211675 0 0 1 .5 1l.4.6c.5.7 1.1 1.4 1.8 2a7.8 7.8 0 0 0 5 1.8c1 0 1.8-.3 2.7-.6l2.7-.9c1-.2 1.9-.5 3-.4.5 0 1 .2 1.5.4.4.2.9.6 1.2 1a7 7 0 0 1 1.4 2.5c.3 1 .4 2 .4 3v.5c2.4 0 4.9 0 7.4-.2l.4-.1 10-2.9 10-2.6 7.7-1.9a9 9 0 0 0 4.1-12.6 11 11 0 0 0-7.5-4.9z"/><path d="M89.4 160a39 39 0 0 0 13 3.1h3.4c1.1 0 2.3 0 3.4-.2a28 28 0 0 0 6.5-1.4c1-.4 2.1-.9 3-1.5l1.3-1.1 1-1.3a6.7 6.7 0 0 0 1-4.5l-.3.1c-1 .6-2 1-3.1 1.5a48.1 48.1 0 0 1-8.4 2.1l-1.7.3-3.4.5a77 77 0 0 1-3.5.4h-3.5a55.8 55.8 0 0 1-18.5-4.1 40.1 40.1 0 0 0 9.7 6zm15.6 56.7a3.3 3.3 0 0 0-2.4-1c-.9-.1-1.8 0-2.6.4l-.7.1c1 0 2 .3 2.8 1 1.1 1 2 3 2 4.9h.3l2.3.2v-.6a7.5 7.5 0 0 0-1.7-5zm-13.3 1.5l1.4-.2 1.2-.4c-1 0-2-.2-2.9-.5l.3 1z"/><path d="M89 215.8l.1.2.5 1 .3 1 1.6.2V217c-.9-.3-1.7-.8-2.5-1.3zm-.1.2l-.1-.4a10.1 10.1 0 0 1-2.6-3.4l-.3-.6-.2-.8c-.2-1-.4-2-.4-2.9l-.2-2.8v-.1c-.4-3.8-.5-7.6-1-11.2l-.5-2.8-.8-2.7c-.3-.9-.7-1.7-1.2-2.5a5 5 0 0 0-1.8-2c-.7-.5-1.6-.6-2.5-.6h-.7l-.7.2c-.4 0-.8.3-1.2.4l-.2.1c1 0 1.8.1 2.6.7 2 1.3 3.2 4.5 3.8 6.9 1.2 4.8 1.2 9.4 1.7 14.3v.2c0 .8 0 1.7.2 2.6v.2c0 1.2.2 2.4.6 3.6 0 .3.2.5.3.8a8.8 8.8 0 0 0 2.4 2.9 9.8 9.8 0 0 0 3.3 1.7l-.2-.9-.3-1zm150.5-92.3a128.2 128.2 0 0 1-12.5 6.5l-3.3 1-.7.2c.4.6.7 1.2 1.3 1.8 3.9 3.1 8.9 1.8 12.7-.6a46 46 0 0 0 16-18.6c-2.3 2.2-5 4-7.6 5.9l-6 3.8zm-88.3-92.5V31c0-.6-.4-1.1-.8-1.5-.4-.4-1-.7-1.5-1a37 37 0 0 0-9.5-1.9h-2a29.5 29.5 0 0 0-9.6 2c-.5.3-1 .5-1.5 1-.4.3-.8.8-.8 1.4l.2.7c1.4 1.9 6.6 3.3 12.7 3.3h1.3c6-.3 10.9-1.9 11.5-4z"/></g><path fill="#C99F62" fill-rule="nonzero" d="M181 69.3c.1.7-.1 1.3-.2 2.1V75l-.1 1.2-.1 2.4-.2 4.7h-.3.3v5.2c-1.1.3-2.1 1-3.2 1.4a29.4 29.4 0 0 1-10 2.4 21.7 21.7 0 0 1-9.9-1.7l-1.5-.9-.7-.4c-.3-.2-.5-.4-.5-.7h.1l.2-2.5.1-2.4v-1.2h.2l.1-3.8v-5l-.1-3.8.6.8 1.6 1c1 .6 2.3.9 3.4 1.2a34.2 34.2 0 0 0 14.5 0 17 17 0 0 0 3.4-1.2l1.6-1c.4-.4.8-.9.9-1.4z"/><g transform="translate(.9 .2)"><g fill-rule="nonzero" transform="translate(46.3 81.2)"><path fill="#C2D6CD" d="M133.8 107.7a19 19 0 0 0-9.7-11.9 55.8 55.8 0 0 1-10.2-.5c-.5 0-1.1-.4-1.7-.5.2 1.2.3 2.5.1 3.7a15.5 15.5 0 0 1-5.8 10.1c-.6.7-1.4 1.2-2.1 1.6.4 2-.4 4.3-1.9 5.8-2 2-4.8 3-7.6 3.6a38.3 38.3 0 0 1-34-9.7c-2.8-1-5.5-2.3-8-4l-1-.8c-1.1.9-1.5 2.7-.6 3.8-3.6-.6-7.2 2.3-8.4 5.8a16 16 0 0 0 .9 10.9c-1.1-2.2-4.2-3-6.4-1.8-2.2 1-3.4 3.5-3.4 6s1.2 4.8 2.8 6.6a5.3 5.3 0 0 0-7.2 1.5 5.3 5.3 0 0 0 2 7.2l-1 .1 1 .4a18 18 0 0 1 6.7 6c.1-2.4 3.2-4 5.6-3.4 2.5.6 4.3 2.7 5.7 4.8 1.7-.9 3.8-.8 5.4.3a5.7 5.7 0 0 1 2.3 5 4.5 4.5 0 0 1 5.4-.2c1.6 1 2 3.1 1.3 5l3.7-1.3c-.4-4.9-.4-9.7-1.6-14.4-.6-2.4-1.8-5.6-3.8-7-1-.7-2.2-.6-3.4-.5l9.1-3a340 340 0 0 1 22.6-6c5-1.2 11.6-2.9 16 .7 3.9 3 5.4 9.2 6.6 14l.3 1.4 13.4-4.3c-1.3.2-2.5-1-2.8-2.4a3 3 0 0 1 2-3.2 17.7 17.7 0 0 1-7.6-9.7 12 12 0 0 1 2.8-11.6c3-3 8.3-3.5 11.5-1-.9-2.1-1-4.8.6-6.7 0-.2.2-.3.4-.4z"/><path fill="#C3D8DC" d="M62.7 158.1c1.6 1.1 2 3.2 1.3 5L7.5 181.5c-1.1.1-2-.9-2.3-2-.2-1.1.5-2.4 1.6-2.7a14 14 0 0 1-6.2-8c-1-3.4-.2-7.3 2.3-9.7 2.5-2.4 6.8-2.9 9.6-.8-.7-1.8-.8-4 .4-5.6 1.3-1.6 4-1.9 5.2-.3-.2-3 1.8-6 4.6-7.2 2.5-1.1 5.5-1 8 0l.9.4a18 18 0 0 1 6.7 6c.2-2.4 3.2-4 5.7-3.4 2.4.6 4.2 2.7 5.6 4.8 1.7-.9 3.9-.8 5.4.3a5.5 5.5 0 0 1 2.3 5 4.6 4.6 0 0 1 5.4-.2zM340.1 50.3c7.9 3.5 10.4 15.3 4.7 21.8l-62 19.5a104 104 0 0 0-4-6.8l-1.1-1.6v-.6c-.8-.7-1.3-1.6-2-2.4l-2-2.6a54.5 54.5 0 0 0-19.7-16l-.6-.2c.8-1.2 1.2-2.6.5-3.9-.9-1.3-3-1.9-4.4-2a8 8 0 0 0-3.1 0v-.4l1.3-2.1a58.2 58.2 0 0 0 5.4-13.2l.3-1.3.3-1.3.1-1.2v-4.6c-.2-2.4-.7-4.9-1.4-7.2L252 23l-.3-.7-.5-1.4-.7-1.3-.7-1.3-1.1-1.9a28.9 28.9 0 0 0-7.4-7.7c1.5-3.2 4.2-6 7.5-7.3 4.8-2 10.8-1 14.7 2.4 8.6-6 22.3-2 26.2 7.6 9-11 27.5-9.8 37.8-.1 10.3 9.7 13.5 25 12.6 39zm-206.3 57.4c1.6-1.5 4.5-1.7 5.7 0a9.1 9.1 0 0 1 5.7-8.6 13 13 0 0 1 10.6.5c3.3 1.6 6 4.3 8.1 7.3.2-3 3.9-4.9 6.8-4.2 3 .7 5.1 3.3 6.8 5.8 2-1 4.6-1 6.5.3 2 1.3 3 3.7 2.8 6a5.5 5.5 0 0 1 6.5-.3 4 4 0 0 1 1.5 1.7c.6 1.3.7 2.9.1 4.3l-68.1 22.1c-1.4.2-2.5-1-2.8-2.4-.3-1.4.6-2.8 2-3.2a17.7 17.7 0 0 1-7.6-9.7 12 12 0 0 1 2.8-11.6c3-2.9 8.2-3.5 11.5-1-1-2.1-1-4.8.6-6.7.2 0 .3-.2.5-.3z"/></g><g transform="translate(77 139.3)"><path fill="#FFF" fill-rule="nonzero" d="M98.5 100.9a11 11 0 0 0-7.5-5 26 26 0 0 0-8.3.4c-1.3-.6-1.8-2-2.2-3.5l-.4-2.8-.3-1.5c-1.2-4.8-2.8-10.9-6.6-14-4.5-3.6-11-1.9-16-.7-7.6 1.9-15.2 3.7-22.6 6.1-3 1-6.2 1.8-9.1 3 1.1-.1 2.3-.1 3.4.5 2 1.4 3.2 4.6 3.7 7 1.2 4.8 1.3 9.6 1.7 14.4v.2c0 .9 0 1.8.2 2.7 0 1.6.3 3.2 1 4.5a8.8 8.8 0 0 0 2.3 2.9c.8.6 1.8 1.1 2.8 1.5 1.3.5 2.8.6 4.2.3 2.6-.7 6.7-3.1 9-.8 2.1 2 3.2 7.3.1 8.9l.4-.1 2.9-.8 35.6-9.7 1.1-.3v-.4h.2c4.7-1.9 7.2-8.1 4.4-12.8z"/><path fill="#4F8E99" fill-rule="nonzero" d="M218.7.6c-.2 0-.3-.2-.5-.3l-1.6.1-.3.4v.1l1.2.5h.7l1.4.2.1-.4-1-.6z" opacity="0.3"/><path fill="#C99F62" fill-rule="nonzero" d="M216.3 210c-.9.4-2 .6-3.2.8h-.7l-1.4.2c-1.4 0-2.7 0-4-.2l-.6-.1a7.8 7.8 0 0 1-1.4-.3l-.3-.2h-.5c-.8-.2-1.9-.4-2.2-.9-.3-.5 1-1 1-1.4.2-.6 0-1.2-.1-1.9l-.2-1-.4-2.6-1-5.2-2.2-10.4a404 404 0 0 0-2.5-10.8l-2-7.5c-2-9-4.6-18-7.2-26.8-1.3-4.6-3.3-9-4.7-13.6v-.3h1.4l2.5-.4 2.5-.3c3.2-.5 6.4-1 9.6-1 3-.1 6.1.1 9.2-.4 3-.4 6-1.1 8.8-2.2 3-1.1 6-2.7 8.9-4 3.4.1 5.3-.4 8-2l-.2-.5.3-.1a48 48 0 0 0 17-14.8 1193.8 1193.8 0 0 1-17 77c-1.7 6.4-3.6 12.9-5.2 19.3l-.1.7c-.6 2.4-2 5.5-1.7 8l.3.6c.2.5 1.5.8 1.4 1.2-.2.8-1.2 1.1-1.8 1.4l-.4.2-.9.3h-.2l-.4.1-.5.1h-.3l-.5.1h-1.8l-1-.1h-.4l-1.3-.3H217l-.8-.4c.2-.1.2-.1.1-.2z"/><path stroke="#4F8E99" stroke-linecap="round" stroke-linejoin="round" stroke-width="3" d="M.4 93.5a18 18 0 0 1 6.7 6c.1-2.4 3.2-4 5.7-3.4m111.9-48.6c3.3 1.6 6 4.3 8 7.3.2-3 4-4.9 6.8-4.2"/></g><g fill-rule="nonzero" transform="translate(45.8 26.5)"><g fill="#4F8E99" transform="translate(0 54.3)"><path d="M64.5 163.5l-14 4.8-7 2.4-7 2.4-14.1 4.7-14.2 4.7c-.8 0-1.6-.3-2.1-.7-.5-.6-.8-1.2-1-1.8 0-.8.1-1.5.5-2.1.4-.6 1-1.1 1.6-1.3l-.2 1.1a16.4 16.4 0 0 1-5.5-5.8c-.6-1.2-1-2.5-1.3-3.9a12 12 0 0 1 .8-6l1-1.9 1.5-1.5a9 9 0 0 1 6-1.8c.7 0 1.4.2 2 .5.7.2 1.4.6 2 1l-1 .8a8 8 0 0 1-.6-3.1c0-1.1.4-2.2 1-3.1a4.2 4.2 0 0 1 4.8-1.4c.6.2 1.1.6 1.5 1.1l-1.2.4.1-1.8a8.7 8.7 0 0 1 2.9-4.6c.5-.5 1-.8 1.5-1.1l1.7-.7a11.6 11.6 0 0 1 10.3 2.2c2 1.3 3.5 3.1 4.8 5l-.9.3c0-.7.3-1.4.8-2 .4-.6 1-1 1.6-1.3 1.2-.6 2.6-.9 4-.5 1.3.3 2.4 1 3.3 2 1 .8 1.7 1.9 2.4 3l-.5-.2c1.9-1 4.1-.8 5.8.4A5.7 5.7 0 0 1 58 159l-.3-.2a4.7 4.7 0 0 1 5.5-.2 4 4 0 0 1 1.6 2.3 6 6 0 0 1-.4 2.7zm0 0c.4-.9.4-1.9.2-2.8-.3-.9-.9-1.7-1.6-2.1-1.6-1-3.8-.9-5.2.3h-.3c.2-2-.7-3.8-2.2-4.8a5 5 0 0 0-5.1-.2l-.5-.1c-.7-1-1.4-2-2.3-2.8a9 9 0 0 0-3.1-1.8c-1-.3-2.3 0-3.3.5s-1.8 1.5-1.8 2.5c0 .3-.2.5-.5.5-.2 0-.3 0-.4-.2a19.5 19.5 0 0 0-4.7-4.7 12 12 0 0 0-6-2.3c-2.2-.1-4.4.5-6 1.9a6.9 6.9 0 0 0-2.5 5.5c0 .3-.3.7-.6.7-.2 0-.4 0-.6-.3-.4-.5-1.2-.8-2-.7-.8 0-1.6.4-2 1-.6.7-.8 1.6-.9 2.4 0 .9.2 1.8.5 2.6.1.3 0 .8-.4 1-.2 0-.4 0-.6-.2a6.6 6.6 0 0 0-6.7-.5c-2.2.9-3.7 3-4.2 5.4a9.4 9.4 0 0 0 .2 5.4l.7 1.7c1.2 2.2 3 4 5.1 5.4.3.2.4.6.2.9l-.4.3c-.4 0-.7.4-1 .7-.2.4-.3.8-.2 1.2.1.4.3.9.6 1.2.3.2.7.4 1 .3l14-4.4 14.1-4.4 7.1-2.3 7.2-2.2 14.2-4.6zm60.1-67.2c1.3.3 2.6 1 3.7 1.8a14.8 14.8 0 0 1 5.1 6.4c.6 1.2.9 2.5 1 4a41.5 41.5 0 0 0-4.2-6.8 29.3 29.3 0 0 0-5.6-5.4z"/><path d="M32.1 145.6a5 5 0 0 1-2.6-3.1c-.4-1.4-.4-3 .3-4.3.8-1.3 2-2.2 3.5-2.5 1.5-.4 3.1-.2 4.4.7l-.7.8c-1.3-1.3-2.3-3-2.8-5a7.3 7.3 0 0 1 2.6-8l1.3-.8 1.5-.3a5.6 5.6 0 0 1 5.4 2.7l-1.3.6a22 22 0 0 1-1.3-5.5c-.2-2 0-3.9.6-5.7a9.6 9.6 0 0 1 3.5-4.6 7.1 7.1 0 0 1 5.5-1.3l-.2.3c-.5-.7-.6-1.6-.4-2.3.2-.8.7-1.5 1.5-1.8-.7.4-1.1 1.1-1.3 1.9-.1.7 0 1.5.5 2v.3h-.2c-1.8-.2-3.5.5-5 1.6a9.3 9.3 0 0 0-3 4.3c-.4 1.7-.5 3.5-.3 5.2.2 1.8.8 3.5 1.4 5.2.1.4 0 .8-.4 1-.3 0-.7 0-.9-.4-.7-1.4-2.4-2-4-2a5 5 0 0 0-3.7 2.7c-.8 1.5-1 3.2-.6 4.8a10 10 0 0 0 2.5 4.5c.2.2.2.6 0 .8-.3.2-.5.2-.8 0-1-.7-2.3-.9-3.5-.7a5 5 0 0 0-3.1 2 5 5 0 0 0-.6 3.8c.2 1.1 1 2.4 2.2 3zM195.5 121l-16.9 5.7-8.5 3-8.5 2.8-17 5.6c-5.6 2-11.3 3.8-17 5.6h-1.4c-.5-.2-.8-.4-1-.8-.6-.5-1-1.3-1.2-2-.1-1 0-1.8.5-2.5a3 3 0 0 1 1.9-1.5l-.2 1.2a19.6 19.6 0 0 1-7.6-9.3 14.3 14.3 0 0 1-.4-7.3l.7-2.4a11.4 11.4 0 0 1 3-4 10 10 0 0 1 4.6-2h2.5a7 7 0 0 1 2.5.5c.8.2 1.6.7 2.2 1.2l-1 .8a9.2 9.2 0 0 1-.7-3.7c0-1.3.5-2.6 1.3-3.7a5.6 5.6 0 0 1 3.5-1.9 5 5 0 0 1 2 .3 3 3 0 0 1 1.7 1.2l-1.2.5a8.6 8.6 0 0 1 .9-4.4 11.4 11.4 0 0 1 2.7-3.4 9.6 9.6 0 0 1 3.9-2c.7-.2 1.4-.4 2-.4h2.3c2.8.1 5.6 1.2 7.9 2.9 2.3 1.6 4.2 3.8 5.8 6l-.9.3c0-.8.4-1.7 1-2.3a6 6 0 0 1 1.8-1.6c1.4-.8 3.1-1 4.7-.6s3 1.3 4 2.3c1.2 1.1 2.1 2.4 3 3.6l-.5-.1c2.2-1.1 4.9-1 6.9.4s3 3.9 2.8 6.3l-.4-.2a5.8 5.8 0 0 1 6.7-.4c1 .7 1.7 1.7 1.9 2.8a8 8 0 0 1-.3 3.5zm0 0c.3-1 .5-2.2.2-3.3-.3-1.1-1-2-2-2.7a5.3 5.3 0 0 0-6.2.4h-.3v-.1c.2-2.2-.9-4.5-2.7-5.7a6.1 6.1 0 0 0-6.3-.2l-.5-.1c-.8-1.3-1.7-2.5-2.7-3.4a9.7 9.7 0 0 0-3.8-2.2c-1.3-.3-2.8 0-4 .6-1.3.7-2.2 1.8-2.3 3.2 0 .2-.2.4-.5.4-.1 0-.3 0-.3-.2a24.1 24.1 0 0 0-5.7-5.7 14.4 14.4 0 0 0-7.3-2.7 10 10 0 0 0-7.3 2.2 8.3 8.3 0 0 0-3 6.8c0 .3-.3.6-.7.7a.5.5 0 0 1-.5-.3c-.6-.8-1.6-1.1-2.6-1-1 0-2 .6-2.6 1.4-.6.8-1 1.8-1 2.9 0 1 .1 2.2.6 3.2.1.3 0 .7-.4.9l-.7-.1c-.5-.5-1.2-.8-1.8-1-.7-.3-1.4-.5-2.1-.5a8.4 8.4 0 0 0-4.3.8c-.7.3-1.3.7-1.8 1.1l-1.6 1.6a15.4 15.4 0 0 0-1.8 4l-.3 2.2c0 .7 0 1.4.2 2.2a11.2 11.2 0 0 0 1.4 4.2c1.4 2.7 3.6 4.9 6.1 6.6.3.2.4.6.2.9l-.4.3c-.4.1-.9.4-1.1.9-.3.5-.5 1-.4 1.5.1.5.4 1 .8 1.4.4.4.8.6 1.3.5l17-5.3 17-5.4 8.5-2.7 8.6-2.7 17-5.6zm45-107.2a14.7 14.7 0 0 1 8.7-12.3 14.7 14.7 0 0 1 15 2.3h-.4c2.1-1.5 4.7-2.4 7.3-2.8a20 20 0 0 1 14.8 4.2 17 17 0 0 1 4.8 6.4l-1-.2a21 21 0 0 1 8.7-6.3A27 27 0 0 1 309 3.4a30.6 30.6 0 0 1 26 16.3 45 45 0 0 1 4.1 10c2 6.8 2.5 14 2 21l-.3-.5c2 1 3.7 2.4 5 4.2a15.8 15.8 0 0 1 2.7 12.6c-.5 2.2-1.5 4.3-3 6l-.3.1-33 10.2-16.6 5-16.5 5 16.5-5.4 16.4-5.3L345 72l-.4.2a12 12 0 0 0 2.7-5.4 14.7 14.7 0 0 0-2.5-11.6c-1.2-1.7-2.8-3-4.7-3.9-.2 0-.3-.3-.3-.6.4-7-.2-14-2-20.7-1-3.3-2.3-6.5-4-9.5-1.7-3-3.9-5.8-6.4-8.2a27.6 27.6 0 0 0-8.6-5.5c-3.2-1.3-6.6-2-10-2.2-3.5-.2-7 .4-10.2 1.6-3.1 1.2-6 3.2-8.2 5.9-.2.2-.5.3-.8 0l-.1-.1c-1-2.4-2.5-4.4-4.4-6A19.1 19.1 0 0 0 271 1.8c-2.5.3-5 1.1-7 2.6h-.4a14.4 14.4 0 0 0-14.4-2.6 14.1 14.1 0 0 0-8.8 12z"/></g><g opacity="0.3" transform="translate(36.4)"><g transform="translate(8.5 28.3)"><path fill="#4F92C4" d="M0 9.3l1.1-.6 6-3.3L17 .7C13.9 1.9 2.7 7.5 0 9.3z"/><path fill="#4F8E99" d="M0 9.3l.6-.4.4-.4A28 28 0 0 1 4.7 6c.6-.4 1.3-.8 2-1l1.9-1a153 153 0 0 1 4-2l4-2 .5 1.3-4.3 2-4.3 1.9-4.3 2-4.2 2zm0 0c1.3-1 2.7-1.8 4-2.6a180.2 180.2 0 0 1 8.4-4.5L16.6 0c.4-.1.7 0 1 .3 0 .4 0 .7-.4.9l-4 2a153 153 0 0 1-4 1.9l-2 1-2 .8-4 1.9-.6.2c-.3 0-.4 0-.6.2z"/></g><path fill="#4F92C4" d="M7.3 37.5c3.1-2.8 6.8-5 10.6-6.9 8.6-4.2 18-6.8 27.3-8.8a257 257 0 0 1 13.2-2.4 77.9 77.9 0 0 1 14.7-.9c-.2-1.8-1-3.5-2.5-4.6a7 7 0 0 0-6.8-1c-1.5-2.6-3.6-5.4-6.6-6.4-3-1-7 .6-7.5 3.7A22.5 22.5 0 0 0 42 2C38.6 0 34.4-.6 30.8.6c-3.7 1.2-6.6 4.7-6.6 8.5-1.3-2.1-4.8-2-6.5-.2-1.7 1.8-1.9 4.6-1.2 6.9-3.2-3-8.6-2.8-12 0a12 12 0 0 0-4 11.6c.8 4 3.3 7.5 6.5 10.1h.3z"/><path fill="#4F8E99" d="M7.3 37.5a44 44 0 0 1 7.1-5.1 79.7 79.7 0 0 1 16-7 155.7 155.7 0 0 1 25.4-6c2.8-.5 5.7-1 8.6-1.2 1.5-.2 3-.2 4.4-.2l4.3-.1-.6.6a6 6 0 0 0-.9-2.7 5.7 5.7 0 0 0-2-2c-.8-.4-1.8-.6-2.7-.7a6 6 0 0 0-2.8.5c-.3.1-.7 0-.8-.3-.8-1.3-1.6-2.6-2.6-3.7s-2.2-2-3.6-2.4a5.9 5.9 0 0 0-4.1.2 3.9 3.9 0 0 0-2.5 2.9c0 .4-.4.7-.8.6a.8.8 0 0 1-.5-.3A23.1 23.1 0 0 0 44 4.2c-2.1-1.8-4.7-3-7.4-3.4a11 11 0 0 0-7.9 1.5A9.2 9.2 0 0 0 25 7.1c-.2.6-.3 1.3-.3 2 0 .2-.2.4-.5.4l-.3-.2a3.4 3.4 0 0 0-2.8-1.4c-1.2 0-2.3.5-3.1 1.3-.8.8-1.3 1.9-1.5 3a8 8 0 0 0 .3 3.5c0 .2 0 .3-.2.4h-.2a8.3 8.3 0 0 0-4.1-2 9 9 0 0 0-4.6.2 9.7 9.7 0 0 0-5.5 4.3A11 11 0 0 0 .5 23a13.3 13.3 0 0 0 .8 7 19 19 0 0 0 5.6 7.6l.4-.1z"/></g><path fill="#4F8E99" d="M314.6 23.9l-14.3 3.6-7.2 1.9-7.2 1.8-14.4 3.6-14.5 3.5h-.1c-.8 0-1.5-.4-2-.9s-.8-1.2-.8-1.9c-.1-.7.1-1.4.5-2 .5-.6 1-1 1.8-1.2l-.3 1.1c-2.1-1.6-4-3.7-5-6.2-.6-1.3-1-2.6-1-4a11 11 0 0 1 2.4-7.8l1.6-1.4a10 10 0 0 1 2-1l2-.4h2.1c.7.2 1.4.3 2 .6.7.4 1.3.7 1.8 1.2l-1 .7c-.4-1-.5-2.1-.4-3.2a6 6 0 0 1 1.4-3c.8-1 2-1.3 3-1.3.6 0 1.3 0 1.8.3.5.2 1 .6 1.3 1.2l-1.1.3c0-.6 0-1.3.2-1.9a7 7 0 0 1 .8-1.7l1-1.5 1.5-1.2a7.7 7.7 0 0 1 3.3-1.4c1.2-.3 2.5-.3 3.6 0 2.5.2 4.7 1.4 6.5 3 1.8 1.5 3.2 3.4 4.4 5.4l-1 .2c.2-.7.5-1.4 1-2 .4-.5 1-.9 1.7-1.1a6 6 0 0 1 4-.2 7 7 0 0 1 3.1 2.3c.9 1 1.6 2 2.2 3.2l-.5-.2a5.6 5.6 0 0 1 7.6 6.3l-.3-.2c1.7-1.2 4-1 5.5.2a4 4 0 0 1 1.5 2.4c.2 1 0 2-.5 2.9zm0 0c.4-.9.6-1.9.4-2.8-.2-1-.7-1.8-1.4-2.3a4.4 4.4 0 0 0-5.2 0l-.3-.1v-.2a5 5 0 0 0-1.9-4.8 5.2 5.2 0 0 0-5-.7c-.3.1-.4 0-.5-.1a15 15 0 0 0-2.1-3 6.9 6.9 0 0 0-3-2c-1-.4-2.3-.2-3.3.2-1 .5-1.8 1.4-2 2.4 0 .3-.3.5-.5.5l-.4-.3c-1.1-2-2.5-3.7-4.2-5a12 12 0 0 0-6-2.8 8 8 0 0 0-6 1.4 6.8 6.8 0 0 0-3 5.2c0 .4-.2.7-.6.7-.3 0-.4-.1-.6-.3-.4-.6-1.2-1-2-1s-1.6.4-2.1 1a4 4 0 0 0-1 2.3c-.1.8 0 1.8.2 2.6 0 .4-.1.8-.5.9-.2 0-.4 0-.6-.2-1.7-1.6-4.4-1.8-6.6-1-2.3.7-4 2.7-4.7 5a9.4 9.4 0 0 0-.1 5.4l.5 1.8c1 2.3 2.7 4.2 4.6 5.8.3.2.4.6.1.9l-.4.2-1 .7a2 2 0 0 0-.3 1.1c0 .5.3.9.5 1.2.3.3.7.5 1 .5l14.3-3.4 14.5-3.3 7.2-1.6 7.3-1.6 14.7-3.3z" opacity="0.3"/></g><path fill="#000" fill-rule="nonzero" d="M106.8 190.7a41.3 41.3 0 0 0 11.3 7.5 39 39 0 0 0 13 3.1h3.4a38.6 38.6 0 0 0 10-1.6l3-1.5 1.2-1 1-1.4a6 6 0 0 0 .2-6.4c.6 1 1 2.1 1 3.2a9 9 0 0 1-1 3.3l-1 1.4-1.3 1.1c-.9.7-2 1.3-3 1.6a26.7 26.7 0 0 1-10 1.8H131a39.8 39.8 0 0 1-19-6.7 35.2 35.2 0 0 1-5.3-4.4z"/><path fill="#CBBBA0" fill-rule="nonzero" d="M358.9 289.8a89 89 0 0 1 3.7-1.4l3.8-1.2 3.9-1.2 1.9-.5 2-.5-2 .7-1.9.7-3.7 1.2-3.9 1.2-3.8 1zM325 330.3a89 89 0 0 1 3.8-1.4l3.8-1.2 3.8-1.1 2-.6 1.9-.4-2 .7-1.8.6-3.8 1.3-3.8 1.1-3.9 1zm-73.1 4.8a89 89 0 0 1 7.5-2.6l3.9-1.2 1.9-.5 2-.5-2 .7-1.8.7-3.8 1.2-3.8 1.2-4 1zm3.3 2.4a89 89 0 0 1 3.8-1.4l3.8-1.2 3.8-1.2 2-.5 1.9-.5-1.9.8-1.9.6c-1.3.4-2.5.9-3.8 1.2l-3.8 1.2-3.9 1zm-131-46.5a89 89 0 0 1 3.9-1.3l3.8-1.3c1.2-.3 2.5-.8 3.8-1l2-.6 1.9-.5-2 .7-1.8.7-3.8 1.2-3.8 1.1c-1.3.4-2.6.8-4 1zm229.5 5a89 89 0 0 1 7.6-2.6c1.3-.4 2.5-.9 3.8-1.2l2-.5 1.9-.5-2 .7-1.8.7-3.8 1.2-3.8 1.2-3.9 1zm11.2-62.7a89 89 0 0 1 7.6-2.7l3.8-1.1 2-.5 1.9-.5-2 .7-1.8.7-3.8 1.2-3.8 1.1-3.9 1zm-3.5 7a89 89 0 0 1 3.8-1.3l3.7-1.2 3.9-1.2 1.9-.5 2-.5-2 .7-1.8.7-3.8 1.2-3.9 1.2-3.8 1zm-4.2-9.5a89 89 0 0 1 7.6-2.6l3.8-1.1 2-.5 2-.5-2 .7-1.9.7-3.7 1.2-3.9 1.1-3.8 1zm-18.8-43.4a89 89 0 0 1 3.8-1.3c1.3-.4 2.5-.9 3.8-1.2 1.2-.4 2.5-.9 3.8-1.2l2-.5 1.9-.5-2 .7-1.8.7-3.8 1.2-3.8 1.2-3.9 1z" opacity="0.4"/><g transform="translate(69.4 107.2)"><path fill="#FFF" fill-rule="nonzero" d="M82.1 35.3c1.6.5 2.6 2 3.5 3.2 2.9 3.8 4.7 9.4 3 14a17.3 17.3 0 0 1-6.5 7.3 58 58 0 0 1-20 9S37 69.3 25 62.4a59 59 0 0 1-20.4-19A24 24 0 0 1 1 24c3.2 4.5 7.2 8.4 11.9 11.3A73.9 73.9 0 0 0 64.8 43h.1l.4-.2A38.7 38.7 0 0 0 82 35.3h.1zM177.3 143c-4-1.4-.6-6 2.1-8.8l-.2-.2c-1.5-1.3 4.2-6.6 5-7.2a52.8 52.8 0 0 1 16.6-7.6l1-.2.6-.1h.7l.4-.1h2.4l-.1-.1h.8c-3.8-2-3.2-8.8.2-10h.8l.3.1h.2c1.8.5 2 2.5 2.3 4.2l.1.7a3.5 3.5 0 0 0 .3.9l.2.4.2.4.3.4c4.2 5 10.3 7.2 16.6 5.7l1-.2c.8 1.8 1.6 4.3 1.6 4.7l.1.6c1.3 7.6 3 15.7 3.1 23.5h-.1c-3 1.3-5.8 2.9-8.9 4a34 34 0 0 1-5.2 1.5l-3 .6c-3 .5-6 .2-9.1.3a81.4 81.4 0 0 0-12.2 1.4l-2.4.3c-3.3.2-8-.4-9.3-3.9-1.3-3.1 1.5-5.3 4.2-6.5l1.8-.8 2-.5h.5c-.4 0-.7 0-1 .2l-2 .5-1.8.7-3 1c-2 .4-4 .5-5.4 0-2.3-.7-2.9-2.8-1.6-4.8 1.6-2.6 4.6-4.6 7.1-6.3 1.8-1.2 4.6-2.2 7.8-3a25 25 0 0 0-14.6 8.2h-.4z"/><path stroke="#000" d="M37.8 84.1c8.8 8.5 22 12.3 34 9.7 2.7-.6 5.6-1.5 7.5-3.6"/><path fill="#000" fill-rule="nonzero" d="M145 .4a27.6 27.6 0 0 1 6.7 12.5c.5 2.3.8 4.8.3 7.1a17 17 0 0 1-3.3 6.4c-1.4 1.9-3.2 3.5-4.9 5.2l-5.1 5-5.1 5c-1.8 1.6-3.4 3.4-5.5 4.6-1 .6-2.3 1-3.5 1a6 6 0 0 1-3.4-1.3 10.1 10.1 0 0 1-3.5-6.2c-.4-2.4-.2-4.8.3-7.2a32.8 32.8 0 0 1 11.5-17.7c3.8-2.9 8.4-4.9 13.2-5.3-4.8.5-9.3 2.5-13 5.5a31.6 31.6 0 0 0-11.2 17.6c-.6 2.3-.7 4.7-.3 7a12 12 0 0 0 1.1 3.3 8 8 0 0 0 2.2 2.6c1 .7 2 1.2 3.2 1.3 1 0 2.2-.4 3.2-1 2-1.1 3.7-2.9 5.4-4.5l5.1-5 5.2-4.9c1.7-1.6 3.4-3.2 5-5.1 1.4-1.9 2.6-4 3.1-6.3s.3-4.7-.2-7A30.6 30.6 0 0 0 145 .4z"/></g><g fill-rule="nonzero" transform="translate(153.5 64.2)"><path fill="#4D876D" d="M55.6 86.4C66.5 84.2 74 61 76.1 51.4l1 .2c-.1.5-.1 1 0 1.6h.5c.4-1.1 1.3-1.4 2.4-1.3-1.4 3-4.5 9.2-5.6 12.2-3.8 11.3-3.6 30.4 6 39 4.8 4.2 11.7 3.2 17.3 2h.2v.1c.6.7.9 1.4 1.5 2 4 3.1 8.9 1.8 12.7-.6a46 46 0 0 0 16-18.6l-.2-.3c1.1-1 2.2-2.1 3.2-3.3h.4c4 1.5 10.4-1.3 13-4.1.6-.5 1.1-1.2 1.6-2l.6.3a57 57 0 0 1 24.8 23.2c5.8 9 9.6 18.2 10.2 20.4a82.3 82.3 0 0 1 3 20.6c.5 7.6-.6 16.6-4.1 23.5a57.8 57.8 0 0 1-23.2 24.1l-.2-3.7c-.4-3-1-6.1-2-9.2l-1.2-3.8-2-5.5-.7-1.4-.6-1.5c-1.5-3.3-3.6-7-7.2-3.2.4-.3 1 .6 1.5 1.9a18 18 0 0 1-18-5.9c-1.3-1.7-.4-5.9-3-6.5-5-1.1-6.5 7.6-2.1 10-5.5-.6-14.2 3.1-19.7 6.4v-.2c-5-15.7-13.3-35.8-21.5-50.2a96.7 96.7 0 0 0-11-16.5c-3.2-3.7-9.3-12.8-14.1-14.7z"/><path fill="#000" d="M138.3 29.3c5.6 6 8.7 14.3 8.4 22.5a47 47 0 0 1-7.6 20.3v.4c-1 .1-2 .4-3 .8.8-3.4 1.7-6.2 1.3-9.8-.3-2.7-2-5.2-3.4-7.3a24.7 24.7 0 0 0-18-11.3c-4.9-.6-9.7-1-14.5-1.7-1.5-.3-3.2-.7-4.6-1.4 1.1-.4 2.2-.9 3.2-1.6 2.5-1.7 5.5-4.1 4-7.6-1.1-2.3-3.2-1.9-5.2-1.1-3.4 1.3-7 4.7-4.3 8.3a7 7 0 0 0 2.3 2 22.3 22.3 0 0 1-11.5-.3 9.5 9.5 0 0 1-4.5-1.9c-.6-.4-1-1-1.2-1.4-2.4-4.2 4-8.3 7.5-9.7 1.5-.5 3-1 4.5-1l.8-.1c.7.2 1.4.3 1.5.2.1-.2-.6-.2-.8-.2h-.7l-2.5-.8c-3.8-1.5-7.3-5.3-7-9.6a5 5 0 0 1 8-3.6l1 .6.3.4-.3-.4-.5-.9-.6-3c-.3-3.1.3-6.4 2.9-8.3 2.2-1.7 5.5-.5 7.6.8 2.8 1.7 4.6 4.8 7 7.2 2.2 2.4 5.3 4.4 8.1 6.2 7 4.5 16 7.1 21.8 13.3zM164.9 287c.2 0 .8.1.6.5-.3.5-.9.8-1.3 1-.6.5-1 1-1.7 1.3a31.7 31.7 0 0 1-13.2.2c-1.8-.3-3.5-1-5.3-1.4-.1 0-.4-.2-.6 0l-.2.3c-.4.6-1 1-1.6.8-1.5-.7-1.4-3-1-4.3.1-.4.2-.9.5-1.3v-.2l2 .1c2 .5 5 .7 7.2-.2l.5.2c.4.8 2 1 2.7 1.2 2.8.7 5.8.6 8.7 1.1l2.7.7zm-27.7-2.7c0 1.3.3 2.5 0 3.7-.2.5-.3 1-.7 1.2-.9.7-2.4 0-3.2-.5l-.4-.7-.2-.3-.2.3-.6.7a14 14 0 0 1-2.5 1.8 15.1 15.1 0 0 1-10.5 2.4c-1.7-.3-3-.6-4-2.1-.7-1 1.3-1.3 1.9-1.5 2.7-.7 5-2 7.5-3.1 1-.5 2-.9 2.9-1.5l.8-.7.2-.4h.8c2 .6 5.4.8 8.1.5v.2z"/><path fill="#000" d="M121.4 59.1c.4.8.9 5.3-.4 5.6-.4 0-1-2.3-1.2-2.6-1-1.2-2.8-1.5-4.2-1.7-1.2-.1-5.4 1.7-6 1h-.1c-.5-1.7 1.5-3.7 2.7-4.6 3.1-2 7.4-1 9.2 2.3z"/><path fill="#0C2A3E" d="M104 32.6c1.6 3.5-1.4 5.9-4 7.7-.9.7-2 1.2-3 1.5-1-.5-1.8-1-2.4-2-2.8-3.5 1-7 4.3-8.3 2-.8 4-1.1 5.1 1.1z"/><path fill="#000" d="M82 47.8c2-.3 3.8.3 4.7 2.1.7 1.7-.4 3.6-2.2 3.5-1 0-2.9-1.2-4.5-1.4-1-.1-2 .1-2.4 1.3h-.4a4 4 0 0 1 0-1.6c.4-2.1 2.6-3.6 4.8-4z"/><path fill="#C5505D" d="M42.4 42c3 0 5.6 2.4 5.6 5.5 0 3-2.5 5.4-5.6 5.4-3 0-5.6-2.5-5.6-5.5s2.5-5.4 5.6-5.4zM25 47.6c2 0 3.5 1.6 3.5 3.6a3.5 3.5 0 1 1-7 0c0-2 1.6-3.6 3.5-3.6z"/><path fill="#EBEBEB" d="M26.4 4.7c0 2.4-5.9 4.3-13 4.3C6.4 9 .7 7.2.4 5v-.3c.3-2.3 6-4.2 13-4.2 7.1 0 12.9 2 13 4.3z"/><path fill="#C5505D" d="M19.5 79.4c3.7 0 6.7 3 6.7 6.8s-3 6.9-6.7 6.9a6.8 6.8 0 0 1-6.8-6.9c0-3.8 3-6.8 6.8-6.8z"/><path fill="#EBEBEB" d="M.5 4.9v-.3.3z"/></g><g fill-rule="nonzero" transform="translate(153.5 64.2)"><path fill="#4D876D" d="M55.6 86.4C66.5 84.2 74 61 76.1 51.4l1 .2c-.1.5-.1 1 0 1.6h.5c.4-1.1 1.3-1.4 2.4-1.3-1.4 3-4.5 9.2-5.6 12.2-3.8 11.3-3.6 30.4 6 39 4.8 4.2 11.7 3.2 17.3 2h.2v.1c.6.7.9 1.4 1.5 2 4 3.1 8.9 1.8 12.7-.6a46 46 0 0 0 16-18.6l-.2-.3c1.1-1 2.2-2.1 3.2-3.3h.4c4 1.5 10.4-1.3 13-4.1.6-.5 1.1-1.2 1.6-2l.6.3a57 57 0 0 1 24.8 23.2c5.8 9 9.6 18.2 10.2 20.4a82.3 82.3 0 0 1 3 20.6c.5 7.6-.6 16.6-4.1 23.5a57.8 57.8 0 0 1-23.2 24.1l-.2-3.7c-.4-3-1-6.1-2-9.2l-1.2-3.8-2-5.5-.7-1.4-.6-1.5c-1.5-3.3-3.6-7-7.2-3.2.4-.3 1 .6 1.5 1.9a18 18 0 0 1-18-5.9c-1.3-1.7-.4-5.9-3-6.5-5-1.1-6.5 7.6-2.1 10-5.5-.6-14.2 3.1-19.7 6.4v-.2c-5-15.7-13.3-35.8-21.5-50.2a96.7 96.7 0 0 0-11-16.5c-3.2-3.7-9.3-12.8-14.1-14.7z"/><path fill="#000" d="M138.3 29.3c5.6 6 8.7 14.3 8.4 22.5a47 47 0 0 1-7.6 20.3v.4c-1 .1-2 .4-3 .8.8-3.4 1.7-6.2 1.3-9.8-.3-2.7-2-5.2-3.4-7.3a24.7 24.7 0 0 0-18-11.3c-4.9-.6-9.7-1-14.5-1.7-1.5-.3-3.2-.7-4.6-1.4 1.1-.4 2.2-.9 3.2-1.6 2.5-1.7 5.5-4.1 4-7.6-1.1-2.3-3.2-1.9-5.2-1.1-3.4 1.3-7 4.7-4.3 8.3a7 7 0 0 0 2.3 2 22.3 22.3 0 0 1-11.5-.3 9.5 9.5 0 0 1-4.5-1.9c-.6-.4-1-1-1.2-1.4-2.4-4.2 4-8.3 7.5-9.7 1.5-.5 3-1 4.5-1l.8-.1c.7.2 1.4.3 1.5.2.1-.2-.6-.2-.8-.2h-.7l-2.5-.8c-3.8-1.5-7.3-5.3-7-9.6a5 5 0 0 1 8-3.6l1 .6.3.4-.3-.4-.5-.9-.6-3c-.3-3.1.3-6.4 2.9-8.3 2.2-1.7 5.5-.5 7.6.8 2.8 1.7 4.6 4.8 7 7.2 2.2 2.4 5.3 4.4 8.1 6.2 7 4.5 16 7.1 21.8 13.3zM164.9 287c.2 0 .8.1.6.5-.3.5-.9.8-1.3 1-.6.5-1 1-1.7 1.3a31.7 31.7 0 0 1-13.2.2c-1.8-.3-3.5-1-5.3-1.4-.1 0-.4-.2-.6 0l-.2.3c-.4.6-1 1-1.6.8-1.5-.7-1.4-3-1-4.3.1-.4.2-.9.5-1.3v-.2l2 .1c2 .5 5 .7 7.2-.2l.5.2c.4.8 2 1 2.7 1.2 2.8.7 5.8.6 8.7 1.1l2.7.7zm-27.7-2.7c0 1.3.3 2.5 0 3.7-.2.5-.3 1-.7 1.2-.9.7-2.4 0-3.2-.5l-.4-.7-.2-.3-.2.3-.6.7a14 14 0 0 1-2.5 1.8 15.1 15.1 0 0 1-10.5 2.4c-1.7-.3-3-.6-4-2.1-.7-1 1.3-1.3 1.9-1.5 2.7-.7 5-2 7.5-3.1 1-.5 2-.9 2.9-1.5l.8-.7.2-.4h.8c2 .6 5.4.8 8.1.5v.2z"/><path fill="#000" d="M121.4 59.1c.4.8.9 5.3-.4 5.6-.4 0-1-2.3-1.2-2.6-1-1.2-2.8-1.5-4.2-1.7-1.2-.1-5.4 1.7-6 1h-.1c-.5-1.7 1.5-3.7 2.7-4.6 3.1-2 7.4-1 9.2 2.3z"/><path fill="#0C2A3E" d="M104 32.6c1.6 3.5-1.4 5.9-4 7.7-.9.7-2 1.2-3 1.5-1-.5-1.8-1-2.4-2-2.8-3.5 1-7 4.3-8.3 2-.8 4-1.1 5.1 1.1z"/><path fill="#000" d="M82 47.8c2-.3 3.8.3 4.7 2.1.7 1.7-.4 3.6-2.2 3.5-1 0-2.9-1.2-4.5-1.4-1-.1-2 .1-2.4 1.3h-.4a4 4 0 0 1 0-1.6c.4-2.1 2.6-3.6 4.8-4z"/><path fill="#C5505D" d="M42.4 42c3 0 5.6 2.4 5.6 5.5 0 3-2.5 5.4-5.6 5.4-3 0-5.6-2.5-5.6-5.5s2.5-5.4 5.6-5.4zM25 47.6c2 0 3.5 1.6 3.5 3.6a3.5 3.5 0 1 1-7 0c0-2 1.6-3.6 3.5-3.6z"/><path fill="#EBEBEB" d="M26.4 4.7c0 2.4-5.9 4.3-13 4.3C6.4 9 .7 7.2.4 5v-.3c.3-2.3 6-4.2 13-4.2 7.1 0 12.9 2 13 4.3z"/><path fill="#C5505D" d="M19.5 79.4c3.7 0 6.7 3 6.7 6.8s-3 6.9-6.7 6.9a6.8 6.8 0 0 1-6.8-6.9c0-3.8 3-6.8 6.8-6.8z"/><path fill="#EBEBEB" d="M.5 4.9v-.3.3z"/></g><g fill-rule="nonzero" transform="translate(13.2 14.2)"><g transform="translate(1.9 7)"><path fill="#FFF" d="M.1.3c-.1 12.4 6 24.5 15 29.5s20.4 2.7 27.8-5.5"/><path fill="#000" d="M.1.3a38.5 38.5 0 0 0 7.6 22.8 26 26 0 0 0 5.9 5.5A20.9 20.9 0 0 0 29 31.9a24 24 0 0 0 13.9-7.7 24.4 24.4 0 0 1-13.9 8A20.8 20.8 0 0 1 13.3 29a32 32 0 0 1-10-12.7A37 37 0 0 1 0 .3z"/></g><path fill="#000" d="M5.9 8.9c.1-.3.4-.4.7-.5l.9.1c.5.2 1 .9 1 1.4-.4-.5-.8-.8-1.2-1-.5-.2-1-.2-1.4 0z"/><path fill="#C5505D" d="M2.6 5.2C3.5 5.2 4.2 4 4 3 3.7 1.9 3 1 2 .7 1.8.5 1 .2.8.6c-.2.1-.2.4-.2.6 0 .8 0 1.7.4 2.4.2 1 1 1.7 1.7 1.6z"/><path fill="#000" d="M2.6 5.2c.3 0 .6-.1.8-.3l.4-.7c.2-.6.1-1.1 0-1.6a4 4 0 0 0-2.3-2L.9.8l-.1.6V3c.1.5.2 1 .5 1.5s.8.9 1.3.8zm0 0c-.5 0-1-.3-1.4-.7L.5 3 .3 1.3V1C.3.8.3.6.5.4L1 .2h.5c1.1.3 2 1.3 2.4 2.4.1.2.2.5.1.8 0 .3 0 .6-.2.8-.2.5-.6 1-1.2 1z"/><g transform="translate(5.7 1.4)"><g transform="translate(9 17)"><path fill="#FFF" d="M.2 4c4.7 10 18 17.8 32.3 18.9 1 0 2.2 0 2.3-.8.1-.6-.7-1-1.4-1.2l-14-5.4c3.7 1.3 7.9 2 12 2.2 1.3 0 3-.2 3.4-1.2.2-.7-.4-1.4-1.1-1.9-3.8-3-9.3-4.6-14.7-4.3 2.1.4 4 1.4 6 1.7 2.3.2 4.9-1 4.3-2.6-.3-.8-1.4-1.2-2.5-1.6-2.7-1-5.7-1.5-8.7-1.7.4 1.2 2.7 1.6 4 .9 1.2-.8 1.1-2.3 0-3.2-1-1-2.9-1.2-4.4-1 .9.6 2.2-.2 2.2-1 0-.9-1.1-1.4-2.3-1.6-1-.1-2.2.1-3.2.3"/><path fill="#000" d="M.2 4a26.3 26.3 0 0 0 6.7 8.6c1 .8 1.9 1.6 2.9 2.2l.7.6.8.4 1.5 1 3.3 1.6c1 .6 2.2 1 3.4 1.4l1.7.6.9.3.9.2a46 46 0 0 0 7.1 1.5l1.9.2h1.8c.3 0 .5-.2.7-.4.2-.1.2-.3 0-.5-.1-.2-.4-.3-.7-.5L33 21l-13.7-5.2.1-.3a40.6 40.6 0 0 0 12.4 2c.7 0 1.4 0 2-.3.3-.1.6-.3.7-.6.1-.2 0-.5-.1-.8-.3-.5-1-1-1.5-1.3l-.8-.7-1-.5c-1.2-.6-2.4-1.2-3.8-1.6a25 25 0 0 0-8.3-1.2v-.3c2 .3 3.8 1.3 5.8 1.6.9.2 1.9 0 2.8-.3a4 4 0 0 0 1.3-.7c.2-.1.2-.4.3-.5v-.7a2 2 0 0 0-1-1L27 8a32.3 32.3 0 0 0-8.7-1.7l.1-.2c.2.5.6.8 1.2 1 .4.2 1 .2 1.5.2s1-.3 1.4-.6c.4-.3.7-.8.6-1.4 0-.5-.3-1-.7-1.3-.3-.4-.8-.6-1.3-.8-1-.4-2.2-.5-3.2-.3.7.3 1.6 0 2-.5a1 1 0 0 0 0-1 2 2 0 0 0-.9-.7 5 5 0 0 0-2.2-.5c.8 0 1.6 0 2.2.4l1 .7.1.5c0 .2 0 .5-.2.6-.2.3-.5.5-1 .6h-1l-.2-.2h.2a7 7 0 0 1 3.2.2c.5.2 1 .4 1.4.8.5.4.7.9.8 1.4a2 2 0 0 1-.6 1.6 3 3 0 0 1-1.5.7c-.6 0-1.2 0-1.7-.2A2 2 0 0 1 18.1 6v-.2h.2A32.3 32.3 0 0 1 27 7.6l1.4.6c.4.3.9.6 1 1.2.2.2.2.5.1.8 0 .3-.2.5-.4.7-.4.4-.9.6-1.3.8-1 .4-2 .5-3 .3-2-.3-3.9-1.3-5.8-1.6l-1.6-.3H19a24.5 24.5 0 0 1 12.4 2.7l1 .5.8.6c.6.4 1.2.8 1.7 1.5.1.3.3.8.1 1.2-.2.5-.6.7-.9.8-.7.3-1.5.4-2.2.4-1.4 0-2.8 0-4.2-.3-2.9-.3-5.6-1-8.3-1.9l.1-.3 13.7 5.2c.6.2 1.2.3 1.7.9l.1.5c0 .2 0 .4-.2.5-.3.3-.6.4-.9.4H32l-1.8-.2a46 46 0 0 1-7.2-1.4l-.9-.3-.8-.3-1.8-.6-3.4-1.4-3.3-1.7-1.5-1-.8-.5-.7-.6-3-2.2L4.5 10A20.3 20.3 0 0 1 .2 4z"/></g><path fill="#000" d="M.4 1.6c.8-.2 1.6-.2 2.4 0 .8.2 1.6.6 2.3 1 1.3 1 2.4 2.3 3.4 3.6a61 61 0 0 1 2.6 4.1l1.3 2 1.2 2.2-1.4-2-1.4-2-2.8-4C7 5 6 3.9 4.8 2.9a8 8 0 0 0-2-1.1C2 1.6 1.1 1.5.3 1.6zM14 15a38.3 38.3 0 0 1 14.2.6l1.4.4c.5 0 1 .2 1.4.3.5.2 1 .4 1.3.7l1.2.7 2.7 1a28.7 28.7 0 0 0 16.7 1c.5 0 .9-.1 1.4-.3.4 0 1-.2 1.4 0 .3 0 .5.1.7.3l.3.7c.1.4 0 1-.3 1.3 0 .2 0 .4-.2.5.2-.1.2-.3.2-.5.3-.3.3-.8.2-1.2 0-.3-.2-.5-.3-.7a1 1 0 0 0-.6-.3c-.4 0-1 0-1.4.2-.5 0-.9.2-1.3.3a28.4 28.4 0 0 1-17-.8L33.3 18l-1.2-.7a10 10 0 0 0-1.3-.6l-1.3-.4L28 16l-2.8-.6c-3.7-.7-7.5-.8-11.3-.5z"/><path fill="#000" d="M11.2 10.9a49.1 49.1 0 0 1 7.6-6.3A30.6 30.6 0 0 1 33 0c.9 0 1.8 0 2.5.7A3 3 0 0 1 36.7 3v.3l-.3.4-.4.5-1 .8c-.7.4-1.5.8-2.3 1l-1.3.1h-.6L30 6a.6.6 0 0 1-.3-.3l-.1-.5c0-.2.1-.5.3-.7l.6-.3.6-.2a12 12 0 0 1 5-.2c.5 0 .9.2 1.3.5a2.1 2.1 0 0 1 1 2.3c0 .4-.2.8-.5 1.2-.4.7-1.1 1.3-1.8 1.8a9 9 0 0 1-7.1 1.8 6 6 0 0 1-2.9-1.2l-.5-.5a.7.7 0 0 1 0-.8c.2-.2.4-.4.6-.4.4-.1 1 0 1.3.1.5.1.8.4 1 .8.6.6.7 1.6.4 2.4 0 .2-.2.4-.5.5-.2 0-.3.2-.5.3l-.6.2H26a.7.7 0 0 1-.5-.3c-.2-.5 0-1 .5-1.1.5 0 .8.3 1 .6.2.4.3.8.2 1.3 0 .4-.3.8-.7 1-.3.2-.8.3-1.1.2.3.1.8 0 1.1-.2.4-.2.6-.6.7-1 0-.4 0-.8-.2-1.2-.2-.3-.5-.7-1-.6-.3 0-.5.5-.4.9.2.3.7.4 1 .3l.7-.2c.1 0 .3 0 .5-.2l.6-.3.3-.3c.3-.7.2-1.6-.3-2.3-.5-.5-1.3-.9-2-.7-.3 0-.4.1-.5.3v.4l.4.4.5.3c.7.4 1.5.7 2.3.8 1.6.2 3.3 0 4.7-.6L36 9c.7-.5 1.3-1 1.7-1.7.4-.7.6-1.5.2-2.2-.2-.7-1-1-1.8-1.2a9.9 9.9 0 0 0-4.8.3c-.4 0-.8.1-1 .3L30 5l.1.3h.6l.5.1 1.2-.1a7 7 0 0 0 3.5-2.1v-.5a2 2 0 0 0-.9-2c-.6-.5-1.4-.6-2.2-.5a33.2 33.2 0 0 0-18 7c-1.2 1.4-2.4 2.5-3.6 3.7zm35.4 11.9l6.8-.3 3.4-.1h2.7c.3 0 .6.2.8.4.4.5.6 1.1.7 1.7 0 .6-.2 1.2-.4 1.8a3 3 0 0 1-1.3 1.2c-.5.4-1 .6-1.6.7-2.3.3-4.6.2-6.8-.3a20.6 20.6 0 0 0 6.7-.1 6 6 0 0 0 1.5-.6c.5-.3.8-.7 1.1-1.2.3-.5.4-1 .4-1.5 0-.6-.2-1-.6-1.4-.3-.4-.8-.4-1.4-.3h-12z"/></g><path fill="#000" d="M49.5 29.2l3.6 1.5c1.3.5 2.5.9 3.8 1.2l2 .6c.2 0 .6 0 .9.2l.9.1c.6 0 1-.5 1.2-1.2.2-.6 0-1.2 0-1.9.2.7.3 1.3.2 2 0 .3-.2.7-.4 1-.2.2-.6.5-1 .5l-1-.1-1-.2A28.9 28.9 0 0 1 53 31l-1.8-.8-1.7-1zm-3.6.8l3.4 2.1 3.4 2.2 1.7 1.2c.5.4 1.1.7 1.7.8.3 0 .5-.1.8-.4.2-.1.3-.5.4-.8.2-.6.2-1.3.2-2v2c0 .4-.2.8-.4 1-.2.4-.6.6-1 .6s-.7-.1-1-.3l-1-.5-1.6-1.1a142.4 142.4 0 0 1-6.6-4.8z"/><path fill="#EDEDED" d="M293.8 137.5c-1.5.6-2.6 2-2.4 3.6.2 1.5 2.2 2.6 3.4 1.7-.1 2.4-2.5 3.9-4.4 5.2-2 1.4-4 3.9-2.8 6 .8 1.4 2.8 1.8 4.4 1.5 1.6-.4 3-1.4 4.5-2 1.6-.8 3.4-1.3 4.9-.5 1 .4 1.7 1.3 2.6 1.8a4.6 4.6 0 0 0 6.6-5.2c-.7-.7-1.2-1.6-1.8-2.4a125.6 125.6 0 0 0-7.4-8.2l-2.9-2.6c-.3-.3-.4-.2-.7 0-.2.2-.3.2-.5.2-1.3.2-2.4.3-3.5.9zm5.8 19c1-.5 2.5.3 2.6 1.5 0 1.2-1.3 2.2-2.4 1.8-1.1-.5-1.5-2.1-.7-3"/><path fill="#EDEDED" d="M288.3 143.6c.6-.3 1.4 0 1.4.7 0 .6-.7 1.2-1.3 1-.5-.3-.7-1.1-.3-1.6"/></g><g fill="#C5505D" fill-rule="nonzero" transform="translate(10.9)"><path d="M328.3 202.9a88.9 88.9 0 0 1 20.1 21.7 44.4 44.4 0 0 1 7.1 18.4c.6 3.3.9 6.6 1 9.9v7.5l-.2 2.4a71.3 71.3 0 0 1-9 28.2 104.7 104.7 0 0 1-25.6 30.2 98.5 98.5 0 0 1-16.7 10.6l-2.3 1c-.7.5-1.4.8-2.2 1.2l-4.6 2a157 157 0 0 1-28.6 8.3 458 458 0 0 1-39.3 5.1c-26.4 2.2-53 2.6-79.3-.8a277.7 277.7 0 0 1-38.8-8 208 208 0 0 1-18.8-6.4l-4.6-1.9-2.3-1-2.2-1-2.3-1-2.3-1L73 326c-.8-.4-1.5-.7-2.2-1.2l-2.2-1.1-2.1-1.2-2.2-1.3-4.2-2.5-4.2-2.7-1-.7-1-.7-2-1.4-4.1-3-4-3-3.8-3.1a151.6 151.6 0 0 1-20.7-21.4 139.4 139.4 0 0 1-10.6-16.8l-2.1-4.5-1-2.3-.5-1.1-.4-1.2a69.9 69.9 0 0 1-3-39.2 94.8 94.8 0 0 1 5.9-19 119.7 119.7 0 0 1 13.3-23.8l1.3-2c.4-.8.9-1.4 1.4-2.1l1.5-2 3.1-3.9a155 155 0 0 1-3 4l-2.8 4L21 175l-1.4 2-2.7 4.2a108.1 108.1 0 0 0-14.7 36.5 70.7 70.7 0 0 0 3 38.9l.5 1.1.4 1.2 1 2.2 2.1 4.5a133.9 133.9 0 0 0 31.2 37.8l3.9 3.2 3.9 3 4 2.8 2 1.4 1 .7 1 .7 4.2 2.7 4.3 2.5 2 1.3 2.3 1.2 2.1 1.2 2.2 1.1 4.4 2.2 2.3 1 2.2 1.1 2.3 1 2.3 1 4.5 1.9a236 236 0 0 0 57.5 14.3 381 381 0 0 0 79 .8 556 556 0 0 0 19.7-2 177.5 177.5 0 0 0 48-11.3l4.5-2c.8-.2 1.5-.7 2.3-1l2.2-1a102.2 102.2 0 0 0 30.9-24.3c4.3-5 8-10.4 11.3-16.2a70.5 70.5 0 0 0 9-28l.3-2.4.1-2.4v-5a62.4 62.4 0 0 0-3.5-19.4 44 44 0 0 0-4.4-8.8 80.7 80.7 0 0 0-12.5-15.3 97.7 97.7 0 0 0-7.5-6.5z"/><path d="M250.4 71.6c9 4 18.4 7.1 27.8 10.4l14 5.1c4.6 1.8 9.1 3.8 13.6 6l3.3 1.7 3.3 1.8 1.6 1 1.6 1c.5.3 1 .5 1.5 1l1.6 1A88.6 88.6 0 0 1 340 121c3 4 5.8 8 8.3 12.4l1.8 3.2 1.6 3.4c.6 1 1 2.3 1.6 3.4l.7 1.7.7 1.8.7 1.7.6 1.7 1.2 3.6 2 7.2a105.7 105.7 0 0 1 2.5 37 100.2 100.2 0 0 1-20 47.7 105.8 105.8 0 0 1-57.8 38.8l-1.9.4-1.8.4-1.8.3-1.9.3-3.7.5a97.3 97.3 0 0 1-14.9.4 23 23 0 0 1-3.7-.3l-1.9-.2-1.8-.3a73.2 73.2 0 0 1-21.3-6.9l-3.2-1.9-1.6-1-1.5-1.1-1.5-1.1-1.4-1.2-2.8-2.6a45.7 45.7 0 0 1-12.2-22.7l-.3-1.9-.1-.9-.1-1-.3-1.8v-1.8l-.1-3.7a48.7 48.7 0 0 1 2.5-14.7l1.3-3.5.7-1.7.7-1.7.4-.9.4-.8.9-1.6 1-1.6 1-1.6a60.6 60.6 0 0 1 .1.1l-1 1.6-.9 1.7-.8 1.6-.4.8-.4.9-.8 1.7-.6 1.7-1.3 3.5a53.6 53.6 0 0 0-2.3 14.6v3.7l.2 1.8.2 1.9.1.9.2.9.3 1.8A47.8 47.8 0 0 0 218 270l2.7 2.5 1.5 1.2 1.4 1 1.5 1.1 1.6 1c1 .6 2.1 1.3 3.2 1.8a61.1 61.1 0 0 0 21 6.8l1.9.3 1.8.2 3.7.3a77.5 77.5 0 0 0 18.5-1l1.8-.2 1.8-.4 1.8-.3 1.8-.5a87 87 0 0 0 17.3-6.5 108.6 108.6 0 0 0 19.1-11.2 105.3 105.3 0 0 0 40.8-68l.6-7.5a111 111 0 0 0-3-29.3l-2-7.2-1.2-3.5-.7-1.7-.6-1.8-.7-1.7-.7-1.7-1.6-3.4-1.6-3.3-1.7-3.3a107.4 107.4 0 0 0-18-23.4 91 91 0 0 0-24.1-17 351 351 0 0 0-27.5-11.2c-9.5-3.4-19-6.6-28-10.6zm-61.4.1c2-.3 4-1 6-1.6a143.8 143.8 0 0 0 22.4-10l5-3.6a72 72 0 0 0 22.2-28.8c.6-2 1-4 1.2-6a22 22 0 0 0-6.4-16.4A15.5 15.5 0 0 0 228.5 1c-4 0-8 1.7-11 4.3-3.1 2.5-5.6 6-7 9.7a25.7 25.7 0 0 0-1.5 12c.4 4 1.6 7.9 3.3 11.6a53 53 0 0 0 6.6 10.3 65.7 65.7 0 0 0 18.7 15.9 70.5 70.5 0 0 1-19-15.6c-2.7-3.2-5-6.6-6.8-10.4a36.2 36.2 0 0 1-3.6-18A24.5 24.5 0 0 1 217 4.6C220.3 2 224.4.3 228.6.2c2.2 0 4.3.3 6.3 1 2 .8 3.7 2 5.3 3.4 3 3 5 6.9 6 11a21.4 21.4 0 0 1-.6 12.3c-1.3 4-3.4 7.6-5.7 11a84.9 84.9 0 0 1-17 18A74.9 74.9 0 0 1 201 68.2a94.4 94.4 0 0 1-12 3.5z"/></g><path fill="#000" fill-rule="nonzero" d="M274.6 232a19 19 0 0 0-4.9.3c-.8 0-1.6.2-2.4.4l-2.4.6a49.2 49.2 0 0 0-13.5 5.9c-1.3 1-2.5 2.1-3.6 3.3-1 1.2-2.2 2.5-2.8 4-.2.4-.4.7-.4 1.1v1.2c0 .4.3.7.6 1 .3.3.8.4 1.1.6-.3-.2-.8-.3-1.1-.6-.3-.2-.6-.6-.7-1v-1.2c0-.5.1-.8.3-1.3a16 16 0 0 1 2.8-4 62.7 62.7 0 0 1 3.6-3.5 49.9 49.9 0 0 1 13.6-5.9l2.5-.5 2.4-.4a19 19 0 0 1 5 0z"/><g fill="#4F8E99" fill-rule="nonzero" transform="translate(100.1 209.7)"><path d="M5 15.7c.3.2.8.5 1 .8.4.4.5 1 .3 1.4-.1.5-.4 1-.8 1.3-.3.3-.7.6-1.2.8a3 3 0 0 1-1.5.2c-.5 0-1-.2-1.4-.5A4 4 0 0 1 .3 17a6 6 0 0 1 2.4-5.2l1.5-.6.7-.1h.7c1-.1 2 0 3 .5.8.6 1.5 1.4 2 2.2.5.8 1 1.7 1.3 2.6a27.2 27.2 0 0 1 1.4 5.7c.6 3.7.7 7.6 1 11.3.2 2 .2 3.9.6 5.6l.5 1.3.3.6c0 .2.2.4.4.6.5.7 1 1.4 1.8 2a7.8 7.8 0 0 0 5 1.8c1 0 1.8-.3 2.7-.6l2.7-1c1-.1 1.9-.4 3-.3a4 4 0 0 1 2.7 1.3 7 7 0 0 1 1.4 2.6c.3 1 .4 2 .4 3 0 .9-.4 1.9-1 2.7-.7.7-1.8 1.1-2.8 1a4 4 0 0 1-2.5-1.3 3.6 3.6 0 0 1-1-2.7c0 .5.2 1 .3 1.4.2.4.4.8.8 1.2.6.6 1.5 1.1 2.4 1.2 1 0 1.8-.4 2.4-1a5 5 0 0 0 .9-2.6 7.5 7.5 0 0 0-1.8-5 3.3 3.3 0 0 0-2.3-1c-.9-.1-1.8 0-2.7.3l-2.6 1c-1 .3-1.9.6-2.9.6-2 0-4-.7-5.5-2a8.9 8.9 0 0 1-2.8-3.4l-.4-1.4c-.5-2-.5-3.9-.6-5.7-.4-3.8-.5-7.6-1-11.4l-.6-2.7c-.1-1-.4-1.8-.7-2.7-.3-.9-.7-1.7-1.2-2.5s-1-1.5-1.8-2c-.7-.5-1.6-.6-2.5-.6H5l-.6.2c-.4 0-.9.2-1.2.4A5.4 5.4 0 0 0 .9 17c0 .9.3 1.8 1 2.4.7.6 1.6.7 2.5.3.8-.3 1.6-.9 2-1.8 0-.4 0-1-.3-1.3-.3-.4-.8-.7-1.2-.9z"/><path d="M33.6 53.5c3.3-1 6.6-2.1 10-3l10-2.9a789.7 789.7 0 0 1 20.1-5l-9.9 3-10 3-10 2.6-10.2 2.3zm-16-9.7h-.1v-.1.3l.2.5.4 1 .4 1 .3 1 .8 4.4c.2 1.4.6 2.8.5 4.3 0 .4 0 .8-.2 1.2l-.1.3-.2.4a2 2 0 0 1-.5.4l-1 .5-.4.3v-.1l.1-.1.6.2c.3 0 .6 0 1-.2a5 5 0 0 0 1.5-1c.2-.3.3-.5.3-.8v-3.1c-.4-2.9-1-5.7-1.2-8.6.5 2.8 1.4 5.6 1.8 8.5l.2 2.2v1c0 .5-.2 1-.5 1.3a5 5 0 0 1-1.9 1.3c-.7.3-1.7.6-2.5-.2l-.3-.5v-.5l.2-.1v-.1l.6-.3a5.6 5.6 0 0 0 1.2-.8v-.1l.2-.2.1-1c.1-1.4-.2-2.8-.3-4.2l-.6-4.3-.2-1-.2-1.1-.3-1-.2-.6v-.3l.3.2zm16.5 10l.6 4.5.4 2.3.1 1 .2 1.2v1.9l-.2.6a3 3 0 0 1-.6 1.1c-.4.3-.8.6-1.3.7h-1.6v.1l.1.1.1.2.3.1 1 .2c1.4 0 2.8-.4 3.6-1.5.5-.5.7-1.2.8-2v-2.2c0-3-.9-6-.5-9.1 0 1.5.3 3 .5 4.5.3 1.5.6 3 .7 4.6 0 .8.2 1.5.1 2.3 0 .5 0 .9-.2 1.3l-.6 1a5 5 0 0 1-4.5 2c-.4 0-.8 0-1.3-.3-.2 0-.5-.2-.6-.5l-.2-.4v-.1l-.1-.3v-.4l.3-.3.2-.2h.1l.7-.1h1c.4 0 .6-.2.8-.3l.5-.9.2-.5V63l-.2-2.3-.2-2.3L34 56v-2.2zm38.4-10.4c0-.1 0 0 0 0h.1l.1.2.1.5.2 1 .4 1.9.4 4 .4 1.8c.2.5.5 1.1.9 1.4.3.4.9.5 1.4.4l.4-.1.4-.2c.3 0 .5-.3.7-.5.5-.4 1-.8 1.2-1.4.2-.2.3-.5.3-.7l-.2-.4-.7.1c-.3.1-.6.3-1 .3l-.7-.1-.3-.2-.3-.2-.5-1-.3-2-.3-2a14 14 0 0 1-.2-4c0 1.4.3 2.7.6 4l.5 1.9.4 1.9.4.7.2.1c.2.1.3.1.4 0 .2 0 .5 0 .8-.2l.5-.1h.7c.3.1.5.4.6.6.2.2.2.4.2.6 0 .5-.1.9-.3 1.2l-1.4 1.6-.9.6-.5.2-.5.2a3 3 0 0 1-1.2 0 3.3 3.3 0 0 1-2.1-2.6c-.2-.6-.3-1.3-.3-2-.2-1.3 0-2.6-.2-3.9l-.2-2-.1-1v-.6l-.1-.1zm-45.2-7.6c2.7-.8 5.5-1.8 8.2-2.9l8.1-3 8.3-3 4.2-1.2 4.3-.9c2.8-.6 5.8-1.1 8.8-.9 1.4.2 3 .5 4.3 1.1 1.4.6 2.6 1.5 3.7 2.6 1 1.2 1.7 2.5 2.1 4a9.4 9.4 0 0 1-5.8 10.8 9.1 9.1 0 0 0 5.2-10.7c-.3-1.3-1-2.6-2-3.5-2-2-4.8-3.1-7.5-3.4a29 29 0 0 0-8.5 1 137.1 137.1 0 0 0-8.5 2L44 30.7c-5.6 1.8-11 3.8-16.7 5.2z"/><path d="M1.6 12.8a62 62 0 0 1 9-3.5l4.7-1.5a174.5 174.5 0 0 1 14-4l9.5-2.4a43 43 0 0 1 4.8-.8c1.7-.2 3.3-.2 5 .1 1.6.3 3.2 1 4.5 2a13 13 0 0 1 3 4 36.3 36.3 0 0 1 3.7 11.7l.3 2.4c.1.8.3 1.6.6 2.3.3.7.8 1.4 1.5 1.8-.7-.3-1.3-1-1.6-1.8-.4-.7-.6-1.5-.8-2.3l-.4-2.4-.6-2.3c-.8-3.2-1.7-6.3-3.3-9a13 13 0 0 0-3-3.7 9.7 9.7 0 0 0-4.2-1.9c-1.5-.3-3.1-.3-4.7 0a522.5 522.5 0 0 0-33 8.2c-2.9 1-6 1.8-9 3.1z"/><path d="M24.8 28.7c2.5-1 5-1.8 7.6-2.6l7.6-2.5 7.6-2.4 3.9-1c1.2-.5 2.5-.8 3.8-1.2-1.3.5-2.5 1-3.8 1.3l-3.8 1.3-7.6 2.5-7.5 2.3-7.7 2.3zm-1.2-3.8c2.6-1 5.1-1.8 7.7-2.6l7.6-2.5 7.6-2.3 3.8-1.2a116 116 0 0 1 0 .3l-3.7 1.2-7.6 2.5-7.7 2.4-7.6 2.2z"/></g><g transform="translate(54.3 52.4)"><g transform="translate(10.9)"><g fill="#000" fill-rule="nonzero"><path d="M224.5 85.4l1-4.2a18.7 18.7 0 0 0 0-6.4c0-.7-.3-1.4-.6-2a28.3 28.3 0 0 0-7.7-10.2 23.6 23.6 0 0 0-11.6-5.3c-1.4-.3-2.9-.4-4.3-.6l-8.5-1c-1.4-.1-2.9-.2-4.3-.5-1.4-.4-2.8-.8-4-1.6-1.2-.8-2.2-2-2.5-3.5-.2-.7 0-1.5.1-2.2.3-.7.8-1.3 1.2-1.8a9.5 9.5 0 0 1 3.6-2.5l2-.7c.8-.1 1.6-.1 2.3.3l1 .7.5 1c.3.6.4 1.4.4 2.1 0 .8-.4 1.5-.8 2.1a8 8 0 0 1-1.4 1.7 7 7 0 0 1-1.7 1.3l-1 .7a12.9 12.9 0 0 1-5.1 1.8 27.1 27.1 0 0 1-12.7-1.8l-1-.6a6 6 0 0 1-1.9-2.7 4 4 0 0 1 0-2.2 7 7 0 0 1 1.1-2 18 18 0 0 1 7.2-4.8c1.3-.6 2.8-1 4.2-1.1h2.6l.1.4v.2h-1c-.4 0-.7-.2-1-.3l-2.2-.6-2-1a12.2 12.2 0 0 1-4.4-4.7l-.4-1-.3-1a6.5 6.5 0 0 1 .5-4.3c.6-1.5 2-2.5 3.4-2.8.7-.1 1.5-.2 2.2 0a6 6 0 0 1 2 1l.9.6.4.4.1.2c.2-.2 0 .5-.3.3l-.2-.2-.6-1-.3-1a16.7 16.7 0 0 1-.4-4.3c.1-1.5.4-3 1.1-4.3a7 7 0 0 1 1.4-1.7c.5-.5 1.2-1 2-1.1 1.4-.4 2.9 0 4.3.5a12 12 0 0 1 3.6 2.2c1.1 1 2 2.1 3 3.2l2.8 3.2c1 1 2 2 3.2 2.8l3.6 2.4 3.7 2.2 7.6 4A59 59 0 0 1 223 38a26.6 26.6 0 0 1 8.5 9.7l1.8 3.9a32 32 0 0 1 1.9 12.7 44.7 44.7 0 0 1-.8 4.3 25.7 25.7 0 0 0 .6-8.6 31.3 31.3 0 0 0-6-15.8 26.2 26.2 0 0 0-6.1-6 55 55 0 0 0-7.5-4.3l-7.7-3.9a47.6 47.6 0 0 1-7.2-4.6c-1.2-.8-2.3-1.7-3.3-2.8l-2.9-3.2a26 26 0 0 0-2.9-3.2 12 12 0 0 0-3.6-2.2 6.5 6.5 0 0 0-4.1-.4 4 4 0 0 0-1.7 1c-.6.5-1 1-1.3 1.7a8 8 0 0 0-1 4 16 16 0 0 0 .6 5.3l.6.9h.1c-.2 0-.4.6-.3.3v-.1l-.4-.3-1-.7a5 5 0 0 0-1.8-.9h-2a4.8 4.8 0 0 0-3.7 4.4v2.1a11 11 0 0 0 5.1 6.5c1.2.7 2.5 1.1 4 1.6l1 .3h.4v.3h-2.1c-1.5.1-2.9.5-4.2 1a22 22 0 0 0-3.8 2c-1.2.7-2.2 1.6-3.1 2.7-.5.6-.8 1.2-1 1.8-.3.7-.3 1.4 0 2 .1.7.5 1.2 1 1.8l.7.7 1 .5a26.9 26.9 0 0 0 12.5 1.8 11 11 0 0 0 4-1.2l1-.5.8-.6 1.7-1.4c1-1 2-2 2-3.5a4.4 4.4 0 0 0-.8-2.9l-.7-.6c-.7-.3-1.4-.4-2-.2a11.4 11.4 0 0 0-3.9 1.6c-.6.3-1.1.8-1.6 1.3-.5.6-.9 1.1-1.1 1.8-.3.6-.4 1.4-.2 2a5.5 5.5 0 0 0 2.4 3.3c1.2.8 2.6 1.3 4 1.6l4.2.7 8.6 1c1.4 0 2.8.3 4.2.5l4.2 1a24.6 24.6 0 0 1 13 11 19 19 0 0 1 2.2 3.7 11.3 11.3 0 0 1 .9 4.1 19 19 0 0 1-.5 4.3c-.5 1.3-.9 2.7-1.2 4.1z"/><path d="M217.7 90.7c.3-.8 1-1.5 1.5-2a15.6 15.6 0 0 1 6.6-4 11.5 11.5 0 0 1 7.7.3 5 5 0 0 1 2 1.8c.1.4.2 1 .1 1.4 0 .5-.2.9-.3 1.3-.3.8-.9 1.6-1.4 2.2-1 1.4-2.5 2.4-4 3.2a15.5 15.5 0 0 1-7.4 2 7.5 7.5 0 0 0 0-.1c.8 0 1.7-.1 2.5-.3a17 17 0 0 0 8.6-5l1.4-2.2.2-1.2-.1-1c-.3-.8-1-1.4-1.7-1.7-.8-.4-1.6-.6-2.4-.7a13.5 13.5 0 0 0-9.6 2.5l-2 1.5c-.7.6-1.4 1.2-1.7 2zm-52.1-25.4c-.4-1-.1-2.2.5-3.2.7-1 1.6-1.6 2.7-2a6 6 0 0 1 3.3-.5c.6.1 1.2.2 1.7.6a3.5 3.5 0 0 1 1.8 3c0 .5-.2 1-.6 1.6-.4.4-1 .8-1.5.9h-.9c-.3 0-.6-.2-.8-.3-1-.5-2-1-3-1.2-.6-.1-1.2-.1-1.6 0-.6.2-1 .7-1.1 1.2 0-.3.2-.5.4-.8l.6-.5c.5-.2 1.2-.2 1.7-.1 1 .1 2.1.6 3.1 1l.8.2a2 2 0 0 0 2-.7c.3-.4.5-1 .4-1.4 0-.6-.2-1-.5-1.5a3.5 3.5 0 0 0-2.5-1.6c-1-.1-2.1 0-3.1.5-1 .3-2 1-2.6 1.8-.4.4-.6.9-.7 1.4a3 3 0 0 0-.1 1.6zm32.2 8.2a3 3 0 0 1 .4-2.2 7.2 7.2 0 0 1 5.5-3.5 6.5 6.5 0 0 1 6 2.8l.2.5.2.6.2 1v2.4c0 .3 0 .7-.2 1 0 .3-.2.5-.4.7l-.3.1h-.3l-.2-.1-.4-1.1-.4-1-.1-.3v-.1h-.2c0-.2-.2-.3-.3-.5l-1-.5c-.6-.3-1.3-.5-2-.6l-.6-.1h-.5l-1.1.2-2.2.6-1 .1h-.7l-.5-.1.5.1h.6l1-.2 2.3-.7 1-.2h1.2a9 9 0 0 1 2.3.5l1 .6.4.4.1.1.1.2.1.2.4 1 .5 1c-.1 0 0 0 0 0 .2-.1.3-.3.3-.4.2-.3.2-.7.2-1a16.7 16.7 0 0 0-.2-3.3l-.2-.5-.2-.4c-.4-.7-1-1.2-1.5-1.6a6.7 6.7 0 0 0-4.1-1.2 7.1 7.1 0 0 0-5.5 3.3c-.3.7-.5 1.4-.4 2.2z"/><path d="M173.7 53.9l-1.6 3c-.5 1-1 2-1.7 3a14.5 14.5 0 0 1 3.3-6zM168.4 64l-3 6.4-1.4 3.2-1.2 3.3a42.2 42.2 0 0 0-2 13.8c-.1 4.7.5 9.4 1.8 13.8a26.5 26.5 0 0 0 5 9.2l2.6 2.3a13.8 13.8 0 0 0 6.5 2 28 28 0 0 0 7-.6l3.4-.7 3.3-1 6.3-3a112.4 112.4 0 0 0 12-7.2 53 53 0 0 0 .2.2 127 127 0 0 1-18.4 10.3l-3.4 1-3.4.8c-2.4.4-4.7.7-7 .6-1.3 0-2.4-.3-3.6-.6a12.6 12.6 0 0 1-5.9-3.9l-2-2.8c-1.3-2-2.3-4.3-3-6.5a43.5 43.5 0 0 1-1.2-21 38 38 0 0 1 2.9-10l1.4-3.3 3.1-6.2z"/><path d="M186.4 117.3c.5.7 1 1.5 1.6 2 .7.5 1.4.9 2.2 1.2a8.7 8.7 0 0 0 5 .2c1.6-.3 3.2-1 4.7-1.8a31 31 0 0 0 7.8-6.3 50.9 50.9 0 0 0 8.7-12.5c-1.4 3-3.1 6-5.2 8.8a40.5 40.5 0 0 1-11.2 10.4c-1.5.9-3.1 1.5-4.8 1.9-.9.1-1.7.2-2.6.1a8 8 0 0 1-4.7-1.8c-.7-.7-1-1.5-1.5-2.2zm33.3-24.1a13.3 13.3 0 0 1 4.4-4.3 9 9 0 0 1 3-1c.4-.2 1-.1 1.5-.1l1.5.1-1.5.1c-.5 0-1 0-1.5.2-1 .3-1.9.7-2.7 1.2-.9.4-1.7 1-2.5 1.7l-1.1 1-1 1.1z"/><path d="M222.7 90.4c.3-.2.7-.4 1.2-.4h1.2l1.1.5.5.2c.2 0 .4.2.5.4-.3-.2-.7-.2-1.1-.3l-1.2-.3c-.7-.1-1.4-.2-2.2 0zM5.2 78.3C4.2 81 4 84 4.3 86.7c.3 2.9 1.1 5.6 2.3 8.2A51.5 51.5 0 0 0 17 108.3c4.1 3.8 8.8 7.1 13.8 9.8a56.8 56.8 0 0 0 24.4 6.7 32 32 0 0 0 6.4-.4l2-.4a53.7 53.7 0 0 0 12.2-3.6l3.7-2c2.4-1.5 4.7-3.3 6.6-5.4 1.9-2 3.4-4.5 4.4-7.1a12.9 12.9 0 0 0-2.1-12c-1-1.2-2-2.1-3.3-2.7a10.5 10.5 0 0 1 5.4 6.3 13 13 0 0 1 .2 8.5 21 21 0 0 1-4.4 7.3 36.2 36.2 0 0 1-14.4 9c-2.7 1-5.5 1.7-8.3 2.2l-2 .3c-.8 0-1.5.2-2.2.3-1.4.1-2.9.2-4.3.1a50.9 50.9 0 0 1-24.6-6.7 65.3 65.3 0 0 1-19.6-16.3A37.2 37.2 0 0 1 6.3 95c-1.2-2.6-2-5.3-2.2-8.2-.2-2.8.1-5.7 1.1-8.4z"/><path d="M23 113.8a3 3 0 0 0-1 1.5c-.2.5-.2 1-.2 1.7 0 1 .4 2.2.7 3.3a22 22 0 0 0 3 6.2c2.6 3.8 6.1 6.8 10 9.2 4 2.3 8.3 3.8 12.7 5.1a54.6 54.6 0 0 0 17 2.5l3.3-.3 3.4-.5c.6 0 1.2-.2 1.7-.3.6 0 1.2-.2 1.7-.3a44 44 0 0 0 6.7-1.8 18.5 18.5 0 0 0 10.2-8.5 13.7 13.7 0 0 0-6.5-17.5 14 14 0 0 1 7.8 10.7 13 13 0 0 1-1 6.8A14 14 0 0 1 88 137l-1.3 1.1-1.5 1a48.1 48.1 0 0 1-9.8 3.3l-1.8.2-1.7.3-3.4.5a77 77 0 0 1-3.5.3h-3.5c-4.6-.1-9.1-1.1-13.6-2.5a53.7 53.7 0 0 1-12.7-5.2 31 31 0 0 1-10-9.4 22.3 22.3 0 0 1-3.6-9.6c0-.6 0-1.2.3-1.7a3 3 0 0 1 1-1.5zM187 57a33 33 0 0 0-4.6 6l-2 3.3-2 3.3c-2.5 4.4-4.8 9-6.9 13.5l-1.5 3.5-.8 1.8-.8 1.7a11 11 0 0 0-1.1 3.5c0 .6 0 1.3.4 1.7l.7.5.8.5c1 .6 2.4 1 3.6 1h3.8a31 31 0 0 1 0 .2c-1.3.1-2.5.2-3.8 0-1.3 0-2.6-.3-3.7-.9-.6-.3-1.2-.6-1.6-1.1a3 3 0 0 1-.6-2 10 10 0 0 1 1.2-3.7l.8-1.7.7-1.8 1.5-3.4c2.2-4.7 4.4-9.2 7-13.6l2.1-3.3 2-3.2c1.5-2 3-4 4.7-5.9zm9.8 25.4c0-.8.3-1.5.6-2.2.4-.7.9-1.3 1.5-1.8.5-.6 1.2-1 2-1.3.7-.2 1.5-.4 2.3-.4.4 0 .8.2 1.1.3.4.2.7.6.9 1 .4.7.4 1.5.2 2.3-.3 1.5-1 3-1.8 4.2a16 16 0 0 0 1.4-4.2c.1-.8.1-1.5-.2-2.1-.2-.3-.4-.6-.7-.7a3 3 0 0 0-1-.3c-.7 0-1.4 0-2.2.4a7 7 0 0 0-1.9 1c-.6.5-1 1-1.5 1.7a8 8 0 0 0-.7 2zM164.4 75c-.1-.9.1-1.7.4-2.5a14.2 14.2 0 0 1 2.9-4l1-.8.6-.3h.8c.4.3.8.6 1 1l.5 1.2a7 7 0 0 1-.2 2.5l-.7 2.3-.9 2.4c.4-1.6 1-3.2 1.2-4.8.2-.8.2-1.6 0-2.4 0-.4-.1-.7-.3-1l-.8-.7c-.3-.1-.7 0-1 .2l-1 .6c-.6.5-1.1 1.2-1.6 1.8a11.5 11.5 0 0 0-1.8 3.1V75zm68.5 101.2a16.7 16.7 0 0 1-10.1-.3 18 18 0 0 1-4.5-2.5l-1-.9-1-.9-.8-1a3 3 0 0 1-.7-1.1c-.3-.9-.3-1.7-.5-2.6-.1-.8-.3-1.6-.8-2.3-.4-.6-1.3-.8-2-.8a3 3 0 0 0-2.2 1 5 5 0 0 0-1.2 2c-.2.9-.3 1.7-.2 2.5 0 .9.3 1.7.6 2.5a4 4 0 0 1 .7 1l-.7-1a6.5 6.5 0 0 1-.7-5c.3-.9.7-1.7 1.3-2.3.6-.7 1.4-1.1 2.3-1.2.5 0 1 0 1.4.2.2 0 .4.2.6.4.2.1.3.2.4.5.6.7.7 1.6 1 2.4 0 .9.2 1.7.5 2.5.1.4.3.7.6 1l.8 1 .9.8 1 .8a17.3 17.3 0 0 0 14.3 3.3zm6.2 4.5l.1-.2.1.2-.1.3v-.3zm3.3 9c0-.2.1-.2.2-.2l.2.2c0 .2-.1.2-.2.2l-.2-.2zm-.2 4.3l.2-.1s.2 0 .2.2 0 .2-.2.2l-.2-.2zm1.8 5v-.2s.2 0 .3.2l-.1.2-.3-.1zm-71.3-99.4l-.3 1.8c0 .5 0 1.1.2 1.6l1.4 1 1.7.5c2.2.5 4.6.4 6.9-.2a21.2 21.2 0 0 0 6.5-2.5l3-2 .2-.2.3-.3-.1-.3-.1-.2v-.2l.2.4.2.4c0 .3.2.6.5.7-.3-.1-.4-.4-.6-.6l-.2-.4-.2-.4s0-.2.1-.1v.2l.2.2.1.4-.1.3-.2.2-.3.2c-1 .7-1.8 1.5-2.9 2.1a26 26 0 0 1-6.6 2.6c-2.3.6-4.7.6-7 0-.6 0-1.2-.3-1.7-.5a4 4 0 0 1-1.4-1.2c-.2-.2-.3-.6-.3-.9v-.9c.2-.5.4-1 .5-1.7zm-.2 8a8.7 8.7 0 0 0 9.2.8c-.6.5-1.4.9-2.2 1.1-.8.3-1.7.3-2.6.3-.8-.1-1.7-.3-2.4-.7a8 8 0 0 1-2-1.5zm-7.3-51.9c-4.5-6.9-9.1-13.6-14.3-20-5.2-6.3-11-12.3-17.5-17.3l-2.4-1.8-2.6-1.7-1.2-.9-1.4-.8-2.6-1.5c-1.9-1-3.6-2-5.5-2.8-1-.4-1.8-1-2.8-1.3l-2.8-1.1c-1-.5-2-.7-2.9-1l-1.5-.6-1.4-.5-6-1.6-1.5-.3-.7-.2-.8-.1-3-.5-1.5-.3-1.5-.2c-1-.1-2-.3-3.1-.3l-3-.2L82 .6h-6c-1.1.1-2.1.3-3.2.3l-1.5.1-1.5.2-3 .5-3 .5-1.5.3-1.6.4-3 .7-2.9 1c-.4 0-1 .2-1.4.4l-1.4.5-3 1.1-2.8 1.2-1.4.7-1.3.6-2.8 1.4A87.4 87.4 0 0 0 6 44.3C4 48 2.5 51.7 1.5 55.6c-1 4-1.4 8.1-.7 12.1A30 30 0 0 0 5.3 79 33 33 0 0 0 19 91l5.6 2.6a75.8 75.8 0 0 0 48.1 3 37 37 0 0 0 11.1-5 19 19 0 0 0 7.3-9.5 28.6 28.6 0 0 0 1.5-9l-.1-1.5-.1-.8-.1-.7c-.5-2-1.2-4-2.3-5.7a19.5 19.5 0 0 0-4.1-4.5c-3.2-2.5-7.1-4-11.1-5s-8.1-1.2-12.2-1a41 41 0 0 1 12.2.9c4 .9 8 2.5 11.2 5A16.4 16.4 0 0 1 92.5 70l.1.7.1.8.2 1.5c0 1 0 2.1-.2 3.1-.2 2-.7 4-1.3 6a18.2 18.2 0 0 1-7.4 9.6 37 37 0 0 1-11.2 5.1 66.5 66.5 0 0 1-24.4 2.4 64 64 0 0 1-23.9-5.5c-2-.8-3.7-1.8-5.6-2.6A31.3 31.3 0 0 1 5 79.1 30.2 30.2 0 0 1 .5 67.8c-.7-4-.4-8.3.6-12.2 1-4 2.7-7.9 4.7-11.5a89.5 89.5 0 0 1 35-34l2.6-1.3 1.4-.7 1.4-.6L49 6.2 52 5l1.4-.5 1.4-.5 3-.9 3-.7 1.5-.4 1.5-.3 3-.6 3-.4 1.6-.2 1.5-.1L76 .2c2 0 4.1-.2 6.1 0h3.1l3 .3c1.1 0 2.1.2 3.2.3l1.5.2 1.5.2 3 .6.8.1.7.2 1.5.4c2 .4 4 1 6 1.6l1.4.4 1.5.6 2.9 1 2.8 1.1 2.8 1.3c1.9.8 3.7 1.8 5.5 2.8l2.6 1.5 1.4.9 1.2.8 2.6 1.7 2.4 1.9c6.6 5 12.3 11 17.4 17.4a266 266 0 0 1 14.3 20.2zM211.3 174c-2.8-.5-5.7 0-8.4.9a48.1 48.1 0 0 0-11.7 5.2l-1.9 1.1-.9.6-.8.6a30.4 30.4 0 0 0-4.3 4.7l-.5 1v.5c0 .2 0 .3.2.5l-.2-.5v-.5l.4-1 1.3-1.8c.9-1.1 1.8-2.2 3-3.1l.8-.7.9-.6 1.8-1.1a58.8 58.8 0 0 1 5.7-3l2-.8 2-.8 2.1-.6 2.1-.5a33 33 0 0 1 2.1-.3 10 10 0 0 1 4.3.1zm.4 16.2c-2-.9-4-1.1-6-1.2a37.4 37.4 0 0 0-17.6 4.2 37.6 37.6 0 0 0-4.9 3.7c-.7.7-1.4 1.4-2 2.3-.5.8-.9 1.8-.6 2.7.3 1 1.1 1.6 2 2l3 .3c2.1-.1 4.1-.6 6-1.4a16.2 16.2 0 0 1-6 1.6c-1 0-2 0-3-.3-.6-.1-1-.4-1.4-.7-.5-.4-.8-.9-1-1.4-.3-1.1.1-2.2.7-3 .5-1 1.2-1.7 2-2.5 1.5-1.4 3.2-2.5 5-3.7a19.8 19.8 0 0 1 5.6-2.5c2-.6 4-1 6-1.3 2-.2 4.1-.4 6.2-.2h.8l.7.1h.8l.7.2c1 .3 2 .6 3 1.1z"/><path d="M210.3 200.3c-.4-.2-.8-.2-1.2-.2h-1.3c-.9 0-1.7 0-2.6.2-1.7 0-3.3.4-5 .5-1.7.2-3.3.6-5 1l-1.2.3a16.6 16.6 0 0 0-3.4 1.4c-.8.4-1.5.9-2 1.5-.6.5-1 1.2-1.3 2a4 4 0 0 0 .3 2.4c.3.8.8 1.4 1.4 1.9 1.4 1 3 1.4 4.7 1.6h3.7l1.3-.2c3.4-.5 6.7-1 10.1-1.3l5.1-.1 5-.1c1 0 1.7-.2 2.6-.3a46.6 46.6 0 0 0 7.4-1.9c3.2-1 6.1-2.7 9.3-4-3.1 1.4-6 3.1-9.2 4.3a44 44 0 0 1-5 1.4l-2.4.5-2.5.4a29 29 0 0 1-5.1.1 41 41 0 0 0-5 .2c-3.4.2-6.8.8-10.1 1.3l-1.3.1-1.3.2-2.5-.1a9.3 9.3 0 0 1-4.9-1.8 5 5 0 0 1-1.8-4.7c.2-.8.7-1.6 1.4-2.2.6-.6 1.3-1 2-1.5a40.1 40.1 0 0 1 9.9-2.6c1.7 0 3.3-.4 5-.4l2.6-.2h1.3l1 .3z"/></g><g transform="translate(88.3 12.3)"><path fill="#EBEBEB" d="M13.5.2c7 0 12.9 2 12.9 4.3 0 2.4-5.8 4.3-13 4.3C6.5 8.8.6 7 .6 4.5.5 2.2 6.3.2 13.5.2z"/><path fill="#000" fill-rule="nonzero" d="M13.5.2A33.4 33.4 0 0 1 24 2l1.5 1c.5.4 1 1 1 1.6 0 .6-.5 1.2-.9 1.6-.5.5-1 .7-1.6 1-1 .5-2.2 1-3.4 1.2a33.5 33.5 0 0 1-18-1.2c-.5-.3-1-.5-1.5-1-.4-.4-.9-1-.8-1.6 0-.7.4-1.2.9-1.6.4-.4 1-.7 1.5-1A33.4 33.4 0 0 1 13.4.2zm0 0C11 .2 8.6.5 6.3 1A17 17 0 0 0 3 2L1.5 3C1 3.4.6 4 .6 4.5c0 .6.4 1 .8 1.5l1.5.8a30 30 0 0 0 10.5 1.7c2.5 0 4.8-.1 7.2-.6 1.2-.2 2.3-.6 3.4-1a7 7 0 0 0 1.5-1c.4-.3.8-.8.8-1.4 0-.5-.4-1-.8-1.4-.4-.4-1-.7-1.5-1A32.7 32.7 0 0 0 13.5.2z"/></g><g fill="#000" fill-rule="nonzero" transform="translate(88.3 16.5)"><path d="M.5 0l.2 5v5c0 1.7 0 3.3-.2 5l-.1 2.4L.2 20V10l.1-5 .2-5zm26 .2c.2.8 0 1.6 0 2.4V10l-.2 4.7-.2 2.5-.2 2.4v-4.9l.2-4.7V7.5l.1-1.2V2.7c.2-1 .4-1.7.3-2.5z"/><path d="M0 19.9c0 .3.3.5.6.6l.7.5c.4.4 1 .7 1.5 1L6 23c2.3.5 4.5.7 6.8.6a29.4 29.4 0 0 0 10-2.4l3-1.4-3 1.6c-1 .6-2.1 1-3.2 1.4-2.2.7-4.5 1.1-6.8 1.3-2.3 0-4.7 0-6.9-.7l-3.3-1.2-1.4-1-.7-.5c-.2-.3-.5-.5-.5-.8z"/></g><path fill="#EBEBEB" fill-rule="nonzero" d="M130.8 54.1c1.4 0 2.9.6 4 1.5 1 1 1.7 2.5 1.7 4 0 1.4-.6 2.9-1.7 4a6 6 0 0 1-4 1.6 6 6 0 0 1-4.1-1.7 5.4 5.4 0 0 1-1.7-4c0-1.4.7-2.9 1.8-3.9a6 6 0 0 1 4-1.5zm0 0c-1.4 0-2.9.6-3.9 1.6s-1.6 2.4-1.5 3.8a5 5 0 0 0 1.7 3.7 5.6 5.6 0 0 0 7.5 0c1-1 1.7-2.3 1.7-3.7 0-1.4-.5-2.8-1.5-3.8a6 6 0 0 0-4-1.6z"/><g fill="#000" fill-rule="nonzero" transform="translate(107.7 52)"><g transform="translate(15.6)"><polygon points="7.6 .5 8.1 .5 8.1 .5 8.1 .5 8.1 .5"/><rect width="1" height="1" x="9.4" y=".7"/><path d="M9.4.7l.5.2-.5-.2zm1.8.8zm0 0l.4.2-.4-.2zm1.5 1.2zm0-.1l.3.4-.3-.4zm1 1.7v-.1zm.1-.1l.2.4h-.1l-.2-.4z"/><circle cx="14.4070098" cy="5.95174833" r="1"/><path d="M14.5 6l.1.4-.1.1-.2-.5.1-.1h.1z"/><circle cx="14.5959542" cy="7.84119224" r="1"/><path d="M14.7 7.8v.5c0 .1 0 .2-.2.2v-.7h.1z"/><circle cx="14.2653015" cy="9.68340005" r="1"/><path d="M14.4 9.7l-.1.5-.2.1c-.1 0-.2-.1-.1-.2l.1-.4c0-.1.1-.2.2-.1.1 0 .2 0 .1.1zm-.9 1.9s-.2 0-.2-.2l.2-.2.2.2-.2.2z"/><path d="M13.7 11.5l-.3.5H13v-.3l.2-.4h.3c.1 0 .1.1 0 .2zM12.3 13l-.2-.1.2-.2.2.2s0 .2-.2.2z"/><path d="M12.4 13l-.4.4h-.2V13l.3-.3h.3c.1 0 .1.1 0 .2zm-1.6 1.2c-.2 0-.3-.1-.3-.3 0-.1.1-.2.3-.2.1 0 .2 0 .2.2s0 .3-.2.3z"/><path d="M10.9 14.2l-.5.2h-.2V14l.5-.2.3.1-.1.3z"/><circle cx="8.97485859" cy="14.5959542" r="1"/><path d="M9 14.8l-.5.1s-.2 0-.2-.2c0-.1 0-.2.2-.2l.4-.1.3.1c0 .2 0 .3-.2.3zm-1.9.2c-.1 0-.2-.1-.2-.3 0-.1 0-.2.2-.2s.3.1.3.2c0 .2-.2.3-.3.3z"/><path d="M7 15h-.4l-.2-.3c0-.2.2-.2.3-.2H7c.2 0 .3.2.2.3 0 0 0 .2-.2.2z"/><circle cx="5.29044296" cy="14.3597737" r="1"/><path d="M5.2 14.5l-.5-.1s-.2-.2-.1-.3l.3-.2.4.2s.2.2.1.3c0 .1 0 .2-.2.1z"/><circle cx="3.58994343" cy="13.4622879" r="1"/><path d="M3.5 13.7l-.4-.3V13h.3l.3.2v.3c0 .1-.1.1-.2 0zm-1.3-1.3l-.2-.2.2-.2c.1 0 .2 0 .2.2 0 0 0 .2-.2.2z"/><path d="M2 12.3l-.2-.3v-.3h.3l.3.4v.3H2zm-.8-1.5l-.2-.2.2-.2c.1 0 .2 0 .2.2 0 0 0 .2-.2.2z"/><path d="M1 10.7l-.1-.5V10l.3.1.2.4-.1.3-.2-.1zM.7 9l-.1-.2.1-.2c.1 0 .2 0 .2.2l-.2.1z"/><path d="M.6 8.8v-.6l.2.1V9H.5zM.6 7v-.2l.1.1z"/><path d="M.5 6.9v-.5h.2V7H.6zM1 5.1V5h.1v.1z"/><path d="M1 5l.2-.4h.1l-.2.5H1z"/><circle cx="1.9409903" cy="3.40530934" r="1"/><path d="M1.9 3.4l.3-.4-.3.4s0 .1 0 0zM3.2 2zm0 0l.4-.3-.4.3z"/><rect width="1" height="1" x="4.8" y="1"/><path d="M4.8 1l.4-.1-.4.1zM6.7.5zm0 0H7h-.4z"/></g><g transform="translate(0 5.7)"><polygon points="5.7 .5 6.2 .5 6.2 .5 6.2 .5 6.2 .5"/><path d="M7.6.8zm0 0L8 1 7.5.8zm1.6 1zm0-.1l.3.4-.3-.4zm1.1 1.6zm.1-.1l.2.4v.1h-.1l-.2-.4v-.1zm.6 1.9h-.2L11 5h.1v.1z"/><path d="M11 5v.6h-.2V5h.2z"/><circle cx="10.8170664" cy="6.89647028" r="1"/><path d="M11 7l-.2.4c0 .1 0 .2-.2.1 0 0-.1 0 0-.2V7l.3-.1V7z"/><circle cx="10.0612888" cy="8.6442059" r="1"/><path d="M10.2 8.7l-.3.4h-.3V9l.3-.4h.2c.2 0 .2.1.1.2z"/><circle cx="8.7386781" cy="9.96681664" r="1"/><path d="M8.9 10.2l-.4.2h-.3V10l.4-.2h.3v.3zM7 11c-.1 0-.2 0-.2-.2s.1-.3.2-.3c.2 0 .3.1.3.3 0 .1-.1.2-.3.2z"/><path d="M7.1 11l-.4.1c-.2 0-.3 0-.3-.2 0-.1 0-.2.2-.3H7c.1-.1.2 0 .3.1 0 .2 0 .3-.2.3zm-1.9.1c-.1 0-.2 0-.2-.2 0-.1 0-.2.2-.2.1 0 .2 0 .2.2s-.1.2-.2.2z"/><path d="M5.1 11.1h-.4c-.2 0-.2-.2-.2-.3l.2-.2h.4c.2 0 .3.2.2.4 0 .1 0 .2-.2.1z"/><circle cx="3.35376295" cy="10.4391776" r="1"/><path d="M3.3 10.6l-.5-.2V10s.1-.1.2 0l.4.2.1.2c0 .1-.1.2-.2.1z"/><circle cx="1.84220782" cy="9.30551127" r="1"/><path d="M1.7 9.4l-.3-.3v-.3h.3L2 9v.3h-.3zM.9 7.9l-.2-.2H1V8z"/><path d="M.7 7.8l-.1-.5v-.2l.3.1v.5c.1 0 0 .1 0 .1H.7zM.5 6l-.2-.1c0-.1 0-.2.2-.2l.1.2-.1.1z"/><path d="M.3 5.9v-.5l.1-.1h.1V6l-.2-.1zm.4-1.8v-.2l.1.1v.1z"/><path d="M.7 4l.2-.5V4H.7zm1-1.6z"/><polygon points="1.6 2.4 1.9 2 2 2 2 2.1 2 2.1 1.7 2.4 1.7 2.4 1.6 2.4"/><path d="M3 1.2c.1 0 .1 0 0 0 .1 0 .1 0 0 0zm0-.1l.5-.2-.4.2zM4.9.6zm0-.1h.3H5z"/></g></g><path fill="#EBEBEB" fill-rule="nonzero" d="M113.3 59.7c1 0 2 .3 2.6 1 .7.7 1.1 1.6 1.1 2.6s-.3 2-1 2.7a4 4 0 0 1-2.7 1.2c-1 0-2-.5-2.7-1.2a4 4 0 0 1-1-2.7c0-1 .4-2 1-2.6.8-.7 1.8-1 2.7-1zm0 0c-1 0-1.9.4-2.5 1-.6.7-1 1.7-1 2.6a3.6 3.6 0 0 0 3.6 3.4c.9 0 1.7-.3 2.4-1a3.8 3.8 0 0 0 .1-5c-.7-.7-1.6-1-2.6-1z"/><g fill="#000" fill-rule="nonzero" transform="translate(97.8 88.3)"><polygon points="10.3 .2 10.7 .2 10.7 .2 10.7 .2 10.7 .2"/><path d="M12.1.4zm0 0h.5-.5zM14 1s0-.1 0 0c0-.1 0 0 0 0zm0-.1l.4.2-.5-.2zm1.6.9zm0 0l.4.3-.4-.3zM17.1 3zm0 0l.3.3L17 3zm1.2 1.4zm.1 0l.3.4h-.1l-.3-.3v-.1zm.9 1.6zm0 0l.2.4v.1h-.1l-.2-.5h.1z"/><circle cx="19.8863972" cy="7.84119224" r="1"/><path d="M20 7.8v.5h-.1l-.1-.5v-.1h.2zm.1 2v-.2l.1.1v.1z"/><path d="M20.3 9.7v.5l-.1.1-.2-.1v-.5h.1c0-.1.2 0 .2 0zm-.3 2l-.1-.1.1-.2c.1 0 .2 0 .2.2l-.2.1z"/><path d="M20.2 11.6l-.1.4c0 .1-.1.2-.2.1 0 0-.1 0 0-.1v-.5s.1-.1.2 0zm-.6 2c-.1 0-.2 0-.2-.2l.2-.1.1.1-.1.2z"/><path d="M19.7 13.5l-.1.4-.2.1c-.1 0-.2-.1-.1-.2l.2-.4s.1-.1.2 0c0-.1 0 0 0 0zm-.9 1.8s-.2 0-.2-.2l.2-.2.2.2-.2.2z"/><path d="M19 15.2l-.3.4c0 .1-.1.1-.2 0-.1 0-.1 0 0-.2l.2-.3c0-.1.1-.1.2 0v.1z"/><circle cx="17.6663006" cy="16.6271064" r="1"/><path d="M17.8 16.8l-.3.3h-.3c-.1 0-.1-.1 0-.2l.3-.4h.3v.3z"/><circle cx="16.2964537" cy="17.9497172" r="1"/><path d="M16.4 18l-.3.4h-.3V18l.4-.2h.3v.3zm-1.7 1.2c-.2 0-.2-.1-.2-.3 0-.1 0-.2.2-.2l.2.2c0 .2 0 .3-.2.3z"/><path d="M14.8 19.1l-.4.2H14v-.4l.5-.1h.3l-.1.3zm-1.8.7c-.2 0-.3 0-.3-.2l.2-.2c.2 0 .3 0 .3.2l-.3.2z"/><path d="M13 19.8l-.5.2c-.1 0-.2 0-.3-.2 0-.1 0-.2.2-.2l.4-.1.3.1-.1.2zm-1.9.4c-.1 0-.2-.1-.2-.3 0-.1 0-.2.2-.2.1 0 .2 0 .2.2s-.1.3-.2.3z"/><path d="M11.1 20.2h-.5c-.1 0-.2 0-.2-.2s0-.3.2-.3h.5c.1 0 .2 0 .2.2s0 .3-.2.3zm-1.9 0c-.1 0-.2-.1-.2-.3 0-.1 0-.2.2-.2s.2 0 .2.2 0 .3-.2.3z"/><path d="M9.2 20.2h-.5c-.2 0-.2-.2-.2-.3 0-.2.1-.2.2-.2h.5c.2 0 .2.2.2.3 0 0 0 .2-.2.2zm-1.9-.4l-.2-.2c0-.2 0-.3.2-.3s.3.1.3.3c0 .1-.1.2-.3.2z"/><path d="M7.3 19.8l-.5-.1c0-.1-.2-.2-.1-.3l.2-.2.5.2s.2.1.1.3h-.2z"/><circle cx="5.62109564" cy="18.847203" r="1"/><path d="M5.5 19l-.4-.2c-.1 0-.2-.2-.1-.3 0 0 .1-.1.2 0l.5.2s.1.1 0 .2c0 .1 0 .2-.2.1zM4 18l-.2-.2.2-.2.2.2c0 .1 0 .2-.2.2z"/><path d="M4 18l-.5-.4v-.3h.3l.4.3v.3h-.3zm-1.3-1.3l-.2-.2.2-.2s.2 0 .2.2l-.2.2z"/><path d="M2.6 16.6l-.3-.4V16h.3l.3.4v.3h-.3zm-1-1.5s-.2 0-.2-.2l.2-.2.2.2-.2.2z"/><path d="M1.5 15l-.3-.4.1-.2h.3l.2.4v.3h-.3zm-.6-1.6c-.1 0-.2 0-.2-.2l.2-.1v.3z"/><path d="M.7 13.2l-.1-.4v-.2H1v.5c.1 0 0 .2 0 .2H.7zm-.3-1.7l-.1-.2.1-.1.2.1c0 .1 0 .2-.2.2z"/><path d="M.3 11.4v-.6h.2v.7l-.2-.1zm.1-1.8l-.1-.1v-.1h.2l-.1.2z"/><path d="M.2 9.4V9l.2-.1v.5l-.1.1zm.5-1.7H.6v-.2l.2.1-.1.1z"/><path d="M.6 7.6l.1-.5h.1v.6H.5zm.7-1.7zm0-.1l.2-.4h.1l-.1.5h-.2zm1-1.5v-.1zm0-.1l.3-.4-.3.5v-.1zm1.2-1.4zm0 0l.4-.3-.3.3zM5 1.7s.1 0 0 0c.1 0 .1 0 0 0zm0 0l.5-.3-.4.3z"/><rect width="1" height="1" x="6.8" y=".9"/><polygon points="6.8 .9 7.2 .7 7.2 .7 7.2 .7 6.8 .9 6.8 .9"/><path d="M8.6.4h.5-.5z"/></g><path fill="#EBEBEB" fill-rule="nonzero" d="M107.9 91.4a6.8 6.8 0 0 1 6.8 6.9 7 7 0 0 1-6.9 7 7 7 0 0 1-4.9-2 7 7 0 0 1 5-11.9zm0 0a6.7 6.7 0 0 0-6.7 6.9 6.7 6.7 0 0 0 6.6 6.6c1.7 0 3.5-.7 4.7-2 1.2-1.2 2-2.9 2-4.6a7 7 0 0 0-2-4.8 6 6 0 0 0-4.6-2z"/><g fill="#4F8E99" fill-rule="nonzero" transform="translate(143.1 31.6)"><path d="M52 182c1.3 3.9 3 7.7 4.3 11.6l1.8 5.9 1.8 6a312 312 0 0 1 6.1 24c1.7 8 2.8 16.2 4.6 24.3l.8 3 .4 1.4.5 1.5.4 1.5v.7l-.2.3-.6.5-.2.2v.3c.1 0 .2 0 .3.2l1.5.4.7.1.8.2 1.5.3 3 .2 3.1-.1a17.8 17.8 0 0 1-3 .4 34.4 34.4 0 0 1-4.7-.4l-.8-.2-.7-.2c-.6 0-1-.1-1.6-.3l-.4-.3-.2-.1-.2-.2v-.4l.2-.3.3-.2.6-.5v-.5l-.3-1.5-.6-1.4-.4-1.5-.8-3c-2-8-3-16.3-4.9-24.3-1.6-8-3.7-16-5.9-24l-1.6-6-1.7-5.9c-1.2-4-2.8-7.8-3.9-11.7zm24.1 9.2a2 2 0 0 1 1.4 0c.5.1.9.4 1.1.8a7 7 0 0 1 1.3 2.6c.6 1.8 1.2 3.6 1.5 5.4.5 1.8.7 3.7 1 5.6l.7 5.6a401.5 401.5 0 0 1 1.9 28.2v11.3l.4 5.6.2 2.8.2 1.4v1.4a14.2 14.2 0 0 0 .2 2l.4.1 1.4.1h.8l.6.2a11.8 11.8 0 0 0 6.9-.4l1.2-.7c.2 0 .3-.2.4-.5v-.3l-.2-.2-.6-.4-.5-.4c0 .2.3.3.5.4l.6.4.3.2v.4l-.4.5c-.4.4-.8.5-1.3.7-.4.3-.8.5-1.3.6-1.8.5-3.8.4-5.7.1l-.7-.1h-.6c-.5 0-1 0-1.5-.2-.2 0-.5 0-.8-.3l-.1-.2v-.3l-.1-.4-.1-1.4v-1.3L85 259l-.4-2.7c-.4-3.8-.6-7.6-.6-11.3v-5.7l-.2-5.6a903.4 903.4 0 0 0-1.5-22.5l-.6-5.6a54.6 54.6 0 0 0-2.2-11c-.2-1-.5-1.8-1-2.6-.4-.4-.7-.7-1.1-.8a2 2 0 0 0-1.3 0z"/><path d="M96 260.9a10 10 0 0 1 .3-3.4c.2-1 .6-2.1 1-3.2l.8-3.2.8-3.3 3.4-13a663 663 0 0 1 3.6-13c1.1-4.3 2.3-8.6 3.2-13l2.8-13.2c.9-4.4 2-8.7 3-13.1s2-8.8 2.8-13.2l1.3-6.6c.5-2.2 1-4.3 1-6.5l1 .1a1100 1100 0 0 1-16.7 74.1c-2.3 8.1-4.6 16.3-7.1 24.3a1097 1097 0 0 0 18-73.7c1.8-8.3 3.4-16.6 5-24.9 0-.2.2-.4.5-.4.2 0 .4.3.4.5 0 2.3-.7 4.5-1.2 6.7l-1.2 6.6-3 13.2-3 13L110 209a203 203 0 0 1-3.4 13c-1.2 4.3-2.5 8.6-3.6 13l-3.7 12.9-.9 3.3-.9 3.2-1 3.2a10 10 0 0 0-.4 3.4zM73.4 264v.3l-.3.3-.5.4-1.2.8-2.5 1.4c-1.7 1-3.4 1.8-5.3 2.4l-1.3.5-1.4.4a2 2 0 0 0-.4.3v.2l.1.2.2.2.5.4c.6.6 1.5.8 2.4 1l2.8.3a15 15 0 0 0 5.3-1.2 21 21 0 0 0 4.9-2.8 5.2 5.2 0 0 0 1-1v-.2h.1v-.1h.1c0-.2.6 0 .5 0v.2l.1.3c0 .2.1.4.3.5.7.6 1.5 1 2.4.9.2 0 .4-.2.5-.3.2-.1.3-.3.3-.5.2-.4.4-.9.4-1.3.2-1 0-1.9 0-2.8 0 .9.3 1.8.3 2.8l-.1.8-.2.7-.4.7-.7.4c-.5.2-1 0-1.6 0-.4-.2-1-.4-1.3-.8-.3-.2-.5-.4-.6-.7l-.1-.3s.5.2.4 0h.1v.2a232244.2 232244.2 0 0 0-1 1.1 14.8 14.8 0 0 1-5 3.1c-1.8.8-3.8 1.3-5.8 1.3l-3-.3a6 6 0 0 1-2.7-1.2l-.6-.5-.3-.4-.1-.3c-.1-.2-.2-.4-.1-.6l.1-.3.2-.3.8-.4 1.4-.4 1.3-.3c1.8-.6 3.6-1.4 5.3-2.2a43.4 43.4 0 0 0 3.9-1.9l.5-.4.3-.3v-.1l.1-.1c0-.1 0 0-.1 0zm13 .6c-.3.3-.4.9-.5 1.3l-.1 1.5c0 .5 0 1 .2 1.4.2.4.4.8.8 1 .4.2.8.2 1.1-.1l.2-.3.1-.1v-.3h.1c0-.1 0-.2.2-.3h.5l2.9.7c1 .3 1.9.6 2.8.7l2.9.4c2 .2 3.9.2 5.8 0l1.4-.1a12.7 12.7 0 0 0 2.7-.7l1.1-.8.7-.5.5-.3.3-.4.1.1h-.2l-2.8-.7c-2-.4-3.9-.5-5.8-.8l-3-.6-1.4-.5c-.5-.2-1-.4-1.2-.9.3.5.8.6 1.3.8l1.4.3 2.9.4c1.9.2 3.9.2 5.9.5 1 .2 2 .3 2.9.6.1 0 .3 0 .5.2l.2.4v.4c-.2.4-.4.6-.7.8l-.6.4-.6.4-1.3 1-1.5.4-1.4.3-1.5.2a28.3 28.3 0 0 1-11.9-1.4l-2.7-.8-.2-.1v.1l-.1.1-.2.2-.3.3c-.2.2-.5.3-.8.3-.3 0-.6 0-.9-.2-.4-.3-.7-.8-.8-1.3-.2-.5-.2-1-.2-1.5l.2-1.5c.4-.1.6-.7.9-1zM9.9 0a9 9 0 0 1 2.4 2.5c.6.9 1.2 2 1.6 3A36.5 36.5 0 0 1 16 18.9c0 2.3-.4 4.5-1 6.7a39.9 39.9 0 0 0 0-10 37.2 37.2 0 0 0-1.8-9.8A13 13 0 0 0 9.9 0zm11.9 16.2l.5 7.3c.1 2.4.1 4.9-.3 7.3a90.4 90.4 0 0 1-10.5 27.3 34.3 34.3 0 0 1-4.7 5.6c-1.8 1.6-4 2.9-6.5 3.2 2.4-.5 4.5-1.9 6.2-3.6a31 31 0 0 0 4.4-5.7 105.3 105.3 0 0 0 10.3-27c1-4.6.5-9.5.6-14.4z"/></g></g><line x1="276.2367" x2="343.264723" y1="123.191743" y2="101.368666" stroke="#4F8E99" stroke-linecap="round" stroke-linejoin="round"/><line x1="105.903331" x2="191.117252" y1="178.694158" y2="150.919333" stroke="#4F8E99" stroke-linecap="round" stroke-linejoin="round"/><line x1="59.9426081" x2="0.42512488" y1="193.620765" y2="213.034801" stroke="#4F8E99" stroke-linecap="round" stroke-linejoin="round"/></g><g fill="#4F8E99" fill-rule="nonzero" transform="translate(296.6 224.4)"><path d="M.4 2A6 6 0 0 1 2 .4L3.3 0c.4 0 .8 0 1.1.3.8.3 1.4 1 1.8 1.5l1.2 2 1 2.1 1 2c.6 1.5 1 3 1.6 4.3a66.7 66.7 0 0 1 3.2 13.3c.2 1.6.2 3 .1 4.6-.2-3-.8-6-1.5-9l-2.6-8.6-3.4-8.3-1-2c-.4-.5-1-1.1-1.5-1.4a2 2 0 0 0-2-.1c-.7.3-1.4.8-2 1.2z"/><path d="M0 3.9V2.8c0-.2 0-.4.2-.5L.3 2l.4-.2c.2 0 .3.2.5.4l.3.4.5 1c.6 1.2 1.2 2.5 1.6 4l.3 1 .2 1 .3 2.1.8 4.2a100 100 0 0 1 1.4 16.9c-.2-2.9-.6-5.6-1-8.4L5 20.2l-.7-4.1-.7-4.2-.3-2L3 8.7l-.2-1-1.3-4-.4-1-.3-.4L.5 2l-.3.3-.2.4-.1 1z"/><path d="M3.8 9.2l.6-.5.7-.2h.6c.3 0 .5 0 .8.2l-.6.5-.6.2h-.7c-.3 0-.5 0-.8-.2zm.8 5.1l1-.5.9-.3h1c.3 0 .7 0 1 .2l-.9.5-1 .3h-1c-.3 0-.6 0-1-.2zm.8 3.7l1-.4h.2l.2-.1h1.6c.3 0 .7.1 1 .3a3 3 0 0 1-1 .4l-1 .2h-.8c-.4 0-.8 0-1.1-.4zm.6 4.6l.8-.3.8-.2h1.7c-.3.3-.5.5-.8.6a4 4 0 0 1-.8.4h-.9l-.8-.5zm.7 5.9c.3-.3.7-.4 1-.5l.9-.3 1-.2h1c-.2.3-.4.5-.8.7l-1 .4c-.3.1-.7.2-1 .1-.4 0-.7 0-1-.2z"/></g><path fill="#FFF" fill-rule="nonzero" d="M305.1 181.6c1.8 1.1 3 2.9 4 4.8a88.2 88.2 0 0 1 3.6 18.4c.1 4.2-.2 8.5-1.7 12.4a17.1 17.1 0 0 1-7.6 9.8l1.3-1 .5-.5.6-.6a18.8 18.8 0 0 0 4.5-8c1.3-3.9 1.6-8 1.4-12a53 53 0 0 0-1-9.3l-.6-3c-.4-2.1-.8-4.1-1.5-6-.7-2-1.8-3.7-3.5-5zm-56.2-9.7l2 2.5a12.9 12.9 0 0 0 1.7 1.7l.6.5c1.7 1.2 3.8 2 5.8 2.3 2.1.2 4.3 0 6.2-1a21 21 0 0 0 5.2-3.6 60.8 60.8 0 0 0 12.2-14.8 107.6 107.6 0 0 0 .2 0c-1 2-2.3 3.7-3.5 5.5a55.5 55.5 0 0 1-8.6 9.6 22 22 0 0 1-5.3 3.7 12 12 0 0 1-6.5 1c-2.1-.4-4.2-1.3-5.9-2.5l-.7-.6-.5-.5a13 13 0 0 1-1-1.3l-2-2.5z"/><g fill="#4F92C4" fill-rule="nonzero" transform="translate(118 82.7)"><path d="M92 59c0 .7 0 1.5-.2 2.2l-.4 2.3-1.1 4.4a110.1 110.1 0 0 1-4.7 13c-.7 1.3-1.4 2.7-2.4 4-1 1.2-2.2 2.3-3.5 3.1a45.2 45.2 0 0 1-12.9 5 65.7 65.7 0 0 1-18.2 1.6l-4.6-.4a19 19 0 0 1-2.2-.4l-1.1-.4a27.7 27.7 0 0 0 7.9.7 72.5 72.5 0 0 0 26.6-4.8c1.4-.6 2.8-1.3 4-2.1a13 13 0 0 0 3.3-2.9c1-1.1 1.6-2.5 2.3-3.8l1.9-4.2a108.6 108.6 0 0 0 4.4-13l.6-2.1c.2-.7.3-1.4.3-2.2zM1.7 25c-.4-.2-.8-.6-1-1.1L0 22.4c0-1 0-2.1.3-3.2A23.2 23.2 0 0 1 3.5 12l1-1.2 2.3-2.3a28.4 28.4 0 0 1 11-5.9A78.3 78.3 0 0 1 36.3 0l-6.2.8a86.3 86.3 0 0 0-12 2.6A30 30 0 0 0 7.3 9.2l-2.2 2.1-1 1.2-.8 1.2a24 24 0 0 0-2.5 5.7c-.3 1-.5 2-.4 3l.3 1.5c.2.4.6.8 1 1zM61 1c1.2-.2 2.4-.2 3.6-.2l3.7.2 7.1.9 3.6.7c.6 0 1.3.2 1.8.5l.9.3.8.3A21.2 21.2 0 0 1 93.6 13c1.2 2.2 2 4.6 2.4 7 1 4.8.7 9.7 0 14.4a61.5 61.5 0 0 0-.7-14.3l-1-3.4a20 20 0 0 0-6-8.6 24 24 0 0 0-6.1-3.6l-.8-.3-.9-.3a45.8 45.8 0 0 0-5.2-1.2A172.6 172.6 0 0 0 64.6 1h-1.8A8 8 0 0 0 61 1z"/><path d="M5 12.3c-.2.2-.5.5-.6.8-.1.3 0 .6.1.9.4.5 1 .9 1.6 1.2 1.3.5 2.6 1 4 1.3A60.1 60.1 0 0 0 22.5 18h4.2c2.8 0 5.7 0 8.4-.2a62.9 62.9 0 0 1-16.9 1 50 50 0 0 1-8.3-1.6A20.5 20.5 0 0 1 5 15a2 2 0 0 1-.7-.8c-.2-.4-.2-.8 0-1.1l.8-.8zM57.8 19c1.4.3 2.9.4 4.4.4h2.1l2.2-.3 2.2-.2 2.2-.3 4.3-.8a136.2 136.2 0 0 0 8.4-2 21 21 0 0 0 4-1.6 6 6 0 0 0 3-3c-.2.7-.6 1.4-1 2l-1.8 1.4c-1.2.8-2.6 1.4-4 1.9a66.8 66.8 0 0 1-21.7 3.3 15 15 0 0 1-4.3-.8z"/></g></g><path fill="#C3D8DC" fill-rule="nonzero" d="M90.3 64.1h-.2c-2.5-2-4.5-4.5-5.7-7.4a13 13 0 0 1 .6-11.6l1.5-1.9a10.2 10.2 0 0 1 11.2-2.3 9 9 0 0 1 2 1.4l-.4.2a9.2 9.2 0 0 1-.3-3.7 6 6 0 0 1 1.5-3.5 5 5 0 0 1 3.6-1.5c.6 0 1.3 0 1.9.4a4 4 0 0 1 1.6 1.3l-.8.2a9 9 0 0 1 1.2-4.3 10.6 10.6 0 0 1 9.5-5.3l2.2.1a17 17 0 0 1 8 3.6 25 25 0 0 1 5.7 6.7l-1.2.3c.1-.9.5-1.8 1.2-2.4.6-.7 1.3-1.2 2.1-1.5 1.6-.7 3.4-.8 5.1-.3 1.7.5 3 1.6 4.2 2.8 1.1 1.2 2 2.6 2.8 4l-.9-.3c2.2-1 4.7-.7 6.7.4a7 7 0 0 1 3.5 5.6c0 .4-.3.7-.6.7h-4.4l-4.3.1a208.5 208.5 0 0 0-25.6 4.2c-5.7 1.4-11.3 3-16.7 5.2a51.2 51.2 0 0 0-15 8.7zm271-13.7l-57.8 13.9c-1.1 0-2-1-2.1-2.2-.2-1.1.7-2.3 1.8-2.6-2.7-2-4.9-5-5.6-8.5a10 10 0 0 1 3.2-9.5c2.7-2.1 7-2.3 9.5 0-.6-1.8-.4-4.1.9-5.5 1.4-1.5 4.1-1.6 5.1.1 0-3 2.4-5.8 5.2-6.8 3-1 6.2-.5 8.9 1.1 2.6 1.6 4.7 4 6.2 6.6.3-2.5 3.5-3.8 5.9-3 2.4.8 4 3 5.2 5.3a5 5 0 0 1 5.3.7 5.4 5.4 0 0 1 2 5c1.5-1 4-1 5.4.3a4.2 4.2 0 0 1 .9 5.1z"/></g></svg>